<svg xmlns="http://www.w3.org/2000/svg" xmlns:xlink="http://www.w3.org/1999/xlink" width="400" height="560" xmlns:v="https://vecta.io/nano"><path d="M0 0h400v560H0z"/><path d="M20 523.73V36.27A10.17 10.17 0 0 1 30.17 26.1h339.66A10.17 10.17 0 0 1 380 36.27v487.45a10.17 10.17 0 0 1-10.17 10.17H30.17A10.16 10.16 0 0 1 20 523.73z" fill="#fc1a05"/><path d="M42 347.35h316v172H42z" fill="#e6771a"/><path d="M42 44.64h316v473.43H42z" fill="none" stroke="#000" stroke-width="5" stroke-miterlimit="10"/><radialGradient id="A" cx="183.201" cy="218.336" r="155.629" gradientTransform="matrix(1.1328 0 0 0.9786 -5.4203 7.6094)" gradientUnits="userSpaceOnUse"><stop offset="0" stop-color="#444f18"/><stop offset=".263" stop-color="#363f13"/><stop offset=".775" stop-color="#121506"/><stop offset="1"/></radialGradient><path d="M40.82,77.21H358V332.7H40.82V77.21z" fill="url(#A)"/><path d="M25 354.52h0c0-13.25 10.75-24 24-24h302c13.25 0 24 10.75 24 24h0c0 13.25-10.75 24-24 24H49c-13.25 0-24-10.74-24-24z"/><path d="M31.18 355.52v-2a18.5 18.5 0 0 1 18.5-18.5h300.65a18.5 18.5 0 0 1 18.5 18.5v2a18.5 18.5 0 0 1-18.5 18.5H49.68a18.5 18.5 0 0 1-18.5-18.5z" fill="#fc1a05"/><path d="M35.81 354.52h0a16 16 0 0 1 16-16h296.38a16 16 0 0 1 16 16h0a16 16 0 0 1-16 16H51.81a16 16 0 0 1-16-16z" fill="#f3f2e9"/><path d="M25 57.71h0c0-13.25 10.75-24 24-24h302c13.25 0 24 10.75 24 24h0c0 13.25-10.75 24-24 24H49c-13.25 0-24-10.75-24-24z"/><path d="M31.18 58.71v-2a18.5 18.5 0 0 1 18.5-18.5h300.65a18.5 18.5 0 0 1 18.5 18.5v2a18.5 18.5 0 0 1-18.5 18.5H49.68c-10.22 0-18.5-8.29-18.5-18.5z" fill="#fc1a05"/><path d="M35.81 57.71h0a16 16 0 0 1 16-16h296.38a16 16 0 0 1 16 16h0a16 16 0 0 1-16 16H51.81c-8.84 0-16-7.17-16-16z" fill="#f3f2e9"/><text transform="matrix(1.0294 0 0 1 74.6012 69.8681)" font-family="AcademyEngravedLetPlain" font-size="35.163">ZOMBIE PEPE</text><text transform="matrix(.8327 0 0 1 75.271 359.7607)" font-family="ArialMT" font-size="19.648">= 0   Atk = 55  Spd = 06  Ele = carcuss</text><g fill="#e30206"><path d="M63.55 363.99l.18-15.82s-4.34-5.6-7.76-1.79c-4.39 4.88 7.58 17.61 7.58 17.61z"/><path d="M63.45 363.72l-.47-15.56h1.27v14.65z"/><path d="M63.55 363.99l.1-15.82s4.34-5.6 7.76-1.79c4.4 4.88-7.86 17.61-7.86 17.61z"/></g><path d="M71.41 518.07l20-46.24h216l20 46.24z"/><path d="M87.91 525.51l10.67-45.06h201.66l11.67 46z" fill="#fc1a05"/><text transform="matrix(1.0294 0 0 1 99.6579 514.8252)" font-family="Impact" font-size="26.924">THE UNPRUNABLES</text><g fill="#444f18"><path d="M138.63,211.03l123,15.59v44.33h-123V211.03z"/><path d="M138.63,211.03l111-8.15v18.1l-111,49.98V211.03z"/></g><path d="M175.88,265.2h48.13v65.32h-48.13V265.2z" fill="#444f19"/><use xlink:href="#E" fill="#8c4645"/><path d="M158.25 166.81L234 144.52l15 5.15-97.5 61.72 6.75-44.58z" fill="#560e0d"/><path d="M161.5 174.24l88.12-29.72v66.87h-99.38l11.26-37.15z" fill="#444f19"/><path d="M199.13,240.4h9.38v4.19h-9.38V240.4z"/><path d="M170.63,218.46h58.63v44.94h-58.63V218.46z" fill="#7b0e04"/><path d="M172.75,228.29h54.38v26.49h-54.38V228.29z"/><path d="M212.88 228.29h7.88v13.3h-7.88v-13.3zm-33.13 13.3v-13.3h7.88l-1.88 11.51-6 1.79z" fill="#d6c55f"/><path d="M185.5 245.19v-5.39h10v8.39l-10-3z"/><path d="M200.01 254.78V241.6l7.25 5.39.62 7.79h-7.87z" fill="#d5c55f"/><path d="M199.25 244.59v-5.51h10v8.51l-10-3z"/><path d="M234.63 322.13H244v8.39h-9.38v-8.39z" fill="#2b330d"/><g fill="#560c0d"><use xlink:href="#F"/><path d="M249.38 215.23l6.62 1.68 2.12 7.55 3.5 1.2v13.54 10.79l-7.87-20.37-15.88-5.63 4.25-4.19 5-2.52 2.26-2.05zM204 242.19l.5 2.28 1.62 1.92.63.48-1.25 2.76-2.12 1.56-2.25-3.95-1.12-2.76.25-.96 2.5 1.2 1.24-2.53zm-20-1.91l1.75-.48 1-6.11-2.75 6.59z"/></g><radialGradient id="B" cx="-58.777" cy="642.601" r="1.801" gradientTransform="matrix(5.3113 0 0 -5.3367 536.8901 3619.041)" gradientUnits="userSpaceOnUse"><stop offset="0" stop-color="#a82117"/><stop offset=".212" stop-color="#a72219"/><stop offset=".351" stop-color="#a5271e"/><stop offset=".468" stop-color="#a03026"/><stop offset=".574" stop-color="#9a3c30"/><stop offset=".672" stop-color="#90483b"/><stop offset=".764" stop-color="#835145"/><stop offset=".851" stop-color="#70554b"/><stop offset=".933" stop-color="#574d49"/><stop offset="1" stop-color="#383838"/></radialGradient><ellipse cx="224.75" cy="189.7" rx="13.13" ry="13.18" fill="url(#B)"/><g opacity=".451" fill="#2d2e2e"><path d="M228.75 193.54h-8 0v.72h0 8 0v-.72h0zm.38-2.28h-8.75v1.92h8.75v-1.92z"/><path d="M225.75 185.63h-2.12v5.63h2.12v-5.63z"/><use xlink:href="#G"/></g><radialGradient id="C" cx="-67.924" cy="642.601" r="1.801" gradientTransform="matrix(5.3113 0 0 -5.3367 536.8901 3619.041)" gradientUnits="userSpaceOnUse"><stop offset="0" stop-color="#a82117"/><stop offset=".212" stop-color="#a72219"/><stop offset=".351" stop-color="#a5271e"/><stop offset=".468" stop-color="#a03026"/><stop offset=".574" stop-color="#9a3c30"/><stop offset=".672" stop-color="#90483b"/><stop offset=".764" stop-color="#835145"/><stop offset=".851" stop-color="#70554b"/><stop offset=".933" stop-color="#574d49"/><stop offset="1" stop-color="#383838"/></radialGradient><ellipse cx="176.13" cy="189.7" rx="13.13" ry="13.18" fill="url(#C)"/><g opacity=".451" fill="#2d2e2e"><path d="M180.13 193.54h-8 0v.72h0 8 0v-.72h0zm.37-2.28h-8.75v1.92h8.75v-1.92z"/><path d="M177.25 185.63h-2.12v5.63h2.12v-5.63z"/><use xlink:href="#H"/></g><g fill="#444f19"><path d="M118,300.68l23.75,3.24l13.39,26.61H118V300.68z"/><path d="M118 300.68h23.78v29.84H118v-29.84zm45.64 0H282v29.84H163.64v-29.84z"/></g><path d="M138.63,211.03l111.09,4.28l11.91,55.64h-123V211.03z" fill="#444f18"/><path d="M175.88,265.2h48.13v65.32h-48.13V265.2z" fill="#444f19"/><use xlink:href="#E" fill="#8c4645"/><path d="M158.25 166.81L234 144.52l15 5.15-97.5 61.72 6.75-44.58z" fill="#560e0d"/><path d="M161.5 174.24l88.12-29.72v66.87h-99.38l11.26-37.15z" fill="#444f19"/><path d="M199.13,240.4h9.38v4.19h-9.38V240.4z"/><path d="M170.63,218.46h58.63v44.94h-58.63V218.46z" fill="#7b0e04"/><path d="M172.75,228.29h54.38v26.49h-54.38V228.29z"/><path d="M212.88 228.29h7.88v13.3h-7.88v-13.3zm-33.13 13.3v-13.3h7.88l-1.88 11.51-6 1.79z" fill="#d6c55f"/><path d="M185.5 245.19v-5.39h10v8.39l-10-3z"/><path d="M200.01 254.78V241.6l7.25 5.39.62 7.79h-7.87z" fill="#d5c55f"/><path d="M199.25 244.59v-5.51h10v8.51l-10-3z"/><path d="M234.63 322.13H244v8.39h-9.38v-8.39z" fill="#2b330d"/><g fill="#560c0d"><use xlink:href="#F"/><path d="M249.63 214.82l6.38 2.09 2.12 7.55 3.5 1.2v13.54 10.79l-7.87-20.37-15.88-5.63 4.25-4.19 5-2.52 2.5-2.46zM204 242.19l.5 2.28 1.62 1.92.63.48-1.25 2.76-2.12 1.56-2.25-3.95-1.12-2.76.25-.96 2.5 1.2 1.24-2.53zm-20-1.91l1.75-.48 1-6.11-2.75 6.59z"/></g><ellipse cx="224.75" cy="189.7" rx="13.13" ry="13.18" fill="url(#B)"/><g opacity=".451" fill="#2d2e2e"><path d="M228.75 193.54h-8 0v.72h0 8 0v-.72h0zm.38-2.28h-8.75v1.92h8.75v-1.92z"/><path d="M225.75 185.63h-2.12v5.63h2.12v-5.63z"/><use xlink:href="#G"/></g><ellipse cx="176.13" cy="189.7" rx="13.13" ry="13.18" fill="url(#C)"/><g opacity=".451" fill="#2d2e2e"><path d="M180.13 193.54h-8 0v.72h0 8 0v-.72h0zm.37-2.28h-8.75v1.92h8.75v-1.92z"/><path d="M177.25 185.63h-2.12v5.63h2.12v-5.63z"/><use xlink:href="#H"/></g><text><tspan font-family="Arial-BoldMT" font-size="30.38" x="127.122" y="414.261">“Oh, I do it</tspan><tspan x="120.372" y="450.721" font-family="Arial-BoldMT" font-size="30.38">to blend in”</tspan></text><defs ><path id="E" d="M161.38 168.85s1.13-4.43 2.13-5.51c1.25-1.2 4.62-2.52 5.75-3.84.87-.96 1.25-3.72 2.25-4.67 1.25-1.08 5-.84 6.38-1.8 1.25-.72 2.12-4.07 3.38-4.79 1.25-.6 4.12.84 5.5.6 1.25-.24 2.75-2.76 4-2.88s3.25 1.92 4.38 2.52c1 .72 3.5 1.08 4.62 1.8 1.38.84 3 3.95 3 3.95s2.5-1.8 3-2.64 1.25-2.64 2.62-3.24c.25-.12 3.88.24 5-.36.75-.36 1-2.4 1.62-2.76.88-.48 2.88 1.08 4 1.08.62 0 1.62-1.08 2.25-1.2 1-.12 7.12 1.68 7.12 1.68l-2.62 6.95c-.01.01-64.38 15.11-64.38 15.11z"/><path id="F" d="M141.75 303.91l13.5 3.36 8.38-6.59 3.5 29.84h-15.25l-8.88-2.4-2.38-6.59-12.75 3.12 4.38-12.58 8.62-2.4.88-5.76z"/><path id="G" d="M224.75 183.47l-2.37 1.68.87 2.76h2.88l.88-2.76c-.01 0-2.26-1.68-2.26-1.68zm0 7.79l1 .96 1-.96-1-.96-1 .96zm-1.12-.96l-1 .96 1 .96 1.12-.96-1.12-.96h0z"/><path id="H" d="M176.13 183.47l-2.38 1.68 1 2.76h2.88l.88-2.76-2.38-1.68zm0 7.79l1 .96 1-.96-1-.96-1 .96zm-1-.96l-1 .96 1 .96 1-.96-1-.96h0z"/></defs></svg>