<svg xmlns="http://www.w3.org/2000/svg" version="1.1" viewBox="0 0 68 68.001"><path d="M0 .001h68v68H0z" fill="#846178" fill-opacity="1" display="inline"/><path d="M35.1 11.557C12.981 18.706 13.915 42.974 34.471 60c14.394.972 17.664-49.865.63-48.443z" fill="#d3010a" fill-opacity="1" display="inline"/><path d="M33.92 12.305c-23.12-1.194-13.312 44.192-.157 46.664-2.955-.267-18.74-35.409-1.092-29.928-12.31-5.26-8.558-11.362 1.25-16.736Z" fill="#f95b45" fill-opacity="1" display="inline"/><path d="M35.399 29.905c14.117 4.056 4.294 29.54-1.617 29.09 16.253 1.204 9.139-25.662 15.783-30.988-4.788 1.54-9.123 1.977-14.166 1.898zm3.094-16.741c2.973 1.576 12.152 12.235 3.089 15.731 1.237.11 7.498-2.268 8.028-2.422 3.694-2.477-5.842-13.14-11.117-13.309z" fill="#660307" fill-opacity="1" display="inline"/><path d="M48.86 23.404c1.951 4.44-10.903 6.118-13.364 6.494 3.795.923 6.94-.08 15.137-1.925-.054-2.137-1.513-4.569-1.772-4.569z" fill="#000" display="inline"/><path d="M42.647.101C26.755 3.997 15.489 4.537.012 5.963L0 11.256C17.304 10.368 33.694 7.634 51.463.01l-8.557.02z" fill="#135daf" fill-opacity="1" display="inline"/><path d="m.005 10.049.012 3.073C14.679 12.97 47.777 2.629 52.875.005L51.73.002C46.03-.01 17.924 10.37.005 10.048Z" fill="#03296b" fill-opacity="1" display="inline"/><path d="m.01 3.649.013 2.588c1.94.031 25.336-1.66 42.919-6.229C31.082-.046 14.863 2.134.01 3.65Z" fill="#2590db" fill-opacity="1" display="inline"/><path d="M31.108 8.984c-1.356.601-2.4 1.574-1.249 2.794 3.893-.24 4.106-1.873 1.25-2.794z" fill="#d2800d" fill-opacity="1" display="inline"/><path d="M29.71 12.38c-1.8-2.92 2.729-6.61 3.88-.78" fill="#660307" fill-opacity="1" stroke="#000" stroke-dasharray="none" stroke-linecap="butt" stroke-linejoin="miter" stroke-opacity="1" stroke-width="1.321" display="inline"/><path d="M30.478.048C31.312.045 17.765.508 0 2.558l.047 1.098C13.839 2.662 25.593 1.19 39.471.016ZM52.879.006C24.95 10.146 12.279 11.619.019 13.127l-.01 1.354C34.697 10.25 55.032 0 54.715.002Z" fill="#000" fill-opacity="1" display="inline"/><path d="M20.927 40.286c8.538 33.92 28.242 18.07 25.216-5.437-.443-3.441 5.22-6.267 4.725-9.439-16.022-30.328-38.245-4.244-29.94 14.876z" fill="none" stroke="#000" stroke-dasharray="none" stroke-linecap="butt" stroke-linejoin="miter" stroke-opacity="1" stroke-width="1.5" display="inline"/><path d="M25.563 34.04c-3.634-1.251-3.889-7.11-4.966-10.327-2.08 8.222-1.763 20.717 4.966 10.328z" fill="none" stroke="#000" stroke-dasharray="none" stroke-linecap="butt" stroke-linejoin="miter" stroke-opacity="1" stroke-width="1.003" display="inline"/><path d="M24.847 34.282c-3.107-2.033-4.15-8.247-4.191-8.596-1.473 7.13-.939 17.2 4.19 8.596z" fill="#fefdf9" fill-opacity="1" display="inline"/><path d="M27.256 33.69c-2.035-5.547-2.165-12.78-1.176-18.498m1.207 18.436c4.53-6.306 6.848-14.227 8.015-21.577M24.297 49.953c1.458-2.58 3.09-8.995 2.967-16.112 2.13 9.35 7.383 17.082 14.498 21.446m-20.136-34.25c.858 5.331 3.254 9.838 5.487 12.765m.276-.016c6.744-4.745 13.284-11.253 16.503-17.84" fill="none" stroke="#000" stroke-dasharray="none" stroke-linecap="butt" stroke-linejoin="miter" stroke-opacity="1" stroke-width=".5" display="inline"/><path d="M22.63 44.245c2.078-2.444 3.294-6.054 4.583-10.578m.061.015c4.93 7.408 11.034 13.102 17.904 12.873M22.384 29.842c4.515-8.417 11.785-3.811 12.176 1.106" fill="none" stroke="#000" stroke-dasharray="none" stroke-linecap="butt" stroke-linejoin="miter" stroke-opacity="1" stroke-width=".5" display="inline"/><path d="M21.03 25.598c4.794-11.418 18.737-13.382 23.638 2.463" fill="none" stroke="#000" stroke-dasharray="none" stroke-linecap="butt" stroke-linejoin="miter" stroke-opacity="1" stroke-width=".5" display="inline"/><path d="M29.166 34.252c3.018-.7 8.537-5.102 11.703-10.065-1.233 23.227-11.07 11.642-11.703 10.065z" fill="none" stroke="#000" stroke-dasharray="none" stroke-linecap="butt" stroke-linejoin="miter" stroke-opacity="1" stroke-width="1" display="inline"/><path d="M40.253 25.955c-.971 12.947-5.275 15.11-10.46 8.473.894.032 6.316-3.104 10.46-8.473z" fill="#fefdf9" fill-opacity="1" display="inline"/><path d="M22.482 38.02c2.527 13.188 12.116 5.427 12.308.661" fill="none" stroke="#000" stroke-dasharray="none" stroke-linecap="butt" stroke-linejoin="miter" stroke-opacity="1" stroke-width=".5" display="inline"/><path d="M22.26 45.092c3.748 10.081 19.87 16.25 22.342-16.053" fill="none" stroke="#000" stroke-dasharray="none" stroke-linecap="butt" stroke-linejoin="miter" stroke-opacity="1" stroke-width=".5" display="inline"/><path d="M55.077 36.274c.569-.657 1.728-.908 1.698-1.982L56.522.002l.467-.003.592 35.326c.102.688.654.675 1.034.965" fill="#fff" display="inline"/><path d="M54.864 52.659c-16.183-21.787 19.555-22.687 3.68.377 2.115 5.503-5.786 6.009-3.68-.377z" fill="#000" display="inline"/><path d="M55.12 52.042c-7.604 1.765-9.61 10.607-9.38 14.65 1.767-3.65 2.146-11.106 9.307-13.48z" fill="#000" display="inline"/><path d="M54.845 52.386c-7.505 2.146-13.55-4.612-15.31-8.259 3.316 2.334 7.265 8.67 14.679 7.272z" fill="#000" display="inline"/><path d="M54.631 51.99c-7.59-1.822-9.53-10.679-9.27-14.72 1.74 3.663 2.063 11.122 9.206 13.55zm.596.663c-6.769 2.675-4.07 10.146-.274 12.95-.4-1.55-7.06-8.94.101-11.313z" fill="#000" display="inline"/><path d="M55.967 55.574c-1.763.553-1.125 2.744.052 2.946-.808-.816-.88-2.079-.052-2.946zm1.278.075c1.763.552 1.025 2.643-.152 2.845.808-.816.98-1.978.152-2.845zm.962-4.041c7.604 1.765 9.61 10.607 9.38 14.65-1.767-3.65-2.146-11.106-9.307-13.48z" fill="#000" display="inline"/><path d="M58.954 52.377c7.029 1.092 9.028-1.127 9.031-1.531l.008-1.152c-.85.925-1.52 2.444-8.408 1.695z" fill="#000" display="inline"/><path d="M59.545 51.697c4.351-1.14 8.436-3.577 8.446-6.01l.007-1.912c-2.365 4.757-2.276 4.291-8.39 6.752zm-1.057.758c6.769 2.675 4.07 10.146.274 12.949.4-1.55 7.06-8.938-.101-11.313z" fill="#000" display="inline"/><path d="m58.332 40.9-2.43 7.822.599-5.698-1.731-.678 1.926-4.89-.519 3.779" fill="red" display="inline"/></svg>