<svg xmlns="http://www.w3.org/2000/svg" height="100%" stroke-miterlimit="10" viewBox="0 0 838 838" width="100%" fill-rule="nonzero" stroke-linecap="round" stroke-linejoin="round" xmlns:v="https://vecta.io/nano"><path d="M0 0h838 0v838h0H0h0V0h0z" fill="#fff"/><path d="M0 0h838 0v838h0H0h0V0h0z" fill="#f5891d"/><g fill="#fff"><path d="M251.4 251.4h335.2 0v502.8h0-335.2 0V251.4h0z"/><path d="M167.6 251.4h502.8 0v419h0-502.8 0v-419h0z"/><path d="M335.2 670.4h167.6 0V838h0-167.6 0V670.4h0zM83.8 502.8h670.4 0v83.8h0H83.8h0v-83.8h0z"/></g><g fill="#f7cf46"><path d="M83.8 586.6h670.4 0v83.8h0H83.8h0v-83.8h0z"/><path d="M251.4 502.8h335.2 0v167.6h0-335.2 0V502.8h0z"/></g><path d="M251.4 335.2h83.8 0V419h0-83.8 0v-83.8h0zm251.4 0h83.8 0V419h0-83.8 0v-83.8h0z"/><g fill="none" stroke="#000" stroke-linejoin="miter" stroke-width="5.61"><path d="M341.269 230.545l57.157.452-.27 19.623-57.157-.452.27-19.623zm98.034.775l57.698.456-.27 19.624-57.697-.456.269-19.624z"/><path d="M377.981 230.835l81.765.647-.269 19.623-81.765-.646.269-19.624z"/></g><path d="M356.668 210.688h124.664 0v12.359h0-124.664 0v-12.359h0zm-6-37.796h136.664v32.405H350.668v-32.405z"/><path d="M402.329 80.487h33.342v93.565h-33.342V80.487z"/><path d="M418.974 43.729l36.211 28.037-13.779 45.435-44.727.043-13.864-45.408 36.159-28.107zM419 174.402l-15.632 15.867-16.316-16.568 15.631-15.867L419 174.402zm16.304-16.568l15.644 15.854-16.304 16.581L419 174.416l16.304-16.582z"/></svg>