<?xml version="1.0" encoding="utf-8"?>
<!-- Generator: Adobe Adobe Illustrator 24.2.0, SVG Export Plug-In . SVG Version: 6.00 Build 0)  -->
<svg version="1.1" id="Layer_1" xmlns="http://www.w3.org/2000/svg" xmlns:xlink="http://www.w3.org/1999/xlink" x="0px" y="0px"
	 width="20px" height="30px" viewBox="0 0 20 30" style="enable-background:new 0 0 20 30;" xml:space="preserve">
<style type="text/css">
	.st0{fill:#EC290C;}
	.st1{fill:#FFFFFF;}
	.st2{fill:#EF290E;}
	.st3{fill:#1F7028;}
	.st4{fill:#17712E;}
	.st5{fill:#A11E09;}
	.st6{font-family:'AcademyEngravedLetPlain';}
	.st7{font-size:0.4819px;}
</style>
<rect class="st0" width="20" height="30"/>
<rect x="1" y="1.05" class="st1" width="18" height="28"/>
<rect x="1.9" y="1.92" width="16.25" height="26.25"/>
<g>
	<path class="st2" d="M12.36,16.64c-0.09,0.09-0.43,0.23-0.49,0.26c-0.1,0.05-0.3,0.12-0.39,0.17c-0.1,0.05-0.38,0.2-0.38,0.2
		s0.16-0.54,0.22-0.71c0.08-0.22,0.27-0.64,0.35-0.86c0.17-0.47,0.43-1.43,0.58-1.9c0.11-0.36,0.32-1.09,0.48-1.43
		c0.16-0.35,0.58-0.99,0.8-1.3c0.19-0.28,0.58-0.84,0.8-1.11c0.18-0.22,0.74-0.86,0.74-0.86s-0.89-0.42-1.14-0.63
		c-0.21-0.17-0.48-0.65-0.67-0.84C13,7.37,12.44,6.94,12.11,6.83c-0.18-0.06-0.58-0.12-0.77-0.09c-0.23,0.05-0.65,0.29-0.85,0.4
		c-0.19,0.11-0.54,0.43-0.75,0.42c-0.21-0.01-0.7-0.47-0.7-0.47S8.5,6.6,8.27,6.57C7.99,6.54,7.46,6.8,7.23,6.94
		c-0.27,0.17-0.8,0.54-1.05,0.75C6,7.84,5.63,8.15,5.46,8.32C5.33,8.46,5.14,8.8,4.99,8.92C4.88,9.02,4.48,9.2,4.48,9.2
		s0.35-0.07,0.45-0.02C5.06,9.24,5.4,9.77,5.48,9.89c0.19,0.29,0.46,1.13,0.46,1.13l-0.8,0.68l-0.6-1.32c0,0-0.27-0.39-0.4-0.56
		C4.02,9.68,3.61,9.35,3.54,9.19C3.49,9.08,3.55,8.72,3.62,8.62c0.1-0.16,0.52-0.25,0.69-0.33c0.21-0.1,0.6-0.39,0.76-0.57
		C5.52,7.2,6.18,5.97,6.58,5.41C6.8,5.1,7.26,4.45,7.57,4.24c0.31-0.21,1.04-0.53,1.42-0.52c0.31,0.01,0.88,0.29,1.08,0.53
		c0.15,0.17,0.28,0.73,0.28,0.73s0.68-0.67,0.94-0.84c0.21-0.14,0.66-0.39,0.91-0.42c0.26-0.03,0.83,0.01,1.05,0.15
		c0.29,0.18,0.7,0.75,0.85,1.05c0.14,0.28,0.32,0.89,0.46,1.18c0.19,0.39,0.61,1.17,0.91,1.47c0.28,0.28,1.02,0.66,1.28,0.96
		c0.07,0.08,0.16,0.29,0.15,0.38c-0.01,0.2-0.33,0.43-0.46,0.53c-0.33,0.27-0.88,0.93-1.11,1.29c-0.25,0.37-0.69,1.15-0.88,1.56
		c-0.18,0.39-0.46,1.19-0.61,1.59c-0.13,0.36-0.39,1.08-0.56,1.42c-0.13,0.27-0.49,0.75-0.63,1.01
		C12.63,16.37,12.42,16.57,12.36,16.64"/>
	<path class="st3" d="M8.02,8.52c0.36-0.01,1.25,0.35,1.27,0.72C9.3,9.55,8.7,9.89,8.47,10.11c-0.3,0.3-0.69,0.97-0.9,1.43
		c-0.28,0.61-0.77,2.6-0.77,2.6s0.68-1.97,0.96-2.58c0.18-0.39,0.54-0.96,0.85-1.26c0.22-0.22,0.55-0.43,0.75-0.55
		c0.12-0.08,0.42-0.31,0.56-0.36c0.41-0.13,0.89-0.01,1.24-0.1c0.18-0.04,0.59-0.22,0.75-0.31c0.14-0.08,0.48-0.33,0.48-0.33
		s0.24,0.28,0.35,0.33c0.1,0.05,0.41,0.13,0.52,0.1c0.22-0.06,0.68-0.49,0.68-0.49l1,0.56c0,0-0.9,0.89-1.16,1.22
		c-0.37,0.48-1.04,1.49-1.29,2.04c-0.3,0.65-0.69,2.03-0.91,2.71c-0.17,0.52-0.5,1.55-0.73,2.04c-0.17,0.36-0.55,1.07-0.81,1.38
		c-0.21,0.25-0.68,0.72-0.95,0.9c-0.25,0.17-0.8,0.43-1.08,0.52c-0.17,0.06-0.55,0.05-0.68,0.17c-0.09,0.08-0.15,0.32-0.17,0.44
		c-0.03,0.19-0.08,0.57-0.09,0.76c-0.01,0.27-0.02,0.81,0,1.08c0.02,0.21,0.11,0.63,0.13,0.84c0.01,0.12,0.05,0.38,0.01,0.49
		c-0.03,0.09-0.13,0.29-0.23,0.33c-0.08,0.03-0.28,0-0.35-0.06c-0.08-0.06-0.2-0.24-0.22-0.35c-0.02-0.19,0.13-0.55,0.17-0.73
		c0.06-0.31,0.06-0.93,0.06-1.25c0-0.3-0.01-1.22-0.01-1.22s-0.05-0.35-0.13-0.43c-0.1-0.1-0.4-0.14-0.54-0.18
		c-0.28-0.08-0.85-0.29-1.08-0.47c-0.27-0.2-0.73-0.7-0.89-0.99c-0.17-0.29-0.39-0.71-0.47-0.97c-0.07-0.24-0.12-0.74-0.12-0.98
		c0-0.2,0.06-0.8,0.03-0.78s0.1-1.26,0.2-1.67c0.12-0.48,0.45-1.41,0.68-1.85c0.22-0.42,0.7-1.24,1-1.59c0.3-0.34,1-0.92,1.35-1.21
		C6.97,9.08,7.62,8.52,8.02,8.52z"/>
	<ellipse class="st4" cx="6.74" cy="25.71" rx="3.57" ry="1.24"/>
	<path class="st1" d="M4.26,25.94c0-0.37,1.19-1.16,2.46-0.68c1.24,0.47,1.89,0.46,2.46,0.68c0.35,0.13-1.1,0.68-2.46,0.68
		S4.26,26.32,4.26,25.94z"/>
	<path class="st5" d="M8.32,8.52C8.64,8.5,9.13,8.85,9.25,9.11C9.35,9.33,8.7,9.63,8.5,9.77C8.18,10,7.56,10.61,7.3,10.9
		c-0.34,0.37-0.89,1.23-1.11,1.68c-0.22,0.45-0.61,1.38-0.72,1.87c-0.11,0.5-0.2,1.52-0.22,2.03c-0.01,0.33-0.02,0.99,0.02,1.32
		c0.04,0.33,0.16,0.99,0.29,1.3c0.1,0.23,0.47,0.78,0.47,0.78s-0.65-0.22-0.86-0.33c-0.26-0.13-0.54-0.29-0.72-0.57
		c-0.16-0.24-0.34-0.84-0.39-1.12c-0.09-0.46-0.23-1.4-0.22-1.87c0.01-0.4,0.11-1.2,0.21-1.58c0.18-0.7,0.58-2.12,0.94-2.74
		c0.33-0.57,1.24-1.54,1.7-2.02C7,9.33,7.88,8.54,8.32,8.52z"/>
	<path class="st1" d="M7.79,20c0.15,0,0.35-0.09,0.35-0.09s0.46-0.52,0.59-0.7c0.21-0.28,0.62-0.85,0.78-1.16
		c0.15-0.3,0.38-0.94,0.48-1.26c0.09-0.29,0.25-0.86,0.31-1.16c0.07-0.31,0.15-0.94,0.22-1.24c0.08-0.34,0.28-1.02,0.42-1.35
		c0.12-0.3,0.39-0.88,0.56-1.16c0.2-0.32,0.64-0.94,0.89-1.23c0.24-0.27,0.74-0.8,1.01-1.03c0.23-0.2,1.07-0.77,1.07-0.77
		l-0.51-0.29c0,0-0.52,0.38-0.69,0.43c-0.08,0.02-0.22,0.03-0.31,0.02c-0.08-0.01-0.28-0.07-0.36-0.06C12.4,9,12.05,9.13,11.88,9.21
		c-0.33,0.16-1,0.51-1.29,0.74c-0.56,0.45-1.6,1.49-1.99,2.1c-0.37,0.58-0.96,1.84-1.12,2.51c-0.13,0.57-0.2,1.74-0.2,2.33
		c0,0.42,0.03,1.27,0.05,1.69C7.36,18.94,7.43,20,7.79,20z"/>
	<path class="st1" d="M6.62,7.45C6.75,7.3,7.22,7.07,7.39,6.98c0.2-0.11,0.53-0.28,0.77-0.3c0.17-0.01,0.4,0.17,0.54,0.26
		c0.15,0.1,0.42,0.33,0.57,0.43C9.35,7.43,9.58,7.62,9.7,7.65c0.06,0.02,0.3-0.1,0.35-0.13c0.11-0.07,0.43-0.28,0.52-0.34
		c0.11-0.07,0.42-0.21,0.54-0.27c0.18-0.09,0.4-0.09,0.59-0.06c0.25,0.03,0.41,0.11,0.61,0.21c0.18,0.09,0.73,0.45,0.87,0.6
		c0.26,0.26,0.65,0.85,0.65,0.85s-0.21,0.17-0.29,0.22c-0.1,0.06-0.31,0.19-0.43,0.19c-0.13,0-0.38-0.1-0.48-0.18
		c-0.07-0.05-0.22-0.26-0.22-0.26s-0.39,0.28-0.53,0.37c-0.12,0.08-0.44,0.19-0.59,0.19c-0.17,0-0.52-0.08-0.67-0.17
		C10.45,8.79,10,8.4,10,8.4S9.76,8.58,9.67,8.63C9.51,8.71,9.2,8.87,9.02,8.88c-0.15,0-0.52-0.08-0.66-0.16
		c-0.17-0.09-0.5-0.59-0.5-0.59S7.45,8.22,7.31,8.21C7.16,8.19,6.87,8.03,6.77,7.91C6.69,7.82,6.55,7.55,6.62,7.45z"/>
	<ellipse transform="matrix(0.2694 -0.963 0.963 0.2694 -9.5474 20.8148)" cx="8.95" cy="16.7" rx="1.91" ry="0.72"/>
	<ellipse cx="5.85" cy="25.84" rx="0.7" ry="0.52"/>
</g>
<text transform="matrix(1 0 0 1 15.0506 27.8318)" class="st1 st6 st7">HNFT PEPE</text>
</svg>
