<svg xmlns="http://www.w3.org/2000/svg" viewBox="0 0 1800 1800"><g data-name="Layer 1"><path d="M0 0h1800v1800H0" fill="#32ff00"/><path d="M67 67h1669v1669H67" fill="#110f1c"/></g><g data-name="Layer 3"><path d="M600 200a2300 2300 0 00-100 500 2274 2274 0 00 55 742l721 190 224-95-77-670-72-35V610l-115-43-190-285Z" fill="#32ff00"/><path d="M672 240 600 342l35 115-111 356L600 1180l-200-40-15-140 46-137 63-341V387L600 200Z" fill="#06d100"/><path d="m936 272 100 20 194 291 90 33-32 100-120-42-33-84L1000 361l-119-34Zm342 566 117 55 16 123-218-190 85 12" fill="#efffeb"/><path d="m1127 953 168 63 144 23 57 500-223 91C817 1509 692 1459 700 1439s156 10 300-88a365 365 0 00 69-61L1400 1200l-185-29Z" fill="#06d100"/><path d="m400 1140 200 40a112 112 0 00-60 131 114 114 0 00 160 58 107 107 0 01-14-87 100 100 0 01 37-49A130 130 0 00 700 1300a116 116 0 00 20 67 129 129 0 00 132 45l140 76 64 56 200-66 88 91-75 56-651-81-62-64h-59Z" fill="#078c00"/></g><g data-name="Layer 6"><path d="M511 893 687 800l74 42 73-42 158 100-118 155-250-11Z" fill="red"/><path d="m825 716 107-133 178-39 40-40-36 75-167 36-122 101zm-92 2L658 580l-133-35-28-41 24 79 124 32 88 103" fill="#110f1c"/><path d="m661 923 92 36 112-44-111 27-93-19" fill="#bc0000"/><circle fill="#110f1c" cx="986" cy="833" r="6"/></g></svg>
