<svg xmlns="http://www.w3.org/2000/svg" width="24" height="24" xmlns:v="https://vecta.io/nano"><path d="M0 0h24v24H0z"/><path d="M1 1h22v22H1z" fill="#90d42f"/><text transform="translate(21.497 22.879)" font-family="AcademyEngravedLetPlain" font-size=".239">HNFT PEPE</text><g fill="#36a2cb"><path d="M18.58 20.51c.44.44 0 2.49 0 2.49H5.46s-.39-2 0-2.49c2.06-2.55 10.8-2.32 13.12 0zM7.95 11.87c1.43-1.49 6.84-1.64 8.11 0 .65.83.79 3.59 0 4.27-1.56 1.34-6.66 1.48-8.11 0-.74-.74-.73-3.51 0-4.27z"/><path d="M10.09 16.45h3.85V23h-3.85zM8.05 4.97c1.41-1.91 6.7-2.1 7.95 0 .81 1.36 0 7 0 7H8.05c0-.01-.91-5.77 0-7z"/></g><path d="M9.31 15.63c-.3-.42-.33-1.98 0-2.35 1.05-1.18 4.54-1.46 5.4 0 .27.45.3 1.93 0 2.35-.94 1.34-4.45 1.33-5.4 0z" fill="#fc2812"/><path d="M9.64 15.17c-.18-.25-.19-1.17 0-1.39.9-1.01 3.88-1.24 4.62 0 .16.27.17 1.14 0 1.39-.81 1.15-3.81 1.14-4.62 0z"/><path d="M14.79 22.3h.75v.7h-.75z" fill="#2c7894"/><path d="M8.49 22.3h.75v.7h-.75z" fill="#2b7795"/><path d="M15.01 10.33V8.36h1.33l-.12 1.91zm-6.08-.13V8.23H7.66l.12 1.91z"/><ellipse cx="12.02" cy="9.26" rx="2.82" ry="2.33" opacity=".788"/><ellipse cx="12" cy="9.21" rx="3.08" ry="2.47" fill="none" stroke="#000" stroke-width=".5"/><g opacity=".49"><path d="M12.02 6.93L10.2 9.26h3.65z" fill="#147876"/><path d="M12.02 11.59l1.83-2.33H10.2z"/></g><ellipse cx="12" cy="9.21" rx="2.82" ry="2.15" fill="none" stroke="#7d8282" stroke-width=".5"/><g fill="#2c322e"><path d="M22.73 22.51h-1.05 0v.09h0 1.05 0v-.09h0zm.05-.27h-1.15v.23h1.15v-.23z"/><path d="M22.34 21.57h-.28v.68h.28v-.68z"/><path d="M22.2 21.3l-.3.2.12.33h.38l.12-.33c-.01 0-.32-.2-.32-.2zm0 .95l.13.12.14-.12-.13-.12-.14.12zm-.13-.12l-.13.11.14.12.13-.11-.14-.12h0z"/></g></svg>