<svg xmlns="http://www.w3.org/2000/svg" viewBox="0 0 1800 1800"><g data-name="Layer 1"><path d="M0 0h1800v1800H0" fill="#0dff18"/><path d="M67 67h1669v1669H67" fill="#110f1c"/></g><g data-name="Layer 3"><path d="M600 200a2300 2300 0 00-100 500 2274 2274 0 00 55 742l721 190 224-95-77-670-72-35V610l-115-43-190-285Z" fill="#0dff18"/><path d="M672 240 600 342l35 115-111 356L600 1180l-200-40-15-140 46-137 63-341V387L600 200Z" fill="#00cc05"/><path d="m936 272 100 20 194 291 90 33-32 100-120-42-33-84L1000 361l-119-34Zm342 566 117 55 16 123-218-190 85 12" fill="#fff"/><path d="m1127 953 168 63 144 23 57 500-223 91-612-158 455-134L1400 1200l-185-29Z" fill="#15d60b"/><path d="m400 1140 200 40 91 148 300 163 64 56 200-66 88 91-75 56-651-81-62-64h-59Z" fill="#00a800"/></g><g data-name="Layer 4"><path d="M428 439 708 600l-14-100 30 100 143-220L740 606a1056 1056 0 01 100 25 867 867 0 01-109-16l189 200-200-187-6 124V627L538 809 700 618l-168 30L700 605Z" fill="#ff9739" stroke="#ff3600" stroke-linejoin="round" stroke-width="5"/><circle fill="#fff" cx="717" cy="611" r="13"/><path d="m1237 676-153-49c47 143 69 216 67 216s-31-72-85-218l-72 149 56-152c-109 15-164 21-165 20a1600 1600 0 01 163-32L871 492l182 100V477l21 112 120-219L1080 600l95-27-88 39Z" fill="#ff9739" stroke="#ff3600" stroke-linejoin="round" stroke-width="5"/><circle fill="#fff" cx="1068" cy="609" r="13"/></g></svg>
