<svg xmlns="http://www.w3.org/2000/svg" version="1.1" width="838" height="838"><title>'goose-pfp-609373' by Dmitri Cherniak</title><desc>seed=609373
backgroundColor=#2a9d0b
padding=0
innerPadding=0
timeout=100
dimension=1
border=false
Save=function(){return n.handleSave()}
frame=203

Rendered at Tue Oct 03 2023 23:17:39 GMT+0200 (heure d’été d’Europe centrale)
Generated in &lt;1ms
</desc><defs></defs><rect width="100%" height="100%" fill="#2a9d0b"></rect><g><g id="0-0"><rect x="0" y="0" height="838" width="838" fill="#F0943E"></rect><g><rect id="0-0-3-2-4-7" x="251.39999999999998" y="167.6" width="335.2" height="586.6" fill="#ffffff"></rect><rect id="0-0-2-3-6-5" x="167.6" y="251.39999999999998" width="502.79999999999995" height="419" fill="#ffffff"></rect><rect id="0-0-4-8-2-2" x="335.2" y="670.4" width="167.6" height="167.6" fill="#ffffff"></rect><rect id="0-0-1-7-8-1" x="83.8" y="586.6" width="670.4" height="83.8" fill="#F7CF46"></rect><rect id="0-0-3-6-4-2" x="251.39999999999998" y="502.79999999999995" width="335.2" height="167.6" fill="#F7CF46"></rect><rect id="0-0-3-4-1-1" x="251.39999999999998" y="335.2" width="83.8" height="83.8" fill="#D74BA8"></rect><rect id="0-0-6-4-1-1" x="502.79999999999995" y="335.2" width="83.8" height="83.8" fill="#D74BA8"></rect><rect id="0-0-3-5-1-1" x="251.39999999999998" y="419" width="83.8" height="83.8" fill="#000000"></rect><rect id="0-0-6-5-1-1" x="502.79999999999995" y="419" width="83.8" height="83.8" fill="#000000"></rect><rect id="0-0-4-1-2-2" x="335.2" y="83.8" width="167.6" height="167.6" fill="#ffffff"></rect><rect id="0-0-2-1-1-2" x="167.6" y="83.8" width="83.8" height="167.6" fill="#F7CF46"></rect><rect id="0-0-4-1-2-2" x="335.2" y="83.8" width="167.6" height="167.6" fill="#F7CF46"></rect><rect id="0-0-7-1-1-2" x="586.6" y="83.8" width="83.8" height="167.6" fill="#F7CF46"></rect><rect id="0-0-2-2-6-2" x="167.6" y="167.6" width="502.79999999999995" height="167.6" fill="#F7CF46"></rect><rect id="0-0-3-2-1-1" x="251.39999999999998" y="167.6" width="83.8" height="83.8" fill="#4FAE4F"></rect><rect id="0-0-6-2-1-1" x="502.79999999999995" y="167.6" width="83.8" height="83.8" fill="#4FAE4F"></rect><rect id="0-0-2-9-2-1" x="167.6" y="754.1999999999999" width="167.6" height="83.8" fill="#4FAE4F"></rect><rect id="0-0-6-9-2-1" x="502.79999999999995" y="754.1999999999999" width="167.6" height="83.8" fill="#4FAE4F"></rect></g><rect x="0" y="0" stroke="white" stroke-width="0" height="838" width="838" fill="none"></rect></g></g></svg>