<svg xmlns="http://www.w3.org/2000/svg" viewBox="0 0 500 500" class="cv"><defs><g id="C"><path d="M250,200a62.5,62.5,0,0,1,0,125,75,75,0,0,1,0-150,87.5,87.5,0,0,1,0,175,100,100,0,1,1,0-200,112.5,112.5,0,1,1,0,225,125,125,0,1,1,0-250,137.5,137.5,0,1,1,0,275,150,150,0,0,1,0-300,162.5,162.5,0,0,1,0,325,175,175,0,0,1,0-350,187.5,187.5,0,1,1,0,375,200,200,0,1,1,0-400" transform="translate(0 0)"/><animateTransform attributeName="transform" attributeType="XML" type="rotate" from="0 250 250" to="-360 250 250" dur="23s" repeatCount="indefinite"/></g></defs><style type="text/css"><![CDATA[.cv {fisolation: isolate;}.c2 {fill: #811;}.c3 {fill: #ed0;}.c4 {fill: #333;}.bg {fill: #e11;}.poly {fill: #f25;mix-blend-mode: difference;opacity: 0.85;}.l-a {fill: none;stroke: #002;stroke-miterlimit: 5;stroke-width: 3.27px;stroke-linejoin: round;stroke-dasharray: 830 32;mix-blend-mode: multiply;animation: l-a 63s infinite;}@keyframes l-a {to {stroke-dashoffset: 523;}}.l-b {fill: none;stroke: #02e;stroke-miterlimit: 5;stroke-width: 1.83px;stroke-linejoin: round;stroke-dasharray: 752 98;mix-blend-mode: hard-light;animation: l-b 108s infinite;}@keyframes l-b {to {stroke-dashoffset: 43123;}}]]></style><title>👁</title><!-- Santiago Itzcoatl 2024 --><g><rect class="bg" width="500" height="500"/></g><g transform="rotate(0 250 250)"><use href="#C" class="l-a"></use></g><g transform="rotate(120 250 250)"><use href="#C" class="l-a"></use></g><g transform="rotate(240 250 250)"><use href="#C" class="l-a"></use></g><g transform="rotate(0 250 250) scale(-1, 1) translate(-500, 0)"><use href="#C" class="l-b"></use></g><g transform="rotate(120 250 250) scale(-1, 1) translate(-500, 0)"><use href="#C" class="l-b"></use></g><g transform="rotate(240 250 250) scale(-1, 1) translate(-500, 0)"><use href="#C" class="l-b"></use></g><g><polygon class="poly" points="250 50 76.795 350 423.205 350 250 50"/><animateTransform attributeName="transform" attributeType="XML" type="rotate" from="0 250 250" to="360 250 250" dur="215s" repeatCount="indefinite"/></g><g><circle class="c2" cx="250" cy="250" r="50"/><path class="c3" d="M200,250a55.71,55.71,0,0,1,100,0,55.71,55.71,0,0,1-100,0Z"/><circle class="c4" cx="250" cy="250" r="20"/></g></svg>
