<?xml version="1.0" encoding="UTF-8"?>
<svg xmlns="http://www.w3.org/2000/svg" width="1535.8" height="863.4" version="1.1" viewBox="0 0 1535.8 863.4">
  <!-- Generator: Adobe Illustrator 29.1.0, SVG Export Plug-In . SVG Version: 2.1.0 Build 142)  -->
  <defs>
    <style>
      .st0 {
        fill: #de8d98;
      }

      .st1 {
        fill: #010101;
      }

      .st2 {
        fill: #76d16f;
      }

      .st3 {
        fill: #64b15e;
      }

      .st4 {
        fill: #040704;
      }

      .st5 {
        fill: #c43245;
      }

      .st6 {
        fill: #fef3f3;
      }

      .st7 {
        fill: #777b5b;
      }

      .st8 {
        fill: #294927;
      }

      .st9 {
        fill: #b68e11;
      }

      .st10 {
        fill: #080f08;
      }

      .st11 {
        fill: #070c07;
      }

      .st12 {
        fill: #fff;
        stroke: #000;
        stroke-miterlimit: 10;
      }

      .st13 {
        fill: #be253a;
      }

      .st14 {
        fill: #050505;
      }

      .st15 {
        fill: #42763f;
      }

      .st16 {
        fill: #040603;
      }

      .st17 {
        fill: #75cc6f;
      }

      .st18 {
        fill: #010201;
      }

      .st19 {
        fill: #c1273c;
      }

      .st20 {
        fill: #5c7f7c;
      }

      .st21 {
        fill: #c22b3f;
      }

      .st22 {
        fill: #c1293d;
      }

      .st23 {
        fill: #0d180d;
      }

      .st24 {
        fill: #c94557;
      }

      .st25 {
        fill: #020402;
      }

      .st26 {
        fill: #335a30;
      }

      .st27 {
        fill: #b48c11;
      }

      .st28 {
        fill: #c12e42;
      }

      .st29 {
        fill: #323030;
      }

      .st30 {
        fill: #2d502a;
      }

      .st31 {
        fill: #c1283c;
      }

      .st32 {
        fill: #d60e0e;
      }

      .st33 {
        fill: #0f0f0f;
      }

      .st34 {
        fill: #5f8380;
      }

      .st35 {
        fill: #ca485a;
      }

      .st36 {
        fill: #c73c4f;
      }

      .st37 {
        fill: #c32e42;
      }

      .st38 {
        fill: #fdf8f9;
      }

      .st39 {
        fill: #c1293e;
      }

      .st40 {
        fill: #c53649;
      }

      .st41 {
        fill: #5b817d;
      }

      .st42 {
        fill: #fdf5f6;
      }

      .st43 {
        fill: #1d1f17;
      }

      .st44 {
        fill: #cf6977;
      }

      .st45 {
        fill: #c12b3f;
      }

      .st46 {
        fill: #c1283d;
      }

      .st47 {
        fill: #f6b65d;
      }

      .st48 {
        fill: #f3eff0;
      }

      .st49 {
        fill: #b38c13;
      }

      .st50 {
        fill: #b58e16;
      }

      .st51 {
        fill: #eaeaea;
      }

      .st52 {
        fill: #c22b40;
      }

      .st53 {
        fill: #d96f33;
      }

      .st54 {
        fill: #1c1f17;
      }

      .st55 {
        fill: #fdfbfb;
      }

      .st56 {
        fill: #c0293d;
      }

      .st57 {
        fill: #d77481;
      }

      .st58 {
        fill: #294826;
      }

      .st59 {
        fill: #040403;
      }

      .st60 {
        fill: #69b963;
      }
    </style>
  </defs>
  <g id="Layer_9">
    <rect class="st12" x="0" y="-.7" width="1536.6" height="864.9"/>
  </g>
  <g id="BLOOD_SPLATTER">
    <path class="st46" d="M450.9,134.2c.2-5.8-2.8-11.3-7.7-14.3-5.3-3.2-12-3.1-17.3.4-13.8-5.6-6.8-10.4-10-21-11.1-9.6-41.8-13.8-33-35-2.5-5.9-8.9-15.3-16-16-13.5,2.7-18.3-8.1-3-12,7.1-6.3-3.2-31.6-15-29-1.2-.7-1.8-1.4-1.7-2.1.5-8.4,105.1-10,313.7-4.9,9.1,6.5,15.5,9.5,20,10.9,1.1.4,3.6,1.1,4.1,2.9.6,2.4-3.3,5.4-6.1,8.1,0,0,10,23,10,23,16.1-12.3,44.4-30.8,84.1-41.2,44.7-11.8,82.4-7.7,103.1-3.9-.4,5.1-.8,19.3,7.8,34.1,9,15.4,22.4,22,27,24,43.7-1.3,84.7,23.5,109,55,11.5,3.3-7.8,8.6,9,18,3.1,2.1,17.3,4.1,11,11,8.9,35.5,73.2-24.7,82,26,9.5-1.2-2.9,3.6-4,6,15.5,5.4-11.1,14.9,5,23-7,0-6,5-7,8l-68,17c-2.1-11.4-40.7-38.4-23-15,.5,1.2,1,2.6.3,3.4-2.3,3-15.7-6.7-20.3-2.8-1.2,1-2.1,3.2-1,8.4.2,3.5,5.2,5.1,0,7-12.6-25.4-15.9,7.5-32-3-10.1.4-18.1-2.7-28-1-3,10-9.9,27.2-26.2,40.1-26.8,21.2-67.8,21.9-103.8,1.9-5-69.2-42-.5-101-5-9.1-1.1-19.3,12.3-28,7-7.4-17.5,82.5-40.6,39-54,2.3-7.4,12.4,1.4,17,3,13.1-9,8.5-19.8-2-29-62.7-.4-14.7-25.3-41-20-10.8-6.8,11.1-5.1-14-28-14.3,16.7.8-9.4-2-17-4.8-9-3.6-20.1-7-29-28.5,39.1-83.9-2.9-77,42-36.3-21.3-18.6-16.9-35,13-16.6-2.7,4.9-22.8-10-25-8.7,30.8-11.8-2.1-30,26-8.1-2.1-15.4-3.9-20-12-6.1,16-17.1-.2-20,14,.3-2.4.6-8.4-3.1-12.8-5.5-6.5-17.9-7.5-28.9-.2ZM1042.9,156.2c-6,2-8,4-5,9,2.9-3.3,17.4-7,5-9M806.9,218.2c-2.4-2.7-7.8-4.9-5,1,3.7,3.3,12.2,8.3,5-1M1026.9,194.2c6.2,6,5.3-.6,3-5,0,0-3,5-3,5Z"/>
    <path class="st22" d="M1357.8,49.2c7.9-18.5,12,5.5,19-8,6.9-18.6,13.3,2.3,17-8,8.9-12.3,10.4,24,22-9,7.5,29.6,18.7,9.5,27,20,8.1,27.8,39.3-24.4,55-26,5.4,0,11.2-.2,17.4-.7,7.5-.7,14.4-1.7,20.5-3,.5,38.8.8,78,.8,117.7,0,40.5-.3,80.6-.8,120.1-13.4,8.1-20,23-16.6,36,3.3,12.7,14.6,18.7,16.6,19.8,0,35.3,0,70.7,0,106-1-2.2-2.4-5.7-4-10-6.6-18.2-6.1-26.3-11.5-28.7-3.7-1.6-8.9-.9-16.5,3.7-3.5,1.5-7.1,8.3-11,8-5.1-.6-2.3,24.5,4,21,.9,4.3-.1,34.9-9,22-.3-19.3-9.7-71.4-34-64-5-21.2-38.8-17.8-27-62,21.9-40.9,55.8,5,64-28,10.4-6.9-.3,13,7,14,26.4-12.8,31.2-43.9,28-70,11.6-18.9-11.9-25.8-21-38-7.9-18-14.8-22.7-29-33-3-20.7-25-19.5-20,2-11.9-2.3-20,13.6-31,15-18.5-2.7-3.3,9.7-27,2-21.7,7.9-9.7-5-29-2-25.1-16.4-36.2-31.4-39-54-7.8-2.2-18.2-36.1-25-29-38.7,12.6-58.4-57.9,22-25,13.1,9.6,10.1-4,22,3-2-10.7-22.8-14.8-25-29-2.9-39.6,32.5,7,34,17Z"/>
    <path class="st31" d="M115,86.2c-28.4,16.6,8.6-17.9-21-21-18.5-11.5-11.2,1.7-29,3-13.5-.9,14.2-12.3,12-20,6.1-26-50.8-7.3-22-25,10.2-2.7,10.1-15.1-2-15C14.6-13.7,348.9,5.2,344-.8c-5,8.9,4.4,11.3,4,19-38.6-8.3-1.6,23.9-21,28-5.3,1-16.2-.1-14,8,7.1,7.8-1.6,20-6,6-5.2-19.1-23,20.2-26,26-33.6-29.1-12.5,20.1-36,11-15.4-18.3-22.9,14.6-36,12-3.8-16.4-8.4-15.4-20-5-27.3,10.9-13-31.3-50-3-6.9-10.1-6.1-26.6-24-15Z"/>
    <path class="st46" d="M640.9,705.2c12.3-6.7,24.5-13.5,36.8-20.2,1,7.8,3,13.7,4.9,17.8,2.4,5.5,5.3,9.8,3.8,14.3-.9,2.5-2.8,4.1-4.4,5.1-6.6-8.7-4.4,8.7-4,12-.8,9.6,3.9-2.6,5-5,9.1,18.1,15.8-.5,24,30,10.3,10.5,13,27.1,19,40,3.1,7.8-4.9,14.9,0,22,3.7,9.4,5.1,19,3,29,.3,3.7,4,9.7,5,13-1.9-1-11.2,1.8-11-2-5.4-5.6-6.8-5.1-11,1-13.2.3-26.6.7-40.2,1.2-14.2.6-28.3,1.2-42.1,2-4-14.6-7.9-33.8-8.6-56.6-.8-23,1.8-42.7,4.9-57.6,3-3.7,5.8-8.6,10-10,9,1.5,13.6-7.5,10-15,0-3,1-6-4-4v14c-7.7-1.7-1-24.1-1-31Z"/>
    <path class="st37" d="M27-.7c4,19-30.6,24.3-4,40,6.3,1.6,13.5,2.3,16,10C27.2,58.9-6.9,20.7,4,61.3c-1.4,10.5,5.6,12.8,6,21-2.4,2.9-4.4,4.2-6.1,3.8C-3.1,84.6-4.4,55.6,0-.7c.3,0,13.2,0,13.5,0s13.2,0,13.5,0Z"/>
    <path class="st40" d="M1535.8,590.2c-11,1.6-47.2,40-46,15,4-6,9-9,17-9,8.7-.6,22-17.6,29-23,0,0,0,17,0,17Z"/>
    <path class="st36" d="M167,863.1c-2.3-2.7-4.4-9.5-5-13,8.4,1.7,18.6,16.3,5,13Z"/>
    <path class="st5" d="M939.5,533.5c6.6-11.2,13.2-22.4,19.8-33.6,8.2,8.4,16.4,16.8,24.5,25.2,6.7-23.2,25.2,70.9,32,58-6-24.7-7.3-67.5-29-83-2.3-9.3.3-18.8,6.6-23.4,8.9-6.6,25.3-3.5,33.4,10.4-13.1,43.2,128.3,471.1,40,205-22.4-8.1,31,108.9,34,128,0,15.4-8.2,1.3-11-4-6.4-21-15.9-51.1-27.7-87.4-15.7-47.9-23.6-72.2-30.3-86.6-13.3-28.7-38.8-69.1-92.4-108.6ZM984.9,563.2c4.5,9.7,35.4,53.6,26,29-1.4-13.4-40.1-70.6-26-29M1047.9,630.2c-6.6-11.1-5.9-56.9-29-39,5.1,1.5,37.9,68.5,29,39Z"/>
    <path class="st45" d="M1255,324c12.1-13.7,86.9-69.2,136.8-37.8,5.3,5.6,6,6.4-2,8-19.8-5.6-29.2,17.9-12,28,5.1,9.7-4.2,5.6-8,1-5.2-6.7-12.3,2.5-6,8,4.2,19.3-16.8-16.9-16,5-1.3,5.2-4.6,3.7-8,1-8.5-7.5-14.6,9.2-24,1-10,.5-18.8,3.1-27-5-9.8-1.8-27.2,2.6-33.8-9.2Z"/>
    <path class="st24" d="M1196.2,341.9c24.4-4.5,15,3.9,25.6,19.3,1.9,7.3,22.3,21.1,17,26-16.3-10.3-27.4-32.9-42.6-45.3Z"/>
    <path class="st36" d="M1453.8,366.2c7.4,3.6-11.7,15.2-10,26-1.6,5.2-7.5,14.8-14,10,.3-14.9,13.9-24.7,24-36Z"/>
    <path class="st24" d="M1351.8,424.2c-12-12.8.5-18.2,12-12-.6,6.6-3.7,18.9-12,12Z"/>
    <path class="st40" d="M1463.3,632.1c0-7.2-2.3-20.2,10-18,9.6,3.8-2.1,21-10,18ZM1186.3,336.2l12-3c-5.1,8.2-10,21.4-14,30-14.8,1.6,9.5-17.9,2-27Z"/>
    <path class="st36" d="M1144.9,416.2c3.4-10.4,6.5-6.8,10,2-2.6,9.2-7.1,4-10-2Z"/>
    <path class="st35" d="M1235.8,444.2c-1.3-7.9,2.4-5.6,8-5-1.3,6.7-6.8,2.1-8,5Z"/>
    <path class="st35" d="M1209.8,374.2c-.9,3.1-7.1,4.3-7,0,2.1-.8,5.6-3.1,7,0Z"/>
    <path class="st35" d="M1078.9,715.2"/>
    <path class="st36" d="M1496.8,423.2v-4,4ZM1496.8,416.2l-1-4,1,4ZM1454.8,361.2v4-4Z"/>
    <path class="st36" d="M1424.8,326.2l1,5-1-5ZM1425.8,322.2v3-3Z"/>
    <path class="st36" d="M1486.8,416.2"/>
    <path class="st35" d="M1070.9,703.2l1,3-1-3Z"/>
    <path class="st36" d="M1451.8,284.2l-2,1,2-1Z"/>
    <path class="st21" d="M600.9,170.2c27-50.7,60.4.2,87,20-32.7-13.6-9.7,22.7-27,30-16.4,12.3,31.8,49.2,35,62-32.2-8.1,12,24.6-9,27-7.8-2.6-99.2,45.6-90,13-21.9,1.4-4.3-9.9-16-17-11.4-2,4.7-13.8-6-13-12.1-1.7,7.5-13.6,9-17,3.8-5.9,11.7-20.6,15-27,2.2-6.7-1.4-12,8-12-22.5-18.2,5-7.2-15-35-24.6,11,5.5-33,9-31Z"/>
    <path class="st56" d="M1298.8,124.2c25.5,8.7,29.4,35.4,36,58,1.7,2.6,6.7,7.9,9,10,8.5,3.9,6.1,14.6,15,19,11.9.3,6.1,17.6,19,14-8.4-1.5-250.9,90.5-229,31.9,15.3-22.8,95.3-17.1,125.6-25.9,6.5-12.2,5.3-25.9,11.4-38,6.3-.5,13-6.4,19-2,8,7.1,19.6,7,29,3,5-13-71.7-42.1-35-70Z"/>
    <path class="st13" d="M847.3,446.6c46-114.2,125.1-148.8,220.5-167.5-23.4,75.8-56.7,100.9-220.5,167.5Z"/>
    <path class="st56" d="M687.9,427.2c-7.9,27.1-4.3,44.7,1,56,5.4,11.6,15.6,23.1,12.5,26.8-2.1,2.4-8.8-.2-10.5-.8-12-4.5-37-8.5-92.2-8.1,10.3-12.4,23.8-26.8,41.1-41,17.3-14.4,34-25,48.2-32.8Z"/>
    <path class="st28" d="M1154.7,203.1c12.6-4,33.2-35.6,43.1-32.8,4,1.6,8.5-1.6,12-4,7.3-.8,6.6-16.3,14-7,8,9.2,18.9-10.6,24,3,10.8,18.4,8.6-25.7,26-14,5,33.5-92.4,41.2-119.1,54.8Z"/>
    <path class="st48" d="M602.9,488.2c2.3,16.3-11.8,10.3-22,12,0,0,22-12,22-12Z"/>
    <path class="st3" d="M353,238.2"/>
    <path class="st42" d="M1290.8,192.2l-5,1c.5-4.2,2.5-2.2,5-1Z"/>
    <path class="st26" d="M632.9,564.2v2-2ZM631.9,569.2v2-2Z"/>
    <path class="st51" d="M603.9,641.2l1-1c-.3.3-1.3,3.5-1,1Z"/>
    <path class="st17" d="M461.9,183.2l-1,1c.3-.3,1.3-3.5,1-1Z"/>
    <path class="st58" d="M687.9,651.2l-1,1,1-1Z"/>
    <path class="st54" d="M1107.9,343.2"/>
    <path class="st26" d="M629.9,575.2l1,1-1-1Z"/>
    <path class="st41" d="M1262.8,172.2c0,1,0,0,0,0Z"/>
    <path class="st20" d="M1098.9,300.2v1-1Z"/>
    <path class="st58" d="M815.9,612.2"/>
    <path class="st26" d="M630.9,572.2h1-1Z"/>
    <path class="st58" d="M888.9,567.2"/>
    <path class="st54" d="M1200.8,340.2"/>
    <path class="st34" d="M1123.9,324.2v-1,1Z"/>
    <path class="st17" d="M467.9,199.2h-1,1Z"/>
    <path class="st60" d="M441.9,218.2"/>
    <path class="st15" d="M873.9,228.2"/>
    <path class="st52" d="M145,429.2c15.9,38-23.8-5.6-34-10-10,16.3-2.5,19.9,2,34-3,10.7-43-20.3-45-29-20.8-30.7,2.6-51,32-29-.3-20.2,18-22.7,33-19,7.7-17.9,25.6,3.5,21,16-8.9,10.7-3.3,23.5-9,37Z"/>
    <path class="st21" d="M60,473.2c-24.3,17.8-62.9-31.7-52-59,30.4-42.2,72.5,26,52,59Z"/>
    <path class="st52" d="M193,344.2c30.2,7.2,25.7,47.4,21,67-27.6,5.2-67.3-66-21-67Z"/>
    <path class="st5" d="M231,359.2c-2.1,17.2-26.5-10-16-16,9.9-7.3,14.2,9.2,16,16Z"/>
    <path class="st35" d="M103,344.2c1.5-2.2,2.2-7.4,6-5,3.9,3.8-1.8,10.9-6,5Z"/>
    <path class="st0" d="M180,107.2l9-3-9,3ZM0,863.4h0ZM0,863.4h0ZM3,58.2l-1-3,1,3ZM206,100.2l1,3-1-3ZM0,863.4h0ZM115,86.2l4-2-4,2Z"/>
    <path class="st57" d="M27,50.2h3-3Z"/>
    <path class="st0" d="M120,83.2l3-1-3,1ZM209,109.2h2-2ZM139,101.2h2-2Z"/>
    <path class="st0" d="M92,64.2l2,1-2-1ZM86,61.2l2,1-2-1ZM2,52.2v-1,1Z"/>
    <path class="st57" d="M21,47.3h1-1Z"/>
    <path class="st57" d="M738.9,183.2h-6,6ZM729.9,183.2l-6-1,6,1Z"/>
    <path class="st38" d="M709.9,256.2l-5,2,5-2Z"/>
    <path class="st44" d="M734.9,209.2l5,2-5-2Z"/>
    <path class="st57" d="M675.9,93.2l-1-3,1,3Z"/>
    <path class="st38" d="M759.9,249.2l-3,1,3-1Z"/>
    <path class="st57" d="M745.9,190.2l-2-1,2,1ZM707.9,167.2v-2,2ZM685.9,134.2h-2,2Z"/>
    <path class="st6" d="M1357.8,48.2h-2,2Z"/>
    <path class="st42" d="M1304.8,190.2h-2,2ZM1331.8,171.2v-1,1ZM1430.8,165.2l-6,1,6-1Z"/>
    <path class="st59" d="M496.9,787.2l-1,1c-.1-.9.1-1.1,1-1Z"/>
    <path class="st57" d="M0,863.4h0Z"/>
    <path class="st18" d="M514.9,490.2c1.7-.2.5.3,0,1,0,0,0-1,0-1Z"/>
    <path class="st59" d="M774.9,553.2"/>
    <path class="st5" d="M551.9,204.2c-4.2-10.4,19.8-25.1,20-10-4.9,6.5-9.8,18.6-20,10Z"/>
    <path class="st40" d="M590.9,150.2c-20.6-.7-4.9-24.3,7-13,6.6,6.5-5.5,8.8-7,13Z"/>
    <path class="st24" d="M596.9,172.2c-3.2,3.1-8.7,2.1-6-3,0,0,10-6,10-6,.5,5.1-.1,6-4,9Z"/>
    <path class="st36" d="M680.9,153.2c-2.1,4.4-10.1,10.5-13,3,0,0,13-3,13-3Z"/>
    <path class="st38" d="M696.9,282.2l-1,1,1-1ZM683.9,283.2v1-1Z"/>
    <path class="st55" d="M598.9,171.2l2-2-2,2ZM597.9,172.2l1-2-1,2Z"/>
    <path class="st59" d="M1054.9,281.2"/>
    <path class="st59" d="M943.9,258.2"/>
    <path class="st36" d="M681.9,173.2c-6.8,4.3-9.6.7-10-5,4.7-3.3,13.5-4,10,5Z"/>
    <path class="st22" d="M1542.2,423.1"/>
  </g>
  <g id="LOGO">
    <path class="st39" d="M1161.8,734.1v64c0,6,1,10,7,13h-22v-159l-1-6c-1-4-3-6-7-6-4,1-6,3-7,6v150c0,6-1,12,7,15h-23v-158h-14c-1-6-4-10-11-12l1-1,5-1h33c10,0,19-4,25-14,2-5,6-10,10-14s8-5,14-2c-7,0-11,5-13,10-1,6-3,11-3,17l-1,53,4-3c5-6,12-7,19-5,8,3,11,10,11,17v99c0,6,0,11,7,14h-22v-110c-1-4-3-7-8-7-4-1-8,1-9,5-2,2-2,5-2,8v27Z"/>
    <path class="st19" d="M1405.8,674.1l-2,4v72l-1,48c-1,23-16,36-38,38l-9-1h1c17-2,26-10,29-26l2-18v-149c0-9-1-16-10-21l4-1h52c14,0,27,14,27,27s-13,28-27,28h-28M1405.8,660.1l2,1h28c7-1,13-7,13-13,1-6-5-13-11-14h-33l-1,1v24l2,2v-1Z"/>
    <path class="st31" d="M1314.8,674.1l-2,4v106c0,10-1,20-5,30-7,16-26,25-43,21l2-1c16-1,25-9,28-24l2-18v-149c0-9,0-18-9-23l4-1h50c11,0,25,10,28,23,2,11-5,24-16,29l-11,2-27,1h-1M1312.8,658.1l3,2h23l11-2c6-3,9-8,8-13,0-5-5-11-11-12h-32l-2,1"/>
    <path class="st19" d="M1375.8,782.1v2c0,20-10,28-30,26-11-1-18-7-19-18v-87c0-21,14-32,34-25,11,3,14,11,15,21v47h-34v42c0,6,4,9,9,9s8-3,9-9v-15l-6-7h22v14M1351.8,691.1c-6,0-10,2-10,7v37h19v-33c0-7-3-10-9-11ZM1416.8,708.1v-8c0-10,4-17,14-20,11-4,24-1,29,6,3,4,5,9,5,14v48h-34v9l1,32c0,7,3,10,9,10s8-3,9-10v-14c-1-3-4-5-6-7h22l-2,28c-1,7-7,12-14,13-5,1-11,2-16,1-10-1-16-8-17-19l-1-21v-63M1435.8,735.1h15v-35c-1-6-4-9-10-10-5,1-9,4-9,10v32l4,3Z"/>
    <path class="st39" d="M1224.8,797.1c2,3,6,4,10,3s6-4,6-8v-15c0-3-3-5-5-8h21c0,10,0,19-2,28-1,8-6,13-15,15h-11c-13-1-20-8-21-20v-86c0-22,18-33,37-23,7,3,11,8,11,15v52h-34l3,46M1233.8,693.1c-7-1-10,1-11,7v36h19v-33c0-5-2-9-8-11v1Z"/>
    <line class="st35" x1="1406.8" y1="674.1" x2="1406.8" y2="782.1"/>
    <line class="st35" x1="1315.8" y1="674.1" x2="1315.8" y2="782.1"/>
    <line class="st44" x1="1406.8" y1="633.2" x2="1406.8" y2="659.1"/>
    <line class="st44" x1="1315.8" y1="633.2" x2="1315.8" y2="659.1"/>
  </g>
  <g id="BASE_GREEN">
    <path class="st2" d="M116.4,599.5c-2-19.6-4.5-34.7-6.6-45.3-1.5-7.5-3.7-17.8-2.2-31.3,1-9.1,3.2-14.7,3.8-16.2,2.5-6.3,6.8-13.4,15.3-21.4,28.2-26.6,66.7-39,66.7-39,14.3-4.6,36.3-9.9,64.2-9.5,4-16,6.5-29.6,8.1-39.6,4.2-26.3,3.1-32.9-.4-38.2-5.5-8.3-12.8-7.3-21.4-13.6-16.8-12.3-18.1-37-18.9-52-2.6-49.2,29.5-86.6,38.8-91.1.9-.4,5.2-2.3,8.9-6.7,3.4-4,4.5-8.1,4.9-9.2,3.3-10.5,25.4-32.2,54.7-41.3,12.9-4,25.6-7.9,40-4.1,7.1,1.9,14.2,5.4,25.3,4.4,5-.4,6.8-1.5,15.8-3.8,11.2-3,19-5,26.5-5.5,20.7-1.2,37.1,10.5,39,11.9,10.5,7.7,8,11.5,19.6,18.8,10.8,6.8,21.6,11.9,21.6,11.9,3.8,1.8,6.4,2.9,9.3,5.7,6.3,6,8.8,14.9,7,16.2-2.1,1.5-8.1-9-19.7-10.1-4.2-.4-7.6.6-11.5,2-15.4,5.8-24.1,14.5-33.4,20.8-8.2,5.5-23.5,15.9-39.9,14-12.4-1.4-13.1-8.5-37.8-22.1-17.2-9.6-26.2-14.3-37.8-12.9-14.5,1.8-29.5,12.7-28.7,21.7.3,2.9,2.1,5,6.1,8.5,9.6,8.4,17.7,15.6,31.8,19.6,15.3,4.4,37.6,5.1,52.6-2.4,2.4-1.2,8.1-4.4,16-4.4,5.9,0,9.6,1.6,13.5,2.8,11.5,3.6,12.2-.4,42.9,0,4.7,0,12,.3,20.6-2.8,1.2-.4,3.2-1.2,5.7-2.4,11.3-5.9,14.8-14.3,16.8-13.3,1.4.7,1.1,5.7-1.2,9.5-1.9,3.2-4.1,3.8-8.8,7-6.7,4.7-10.2,7.1-11.4,11-.5,1.6,1,6.2,4,15.4,3,8.9,3.9,11.2,6.5,12.7,2.8,1.7,4.8.9,6.5,3,2.6,3.3.8,8.7.6,9.3-2.1,5.9-8,8.8-12.9,11.1-5.5,2.6-81.3,6.6-83.2,7-24.2,4.5-74.3-12.4-80.2-9-9.6,5.4-24.3,39.4-20.7,48.1,4.8,11.6,74.5,22.1,178,3.6,26.2-4.7,46.7-3.4,51.2-4.3,69.6-12.9,104.5-19.4,138.1-37.2,7.1-3.8,31.7-17.4,50.7-19.1,2-.2,10.8-.9,22.4-3.3,6.8-1.4,10.2-2.1,14.3-3.5,12-4.2,13.8-9.3,28.4-18.5,10.9-6.9,16.4-10.4,24-11.8,12-2.2,18.7,1.7,25.7-3.4,3.7-2.7,8-7.9,7.5-13.1-.5-4.5-4-4.9-5.9-11.1-.5-1.5-2.3-7.8,1-13.3,1.5-2.5,5.1-6.6,8.9-6.1,5.2.7,8.2,9.6,8.5,15.8.3,5.7-1.8,6-1.6,11.7.2,7,3.3,8.6,6.1,18.2.5,1.6,1.1,6.1,2.4,15,1.4,9.2,2,13.9,2.6,20.6.6,6.8.3,6.6.8,8.3,1.1,3.4,2.5,4.7,11.7,15.2,4.6,5.1,5.5,6.3,7.9,7.5,4.4,2.2,6.4.7,8.7,2.6,4.3,3.6,3.1,13.2,0,19.4-.8,1.5-5.2,9.9-13.1,11.3-5.7,1-11.1-1.8-11.9-.2-.3.6.2,1.4,1.2,2.8,4.9,7.1,5.6,7.5,6.3,8.9,2,4.1.6,10.1-2.4,13.5-3.4,3.7-6.9,1.6-13.3,6-1.4.9-3.2,2.9-6.9,6.7-6.6,6.9-7.7,8.9-11.5,12.5-3.6,3.5-7.1,6.9-10.9,8.7-10.8,5.1-24.3-2.3-29.1-5.3-2.6.7-6.9,1.7-12.4,2.4-12.3,1.7-33.9,4.6-48.9-7.9-2.1-1.8-5.3-4.9-8.3-9.9-17.7,8-35.9,16.9-54.6,27.1-51.3,27.8-94.4,58.3-130,87.6,16.1.7,29.1.8,38,.8,29.8-.1,36.1-2,51,1.4,15.5,3.5,16.6,7.4,26.3,6.7,11.6-.8,13.9-6.7,34.8-17.8,11.1-5.9,22.2-11.8,37.6-15.2,14.3-3.1,16.8-.6,29.1-4.4,10.8-3.4,17.9-8.2,28.1-15.2,17.9-12.3,18.4-16.7,36.5-29.9,7.7-5.7,17.2-12.5,30.2-18.6,16.3-7.6,22.7-6.8,42.3-12.7,14.7-4.4,33.7-10.2,53.2-23.7,7.2-5,25-17.6,39.2-39.8,11.9-18.6,13-31.1,28.9-42.3,8.6-6.1,17.9-9.3,20.9-10.3,10.3-3.4,21-4.7,27.5-4,30.3,3.2,59.1,41.1,57,71.6-.5,7.1-2.2,7.4-5.1,26.3-2.9,19.4-2,24.7-7.1,32.4-4.7,7.1-7.5,5.3-14.8,15.6-4.9,6.9-5.6,10.5-11.1,15.2-5.4,4.6-7,3.1-11.5,7.7-5.3,5.4-5,9.5-9.9,12.1-3.4,1.8-6.5,1.6-10.1,1.4-18.8-.9-28.2-1.4-35.8,2.8-3.5,1.9-6.5,5.2-12.5,11.7-6.5,7-6.7,8.9-10.5,10.7-6.1,2.9-13.2,1.6-18.6.6-7.3-1.4-8.7-3.3-12.3-2.4-5.7,1.3-8.5,7.2-10.7,11.1-1,1.8-8.6,9.3-23.9,24.3-19.1,18.8-41.9,32.3-47.5,35.6-26.8,15.9-50,22.3-58.2,24.8-92.8,28.1-151.3,117.9-200.1,101.1-57.4-19.7-48.2-171.3-90.9-174.2-8.5-.6-7.7,5.5-36.4,14.6-25.8,8.1-36.1,6.2-58.8,16.7-.8.4-7.5,3.8-20.7,10.7-30.1,15.7-28.2,14.9-31.6,16.5-24.4,11.3-31,6.8-54.5,16.4-18,7.4-18.4,11.8-35,20.4-43.5,22.5-61.8,3.1-95.6,23.3-18.9,11.3-13.8,17.7-46.1,42.5-23.3,17.9-37.8,29-49.8,25.5-18.1-5.3-26.5-43.3-23.1-92.2Z"/>
  </g>
  <g id="MOUTH">
    <path class="st53" d="M471.3,287.2c12.9,0,23-2.3,30.1-4.7,11.9-3.9,21.1-9.5,26-5.7,2.3,1.8,2.8,5,2.8,7.6-3.8,4.3-7.6,8.6-11.3,12.9-36.1,9.1-66.3,10.1-89.3,8.6-49.1-3.2-80.8-18.8-97.3-2.6-9.7,9.6-9.6,25.9-7.5,39.4,7.6,3.4,15.2,6.8,22.9,10.1l51,8.3c13.8.3,25.3-.6,33.8-1.5,17.1-1.9,25.7-2.8,36.8-6.4,8-2.6,16.5-3.2,24.5-5.7,2.3-.7,7.4-2.4,11.9,0,2.1,1.1,3.4,2.7,4.2,3.8-9,7.7-24.4,18.8-46,25.5-10.9,3.4-19.5,4.5-22.1,4.8-20.8,2.4-34.4-1.8-55.7-5.8-12.2-2.3-29.5-4.9-51-6.3-2.8-.7-23.3-5.9-30.9-24.5-2.6-6.3-2.9-12.2-2.6-16.4,1.3-3.6,2.6-7.3,3.8-10.9,1.3-5.1,4.5-14.6,12.5-23.9,8.4-9.7,18-14.2,22.9-16.2,22.1-5.7,39.2-5,50.6-3.4,17.3,2.4,27.8,7.8,53,10.9,11.5,1.4,20.9,1.8,26.9,1.8Z"/>
    <path class="st32" d="M506.9,328.2c1.4,1.3,2.3,2.6,2.8,3.5-8.6,5.5-16.1,8.3-21.2,9.9-6.3,1.9-9.8,2.1-18.9,4.4-8.4,2.1-15,4.3-19.2,5.7-2.1-1.3-44.7-27.9-75-8.7-4,2.5-8.6,6.3-12.8,12.3l-17.8-3.3c-1.7-2.8-3.8-7.3-3.1-12.5,2.5-17.8,37.6-32.3,66.3-26.4,15.4,3.2,26.2,11.6,32,17l-1,1-7-3c-4.6-2.3-10.9-5-18.9-6.6-8.5-1.8-15.8-1.8-21.1-1.4,9.2.4,16.4,1.6,20.9,2.6,16.1,3.4,22.3,8.1,40.2,10.9,6.7,1,10,1.5,13.1,1.2,14.2-1.5,19.8-11.8,31.1-10.5,1.6.2,5.9.6,9.5,3.8Z"/>
    <path class="st29" d="M265,434.2c-1.6.2-3.6.4-5.9.2-3.4-.2-6.1-1.1-8-1.9,0-8.5,0-17-.1-25.5,3.5.6,7.1,1.2,10.6,1.8,4.2,5.4,8.4,10.8,12.7,16.2-3.1,3.1-6.2,6.1-9.3,9.2Z"/>
    <path class="st47" d="M444.4,330.3"/>
  </g>
  <g id="LIP_HIGHLIGHTS">
    <path class="st47" d="M489.9,356.4c-16.2,14.8-42.3,12.7-59.7,11.3-2-.2-1.7-.2-5.3-.5-18.8-1.6-25.6-1-34-2-6.1-.7-14.7-2.5-25-7.4,8.7,1.5,17.3,2.9,26,4.4,11.6,1.8,25.9,3,42.1,2.2,19.2-.9,35.5-4.2,48.2-7.7,1.2-1.1,2.4-2.3,3.6-3.4,3.9-2.2,7.8-4.4,11.7-6.6-2.8,4.9-5.8,7.9-7.7,9.7Z"/>
    <path class="st47" d="M318,333.4c3.5,4,9.1,9.5,17.2,14.1,9.3,5.4,18,7.4,23.5,8.2-1.2,1.2-3.9,3.7-8.1,4.3-1.4.2-2.6.2-3.6,0-2.7.1-9.9.1-16.9-4.6-11.1-7.5-12-20.5-12.1-22.2Z"/>
    <path class="st47" d="M522.9,278.1c-1.6,1.2-3.9,2.9-6.9,4.7-3.6,2.1-11.4,6-29.9,7.9-11.2,1.2-20.8,2.1-33.6,0-11.5-1.9-20.5-5.5-26.6-8.4,2.6.5,7.1,1.4,9.8,2,3.5.7,8.1,1.6,11.6,2.4,2.7.5,7.2,1.5,9.9,2,4.9-.6,10-1.1,15.4-1.4,6.6-.5,12.9-.7,18.9-.7,10.5-2.8,21-5.6,31.5-8.4Z"/>
  </g>
  <g id="SHADOW_GREEN">
    <path class="st8" d="M762.2,384.7c-36.2,18.2-65.7,36-88.3,50.8-50.5,33-67,51.3-106,69.6-34.9,16.4-68.1,23.5-94.7,26.6-28.4,27.6-74.1,39.4-113,47-60.8,40.1-199.4,126.4-233.3,92.2-4.3-4.3-7.3-11-7.6-21.2,20.7-53.4-24-82.7,6-138,29.2-46.5,84.4,7.5,123-21,2.4.5-2.9,8-3,9-16.5,13.3-24.3,35.9-40,49-4.4,6.5-15.4,21-9,27,7.2-16.4,18.4-33,32-45,58.8-47.1,101.6,33.5,129-14,5.3-11.4,20.6-18.7,31-24-3-13.9-28.7-2.3-38-1-15.4,6-34.4-2.2-50-4-57.8,7.3,11.6-26.6,30-29,35.3-6.6,70.5,8.6,105,9,5.9-.9,49.3-18.8,53-16-25.9-19.7,80.4-22.6,81-34-32.1-15-92.4,35.2-94,0,8.7-3.3,52.6-8.5,63-11,28.2-3,190.3-66.3,100-17,24.7-7.7,49.3-15.3,74-23,29.3-24.2,45.7-25.3,55.3-21.5,9.8,3.9,15.3,13.9,32.5,17.4,6.6,1.3,16.8,2.2,18.6-1.7,2.4-5.1-9.8-12.2-11.4-21.2-2.2-11.8,29.8-13.9,30.2-23.1.1-2.9-2.6-7-14.4-12.2-1.4-5,.4-10.1,4.2-12.7,4.3-2.9,9.7-1.6,12.7.5,3.4,2.3,3.1,5,6.3,9.3,3.6,4.7,7.8,6.4,10.9,8.2,11.9,6.7,12.6,16,24.4,27.6,4.7,4.6,12,10.5,23.3,15.3,3.2,12.2,1.1,18.4-1.7,21.9-5.6,7-15.5,4.9-23.1,13.7-3.6,4.1-5.1,8.8-5.8,12.2-3.1,1.8-7.1,3.7-11.9,4.9-15.8,3.9-29.3-2.1-34.2-4.6-5.9,2.1-19.9,6.2-35.8,2-2.1-.6-11.2-3.1-20.9-10-4-2.9-7.1-5.8-9.3-8ZM328.2,553.7l-30-7c9,15,56,18,66,9l-36-2"/>
    <path class="st58" d="M937.5,538.6c-17.7,12.4-34.5,21.8-49.4,29-10.5,3.1-21,6.3-31.4,9.4-1.1,4.1-3.1,9.3-6.7,14.6-9.9,14.4-25,18.9-30.2,20.2-21.3,17.1-42.6,34.2-63.9,51.2-8.1,4.8-18.8,9.9-31.8,13.5-26.6,7.4-49.6,4.7-62.9,2.1-4.7-29.7-9.3-59.3-14-89,1.4-5.5,4.3-14.3,10.9-23.4,7.7-10.5,16.6-16.4,21.8-19.3,14-9.3,37.2-22.4,68.5-29.7,31.9-7.5,58.9-5.9,75.7-3.6,11.2-3.6-4.4,22.5,7,15,3.9-3.7,12.8-21.7,17-21,.3,1.2-5.5,14.2-1,12,18.4-21.9,36.4-33.8,49.7-40.6,24.7-12.7,51.6-17.6,82.3-44.3,1.6-1.4,2.9-2.5,3.7-3.3-2.4,4.2-7.4,14.3-4.2,24.6,1.2,3.9,3.3,6.9,5.4,10,4.5,6.6,9.5,11,12.9,13.8l-11,18.2c-12.6,12.7-28.7,26.9-48.4,40.7Z"/>
    <path class="st30" d="M863.2,267.7l-2-10,8,6c-.3-3.3-.7-6.7-1-10,2.3,1.3,4.7,2.7,7,4l-1-19-5.3-14.4c-.9-3.2-1.8-6.5-2.8-9.7,5.1,4.5,10.1,9,15.2,13.5,10.7,18.8,8.2,36.4,0,41.3-6.1,3.6-14.9-.1-18.1-1.7Z"/>
    <path class="st58" d="M842.2,466.7c2.7-14.1,121.9-48.5,85-27-7.1,5.4-18.2,12.8-26,17-8.1,4.1-87.3,55.8-79,32,8.6-4.2,15.7-14.1,20-22Z"/>
  </g>
  <g id="GUN_COLORS">
    <path class="st43" d="M948.3,287.4c3.1-1.3,8.2-3.1,14.5-3.4,8.6-.4,11.4,2.3,19.3,1.2,3.8-.5,13.2-1.7,15.6-8.1,2.6-6.8-4.6-14.5-5-14.9,2.4-5.9,4.6-8.8,6.4-8.6,2.9.3,5,8,6.4,23.1,2.7-1.8,6.7-3.8,10.5-2.5,4.1,1.4,5.5,5.9,7,5.5,1.1-.3,2.1-2.9,1.2-14.3-1.9-8-3.9-16-5.8-23.9,79.6-20,159.2-40,238.8-60.1,5.8,5.6,6.6,10.1,6.6,12.6-.2,15.6-31.8,27.1-47.4,32.7-11.3,4.1-13.9,3.9-29.1,8.6-18.5,5.8-33.1,12-42.9,16.4-8.8-1.1-21.8-1.3-35.3,4.3-7,2.9-12.3,6.6-22.9,14-15.7,10.9-22.9,18.8-34.8,18.6-3.5,0-6.3-.8-8.1-1.4-7.9,8.2-19.8,18-31.8,15.7-9.3-1.8-10-9.3-20-11.9-12.1-3.1-20.2,5.6-43,15.2-7.9,3.3-18.3,7-31.2,9.9-5.8-2.7-8.5-9.3-6.6-14.7,2.2-6.1,9.9-9.4,16.5-6.2,4.4-1.6,8.8-3.3,13.3-5,2.6-1,5.2-2,7.7-3Z"/>
    <path class="st54" d="M1200,342.2c1.1-7.6,1.5-17.1-2.8-19.4-4.2-2.3-11,3.3-15,6.1-28.5,20.4-74,18.1-75.6,12.5-.6-1.8,3.5-4.6,8.1-7.7,10.7-7.2,21.2-9,23.8-9.4,31.4-5.3,47.1-7.9,53.4-13.2,11-9.2,7.9-18.6,21.4-27.9,7.6-5.2,15.5-7,20.9-7.7,72-19.4,144.1-38.8,216.1-58.2.3,4.4.6,8.8.9,13.2-.6,1.2-1.6,2.8-2.8,4.8-13.9,21.4-37.1,29.4-51,33.8-38.3,12.1-52.2,11.4-75.6,18.2-18.1,5.2-43.7,15.5-72.4,37.6-16.4,5.8-32.9,11.6-49.3,17.4ZM1444.3,243.1"/>
    <path class="st41" d="M946.1,242.9c20.4-2,43-5.2,67.3-10.4,19.2-4.1,36.9-8.9,53-14,66.5-16,133-32,199.5-48-3.5,3-7,6-10.5,9-35.2,11-72.3,21.7-111.4,31.7-34.8,8.9-68.5,16.7-101,23.4-18.1,5.1-36.2,10.3-54.3,15.4.9,2,2,4.5,3.2,7.6,6.2,14.6,7,17.2,5.9,19.6-1.5,3.2-5.5,4.2-10.8,5.4-4.7,1.1-13.1,2.3-24-.3-1.2.6-3,1.4-5.3,2.4-7.9,3.5-21.4,9.4-39,12.4-4.6.8-11,1.6-18.7,1.9-7.3-5.3-14.7-10.6-22-15.9,2.7-4.1,6-10.2,7.9-18,3.8-15.6-.1-28.7-2.2-34.4.6-4.1,1.3-8.2,1.9-12.3-1.6-5.4-3.2-10.8-4.9-16.2,1.8.8,3.9.5,5.4-.8,1.4-1.3,2-3.3,1.4-5.2,1-.5,3-1.5,5.4-1,4.4.9,6.2,6.2,6.5,7,1.4,4.1-.3,5.8,1.3,7.8,1.9,2.4,5,.9,9.2,2.4,5.7,2,10.6,8.6,9.4,12.1-1.6,4.7-12.6,1.3-16.2,7.3-3.3,5.5,1.6,16,6.2,16.7,2.6.4,3.7-2.5,7.3-2.2,3.6.3,4.7,3.4,7.6,3,2.4-.4,3.8-2.8,4.3-3.8,2.2-3.7,1.5-7.9,1.1-10-2.9-15.6-8.3-20.7-6-27.7.9-2.7,3.3-6.8,6-6.8,3.9,0,9.4,8,16.5,41.7Z"/>
    <path class="st34" d="M1138.3,288.4l4,2c5-1,8-11,4-15-3,1-7,3-10,6,5,0,2,4,2,7Z"/>
    <path class="st9" d="M806.8,456.3c-20.5,1.6-38.6-20.7-38.5-40.4,0-7.4,2.7-13.4,5-17.4,13.5,2.7,26.9,5.4,40.4,8.1,7.3-3.6,13.3-3.8,16.7-3.6,4.4.2,12.7,1.6,13.1,4.9.3,2.6-4.2,5.2-4.5,5.4-5.8,3.2-9.9-.5-14.9,1.5-6,2.4-11.5,12.2-7.5,18.9,2.8,4.7,9.7,7.1,16.6,5.1-1.7,2.6-11.1,16.4-26.3,17.6Z"/>
    <path class="st9" d="M997.3,416.4c1.1-1.7,2.2-2.2,3.1-2.4,4-.6,9.3,6.7,13.5,18.2,26.6,9.7,33.2,15.2,32.6,18.3-1,5.8-25.7,4.2-26.7,10.2-.7,4,9.4,9.2,19.9,13.5-3,3.3-10.2,10-20.8,11.4-18.8,2.5-38-13.3-40.8-31.2-1.8-11.1,3.2-20.5,4.6-23.1,4.7-8.6,11.3-13.2,14.5-15.1Z"/>
    <path class="st50" d="M1143.9,352.2c2.9-4.1,8-9.9,15.9-14.3,18.1-10.1,36.7-5.1,41-3.8-.6,1.8-1.9,4.9-4.6,7.8-3.6,3.9-7.8,5.4-9.7,6-9.3,3-18.7,5.9-28,8.9-2.1,23.7-17.9,41-35.3,42.6-13,1.2-23.2-6.7-26.4-9.4,4.8.9,10.6,1.1,16.6-.5,23.4-6.5,30.3-35.6,30.6-37.2Z"/>
    <path class="st20" d="M1192.3,276.7c43.1-11.3,86.2-22.5,129.4-33.5,43.5-11.1,87-22,130.6-32.8-.6,1.2-1.1,2.4-1.7,3.5-84.4,22.4-168.8,44.9-253.2,67.3,1,2.7,3.1,9,1.2,16.4-3.5,14-17.5,19.2-18.8,19.6-19.7,3.5-39.4,7-59.1,10.5-17,15-32.8,22.2-43.3,25.9-5.7,2-24.1,8.5-27.3,3.4-3.4-5.4,11.8-21.3,17.2-26.9,16.1-16.8,23.4-16,28.3-27.7,4.7-11.3,0-16.7,6.5-23.7,3-3.2,9.3-5.3,21.6-9.9,2-.8,4.6-1.7,7.9-3.4,2.3-1.2,3.7-2.2,9.3-5.9,7.3-4.8,7.8-5.1,8.5-4.9,4.3,1.8-1.7,18.2,4,21.6,1.5.9,2.3,0,13.4-1.1,3.1-.3,5.6-.5,6.6-.5,4.3-.3,10.6-.1,18.8,1.8Z"/>
    <path class="st49" d="M1330.3,300.4c-44.1,20.7-67.5,28.9-70.1,24.5-.6-.9-.2-2.4,1.1-4.5,2.1-1.9,5.3-4.6,9.4-7.6,5.8-4.3,7.4-4.7,17-10.8,11.7-7.4,13.1-9.2,18.3-10.5,5.7-1.5,10.1-1,12.9-.8,13.2.8,22.4-4.2,43.1-12.1,10.2-3.9-2.1,1.2,41-13.8,42.9-14.9,57.9-20.8,63.4-14.6,2.3,2.7,2.4,7,1.3,9.7-2.6,6.8-13.7,8.4-26.7,10.2-12.6,1.8-13.6.1-22.7,2.2-10,2.3-11.9,5-22.1,8.6-12.9,4.5-17.8,3-30.6,5.5-8.8,1.7-21.1,5.4-35.5,13.9Z"/>
    <path class="st49" d="M1081.3,276.4c8.9-.5,13.3-5.9,19-12,6-2.7,12-5.3,18-8,50.8-14.3,101.5-28.6,152.3-42.9,3.3.3,6.2,2.2,7.5,5.1,1.7,3.8.2,8.7-3.8,11.3-38.4,1.7-56.5,7.4-65.7,12.7-2.5,1.4-9.3,5.7-19.3,7.4-8.6,1.5-9-.7-20.5.3-9.8.8-21.2,1.8-27.7,9.3-1.2,1.4-2.1,2.9-4.3,4.5-4.6,3.3-10.1,3.7-14.1,3.4-6.3,2.8-12.7,5.5-19,8.3-17.8,2.4-26.8,3.2-27,2.4,0-.3,1.5-1,4.7-1.9Z"/>
    <path class="st29" d="M842.6,414.4c-.5,3.7-2,10.6-7.3,16.8-1.6,1.9-6.5,7.6-9.5,6.5-2.2-.8-4-5.4-1.7-23,6.2,0,12.4-.2,18.6-.3Z"/>
    <path class="st7" d="M1278.3,174.5l5,11c1,5-2,11-7,12-4,1-8-1-10-5-2-5-2-10-2-14s2-8,6-9c2,0,5,3,8,5M1279.3,192.5c2-8,0-15-5-18h-6c-5,4-4,15,2,19s6,3,9-1Z"/>
    <path class="st29" d="M1032.4,456.4h12.5c4.2,6,1.4,15.7-6.9,15.7s-8.3-2.4-11.1-4.8v-9.6l5.6-1.2Z"/>
    <path class="st7" d="M1472,211.2c1.4,3,2.7,6.7,3.4,11.1.9,5.7,2.4,14.6-2.8,20.6-2.2,2.4-4.8,3.7-7.1,4.4-2.3-.3-4.6-.5-6.9-.8-1.7-1.7-4.1-4.5-5.8-8.4-4.5-10.1-4.1-25.8,4.2-29.7,5.5-2.6,12.3,1,15,2.6Z"/>
    <path class="st7" d="M1264.3,196.5l2,1c5,4,10,5,15,1,2,6-1,9-7,10l1-3h-6l2,3c-5,1-7-3-7-12Z"/>
    <path class="st20" d="M1117.3,273.4v9l-8-5c0-1,0-4,2-5h6v1Z"/>
    <path class="st27" d="M951.1,322.3c-6,7.1-2.5,13.1-7.1,22.4-.9,1.8-5.5,11.1-15.3,14.1-7.3,2.2-13.9-.3-16.4-1.4-5.2-2.3-11.9-5.5-11.4-7.2.4-1.4,5.3,0,10.9-1.9,8.2-2.9,12.3-11.3,15.9-18.9,2.1-4.4,4.9-11.6,5.9-21l55.6-12.4c6.7-1.8,12.2-1,13.8,1.9,1.2,2.2.1,5.4-1.3,7.6-6.6,9.5-24.4.8-43.2,11.5-2.5,1.4-4.9,2.8-7.2,5.5Z"/>
    <path class="st7" d="M1463.3,240.4"/>
    <path class="st29" d="M797.9,421.7"/>
    <path class="st9" d="M780.6,403.5"/>
    <path class="st41" d="M943.1,300.6"/>
  </g>
  <g id="MAIN_OUTLINE">
    <path class="st59" d="M1268.8,327.1c-3.3-.5-8.1-.8-13.7.1-5.2.9-9.4,2.5-12.2,3.9-4,5-9,6-15,8l-67,18c3,16-5,27-10,40,1,6-3,14-6,19-16,4-12,21-29,26-5,3-9,8-11,14-8,11-26,2-38,6-32-4-20,40-65,21-8,0-10,11-16,17-12,13-26,24-40,36-28,16-53,43-87,42-3,15-13,23-26,29-29,14-50,39-75,59-24,23-58,10-85,22-10,7-20,14-33,17-24-15-15,104-15,121l5,37c-8,2-13-6-8-12-3-33-8-67-9-100,1-8-2-16,1-25l-2-4c-2-6,4-12-3-17,4-10,0-21,0-32,2-7-1-13,0-19,2-5,1-8-3-10-2,73,15,147,8,219-9,1-1-14-1-20-4-13-56-22-70-19l-6-20,42,2c3,8,1,18,9,21,25,11,31,11,23-18-22-11-50-17-75-15-13-27,22-20,41-16,1,5-1,12,2,16,23,7,35,17,29-14l-4-4c-25-7-48-18-74-11l-5-18c16,1,32-5,48,1,1,5-1,13,4,17,22,4,38,17,30-15l-3-3c-24-6-48-14-73-11q-10,2-14-7c-3-13,31-10,42-12,13-4,6,13,13,17,20,6,41,19,35-11-3-12-24-9-34-15,10-2,23,1,33,6,3-39-22-30-50-38-18-8-61,29-50-12,17,6,33-11,51-5,1,11,4,16,12,17,25,4,44,17,31-20-30-7-62-16-91,0-7,3-11-8-18-1,0-13-7-28,11-28-23-8-13,28-11,41,6,26,5,52,14,77,14,38,11,81,30,119-25,5-20-65-28-84,3-26-19-45-18-70,1-28-7-55-6-83-2-25-34-22-51-28q-11-3-12-14c-14-4-35-10-48-4-7,8-14,35,0,37,17-3,61,18,51-11,22,8,61,5,58,38-34-24-76-20-115-25-4,21,3,33,26,30,73,14,4-31,75-4,12,5,17,14,15,28-13-7-25-15-39-16l-73-4c-6,21,4,33,26,30,17,0,45,10,37-18,23,4,58,9,51,38-31-26-72-12-110-15,0,10-7,33,11,30,19-4,62,13,52-20,23,1,51,4,52,34-31-19-67-11-102-12-16-4-14,16-11,27,5,8,21,1,30,4,17,1,49,3,31-23,23,1,56,1,55,31-20-15-45-6-68-5-23,0-59-9-45,25,1,3,3,5,6,4l59-1-1-23c15,3,45-2,51,14,0,5-1,9,3,13-39-10-77,2-118,1,3,8-3,26,8,27l53-1c7-1,9-4,8-10-7-25,38-9,52-4,15,34-27,7-46,14-19,7-63-4-72,8-6,40,41,20,64,24,10-2,3-16,4-23,25-1,56-4,59,27-11-4-23-9-36-6-28,9-63-3-88,8,.3,1.1.4,2,.2,3-2.1,12.1-43.8,20.8-188,14.2-21.2-32.7-47.6-81.2-65.7-144.4-16.9-59.2-20.6-111.1-20.5-148.7-39-85,53-137,127-140q9-1,12-10c3-6-5-6-4-11q2-12,14-15c5-1,3-39-2-39-63-35-38-124,7-162,17-51,85-75,130-55,16-4,31-12,48-11,20,1,41,10,51,28,8,8,22,6,28,17,15,6,19,26,14,40-2,6,1,13-7,16-31,21-11,15-5,40,5,0,8,2,9,7-3,23-36,23-55,26-11,2-10,18-16,27,15,0,32-20,45-6-8-4-16-3-23,1-33,22-62-12-96-8,15-6,31,0,44,7,31,13-53-50-88,18-1,8,14,9,19,6,8-16,23-19,39-17,25,2,51,20,76,8,2.9-.8,7.2-2,12.3-3.5,15.1-4.5,17.4-5.9,17.7-7.7.2-1.1,0-3.8-8.3-8.3,8,2.5,12,5.1,12.1,7.8.1,4.3-9.9,8.9-29.9,13.8,27.2,1.1,60.5.3,98.1-5.5,39.3-6,72.6-15.8,99-25.5,31-13,60-31,94-30,30-9,51-41,84-38,10,0,15-6,13-14-10-14-8-34,16-31,1-6,4-9,10-8,8,0,5,11,7,16,5-1,12-2,17,6-1-10,4-20,15-16,16,7,5,29,14,41,73-7,146-31,218-47,37-7,73-23,110-25,12,7,13,30,7,40-9,8,6,23-16,25-25,3-50,6-73,17-15,5-47-4-40,21,2,12,20-9,24,3,69-5,146-38,218-52,23-1,85-38,80,6-2,8,2,18-9,21,15,26-32,23-47,25-15,4-28,15-43,12-11.1,3.3-22.7,7-34.7,11.2-11.7,4.1-22.8,8.4-33.2,12.7-13.7,5.7-27.3,11.3-41,17ZM982.9,498v-1c-9,6-20,10-31,7,50-13,59-47,1-12-18-2,40-18,25-32-11-24,19-37,23-56-4-10,7-15,8-24,0-9,2-18,11-24,5-25,21-45,38-63-4,19-14,35-27,49,8-2,13-2,18,4-4-24,11-45,32-56-6,10,7,31,12,11-13,8,9-17,7-24-75,9-55,53-104,89-42,43-115,28-151,77-6,15-14,29-28,38,37-51-10-1-38-4-28,1-50,17-71,33-15,11-34,5-50,16,4-10,12-12,20-14-13-7-65-11-78-6,4,21,14,40,20,60,22-42,19-33,11,7,3-1,4,5,5,7l3-4c3,19,3,2,8,2,0,28,4-18,7,7,2-3,2-10,4-11,2,4,3,16,7,7,2-6,4-6,8-1,12,7,27-4,39-6,20-6,43-20,62-20-37,21-76,36-111,57,4,3,7,2,2,8,2,9,9-2,9,13l10-9c0,3-4,9-1,9,12-7,36,1,18,5,14,1,16,1,17,7-11,1-22,4-31,8h6l-9,6h16c-12,7-29,6-38,20,69,11,106-23,154-66l-25,7c14-20,47-11,61-33-28-7-50,36-74,19,21,2,35-15,53-23,18-6-5-2-12-2,17-21,54,7,68-22,20-31,14-7,2,9,35-16,67-41,94-69M874.9,335.1c-1.7-1.6-3.8-3.8-5.7-6.7-2.1-3.1-3.4-6-4.2-8.2,11,9,21,19,34,25l12-15c-4-2-8,9-14,11,1-8,13-18,20-23,3,3,3,6,1,9-35,37,13,18,5-6-1-5-6-3-10-6-13-11-24-24-21-43-5,3-8,16-14,13-18-17-56-28-59,7-15,8-31,17-48,19,9-18,40-9,42-29-36,11-69,50-109,35,54-2,95-49,146-53-4-4-10-5-16-5,11-7,22,0,31,8,26,13,25-20,17-36,9-40-28-25-8-3,.7,6.8.6,15.7-4.7,19.9-4,3.1-8.7,1.9-15.2,2-9.1.2-16.9,3.9-32.5,11.5-8.7,4.2-20.3,10.7-32.6,20.6-20,7-43,4-63,15-59,30-125,43-191,52-42,6-74,38-111,58-19,14-41,22-64,26-40,1-69,33-107,36,12-12,28-12,42-21-44-19-100-10-133,23,14-6,28-3,41,5-27-2-49,6-73,17l28-29c-18,9-42,24-45,46-13,66,28,82,7,139-6,61,104-14,61,2,3-7,7-11,13-13,4-1,6-6,8-8l-28,17c7-21,27-29,44-36l-26,6c27-26,65-13,99-17,25,0,47-13,70-21,40-10,82-20,113-48-33,10-68,9-100,20,4-11-6-9-15-11,18-9,46-2,67-5,11-1,101-36,63-14,56,10,131-52,175-83-24,5-48,13-73,5,55-4,104-25,153-49-18-4-35,7-51,3,10-7,25-11,39-10,11,3,22,1,31-3,13,19,46,23,66,16,14,5,35,14,43-5-9,1-54-6-33-16,13,2,39,22,46,2-31-7-61-48-28-25-2,12,20,18,30,21,12,3,18-5,18-16-1-8-12-10-18-15-4-3.7-8-7.3-12-11ZM303,348.1l1,5c-39-22,0-79-1-62,11-8,17-26,33-24l-4,4,13-3-19,14c35-17,69-12,105-1,28,6,65,8,87-10-2-8-6-5-4,2-5-7-6-8-10-8,3.3,4,4.7,7.3,4,10-3-10-34-24-24-6-15-10-30-18-47-24-5-16,43,29,75-2-26,3-53,6-78-8-13,17-36,23-55,29-5,2-33,8-27,0h-14l8-7-9-3c1-5-19-10-25-14,8-4,1-6-4-9,7-6,18,8,9-8,15,8,8,5,5-4,9,1,15,9,21,15-3-8-15-15-24-18-4-2-13,1-17-3-2-14,15-5,20-13,11-18,32-23,51-22-32-20,19-2,30,10,8,7,16,22,26,25-11-56-89-67-123-23,10-31,52-34,79-29,7-1,32,16,29,10-29-50-116-28-137,19-8,18-15,67-17,21-29,32-47,88-22,124-13-28-13-55,6-81-4,19-10,38-6,58,1-15,0-45,14-52-6,21-16,54,2,70-6-23-14-45,6-65-6,29-10,63,13,86,2,1-5-9-5-13,14,16,19,20,8-3,6,5,17,27,11,7,20,25,28,33,37,36-15-17-5-8,7-1-6-9,8,3,13,5-8-15,8,0,15,3v-4l10,6c-6-10,2-5,7-2-8-13,15,4,21,6l-1-6c19,10,45,9,62-2-39,3-77-8-115-10-36,0-57-43-36-72-7,2-9,18-15,26,0-10,4-17,4-26-11,17-7,33,6,48M1099.9,300.1c7-3,7-5,1-10l-2,11,1-1M465.9,556c1-2-3-8-5-12-9,4,1,8,5,12M442.9,217.1c3-6,2-18-2-21l1,22,1-1M1014.9,301.1c10-2,18-8,27-12,0-5-32,14-27,12M528.9,226.1c-12,12-29,14-47,15,17,1,43,1,49-16l-2,1M487.9,357.1c-19.2,4.8-48.3,9.8-83.6,7-35.3-2.8-63.2-12.2-81.4-20-2.3-3.2-7-10.6-5.9-19.8,1.5-12.9,13.2-20.2,19.1-23.9,18-11.3,37.5-10.8,48.8-10.3,61.8,2.8,109.1,18.6,132,5,3.1-1.8,13.1-7.8,11.9-12.5-.5-1.8-2.2-3.4-5.9-4.5-27,9-54,14-83,10-43-17-118-27-132,32-14,14,1,31,15,40l-7-3c20,17,49,10,73,18,20,5,42,4,63,4,21-1,35-19,55-26-.2-.4-2.8-5.4-7.8-5.9-4.9-.5-10.1,3.6-11.2,9.9ZM604.9,640c2-3,4-6,2-10-2-9-1-18-2-27-8-14-3,30-1,39l1-2M365.9,580c-10,1-9,12-10,19,1,7-6,14-1,19,7,5-4,12,4,16-2,8,4,15,1,22-3,6,2,9,3,14-7,7,3,12,0,19-6,6,6,11,0,17-6,5,3,10,1,15-3,5-2,7,2,10,7,5-9,10,0,16,8,5-6,11,1,17,3,6-6,11,2,17v4c-6,6,5,10,3,16-3,4-2,8,0,11,3,10,1,21,4,30,9,20-3-39-1-48-1-15-6-29-3-44,1-20-9-40-3-59,3-8-5-14-5-23s3-19-2-28c-3-19-3-45,3-60M1022.9,370.1c-4,8-14,21,1,7-5,11,10,31,25,25-12-10-26-18-23-36,0-3,0-6-4-6-8-2-7,12-8,16l9-7M468.9,200.1c16-10,31-20,51-20-24-19-83-8-72,29,0-7,16-41,13-24,17-19,4,7,0,16,12-9,20-25,37-26-9,4-30,18-29,25M384.9,576c-3,4,37,3,48,11,15,11,40,1,49,19,1-29-30-16-46-27-17-13-32-8-51-3M548.9,517c-12,11-92,13-54,22,31-5,17,5,38,6l46,3c-5-14-16-24-28-32,25,5,33,26,40,49,9-13-2-7-2-17,6-9-14-11-3-16-9-7-6-11-17-14-5-8-12,4-12-8l-8,7M1124.8,325.1c12-4,28-1,36-12,9-1,28,7,28-7,7,2,7-3,8-8-28,0-8,8-23,11-6,1-15-8-18,0,0-9-10-3-12-10,11,2,21,4,33,1-48-4-18-4-5-25-21,9-22,3-23-18-9,3-10,11-20,11-5,1-7,4-8,10l9-4c-1,9,5,14,9,20l-7,4c2,8-10,23-7,26M1261.8,173.1c-41.1,9.5-82.5,19.5-124.4,29.7-41.7,10.3-82.9,20.7-123.6,31.2-21,12-48,1-68,13l-11-40c-18-18-7,43,7,36-8,2-20,7-8,15-19-5-3,32-24,40,6,0-1,15,8,17-7-19,19-6,30-14,17-1,72-31,70-11,19.9-6.7,30.5-8.7,31.8-6.1.4.7,0,1.8-1.1,3.3,10-5.5,20.1-11.1,30.3-16.6,11.4-6.2,22.7-12.4,34-18.5,26,1,146-35,151-58-2-25-102,19-125,19-36,15-88,12-116,37-3,12,8,21,1,33-26-19-13,14-25-28-12,7,9,16-1,25-9,8-25,10-35,4,1,6-12,6-13,4,3-4,7-1,11-6-3-7,15-5,13-2-20,4,23,6,23-7-4-19-31-8-45-8,2-7-3-3-6-6,10,2,11-6,12-12,4,.7,7.3-.7,10-4,1.9.4,3.5,1.5,3.8,2.8.4,1.9-1.8,4.7-5.8,5.2,98.7-26,197.3-52,296-78ZM602.9,499c30-2,61,1,91,10,3,0,8-2,11-4,66-51,93-9,164-87,90-40,132-27,178-130-24,25-62,18-91,32-6,4-4,14-6,20-3,21-25,24-42,21,0,13-4,18-17,21-4,3-5,9-11,11-25,37-29-7-44,45-16,43-88,7-69-31,17-63-165,88-186,93l22-1M1042.9,442.1c8,7,17,11,28,10-23,6,11,3,20,5,11-1,11-18,24-20,8-3,13-9,13-18,14-4,20-17,17-25-40,23-53-15-86-27-13-3-28-42-25-1,23-9-3,4,5,11,10,10,25,10,38,14,4,2,4,4,0,6-18,21,37,11,48,10,13,8-57,14-69,1-14,23,20,20,33,23,10,1,5,3-2,3-28,3-49-10-70-28-19-39-15,26,12,28,11,3,1-25,14,8M1201.8,340.1c23-9,48-18,69-32,11-14,26-24,45-23,25,3,44-18,69-19,17,2,29-8,39-20,20-11,27,1,26-27-72,18-143,37-215,57-25,6,3,26-9,42,11-5,20-9,31-7-16,15-41,14-56,28h1M285,374.1c-22-17-12,16-16,31-1,4,1,5,5,6,42,19,63-5,103-9-31-7-63-13-92-28M406.9,217.1c-11-8-22-17-35-20-25-7-57,12-28,30,13,25,118,14,63-10M477.9,151.1c-21-17-54-13-77-4,12,10,21,21,29,36,12-18,76-8,48-32M459.9,236.1c23,6,99-7,65-40-29-14-50,27-78,30-14,5,7,7,13,10M573.9,621c-19-3-74-10-68,16,15-3,30-10,47-8-1,26,32,17,51,23-4-24-5-28-30-31M556.9,614c19,1,48,21,41-11-33-3-66-20-98-7-5-6-9-7-14-5-5,3,1,24,2,11,19,9,38-4,58-1,1,9,1,14,11,13M807.9,454.1c10-1,18-4,23-14-40,0-26-37-57-41-15,24,6,57,34,55M997.9,417.1c-49,34,14,91,40,58-16-9-43-13-41-36-1-5,10-33,0-22M580.9,562c11,53,21-5-4-12-28-8-59,5-86-4-9-4-29,1-19,13,7-11,32-3,41,1,6-1,10-5,12,3,6-2,18,2,14-8l18,1c13,5,0,8,24,5M1151.8,349.1c-21,21-11,42-52,42,23,17,59-1,50-34,2,2,2,6,4,5,1-17,37-8,45-26-16-1-33,1-37,5l4,1-15,7M558.9,585c-35,1-7-23-41-17-6-4-24,5-25-1-2-8-13,0-18,1l5,15c3-8,7-7,12-5,11,3,22-3,33-4,18-2-3,13,27,18l46,5c0-9-2-12-10-10-10,0-19-4-29-2M888.9,224.1c-9,9,4,25,6,35,7,2,5,6,3,10-1,3-2,10,4,7,20,13,24-11,14-28-11,9-12-5-17-12v3c-13,7-3-11,2-13,7-6,11-1,17,0,0-7-11-8-17-9l9-2c-8-8-14,4-21,9M1189.8,278.1c-93,29,252-58,263-68l-263,68M945.9,341.1c-3-34,31-25,54-39-20-8-41,5-61,10,8,12-9,42-24,45,12,5,24-1,31-16M1100.9,312.1c-6,16,8,27,16,11l-15-1,6-10c5,8,11-1,17,1l1-20c2-13-16-11-25-13,11,14,11,17,0,32M1131.8,374.1c13-15-3-12-15-14-11-5-41-18-34,6,13-26,44,9,19,18,11,2,21,0,29-10M1126.8,333.1c17-9,36,7,51-6,9-4,19-15,30-11,8,3,11-2,1-4-7-1-4-9-6-14-14,42-70,12-94,44,8-1,13-5,18-9M1073.9,350.1l3-1c-15-13,21-28,18-40-13,10-75,62-25,46l-4-3,8-2M507.9,184.1c-20,5-48,23-56,37,26-12,51-49,82-24-1-16-14-16-26-13M350.9,187.1c31-7,51,27,77,38,5-8-12-12-15-18-17-15-44-33-66-19l4-1M1314.8,301.1l13-1c-10-15-32-5-39,8-6,9-19,4-27,13,22,2,35-12,53-20M459.9,559c-22-3,0-14-34,4,9,3,16,8,24,1,3,15,17,0,25,16,0-12-7-16-15-21M905.9,232.1c-6,8,4,19,11,11l1,2c13,13,14-18,4-24,2,17-11,1-16,11M1081.9,277.1l-4,2c8-3,25-1,29-9l2-1c9-4,24,0,28-9-14-10-22,0-36,4-5,9-10,11-19,13M1092.9,344.1c24-9,4-9,2-25-9,9-30,32-2,25M1451.8,267.1c3-6-4-10,0-17-31,5-39,22,0,17M1084.9,370.1c11,20,33,7,17-9-9-4-13-1-17,9M1261.8,230.1c7,0,2-10,2-14-9,5-32,2-27,17l25-3M1175.8,240.1c-23,13,22,8,28,2-9-9-18-3-28-2M372.9,251.1c11,1,23,2,34-4-29,3-56,3-78-19,9,17,26,19,44,23M835.9,418.1c-4,3-7,0-10-3-11,52,27-7,10,3M555.9,577c-20,0-7-4-17-12-1,15,11,14,24,16-1-17,1-24-19-24,3,7,8,5,13,6,0,4,5,13-1,14M440.9,190.1l20-18c-14-4-40,25-20,18M320,207.1l-14,4c24,8,31-27,59-21-18-6-31,7-45,17M1452.8,223.1c2,12,20,16,21,1,0-19-20-24-21-1M1278.8,175.1c-19-18-19,28-2,23,11-4,6-16,1-24M1031.9,457.1c-8,3-2,13,5,13,11-3,7-17-5-13M934.9,327.1c-7-16,0,31-34,23,14,12,32-8,34-23M1463.8,236.1c-13-9-15,0-5,9,5,3,7-5,1-7h8c-7,11,4,9,6-3l-10,1M1392.8,280.1c-4-11-20-3-28-1-12,10,22,1,28,1M897.9,281.1c-5,21,11,20,19,3l-18,4c0-3,3-6-1-7M884.9,208.1c-1,24,26-10,4-12-1,5,0,11-7,7l3,5M1264.8,198.1c-2,10,9,15,5,8,4,0,6-1,5,3,6-1,9-4,7-10-6,6-11,0-17-1M437.9,213.1c0-12-10-28-21-32,9,11,19,21,20,36l1-4M1191.8,294.1h7c-3-18-29,1-7,0M264,434.1c-2-3-7-16-11-9-2,10,4,10,11,9M252,414.1c4,6,10,7,16,9l-17-16,1,7M594.9,571c0,7,1,14,8,21-1-4,0-8-2-9-9-4,3-15-8-17l2,5M1456.8,256.1c-1,8,7,7,9,1,2-7-8-7-9-1M1033.9,452.1c9,6,8-11-4-11l4,11M1269.8,219.1c0,3,0,7,4,7,5-5,1-17-4-7M835.9,413.1l6-5c-5-1-11-6-13-3,2,2-2,9,7,8M1116.8,273.1c-11-2-7,8,1,10l-1-10M352.9,238.1l-9-5c3,1.6,6,3.3,9,5M298,297.1c0,5,3-1,4-3-2-1-2,2-4,3M502.9,264.1h-1,1M1029.9,344.1l1,1-1-1M629.9,575l1,1-1-1M326,284.1h-1,1Z"/>
    <path class="st33" d="M378.7,206.9l10,2c5,3,7,10,5,15s-6,7-11,7c-7-1-12-5-13-10-1-6,2-11,9-14M381.7,210.9c-3-1-6,0-6,3s2,4,3,5,4-1,4-2c1-2,0-4-1-6Z"/>
    <path class="st33" d="M498.6,227.9c-6-1-10-5-11-10-1-4,1-8,5-10,3-3,10-2,14,0,3,3,4,7,3,11-1,5-4,8-11,9M499.6,210.9c-3-2-5-2-7,1-1,1,0,4,1,5l4,1,2-6v-1Z"/>
    <path class="st10" d="M428.4,248.2c-8,11-20,17-33,18h-19l3-1v-1c10,1,20-2,29-7l19-10,1,1Z"/>
    <path class="st11" d="M437.4,244.2l8,7c7,4,12,9,15,17l-7-6-15-9c-4-2-6-5-5-10l4,1ZM321.5,191.2c7-9,16-13,26-14l-28,19,2-5Z"/>
    <path class="st16" d="M851.9,299.2c5.7,11.8-16.7,1.2-11-9,1.7,2.2,8.7,7.3,11,9Z"/>
    <path class="st10" d="M851.9,299.2c-8.5-3.7-11.1-13.9-7-22,0,0,4,10,4,10,2.2,1.6.5-12.7,1-13,19.1,13,1.2,6,7,19,6.6,11.5,8.2,10.1-5,6ZM906.9,322.2l-12,12c-5.2-3.4,5.2-12.7,12-12Z"/>
    <path class="st18" d="M818.9,292.2c9.1-2.6,13.1.8,14,10-4.4,10.1-17.6-1.6-14-10Z"/>
    <path class="st25" d="M759.9,352.2c-6.8-3-12.9-4.3-17.3-5,3.1-1.8,5.8-2.7,7.7-3.2,15-3.7,30.9,5.7,31.6,6.2,2.9,1.8,5.1,4,9,4s7-2,11-3c-.3,2.7-.7,5.3-1,8-1,10,6,16,12,23-7,2-11-1-15-6-4.3-5.3-8.7-10.7-13-16,4.3,6,8.7,12,13,18,1,5,3,9-1,15-1.9-6-6.1-16.6-15.6-26.4-2.2-2.2-9.5-9.4-21.4-14.6Z"/>
    <path class="st25" d="M743.9,328.2c22.4,1.9,63.2-12.2,69,21-19.9-16.5-53.1-4.7-69-21Z"/>
    <path class="st18" d="M831.9,334.2c-11.4-4.5-12,14-19,9-4.8-30.1,51.6-8.8,19-9ZM815.9,375.2c4.4-10.4,27.4-10.1,32-1-24.5-5.5-23,20.4-32,1Z"/>
    <path class="st25" d="M543.9,481.2c-23.7-2.8,10.3-5.9,15-17,2,9-7,17-15,17ZM808.9,401.2c-5,1-9-1-13-3l28-8c-4,6-8,9-15,11Z"/>
    <path class="st25" d="M895.8,371.2l4-14c10.2,5-13.5,29.1-4,14Z"/>
    <path class="st16" d="M848.9,313.2l-5-7c1.6-3.4,12.5,7.6,14,8,0,4.3-7.4-1-9-1Z"/>
    <path class="st4" d="M880.8,368.2l9-15c1.7,7.8-3.2,11.2-9,15Z"/>
    <path class="st4" d="M884.8,371.2c1.2-2.1,4.3-9,5-11,6.9-5.4.5,12.4-5,11Z"/>
    <path class="st23" d="M774.7,310.1c4.1,3,55.8-4.9,30,7-12-1.6-34.9,3.5-46-1,3.3-1.5,12.4-6,16-6Z"/>
    <path class="st18" d="M713.7,366.1l22-2,10-1c-1,7-8,13-15,12l-27-1c-6.6.5-13.2.9-19.7,1.4,1.9-1.5,3.8-2.9,5.7-4.4,2.4-1.4,5.8-2.9,10-4,5.7-1.4,10.7-1.3,14-1Z"/>
    <path class="st11" d="M668.7,366.1c14.4-7.4,40.3-27.7,58-19-18.2-12-58.4,51.2-58,19Z"/>
    <path class="st25" d="M762.7,384.1c-7.6-3.4-8.9-4.9-9.7-6.2-1.9-3.2-1.6-6.8-1.3-8.8,7,8,17,8,25,12l12,7c-5.2,1.4-9.4,1.3-12,1-3.8-.4-7.2-2-14-5Z"/>
    <path class="st11" d="M729.7,332.1c9.5,4.3,21.3,2.6,7,13-16-8.3-28.7-3.4-44,1-1.1-3.2,11.2-9.7,13-11,6.9-4.4,16.5-6,24-3Z"/>
    <path class="st18" d="M692.4,397.2l-23,11-7,3-1-1,16-15c-17,1-30,11-46,13l15-9c15-8,30-17,47-21,16.4-3.4,33.4-2,49,4l2,2c-17-2-32,0-46,9l-3,2-3,2Z"/>
    <path class="st18" d="M477.9,478.7l9,2c-15.1.2-25.3,9.2-37,17-14.1,11.5-32.3-6.3-46-11-14.6,3.4-24.9-8.4-33-19,49.6-5.7,26,27,107,11Z"/>
    <path class="st16" d="M410.9,451.7c2.7-5.4,30.8-19.8,36-23,0,0,9-6,9-6,.2,5.6,6,.7,6,7,14.1-32.3,23.8,2.5,5,13,0,0,15,0,15,0l6,9-6-1c-13.2-6.5-23.5,6.4-36,5-11.7-5.7-23.1-6.7-35-4Z"/>
    <path class="st18" d="M474.9,517.7l-19,7-30,1c-8,1-15-5-18-13l3,1c15,8,31,9,47,2l12-6,33-14,11-4-11,10-28,16Z"/>
    <path class="st25" d="M565.9,439.7c-8.4,3.4-31.8,13.5-41,12,19.4-9.9,47.4-26.9,67-21,0,0-26,9-26,9Z"/>
    <path class="st4" d="M329,553.7l35,2c-10,9-57,6-66-9l31,7Z"/>
    <path class="st4" d="M389.9,437.7c-32.4-1.4,26.7-13.2,39-15,62-32.8,133.1-51.6,203-57-50.3,14.1-111.8,24.8-160,44-32.3,14.1-58.7,45.3-97,36,3.6-1.7,11.2-4.7,15-6,16.1-4.1,19.1-6.5,0-2M405.9,434.7h-1c.9.1,1.1-.1,1-1v1Z"/>
    <path class="st25" d="M803.4,349h1-1ZM804.4,534.9l19-13c-1,7-3,13-8,16-7.5,5.2-40.9,3.3-11-3Z"/>
    <path class="st10" d="M967.4,418.9l29-19c.6,24.5-46.7,36.3-64,46-11-1.4,26.9-22.7,35-27ZM821.8,494.1c8.1-2.5,16.8-5.6,25.9-9.3,10.1-4.1,19.3-8.4,27.5-12.7-1,1.5-19.4,28.9-42.7,25.7-3-.4-6.7-1.4-10.7-3.7Z"/>
    <path class="st4" d="M1103.8,428.2h-13l-2-1,1-2-25-1-5-2c-1-3,1-5,4-5l14,2c11,3,22,4,33,2h9c0,7-10,17-19,17l3-10Z"/>
    <path class="st10" d="M1079.8,452.2l15-13c0,8-8,15-18,14l3-2v1Z"/>
    <path class="st11" d="M1043.8,441.2l-2-1c0-4,1-8,5-8,4-1,7,1,9,5l-3-1c-4-1-6-1-7,4l-2,1Z"/>
    <path class="st23" d="M1016.8,407.2c2,6,1,8-4,9l2-10h2v1Z"/>
    <path class="st54" d="M1012.8,408.2l-3,6-1-1,2-10h1l1,5Z"/>
    <path class="st59" d="M598.9,863.1l-27-10c-8-3-16-2-25,1l-4-22,42,6v17l23,8h-10,1Z"/>
    <path class="st18" d="M449.9,863.1l-1-2c2-8,3-9,11-9l34,1c7,0,13,2,16,10l-61,1,1-1Z"/>
    <path class="st14" d="M572.9,708.2l-21-3c-11-2-21,2-30,7-8,3-10,2-12-7l-1-3q-2-7,7-8l6-1c12-5,28-7,41-6l1,11c1,5,3,8,9,9v1Z"/>
    <path class="st11" d="M975,277.3h2c8-1,9-2,7-10l10,1c1,4-1,7-5,8l-14,2v-1Z"/>
    <path class="st18" d="M1045,264.3l52-23c14-5,28-7,42-11,23-5,46-8,66-19,14-8,27-13,42-16h6l-11,4-41,20c-12,7-24,10-37,12l-30,7c-7,1-15,1-22,3l-24,11c-10,6-21,11-33,13l-10-1Z"/>
    <path class="st1" d="M1343,261.3c17-3,32-10,48-15,17-7,35-12,56-13l-6,5-71,26c-13,4-26,6-40,9-24,5-46,15-68,28-8,5-18,8-30,4l22-14c24-13,49-23,76-28l13-2Z"/>
    <path class="st14" d="M959,265.3l17-1,5,3-3,4c-4,2-9,2-13,3l-6,2-8-10h8v-1Z"/>
    <path class="st18" d="M955,245.3c2,4,1,7-6,9-1-4,3-7,5-9h1Z"/>
    <path class="st59" d="M1463.8,212.2c7,5,9,12,4,17l-4,3c-3-3-6-6-7-10-1-3,1-6,3-9l4-1ZM1279.8,193.2c-3,4-6,3-9,1-6-4-7-15-1-19h5c5,3,7,10,5,18Z"/>
    <path class="st14" d="M1138.9,287.9c0-3,3-7-2-7l11-6c3,4,1,14-5,15l-4-2Z"/>
    <path class="st11" d="M888.8,204l4-4,1,5-2,8h-2l-1-9Z"/>
    <path class="st11" d="M907.4,299.5c8.8-2.8,17.7-5.5,26.5-8.3,8.1-2,16.2-4,24.2-6-16.3,5.7-32.6,11.3-48.9,17-.6-.9-1.2-1.8-1.8-2.6Z"/>
    <path class="st11" d="M880.3,282.6c-.8.8-1.6,1.7-2.4,2.5,7.6,5.2,15.2,10.3,22.8,15.5-.5-1.7-.9-3.4-1.4-5.1-6.3-4.3-12.7-8.6-19-12.9Z"/>
  </g>
</svg>