<svg xmlns="http://www.w3.org/2000/svg" viewBox="0 0 1000 1000"><path fill="#156863" d="M-1.2-1.2h1000v1000H-1.2z"/><path fill="#f7941f" stroke="#000" stroke-width="12" stroke-miterlimit="10" d="m248.2 371.6 28.3-201.9 39.1-80.3 27.5-6.1L546.7 144l6.4-1 12.9 1.3 52 34.4 97 133.2.4 1.7 4.8 4.8 13.3 3.8 19.5 16.6 9.8 14.6 10 39.2-1.9 59.7 6.3 23.7 29.8 73-48 24v100l38 24 23.9 198.9-69.8 23.3-482.5-74.3z"/><path d="M755.9 912.9l-5.4-9-59-33.6-84.1 13-14.7 9.3-32.6-6-10.3-26.4-85.1-54.2-42.4-10.6-53.7-31.6-62.2-92.2-15.8-10.7-1.7-22.7 4.3-21-15-92.1-11.2-17.9.7-84.8-13.8-.4-.9-89-71.3 248.8 7.6 21.9-4 12.2.2 44.2 73.9 173.8 9.2 11 40.7 13.9 43.3 34.6L507 921l159.3 8.3 9.4 4.1 69 .6zM757 679l6-18-264-18-140 70m278-156.8l15.1 18.6L721 555m-336.4-20.4L641 529l16-16 26-12 20 10 76-16-6.2-64.2L669 483l-125.4-38.4-123 18z"/><path fill="#fff" d="M505 527s-3.4-46.4 75.8-6.2m129.7-18.7s38.6-45.5 51-10.5"/><g stroke="#000"><g fill="#00baed"><path stroke-width="6.699" d="M521.3 526.9s13.1-30.2 40.4-3.1"/><path stroke-width="6.54" d="M720.1 502.6s9.5-26.5 28.5-6"/></g><g  stroke-miterlimit="10" fill="none" ><path stroke-width="3" d="M485 609l14 34m48.8-185.2L515 371l-118.4 18.1-51 114 39 31.5L381 607m147.6-207.4l133.5 21L715 355l52 12m-98 86l4 30m35.6-81.9l4.5 121.5m-220.5 25.5L535 569l54-18m80 88l-16-28-94 14-6-58m227.6-48.9L741 535l18 38"/><path stroke-width="7" d="m433 707 66 64 164 10"/><path stroke-width="3" d="M603 723v54m88.5 93.3L737 807l-8-46M607.4 883.3L579 809m218-112l-116 26M546.7 144L501 261m-224.5-91.3L337 301l84-2 18 44m-190.8 28.6L341 367l4 64m-51.8 186.2L345 659l2 40"/><path stroke-width="8" d="m313 531 2 74"/><path stroke-width="3" d="m387 105-24 102"/><path stroke-width="8" d="m321 191 130 46"/><path stroke-width="3" d="M533 287l-60 2v-30m196 44l26-18m22.6 347.1v33"/><path stroke-width="8" d="m381 607 104 2"/></g></g><path fill="none" stroke="#fff" stroke-width="22.549" d="M594.8 224.4l-48.7 163.7m81.3-156.9l-11.5 38.7m-25 84l-12.2 41m-22.3-143.5s111.4 9.2 98.6 43.2c-5.1 17.3-76 7.6-76 7.6m-51.1 45.3s112.7 30.8 123.8-2.7c6.8-22.9-72.6-42.6-72.6-42.6"/></svg>