<?xml version="1.0" encoding="utf-8"?>
<!-- Generator: Adobe Adobe Illustrator 24.2.0, SVG Export Plug-In . SVG Version: 6.00 Build 0)  -->
<svg version="1.1" xmlns="http://www.w3.org/2000/svg" xmlns:xlink="http://www.w3.org/1999/xlink" x="0px" y="0px" width="24px"
	 height="24px" viewBox="0 0 24 24" style="enable-background:new 0 0 24 24;" xml:space="preserve">
<style type="text/css">
	.st0{fill:#5B4B2F;}
	.st1{fill:#6B7370;}
	.st2{fill:#514173;}
	.st3{fill:#D9C268;}
	.st4{fill:#492A28;}
	.st5{fill:#3A339E;}
	.st6{fill:#AB522B;}
	.st7{fill:#1E9242;}
	.st8{fill:#D99240;}
	.st9{fill:#792A13;}
	.st10{fill:#156232;}
	.st11{fill:#E6D3C5;}
	.st12{fill:#70170A;}
	.st13{fill:#033018;}
	.st14{fill:#0D5820;}
	.st15{fill:#186231;}
	.st16{fill:#667119;}
	.st17{fill:#61C041;}
	.st18{fill:#60BF45;}
	.st19{fill:#034117;}
	.st20{fill:#60C239;}
	.st21{fill:#003017;}
	.st22{fill:#209241;}
	.st23{fill:#701508;}
	.st24{fill:#E72F10;}
	.st25{fill:#093019;}
	.st26{fill:#E8D3C5;}
	.st27{fill:#24913E;}
	.st28{font-family:'AcademyEngravedLetPlain';}
	.st29{font-size:0.5px;}
	.st30{fill:#112113;}
</style>
<g id="Layer_4">
	<polygon class="st0" points="21.28,23.99 20.39,19.49 24.05,11.93 23.97,24.01 	"/>
	<polygon class="st1" points="16.53,0 18.45,6.49 24,6.4 24,0 	"/>
	<polygon class="st2" points="22.4,6.41 24.02,6.41 24,19.44 18.42,19.52 	"/>
	<polygon class="st3" points="3.25,0 13.44,0 14.85,5.19 3.56,3.96 	"/>
	<polygon class="st4" points="9.23,0 17.78,0 18.42,5.47 13.06,4.81 	"/>
	<polygon class="st5" points="-0.02,9.1 3.13,9.18 10.62,9.67 9.47,20.4 7.61,24 0,24.01 	"/>
	<polygon class="st6" points="0,11.39 5.98,11.02 3.25,0 0,0 	"/>
	<path class="st7" d="M0,15.1c0,0,1.33,0.02,1.77,0.09c0.31,0.05,0.93,0.18,1.22,0.33c0.29,0.15,0.85,0.54,1.06,0.83
		c0.19,0.27,0.5,0.92,0.56,1.27c0.07,0.39,0.03,1.19-0.02,1.58c-0.05,0.38-0.19,1.13-0.28,1.5c-0.09,0.35-0.39,1.36-0.39,1.36
		l-0.59,2.04L0,24.1V15.1z"/>
	<polygon class="st8" points="5.54,24.03 7.46,17.25 16.86,22 16.74,24.01 	"/>
	<polygon class="st9" points="12.35,24 19.31,19.03 20.74,19.49 21.28,23.99 	"/>
	<path class="st10" d="M0,11.39c0,0,2.27,0.02,3.02,0.12c0.53,0.07,1.6,0.25,2.09,0.46c0.49,0.21,1.45,0.75,1.8,1.16
		c0.33,0.38,0.85,1.28,0.96,1.78c0.11,0.54,0.06,1.67-0.03,2.22c-0.08,0.53-0.33,1.58-0.48,2.1c-0.15,0.48-0.67,1.91-0.67,1.91
		L5.67,24L0,24.01V11.39z"/>
	<path class="st11" d="M-0.02,13.28c0,0,1.72,0.02,2.29,0.1c0.4,0.06,1.21,0.21,1.58,0.39c0.37,0.18,1.1,0.64,1.36,0.98
		c0.25,0.32,0.65,1.09,0.72,1.51c0.08,0.46,0.04,1.42-0.02,1.89c-0.06,0.45-0.25,1.35-0.37,1.79c-0.11,0.41-0.51,1.63-0.51,1.63
		L4.27,24l-4.29,0.01V13.28z"/>
	<path class="st12" d="M0,17.03c0,0,0.93,0.01,1.24,0.07c0.22,0.04,0.65,0.14,0.85,0.25c0.2,0.12,0.59,0.42,0.74,0.64
		c0.14,0.21,0.35,0.71,0.39,0.99c0.05,0.3,0.02,0.93-0.01,1.23c-0.03,0.3-0.13,0.88-0.2,1.16c-0.06,0.27-0.28,1.06-0.28,1.06
		l-0.41,1.59L0,24.03V17.03z"/>
	<path class="st13" d="M0,19.3l-0.02,4.71l0.7,0l0.78-3.48l2.46-3.5l0.96-1.13c0,0,1.2-0.72,1.39-1.12c0.16-0.34,0-1.5,0-1.5
		s-1.62,0.36-1.89,0.8c-0.17,0.27,0.08,1.25,0.08,1.25l-1.82,2.44l-1.59,2.19L0,19.3z"/>
</g>
<g id="Layer_1">
	<path class="st14" d="M20.82,4.81L17.5,0.7c0,0,1.01,0.47,1.37,0.55c0.39,0.09,1.2,0.17,1.59,0.1c0.37-0.06,1.17-0.77,1.17-0.77
		l-0.02,3.3L20.82,4.81z"/>
	<path class="st15" d="M2.94,9.16L0.96,0.81c0,0,8.74,2.74,11.72,3.37c2.31,0.49,9.35,1.3,9.35,1.3s0.53,6.66,0.05,8.81
		c-0.35,1.55-1.89,4.41-2.78,5.73c-0.53,0.79-2.32,3.03-2.32,3.03L8.65,20.4c0,0,0.92-2.65,1.05-3.57c0.15-1.09,0.42-3.4-0.02-4.41
		C9.3,11.55,7.94,10.08,7.08,9.7C6.13,9.29,2.94,9.16,2.94,9.16z"/>
	<polygon class="st16" points="19.01,5.11 17,0.81 15.86,2.44 18.24,5.28 	"/>
	<polygon class="st17" points="8.79,5.21 8.21,2.07 10.26,3.64 9.55,5.28 	"/>
	<polygon class="st18" points="7.45,6.04 5.6,4.2 6.98,3 7.88,5.66 	"/>
	<polygon class="st19" points="10.66,3.68 16.82,4.82 16.27,9 16.99,10.66 17.38,12.17 18.74,14.22 13.05,14.22 13.85,12.74 
		13.49,10.89 15.31,11.47 14.83,8.36 13.62,5.4 	"/>
	<polygon class="st20" points="11.1,5.46 11.28,3.59 12.89,2.62 11.42,5.93 	"/>
	<path class="st13" d="M4.91,7.06c-0.02,0-0.04,0.01-0.03,0.03C4.9,7.4,5.07,9.64,5.35,10.35c0.25,0.64,1.07,1.79,1.61,2.23
		c0.37,0.3,1.27,0.69,1.73,0.77c0.39,0.07,1.19,0.02,1.57-0.11c0.39-0.14,1.15-0.51,1.43-0.81c0.42-0.46,0.99-1.59,1.17-2.19
		c0.21-0.72,0.59-2.8,0.59-2.8L4.91,7.06z"/>
	<path class="st11" d="M5.29,7.06c-0.02,0-0.03,0.01-0.03,0.03c0.02,0.29,0.17,2.34,0.43,3c0.23,0.59,0.98,1.65,1.46,2.04
		c0.34,0.27,1.15,0.63,1.58,0.7c0.35,0.06,1.09,0.01,1.43-0.1c0.35-0.12,1.05-0.47,1.3-0.75c0.38-0.42,0.9-1.46,1.07-2.01
		c0.2-0.66,0.53-2.57,0.53-2.57L5.29,7.06z"/>
	<path class="st21" d="M4.86,7.12c0,0,1.23-1.51,1.72-1.81c0.6-0.38,1.91-0.8,2.56-0.73c0.69,0.08,2.06,0.64,2.67,1.11
		c0.45,0.35,1.64,1.75,1.64,1.75L4.86,7.12z"/>
	<path class="st22" d="M9.16,7.28c0,0-1.9,1.72-1.98,2.38c-0.14,1.09,1.97,3.2,1.97,3.2s2.12-2.08,2.12-2.9
		C11.27,9.25,9.16,7.28,9.16,7.28z"/>
	<path class="st23" d="M9.15,7.36c0,0-0.85,2.02-0.84,2.6c0.01,0.71,0.84,2.82,0.84,2.82s1.06-2.25,1.01-2.96
		C10.11,9.21,9.15,7.36,9.15,7.36z"/>
	<g>
		<path class="st24" d="M10.32,17.73l1.94-2.19l2.27-0.31l0.92,1.7l1.17-1.66l1.97,0.05l1.49,1.84c0,0-1.09,1.58-1.5,2.09
			c-0.34,0.42-1.13,1.21-1.64,1.49c-0.5,0.28-1.75,0.54-2.35,0.47c-0.76-0.09-2-0.95-2.54-1.39C11.49,19.38,10.32,17.73,10.32,17.73
			z"/>
		<path d="M10.42,17.71l2.82,0.15l2.13,0.24l2.22-0.37l2.41-0.52c0,0-2.74,0.7-3.62,1.12c-0.22,0.11-0.96,0.54-0.96,0.54
			s-0.65-0.35-0.93-0.44C13.52,18.1,10.42,17.71,10.42,17.71z"/>
	</g>
	<g>
		<polygon class="st25" points="22.54,2.15 14.16,6.46 22.93,11.57 		"/>
		<polygon class="st25" points="22.53,2.16 18.46,4.24 22.73,6.73 		"/>
	</g>
	<polygon class="st26" points="22.34,2.52 15.19,6.4 22.49,10.66 	"/>
	<polygon class="st13" points="22.43,2.33 18.81,4.36 22.5,6.59 	"/>
	<polygon class="st27" points="18.36,8.26 23.03,8.88 15.66,3.42 	"/>
	<polygon class="st12" points="18.77,7.78 22.15,8.23 16.82,4.28 	"/>
	<text transform="matrix(1 0 0 1 20.7658 23.6806)" class="st28 st29">HNFT PEPE</text>
	<path class="st30" d="M15.31,11.47l1.28,0.34l-0.72,1.33l0.63-1.28C16.5,11.86,15.31,11.47,15.31,11.47z"/>
</g>
</svg>
