<svg xmlns="http://www.w3.org/2000/svg" viewBox="0 0 475.21 400" xmlns:v="https://vecta.io/nano"><style><![CDATA[.B{fill:#fef8e4}.C{fill:#234300}]]></style><path fill="#fff" d="M0 .74h475.21v399.55H0V.74z"/><path d="M74.21,55.24h325.12V345.8H74.21V55.24z" class="B"/><circle cx="233.9" cy="200.51" r="122.93" class="C"/><circle cx="233.9" cy="211.69" r="111.75" class="B"/><circle cx="233.9" cy="221.85" r="101.6" class="C"/><circle cx="233.9" cy="231.08" r="92.36" class="B"/><circle cx="233.9" cy="239.48" r="83.96" class="C"/><circle cx="233.9" cy="247.11" r="76.32" class="B"/><circle cx="233.9" cy="254.05" r="69.39" class="C"/><circle cx="233.9" cy="260.36" r="63.08" class="B"/><circle cx="233.9" cy="266.09" r="57.35" class="C"/><circle cx="233.9" cy="271.31" r="52.13" class="B"/><circle cx="233.9" cy="276.05" r="47.4" class="C"/><circle transform="matrix(.0825 -.9966 .9966 .0825 -64.7969 490.3387)" cx="233.9" cy="280.36" r="43.08" class="B"/><circle cx="233.9" cy="284.27" r="39.17" class="C"/><circle transform="matrix(.0825 -.9966 .9966 .0825 -71.5538 496.5596)" cx="233.9" cy="287.14" r="35.61" class="B"/></svg>