<svg xmlns="http://www.w3.org/2000/svg" width="24" height="24" xmlns:v="https://vecta.io/nano"><path d="M0 0h24v24H0z"/><path d="M1 1h22v22H1z" fill="#2dae4c"/><text transform="translate(21.497 22.879)" font-family="AcademyEngravedLetPlain" font-size=".239">HNFT PEPE</text><path d="M6.4 12.11h11.25v9.12H6.4z" fill="#f79c9d"/><g fill="#fff"><path d="M6.4 9.52h11.25v6.52H6.4z"/><path d="M8.04 7.27h7.95v2.25H8.04zM5.46 20.51h13.12V23H5.46z"/></g><path d="M7.11 13.03h9.84v5H7.11z" fill="#065e2e"/><path d="M10.09 18.02h3.85v2.49h-3.85z" fill="#0c5e30"/><path d="M10.09 20.01h3.85v.5h-3.85z" fill="#fff"/><path d="M8.04 9.51h7.95v3.55H8.04z" fill="#005e2b"/><path d="M8.24 10.71l1.05-.39 2.74.41-2.97-1.08z"/><path d="M15.79 10.71l-1.05-.39-2.74.41 2.97-1.08z"/><path d="M8.53 14.73h6.99v1.65H8.53z" fill="#c51d0b"/><path d="M9.2 15.25h5.63v.6H9.2z" fill="#fff"/><path d="M12.03 20.82l4.23-2.8H7.79z"/><path d="M15.51 14.08h.75v3.94h-.75zm-7.72 0h.75v3.94h-.75z"/><path d="M8.532 18.064v-.75h6.98v.75zm-.19-3.333v-.65h7.17v.65zm-.298-5.548v-.65h7.95v.65z"/><path d="M12.02 16.38l-.5.94h1z"/><path d="M8.77 10.91h2.75v2.35H8.77z" fill="#ab9625"/><path d="M8.94 11.11h2.41v1.95H8.94z"/><path d="M12.52 10.91h2.75v2.35h-2.75z" fill="#ab9625"/><path d="M12.69 11.11h2.41v1.95h-2.41zm-1.17-.2h1v1.19h-1z"/><path d="M15.69 11.5l.3.35v-.7z" fill="#aa9627"/><path d="M15.27 10.91H16v1.17h-.73z"/><path d="M15.69 11.5l.3.35v-.7z" fill="#aa9627"/><path d="M8.04 10.91h.73v1.17h-.73z"/><g fill="#aa9627"><path d="M8.34 11.5l-.3.35v-.7zm3.66-.36l-.15.3h.3z"/><path d="M12 11.74l-.15-.3h.3z"/></g><path d="M16.9 6.72h3.75v4.5H16.9z" fill="#2dae4b"/><path d="M2.95 7.71h4.2v3.5h-4.2z" fill="#2dae4c"/><path d="M17.65 17.88V16h-.44zm-11.25 0V16h.44z" fill="#fff"/><g fill="#a61e0f"><path d="M13.89 7.78h1.27v.75h-1.27zm2.1 2.21h.91v.75h-.91zm-8.84 0h.89v.75h-.89zm0 1.48h.89v.75h-.89zm8.84 0h.91v.75h-.91z"/><path d="M16.9 11.22h.75v.75h-.75zm-10.5-.01h.75v.75H6.4zm10.55 1.5h.7v.75h-.7zm-10.55 0h.7v.75h-.7zm10.55 1.49h.7v.75h-.7zm-10.55 0h.7v.75h-.7zm10.55 1.5h.7v.35h-.7zm-10.55.18h.7v.35h-.7z"/><path d="M15.99 12.98h.95v.05h-.95zM7.11 13h.93v.05h-.93zm4.25-5.22h1.27v.75h-1.27zm-2.55 0h1.27v.75H8.81zm3.83-.51h1.27v.51h-1.27z"/><path d="M10.09 7.27h1.27v.51h-1.27zm-2.05 0h.77v.51h-.77zm7.13 0H16v.51h-.83zm-2.53 0h1.27v.51h-1.27z"/><path d="M10.09 7.27h1.27v.51h-1.27zm-2.05 0h.77v.51h-.77zm7.13 0H16v.51h-.83zm-2.53 1.91h1.27v.34h-1.27zm-2.55 0h1.27v.34h-1.27zm-2.05 0h.77v.34h-.77zm7.13 0H16v.34h-.83z"/></g><path d="M6.4 17.22h.15l-.15.65zm11.25-.01l-.15.01.15.69z" fill="#a5220f"/></svg>