<svg xmlns="http://www.w3.org/2000/svg" width="400" height="560" xmlns:v="https://vecta.io/nano"><style><![CDATA[.r{font-family:AreaNormal-ExtraBold}.s{stroke:#000}.t{stroke-miterlimit:10}.u{font-size:20.975px}.v{fill:#01540e}.w{stroke-width:2}.x{fill:#676975}.y{fill:#274007}.z{opacity:.341}]]></style><path d="M0 0h400v560H0z"/><path d="M20 523.73V36.27A10.17 10.17 0 0 1 30.17 26.1h339.66A10.17 10.17 0 0 1 380 36.27v487.45a10.17 10.17 0 0 1-10.17 10.17H30.17A10.16 10.16 0 0 1 20 523.73z" class="v"/><g opacity=".851"><path d="M42.07 202.68V73.77c4.97.22 33.47-.58 31.69.82-1.45 2.92-5.79 9.12-3.71 12.18.71.82 1.26 11.48 1.15 23.49.68 10.76-3.19 28.45-.44 35.14 1.29 2.42 3.16 10.39.77 11.89-2.14 1.55-.34 3.15 1.47 3.59 6.04 1.12-4.65 7.62-2.79 10.48.6 3.65 1.69 4.36 7.43 4.71 4.32.24 5.14.18 5.68-.71.76-1.06.27-4.71-.76-5.83-.6-.65-3.88.53-3.88 1.41-2.36 1.43-3.73.34-1.58-4.77 1.47-4.12 1.91-4.71 3.82-4.71 7.46.94-.3-33.51 6.17-43.73 3.77-7.43-3.61-8.59-3.5-15.19.68-7.22 2.71-13.51-.82-21.54-1.12-3.08-1.47-4.88-1.37-7.24l28.14.29c.04 4.58.18 11.91.44 16.48l.55-2.77c.66-3.3 1.2-3.47 5.3-1.53 2.02.94 2.73 1.59 2.73 2.53-.05 1.34 2.07 3.44 3.17 4.47 1.45-3.31.73-6.47 2.4-9.89 2.19-3.53-.72-6.08-.11-9.59h26.01c1.11 2.68 1.89 6.76.55 8.59-1.42 2.12-2.02 23.49-.87 28.78 1.32 6.48-3.31 13.2.06 19.54 1.15 3.3 1.2 3.83.55 5.59-4.45 8.72 1.21 14.5-1.91 21.43-1.2 3.18-1.37 4.24-.93 5.77.65 2.05.93 8.44 2.08 10.3.98 1.65.55 6.24-.71 7-.71.41-.71.82.05 3.12.49 1.47 1.09 6.36 1.42 11.36l.55 8.77c-1.04 2.39-3.43 6.38-2.19 8.3 1.2 2.75-1.92 9.69.6 11.07.49.18.49 1.06-.11 3.59-1.24 3.87.66 8.48 2.57 11.42 3.18 3.35-1.2 3.12-.11 7 .57 4.6-4.84 12.56 3.61 11.95 4.32 0 6.06-.35 6.61-1.29.35-3.13 1.74-25.98 1.09-34.97-.88-4.65-.79-7.93-.82-11.95-.22-7.42.22-12.36 1.2-14.24 1.96-2.73-1.14-8.05-.33-11.48-.36-5.14-1.28-39.01-1.8-44.79-.6-3.06-.33-16.3.44-21.25.44-2.94.33-3.47-1.09-6.3-3.49-6.39.51-5.95.05-12.13.78-7.93.09-19.76 1.2-25.19h107.03c.54 5.54-3.77 15.7-1.58 19.13 1.53 5.42 1.69 7.48 1.04 13.71-.88 5.45.09 18.51.55 25.96-2.19 5.65-4.24 15.13-6.5 19.13-.66.82-.55.94.38.94 1.15 0 4.48 5 4.48 6.71 0 .47.27.94.6 1.06 1.12 1.46.86 11.75 1.37 13.77.69 5.05-2.14 8.03-.49 13.48 3.27 17.1-3.49 14.21-.66 19.72 1.94 3.39-.37 10.05.33 13.83.8 4.91-2.51 10.38-.65 16.3 1.2 5.83 3.33 19.13 3.33 20.66 0 .88-.55 2.77-1.2 4.12-2 3.45-1.13 13.65-.55 18.07 1.15 7.59 1.42 12.07.71 13.42-.95 1.31.5 3.58 1.2 5.06 4.56-2.57 1.16-20.65 3.33-24.19 1.2-2.59.62-3.61 1.69-6.3 1.92-2.75-2.76-7.38-1.64-10.42.44-2.53 2.4-4.65 4.43-4.65 1.42 0 2.13-2.3 1.58-5.42.05-5.57 2-5.94 1.69-14.6l.16-9.12c1.71-11.09-10.06-21.7.93-22.96 2 .17 3.05-4.05.93-3.83-3.92-.38-4.79-3.37-3.39-8.24.87-1.87.62-14.98 1.42-16.78 2.55-16.59-2.77-76.79-.16-98.59h25.46c-.32 4.03 1.88 4.63.27 9.54-.87 3.3-.87 4.24-.27 8.53.55 3.83.6 5.53.05 8.01-1.01 5.28.61 10.7-.87 16.54-.93 4.77-.93 5.18-.05 8.65 1.24 13.71 1.56 30.66 2.3 46.09 1.19 4.88-2.4 9-.71 12.36.49.82.93 2.59.93 3.88 0 7.01-2.75 7.35-1.97 14.42.27 3.77.16 5.59-.49 7.65-1.65 6.05-.39 13.37 1.97 18.78 1.26 1.71 6.39 4.59 6.83 3.77.16-.24.33-2.83.38-5.65-.17-5.94 1.48-5.98 2.02-10.12 0-.94.22-1.77.55-1.77.93 0 2.24-3.59 2.35-6.36-1.95-10.13-.06-19.03-.49-31.02-.8-21.14-.27-77.06 1.37-85.64 1.56-3.41-.65-8.62-2.73-10.89-.79-1.23-.4-2.78-1.86-4.3-.76-1-1.37-1.94-1.37-2.12 1.72-.38 34.54-.4 42.07-.35v47.68c-2.12.43-4.66-1.54-6.5-2.94-.79 1.25-3.57 4.24-2.95 5.3.55 1.29 1.09 13.77.6 14.01-.65 1.63-.31 10.57-1.2 12.48-.53 2.89-2.37 8.71-.22 10.95 6.86 7.29-4.7 18.62.38 26.61 1.15 2.47 1.2 2.65.33 5.71-.93 3.65-.71 5.42 1.2 8.42 1.46 3.28 2.15 5.88 2.9 9.24-.82 2.77 3.65 1.28 5.46 1.35v18.78c-2.02 1.53-5.99 1.21-7.65-.71-.49-.82-3.24-1.6-2.29.18 2.44 5.23-1.13 12.7.66 18.95.44 3.06.44 4.12-.22 5.59-1.48 3.41-1.04 23.9.6 26.61 1.04 1.65 2.02 1.71 4.81.18 4.15-2.3 4.1-2.41 4.1 8.48v9.65c-9.08 1.38-3.75 6.89-9.51 13.01-5.97 6.8 2.74 12.02 9.51 12.01v6.3h-18.03c-15.3 0-18.03-.12-18.03-.82.1-1.85 3.62-8.4 2.29-10.24l-2.68-10.77c-.22-1.35-.66-1.65-2.79-2-6.88-1.18-7.48-.82-9.4 5.24-2.27 4.7.19 13.13-1.09 18.6H161.81c1.15-10.15 2.54-19.05 2.79-35.08 0-.71-.49-1.82-1.15-2.53-1.85-1.39-1.08-8.46-.49-10.54 1.35-3.16-2.31-5.82-1.75-9.48 0-3.59-1.04-4.53-3.72-3.47-2.57 1.73-5.82-4.91-7.92-1.41-1.2 1.41-1.15 1.77.22 5.06 2.03 3.96-.78 7.18.82 11.3 1.91 7.74-1.95 11.86-2.62 19.48 1.17 3.63 8.32 19.02 3.44 19.78-2.57-.4-.97 4.9-.98 6.89H42.11V202.68zm38.24 120.37c3.24-4.48-.23-10.43 5.03-14.54 1.63-2.22-.65-4.62-.11-8.48 0-3.71-.22-4.77-1.48-6.89-2.14-2.46-.54-7.5-2.9-9.24-1.67-1.53-2.15-.71-3.55-2.35-.93-1.12-.98-1.12-2.51 1.53-3.82 6.48.99 8.82-1.48 17.42-2.08 10.89-2.08 11.83-.22 14.07 3.91 3.84 3.21 16.79 7.22 8.48zm236.13-38.84l4.15.18c.37-2.29.4-4.09 0-7.36-1.62-6.84 2.42-8.84 1.31-14.77-1.26-4.1.43-19.37-3.28-21.48-2.43 2.92-5.73 2.45-9.67 2.24l.11 5c.44 15.36.38 22.43-.16 22.84-.76.53-1.8 9.18-1.48 12.18.48 2.07 1.33 6.17 3.44 2.77 1.32-1.78 1.48-1.78 5.58-1.6zm-203.95-11.48c1.8-3.18 2.24-3.41 4.64-2.06 3.45 1.31 4.07 1.25 6.34 4.71 3.97-3.48 1.34-10.6-.87-13.89-3.96-5.12 4.97-11.16 1.97-17.36-1.87-5.57 1.18-13.57-.44-20.13-1.57-13.22 3.75-20.84.22-35.14-.87-3.71-1.2-11.48-.44-11.48.87 0 1.58-6.18 1.09-10.01-.47-5.15-.9-22.5-2.08-27.14.52-9.27-5.06-3.42-10.27-5.24-1.86-.88-1.91-.82-1.58 1.59.44 2.59-1.04 6.59-2.35 6.65-3.46-.87-2.39 13.05-.05 12.54 1.97 1.06 2.9 4.65 2.46 9.54-1.5 2.11-1.98 54.85-.55 55.51.93 4.65.93 5.18.05 9.3-1.7 5.63.87 8.09-.22 12.89-.45 6.2-2.64 15-.71 21.01 3.23 3.27 2.42-8.48 4.81-7.77 2.46 0 3.01.59 2.62 2.88.55 3.06-8.71 14.2-6.94 16.13.55.59.5.65 2.3-2.53zm119.48-15.78c.5-5.12-2.99-7.72-.65-13.13 1.15-3.12 1.53-9.65.82-13.24-.66-3.12-.66-3.18.82-4.65 3.92-2.11-3.68-11.68-2.19-16.31-.12-5.62 2-15.03.66-20.01-1.56-3.15-.28 5.44-2.3 6.83-1.15 1.77-1.37 2.65-1.09 4.36 1.29 7.97.68 12.84-.76 19.42.94 2.01 3.41 6.11 2.24 7.53.14 6.78.71 18.34-.87 25.55-1.09 4.47-1.04 5.42.33 7.3 2.1 3.3 2.49-1.45 2.99-3.65zM75.61 229.82c.22-.29-.38-1.35-1.31-2.3-2.41-2.02-1.67-6.84-1.04-9.48.76-3.11 4-1.69 6.12-.35 2.98 1.49 2.39 6.77.76 8.95-4.73 8.67 9.71.21 4.31-7.71-2.45-6.28-12.88-8.89-13.77-1.24-2.31 4.6 1.76 14.91 4.93 12.13zm.55-22.49c1.66-1.2 9.38 2.91 7.27-1.53-1.32-2.45-.47-11.13-3.06-12.66-1.64-1.77-1.75-2.18-1.47-4.71.35-3.01-.52-5.84-3.55-4.83-1.75.53-1.86.71-2.02 3.65.42 4.09-4.49 4.62-1.2 7.77 1.48.82 1.48 3.35 0 3.83-1.26.41-2.73 3.18-2.73 5 0 1.71 3.17 4.89 4.32 4.36l2.44-.88zm156.36-45.85c1.8-1.88 1.64-3.53-.6-5.89-1.53-1.59-2.08-1.88-2.4-1.24-.66 1.06-.05 10.07.71 11.54.91 2.4.67-3.91 2.29-4.41z" fill="#8e908e"/><g fill="#94a396"><path d="M153.52 329.18c0-3.26-1.39-4.26-1.15-7.71.43-2.94-1.17-4.24-1.58-6.3-.63-3.63-4.47-9.99-2.73-14.3.8-6.21 3.72-9.19 1.91-15.01-.71-2.65-.76-4-.33-6 .44-2.24.33-3.12-.76-5.89-2.6-4.72 1.72-9.36 5.46-5.24 1.91 1.88 1.91 1.88 3.28.82 2.19-1.33 4.49.49 4.1 3.88 1.07 8.05 3.02 5.01 1.26 15.01-.22 3.18-.11 3.77.98 4.94 3.24 6.02-.22 9.49.38 19.13.01 9.94-.7 8.62-1.53 14.07.92 7.02-4.57 4.58-9.29 5v-2.4zm154.29 1.11c.53-6.8.99-2.05 11.31-5.77 1.09 0 3-2.18 3.77-4.41.6-1.71.66-1.71 1.42-.65 2.01 1.64-.87 8.75-2.24 12.13h-14.59l.33-1.3zm-231.21-5c-1.58-9.44-6.21-9.15-5.3-16.01.55-6.06 3.29-14.28 1.37-20.07-1.08-2.53 2.69-12.05 5.19-8.24 1.41 1.66 1.77.84 3.55 2.35 2.83 1.81.52 6.57 2.9 9.24 2.16 2.36 1.08 10.68 2.24 13.42 1.71 3.69-5.2 4.93-3.93 11.18 1.24 1.72-4.98 14.87-6.02 8.13zm269.61-4.12c-2.83-6 5.79-11.45 4.75-15.89-.62-2.99 3.69-5.41 6.88-5.59-.27 2.36 1.07 13.19-2.19 9.54 0-1.35-1.15-.41-1.48 1.18-.27 1.65-1.37 2.88-4.75 5.47-1.82.28-1.53 7.08-3.21 5.29zm5.52 0c-3.81-2.1 3.35-8.74 5.41-9.59 1.07-.39.62 8.28.71 10.01-1.52-.04-5.19-.1-6.12-.42zm-43.05-8.53c.68-4.44 3.23-7.61 8.2-5.83 1.69 1.01 4.91-.31 4.92 2 0 1.3-.16 1.35-3.55 1.12-3.99-.29-6.61.59-7.1 2.3-.39 1.23-2.47 1.52-2.47.41zm-38.52-11.01c.89-3.4-2.2-5.07-.76-8.42.55-1.82.55-3.18 0-6.83-1.94-12.17-2.19-19.56 1.04-28.96-.04-4.22 2.11.98 3.93.12.93-.24 1.04-.06.76.94-.62 2.68 3.79 7.3 1.64 10.18-1.53 7.53-2.76 5.97-2.57 16.42-.48 8.01 1.86 7.67-1.26 12.6-2.13 2.19-1.48 4.81-2.57 6.24-.37 0-.43-.82-.21-2.29zm37.86-14.6c-2.4-3.19-.74-15.12.33-16.78 1.3-1.45.16-17.98-.44-18.78.49-1.01.53-7.02.49-9.06h3.72c5.62 1.12 4.84-5.33 8.41-.41.98 1.41 1.09 2.59 1.2 9.71-.61 10.7 2.92 8.63-.16 17.95-1.59 3.58.72 11.72-.44 15.48l-4.32-.24c-6.76-1.56-5.4 5.49-8.79 2.13zm40.38-4.47c-1.64-2.71-2.13-24.37-.66-27.67 1.76-2.35-1.54-8.75-.27-12.42.69-1.4.48-8.68 1.15-9.77 3.06 1.8-.27 8.37 2.79 12.13 3.43 7.06 1.97 2.18 5.35.82 1.09 0 1.09.35 1.09 17.95 0 14.24-.16 17.95-.71 17.95-2.18.6-7.62 4.16-8.74 1.01zM113.8 269.9c.4-3.9 8.36-14.78 8.69-14.83.33 0 .38.41.16 1.06-2.73 3.51 3.74 6.96 1.75 8.36-.96.14-1.7-1.79-2.51-.47-5.06 6.12-5.37 8.07-8.09 5.88zm-5.13-6.41c-.82-2.3-.49-8.42.44-8.42.49 0 .71.82.71 2.53 0 5.24 1.26 6.89 1.86 2.47.43-3.52 2.49-3.92 1.69.47-.15 4.64-3.04 6.13-4.7 2.95zm119.75-2.3c-2.63-3.62.36-8.42.27-13.48l.55-9.36c.82-5.1-1.2-7.4-.38-10.77 1.02-1.14-1.42-5.18-2.24-6.89 1.46-6.62 2.04-13.72.87-19.72-.9-4.55 3.08-6 2.51-10.77.06-3.54.19-4.67 1.86-1.41 2.37 7.6-2.53 18.93.33 26.66 3.39 7.95 3.5 9.24.98 11.42-.98.82-1.04 1.18-.44 3.47.76 3.06.27 11.07-.87 14.07-2.45 4.72 1.81 8.04.77 12.83-.98 5.6-2.19 6.66-4.21 3.95z"/><path d="M274.26 254.19c-1.38-3.96 3.25-12.02-.27-15.01-1.42-1.65-3-1.53-3 .24 0 2.12-1.75 7.53-2.29 6.95-.55-.51-1.34-8.97-1.8-9.48-.71-1.24-.33-9.18.55-11.42.71-1.88.76-2.59.22-4.18-.49-1.47-.49-2.41 0-3.88 2.36-5.66-2.41-12.13-.77-14.48 2.13-.88 2.62-7.59 1.15-14.95-1.1-4.05-.65-10.21 2.08-11.89 5.59-3-1.75-6.88 0-12.36.26-6.25 5.32-10.5 4.81-16.66l-4.97-3.77c.77.99.24 23.24-3.33 16.66 0-1.59-3.33-6.71-4.42-6.71-1.26 0-1.37-1.35-.22-2.35 1.83-3.82 2.61-8.01 4.43-13.18 1.81-7.72 4.24-4.83 2.57-13.42-1.66-8.2 1.89-12.79 1.42-20.66.02-4.84 1.48-5.98.16-10.12-.03 1.65.11 4.81-1.2 5.47-.93.59-1.15.59-1.31 0-2.68-9.89-2.68-9.24-.76-17.36.71-3.12 1.69-4.18 1.97-2.18 1.4 7.15 4.03-11.21 8.69-1.24 4.3 5.29-1.15 9.42.87 13.24.44 0 1.42.82 2.24 1.82 1.48 1.77 1.53 2.06 1.42 7.77-.7 5.93 2.33 70.83.38 71.93-.87 2.14-.2 14.09-1.31 16.25-1.72 4.58.4 8.96 4.21 6.89 3.52-2.44-.34 2.69 0 4.06 0 .94-.44 1.35-1.75 1.65-10.64 1.51.12 8.09-1.04 22.37-.11 2.1.09 18.46-1.2 19.9-1.23 2.88-.07 4.88-.6 7.77-.57 3.6-2.53.61-6.17 5l-.76-2.67zm-121.12-2.65c.27-2.3.22-2.41-.93-2.12-2.05 1.63-1.3-7.9-.55-7.95.76-.88.71-1.18-.55-2.59-2.68-3.12-1.2-3.71 2.02-.82 5.41 4.38-2.7 5.13 1.53 5.18 2.73.06 4.81 2.83 3.39 4.41-.57.59-.42 4.63-.44 5.95l-4.81.35.34-2.41zm-38.74.35c-3.66-1.23-3.04-13.4 2.51-12.13 8.04-.83 5.92 16.8-2.51 12.13zm-4.26-12.6c-2.11-3.08 1.36-12.63.16-16.54-1.84-9.61-1.72-12.67-1.09-19.31-.11-5.3 1.71-2.2 3.22-.18.15-2.62.55-7.91.98-9.83.31-3.92-1.74-4.62-.98-9.83.22-4.24.33-4.47 1.53-4.47 2.1.11 5.62 5.8 4.81 7.95-.22 1.47 0 3.36.6 5 1.15 3.31 1.44 12.74 1.75 16.95.65 3.43-1.09 4.52-1.48 7 0 1.53 2.29 4.83 3.5 5 2.73-1.83 2.88 21.92-.44 17.19-1.58-2.3-9.4-2-11.36.41-.49.66-1.04.96-1.2.66zm43.38-2.88c-4.54-.28-2.85-10.81-.93-14.01-4.61 6.26-5.71-2.16-4.53-6.18 1.51-1.78-1.94-6.22-.33-7.59 3.78-2.16 1.74-20.05.55-24.49-.93-3.06-.93-3.41-.11-3.88 1.26-.77 1.75-4.36.76-5.95-1.14-2.29-1.33-7.73-2.08-10.36-1.43-2.21 2.53-9.69 2.13-12.07-1.37-4.84-2-9.27.27-14.66 2.83-7.88-4.95-7.89-.11-20.78.05-6.82-1.63-29.76.93-34.79 1.12-.97.19-4.8-.49-7.89h12.73c-1.11 9.24-.35 17.97-1.15 25.55.65 5.73-3.39 5.3-.11 11.07 1.69 3.59 1.69 3.83 1.15 7.53-1.71 16.35.79 44.21 1.2 60.22.83 3.85-.56 6.89.77 11.3.87 3.77.87 3.94-.22 5.95-1.75 3.52-1.19 5.92-3.55.77-1.44 3.31-4.85 16.69.66 16.54 1.26 0 1.48.24 1.53 1.65-.1.91 2.02 11 1.37 11.77-.27.12-.38 1.06-.22 2.18.67 3.35-1.32 7.65-1.48 2.77-.35-3.1-.44-11.64-3.11-10.07-.6.59-.6.82 0 1.65 2.81 4.73 3.64 16.74-5.63 13.77zm7.38-59.63c.64-6.59-.51-7.39-.82-2.71.24 3.15-2.01 6.43-.93 9.36.6 2.06.66 2.06.98.77.22-.77.55-4.12.77-7.42zm151.06 55.04c-5.27-2.89-4.49-5.24-5.79-9.77-2.47-7.24 1.33-12.82.44-20.78-.94-7.4 2.03-6.83 2.08-13.89 0-1-.38-2.47-.87-3.3-1.29-2.05-.68-9.48 3.77-8.24 3 .85 4.68-2.09 7.49-2h1.91c-.35 4.13 2.17 25.94-3.55 20.01-1.19 3.07-1.84 10-6.39 10.01-1.47 0-2.02.82-1.58 2.65.28 2.58 4.17-.36 5.57-.76 5.36-3.14 3.73 6.06.82 8.12-1.49.75-1.57 2.26.27.65 1.92-1.84 5.73-1.39 3.22.29-1.28.95-.61 4.04-1.75 5.36-2.68 2.79 1.91 17.43-5.64 11.65zm-238.42-3.18c-.93-1.12-1.2-3-.44-3 1.92 1.42 3.96 3.98 6.34.53 4.77-5.45-3.19-11.65-5.35-8.36-.27.65-.55.77-.93.35-1.83-2.27 3.07-4.25 1.64-4.24-.86-.23-5.95 4.15-4.26.71 12.99-11.65 19.32 20.38 3 14.01zm49.66-16.07c-.14-2.72-.51-19.61 1.37-23.43 1.53 0 2.35 12.13 1.09 16.13-.86 2.06-.01 6.02-.38 7.77-.44 1.3-1.75.94-2.08-.47zm228.64-.53c-.31-6.63-6.34-11.69-4.21-18.54.77-2.77.71-3.06-.44-5.53-2.85-4.65.4-15.01 2.46-20.19-.16-4.17-4.55-6.01-3.72-11.65-.68-9.48 7.42-1.52 11.91.35v56.8c-1.37-.03-3.62.02-4.75.35-1.14.35-1.25.18-1.25-1.59z"/><path d="M70.53 207.45c-3.04-2.37-1.44-8.06 1.04-9.18 1.42-.47 1.42-1.82 0-2.65-1.53-.88-1.53-4.41 0-5.3.82-.47 1.04-1.18.98-3.24-.16-3.12.38-3.83 3.28-4.24 1.91-.29 2.29-.12 3.11 1.18 1.49 1.38-.43 6.36 1.04 7.42 2.66 2.55-1.66 1.07-.22 2.71.77 1 .22 8.95-.71 10.18-.71.94-.05 1.65 2.02 2.24 1.37.35 1.48.29.98-.71-.35-.17-1.66-12.69-.44-12.01 1.79-.26.97 9.19 2.29 11.24 2 3.68-1.28 4.06-4.81 2.94-2.84-1-6.51 2.96-8.56-.58zm2.57-31.08c-1.86-.29-3.28-1.94-1.69-1.94.98 0 1.09-.29.82-2.94-1.09-3.72 3.88-6.97 5.03-9.95.47-3.13 5.88-.68 5.68-2.82-3.65-3.53-5.18 3.94-4.81-10.18.9-12-3.87-14.23-6.01-23.9.43-2.53 1.74-2.62 3.01-6.12 2.36-6.63 4.44-1.8 6.56 1.41l.98-13.42c.65-4.75 1.34-1.93 3.39.82 4.81 5.04 1.76 10.5 0 15.89-.87 2.53-1.58 8.3-1.47 12.07.01 2.58.21 17.16.66 19.78.33 2.41.16 3.06-1.09 5-2.94 4.59-4.51-.77-6.5 6.71-1.76 4.37-1.06 4.79.49 3.65 0-.65 2.51-1.88 3.82-1.88 1.2 0 1.86 1.18 2.4 4 2.49 6.05-8.5 3.84-11.27 3.82zm156.69-9.71c-.82-1.47-1.53-11.07-.93-13.42.38-1.41.44-1.35 3.28 1.59 3.22 3.36 3.33 4.36.82 7.3-1.91.94-.56 8.6-3.17 4.53zM107.68 156c-1.89.93-3.24-14.31.44-13.36 1.35-1.2.75 11.86.87 14.13l-1.31-.77zm5.85-.23c-3.29-3.15-2.91-14.9 2.46-14.77 3.95.04 5.5 2.69 5.3 7.83 0 4.18-.11 4.65-1.58 6.24-1.92 1.99-4.87 2.35-6.18.7zm239.95-7.54c-.71-1.04-4.01-.9-5.46-.88.05-1.84-.19-9.64.44-10.01.49 0-.11-11.54-.71-13.42-.27-.94 0-1.82 1.09-3.41 2.35-4.94 5.23-.18 8.03.35.93 0 .98 1 .98 14.13v14.13c-1.25.04-3.66.06-4.37-.89zm-231.98-7.12c-3.6-2.42-14.04-.06-10.6-7.59.27-.18 1.09.06 1.8.59.4 1.39 9.11-.46 9.89.29.71.77 1.15 7.65.55 7.59-.27 0-.98-.41-1.64-.88zm184.72-15.24c-1.32-3.92-.41-9.7.6-12.66.82 0 3.06 2.18 3.99 3.89 2.68 3.76-.64 7.3-1.91 11.01-1.65 4.05-1.49 1.63-2.68-2.24zm12.84-17.66c-.33-3.7 2.52-3.7 2.19 0 .33 3.7-2.52 3.7-2.19 0zm1.26-8.36c-7.31-24.89-7.13 13.94-13.39-26.08 5.76.12 10.84-1.31 12.13 4.71.9 3.14 4.71 6.36 3.61 10.6-.63 1.95-.04 11.65-2.35 10.77zm-200.84-7.71c-.82-.88-1.48-2.18-1.48-2.83.59-1.33-5.28-3.68-5.9-3.77-.66.06-1.37 5.65-2.13 5.77-.76.24-.87-1.18-.93-12.07l-.05-5.47h15.46c.21 3.3 2.15 7.16.16 10.3-1.96 2.8-.56 13.52-5.13 8.07zm-44.63-2.06c-.96-1.2-5.7-1.69-5.79-3.65-.92-2.9 1.33-7.16 2.51-9.54 1.19-3.98 5.05-3.02 9.01-2.83.19 3.05.76 4.82-1.58 7.71-3.06 1.87-.66 11.77-4.15 8.31z"/></g><g fill="#94ac97"><path d="M308.13 326.06c-.13-1.44 9.91-1.23 10.82-1.83 1.88-.7 2.38.67.82.88-.55 0-1.97.41-3.17.88-2.95 1.13-8.47 1.18-8.47.07zm-193.78-73.35c-1.56-.7-2.13-3 .66-1.41 2.46 1.12 2.62 1.06 4.59-.71 3.37-2.38 1.65-10.92-2.68-10.24-1.64 0-2.35.35-3.22 1.65-2.12 3.48-1.79-3.6 3.66-2.82 7.8-.93 6.72 17.79-3.01 13.53zm236.89-6.29c-1.86-3.59-2.68-7.95-1.64-8.65.38-.29.6.35.6 1.94-.2 2.35 2.04 5.97 3.44 8.24 2.41-4.47 5.86-2.52 3.39-1.71-3.12 2-2.62 6.58-5.79.18zm-82.22-.89c.41-1.63 1.39-7.41 2.13-8.18 3.01-1.89 6.18 6.23 4.48 7.12-1.11-.33-1.07-5.26-2.62-5.24-.93-.41-1.26-.29-1.37.47-.39 2.76-2.91 9.99-2.62 5.83zm-158.66-6.59c.22-3.5 12.02-3.82 13-1.12.93 1.41-.05 1.65-1.8.41-5.63-3.08-11.71 3.19-11.2.71zm10-19.37c-3.03-4.11.75-6.28.16-10.54-.16-1.41-.38-5.06-.49-8.12.23-5.65-3.35-12.05-1.42-15.66 2.03-.1 4.16 5.27 4.86.47 2.49-2.73.02 13.64.27 17.66-.22 7.48-.11 8.83.66 9.65.76.82.82 1.29.27 3.53-.73 3.33-.55 7.69-4.31 3.01zm37.75-7.77c-2.05-4.47 1.28-16 2.51-20.01.85.93.35 5 1.42 6.06 1.45 2.47-.18 6.3.77 9.48 1.66 6.12-1.98 7.58-4.7 4.47zm-47.59-9.71c-1.4-.04-2.21-14.65.22-14.01 1.75-.82 2.4-.29 3.33 2.71 1.06 3.02-1.29 6.45-.98 9.89 0 3.65-.71 4-2.57 1.41zm48.79-14.42c-.36-3.35-1.99-5.6-.66-9.06 1-2.06.55-6.43 1.42-8.01 2.92-10.99 1.08 15.42-.38 19.42l-.38-2.35zm-35.84-11.65c.11-3.06-2.21-6.12-2.19-9.12 0-1.24-.38-2.77-.82-3.41-1.2-1.71-.98-3.41.6-5 1.68-1.5 4.86-9.86 3.99-2.3-.91 6.1 1.77 14.71.49 18.36-.81 4.17-2.07 5.12-2.07 1.47zm188.54.7c-.71-.29-1.75-.41-2.24-.24-2.36-.4-1.26-13-1.91-17.36-.34-16.96-3.56-26.55 3.72-38.85-2.67-7.17-5.41-2.59-4.64-13.6.66-4.67-1.49-23.31 1.47-26.14.6 2.15 2.72 10.29 3.61 12.3.72-.83 2.63-3.21 3.44-3.18 1.58 0 4.7 5.24 4.7 7.95 0 .82.27 1.47.55 1.47.68-.18.88 7.93-.27 7.06-.55 0-.82.65-.82 2.06.31 4.62 2.31-1.91 1.42 11.01-.48 19.64-1.25 35.92.38 55.62-3.02-1.24-5.8 1.15-7.92 2.47-.12.02-.78-.27-1.49-.57zm-43.49-2.12c-2.38-9.87 2.35-20.36.88-29.08-1.78-6.34 3.88-.52 6.06.94.51 7.6-3.89 10.57-4.75 17.19-1.35 4.24 2.7 6.71 2.19 10.12-.49 3.18-3.91 4.6-4.38.83zm-196.3-.76c-2.48-4.85 1.62-7.56 4.1-11.6 1.96-3.9 3.32-3.14 6.45-3.3-.96-.11-4.1-.3-4.1-1.24 1.07-1.76 7.66-.71 4.21 2.71-.33.18-1.37.24-2.29.06-2.75-1-4.21 5.21-6.23 6.53-1.8 1.88-2.29 4.77-1.04 6.12.98.93-.33 2.33-1.1.72zm-1.25-17.13c5.05-3.01-7.63-19.58.87-17.54l-1.2-.59c-2.21 1.44-.31-22.57-.11-23.6 1.03-5.26-1.22-21.98.05-27.49 1.47.39 4.02 1.18 4.97 2.06 1.83 2.07-.13-5.98 2.9-8.42 3.33-2.95.14-7.51 2.68-7.36.98 0 1.15.24.98 1.35-.16.77.38 3.06 1.2 5.18 5.47 18.45-1.52 20.03-.82 41.97-.1.5-4.67-7.2-4.86-6.71-.7.29-3.95 7.77-4.53 8.3-1.25.96 2.68 9.4 3.55 10.36 1.58 1.94 1.53 4.41-.11 5.18-1.31.65-1.31.71-1.2 8.77.23 10.56-.32 9.68-5.68 9.71l1.31-1.17zm281.25-2.47c-3.55-2.12-4.32-2.35-4.75-1.59-.76 1.29-.71-1.65.05-4.06-.06-2.63 5.46-2.08 6.5-.94.67.92 2.68.94 3.82.88-.06 1.45.27 8.48-.66 8.24-.37-.06-2.61-1.18-4.96-2.53zm-83.86-23.19c-2.28-15.85-.47-29.85 1.75-37.85.97-5.51-2.26-14.26-1.86-19.42h14.37l-.44 2.83c-.49 3.41-.49 3 0 11.48.49 7.48.11 8.36-2.02 5.36-.66-.88-1.42-1.35-1.97-1.12-1.6.42.37-6.98.6-7.83 1.5-1.41-3.25-11.24-4.81-8.01-2.51 4.59-3.94 5.07-3 12.83-.02 5.35 1.79 6.46.82 9.42-1.02 2.33-1.2 14.84-2.24 17.42-.82 2.71-.82 3.3 0 7.77 1.21 4.06.24 17-1.2 7.12z"/></g><path d="M150.08 331.18c-.16-.29-.44-1.77-.66-3.36-.38-3.12.05-3.88 2.29-3.88 1.58 0 2.35 1.65 2.35 4.94 0 2.71 0 2.71-1.86 2.71-1.03 0-2.01-.18-2.12-.41zm157.62-8.24c-.8-2.07-.24-10.41 1.75-10.18.44 0 1.15-.65 1.58-1.41-.15-1.71 10.92-2.93 10.87-1 1.48 2.06 2.35 7.3 1.64 9.95-.05 5.47-8.73 5.07-15.19 5.47l-.65-2.83zm45.23 2.41c-5.96-1.58-7.73-6.23-4.04-10.07 3.28-2.47 4.59-3.88 4.59-4.89-.02-.9 1.66-4.02 2.46-2.12.38.53.93.94 1.31.94.75-.1.74 2.94.16 2.94-2.96 2.08-10.93 9.39-1.58 8.83 2.02 0 2.02 0 2.02 2.35.71 3.67-3.25 2.07-4.92 2.02zm-243.28-49.5c-1.84-2.32 2.65-7.12 3.72-9.59 1.36-2.81 1.06-.65 2.13.12.38.24.22.82-.44 1.59-.55.65-.82 1.41-.66 1.77.43.83-3.63 8.52-4.75 6.11zm11.75-1.95c-2.81-3.54-7.81-.87-2.84-6.89 2.68-3.63 5.07-7.58 7.32.71 1.72 4.02-1.33 10.62-4.48 6.18zm-11.59-11.53c-.71-.97-.23-6-1.04-6.71-.93 0-1.15-1.94-.33-2.94.44-.53.82-2.06.82-3.41.3-5.28 1.96-.63 1.64 2-.08 3.41 1.09 2.62 1.09.18.12-4.16 2.18 1.28 4.37 1 3.05.62 5.79-2.77 5.46-6.06-.18-3.12-.83-6.96-4.53-6.65-2.51 0-4.21 1.24-4.21 3.12 0 .53-.38 1-.82 1-1.11.09-.49-1.33-1.69-.77-1.65.93.2-4.19.44-4.36 1.48-2 8.85-2.59 11.42-.94 2.19 1.41 3.66 6.06 1.86 6.06-1.77 1.27.13 7.83-3.28 9.54-.71.59-1.37 1.94-1.58 3-.66 3.77-3.44 6.36-2.95 2.77.22-1.47.05-1.82-.98-2.12-3.62-2.1-3.18 10.2-5.69 5.29zm44.2-4.3c-10.2-.41-.07-16.1-.22-6.89-.38 2.06-.38 2.12 1.31 2.12 2.02 0 2.68-1.18 1.8-3.18-1.27-2.03 2.08-3.4.11-5.12-.7-1.38-7.31-1.05-3.5-3.18.6-.18 1.09-.59 1.09-.88 0-.71-3.55-3.77-4.1-3.59-2.89-2.62-3.67-12.11 1.04-14.95 1.88-2.1 3.99-.94 2.35.35-.49.35-1.31 1.35-1.75 2.3-1.04 2.12-1.09 9.01-.11 9.89.77.74 4.73 1.25 6.28 1.41 1.53-3.16 2.82-4.62 1.8-8.65-.38-1.94-1.09-4-1.53-4.53-1.48-1.82.55-4.36 2.24-2.88 1.37 1.24 2.13 8.83 2.19 21.48.05 14.07-.27 15.89-2.68 16.07-2.48.08-3.49.8-6.32.23zm117.68-1.29c-2.65-2.67-3.44-8.98-1.86-12.83 1.66-3.08-.23-7.26 3.55-5.36 1.78.17 1.75 4.61 2.68 5.36.33.24.05 1.88-.66 4.18-.93 3-1.04 4.18-.6 5.42 1.48 4.28-.27 6.11-3.11 3.23zm79.66-11.19c-2.34-2.49-1.3-9.68-2.24-12.3-.27-.47-.55-.59-.55-.29-.05.77-1.58-2.12-1.64-3 .99-3.82 6.09 4.01 10.93.82-.09 2.37.38 15.74-.76 14.83-3.15 1.34-2.65 5.59-5.74-.06zM72.88 230.52c-6.46-6.36-4.02-19.39 6.06-17.25-1.1.57-4.7 2.29-5.14 2.71-.48 1.29-1.08 14.9 1.97 13.18 2.2.96-1.89 2.35-2.89 1.36zm5.79-.23c3.86-5.6 6.18-9.13 1.42-15.42-2.42-3.04 6.2.33 6.23 8.01.59 3.69-4.88 10.25-7.65 7.41zm235.47-14.37c-.6-.77-.38-1.24 1.26-2.83 2.2-1.56 4.26-9.13 0-6.71-2.18.99-7.5 4.23-6.61-1.06.16-1.41.49-1.77 1.91-2.12 6.94-.87 3.94-12.72 7.43-9.65 1.66 1.35 2 .58 2.02 3.71.4 4.02 3.18 16.87-1.04 16.78-1.19-.66-4.27 3.68-4.97 1.88zm-234.7-9.12c-3.72-1.74.41-3.7 0-7.59.61-4.33-.17-4.28-2.02-6.53 1.39-.28 5.71.63 4.7 1.71-.55.35-.05 9.3.66 11.71.93 2.18-2.4 1.01-3.34.7zm-9.18-32.31c-.72-2.83-1.91-5.76 1.58-8.53 2.73-2.88 2.95-4.47.66-4.47-1.58 0-2.57-1.06-2.57-2.77-.1-2.21 2.88-.92 4.1-2.3 1.92-1.69 1.56.54.71 1.12-.55.18-.49.53.22 1.29 2.78 3.06 3.45-4.2 4.26-1.41.16 1.02 3.39-.33 3.77.77.93 1.18-.33 2.06-2.4 1.71-1.69-.29-1.91-.12-3.72 2.83-1.78 3.45-6.65 6.97-4.21 10.24 1.85 1.47-1.26 2.95-2.4 1.52zm50.48-7.36c0-1.53-.33-3-.82-3.53-1.42-1.53-.6-5.06 1.2-5.06 1.79.07-2.15 2.17-.38 3.71 2 2.69.81 11.98 0 4.88z" fill="#acc0b0"/><path d="M114.89 267.02c-2.66-1.13 3.37-7.91 3.99-11.07 1.42-4.44 5.06-4.9 3.93-11.3-.22-2.65-.16-3.12.38-2.3 2.64 1.49 3.15 4.08 1.8 9.24-1.87 3.97-7.7 11.76-9.34 15.77-.05.01-.43-.17-.76-.34zm-3.93-9.3c-.3-7.88-2.56-9.83-.87-14.83 1.09-2.18 1.91-2.53 1.91-.77 0 .65.22 1.18.49 1.18.66 0 .33 9.77-.38 10.71-.45-.1-.95 4.79-1.15 3.71zm-1.31-68.99c-1.06-4.87.05-19.4.82-24.31.16-3.65-.06-4.89-1.15-7.12-1.84-2.57-1.19-13.38.22-16.13.2-4.27 11.3-2.42 13.5.41 1.42 1.65 1.53 2.12 1.53 7 1.25 10.54-6.58 10.28-4.15 14.42 1.1.46.61 5.64 1.37 6.12 2.42 2.58 2.05 4.49 2.24 10.77.22 9.54-.36 12.34-7.87 2.06-4.57-7.08-1.92 4.97-4.26 6-1.27 1.25-1.7 1.43-2.25.78zm9.51-34.26c2.25-1.65 2.27-9.71-.05-11.3-8.57-8.66-10.06 19.47.05 11.3zm-44.2 5.48c-1.2-.88-1.69-3.18-.66-3.18.71 0 .71-14.07.05-15.25-.19-1.28-3.59.48-3.22-.76.72-1.25 4.16-1.51 5.46-2 3.47-.7 1.5 4.48 2.19 10.65.44 9.25-.28 12.86-3.82 10.54z" fill="#b4d6b8"/></g><path d="M42 347.35h316v172H42z" fill="#ccfcfe"/><path d="M42 44.64h316v473.43H42z" fill="none" stroke-width="5" class="s t"/><path d="M25 354.52h0c0-13.25 10.75-24 24-24h302c13.25 0 24 10.75 24 24h0c0 13.25-10.75 24-24 24H49c-13.25 0-24-10.74-24-24z"/><path d="M31.18 355.52v-2a18.5 18.5 0 0 1 18.5-18.5h300.65a18.5 18.5 0 0 1 18.5 18.5v2a18.5 18.5 0 0 1-18.5 18.5H49.68a18.5 18.5 0 0 1-18.5-18.5z" class="v"/><path d="M35.81 354.52h0a16 16 0 0 1 16-16h296.38a16 16 0 0 1 16 16h0a16 16 0 0 1-16 16H51.81a16 16 0 0 1-16-16z" fill="#f3f2e9"/><path d="M25 57.71h0c0-13.25 10.75-24 24-24h302c13.25 0 24 10.75 24 24h0c0 13.25-10.75 24-24 24H49c-13.25 0-24-10.75-24-24z"/><path d="M31.18 58.71v-2a18.5 18.5 0 0 1 18.5-18.5h300.65a18.5 18.5 0 0 1 18.5 18.5v2a18.5 18.5 0 0 1-18.5 18.5H49.68c-10.22 0-18.5-8.29-18.5-18.5z" class="v"/><path d="M35.81 57.71h0a16 16 0 0 1 16-16h296.38a16 16 0 0 1 16 16h0a16 16 0 0 1-16 16H51.81c-8.84 0-16-7.17-16-16z" fill="#f3f2e9"/><text transform="matrix(1.0294 0 0 1 81.8568 70.5599)" font-size="35.163" class="r">Cubemoto Card</text><text transform="matrix(1.3 0 0 1 76.25 398.1504)"><tspan x="0" y="0" class="r u">The creator of abstract </tspan><tspan x="-10.11" y="20.47" class="r u">art on Bitcoin. One of the </tspan><tspan x="0.34" y="40.94" class="r u">most rare cubed Pepes</tspan></text><text><tspan font-size="16.413" x="150.592" y="481.065" class="r">Rareness Score</tspan><tspan x="203.652" y="500.765" font-size="16.413" class="r">96</tspan></text><path d="M121.56 466.21l2.36 7.64h7.64l-6.18 4.72 2.36 7.64-6.18-4.72-6.18 4.72 2.36-7.64-6.18-4.72h7.64zm154 0l2.36 7.64h7.64l-6.18 4.72 2.36 7.64-6.18-4.72-6.18 4.72 2.36-7.64-6.18-4.72h7.64z" fill="#ffe100" class="s t"/><text transform="matrix(1.0294 0 0 1 76.9901 359.5528)" font-size="21.559" class="r">= 24   Atk = 3  Spd = 1  Ele = art</text><g fill="#e30206"><path d="M57.95 362.01l.19-13.69s-4.64-4.85-8.3-1.55c-4.7 4.22 8.11 15.24 8.11 15.24z"/><path d="M57.84 361.78l-.5-13.47h1.36v12.68z"/><path d="M57.95 362.01l.11-13.69s4.64-4.85 8.3-1.55c4.71 4.22-8.41 15.24-8.41 15.24z"/></g><g class="t w"><path d="M135.35 267.04H251.4v63.48H135.35z" fill="#453b32" class="s"/><path d="M154.41 242.4l-19.06 48.99s59.39 33.83 70.58 20.53c14.02-16.65-51.52-69.52-51.52-69.52z" fill="#7d8c7e" stroke="#fff"/></g><path d="M157.36 288.6v-31.79l117.47-38.61-17.03 61.69z" fill="#3f660c"/><path d="M150.45 140.13l68.18-33.47 58.32 22.01-8.89 63.36 14.97 1.03 12.17 9.1-2.31 18.92-13.64 1.09-11.35 20.96-4.38-17.68s-15.65 14.9-21.61 19.1c-4.85 3.42-20.98 11.64-20.98 11.64s-7.9 12.79-12.59 14.73c-9.15 3.8-31.46 2.57-40.28-1.82-4.81-2.4-15.1-14.37-15.1-14.37l-9.02-19.46-3.36-60.21 9.87-34.93z" fill="#498200"/><path d="M145.12 197.74l6.03-39.63h-12.06z" fill="#170f05"/><path d="M139.09 158.11l-6.02 39.63h12.05z" fill="#4c4c4e"/><path d="M134.23 190.11l-2.67-37.28 8.04-14.15 9.79 19.43z" fill="#d1ccd2"/><path d="M149.39 162.06l-9.79-23.38 8.53-31.49 21.1 23.95z" fill="#433e42"/><path d="M148.13 107.19l21.1 24.42 53.92-14.37z" fill="#d4cfd5"/><path d="M148.13 107.19l37.51 5.03 16.42-20.67z" fill="#2d282c"/><path d="M245.38 128.98l-.76-28.73 60.42 34.23-42.92 13.76z" fill="#141412"/><path d="M262.12 148.24l31.53-10.11 20.91 27.71-42.57 28.35z" fill="#e3e2e8"/><path d="M185.64 112.22l16.42-20.67 49.34 5.76-6.02 31.67z" fill="#6b6863"/><path d="M250.26 103.34l11.86 44.9 40.15-30.03z" class="x"/><path d="M314.56 165.84l-42.57 28.35 22.64 12.62z" fill="#4c4044"/><path d="M263.52 225.44L254 177.93l8.12-29.69 10.96 46.56z" fill="#221912"/><path d="M270.48 224.18l7.66-20.79 9.17 8.16-8.41 3.16z" fill="#375411"/><path d="M169.23 146l-2.19-6.93 41.74 6-10.52 9.99z" class="x"/><g class="y"><path d="M154.69 152.75s-16.57-10.69-7.64-11.71c14.16-1.61 61.1 14.75 61.1 14.75l-.62 11.32-52.84-14.36z"/><path d="M156.89 185.12s-14.91 11.17-5.82 11.2c14.42.04 58.84-19.17 58.84-19.17l-2.38-10.04-50.64 18.01z"/></g><path d="M207.53 167.11l-52-14.14v33.22z" fill="#fff"/><ellipse transform="matrix(1 -.008864 .008864 1 -1.4923 1.3852)" cx="155.53" cy="169.05" rx="7.21" ry="14.28"/><ellipse transform="matrix(.9998 -.0207 .0207 .9998 -3.4798 3.1781)" cx="151.7" cy="169.59" rx="1.93" ry="7.87" fill="#fff"/><path d="M194.72 192.29l6.61-27.83 6.07 1.17-6.6 27.83z" fill="#617548"/><path d="M187.2 217.38l19.78-61.99 10.02 3.03s19.24 47.06 3.31 56.29c-4.44 2.56-33.11 2.67-33.11 2.67z" fill="#375411"/><path d="M206.84 155.81l-42.58 48.03 22.94 13.54z" fill="#617548"/><path d="M201.62 212.12s12.92 3.24 17.23.47c2.73-1.76 6.84-8.69 3.46-9.68-5.32-1.57-20.69 9.21-20.69 9.21z"/><ellipse transform="matrix(.5224 -.8527 .8527 .5224 -90.6368 250.5765)" cx="178.36" cy="206.2" rx="3.42" ry="9.98"/><path d="M221.8 165.67c-3.9-12.08-9.38-31.19-1-36.12 8.45-4.97 21.19 7.64 34.17 19.37 3.92 3.54-22.15 1.13-22.15 1.13s-9.59 20.07-11.02 15.62z" class="x"/><path d="M223.96 179.38c-4.39-9.86-.81-47.3-.81-47.3s37.33 18.94 42.05 29.25c4.34 9.49-1.11 39.13-1.11 39.13s-36.1-12.02-40.13-21.08z" class="y"/><g fill="#fff" class="s"><path d="M226.45 177.8c-4.21-9.63-1.53-42.74-1.53-42.74s32.92 17.98 37.2 26.33c5.41 10.56.47 36.18.47 36.18s-31.54-9.25-36.14-19.77z" stroke-width=".1" class="t"/><ellipse cx="244.62" cy="169.49" rx="14.12" ry="12.7" stroke-width="5"/></g><g class="t w"><path d="M154.41 288.6l96.99 20.18 7.34-32.83z" fill="#7d8c7e" stroke="#fff"/><path d="M137.12 149.74h36.7v40.37h-36.7z" fill="#afdcfa" class="s z"/></g><ellipse cx="244.37" cy="169.93" rx="25.98" ry="23.36" fill="#afdcfa" class="s w z"/><path d="M173.82 162.21h45.6v2.03h-45.6z" class="z"/><path d="M151.15 234.62l9.7-7.13s5.17-4.1 7.57-4.12c2.79-.02 8.94 4.63 8.94 4.63l6.95 6.18 9.06-3.78 6.58-2.49s7.49-3.33 10.18-2.92c2.79.43 7.7 5.84 7.7 5.84l5.26 5.01 5.4 4.84s-10.77 6.2-14.68 7.57c-2.66.94-8.41 2.35-11.38 2.49-3.55.17-10.89-.14-14.16-1.12-1.81-.54-6.33-3.26-6.33-3.26s-8.05 2.45-10.93 2.49c-2.58.03-7.77-1-9.93-1.97-1.97-.88-5.57-3.13-6.71-4.55-1.39-1.75-3.22-7.71-3.22-7.71z" fill="#d40000"/><path d="M152.01 234.84l16.62 1.3 15.76 2.72 22.63.47 20.58 1.49-20.81-.97-22.48-.37-15.73-2.79z"/><path d="M219.43 252.34l12.21-10.38-1.13-26.92 2.21 27.36zm-70.46-17.58l6.5-26.13-5.53 26.41.64 6.83zm43.65-100.13l20.1 2.88-20-1.5-6.24 2.23zm11.89-5.26l-23.96 3.4 23.86-1.69 7.48 2.81z" class="y"/><text transform="matrix(1.3 0 0 1 133.6451 459.562)" class="r u">in existence.</text></svg>