<svg xmlns="http://www.w3.org/2000/svg" width="24" height="24" xmlns:v="https://vecta.io/nano"><path d="M0 0h24v24H0z"/><path d="M1 1h22v22H1z" fill="#22aed0"/><text transform="translate(21.497 22.879)" font-family="AcademyEngravedLetPlain" font-size=".239">HNFT PEPE</text><ellipse cx="12.02" cy="8.21" rx="6.45" ry="6.18"/><path d="M9.97 20.51h4.08V23H9.97z" fill="#0c5e30"/><path d="M7.11 13.03h9.84v5H7.11z" fill="#065e2e"/><path d="M10.09 17.5h3.85V23h-3.85z" fill="#0c5e30"/><path d="M8.04 8.83h7.95v4.23H8.04z" fill="#005e2b"/><g fill="#ab9625"><path d="M12.8 22.37h-1.6 0v.13h0 1.6 0v-.13h0zm.08-.39h-1.75v.33h1.75v-.33z"/><path d="M12.21 21.03h-.43V22h.43v-.97z"/><path d="M12 20.65l-.46.29.18.47h.57l.18-.47c-.01 0-.47-.29-.47-.29zM12 22l.2.16.21-.17-.2-.16L12 22zm-.21-.17l-.2.16.21.17.2-.16-.21-.17h0z"/></g><path d="M15.32 11.66l-.67-.83-1.66 1.1 1.68-1.49zm.07.86l-.74-1.54-1.92 1.55zm-6.7-.97l.65-.81 1.7 1.16-1.73-1.55zm-.05.85l.7-1.51 1.97 1.61z"/><linearGradient id="A" gradientUnits="userSpaceOnUse" x1="14.166" y1="21.756" x2="18.579" y2="21.756"><stop offset="0" stop-color="#4ab840"/><stop offset="1" stop-color="#f33015"/></linearGradient><path d="M18.58 20.51V23h-5.7l1.06-2.49z" fill="url(#A)"/><linearGradient id="B" gradientUnits="userSpaceOnUse" x1="6.989" y1="21.756" x2="9.629" y2="21.756"><stop offset="0" stop-color="#f3f82e"/><stop offset="1" stop-color="#4bbb39"/></linearGradient><path d="M5.44 20.51V23h5.68l-1.04-2.49z" fill="url(#B)"/><g stroke-width=".12" stroke="#aa9728" fill="none"><ellipse transform="matrix(.9562 -.2927 .2927 .9562 -5.5667 4.6398)" cx="12.72" cy="20.92" rx=".28" ry=".15"/><ellipse transform="matrix(.9562 -.2927 .2927 .9562 -5.5001 4.7792)" cx="13.22" cy="20.77" rx=".28" ry=".15"/><ellipse transform="matrix(.9562 -.2927 .2927 .9562 -5.4335 4.9186)" cx="13.72" cy="20.61" rx=".28" ry=".15"/><ellipse transform="matrix(.2927 -.9562 .9562 .2927 -11.9923 25.5763)" cx="11.29" cy="20.89" rx=".15" ry=".28"/><ellipse transform="matrix(.2927 -.9562 .9562 .2927 -12.1992 24.9909)" cx="10.79" cy="20.74" rx=".15" ry=".28"/><ellipse transform="matrix(.2927 -.9562 .9562 .2927 -12.4061 24.4056)" cx="10.29" cy="20.59" rx=".15" ry=".28"/></g><path d="M8.51 14.23h6.99v2.55H8.51z" fill="#c51d0b"/><path d="M9.17 14.75h5.63v1.5H9.17z"/><path d="M10.28 14.75h1v.86h-1zm2.42 0h1v.86h-1z" fill="#ab9625"/><path d="M11.49 17.02h1.05v.81h-1.05z"/></svg>