<svg xmlns="http://www.w3.org/2000/svg" data-name="Layer 2" viewBox="0 0 2400 2400"><path d="M0 0h2400v2400H0" fill="#51ff00"/><path d="M89 89h2226v2226H89" fill="#201f23"/><path d="M797 289 669 602 513 707V870l41 74-41 63 80 193-103 369 262 415 351 147 677 22 236-102-89-865-109-127 70-186-169-127-242-339-367-105-313-13" fill="#51ff00"/><path d="m672 763-159-41V870l147 68h151l128-51 81 40 170-7 163-100 47-89-140-50-333 100-22 47-120 6Z" fill="#fff"/><path d="m696 1062 21 150 54 139-14 181 148 193 241 138 201 178 238-35 209 80 37 18 183-70 2 17-236 102-677-22-351-147-262-415L593 1200l-56-130 159-8" fill="#05b700"/><path d="M479 980h49l54 31 285-10 205 45 181-49-28 118-311 5-256-31-149 31 9-57-53-26 14-57" fill="#f50"/><path d="m513 870 60-15 60-93-25-16-100-24Zm889-139-73-26-72 44-27 86 21 49 102-62 49-91" fill="#1c1a1e"/><path d="m1307 800 38-23-10-52-60 49Zm-734-4h1l29-24-41-23-15 38" fill="#fff"/><path d="m981 1071 92 6 51 6 18 46v52l18 23-11 44 11 75 30 56-44 43-25-16 5-49-7-48 12-49-12-51 2-61-26-34-27-10-48-2-20-18-52-22 33 9" fill="#52fff2"/><path d="m1296 502 133-80 204 259 94 138 120 58-139 173-161-209-78-237-173-102" fill="#a3ff1f"/><path d="m1571 1247 324 80 32 271-264-80-92-271zm-341 628 125 142 273-45 210 94 141-36-41-375-219 20-174 138-315 62" fill="#16e00b"/><path d="m1105 513-100 100-95 215 29 59L900 828l20-117-264-66-143 80v-18L669 600 800 289l310 11 275 79Z" fill="#05b700"/></svg>
