<svg xmlns="http://www.w3.org/2000/svg" viewBox="0 0 90 90"><style>.A,.B{animation:show 4s infinite}.B{animation-delay:3s}
	@keyframes show{20%{opacity:.8}}</style><defs><path opacity=".15" id="A" fill="none" stroke="#fff" stroke-width="6.824" d="M44.9 19.2L30.1 68.7m24.6-47.4L51.2 33m-7.5 25.4L40 70.8m-6.8-43.4S66.9 30.2 63 40.5c-1.5 5.2-23 2.3-23 2.3M24.6 56.5s34.1 9.3 37.5-.8c2.1-6.9-22-12.9-22-12.9"/></defs><path d="M0 0h90v90H0z"/><circle cx="45" cy="45" r="40" fill="#f7931a"><animate attributeType="XML" attributeName="fill" from="#c71" to="#f7931a" dur="0.01s" repeatCount="indefinite"/></circle><g fill="#fff"><path class="A" d="M55.6 62.2c1.4.5.8 5-.8 4.2-1.1-.5-.2-2.7-.5-3.3-.3-.8.4-.3-.5-.6-.4-.1-2.4.4-2.8.6-1.8.6-1.2.9-1.6 2.7-.3 1.2-.6 2.1-2 2-1.5-.1-1.6-1.4-2-2.6-.3-.9 0-1-.7-1.4-.6-.3-1.5-.1-1.8.4-.5.6-.5 3-.7 3.7-.4 1.3-.6 1.7-1.9 2-2.7.5-2.8-2-4.6-2.5-1.7-.4-1.9.4-1.9-1.9 0-1.2.4-2.9-.5-3.6-1-.8-3.2-1-4.4-1.6s-2.3-1.4-2.8-2.7a7.83 7.83 0 0 1-.5-3.4c0-1.4 1-1.8 1.4-2.9.3-.9-.8-1.8-1.3-2.7-.7-1.5-.9-3.1-.9-4.7-.2-6.5-.1-13.5 4.9-18.2 2.3-2.2 5.2-3.5 8-4.9 3.4-1.6 6.8-2.9 10.6-1.9 5.7 1.6 12.9 5.3 15.6 10.9 1.6 3.2 1.6 7.3 1.7 10.8.1 1.9.1 3.9-.3 5.8-.2.8-.4 1.6-.7 2.3-.2.4-1.3 1.7-1.3 2-.1.9 1.3 1.7 1.5 3 .2 1.2-.1 3.2-.6 4.3-1.6 2.7-5.9 3.6-8.6 4.2z" opacity="5%"/></g><path fill="#f7931a" d="M57 56.7c-4.6-.6-8.4-1.4-10.4-5.9-.6-1.3-1.5-3.1-.7-4.4.8-1.2 4.1-2.8 5.5-2.8 2 .1 4.4 1.5 6.2 2.3 1.5.7 3.2 1.5 3.6 3.3.3 1.2-.1 4.6-.6 5.7-.6 1.5-2.2 1.9-3.6 1.8zM37.5 44.8c1.8 0 3.6-.5 4.2 1.4.5 1.5-.3 5.3-1.1 6.7-1 1.8-3.3 2.8-5.1 3.7-.4.2-2.2 1.2-2.7 1.1-.8-.2-.6-1-1.1-1.9-.8-1.5-3.6-3.5-3.8-5.1-.2-1.5 2.2-2.8 3.2-3.6 2.5-1.9 3.5-2 6.4-2.3zm7.4 14.1c-.5 1.3-.7 2.6-2.2 2.6-1.1 0-1.8-.7-2-1.7-.4-1.6 2.8-9 4.3-7.2 1.4-1.5 2.3 1.4 2.8 2.4.6 1.3 2 3.8 1.3 5.3-.4.8-1.8 1.4-2.7 1-1.1-.5-.7-1.9-1.5-2.4z"><animate attributeType="XML" attributeName="fill" from="#c71" to="#f7931a" dur="0.01s" repeatCount="indefinite"/></path><use href="#A"/></svg>