<svg xmlns="http://www.w3.org/2000/svg" width="400" height="560"><style>.g{stroke-width:2.015}.h{stroke:#000}.i{stroke-miterlimit:10}.j{font-family:ArialMT}.k{fill:#7f7f7f}.l{fill:#01540e}.m{fill:#111470}.n{font-size:22.507px}.o{font-family:Arial-BoldMT}</style><path fill="#fff" d="M0 0h400v560H0z"/><path d="M0 538V22C0 10 10 0 22 0h356c12 0 22 10 22 22v516c0 12-10 22-22 22H22c-12 0-22-10-22-22"/><path d="M20 524V36q1-9 10-10h341q9 1 10 10v488q0 9-10 10H30a10 10 0 0 1-10-10" class="l"/><path fill="#ccfcfe" d="M42 347h317v172H42z"/><path fill="#8e908e" d="M42 203V74c5 0 34-1 32 1-2 3-6 9-4 12l1 23c1 11-3 29 0 35 1 3 3 11 1 12q-3 3 1 4c6 1-5 7-3 10q0 6 8 5l5-1v-5q-3-1-4 1-5 2-2-5 2-6 4-5c7 1 0-33 6-43 4-8-4-9-3-15q2-11-1-22l-2-7h29v17l1-3q-1-5 5-2l3 3 3 4 2-10c2-3-1-6 0-9h26q2 5 1 8c-2 2-2 24-1 29 1 7-4 13 0 20v5c-4 9 2 15-2 22l-1 5c1 2 1 9 3 11 1 1 0 6-1 7v3l1 11 1 9q-3 4-2 8c1 3-2 10 0 11v4q-1 6 3 11c3 4-1 4 0 7 0 5-5 13 3 12l7-1c0-3 2-26 1-35l-1-12 1-14c2-3-1-8 0-12l-2-44 1-22-1-6c-4-6 0-6 0-12l1-25h107c0 5-4 15-2 19 2 5 2 7 1 14-1 5 0 18 1 26-2 5-4 15-7 19l1 1 4 6 1 1 1 14c1 5-2 8 0 14 3 17-4 14-1 19q2 7 0 14c1 5-2 11 0 16l3 21-1 4c-2 4-1 14-1 18q2 11 1 14-1 2 1 5c5-3 1-21 4-24l1-7c2-2-3-7-1-10q1-5 4-5 2 0 2-5c0-6 2-6 1-15v-9c2-11-10-22 1-23 2 0 3-4 1-4q-6 0-3-8l1-17c3-16-2-76 0-98h26v26l-1 16v9l2 46c1 5-2 9-1 12l1 4-2 15v7q-3 10 2 19c1 2 6 5 7 4v-6c0-6 1-6 2-10l1-2 2-6-1-31c0-21 0-77 2-86q1-5-3-11l-2-4-1-2h42v47q-4 1-7-3l-3 6 1 14-1 12q-3 6 0 11c6 7-5 19 0 27v6q-1 4 2 8l2 9c0 3 4 1 6 2v18q-4 3-8 0-2-2-2 0c2 5-1 12 1 19l-1 5c-1 4-1 24 1 27q1 3 5 0c4-2 4-2 4 9v9c-9 2-4 7-10 13-6 7 3 12 10 12v7h-18l-18-1c0-2 3-9 2-11l-3-10q1-2-2-2-9-3-10 5l-1 19H162l3-36-2-2v-11l-2-9q0-6-4-4c-2 2-5-4-7-1q-3 1 0 5c2 4-1 7 1 11 2 8-2 12-3 20 1 4 8 19 3 20-2-1-1 5-1 7H42zm38 120c4-4 0-10 5-14v-9l-1-7-3-9-4-2q-1-3-2 1c-4 7 1 9-2 17-2 11-2 12 0 15 4 3 3 16 7 8m236-39h5v-7c-2-7 2-9 1-15-1-4 0-19-3-21q-4 3-10 2v5a122 122 0 0 1-2 35c1 2 2 6 4 3q0-2 5-2m-204-11q3-5 5-2 5 0 6 4 4-6 0-14c-4-5 5-11 2-17-2-5 1-13-1-20-1-13 4-21 0-35v-12l1-10-2-27c0-9-5-3-10-5q-3-2-2 2 0 4-2 6c-4-1-3 13 0 13q3 2 2 9a353 353 0 0 0 0 65c-2 6 1 8-1 13v21c3 3 2-8 5-8q3 0 2 3c1 3-9 14-7 16q1 2 2-2m120-16c0-5-3-8-1-13 1-3 2-10 1-13q-2-5 1-5c4-2-4-12-2-16q2-11 0-20c-1-4 0 5-2 6l-1 5q2 11-1 19 3 4 3 8l-1 25v8c2 3 2-2 3-4M76 230l-2-2q-2-5-1-10 2-4 6 0 4 3 1 9c-5 8 10 0 4-8-2-6-12-9-13-1-3 4 1 15 5 12m0-23c2-1 10 3 7-1-1-3 0-11-3-13l-1-5q0-5-4-4-2-1-2 3c1 4-4 5-1 8q3 2 0 4-2 1-3 5 2 4 5 4zm157-46q2-2-1-5l-2-2v12c1 2 1-4 3-5"/><g fill="#94a396"><path d="m154 329-2-8-1-6c-1-3-5-10-3-14q3-7 2-15v-6l-1-6c-3-5 2-9 5-5q2 3 4 1 4-2 4 3c1 8 3 5 1 15l1 5c3 6 0 10 0 20l-1 14c1 7-5 4-9 5zm154 1c0-7 1-2 11-5l4-5q1-3 1-1c2 2-1 9-2 13h-15zm-231-5c-2-9-7-9-6-16q3-10 2-20c-1-2 2-12 5-8q1 2 3 2c3 2 1 7 3 10 2 2 1 10 3 13 1 4-6 5-4 11 1 2-5 15-6 8m269-4c-3-6 6-11 5-16-1-3 4-5 7-5 0 2 1 13-2 9l-2 1q0 2-5 6c-1 0-1 7-3 5m6 0c-4-2 3-9 5-9 1-1 1 8 1 10zm-43-8q0-8 8-6 4 0 5 2l-4 1q-6 0-7 2zm-39-11c1-4-2-5-1-9v-7c-2-12-2-19 1-29 0-4 3 1 4 1h1c0 3 4 8 2 11-2 7-3 6-3 16 0 8 2 8-1 13l-3 6zm38-15c-2-3-1-15 0-17 2-1 1-18 0-19v-9h4c6 2 5-5 9 0l1 10c-1 10 3 8 0 18-2 3 0 11-1 15h-4c-7-2-6 5-9 2m40-4c-1-3-2-25 0-28 2-2-2-9-1-13l2-9c3 1-1 8 2 12 4 7 2 2 6 1l1 18-1 18c-2 0-7 4-9 1m-234-13c0-4 8-15 8-15l1 1c-3 4 3 7 1 8h-2c-5 6-5 8-8 6m-5-7v-8l1 3q0 8 2 2 1-5 1 1-1 7-4 2m119-2c-2-3 1-8 1-13v-20q0-4-2-7 2-11 0-20c0-5 4-6 3-11q0-5 2-1c2 7-3 19 0 26q6 11 1 12v3l-1 14c-3 5 2 8 1 13q-2 9-5 4m46-7c-1-4 4-12 0-15h-3l-2 7-2-9v-12l1-4v-4c2-5-3-12-1-14q3-3 1-15-2-7 2-12c6-3-2-7 0-12 0-7 5-11 5-17l-5-4c1 1 0 24-3 17 0-2-4-7-5-7v-2l4-13c2-8 5-5 3-14-2-8 2-12 1-20l1-10q1 3-2 5h-1c-3-10-3-9-1-17q2-5 2-3c2 8 4-11 9-1 4 5-1 10 1 13l2 2c2 2 2 2 2 8-1 6 2 71 0 72l-1 16q-2 9 4 7c3-2-1 3 0 4l-2 2c-11 1 0 8-1 22l-1 20-1 8c0 3-2 0-6 5zm-121-2-1-3c-2 2-1-7 0-8l-1-2q-3-5 2-1c6 4-3 5 2 5q4 1 3 5v6h-5zm-39 0c-3-1-3-14 3-12 8-1 6 17-3 12m-4-13c-2-3 1-12 0-16-2-10-1-13-1-20 0-5 2-2 3 0l1-10-1-9 2-5c2 0 6 6 5 8v5c2 3 2 13 2 17l-1 7q1 4 3 5c3-2 3 22 0 17-2-2-10-2-12 1zm44-3c-5 0-3-10-1-14-5 7-6-2-5-6 2-2-2-6 0-7 4-3 1-20 0-25v-4q2-2 1-6l-2-10c-2-2 2-10 2-12q-2-7 0-15c3-8-5-8 0-21 0-6-1-29 1-34v-8h12l-1 25c1 6-3 6 0 11 2 4 2 4 1 8-2 16 1 44 1 60l1 11v6q-1 7-4 1c-1 3-4 17 1 17l2 1c-1 1 2 11 1 12v2c0 4-2 8-2 3 0-3 0-12-3-10v2c3 4 4 16-5 13m7-59q0-10-1-3l-1 9 1 1zm151 55q-6-3-6-10c-2-7 1-13 1-21-1-7 2-7 2-14l-1-3c-1-2-1-9 4-8q4 0 7-2h2c0 4 2 26-4 20-1 3-1 10-6 10q-2 0-2 3c1 2 5-1 6-1 5-3 4 6 1 8q-3 2 0 1c2-2 6-2 3 0l-1 5c-3 3 2 18-6 12m-238-3-1-3c2 1 4 4 6 0 5-5-3-11-5-8h-1c-2-2 3-4 2-4s-6 4-4 1c13-12 19 20 3 14m49-16c0-3 0-20 2-24 1 0 2 12 1 16l-1 8zm229-1c0-7-7-12-4-19l-1-5c-3-5 1-15 3-20-1-4-5-6-4-12-1-9 7-1 12 0v57l-5 1z"/><path d="M71 207c-4-2-2-8 1-9v-2q-3-3 0-6l1-3q-1-4 3-4l3 1 1 7c3 3-2 2 0 3 1 1 0 9-1 10q-1 2 2 3 2 0 1-1s-2-13 0-12l2 11q2 5-5 3c-3-1-6 3-8-1m2-31q-3-1-2-2l1-3c-1-3 4-6 5-9 1-4 6-1 6-3-4-4-5 4-5-10 1-12-4-15-6-24l3-6c2-7 5-2 7 1l1-13c0-5 1-2 3 0 5 5 2 11 0 16q-2 6-1 12l-1 25c-3 5-4-1-6 7q-2 6 0 3l4-1q2 0 2 4c3 6-8 3-11 3m157-9c-1-2-2-11-1-14l3 2q4 3 1 7c-2 1-1 9-3 5m-122-11c-2 1-4-14 0-13 1-2 1 11 1 14zm6 0c-4-3-3-15 2-15q5 0 5 8l-1 6q-4 3-6 1m239-8-5-1v-23q-1-1 1-3c2-5 5-1 8 0l1 14v14zm-231-7c-4-2-15 0-11-7h2c0 2 9 0 10 0v8zm184-15q-1-7 1-13l4 4q1 6-2 11-2 5-3-2m13-18q2-5 2 0 0 6-2 0m1-8c-7-25-7 14-13-26 6 0 11-2 12 4 1 4 5 7 4 11-1 2 0 12-3 11m-201-8-1-3c1-1-5-3-6-3l-2 5q-1 3-1-12v-5h15q3 5 1 10c-2 3-1 14-6 8m-44-2c-1-1-6-2-6-4q-1-4 3-9 2-4 9-3 1 4-2 8c-3 2-1 12-4 8"/></g><path fill="#94ac97" d="m308 326 11-2q3 1 1 1l-3 1zm-194-73q-3-3 1-2h5c3-3 1-11-3-11q-2 0-3 2c-2 3-2-4 3-3 8-1 7 18-3 14m237-7q-3-6-1-8v2l4 8c2-5 6-3 3-2-3 2-3 7-6 0m-82 0 2-9c3-2 6 7 5 7s-1-5-3-5l-1 1c-1 2-3 10-3 6m-159-7c1-4 12-4 13-1h-1c-6-3-12 3-12 1m10-19c-3-5 1-7 1-11l-1-8c0-6-3-12-1-16 2 0 4 6 4 1 3-3 0 13 1 17v10l1 4c-1 3-1 7-5 3m38-8c-2-5 1-16 3-20l1 6 1 9q1 9-5 5m-47-10c-2 0-3-15 0-14q1-2 3 3l-1 10q0 5-2 1m48-14v-9l1-8c3-11 1 15 0 19zm-36-12-2-9-1-4q-2-2 1-5c2-1 5-9 4-2-1 6 2 15 1 19q-2 7-3 1m189 1-2-1c-3 0-1-13-2-17 0-17-4-26 4-39-3-7-6-2-5-13 1-5-2-24 1-26l4 12 3-3q4 2 5 8l1 1s1 8-1 7v2c0 5 2-2 1 11v56q-4-1-7 2zm-43-2c-3-10 2-21 0-29-1-7 4-1 6 0 1 8-3 11-4 18-2 4 2 6 2 10q-3 5-4 1m-197-1c-2-5 2-8 4-12q3-4 7-3l-4-1c1-2 7-1 4 2h-2c-3-1-5 6-7 7q-2 4-1 6t-1 1m-1-17c5-3-8-20 1-18h-1c-3 1-1-23 0-24 1-5-2-22 0-28l5 3c1 2-1-6 2-9 4-3 1-7 3-7l1 1 1 5c6 19-1 20-1 42l-4-6-5 8c-1 1 3 9 4 10v5c-2 1-2 1-2 9 1 11 0 10-5 10zm281-3q-4-3-5-1l1-4c-1-3 5-2 6-1l4 1-1 8zm-84-23q-2-25 2-38l-2-19h15l-1 3v11q1 11-2 5l-2-1 1-7c1-2-3-12-5-9-3 5-4 6-3 13l1 10-2 17v8c1 4 0 17-2 7"/><path fill="#acc0b0" d="m150 331-1-3q-1-4 3-4 2 0 2 5 1 4-2 3zm158-8c-1-2-1-10 1-10l2-2c0-1 11-3 11-1l2 10c-1 6-9 5-16 6zm45 2q-9-3-4-10 4-3 4-5 1-3 3-2l1 1v3c-3 2-11 10-1 9q3 0 2 2c1 4-3 2-5 2m-243-49c-2-2 2-7 3-10 2-3 1 0 3 0l-1 2-1 2c1 1-3 8-4 6m11-2c-2-4-7-1-2-7 2-4 5-8 7 1 2 4-1 10-5 6m-11-12-1-6-1-3 1-4c1-5 2 0 2 2q1 5 1 0c0-4 2 2 4 1q5 1 6-6 1-6-5-6-4 0-4 3l-1 1-1-1c-2 1 0-4 0-4 1-2 9-3 11-1 3 1 4 6 2 6-1 1 0 8-3 9l-2 3q-1 8-3 3v-2c-4-2-4 10-6 5m44-4c-10 0 0-16 0-7q-2 3 1 2 3 0 2-3c-1-2 2-3 0-5-1-1-7-1-3-3l1-1-4-4c-3-2-4-12 1-15q3-3 2 1l-2 2v10l6 1q3-3 2-8l-1-5q-2-4 2-3 2 3 2 22c0 14 0 16-3 16zm118-1q-5-6-2-13 0-6 3-5l3 5-1 4v6q2 7-3 3m79-11c-2-3-1-10-2-13l-2-3c1-4 6 4 11 1 0 2 0 16-1 15-3 1-3 5-6 0M73 231c-7-7-4-20 6-18l-5 3c-1 1-1 15 2 13 2 1-2 3-3 2m6-1q7-7 1-15c-2-3 6 0 6 8 1 4-5 10-7 7m235-14 1-3c3-1 5-9 0-7-2 1-7 5-6-1l2-2c7-1 4-13 7-9q3 0 2 3c1 4 3 17-1 17-1-1-4 4-5 2m-235-9c-3-2 1-4 0-8q1-5-2-6 5-1 5 1l1 12c1 2-3 1-4 1m-9-33c0-2-2-5 2-8q5-5 0-5l-2-2 4-3q3 0 1 2v1c3 3 3-4 4-2l4 1q1 2-2 2-2-1-4 3c-2 3-7 7-4 10 2 1-2 3-3 1m51-7-1-3q-2-4 1-5c2 0-2 2 0 3 2 3 1 12 0 5"/><path fill="#b4d6b8" d="M115 267c-3-1 3-8 4-11 1-4 5-5 4-11v-3q4 2 2 10c-2 4-8 11-9 15zm-4-9c0-8-3-10-1-15q2-4 2-1v12zm-1-69v-25q1-3-1-7c-2-2-1-13 1-16 0-4 11-2 13 1q2 1 2 7c1 10-7 10-5 14 2 0 1 6 2 6q3 3 2 11c0 9 0 12-8 2-4-7-2 5-4 6zm9-35c2-1 2-9 0-11-8-8-10 20 0 11m-44 6-1-3v-15l-3-1 6-2c3-1 1 4 2 10q0 15-4 11"/><path fill="none" stroke-width="5" d="M42 45h317v473H42z" class="h i"/><path d="M25 355c0-14 11-24 24-24h303a24 24 0 0 1 0 48H49c-13 0-24-11-24-24"/><path d="M31 356v-2q2-18 19-19h301q18 1 19 19v2q-1 17-19 18H50c-10 0-19-8-19-18" class="l"/><path fill="#f3f2e9" d="M36 355q1-15 16-16h297q15 1 16 16c0 8-7 16-16 16H52c-9 0-16-8-16-16"/><path d="M25 58c0-14 11-24 24-24h303a24 24 0 0 1 0 48H49c-13 0-24-11-24-24"/><path d="M31 59v-2q2-18 19-19h301q18 1 19 19v2q-1 17-19 18H50c-10 0-19-8-19-18" class="l"/><path fill="#f3f2e9" d="M36 58q1-15 16-16h297q15 1 16 16-1 15-16 16H52q-15-1-16-16"/><g class="h i"><path d="m281 331-5-39 83 26v13zm-208 0 17-7 26-7-9 14z" class="g m"/><path d="m142 325-9-15 6-14-1 14z" class="g"/><path fill="#fff" d="M148 331h-35l26-40s-3 18-1 25c1 4 10 15 10 15z" class="g"/><path d="M120 331H98l42-41s-11 14-13 21z" class="g m"/><path d="M149 151s-23-12-29-7c-4 4-4 18-6 24 0 4-3 12-5 16l-5 10-1 10 1 10 4 8 1 10c2 4 12 11 12 11z" class="g k"/><path fill="#488100" d="M137 324c-1-5 0-16 1-21v-10l-5-6-7-10-8-10-7-11c-1-5 2-16 2-21l2-23 2-10-2-12 2-11 6-10 11-16 8-9 58-12 51 10 3 35-8 33h36l4 15c0 3-5 14-5 14l-5 9-9 2-6 3-1 9-5 20s-26 28-36 35c-9 6-37 15-37 15l-41-1z" class="g"/><path stroke-width="2" d="m143 173-4-1h-10l-6 1-6 2q-3 2-4 5-2 2-1 4v2l2 2 1-1 1-1 1-2 3-2 4-1 3-1 4 1 3 1h8l2-1 2-2v-3z" class="k"/><g class="g"><path fill="#fff" d="M171 331s35-15 45-22c12-7 45-32 45-32l-18 54z"/><path d="m260 262 7-4 20 35c3 8 5 34 5 34l-8 4h-73s13-6 18-11c6-5 18-17 22-24 4-8 9-34 9-34z" class="m"/><g class="k"><path d="M124 152q-8 3-14 2l-7-2q-4 0-5-4l2-5 7-3h6l4-1 5-6 7-8 10-4 12-5 8-1 11-3 20-1 12-1 28 4 10 3 10 6 5 8 3 8c1 3 2 10 0 13q-3 4-8 4c-2-1-2-8-4-9-4-3-15-1-20 0l-19 2h-17l-19 1h-34z"/><path d="M261 249c-2 3-4 10-2 12 3 5 15 8 20 5 3-2 5-11 6-15l6-29v-13l-3-11-3-9-1-13-1-14-1-7-4-5-6-3q-8-2-14-1-6 2-11 7l-1 11-6 13c-1 5 2 14 1 19l-2 13v12q2 4 6 5l5-6 9 1 9-3c2-1 5-6 8-5l4 7-1 6v5l-9 12-3 1z"/></g></g></g><path d="m130 273 5 10 4 3 6 2h9l10 1h16l5-1 5-2 2-3-4 2-5 1-8 1h-8l-8-1h-7l-7-1-4-1h-2l-4-2zm115-32-2 5 1 4 1 2 2 2h3l5-1h3l2-2 1-3-2 2-2 1h-10l-1-2-1-2zm6-17 3 5v3l-1 2-2 2-2 1v1l3 1 2-2 1-1 1-2v-4l-2-4q-2-3-3-2m9-3 1 3 1 3v5l-1 2-1 2 2-1 2-3v-5h1l-1-2-1-2-2-3zm12-4v6l-1 5-3 5-2 3-3 3-1 2 4-2 3-3 2-3 1-4 2-4v-3zm-33 33c2-1 1 5 0 7l-3 8-4 7-5 8-8 7c-1-1 6-10 9-13l3-6 5-10q1-6 3-8m-62 48h7l7-2 5-1 6-2 5-4q0 3-3 4l-5 3-4 2-6 1h-6zm-39-11c-1 1 4 5 6 6l6 5 8 4 9 2c1-1-4-3-5-4l-13-5-5-4zm16-8v3l3 2-1-4zm5-18 7 2 4 2 6 2 3 3h-2l-4-1-3-2-3-2-4-2z"/><g fill="#f20c0c" class="h i"><path d="m132 249 3-3 4-3 3-2 5 1 4 3 4-3 4-2 4 1 3 3 4 3 3 3 3 2 3 2-3 2-4 2-4 2-5-1-7-1-3-2-3 1h-3l-5 1-4-1-4-3-2-2-2-2z" class="g"/><path stroke-width="2" d="m132 251 4-2 3-2 4-1 4 1 4 2 4-2 3-1 4 1 3 2 3 2 3 2 3 2h4l-5 2-3 1-4 1h-5l-6-2-3-1h-2l-3 1h-5l-4-1-3-2-2-1-2-2z"/></g><path d="M178 253h6l2 2 2 2 3 2 2 2v1l-3-1-2-2-2-2-2-2h-2l-3 1zm-49 13 4-4s4-4 6-4h7l-4 2-4 1-4 3zm3-18h-3l-2-1h-3l-1 2-1 1v2h3v-2h2l2 1 1 1zm16-65c2-1 3 4 3 6v4l-1 5-2 5-2 7-1 4-2 4-1 3v3l1 3 1 2 3 1 4 1 3-1 3-2 3-1 2-1h2l2 2 1 1 3-1 1-3v-4l-2-2v-1l-1-1 3 3 3 2 5 4 4 4 5 4 4 5 3 4 4 6-6-7-4-4-5-5-3-3-4-3-2-2-2-1v4l-1 2-2 1h-5l-1-1-1-1-1-1-1 1-1 1-2 1-1 1-2 1h-9l-1-1h-2l-2-1-1-1-1-2v-2l1-2v-4l1-3 1-4 1-4 1-3 2-3 1-3 1-3 1-4v-3z"/><path d="M164 220v-2l1-1h4l-1 1h-3l-1 1zm-23 9q3 0 2 1l-1 1h-3l-1-2-1-1-1-2v-2l1-2 1-1 1-2 2-1 2-1-1 2-2 2-1 1-1 2v3l2 1z"/><path d="m121 240 3-3 3-3 3-3 3-3 2-2 1-2 1 2-2 1-2 2-2 3-2 2-3 2zm52-41-2-2v-5l1-2 4-2-2 2-2 1v4l1 1zm-22-23 1 2v2h-1zm17-2-1 2-1 2v2l1 2 2 1h3-4l-2-1-1-2v-3l1-1zm9 26 6 3 4 2 6 1 6-1 5-1c1 0 6-3 7-2l-7 4-4 1-4 1h-6l-4-2-5-2z"/><path d="M210 203h4l3 2h3l4-1h-6l-2-1-2-1h8l2-1h-10l1-1h3l2-1h2l1-1 2-1h-2l-3 1-2 1h-4l-2 1h-2l-2-2-1-1v2l2 1v3z"/><g class="h i"><path fill="#2d4705" d="M178 195c0-2 12-7 15-7 3 1 13 8 12 10-2 3-9 4-13 3-3 0-14-4-14-6z"/><path fill="#fff" d="M179 196c-1-2 10-5 14-4 3 0 12 6 11 7s-9 3-12 2c-3 0-13-4-13-5z" class="g"/></g><circle cx="192" cy="196" r="4" transform="rotate(-1 193 197)"/><g class="h i"><path fill="#2d4705" d="M122 197c0-2 9-8 12-8s12 5 11 6c-1 3-7 5-10 5z"/><path fill="#fff" stroke-width="2" d="M123 197c-1-1 8-5 11-5s12 3 11 4-7 4-10 4z"/></g><circle cx="134" cy="196" r="3" transform="rotate(-51 134 196)"/><path d="m141 203-3 2h-3l-6 1-3-1-3-2-2 1h-2v-1h1l2-1v-2h-1l-1-2h4l1 1h-2l1 2 1 1 1 2h12z"/><path d="m177 171 6-2h6l6-1 7 1 8 2q4 1 6 5l3 10v4l-1 4-3-3-2-4-2-5-3-3-11-2-4 1-4 1-9 1-3-1-2-2v-4z" class="g h i k"/><text class="o" font-size="21" transform="matrix(.831 0 0 1 80 363)"> = 47  Atk = 3  Spd = 1  Ele = Fire</text><g fill="#e30206"><path d="M62 367v-18s-4-6-8-2c-5 5 8 20 8 20m0-1v-17h1v16z"/><path d="M62 367v-18s5-6 9-2c5 5-9 20-9 20"/></g><text class="o" font-size="29" transform="matrix(.898 0 0 1 96 66)">Trumpmoto Card</text><path fill="#ffe100" d="m128 476 2 7h8l-6 4 2 6-6-4-6 4 3-6-6-4h7zm145 0 2 7h7l-5 4 2 6-6-4-6 4 2-6-5-4h7z" class="h i"/><text transform="matrix(.898 0 0 1 148 491)"><tspan x="0" y="0" class="j" font-size="16">Rareness Score</tspan><tspan x="52" y="15" class="j" font-size="13">97</tspan></text><text transform="matrix(.898 0 0 1 87 407)"><tspan x="0" y="0" class="j n">The creator of the Bitcoin</tspan><tspan x="-24" y="27" class="j n">Trump pump. One of the most</tspan><tspan x="5" y="54" class="j n">rare Pepes in existence.</tspan></text><path d="m122 161 4-3 4-1-3 2zm-1 5 4-4 4-1-4 2zm15 10 2-3 2-1-2 2zm54-3 2-3 2-1-2 1zm15 0 2-2h2-2zm-7 1 2-4 3-1-3 2zm17 2v4l-2 2 1-3z"/><use href="#B"/><use x="52" y="-3" href="#B"/><path d="m124 178 1-4 2-1-2 2zm-8 2 1-4 2-1-1 2zm-7 26 2-9 4-4-4 5zm29-81 22 9c3 2 6 8 6 8l-7-8zm29 0 12 7 4 7c1 0-2-5-4-6zm2-12 19 8c3 2 6 8 6 8l-7-8zm45 16-8-12c-2-2-7-3-7-3l7 3zm24 8-10-19c-2-3-9-6-9-6l8 6zm-128 79 1-12 5-6-4 7zm158 48s8-5 10-8l5-13-6 13zm-4-2 7-5 4-8-5 8zm-6-76-3-29q-3-7-5-8c-2-1 3 7 4 11zm6-9-4-23-4-7c-1-1 3 5 3 9 2 4 5 21 5 21m14 0-2-19-4-6 3 8zm-4 12v-16l-3-8 2 10zm-5-29-1-11-3-3 2 5zm18 59v-10l-2-3 1 5zm-3-3v-6l-1-3 1 4zm-12-9-15 5h-9l10-1zm-7-1-10 3-7-1h7zm-1 51 5-3 2-6-3 5zm-153-32 1-9 4-5-3 6zm4-85h11l28 3-11-2z"/><defs><path id="B" d="m129 178 2-5 3-1-2 2z"/></defs></svg>