<svg xmlns="http://www.w3.org/2000/svg" viewBox="0 0 102400 102400"><path d="M71060 58257a10908 10908 0 10 21815 0 10908 10908 0 10-21816 0zm-66167 0a10908 10908 0 10 21816 0 10908 10908 0 10-21816 0" fill="#fae1dc"/><path d="M16852 80486a7059 7059 0 10 14118 0 7059 7059 0 10-14118 0" fill="#eb6a3c"/><path d="m18623 91898 2550 5348 4664-4071-6406-2984zm-5867-5239-5058-3083 4530-4223 2313 6678" fill="#a3b15c"/><path d="M8387 97727a3732 7878 41.85 10 10512-11735A3732 7878 41.85 10 8387 97727" fill="#eb6a3c"/><path d="M12330 88500a4272 4272 0 10 8544 0 4272 4272 0 10-8545 0" fill="#6d743e"/><path d="M69423 80115a7405 7405 0 10 14810 0 7405 7405 0 10-14810 0" fill="#eb6a3c"/><path d="m82373 92088-2674 5613-4893-4276 6720-3129zm6156-5496 5310-3235-4753-4430-2427 7006" fill="#a3b15c"/><path d="M93121 98217a8266 3916 48.15 10-11030-12313 8266 3916 48.15 10 11030 12313" fill="#eb6a3c"/><path d="M80016 88522a4480 4480 0 10 8960 0 4480 4480 0 10-8960 0" fill="#6d743e"/><path d="M13275 55128a36569 36569 0 10 73137 0 36569 36569 0 10-73137 0" fill="#fae1dc"/><path d="M61806 7175H37878c-15784 0-28695 14150-28695 31447v3813c0 1094 53 2173 150 3239h41961c4423-1157 11930-4294 14626-12506 1093 6477 2391 10428 8550 12506h15880a33867 33867 0 00 151-3239v-3813c4-17297-12912-31447-28695-31447" fill="#eb6a3c"/><path d="M50842 84077c-5327 0-6657-6033-6657-6033h13317s-1333 6033-6660 6033" fill="#e15b48"/></svg>
