<svg xmlns="http://www.w3.org/2000/svg" viewBox="0 0 2100 2100"><g data-name="Layer 3"><path d="M0 0h2100v2100H0" fill="#6bff1d"/><path d="M64 55h1969v1969H64" fill="#222322"/></g><g data-name="Layer 2"><path d="m641 1740 1027-76v-279l59 19v283l-1021 100-12-28Z" fill="#6bff1d"/><path d="M1500 1360v241l-1035 61 34 13 13 20 1038-69 11-253Z" fill="#6bff1d"/><path d="m1805 335-425 44 9 980 416 94ZM423 600a212 212 0 01-10-49 137 137 0 01 35-100 115 115 0 01 100-30 60 60 0 01 25 19 79 79 0 01 30-8 55 55 0 01 46 19 53 53 0 01 6 28 30 30 0 01 20 14v13a21 21 0 01 10 13 22 22 0 01-9 22 18 18 0 01-8 6 27 27 0 01-12 0 47 47 0 01 9 19 39 39 0 01-5 34 16 16 0 01 0 11 16 16 0 01-15 12 14 14 0 01 0 12 17 17 0 01-19 0 58 58 0 01-30 28 69 69 0 01-44 0H530L521 700l47 28 23 41 81 500h-44L634 1500 600 1728l88 36 11 24-151-8-18-218-30-116h-41l-30 200 75 30 12 18-147 6 19-284-40-428 24-236 67-52v-65A206 206 0 01 423 600Z" fill="#6bff1d"/><path d="M1659 614a168 168 0 00 31-122 141 141 0 00-51-90 100 100 0 00-100-24 79 79 0 00-29 23 73 73 0 00-30-8 54 54 0 00-45 19 39 39 0 00-6 28 28 28 0 00-20 14v13a18 18 0 00-10 13 18 18 0 00 9 21 8 8 0 00 0 6l8 6a27 27 0 00 13 0 36 36 0 00-10 19 52 52 0 00 0 22 18 18 0 00 0 11c0 6 6 11 14 12a16 16 0 00 0 12 16 16 0 00 19 0 62 62 0 00 30 28 66 66 0 00 43 0h22l8 19-100 55v667l269 61 5-728-87-62Z" fill="#212321"/></g></svg>
