<svg xmlns="http://www.w3.org/2000/svg" width="24" height="24" xmlns:v="https://vecta.io/nano"><path d="M0 0h24v24H0z"/><path d="M1 1h22v22H1z" fill="#7a53aa"/><text transform="matrix(1.0002 0 0 1 21.4922 22.8789)" font-family="AcademyEngravedLetPlain" font-size=".242">HNFT PEPE</text><path d="M6.16 14.36h11.75v4.23H6.16z" fill="#065e2e"/><path d="M7.65 8.21c1.37-1.69 7.16-1.54 8.7 0 1.09 1.09 0 6.15 0 6.15h-8.7c0 0-.97-4.96 0-6.15z" fill="#005e2b"/><path d="M4.25 19.95h15.5V23H4.25z" fill="#0c5e30"/><path d="M16.3 14.36l.29-1.36s1.96 1.35 2.09 1.96c.09.46.58 2.29.58 2.29l-.73-.74s.52 1.19.45 1.6c-.07.38-1.01 1.42-1.01 1.42l-.17-.73s-.19.79-.42 1.02c-.38.37-1.67.87-2.16 1.2-.33.23-.99.73-1.03 1.02-.03.16.3.61.3.61s-2.2-.1-2.82-.3c-.75-.24-2.34-1.42-2.34-1.42l.14.72-1.64-.79c-.31-.2-.85-.65-1.03-.9-.21-.29-.51-1.2-.51-1.2l-.31.73s-.68-1.03-.7-1.39c-.03-.39.54-1.56.54-1.56l-1.08.68.96-2.49c.12-.54 1.73-1.66 1.73-1.66l.21 1.28s-.66-.04-.88.16c-.45.5-.19 1.33.31 1.62.44.25 1.53.58 2.11.67.78.13 2.21.22 2.98.27.87.05 2.65-.14 3.36-.37.42-.14 1.29-.41 1.52-.66.31-.35.42-.99.23-1.41-.11-.21-.97-.27-.97-.27zm-4.67-6.38l-.2-.71c-.07-.18-.29-.5-.36-.68-.08-.21-.16-.64-.18-.86s.03-.66.08-.87.22-.62.28-.82c.08-.25.2-.78.34-1.01.12-.19.64-.65.64-.65s.13.63.11.85-.19.65-.17.87c.01.12.16.45.16.45l.13-.46.17-.44.23.61a8.94 8.94 0 0 1 .2.74 3.41 3.41 0 0 1 .05.55c0 .14-.06.75-.06.75l-.08.68a3.42 3.42 0 0 1-.18.6c-.05.1-.26.38-.26.38l-.9.02z"/><path d="M11.59 12.3l-3.15-1.4v2.8zm.85 0l3.15 1.4v-2.8z" fill="#fff"/><path d="M13.24 12.65l1.8.8v-1.6zm-2.45 0l-1.8-.8v1.6z"/><path d="M7.4 22.3h.75v.7H7.4zm8.45 0h.75v.7h-.75z" fill="#063a1c"/><path d="M8.53 10.17l3.37-.58 3.56.68-3.59-.9zm.74-.56l2.63-.59 2.84.66-2.86-.88z"/><path d="M9.27 9.61l2.63-.59 2.84.66-2.86-.88z"/><path d="M7.99 15.55c-.12-.08 0-.45 0-.45h7.7s.11.37 0 .45c-1.21.98-6.34.89-7.7 0z" fill="#fc2a12"/><path d="M16.86 15.44l-2-.77c-.69-.2-1.43-.28-2.16-.12m-5.56.89l2-.77c.69-.2 1.43-.28 2.16-.12"/></svg>