<svg xmlns="http://www.w3.org/2000/svg" xml:space="preserve" id="Layer_1" width="2000" height="900" x="0" y="0" version="1.1"><style>.st0{fill:#c5c4a5}.st1{fill:#484745}.st2{fill:#b5b8a5}.st10{fill:#8c8c81}.st11{fill:#325f4a}.st14{font-family:&quot;AmericanTypewriter&quot;}.st15{font-size:28.4954px}.st16{font-size:40.2181px}</style><path d="M0 0h2000v900H0z" class="st0"/><path d="M50 50h1900v800H50z" class="st1"/><path d="M85 643V257c0-59 48-107 107-107h1616c59 0 107 48 107 107v386c0 59-48 107-107 107H192c-59 0-107-48-107-107" class="st0"/><path d="M663 308a275 275 0 1 1-472 284 275 275 0 0 1 472-284m-178 29c-22-30-55-24-92-7l-26-44-27 16 26 43-21 13-26-43-26 16 26 44-17 10-37 22 17 29 20-12c10-6 18-2 22 3l30 50 3-2-3 2 42 70c2 3 3 10-5 15l-19 11 14 35 34-21 20-11 26 44 27-16-26-43 21-13 26 44 27-16-27-45c44-29 68-59 47-104-18-36-43-41-72-32q18-26-4-58m20 117c20 33-39 63-57 74l-35-59c18-11 71-50 92-15m-62-76c18 30-32 55-47 64l-32-53c15-9 60-42 79-11" class="st2"/><path d="M345 423q11 0 12 12l-2 2h-43l-4-2q-1-3 2-7 4-5 9-5l2-1 3-18q0-6-3-11-11-12-14-28c-2-14 4-28 16-33q11-3 20 1 8 3 12 10 8 15 1 31l-9 17-3 5q-4 12 0 25zm5-64c0-10-7-19-17-19s-17 9-17 19 7 19 17 19 17-9 17-19" class="st1"/><path d="M349 359q-1 16-16 17c-15 1-16-7-16-17s7-17 16-17 16 8 16 17m-11 1 1-2q1-4-3-5v-4h-1l-1 1v2h-1v-2l-1-2-1 3h-3l-2 1 1 1q2 0 1 2l-3 9q-1-1-1 1v1h2l1 1-1 2 1 1 1-1 1-2h1v3l1 1 1-3h1q4 1 6-3 1-4-2-4" class="st1"/><path d="M333 354v1q3 0 3 2v1l-4 1v-1h-1zm-2 6 1-1 1 1q3 1 3 3t-4 1h-1zm-54 109-2-1v-21q0-7 7-7h101q7 1 7 8v20l-1 2zm6 15q-6-2-4-9l1-1 106 1q1 6-2 9zm-21 9 39 1a24 24 0 0 1 15 30l-3 2q-6-2-6-7 1-11-8-15h-40c-11 4-11 20 0 24h5l31 1 7 8v1l-4 1-42-1q-14-6-15-23 1-16 16-22zm106 31q0 3-3 2-5-2-6-7 2-4-1-9l-6-6h-5l-31-1-7-8v-1l2-1h43q8 3 12 10 6 11 2 21" class="st1"/><path d="m407 538-3 1h-32l-10-1c-12-3-18-17-15-30q2-4 5-1 4 2 4 6-1 11 8 15h36c14 0 17-19 4-24h-4l-32-2-6-7v-1l8-1h33q8 1 12 6 6 6 7 14c1 11-5 22-15 25m-97 0q-9-2-14-11-4-11-1-20l2-1q5 1 6 4l1 3q-1 11 8 15h4l32 1 6 8v1l-5 1z" class="st1"/><circle cx="332" cy="450" r="135" style="fill:none;stroke:#484745;stroke-width:17.3333;stroke-miterlimit:10"/><circle cx="332" cy="450" r="150" style="fill:none;stroke:#484745;stroke-width:3.9319;stroke-miterlimit:10"/><path d="M1628 400c17 8 26 22 16 40q-1 3-6 2l-107-53c-2-1-8-4-7-7q4-10 12-15c8-5 20-2 28 2q4 2 7-1 15-17 24-35 7-14 4-26c-6-27-12-54-4-80 9-31 38-54 74-49q30 3 50 25c9 9 16 24 18 37 4 27-9 52-30 68q-19 13-41 24l-13 7c-15 12-22 35-26 54v6zm81-132c11-22 0-49-24-61s-52-3-63 19 0 50 24 61 52 3 63-19" class="st2"/><path d="M1705 267c-10 20-36 28-58 17s-32-36-21-56 36-29 58-18 31 36 21 57m-27-12 1-1 7-2q5-7-3-15v-2l3-3v-3l-1-1h-3l-3 4h-2q-3-1-1-3l3-3v-3c-3-3-6 1-7 3h-3l-4-4h-4v1q-2 2 0 3 4 3 1 6l-16 15q-3-3-6 0v3l6 4v3l-4 3 1 3h4l2-4h3l1 1v2l-3 3v4c3 2 6-3 7-4h3q9 9 17 1c5-5 2-6 1-11" class="st2"/><path d="M1670 236h3l1 1q6 5 4 9h-1q-4 3-9-2l-2-1v-2zm-9 11h2l3 2q6 6 4 10h-1q-4 4-11-2l-2-2-1-2zm-252 169q-3-2-2-6l21-43c5-9 16-12 25-8l251 124c10 5 14 16 10 24l-22 44q-1 3-6 1zm0 39c-11-6-4-16 0-24q1-2 4-1l259 126q5 3 2 6c-2 6-6 16-13 16q-3 1-7-2zm-60-6 96 49c21 19 26 48 13 71l-9 11q-4 5-9 2c-6-5-13-16-8-23 9-12 8-29-4-41l-10-6-76-38-14-5c-29-4-46 30-24 50q4 4 13 8l75 40 8 25-1 2-11-3-101-52a56 56 0 0 1-14-68c12-22 36-32 61-27q8 1 15 5m229 196q-4 5-9 0c-5-5-11-15-7-22q7-9 6-22-2-10-9-19l-12-7-76-40-8-24q-1-2 2-3l4 1 21 9 84 43q18 15 21 36 4 28-17 48" class="st2"/><path d="m1659 722-9-2-79-39q-13-5-23-14a55 55 0 0 1-5-81q8-8 14 2c4 4 8 14 4 19-10 12-8 30 4 41l10 6 79 39c32 16 61-22 35-47l-11-7-77-41-8-23q-1-2 1-3 11 1 21 8l83 40q16 10 23 28 9 20 2 40c-9 24-35 39-64 34m-240-117a61 61 0 0 1-22-43q-1-26 19-43h6q9 8 10 17 1 4-2 7c-9 13-8 30 4 41l11 6 77 41 8 24q0 3-3 3l-11-4z" class="st2"/><ellipse cx="911" cy="450" rx="330" ry="390" style="fill:#8c8c81;stroke:#000;stroke-width:1.2334;stroke-miterlimit:10"/><ellipse cx="911" cy="450" class="st1" rx="320" ry="380"/><ellipse cx="911" cy="450" rx="310" ry="370" style="fill:#8c8c81;stroke:#c5c4a5;stroke-width:5.8273;stroke-miterlimit:10"/><path d="M1390 666a75 75 0 1 1-146-36 75 75 0 0 1 146 36m-40-29c2-10-6-15-16-19l3-13-8-2-3 13-7-2 3-13-8-2-3 14-6-2-11-2-2 8 6 2q4 2 4 5l-4 15h1-1l-6 22q0 2-3 2l-6-2-4 10 10 2 6 2-3 13 8 2 3-13 7 2-3 13 8 2 3-14q22 7 29-11 5-15-7-20 8-1 10-12m-19 27c-2 10-19 4-25 3l5-18c5 1 23 4 20 15m3-27c-2 9-17 5-21 4l4-17c4 1 19 3 17 13" style="fill:#a0a182"/><g id="Layer_x0020_1_1_"><g id="_1421487920208"><path d="M1386 239c-7 27-38 43-69 37-31-7-50-34-42-61s39-43 69-36h1c30 6 49 33 41 60" style="opacity:.3412;fill:#f7931a"/><path d="M1344 220c-2 6-13 3-17 2l4-11c3 1 14 2 13 9m-2 17c-2 7-15 4-20 3l4-12c4 0 18 2 16 9m14-17q0-10-12-13l2-9-6-1-3 9-5-1 3-9-7-2-2 9h-4l-9-2-2 6 5 1q3 0 3 3l-3 10h1-1l-4 14-3 2-5-1-3 6 8 2 5 1-3 9 7 1 2-9 5 1-2 9 6 2 3-9c10 1 18 1 22-8q4-10-6-13 6-1 8-8" class="st0"/><path d="M1423 261q5 1 9-2 5-1 8-6l5-8 2-9q1-5-2-10-3-3-9-3l-5 1-6 2-10 35zm19-54 12 2a24 24 0 0 1 13 15l2 10q0 18-14 30l-15 10q-9 3-19 3h-5a81 81 0 0 1-25-5l25-92 23-3-9 33zm60-6-8-3q-4-3-3-7l1-5 3-4a17 17 0 0 1 11-4q4 0 8 3 4 2 3 7l-1 5-3 4a16 16 0 0 1-11 4m-10 74h-22l19-66h21zm37-83 23-3-6 20h24l-4 15h-24l-6 23-1 6v4l3 3 7 1 7-1 6-1 2 14-10 3-12 1q-10 0-15-3-6-2-8-7t-2-10l2-13zm40 57a41 41 0 0 1 13-30q6-6 14-9 9-3 19-3a57 57 0 0 1 21 4l-7 14-6-1-8-1q-10 0-17 6-6 7-6 18 0 5 3 10 3 4 12 4l15-3 1 15-9 3a57 57 0 0 1-27-1l-10-6q-5-4-6-10zm107-26-9 2-6 6a28 28 0 0 0-5 17l2 9q3 4 9 4l8-2 6-6 4-9 1-8-2-10q-2-3-8-3m-11 54-14-2-9-6-5-8q-3-6-2-12a43 43 0 0 1 24-38q9-4 19-4l13 2q6 1 9 6 5 3 6 8l2 11a44 44 0 0 1-11 29 42 42 0 0 1-32 14m77-76q-5 0-8-3-4-3-4-7l1-5a14 14 0 0 1 8-7l6-1q5 0 8 3 4 2 4 7l-2 5-3 4zm-11 74h-21l18-66h22zm34-63 12-3 19-2q17 0 23 9 4 4 4 12v1l-1 10-10 36h-22l10-35 1-6v-6l-3-4-6-1-9 1-14 51h-22z" class="st1"/></g></g><path d="M1391 519q4 53 21 54c12 0 17-21 17-49 0-30-4-46-20-60-19-17-25-41-25-82 0-44 8-80 26-80 20 0 28 41 29 80h-11c-2-27-6-48-18-48q-15 1-15 44c0 28 4 38 18 51 23 20 27 53 27 91 0 47-9 84-29 84s-29-40-31-85zm82-179h-26v-33h63v33h-26v261h-11zm59 172-9 89h-10l29-294h13l30 294h-12l-9-89zm30-33-14-141-13 141zm105-4V334l-26 267h-10l-24-267 1 149v118h-10V307h16l23 246 24-246h16v294h-11zm31-168h31c15 0 26 32 26 85q-2 87-27 88h-19v121h-11zm11 140h19q16-1 16-54-1-54-16-54h-19zm67 72q3 53 21 54c12 0 17-21 17-49 0-30-4-46-20-60-19-17-26-41-26-82 0-44 9-80 27-80 19 0 27 41 28 80h-10c-2-27-6-48-18-48q-15 1-15 44c0 28 4 38 18 51 23 20 27 53 27 91 0 47-9 84-29 84s-29-40-31-85z" class="st10" style="opacity:.5882"/><path d="M1490 522s10-37 29-47c51-27 125-19 166-2 29 12 34 53 34 53s-54 18-117 15c-62-3-114-15-112-19" class="st11"/><path d="M1530 427s-1-2 10-16 71-28 97-7c27 21 35 19 33 26-1 7-49 47-52 59-2 13-15 52-16 52s-13-43-22-56-50-58-50-58" class="st1"/><path d="M1560 407c-1 9 3 52 14 62 14 13 19 24 26 24 12 0 16-12 30-24 12-11 12-57 12-57s-31-11-42-10c-10 0-40 5-40 5" class="st10"/><path d="M1596 419c0-3-3-10-11-11-7-1-21 9-21 10s-2 3 2 1 14-8 19-6c4 2 5 8 6 8q4 1 5-2m13 0c-1-3 3-10 10-11 8-1 22 9 22 10q2 3-3 1c-3-2-13-7-17-5-5 2-6 8-7 8q-3 0-5-3m-41 22s4 22 17 21c11-1 12-8 13-6 1 1 7 1 4 3l-5 7q-8 3-17 1c-11-4-14-25-12-26" class="st1"/><path d="M1637 441s-4 22-17 21c-11-1-11-8-12-6-1 1-8 1-5 3l5 7q9 3 18 1c11-4 13-25 11-26m-65-16h5q5-2 11 4c4 4 2 7 2 7s-4 2-8 1-11-12-10-12m62 1h-4q-6-3-11 4-5 6-3 6l8 2c4-1 11-12 10-12m-27 46h-11l3 4q-2 3-2 7 1 7 4 9 4-2 5-9 0-4-2-7z" class="st1"/><path d="m1564 469 11 31c7 18 27 41 27 41s-15-54-23-60zm74 1s0 22-5 36c-6 14-30 34-30 34s18-47 22-54c4-8 13-16 13-16" class="st11"/><path d="M1530 427s2-5 4-4c17 8 53 55 59 75 7 25 9 43 9 43s-11-33-28-56zm142 3s-3-7-5-6c-9 6-26 22-37 42q-14 23-20 36l-8 39c1 0 14-35 31-58z" class="st11"/><path d="M1530 427c-1-1 23-71 48-90 14-11 41-11 54 1 17 16 41 90 40 92s-28-23-72-24c-45-1-67 22-70 21" class="st11"/><path d="M1600 406c32 1 55 14 65 20q-11-10-33-18c-30-8-51-6-72 2q-18 7-23 13c10-6 30-18 63-17" class="st1"/><ellipse cx="1605" cy="450" rx="136" ry="125" style="fill:none;stroke:#325f4a;stroke-width:13.4288;stroke-miterlimit:10"/><ellipse cx="1605" cy="450" rx="150" ry="138" style="fill:none;stroke:#325f4a;stroke-width:2.7796;stroke-miterlimit:10"/><text transform="translate(157 637)"><tspan x="0" y="0" class="st1 st14 st15">IN SATOSHI NAKAMOTO </tspan><tspan x="101" y="34" class="st1 st14 st15">WE TRUST</tspan></text><text class="st1 st14 st15" transform="translate(142 199)">DECENTRALIZED BITCOIN NOTE</text><text class="st11 st14 st16" transform="translate(209 252)">BB 31102008 A </text><text class="st11 st14 st16" transform="translate(1444 639)">BB 31102008 A </text></svg>