<?xml version="1.0" encoding="UTF-8"?><svg id="a" xmlns="http://www.w3.org/2000/svg" viewBox="0 0 1500 1500"><defs><style>.b{fill:#603813;}</style></defs><rect width="1500" height="1500"/><path class="b" d="m1072.32,930.55c21.21-34.36,32.91-78.09,33.13-132.63.23-58.97-78.56-37.8-118.44-75.77.05-.07.1-.14.15-.21-2.32,2.27-53.38,50.65-172.37,38.93,0,0,99.46,8.15,172.41-38.99,7.31-10.41,13.4-21.43,18.17-32.92,3.04-6.94,5.27-13.92,6.91-20.44,3.22-12.28,4.94-24.97,4.95-37.93.1-69.34-48.04-127.78-118.31-154.67-4.56-24.02-15.05-46.23-30.19-65.63-52.62-67.38-157.97-55.72-195.89,20.91l-251.17,479.67-29.12,49.24s71.81,40.71,143.06,83.4l10.37-120.15,15.17,8.15c-2.41,11.82,41.25,145.87,44.15,154.74,34.91,22.09,61.96,40.69,68.53,49.04,0,0,8.22-38.46,22.96-69.29-.01.02-.03.06-.04.08-.91,2.04-23.97-112.67-106.39-201.88,0,0,.75-116.83,9.36-124.98s47.25,77.89,47.25,77.89c0,0,58.11,134.34,227.92,177.81,0,0,72,13.6,126.22,2.27,0,0-.31.28-.92.78,25.63-14.09,47.21-32.38,64.03-55.38-1.03-.05-106.37-4.95-127.12-18.32v-3.62s43.9,11.08,135.23,9.91Zm-32.61-182.59s53.81,11.02,59.77,30.49c5.96,19.47,0,36.23,0,36.23,0,0-48.6-15.7-51.92-22.04s-18.11-35.92-7.85-44.68Zm-142.97-271.85s-80.39.99-146.95,88.22c0,0,48.8-90.29,146.95-88.22Zm98.57,155.51c-5.46,9.23-8.21,33.49-9.04,43.74-.27,3.36,1.14,34.91,1.38,40.12-5.46,5.36-11.93,9.96-19.65,13.3-50.48,21.87-226.83-101.75-226.83-101.75l254.14,4.59Z"/></svg>