<svg xmlns="http://www.w3.org/2000/svg" xmlns:xlink="http://www.w3.org/1999/xlink" viewBox="0 0 180 180"><image xlink:href="../31-01-2024_21-23-30/image-31-01-24-11-15-29.jpeg" width="4800" height="4800" data-name="Layer 1" opacity=".6" transform="matrix(.03 0 0 .03 10 10)"/><g data-name="Layer 4"><path d="M5 5h170v170H5" fill="#5aff2c"/><path d="M180 180H0V0h180ZM10 170h160V10H10Z" fill="#1200ff"/></g><g data-name="Layer 2"><path d="M80 127a96 96 0 01 2 20c0 5 0 10 2 11a5 5 0 00 6 0 6 6 0 00 1-5c0-4-4-6-3-9a4 4 0 01 3-3l3 2c1 0 4-2 6-10m-50-27a46 46 0 01 2 8c1 15-4 25 0 27a4 4 0 00 5 0c3-2 0-9 1-20l2-5c1 0 3 4 5 4s3-1 5-7" fill="#a4e5ff" stroke="#1d1d1b" stroke-miterlimit="10" stroke-width="2"/><path d="M104 37c-30 10-44-10-65 2a38 38 0 00-17 24C18 80 34 98 45 105c30 20 70 0 78-4a62 62 0 00 29-26 42 42 0 00 3-37 25 25 0 00-13-13c-12-4-20 7-38 12Z" fill="#ff0019" stroke="#1d1d1b" stroke-miterlimit="10" stroke-width="3"/><path d="M135 40a68 68 0 01-29 12c-22 4-35-7-53 2-3 2-10 5-10 11-2 10 10 19 17 23 21 10 56 3 67-20a40 40 0 00 2-24" fill="#020001" stroke="#1d1d1b" stroke-linecap="round" stroke-miterlimit="10" stroke-width="3"/><path d="M58 86a26 26 0 01 5-11 16 16 0 01 11-8 15 15 0 01 13 8 18 18 0 01 5-2 29 29 0 01 24 11 33 33 0 01 6 30 30 30 0 01-26 23c-15 0-33-20-31-48" fill="#f9359c"/><path d="M47 58a11 11 0 00 10 5 12 12 0 00 10-12 10 10 0 00 8 12 10 10 0 00 10-10 10 10 0 10 21 0 8 8 0 10 17-4 9 9 0 00 3 6 8 8 0 00 4 2V45a64 64 0 01-37 9c-10-2-20-6-32-3a42 42 0 00-14 7Z" fill="#fff" stroke="#1d1d1b" stroke-linecap="round" stroke-linejoin="round" stroke-width="2"/><path d="M58 86a23 23 0 01 5-11 17 17 0 01 12-8c6 0 13 6 15 16" fill="none" stroke="#1d1d1b" stroke-linecap="round" stroke-miterlimit="10" stroke-width="3"/><path d="M87 74a26 26 0 01 13-1 26 26 0 01 16 10c8 10 13 30 1 43a30 30 0 01-27 9C74 130 60 109 66 80" fill="none" stroke="#1d1d1b" stroke-linecap="round" stroke-miterlimit="10" stroke-width="3"/><path d="M83 114a24 24 0 01 14-6 24 24 0 01 14 2" fill="none" stroke="#1d1d1b" stroke-linecap="round" stroke-linejoin="round" stroke-width="2"/><path d="M107 108a26 26 0 00-10 0 24 24 0 00-10 3l-5-20 21-5Z" fill="#fff" stroke="#1d1d1b" stroke-linecap="round" stroke-linejoin="round" stroke-width="2"/><path d="M97 106h-1l-7-12H90l7 10v2Z" fill="#ff7f00"/><path d="M90 97c3-3 6-4 7-3s-3 5-3 5h6l-7 6m0-13v2m5 8 2 2" fill="none" stroke="#ff7f00" stroke-linecap="round" stroke-linejoin="round" stroke-width="2"/></g></svg>
