<svg xmlns="http://www.w3.org/2000/svg" xml:space="preserve" version="1.1" viewBox="0 0 5120 5120"><path d="M2230 0c-310 0-560 250-560 560v110l1110 220-220-890h-330" fill="#f2484b"/><path d="M3450 560c0-310-250-560-560-560h-330v890l890-220V560" fill="#bd1515"/><path d="M2230 2110h670v1670h-670" fill="#ffcc75"/><path d="M890 4230v890h1670l220-890" fill="#274b6d"/><path d="M2560 4230h1670v890H2560" fill="#082947"/><path d="M1110 3560c-300 0-550 250-550 560v330h2000l220-440-220-450H1110" fill="#ff9d49"/><path d="M4560 4120c0-310-250-560-550-560H2560v890h2000v-330" fill="#ff8430"/><path d="m1670 670 220 1670h670l220-840-220-830" fill="#ff9d49"/><path d="M3450 670h-890v1670h670" fill="#ff8430"/></svg>
