<svg xmlns="http://www.w3.org/2000/svg" width="16" height="16"><path fill="#fff" d="M0 0h16v16H0z"/><path fill="#b18e68" d="M14.863 14.863V1.137H1.137v13.726h13.726Z"/><path d="M12.582 6.882c-.124-.123-.273-.174-.334-.113s-.01.21.113.334.273.174.334.113.01-.21-.113-.334z"/><path fill="#00580a" d="M6.57 6.752H4.4c-.137 0-.43 2.1.218 3.02 0 0 1.017 1.39 3.346.157.538-.285 1.368-1.265 1.857-1.717.714-.66 1.146-.947 2.44-1.018.086-.005.145.01.263-.015.163-.021-.168-.364-.263-.374-2.293-.247-3.466.904-4.65 1.708-.368.25-.99.49-.94.13.163-1.21-.101-1.891-.101-1.891Z"/><path fill="#509547" d="M9.74 7.287c-.764.452-1.162.855-1.666 1.213s-1.067.359-1.234.569c-.214.268.062.567.655.345C8.554 9.017 9.12 7.877 9.74 7.515c1.24-.725 2.522-.536 2.522-.536v-.087s-1.33-.136-2.522.395zm-3.725-.535h-1.54c-.136 0-.382 2.754.566 2.888s.974-2.888.974-2.888z"/><path fill="#9fc19b" d="M5.193 6.707h-.59c-.052 0-.229 1.905.136 2.053s-.178-.592.454-2.053z"/><path fill="#fff" d="M5.484 6.576c-.607 0-1.098.073-1.098.163s.491.164 1.098.164 1.098-.074 1.098-.164-.492-.163-1.098-.163z"/><path d="M5.484 6.625c-.392 0-.71.048-.71.106s.318.106.71.106.708-.048.708-.106-.317-.106-.708-.106z"/><path fill="red" d="M9.74 8.28s-.13-.267-.295-.463-.363-.32-.363-.32-.073.027-.142.07-.133.097-.133.097.22.146.399.356a2.84 2.84 0 0 1 .319.483s.063-.049.117-.104.099-.118.099-.118z"/></svg>