<?xml version="1.0" encoding="utf-8"?>
<!-- Generator: Adobe Adobe Illustrator 24.2.0, SVG Export Plug-In . SVG Version: 6.00 Build 0)  -->
<svg version="1.1" xmlns="http://www.w3.org/2000/svg" xmlns:xlink="http://www.w3.org/1999/xlink" x="0px" y="0px" width="20px"
	 height="28px" viewBox="0 0 20 28" style="enable-background:new 0 0 20 28;" xml:space="preserve">
<style type="text/css">
	.st0{fill:#F0EE2D;}
	.st1{fill:#791713;}
	.st2{fill:#0C3F1B;}
	.st3{fill:#408C3B;}
	.st4{fill:#EF3C48;}
	.st5{fill:#F13014;}
	.st6{fill:#428D38;}
	.st7{fill:#44B93A;}
	.st8{fill:#00604E;}
	.st9{fill:#F23013;}
	.st10{fill:#31AF58;}
	.st11{fill:#FFFFFF;}
	.st12{fill:#FB2815;}
	.st13{fill:#00894E;}
	.st14{fill:#152E1A;}
	.st15{fill:#057D34;}
	.st16{fill:#F13315;}
	.st17{fill:#F46555;}
	.st18{fill:#08401D;}
	.st19{fill:#148532;}
	.st20{fill:#068F81;}
</style>
<g id="Layer_3">
	<rect x="-0.31" y="-0.34" class="st0" width="20.75" height="28.7"/>
</g>
<g id="Layer_2">
	<path class="st1" d="M16.54,5.06c0-0.37-0.01-1.1,0.02-1.46c0.02-0.33-0.07-1.08,0.17-1.31c0.27-0.27,1.32-0.51,1.52-0.18
		c0.23,0.39-0.56,1.24-0.74,1.65c-0.17,0.38-0.31,1.23-0.31,1.65"/>
	<polyline class="st2" points="8.43,28.57 8.47,22.05 11.77,19.98 13.16,18.16 14.93,28.24 	"/>
	<polyline class="st3" points="7.91,15.09 10.46,12.85 11.4,21.3 7.62,22.54 	"/>
	<path class="st4" d="M14.75,5.05c0-0.7,0.35-2.6-0.32-2.79c-0.31-0.09-0.83,0.65-0.85,0.98c-0.04,0.54,0.71,1.52,0.71,2.06"/>
	<path class="st5" d="M15.15,5c0-0.67-0.4-2.11-0.05-2.69c0.18-0.31,1-0.89,1.27-0.66c0.3,0.27-0.17,1.2-0.28,1.59
		c-0.13,0.46-0.29,1.42-0.29,1.9"/>
	<polygon class="st6" points="11.92,14.01 10.62,1.17 6.35,1.31 7.78,4.7 11.38,25.31 	"/>
	<path class="st7" d="M10.23,18.81c0.04,0.32,1.4,1.25,1.4,1.25l1.68-0.31l1.01-1.53l-1.36-4.09l0.06-4.73l0.03-3.34
		c0,0,0-1.65,0.07-2.19c0.09-0.71,0.66-2.79,0.66-2.79l-3.26,0.08l0.55,6.14c0,0,0.49,3.88,0.42,5.18
		c-0.05,0.97-0.74,3.83-0.74,3.83S10.15,18.18,10.23,18.81z"/>
	<path class="st8" d="M6.9,19.06l1.37-0.15c0.02,0,0.03-0.01,0.03-0.03c0.02-0.31,0.2-3.25,0.28-3.55c0.12-0.5,1.15-1.39,0.9-1.83
		c-0.32-0.58-2.65-0.1-2.65-0.1"/>
	<polyline class="st9" points="8.36,21.95 11.4,26.71 13.61,25.26 15.31,26.88 17.52,26 13.83,23.64 11.81,24.87 	"/>
	<polyline class="st10" points="7.28,28.36 7.14,21.07 8.49,21.95 8.47,28.35 	"/>
	<path class="st11" d="M7.14,21.27l-0.02-1.45l1.38,0.95c0,0,0.27,1.09,0.01,1.25C8.18,22.22,7.14,21.27,7.14,21.27z"/>
	<path d="M7.06,19.79l-0.03-0.98l1.26,0.09c0,0,0.29,0.98,0.32,1.33c0.01,0.15,0.01,0.49-0.09,0.59c-0.16,0.16-0.37,0.02-0.75-0.35"
		/>
	<path class="st12" d="M4.11,10.41c-0.26,0.67,1.33,2.54,1.33,2.54l0.12,3.33l0.24,1.41l-0.03,3.89l0.56,3.56l0.12,2.96l0.89,0.08
		l-0.02-3.06l-0.1-3.78l-0.37-8.14l0.19-1.92l0.37-0.86c0,0,0.21-1-0.02-1.2C6.74,8.65,4.42,9.6,4.11,10.41z"/>
	<polyline class="st11" points="1,17.63 3.2,19.72 5.84,17.72 4.9,17.19 3.19,17.05 1.7,17.17 	"/>
	<path d="M2.12,17.05c-0.15,0.36,0.7,1.15,1.09,1.11c0.4-0.04,1.31-0.7,1.18-1.08C4.19,16.55,2.34,16.53,2.12,17.05z"/>
	<polyline class="st13" points="1,28.12 2.63,24.02 3.2,19.72 5.84,17.72 5.94,21.43 6.34,25.18 6.49,28.1 	"/>
	<path class="st14" d="M2.09,15.03l-1.3-3.53l3.61-0.11c0,0,0.95,1.11,1.08,1.54c0.25,0.8,0.34,3.32,0.34,3.32l0.02,1.45"/>
	<path class="st15" d="M1,17.63c0,0,0.55-0.29,0.74-0.35c0.36-0.12,1.46-0.19,1.46-0.19s1.28,0.1,1.69,0.21
		c0.26,0.08,0.95,0.41,0.95,0.41s-0.89-1.62-1.29-2.09c-0.22-0.26-0.73-0.75-1.03-0.92c-0.15-0.09-0.52-0.18-0.69-0.15
		c-0.35,0.08-0.94,0.57-1.14,0.86c-0.18,0.25-0.53,0.81-0.53,1.12"/>
	<polyline points="8.47,22.05 11.8,24.87 13.92,23.76 15.36,24.66 14.62,23.62 	"/>
	<polygon class="st16" points="8.47,22.05 10.87,20.52 11.82,21.45 13.36,20.25 14.98,21.58 17.07,19.49 17.3,21.57 15.19,22.65 
		14.02,22.17 13.52,21.28 11.77,22.22 	"/>
	<polyline points="8.48,22.05 11.77,22.21 13.53,21.27 14.05,22.16 15.2,22.63 15.85,22.3 15.89,22.84 10.53,22.59 	"/>
	<polygon class="st17" points="10.37,22.55 16.78,22.74 17.41,21.74 17.68,19.57 16.74,17.44 18.83,15.38 18.9,22.88 17.12,24.38 	
		"/>
	<path class="st18" d="M14.98,21.58l-1.65-1.3l-0.16-0.49c0,0,0.29-0.61,0.42-0.81c0.15-0.23,0.32-0.77,0.3-1.05
		c-0.04-0.48-0.5-1.34-0.65-1.79c-0.15-0.46-0.36-1.4-0.41-1.88c-0.05-0.55-0.01-2.22-0.01-2.22l0.16-3.07l1.68,1.88
		c0,0-0.02,3.38,0.31,4.21c0.14,0.36,0.33,1.11,0.42,1.49c0.11,0.46,0.31,1.44,0.12,1.9"/>
	<path class="st18" d="M13.72,17.12c-0.12-0.1-0.47-0.02-0.62-0.07c-0.07-0.02-0.18-0.14-0.24-0.18c-0.11-0.07-0.35-0.21-0.48-0.2
		c-0.13,0.01-0.41,0.12-0.47,0.23c-0.17,0.31-0.15,1.07-0.05,1.41c0.02,0.08,0.07,0.26,0.15,0.31c0.14,0.09,0.51,0.11,0.65,0.03
		c0.05-0.03,0.14-0.13,0.14-0.19c0-0.05-0.05-0.14-0.09-0.16c-0.05-0.04-0.18-0.06-0.25-0.07c-0.08-0.02-0.25-0.02-0.3-0.08
		c-0.07-0.09-0.03-0.35-0.01-0.46c0.02-0.12-0.01-0.39,0.07-0.48c0.07-0.08,0.29-0.14,0.38-0.11c0.11,0.04,0.24,0.24,0.33,0.3
		c0.09,0.06,0.3,0.1,0.4,0.13c0.18,0.07,0.52,0.47,0.67,0.36C14.17,17.78,13.88,17.25,13.72,17.12z"/>
	<path class="st2" d="M5.41,7.17C5.25,6.96,5.53,6.36,5.68,6.14c0.2-0.27,0.64-0.8,0.92-0.98c0.26-0.17,0.84-0.47,1.16-0.49
		c0.48-0.03,1.47,0.17,1.87,0.44c0.32,0.21,0.78,0.84,1,1.16c0.15,0.21,0.66,0.62,0.57,0.86C10.66,8.47,6.29,8.31,5.41,7.17z"/>
	<path class="st11" d="M5.43,7.17C5.28,7.44,5.82,8.05,6.07,8.23C6.32,8.41,6.88,8.7,7.18,8.77C7.45,8.83,8.01,8.8,8.29,8.8
		c0.26,0,0.8,0.08,1.05,0.02c0.37-0.09,1.08-0.45,1.33-0.73c0.18-0.2,0.64-0.72,0.49-0.94c-0.39-0.59-2.12-0.04-2.82-0.04
		C7.62,7.11,5.79,6.53,5.43,7.17z"/>
	<path d="M6.92,6.92L8.4,8.36l1.29-1.43c0,0-1.03,0.15-1.36,0.15C7.99,7.08,6.92,6.92,6.92,6.92z"/>
	<path class="st19" d="M12.96,8.91c0,0.04,0.01,0.07,0.04,0.1c0,0,1.12,1.59,1.69,1.86c0.3,0.14,1.02,0.03,1.33-0.1
		c0.36-0.16,0.93-0.77,1.16-1.1c0.22-0.31,0.66-0.95,0.79-1.3c0.1-0.28,0.21-1.18,0.21-1.18l-5.01-0.04c-0.07,0-0.13,0.06-0.14,0.13
		L12.96,8.91z"/>
	<path class="st11" d="M13.04,7.17c0,0,0.96,1.24,1.4,1.52c0.24,0.15,0.81,0.35,1.09,0.32c0.35-0.03,1.03-0.28,1.32-0.48
		c0.37-0.25,1.3-1.24,1.3-1.24L13.04,7.17z"/>
	<path d="M14.21,6.79c0,0,0.43,0.92,0.63,1.14c0.2,0.22,0.68,0.59,0.93,0.56c0.23-0.03,0.65-0.36,0.81-0.59
		c0.14-0.21,0.43-0.99,0.43-0.99L14.21,6.79z"/>
	<path class="st20" d="M16.5,4.89c0.05-0.02,0.57,0.25,0.73,0.39c0.25,0.23,0.67,0.77,0.82,1.07c0.05,0.1,0.14,0.32,0.15,0.44
		c0.01,0.12-0.04,0.5-0.04,0.5l-5.11-0.12l0-1.27c0,0,0.73-0.72,1.02-0.88c0.18-0.1,0.59-0.19,0.79-0.21"/>
</g>
</svg>
