<svg xmlns="http://www.w3.org/2000/svg" viewBox="0 0 24 24"><g id="Layer_3" data-name="Layer 3"><rect width="24" height="24" style="fill:#222322"/></g><g id="Layer_2" data-name="Layer 2"><path d="M13.18,3.13a1.91,1.91,0,0,1,.35-.32.81.81,0,0,1,.35-.19.73.73,0,0,1,.43,0,.85.85,0,0,1,.31.24A.75.75,0,0,1,15,2.8a.66.66,0,0,1,.57.23.5.5,0,0,1,.08.35c.17.05.23.12.25.18l0,.16a.28.28,0,0,1,.14.17.26.26,0,0,1-.12.26.12.12,0,0,1,0,.07l0,0-.05,0,0,0-.1.08a.34.34,0,0,1-.16.05.59.59,0,0,1,.12.23.63.63,0,0,1,0,.28.16.16,0,0,1,0,.13.19.19,0,0,1-.18.16.22.22,0,0,1-.06.15.18.18,0,0,1-.23,0,.81.81,0,0,1-.38.36.78.78,0,0,1-.54,0,.45.45,0,0,0-.19.09A.46.46,0,0,0,14,6.2,6.38,6.38,0,0,1,14.52,8c.09.47.15.86.18,1.07.18,1.26.24,3.16.25,3.25l8.24,0,0,11H13.76a.65.65,0,0,0,.3-.12c.12-.09.13-.17.24-.22a.65.65,0,0,1,.33,0c.24,0,.28,0,.41,0a1.27,1.27,0,0,0,.43-.12l.79-.31a.49.49,0,0,0-.21-.37.48.48,0,0,0-.25-.06,1.55,1.55,0,0,1-.46,0,1.13,1.13,0,0,1-.75-.28,1,1,0,0,1-.27-.53,1.33,1.33,0,0,0,.23-.1.42.42,0,0,0,.14-.11c.07-.12-.06-.3-.07-.33l-.88-2.49c-.19-.58-.46-1.46-.81-2.54S12.36,14,12.06,13a17.34,17.34,0,0,1-.84-3.73,4.65,4.65,0,0,1,.09-1.46,3.34,3.34,0,0,1,.34-1A8.13,8.13,0,0,1,12.19,6l.13-.18a.44.44,0,0,0,.1-.15.34.34,0,0,0,0-.14.23.23,0,0,0,0-.11,1.15,1.15,0,0,0-.16-.37,1.47,1.47,0,0,1,.06-1A1.73,1.73,0,0,1,13.18,3.13Z" transform="translate(0 0)" style="fill:#6bff1d"/><path d="M13.51,23.26a1.06,1.06,0,0,0,0-.28,2.77,2.77,0,0,0-.1-.26,1.3,1.3,0,0,1-.06-.31c-.05-.36,0-.46,0-.72a1.26,1.26,0,0,0-.13-.34c-.34-.66-1-1.71-1.17-2.08s-.3-.56-.46-.86c-.34-.69-.6-1.27-.77-1.68h-.06c-.12.32-.21.59-.27.76-.35,1-.4,1.35-.62,1.87-.1.24-.19.47-.29.7,0,.05-.07.16-.12.31s-.07.23-.09.31a.77.77,0,0,1-.13.22L9.08,21a.35.35,0,0,1-.3-.07,2.19,2.19,0,0,0,0,.49,1.46,1.46,0,0,0,.21.71,1.23,1.23,0,0,0,.43.43c.18.11.27.09.37.19a.6.6,0,0,1,.11.53Z" transform="translate(0 0)" style="fill:#6bff1d"/><path d="M8.55,12.24c-.12.41-.21.76-.27,1a12.74,12.74,0,0,0-.15,1.27c0,.13-.06.4.08.52l.24.14.19.13a.39.39,0,0,1,0,.34,5.67,5.67,0,0,1-.08.94,5.45,5.45,0,0,1-.28,1,6.19,6.19,0,0,1-.27.89c-.16.41-.35.78-.5,1.19-.09.25-.16.51-.16.51s0,.12,0,.16a.14.14,0,0,0,0,.1.32.32,0,0,0,.27.13l0,0a.12.12,0,0,1,0,.08,1.7,1.7,0,0,1-.08.3c0,.12-.08.18-.09.22l-.1.21a4.1,4.1,0,0,0-.29.67.58.58,0,0,0,0,.36.39.39,0,0,0,.16.2.64.64,0,0,0,.32.06,1.88,1.88,0,0,1,.47,0,.6.6,0,0,1,.23.19l.52.17c.22.07.44.12.64.17H.72l.05-11Z" transform="translate(0 0)" style="fill:#6bff1d"/><rect width="24" height="0.72" style="fill:#6bff1d"/><rect x="23.19" y="0.18" width="0.81" height="12.12" style="fill:#6bff1d"/><rect y="0.18" width="0.77" height="12.05" style="fill:#6bff1d"/></g></svg>