<svg xmlns="http://www.w3.org/2000/svg" width="960" height="960" shape-rendering="geometricPrecision" image-rendering="optimizeQuality" fill-rule="evenodd" xmlns:v="https://vecta.io/nano"><g stroke="#000" stroke-miterlimit="2.61313"><path d="M36.334 29.965h887.333v900.069H36.334z" stroke-width="20" fill="#fff"/><path d="M52.308 46.168h855.385v867.663H52.308z"/></g><path d="M652.63 685.809l-4.608-.067c2.026-28.103 17.168-80.111 43.288-96.172-5.868 13.364-38.376 96.088-38.68 96.239zm-182.203 44.365c21.081-.353 107.579-11.031 85.193 36.474-8.786 18.642-31.536 14.664-50.756 14.804-39.051.286-33.559 25.929-34.639 53.948 18.532 1.199 73.352-.546 82.698.438 7.68.808 19.69 9.891 23.471 16.454 10.177-3.794 20.487-13.957 31.588-22.919 47.487-42.067 108.213-73.466 108.512-140.774.386-87.101 29.302-155.72 30.748-197.606.988-28.651-10.425-66.861-12.741-101.651-1.15-17.283 1.483-25.821-4.758-33.855-10.403-13.391-24.228-27.75-24.732-51.823-.65-31.069 23.819-93.132 4.286-134.765-29.32-62.494-159.446-86.809-221.437-85.446-1.628 19.477-.292 112.196-.253 139.261.03 19.897-2.276 127.636 2.278 137.313 8.56 18.19 33.534 11.292 49.534 2.666 22.538-12.15 33.459-9.002 60.505-8.986l69.402.221c44.665 4.811 63.92 91.061-.737 90.361-12.121-.131-10.201 6.578-21.752 12.683-22.71 12.005-50.76 5.86-74.242.988-10.422-2.162-15.75 18.043-37.355 3.559-17.332-11.619-12.156-37.703-21.87-47.771-12.676-13.137-41.936-12.208-42.921 9.449l.103 138.809c36.974 3.91 47.159-11.243 68.316 17.281 1.644 2.216 2.597 4.321 4.585 7.239l7.658-9.449c-2.385 22.264-25.486 29.36-42.178 40.305-18.563 12.172-9.961 21.915-26.968 35.13-6.505 5.056-10.665 5.723-13.274 7.851 6.906 9.446 22.819 12.664 33.758 7.969 17.94-7.701 15.92-8.25 33.157.836l46.77 22.034c6.356 1.46 15.584-4.325 20.383 1.211 3.956 5.767-11.517 12.438-26.344 11.013-20.877-2.008-33.3-4.785-56.531-3.595-26.926 1.379-50.679-2.615-49.457 30.343z" fill="#fff"/><path d="M212.503 499.096c3.44 28.545 12.992 53.566 18.426 81.19 5.893 30.469 8.617 59.437 9.435 90.43.614 25.431-1.542 37.215 7.394 59.375 6.557 16.262 19.955 26.18 31.146 35.769 31.831 27.849 95.261 90.027 133.081 101.853 10.219 2.721 19.224 2.644 29.659 2.062-10.917-1.833-60.397-8.01-52.126-26.649 10.259-23.123-5.394-54.321-29.139-67.191-9.986-5.412-23.152-17.982-24.941-29.676-2.13-13.926 15.165-36.696 8.526-47.687-3.416-5.655-26.746-32.153-32.039-30.852-1.747.43-.207 10.372-.062 11.755.684 6.524 2.884 20.996 2.425 26.876-5.036-1.954-57.688-51.925-59.993-57.524-1.843-6.909-2.698-22.336-3.564-30.303-2.265-18.62-5.407-37.218-5.545-56.02 25.656 18.931 47.228 44.824 58.863 74.605 1.803 4.617 2.492 7.268 2.985 12.184 11.551-16.547-18.994-69.906-30.703-83.872-6.853-8.039-10.195-12.633-14.593-22.429-21.857-51.26-27.016-108.521 18.746-137.689-5.729-2.835-19.339-15.544-22.333-21.316-1.571-3.029-16.088 20.387-17.347 23.773.658-27.42 26.333-54.533 52.412-60.652-2.592-15.827-26.055-146.464 6.959-170.484 45.602-33.18-30.416-83.865-63.262-13.553-14.972 32.049-6.366 76.937 3.173 109.488 9.486 32.372 12.007 51.299-11.41 78.219-10.482 12.05-6.33 15.878-6.902 31.578-1.478 40.578-13.861 74.977-9.271 116.74z" fill="#f60"/><path d="M750.772 477.072c.132 11.067 4.079 14.574 11.6 17.659 4.461-7.335 20.87-47.634 36.375-46.214 4.394 8.467 3.022 24.247 2.087 34.885-.79 6.307-1.552 31.046-6.229 32.79-4.308-14.738-3.167-24.065-12.315-43.751-3.121 3.717-6.165 5.458-6.533 11.323-1.31 20.649 12.039 25.854 14.097 38.42 1.611 9.805.258 29.392-2.587 39.376-1.913 6.717-1.483 6.271-7.334 8.688-9.459 3.907-9.022 9.646-13.868 19.083-4.611 8.98-35.774 67.856-2.531 38.832 25.875-22.589 37.082-100.292 41.068-130.469 2.651-20.062 8.526-69.399-14.863-72.132-11.637-1.36-22.037 12.337-26.454 18.872-7.969 11.794-8.45 17.614-12.513 32.638z" fill="#fff"/><path d="M198.976 629.895c1.751-2.629 1.343-30.425-.279-30.047l-6.753-9.668c-1.905-3.939-3.446-8.138-5.474-12.343-5.393-11.187-20.59-4.473-19.616-50.181.086-4.001 8.349-55.24 9.295-57.652-8.746 6.78-9.418 36.958-13.874 46.123-2.512-.806-2.453-3.317-2.829-6.197-2.817-21.541-15.523-94.464 19.102-43.642 2.47 3.626 13.685 18.712 14.628 22.949 4.618-1.707-8.414-73.721-31.432-61.884-7.509 3.861-10.223 14.484-11.526 26.309-3.327 30.183 11.417 99.075 20.995 127.995 5.485 16.564 12.69 37.668 27.763 48.238z" fill="#f60"/><path d="M348.722 409.73c-10.356 2.251-25.82 14.313-17.111 28.715 5.733 9.479 21.633 15.856 36.858 11.121 34.098-10.607 17.604-47.959-19.747-39.836zm255.996-.006c-11.866 1.901-27.528 10.71-22.944 25.02 3.703 11.559 18.278 18.11 34.148 16.049 37-4.806 26.114-47.048-11.204-41.069z" fill="red"/><path d="M211.216 412.754c12.38-17.346 4.673-113.186-14.117-102.71-.358.928-1.454 81.255.116 86.088 1.187 3.657 10.954 13.472 14.001 16.622z" fill="#f66000"/><path d="M744.208 414.245c2.671-1.767 8.553-9.746 10.762-12.953 6.154-8.928 3.051-77.463 3.042-91.855-4.482 2.349-13.452 10.491-14.943 15.953-4.217 15.453-2.907 75.848 1.139 88.855z" fill="#fff"/><path d="M458.652 551.143c-.503-4.471.223-8.051.083-9.619l-.37-4.587c.204-5.483-.031.72-.208-3.901-.048-1.23.775-4.316-1.293-8.833-2.069 2.3-3.766 3.717-6.122 5.928-9.692 9.097-31.82 44.514-16.466 58.567 2.024-2.175 2.947-5.397 4.851-8.205 6.553-9.665 11.065-10.896 20.344-17.072l-.819-12.278z" fill="#f66000"/><path d="M652.63 685.809c2.762-1.377 2.051-1.752 2.804-5.833l1.313-7.075c12.53-63.74 30.405-73.861 34.563-83.331-4.927 3.03-9.737 9.021-13.298 13.382-1.602 1.964-2.458 2.489-3.98 4.46-14.271 18.474-24.305 54.675-26.01 78.33l4.608.067z" fill="#080604"/><path d="M760.793 577.692c7.329-23.052 11.2-32.213-11.92-49.081-1.951 24.026 15.741 5.514-2.681 46.641 4.665 1.985 9.524 2.015 14.601 2.44z" fill="#fff"/><path d="M204.767 555.835c-4.415-10.889 6.518-16.927 6.111-26.896-14.929 17.279-22.212 20.223-11.897 44.58 14.64-10.623 13.229 2.452 5.786-17.684z" fill="#f66000"/></svg>