<svg xmlns="http://www.w3.org/2000/svg" xml:space="preserve" width="1000" height="1000" style="shape-rendering:geometricPrecision;text-rendering:geometricPrecision;image-rendering:optimizeQuality;fill-rule:evenodd;clip-rule:evenodd"><defs><style>@keyframes rotateAnimation{0%{transform:rotate(0deg)}to{transform:rotate(360deg)}}.fil0{fill:#000}</style></defs><g id="Layer_x0020_1"><path d="M0 0h1000v1000H0z" style="fill:#fff"/><path d="m501 500 405 34 71 8-71-5zm0 0 400 69 71 14-71-11zm0 0 393 104 69 20-70-17zm0 0 382 138 67 26-68-23zm0 0 369 171 64 32-65-30zm0 0 353 203 61 37-63-35zm0 0 333 233 58 42-59-40zm0 0 312 261 54 47-56-45zm0 1 288 286 50 52-52-50zm-1 0 263 310 45 56-47-54zm0 0 235 332 40 59-42-58zm0 0 205 351 35 63-37-61zm0 0 173 368 30 65-32-64zm0 0 141 381 23 68-26-67zm0 0 107 392 17 70-20-69zm0 0 72 400 11 71-14-71zm0 0 37 405 5 71-8-71zm0 0 1 406-1 72-1-72zm0 0-34 405-8 71 5-71zm0 0-69 400-14 71 11-71zm0 0L396 894l-20 69 17-70zm0 0L362 883l-26 67 23-68zm0 0L329 870l-32 64 30-65zm0 0L297 854l-37 61 35-63zm0 0L267 834l-42 58 40-59zm0 0L239 813l-47 54 45-56zm-1 0L213 789l-52 50 50-52zm0-1L189 763l-56 45 54-47zm0 0L167 735l-59 40 58-42zm0 0L148 705l-63 35 62-37zm0 0L131 673l-65 30 64-32zm0 0L118 641l-68 23 67-26zm0 0L107 607l-70 17 69-20zm0 0L99 572l-71 11 71-14zm0 0L94 537l-71 5 71-8zm0 0-406 1-72-1 72-1zm0 0L94 466l-71-8 71 5zm0 0L99 431l-71-14 71 11zm0 0L106 396l-69-20 70 17zm0 0L117 362l-67-26 68 23zm0 0L130 329l-64-32 65 30zm0 0L147 297l-62-37 63 35zm0 0L166 267l-58-42 59 40zm0 0L187 239l-54-47 56 45zm0-1L211 213l-50-52 52 50zm1 0L237 189l-45-56 47 54zm0 0L265 167l-40-59 42 58zm0 0L295 148l-35-63 37 62zm0 0L327 131l-30-65 32 64zm0 0L359 118l-23-68 26 67zm0 0L393 107l-17-70 20 69zm0 0L428 99l-11-71 14 71zm0 0L463 94l-5-71 8 71zm0 0-1-406 1-72 1 72zm0 0 34-405 8-71-5 71zm0 0 69-400 14-71-11 71zm0 0 104-393 20-69-17 70zm0 0 138-382 26-67-23 68zm0 0 171-369 32-64-30 65zm0 0 203-352 37-62-35 63zm0 0 233-333 42-58-40 59zm0 0 261-312 47-54-45 56zm1 0 286-288 52-50-50 52zm0 1 310-263 56-45-54 47zm0 0 332-235 59-40-58 42zm0 0 351-205 63-35-61 37zm0 0 368-173 65-30-64 32zm0 0 381-141 68-23-67 26zm0 0 392-107 70-17-69 20zm0 0 400-72 71-11-71 14zm0 0 405-37 71-5-71 8zm0 0 406-1 72 1-72 1z" class="fil0" style="transform-origin:500px 500px;animation:rotateAnimation 20s linear infinite"/><path d="M483 28a244 244 0 0 0 20 461l-3 12a258 258 0 0 1-55-470l-41 7a244 244 0 0 0 97 450l-1 13A258 258 0 0 1 367 47l-36 12a244 244 0 0 0 168 429l1 13A258 258 0 0 1 296 74l-34 18a244 244 0 0 0 235 396l3 13a258 258 0 0 1-270-388l-31 23a244 244 0 0 0 296 353l5 12a258 258 0 0 1-329-340l-26 28a244 244 0 0 0 348 301l7 11a258 258 0 0 1-379-283l-22 32a244 244 0 0 0 393 241l8 10A258 258 0 0 1 80 283l-16 35a244 244 0 0 0 426 174l10 9A258 258 0 0 1 51 353l-11 38a244 244 0 0 0 449 103l11 7a258 258 0 0 1-467-73l-4 38a244 244 0 0 0 459 30l12 5a258 258 0 0 1-472 2l1 39a244 244 0 0 0 458-44l13 3a258 258 0 0 1-466 78l8 38a244 244 0 0 0 445-117l13 1A258 258 0 0 1 53 653l14 37a244 244 0 0 0 420-188l13-1A258 258 0 0 1 84 723l19 34a244 244 0 0 0 384-253l13-3a258 258 0 0 1-375 286l24 30a244 244 0 0 0 339-311l12-5a258 258 0 0 1-325 342q14 14 30 26a244 244 0 0 0 284-361l11-7a258 258 0 0 1-266 390l34 20a244 244 0 0 0 222-402l10-8a258 258 0 0 1-199 427q17 9 36 15a243 243 0 0 0 154-432l9-10a258 258 0 0 1-128 454l38 9a244 244 0 0 0 83-452l7-11a258 258 0 0 1-54 468l39 3a244 244 0 0 0 10-459l5-12a258 258 0 0 1 22 471l38-3a244 244 0 0 0-63-455l3-13a258 258 0 0 1 97 462l37-10a244 244 0 0 0-135-439l1-13a258 258 0 0 1 169 440l36-15a244 244 0 0 0-204-412l-1-13a258 258 0 0 1 238 407l32-20a244 244 0 0 0-267-375l-3-12a258 258 0 0 1 300 364l28-25a244 244 0 0 0-323-327l-5-12a258 258 0 0 1 354 312l24-30a244 244 0 0 0-371-271l-7-11a258 258 0 0 1 399 251q11-15 20-33a244 244 0 0 0-410-209l-9-9a258 258 0 0 1 435 184l13-36a244 244 0 0 0-438-140l-10-8a258 258 0 0 1 459 113l7-38a244 244 0 0 0-455-69l-11-6a258 258 0 0 1 471 38l1-38a244 244 0 0 0-460 4l-12-4a258 258 0 0 1 471-38l-4-38a244 244 0 0 0-455 78l-12-2a258 258 0 0 1 459-113l-11-36a244 244 0 0 0-435 149h-13a258 258 0 0 1 435-185l-16-34a244 244 0 0 0-407 217l-12 2a258 258 0 0 1 400-252l-21-31a244 244 0 0 0-367 279l-12 4a258 258 0 0 1 355-313l-26-27a244 244 0 0 0-318 334l-11 6a258 258 0 0 1 300-366l-30-23a244 244 0 0 0-260 381l-10 8A258 258 0 0 1 738 92l-34-18a244 244 0 0 0-195 418l-9 9A258 258 0 0 1 669 59l-34-11-2-1a244 244 0 0 0-126 443l-7 11a258 258 0 0 1 96-463l-38-7a244 244 0 0 0-53 458l-5 12a258 258 0 0 1 21-473z" class="fil0" style="transform-origin:500px 500px;animation:rotateAnimation 20s linear infinite reverse"/><ellipse cx="500" cy="498" rx="479" ry="477" style="stroke:#000;stroke-width:16;stroke-miterlimit:2.61313;fill:none"/></g></svg>