<svg xmlns="http://www.w3.org/2000/svg" width="400" height="560" xmlns:v="https://vecta.io/nano"><path d="M0 0h400v560H0z"/><path d="M20 523.73V36.27A10.17 10.17 0 0 1 30.17 26.1h339.66A10.17 10.17 0 0 1 380 36.27v487.45a10.17 10.17 0 0 1-10.17 10.17H30.17A10.16 10.16 0 0 1 20 523.73z" fill="#fc1a05"/><path d="M42 347.35h316v172H42z" fill="#2dae4c"/><path d="M42 44.64h316v473.43H42z" fill="none" stroke="#000" stroke-width="5" stroke-miterlimit="10"/><radialGradient id="A" cx="178.695" cy="230.047" r="153.273" gradientTransform="matrix(1.1328 0 0 0.9786 -5.4203 7.6094)" gradientUnits="userSpaceOnUse"><stop offset="0" stop-color="#065e2e"/><stop offset=".208" stop-color="#065a2c"/><stop offset=".414" stop-color="#054e26"/><stop offset=".619" stop-color="#043a1c"/><stop offset=".823" stop-color="#021f0f"/><stop offset="1"/></radialGradient><path d="M40.82,77.21H358V332.7H40.82V77.21z" fill="url(#A)"/><path d="M25 354.52h0c0-13.25 10.75-24 24-24h302c13.25 0 24 10.75 24 24h0c0 13.25-10.75 24-24 24H49c-13.25 0-24-10.74-24-24z"/><path d="M31.18 355.52v-2a18.5 18.5 0 0 1 18.5-18.5h300.65a18.5 18.5 0 0 1 18.5 18.5v2a18.5 18.5 0 0 1-18.5 18.5H49.68a18.5 18.5 0 0 1-18.5-18.5z" fill="#fc1a05"/><path d="M35.81 354.52h0a16 16 0 0 1 16-16h296.38a16 16 0 0 1 16 16h0a16 16 0 0 1-16 16H51.81a16 16 0 0 1-16-16z" fill="#f3f2e9"/><path d="M25 57.71h0c0-13.25 10.75-24 24-24h302c13.25 0 24 10.75 24 24h0c0 13.25-10.75 24-24 24H49c-13.25 0-24-10.75-24-24z"/><path d="M31.18 58.71v-2a18.5 18.5 0 0 1 18.5-18.5h300.65a18.5 18.5 0 0 1 18.5 18.5v2a18.5 18.5 0 0 1-18.5 18.5H49.68c-10.22 0-18.5-8.29-18.5-18.5z" fill="#fc1a05"/><path d="M35.81 57.71h0a16 16 0 0 1 16-16h296.38a16 16 0 0 1 16 16h0a16 16 0 0 1-16 16H51.81c-8.84 0-16-7.17-16-16z" fill="#f3f2e9"/><text transform="matrix(1.0294 0 0 1 137.7411 69.8684)" font-family="AcademyEngravedLetPlain" font-size="35.163">SAUDI</text><text transform="matrix(.8327 0 0 1 76.271 359.7607)" font-family="ArialMT" font-size="19.648">= 44   Atk = $$$  Spd = 91  Ele = dank</text><g fill="#e30206"><path d="M64.55 363.99l.18-15.82s-4.34-5.6-7.76-1.79c-4.39 4.88 7.58 17.61 7.58 17.61z"/><path d="M64.45 363.72l-.47-15.56h1.27v14.65z"/><path d="M64.55 363.99l.1-15.82s4.34-5.6 7.76-1.79c4.4 4.88-7.86 17.61-7.86 17.61z"/></g><path d="M71.41 518.07l20-46.24h216l20 46.24z"/><path d="M87.91 525.51l10.67-45.06h201.66l11.67 46z" fill="#fc1a05"/><text transform="matrix(1.0294 0 0 1 99.6579 514.8252)" font-family="Impact" font-size="26.924">THE UNPRUNABLES</text><path d="M123.59,182.24h151.77v124.18H123.59V182.24z" fill="#f79c9d"/><g fill="#fff"><path d="M133.76,146.98h131.45v88.78H133.76V146.98z"/><path d="M123.59 170.2h151.77v65.55H123.59V170.2zm22.13-53.86h107.25v30.64H145.72v-30.64zm-34.81 180.28h177v33.9h-177v-33.9z"/></g><path d="M133.17,194.77h132.75v68.08H133.17V194.77z" fill="#065e2e"/><path d="M173.37 262.71h51.94v33.9h-51.94v-33.9z" fill="#0c5e30"/><path d="M173.37 289.81h51.94v6.81h-51.94v-6.81z" fill="#fff"/><path d="M145.72,146.84h107.25v48.34H145.72V146.84z" fill="#005e2b"/><path d="M148.41 163.18l14.17-5.31 36.96 5.58-40.07-14.71-11.06 14.44z"/><path d="M250.27 163.18l-14.17-5.31-36.96 5.58 40.07-14.71 11.06 14.44z"/><path d="M152.33,217.92h94.3v22.47h-94.3V217.92z" fill="#c51d0b"/><path d="M161.36,225h75.95v8.17h-75.95V225z" fill="#fff"/><path d="M199.54 300.84l57.07-38.12H142.34l57.2 38.12z"/><path d="M246.49 209.07h10.12v53.65h-10.12v-53.65zm-104.15 0h10.12v53.65h-10.12v-53.65z"/><path d="M152.35 263.31V253.1h94.17v10.21h-94.17zm-2.56-45.38v-8.85h96.73v8.85h-96.73zm-4.02-75.54v-8.85h107.25v8.85H145.77z"/><path d="M199.41 240.38l-6.75 12.8h13.49l-6.74-12.8z"/><path d="M155.56 165.9h37.1v32h-37.1v-32z" fill="#ab9625"/><path d="M157.86,168.63h32.51v26.55h-32.51V168.63z"/><path d="M206.15 165.9h37.1v32h-37.1v-32z" fill="#ab9625"/><path d="M208.45 168.63h32.51v26.55h-32.51v-26.55zm-15.79-2.73h13.49v16.2h-13.49v-16.2z"/><path d="M248.92 173.94l4.05 4.77v-9.53l-4.05 4.76z" fill="#aa9627"/><path d="M243.25,165.9h9.85v15.93h-9.85V165.9z"/><path d="M248.92 173.94l4.05 4.77v-9.53l-4.05 4.76z" fill="#aa9627"/><path d="M145.72 165.9h9.85v15.93h-9.85V165.9z"/><g fill="#aa9627"><path d="M149.76 173.94l-4.05 4.77v-9.53l4.05 4.76zm49.38-4.91l-2.02 4.08h4.05l-2.03-4.08z"/><path d="M199.14 177.2l-2.02-4.08h4.05l-2.03 4.08z"/></g><path d="M275.36 260.81v-25.6h-5.94l5.94 25.6zm-151.77 0v-25.6h5.94l-5.94 25.6z" fill="#fff"/><g fill="#a61e0f"><path d="M224.64 123.28h17.13v10.21h-17.13v-10.21zm28.33 30.1h12.28v10.21h-12.28v-10.21zm-119.26 0h12.01v10.21h-12.01v-10.21zm0 20.15h12.01v10.21h-12.01v-10.21zm119.26 0h12.28v10.21h-12.28v-10.21z"/><path d="M265.24 170.12h10.12v10.21h-10.12v-10.21zm-141.65-.13h10.12v10.21h-10.12v-10.21zm142.33 20.42h9.44v10.21h-9.44v-10.21zm-142.33 0h9.44v10.21h-9.44v-10.21zm142.33 20.29h9.44v10.21h-9.44V210.7zm-142.33 0h9.44v10.21h-9.44V210.7zm142.33 20.42h9.44v4.77h-9.44v-4.77zm-142.33 2.45h9.44v4.77h-9.44v-4.77z"/><path d="M252.97 194.09h12.95v.68h-12.95v-.68zm-119.8.27h12.55v.68h-12.55v-.68zm57.33-71.08h17.13v10.21H190.5v-10.21zm-34.4 0h17.13v10.21H156.1v-10.21zm51.67-6.94h17.13v6.94h-17.13v-6.94z"/><path d="M173.37 116.34h17.13v6.94h-17.13v-6.94zm-27.65 0h10.39v6.94h-10.39v-6.94zm96.18 0h11.2v6.94h-11.2v-6.94zm-34.13 0h17.13v6.94h-17.13v-6.94z"/><path d="M173.37 116.34h17.13v6.94h-17.13v-6.94zm-27.65 0h10.39v6.94h-10.39v-6.94zm96.18 0h11.2v6.94h-11.2v-6.94zm-34.13 26.01h17.13v4.63h-17.13v-4.63zm-34.4 0h17.13v4.63h-17.13v-4.63zm-27.65 0h10.39v4.63h-10.39v-4.63zm96.18 0h11.2v4.63h-11.2v-4.63z"/></g><path d="M123.59 251.82h2.02l-2.02 8.85v-8.85zm151.77-.14l-2.02.14 2.02 9.4v-9.54z" fill="#a5220f"/><text><tspan font-family="Arial-BoldMT" font-size="30.38" x="85.015" y="414.261">“Wealth comes</tspan><tspan x="106.955" y="450.721" font-family="Arial-BoldMT" font-size="30.38">like a turtle”</tspan></text></svg>