<svg xmlns="http://www.w3.org/2000/svg" width="512" height="512" shape-rendering="geometricPrecision" image-rendering="optimizeQuality" fill-rule="evenodd" xmlns:v="https://vecta.io/nano"><path d="M0 0h512v512H0z" fill="#063"/><path d="M11.08 11.08h489.84v489.84H11.08z" stroke="#063" stroke-width="2" stroke-miterlimit="2.61313" fill="#c30"/><path d="M11.08 11.08c8.82 5.62 15.39 12.4 26.14 15.54 37.54 10.96 42.47 36.27 41.89 42.49 11.48.49 25.21 8.13 30.05 18.69 3.17 4.55 71.42-7.77 73.46 46.73.74 19.87-20.67 13.85-5.2 27.75 8.42 7.58 11.5 46.8-6.94 64.45 3.62 7.74 1.78 12.51-4.9 15.33 7.42 19.32 60.63 37.53 52.65 82.44-2.39 13.46 28.68 3.8 12.85 33.46-6.39 11.96-24.95-1.05-14.09 14.43 18.06 25.73-33.28 33.42-41.6 48.2-24.33 43.22-89.23 35.94-127.77 47.23-34.14 10.01-30.37 20.01-36.35 33.35-.58 1.28.81-1.31 0 0l-.19-490.09zm489.74 233.09l.1 256.75c-8.84-15.03 3.65-22.13-31.76-33.1-36.47-11.29-97.9-4.01-120.93-47.23-7.87-14.78-56.47-22.47-39.38-48.2 10.28-15.48-7.29-2.47-13.34-14.43-14.98-29.66 14.43-20 12.17-33.46-7.55-44.91 42.81-63.12 49.83-82.44-6.32-2.82-8.06-7.59-4.64-15.33-17.45-17.65-14.54-56.87-6.56-64.45 14.63-13.9-5.62-7.88-4.92-27.75 1.92-54.5 66.52-42.18 69.52-46.73 4.59-10.56 17.58-18.2 28.44-18.69-.55-6.22 4.12-31.53 39.65-42.49 10.18-3.14 13.39-10.17 21.73-15.79l.09 233.34z" fill="#063"/></svg>