<svg xmlns="http://www.w3.org/2000/svg" width="16" height="6" fill="none" xmlns:v="https://vecta.io/nano"><g clip-path="url(#A)"><g fill="#d53c5e"><path d="M3 1h1v1H3z"/><path d="M3 0h6v1H3zM0 2h3v1H0zm9 0h1v1H9z"/><path d="M0 3h1v2H0zm3-1h1v3H3zm5-1h1v5H8z"/></g><path fill="#000" d="M6 1h2v4H6z"/><path fill="#fff" d="M4 1h2v4H4z"/><g fill="#d53c5e"><path d="M3 5h5v1H3zm7-4h1v1h-1z"/><path d="M10 0h6v1h-6zm0 2h1v3h-1z"/><path d="M15 1h1v5h-1z"/></g><path fill="#000" d="M13 1h2v4h-2z"/><path fill="#fff" d="M11 1h2v4h-2z"/><path fill="#d53c5e" d="M10 5h5v1h-5z"/></g><defs><clipPath id="A"><path fill="#fff" d="M0 0h16v6H0z"/></clipPath></defs></svg>