<?xml version="1.0" encoding="UTF-8" standalone="no"?>
<!DOCTYPE svg PUBLIC "-//W3C//DTD SVG 1.1//EN" "http://www.w3.org/Graphics/SVG/1.1/DTD/svg11.dtd">
<svg width="100%" height="100%" viewBox="0 0 261 261" version="1.1" xmlns="http://www.w3.org/2000/svg" xmlns:xlink="http://www.w3.org/1999/xlink" xml:space="preserve" xmlns:serif="http://www.serif.com/" style="fill-rule:evenodd;clip-rule:evenodd;stroke-linejoin:round;stroke-miterlimit:2;">
    <rect id="Artboard1" x="0" y="0" width="261" height="261" style="fill:none;"/>
    <clipPath id="_clip1">
        <rect id="Artboard11" serif:id="Artboard1" x="0" y="0" width="261" height="261"/>
    </clipPath>
    <g clip-path="url(#_clip1)">
        <rect x="0.002" y="0" width="261" height="261"/>
        <g transform="matrix(2.56324,0,0,2.56324,-98.143,-2436.5)">
            <path d="M97.283,1018.59L89.722,1022.3L89.722,994.423L97.283,990.713L97.283,1018.59ZM107.548,1013.55L99.987,1017.26L99.987,989.383L107.543,985.673L107.548,985.673L107.548,1013.55ZM110.252,1012.22L110.252,984.343L117.813,980.633L117.813,1008.51L110.252,1012.22Z" style="fill:white;"/>
        </g>
        <g transform="matrix(2.56324,0,0,2.56324,-98.143,-2436.55)">
            <path d="M87.086,1014.8L87.086,1022.3L59.03,1008.53L59.03,1001.03L87.086,1014.8ZM87.086,1004.61L87.086,1012.11L59.03,998.34L59.03,990.84L87.086,1004.61ZM87.086,994.42L87.086,1001.93L59.03,988.16L59.03,980.65L87.086,994.42Z" style="fill:rgb(255,149,0);"/>
        </g>
        <g transform="matrix(1.85522,0,0,1.85522,-161.115,-185.315)">
            <path d="M191.998,189.381C189.331,189.381 187.265,191.559 187.265,194.142C187.265,196.724 189.317,198.874 191.97,198.874C194.636,198.874 196.716,196.697 196.716,194.114C196.716,191.517 194.65,189.381 191.998,189.381ZM191.97,197.604C190.029,197.604 188.536,196.04 188.536,194.142C188.536,192.243 190.043,190.652 191.998,190.652C193.938,190.652 195.446,192.215 195.446,194.114C195.446,196.012 193.938,197.604 191.97,197.604ZM193.966,193.318C193.966,192.355 193.296,191.796 192.137,191.796L190.183,191.796L190.183,196.124L191.453,196.124L191.453,194.951L192.096,194.951L192.682,196.124L194.12,196.124L193.226,194.714C193.701,194.449 193.966,193.974 193.966,193.318ZM191.453,193.988L191.453,192.76L192.137,192.76C192.528,192.76 192.752,192.983 192.752,193.374C192.752,193.765 192.528,193.988 192.137,193.988L191.453,193.988Z" style="fill:rgb(255,149,0);fill-rule:nonzero;"/>
        </g>
    </g>
</svg>
