<svg xmlns="http://www.w3.org/2000/svg" width="400" height="560" xmlns:v="https://vecta.io/nano"><path d="M0 0h400v560H0z"/><path d="M20 523.73V36.27A10.17 10.17 0 0 1 30.17 26.1h339.66A10.17 10.17 0 0 1 380 36.27v487.45a10.17 10.17 0 0 1-10.17 10.17H30.17A10.16 10.16 0 0 1 20 523.73z" fill="#fc1a05"/><path d="M42 347.35h316v172H42z" fill="#90d42f"/><path d="M42 44.64h316v473.43H42z" fill="none" stroke="#000" stroke-width="5" stroke-miterlimit="10"/><radialGradient id="A" cx="181.888" cy="230.783" r="155.629" gradientTransform="matrix(1.1328 0 0 0.9786 -5.4203 7.6094)" gradientUnits="userSpaceOnUse"><stop offset="0" stop-color="#36a2cb"/><stop offset=".156" stop-color="#2f8db1"/><stop offset=".491" stop-color="#1e596f"/><stop offset=".974" stop-color="#020506"/><stop offset="1"/></radialGradient><path d="M40.82,77.21H358V332.7H40.82V77.21z" fill="url(#A)"/><path d="M25 354.52h0c0-13.25 10.75-24 24-24h302c13.25 0 24 10.75 24 24h0c0 13.25-10.75 24-24 24H49c-13.25 0-24-10.74-24-24z"/><path d="M31.18 355.52v-2a18.5 18.5 0 0 1 18.5-18.5h300.65a18.5 18.5 0 0 1 18.5 18.5v2a18.5 18.5 0 0 1-18.5 18.5H49.68a18.5 18.5 0 0 1-18.5-18.5z" fill="#fc1a05"/><path d="M35.81 354.52h0a16 16 0 0 1 16-16h296.38a16 16 0 0 1 16 16h0a16 16 0 0 1-16 16H51.81a16 16 0 0 1-16-16z" fill="#f3f2e9"/><path d="M25 57.71h0c0-13.25 10.75-24 24-24h302c13.25 0 24 10.75 24 24h0c0 13.25-10.75 24-24 24H49c-13.25 0-24-10.75-24-24z"/><path d="M31.18 58.71v-2a18.5 18.5 0 0 1 18.5-18.5h300.65a18.5 18.5 0 0 1 18.5 18.5v2a18.5 18.5 0 0 1-18.5 18.5H49.68c-10.22 0-18.5-8.29-18.5-18.5z" fill="#fc1a05"/><path d="M35.81 57.71h0a16 16 0 0 1 16-16h296.38a16 16 0 0 1 16 16h0a16 16 0 0 1-16 16H51.81c-8.84 0-16-7.17-16-16z" fill="#f3f2e9"/><text transform="matrix(1.0294 0 0 1 90.3376 69.8683)" font-family="AcademyEngravedLetPlain" font-size="35.163">THE VISION</text><text transform="matrix(.8327 0 0 1 69.8266 359.7602)" font-family="ArialMT" font-size="19.648">= ?   Atk = 100  Spd = 79  Ele = unknown</text><g fill="#e30206"><path d="M58.11 363.99l.18-15.82s-4.34-5.6-7.76-1.79c-4.4 4.88 7.58 17.61 7.58 17.61z"/><path d="M58 363.72l-.46-15.56h1.27v14.65z"/><path d="M58.11 363.99l.1-15.82s4.34-5.6 7.76-1.79c4.4 4.88-7.86 17.61-7.86 17.61z"/></g><path d="M71.41 518.07l20-46.24h216l20 46.24z"/><path d="M87.91 525.51l10.67-45.06h201.66l11.67 46z" fill="#fc1a05"/><text transform="matrix(1.0294 0 0 1 99.6579 514.8252)" font-family="Impact" font-size="26.924">THE UNPRUNABLES</text><g fill="#36a2cb"><path d="M278.74 303.08c4.73 4.85 0 27.44 0 27.44H137.85s-4.19-22.04 0-27.44c22.12-28.11 115.98-25.57 140.89 0zm-114.15-95.23c15.36-16.42 73.45-18.08 87.09 0 6.98 9.15 8.48 39.57 0 47.06-16.75 14.77-71.52 16.31-87.09 0-7.95-8.15-7.84-38.68 0-47.06z"/><path d="M187.57 258.33h41.34v72.19h-41.34v-72.19zM165.66 131.8c15.14-21.05 71.95-23.15 85.37 0 8.7 14.99 0 77.15 0 77.15h-85.37c0-.11-9.77-63.59 0-77.15z"/></g><path d="M179.19 249.29c-3.22-4.63-3.54-21.82 0-25.9 11.28-13.01 48.75-16.09 57.99 0 2.9 4.96 3.22 21.27 0 25.9-10.09 14.77-47.78 14.66-57.99 0z" fill="#fc2812"/><path d="M182.74 244.22c-1.93-2.76-2.04-12.9 0-15.32 9.67-11.13 41.67-13.67 49.61 0 1.72 2.98 1.83 12.56 0 15.32-8.7 12.68-40.91 12.57-49.61 0z"/><path d="M238.04,322.8h8.05v7.72h-8.05V322.8z" fill="#2c7894"/><path d="M170.39,322.8h8.05v7.72h-8.05V322.8z" fill="#2b7795"/><path d="M240.41 190.88v-21.71h14.28l-1.29 21.05-12.99.66zm-65.3-1.44v-21.71h-13.64l1.29 21.05 12.35.66z"/><ellipse cx="208.3" cy="179.08" rx="30.28" ry="25.68" opacity=".788" enable-background="new"/><ellipse cx="208.08" cy="178.53" rx="33.08" ry="27.22" fill="none" stroke="#000" stroke-width="5.44"/><g opacity=".49"><path d="M208.3,153.4l-19.54,25.68h39.2L208.3,153.4z" fill="#147876"/><path d="M208.3 204.76l19.65-25.68h-39.2l19.55 25.68z"/></g><ellipse cx="208.08" cy="178.53" rx="30.28" ry="23.7" fill="none" stroke="#7d8282" stroke-width="5.44"/><g fill="#2c322e"><path d="M355.28 327.85H344h0v.99h0 11.28 0v-.99h0zm.53-2.98h-12.35v2.53h12.35v-2.53z"/><path d="M351.09 317.49h-3.01v7.49h3.01v-7.49z"/><path d="M349.58 314.51l-3.22 2.2 1.29 3.64h4.08l1.29-3.64c-.11.01-3.44-2.2-3.44-2.2zm0 10.47l1.4 1.32 1.5-1.32-1.4-1.32-1.5 1.32zm-1.39-1.32l-1.4 1.21 1.5 1.32 1.4-1.21-1.5-1.32h0z"/></g><text><tspan font-family="Arial-BoldMT" font-size="30.38" x="51.436" y="414.261">“You’re the universe</tspan><tspan x="59.036" y="450.721" font-family="Arial-BoldMT" font-size="30.38">experiencing itself”</tspan></text></svg>