<?xml version="1.0" encoding="utf-8"?>
<!-- Generator: Adobe Adobe Illustrator 24.2.0, SVG Export Plug-In . SVG Version: 6.00 Build 0)  -->
<svg version="1.1" id="Layer_1" xmlns="http://www.w3.org/2000/svg" xmlns:xlink="http://www.w3.org/1999/xlink" x="0px" y="0px"
	 width="20px" height="24px" viewBox="0 0 20 24" style="enable-background:new 0 0 20 24;" xml:space="preserve">
<style type="text/css">
	.st0{fill:#EF7E23;}
	.st1{fill:#DCC02C;}
	.st2{fill:url(#SVGID_1_);stroke:#000000;stroke-miterlimit:10;}
	.st3{fill:url(#SVGID_2_);stroke:#000000;stroke-miterlimit:10;}
	.st4{fill:#191212;}
	.st5{fill:#B58976;}
	.st6{fill:#6492A6;}
	.st7{fill:#6592A6;}
	.st8{fill:#181714;}
	.st9{fill:#7D4A3A;}
	.st10{fill:#898483;}
	.st11{fill:#FFFFFF;}
	.st12{fill:#1B692F;}
	.st13{fill:#272727;}
	.st14{font-family:'AcademyEngravedLetPlain';}
	.st15{font-size:0.3814px;}
</style>
<rect class="st0" width="20" height="24"/>
<rect x="1.5" y="1.25" class="st1" width="17" height="21.5"/>
<linearGradient id="SVGID_1_" gradientUnits="userSpaceOnUse" x1="6.8935" y1="8.3607" x2="19.9227" y2="16.9617">
	<stop  offset="0" style="stop-color:#FF290C"/>
	<stop  offset="1" style="stop-color:#CEEB2D"/>
</linearGradient>
<path class="st2" d="M5.79,3.35l0.02,2.03L5.24,5.39l0.04,7.44c0,0,3.52,5.28,5.66,6.03c0.93,0.32,3.14,0.34,4.04-0.03
	c0.48-0.2,1.32-0.85,1.5-1.26c0.25-0.59,0.41-1.95,0.04-2.49c-0.71-1.05-4.64-2.9-4.64-2.9l-0.02-6.75l-0.48,0l-0.04-2.05L5.79,3.35
	z"/>
<g>
	<linearGradient id="SVGID_2_" gradientUnits="userSpaceOnUse" x1="5.0013" y1="9.8798" x2="18.1803" y2="18.5797">
		<stop  offset="0" style="stop-color:#FF290C"/>
		<stop  offset="1" style="stop-color:#CEEB2D"/>
	</linearGradient>
	<path class="st3" d="M3.83,4.9l0.02,2.03L3.26,6.93l0.04,7.44c0,0,3.6,5.28,5.78,6.03c0.95,0.32,3.21,0.34,4.13-0.03
		c0.49-0.2,1.35-0.85,1.53-1.26c0.26-0.59,0.42-1.95,0.04-2.49c-0.72-1.05-4.74-2.9-4.74-2.9l-0.02-6.75l-0.49,0L9.5,4.91L3.83,4.9z
		"/>
	<path class="st4" d="M5.32,12.65L5.2,12.99l1.16,0.83l0.79-0.15c0,0,0.37-0.47,0.38-0.51s-0.15-0.19-0.15-0.19L5.32,12.65z"/>
	<path class="st5" d="M5.29,12.75c0.11,0.09,0.29,0.21,0.36,0.28c0.06,0.06,0.25,0.27,0.31,0.34c0.06,0.06,0.17,0.21,0.24,0.26
		c0.02,0.02,0.08,0.05,0.11,0.06c0.13,0.03,0.42,0.04,0.55-0.01c0.06-0.03,0.16-0.12,0.2-0.17c0.09-0.11,0.21-0.45,0.36-0.45
		c0.15,0,0.3,0.32,0.33,0.45c0.03,0.12,0.17,0.46,0.04,0.49c-0.89,0.21-1.81,0.23-2.7-0.01c-0.2-0.05-0.32-0.54-0.32-0.73"/>
	<path class="st6" d="M7.52,12.85c-0.11,0.04-0.22,0.33-0.16,0.42c0.03,0.04,0.15,0.03,0.18,0.06c0.1,0.11-0.05,0.47,0.05,0.58
		c0.26,0.27,1.43,0.36,1.54,0.02c0.05-0.16-0.33-0.41-0.49-0.49c-0.14-0.06-0.44-0.13-0.57-0.21c-0.07-0.04-0.17-0.15-0.23-0.21
		C7.79,12.97,7.61,12.82,7.52,12.85z"/>
	<path class="st7" d="M4.67,12.82c-0.09,0.07-0.26,0.22-0.33,0.32c-0.04,0.06-0.12,0.2-0.12,0.27c0.01,0.15,0.12,0.46,0.25,0.54
		c0.16,0.09,0.9,0.25,0.98,0.1c0.07-0.14-0.21-0.23-0.26-0.38c-0.01-0.04,0.01-0.15,0.03-0.18c0.1-0.1,0.33-0.31,0.41-0.43
		c0.04-0.06-0.22-0.21-0.26-0.27c-0.05-0.07-0.17-0.23-0.26-0.23C4.99,12.54,4.77,12.74,4.67,12.82z"/>
	<path class="st5" d="M5.03,12.5L4.7,9.51L7.08,8.6l1.24,1.05L7.8,12.27c0,0-0.07,0.28-0.1,0.37c-0.02,0.06-0.1,0.16-0.14,0.2
		c-0.08,0.09-0.3,0.24-0.37,0.34c-0.04,0.06-0.09,0.19-0.13,0.25C7.02,13.5,6.9,13.6,6.83,13.63c-0.15,0.06-0.49,0.03-0.63-0.04
		c-0.07-0.03-0.13-0.17-0.18-0.23c-0.08-0.1-0.23-0.3-0.32-0.39C5.56,12.83,5.03,12.5,5.03,12.5z"/>
	<path class="st8" d="M5.88,12.32c-0.01-0.02-0.01-0.08,0.01-0.1c0.02-0.02,0.08-0.04,0.1-0.03c0.04,0.02,0.06,0.1,0.09,0.13
		c0.04,0.04,0.15,0.09,0.21,0.1c0.2,0.04,0.62,0.03,0.82,0c0.03,0,0.09-0.03,0.11-0.03c0.02,0,0.06,0.03,0.06,0.05
		c0,0.02-0.04,0.05-0.05,0.06c-0.21,0.07-0.67,0.04-0.88,0.01c-0.08-0.01-0.23-0.04-0.3-0.07C6,12.43,5.9,12.37,5.88,12.32z"/>
	<path class="st9" d="M6.45,11.68c-0.02,0.01-0.02,0.07-0.02,0.09c0.01,0.02,0.02,0.05,0.04,0.06c0.09,0.05,0.31,0.05,0.42,0.02
		c0.02-0.01,0.06-0.02,0.08-0.03c0.01-0.02,0.02-0.06,0.01-0.07c-0.01-0.17-0.04-0.53-0.14-0.68c-0.01-0.01-0.03-0.03-0.04-0.03
		c-0.01,0-0.03,0.03-0.03,0.05c-0.01,0.13,0.09,0.38,0.11,0.51c0,0.03,0,0.08-0.01,0.11c-0.01,0.02-0.03,0.06-0.05,0.06
		c-0.04,0.02-0.14,0-0.19-0.02C6.6,11.73,6.49,11.66,6.45,11.68z"/>
	<path class="st10" d="M5.28,12.65c0.05-0.11-0.14-0.4-0.16-0.51c-0.02-0.12,0.05-0.36,0.03-0.48c-0.01-0.09-0.17-0.29-0.19-0.39
		c-0.04-0.19,0.02-0.43,0.09-0.62c0.03-0.07,0.1-0.32,0.14-0.39c0.07-0.13,0.07-0.48,0.17-0.6c0.2-0.26,0.72-0.28,1.02-0.43
		C6.44,9.21,6.64,9.12,6.7,9.12c0.06,0,0.41,0.22,0.41,0.22S7.59,9.5,7.8,9.64C7.83,9.66,7.94,9.8,7.96,9.83
		c0.07,0.1,0.06,0.1,0.06,0.22c0,0.4-0.03,1.21-0.12,1.61c-0.02,0.1-0.1,0.28-0.13,0.38c-0.02,0.07-0.09,0.22-0.05,0.28
		c0.04,0.06,0.2,0.11,0.27,0.08c0.12-0.05,0.19-0.33,0.29-0.41c0.09-0.08,0.31-0.07,0.4-0.15c0.08-0.06,0.11-0.27,0.11-0.37
		c0-0.14,0.03-0.42-0.03-0.55c-0.04-0.09-0.15-0.25-0.18-0.35c-0.03-0.12,0-0.38,0-0.51C8.58,9.97,8.55,9.79,8.52,9.7
		c-0.05-0.12-0.2-0.35-0.29-0.45C8.01,9.03,7.54,8.59,7.26,8.45C7.14,8.39,6.88,8.31,6.75,8.3C6.55,8.29,6.17,8.29,5.98,8.34
		C5.71,8.41,5.18,8.63,4.97,8.8C4.72,9,4.26,9.49,4.19,9.79c-0.04,0.19,0.13,0.57,0.11,0.76c-0.01,0.07-0.1,0.17-0.13,0.24
		c-0.06,0.16-0.1,0.49-0.06,0.66c0.01,0.06,0.07,0.17,0.11,0.22c0.07,0.08,0.28,0.19,0.33,0.29c0.06,0.11,0,0.38,0,0.5
		c0,0.11-0.06,0.38,0.04,0.44C4.72,12.97,5.21,12.79,5.28,12.65z"/>
	<path class="st11" d="M7.25,10.78l-0.29,0.01c0,0,0,0.09,0.02,0.11c0.01,0.02,0.05,0.04,0.06,0.05c0.02,0.01,0.07,0.02,0.09,0.02
		c0.11,0.01,0.12,0,0.12,0L7.25,10.78z"/>
	<path class="st11" d="M6,10.78l-0.27,0.01c0,0,0,0.09,0.02,0.11c0.01,0.02,0.04,0.04,0.06,0.05c0.02,0.01,0.06,0.02,0.08,0.02
		c0.11,0.01,0.12,0,0.12,0L6,10.78z"/>
	<path class="st12" d="M7.23,10.8c0.06-0.06,0.3-0.07,0.35-0.01c0.03,0.03,0.05,0.17,0,0.17c-0.13,0.02-0.22,0.01-0.33,0.01
		C7.21,10.97,7.2,10.83,7.23,10.8z"/>
	<path class="st12" d="M6,10.8c0.06-0.06,0.3-0.07,0.35-0.01c0.03,0.03,0.05,0.17,0,0.17c-0.13,0.02-0.22,0.01-0.33,0.01
		C5.97,10.97,5.97,10.83,6,10.8z"/>
	<path class="st13" d="M6.92,10.81c-0.06,0-0.04-0.18,0-0.21c0.14-0.11,0.6-0.13,0.71,0c0.04,0.04,0.06,0.21,0,0.21
		C7.35,10.81,7.21,10.81,6.92,10.81z"/>
	<path class="st13" d="M5.68,10.81c-0.06,0-0.04-0.18,0-0.21c0.14-0.11,0.6-0.13,0.71,0c0.04,0.04,0.06,0.21,0,0.21
		C6.12,10.81,5.97,10.81,5.68,10.81z"/>
</g>
<text transform="matrix(1 0 0 1 16.0145 22.5286)" class="st14 st15">HNFT PEPE</text>
</svg>
