<svg xmlns="http://www.w3.org/2000/svg" viewBox="0 0 24 24" xmlns:v="https://vecta.io/nano"><path d="M0 0h24v24H0z" fill="#900"><animate attributeType="XML" attributeName="fill" from="red" to="blue" dur="0.02s" repeatCount="indefinite"/></path><path d="M22 8V7 6h-1V5h-1V4h-1V3h-1V2h-1-1-1-1-1-1-1-1-1-1-1v1H6v1H5v1H4v1H3v1 1H2v1 1 1 1 1 1h1v1 1 1h1 1v1h1 1v1 1h1v1 1h1v-1-1h1v1 1h1v-1-1h1v1 1h1v-1-1h1v1 1h1v-1-1h1v1 1h1v-1-1h1v-1-1h1 1v-1h1 1v-1-1-1h1v-1-1-1-1-1-1z" fill="#fff"/><path d="M9 6h1v1H9zm0 2h1v1H9zm3-1v1 1 1h1V9 8 7 6h1V5h-1-1-1v1h1zm4 1V7 6h-1v1 1 1h1z"/><path d="M17 7h1V6 5h-1-1v1h1zm0 3h1V9 8h-1v1h-1v1zm-6 3h-1v-1H9 8 7 6v1H5v1 1h1v1h1v1h1 1v-1h1v-1-1h1zm2 1h-1v1h-1v1 1 1h1v-1h1v1h1v-1-1-1h-1zm6-1v-1h-1-1-1-1v1h-1v1h1v1 1h1v1h1 1v-1h1v-1h1v-1-1zM9 10V9H8V8h1V7H8V6h1V5H8 7v1 1 1 1 1h1z"/></svg>