<svg xmlns="http://www.w3.org/2000/svg" viewBox="0 0 2080 1260"><g data-name="Layer 2"><g data-name="Layer 1"><path d="M1120 680a10 10 0 00 10 20c60 10 420 100 740 0 350-110 190-460 0-370-160 70-60 170 20 180a20 20 0 00 20-30c-20-30-50-70-10-90 50-20 180 80 90 180s-340 110-500 60c-120-40-300-170-350-230a10 10 0 00-30 0Zm-160 0a10 10 0 01-10 20c-60 10-420 100-740 0-350-110-190-460 0-370 160 70 60 170-20 180a20 20 0 01-20-30c20-30 50-70 10-90-50-20-180 80-90 180s340 110 500 60c120-40 290-170 350-230a10 10 0 01 30 0Zm230 340a10 10 0 00-10 10l-30 120a10 10 0 01-20 0v-10a10 10 0 00-10 0l-60 120a10 10 0 01-20 0l-60-110a10 10 0 00-10 0v10a10 10 0 01-20 0l-30-120a10 10 0 00-10 0 10 10 0 01-10 0c-30-80-10-170 40-200 50-50 150-50 200-20 60 30 80 100 60 200a10 10 0 01-10 0Z"/><path d="M1710 40c-10-30-100-40-130-40h-20v20a10 10 0 01-20 0V0h-50l10 20a10 10 0 11-20 10l-10-20h-40v10a10 10 0 01-10 10 10 10 0 01-10 0V10h-40l10 40a10 10 0 01-20 0l-10-40h-40v10a10 10 0 01-20 10V10l-40 10 10 50a10 10 0 01-20 0l-10-50h-40l10 20a10 10 0 01-20 10l-10-30h-50l10 70a10 10 0 01-20 0l-20-70-40 10 10 20a10 10 0 11-20 10l-10-30c-50 10-80 60-80 110v50a140 140 0 00 10 10c20 60 70 100 140 80l40-10 140-50 180-50 140-50h20c40-20 90-50 90-80Z" fill="#f8993a"/></g></g></svg>
