<svg xmlns="http://www.w3.org/2000/svg" width="16" height="16"><path fill="#bfef45" d="M0 0h16v16H0z"/><path fill="#3162a6" d="M14.7 1.3H1.3v13.4h13.4V1.3Z"/><path fill="#ffcc1a" d="M3.996 7.69a4.02 4.02 0 1 0 8.044 0 4.02 4.02 0 0 0-8.044 0z"/><path fill="#dce9eb" d="M11.928 14.7v-1.703c0-.941-1.759-1.703-3.93-1.703s-3.93.762-3.93 1.703V14.7h7.86z"/><path fill="#f4ae92" d="M6.67 9.965v1.349a1.348 1.348 0 1 0 2.696 0V9.965H6.669Z"/><path fill="#ffc5ae" d="m6.696 8.462-.51 1.904H9.37l.55-2.99v.001a1.928 1.928 0 1 0-3.223 1.085h-.001Z"/><path fill="none" stroke="#5d412b" stroke-linecap="square" stroke-width=".069" d="M8.993 7.042c-.24-.24-.844-.254-.95.082m-1.752.109c0-.178.244-.322.544-.322s.514.148.514.75"/><g fill="#fff"><path d="M7.128 7.408a.366.366 0 1 0-.73 0h.73Zm1.681 0a.366.366 0 1 0-.732 0h.732Z"/><path stroke="#fc3f46" stroke-width=".095" d="M6.82 8.516a.75.75 0 1 0 1.5 0h-1.5Z"/></g><path fill="#222326" d="M6.716 7.35a.128.128 0 1 0-.255 0h.255Zm1.677 0a.128.128 0 1 0-.255 0h.255Z"/></svg>