<?xml version="1.0" encoding="UTF-8"?><svg enable-background="new 0 0 500 680" version="1.0" viewBox="0 0 500 680" xml:space="preserve" xmlns="http://www.w3.org/2000/svg"><!-- ✦A*R*T*C*O*P*S✦ [A] Santiago Itzcoatl --><rect width="500" height="680" fill="#27A"/><circle cx="250" cy="420" r="225" fill="#C93"/><circle cx="250" cy="420" r="210" fill="#AC2"/><rect x="25" y="420" width="450" height="225" fill="#C93"/><rect x="40" y="420" width="420" height="210" fill="#E24"/><rect x="178" y="278" width="194" height="94" fill="#256"/><rect x="188" y="288" width="174" height="74" fill="#D32"/><polygon points="40 420 460 420 362 468 188 468" fill="#277"/><polygon points="40 630 460 630 362 542 188 542" fill="#27A"/><rect x="188" y="468" width="174" height="74" fill="#4C6"/><rect x="280" y="384" width="28" height="111" fill="#006"/><rect x="394" y="402" width="28" height="111" fill="#006"/><polygon points="90.057 574.782 123.227 550.683 156.397 574.782 143.727 613.775 102.727 613.775" fill="#376"/><polygon points="90.057 574.782 115.934 575.522 123.227 550.683 130.520 575.522 156.397 574.782 135.027 589.393 143.727 613.775 123.227 597.966 102.727 613.775 111.427 589.393" fill="#653"/><polygon points="202.557 316.782 228.434 317.522 235.727 292.683 243.020 317.522 268.897 316.782 247.527 331.393 256.227 355.775 235.727 339.966 215.227 355.775 223.927 331.393" fill="#653"/></svg>
