<svg xmlns="http://www.w3.org/2000/svg" xml:space="preserve" id="Layer_1" width="2000" height="900" x="0" y="0" version="1.1"><style>.st0{fill:#8c8c81}.st0,.st1{stroke:#c5c4a5;stroke-width:3;stroke-miterlimit:10}.st1,.st2{fill:#484745}.st3{fill:#595f44;stroke:#c5c4a5;stroke-width:2.4043;stroke-miterlimit:10}.st5{fill:#c5c4a5}.st6{fill:#8c8c81;stroke:#c5c4a5;stroke-width:3.5048;stroke-miterlimit:10}</style><ellipse cx="528" cy="98" class="st0" rx="83" ry="38"/><path d="M510 112V85q2-16 18-18 18 2 19 18v27c0 10-8 19-19 19-10 0-18-9-18-19z" class="st1"/><path d="M280 61s92-4 121 2c14 3 33 10 35 23 2 12-6 19-15 22-14 6-53 4-69 8l-10 6q-1 4 4 7c18 4 51 3 69 1q7-1 11-4l7-9h6v19l-163 1s-4-23-1-30c2-4 10-11 15-14 7-3 24-6 33-7 13-1 40 1 51-2q6-3 6-7-1-4-9-7c-15-4-51-3-67-1-3 1-10 3-12 5-3 2-6 9-6 9h-7zM91 61v2s10 1 13 3c3 1 9 4 9 7l1 29h79v22l-8 7-8 3-9 1v2h94l-1-2-8-1-10-4q-4-3-4-6l-1-51q1-3 6-5 4-3 7-3l11-1v-3z" class="st0"/><path d="M161 72h33v24h-33zm16-8c-6 0-16 8-16 8h32s-11-8-16-8" class="st2"/><ellipse cx="1776" cy="98" class="st0" rx="83" ry="38"/><path d="M1758 112V85q2-16 18-18 18 2 19 18v27c0 10-8 19-19 19-10 0-18-9-18-19z" class="st1"/><path d="M1528 61s92-4 121 2c14 3 33 10 35 23 2 12-6 19-15 22-14 6-53 4-69 8l-10 6q-1 4 4 7c18 4 51 3 69 1q7-1 11-4l7-9h6v19l-163 1s-4-23-1-30c2-4 10-11 15-14 7-3 24-6 33-7 13-1 40 1 51-2q6-3 6-7-2-4-9-7c-15-4-51-3-67-1-3 1-10 3-12 5-3 2-6 9-6 9h-7zm-189 0v2s10 1 13 3c3 1 9 4 9 7l1 29h79v22l-8 7-8 3-9 1v2h94l-1-2-8-1-10-4-4-6-1-51q2-3 6-5 4-3 7-3l11-1v-3z" class="st0"/><path d="M1409 72h33v24h-33zm16-8c-6 0-16 8-16 8h32s-11-8-16-8" class="st2"/><ellipse cx="1778" cy="692" class="st3" rx="53" ry="38"/><path d="M1766 713v-41q1-11 12-12 11 1 12 12v41q-1 10-12 11-10-1-12-11z" style="fill:#c5c4a5;stroke:#c5c4a5;stroke-width:2.4043;stroke-miterlimit:10"/><path d="M1619 654s59-3 77 3c9 3 21 10 23 22q0 18-9 23c-10 6-35 4-45 8l-6 6q-1 4 2 7c11 3 33 2 45 1q4-1 6-5l5-8h4v19h-105s-2-22 0-30c1-4 6-11 9-13 4-4 16-7 21-7 8-2 26 1 33-2l4-8q-1-4-6-7c-9-4-32-2-43 0l-8 4c-2 2-3 10-3 10h-5zm-122 0v3l9 2q5 3 6 7v29l51 1v21l-5 7-5 4h-6v2h60v-2l-6-1q-3 0-6-4l-3-6v-51l3-5 5-3 7-1v-3z" class="st3"/><path d="M1542 665h21v24h-21zm10-8c-3 0-10 8-10 8h21s-7-8-11-8" class="st5"/><ellipse cx="468" cy="762" class="st6" rx="66" ry="65"/><path d="M454 803v-81q1-13 14-14 13 1 15 14v81q-1 13-15 15-13-1-14-15z" style="fill:#484745;stroke:#c5c4a5;stroke-width:3.5048;stroke-miterlimit:10"/><path d="M454 731v-9q1-13 14-14 13 1 15 14v9q-1 14-15 15-13-1-14-15z" style="fill:#c5c4a5;stroke:#c5c4a5;stroke-width:2.0607;stroke-miterlimit:10"/><path d="M454 748v-21l1-2h26l2 2v21l-2 2h-25q-2 0-2-2z" style="fill:#c5c4a5;stroke:#c5c4a5;stroke-width:1.6721;stroke-miterlimit:10"/><path d="M270 698s74-6 96 4c12 5 27 18 29 38q0 31-12 40c-11 9-43 6-55 13q-6 4-8 10c-1 3 0 10 3 12 14 6 40 4 55 2q6-2 8-8l6-14h5v32l-130 1s-3-39-1-52c2-6 8-18 13-23s19-11 26-12c10-2 32 2 40-3 3-2 5-10 5-13q-1-7-7-12c-12-7-40-5-53-1q-6 3-10 8c-2 3-5 17-5 17h-5zm-150 0v4s8 2 10 4q6 4 8 13v49h63v38l-6 12-6 5-7 1v4h74v-4l-7-1q-5-2-8-7-3-4-4-11v-87q1-5 5-8 2-4 5-5l9-2v-5z" class="st6"/><path d="M175 717h26v41h-26zm13-14c-4 0-13 14-13 14h26s-8-14-13-14" class="st5"/><path d="M175 750h26v4h-26z" class="st2"/><text style="fill:#8c8c81;font-family:&quot;AcademyEngravedLetPlain&quot;;font-size:68.9449px" transform="translate(1105 822)">FOUR TWENTY UTXOS</text></svg>