<svg xmlns="http://www.w3.org/2000/svg" width="20" height="30" xmlns:v="https://vecta.io/nano"><path d="M0 0h20v30H0z"/><circle cx="10" cy="10" r="8.1" fill="#fff"/><path d="M8.5 8.9h2.8v2.3H8.5z" fill="#067632"/><g fill="#0d752d"><path d="M12.3 15.6L11 11s2.3 1 2.6 1.3c.6.6.3 3.3.3 3.3h-1.6zm-5.5 0s-.5-2.8 0-3.4c1.1-1.2 3.1-1.4 3.1-1.4l2.1 4.8H6.8z"/><path d="M12 15.6l-2.9-4.7 1.9.1 1.4 3.7z"/></g><g fill="#067632"><path d="M7 7.9c0-.9-.3-1.9.9-2.7.5-.3 1.1 1.7 1.2 2 .5.7.7.8.2.8S7 8.8 7 7.9zm2.5-.8c.3-1.1.9-2.1 1.6-2.2s1.4.8 1.8 2 .9 2.4 0 2c-.6-.3-3.7-.6-3.4-1.8z"/><path d="M8.3 8.5s-.1-3 .2-2.4c.4.6 1.1.4 1.4-.1s.9 2.5.9 2.5H8.3zm-1.9.2c.2.2 1-.4 1-.4l-.3-.6s-.7.9-.7 1z"/></g><path d="M9.8 11c1.5.1 3.9-1.9 3.6-2.2-.8-.9-7.5-.9-6.7.4.4.5 2.3 1.7 3.1 1.8z" fill="#05421d"/><circle cx="11.6" cy="6.1" r=".9"/><ellipse transform="matrix(.2575 -.9663 .9663 .2575 -.857 11.8244)" cx="7.3" cy="6.5" rx=".7" ry=".4"/><g fill="#fa0000"><path d="M7.5 8.5s.1-.4.3-.5l2.2.1s0 .4-.1.4c-.9-.1-2.4 0-2.4 0z"/><path d="M10.1 8.5s-.2-.5 0-.4 2.1-.2 2.7-.2c.2 0-.5.4-.6.4-.8.2-2.1.2-2.1.2zm-3.5.4c-.1 0-.2-.2-.2-.3.2-.2 1.3-.6 1.3-.6l-.3.5s-.7.5-.8.4z"/></g><circle cx="10" cy="10" r="7.7" fill="none" stroke="#000" stroke-width=".3"/><path d="M9.8 2.3h.4v15.4h-.4z"/><circle cx="10" cy="10" r="3" fill="none" stroke="#000" stroke-width=".3"/><path d="M2.4 9.8h15.4v.4H2.4z"/><text transform="matrix(.9641 -.2655 .2655 .9641 3.1491 23.4637)" fill="#fa0000" font-family="AppleSymbols" font-size="9">PEPE</text><text transform="matrix(.9641 -.2655 .2655 .9641 4.7596 29.0404)" fill="#fa0000" font-family="AppleSymbols" font-size="6.3">ENEMY </text><path d="M3.728 24.087l13.594-3.744.239.868-13.594 3.744z" fill="#fa0000"/><text transform="translate(18.447 29.829)" fill="#fa0000" font-family="AcademyEngravedLetPlain" font-size=".239">HNFT PEPE</text></svg>