<svg xmlns="http://www.w3.org/2000/svg" width="1024" height="1024" viewBox="0 0 1024 1024" shape-rendering="geometricPrecision" image-rendering="optimizeQuality" fill-rule="evenodd" xmlns:v="https://vecta.io/nano">
	<style>svg{background-color:white}.A{animation:drawStroke 8s forwards, fill 5s forwards}@keyframes drawStroke{from{stroke:#f66000}to{stroke-dashoffset:0;stroke:none}} @keyframes fill{from{fill:none}to{fill:currentColor}}</style>
	<path class="A" fill="none" stroke="#000" d="M477.74 736.91l9.84 1.01-.05 102.39-9.59-.1-.2-103.3zm-66.73 74.47c2.49-2.02 4.55-2.51 8.87-2.67l10.69 23.74c-7.4 1.02-11.45 4.37-15.83 5.15.08-12.58-3.99-23.5-3.73-26.22zm-33.93-67.33c9.02 10.87 16.76 49.07 18.38 66.57l-18.75-1.55c-2.95-8.38-.02-54.33.37-65.02zm249.32 19.63l.43-36.81c3.9-1.7 7-3.89 9.81-6.52 4.09-3.83 3.62-5.62 6.42-9.76l.02 48.08-16.68 5.01zm-271.64-31.27c4.25 1.07 8.44 2.65 13.55 3.34l.85 32.09c-16.41.07-12.9-15.04-14.4-35.43zm105.91 150.97c-3.52-4.16-.97-15.66-3.17-22.61l.1 21.23c-2.96-3.04-2.6-17.31-3.28-22.33-.14 3.8.37 18.52-.99 20.36-2.58-5.75-.24-16.42-3.78-21.22l1.25 19.45c-4.27-4.41-1.04-14.14-4.46-19.56l1.11 17.48c-8.91-19.08-5.4-55.66-6.77-75.57-1.61-23.54-.85-50.81.08-76.48 6.81 2.84 10.92 7.15 19.59 9.07l.32 150.18zm2.26-149.29l13.05 2.79c1.58 51.36-1.72 103.88-1.06 153.5l-12.1-5.6.11-150.69zm-50.1-34.82c6.96 6.28 16.1 19.19 24.72 22.4l-.28 78.76c-6.85-7.83-24.82-90.75-24.44-101.16zm-1.79-10.57c16.38 12.74 56.42 42.01 78.66 43.03l.28-18.17 3.83.05.57 18.77c20.67-.67 24.26-2.9 40.9-7.53v17.35l-11.56-7.71.17 144.84c-2.48.78-7.84 3.12-10.06 4.54l.25-46.27h-20.23c-.25 15.3.43 31.04.29 46.34l-.29 44.24c-.4.46-3.09-.27-3.86 0l-.07-23.04.14-72.27c-.13-26.89 1.45-72.93-.3-97.15-28.08-4.06-65-21.29-78.72-47.02zm-103.08-36.59c4.04 2.52 22.42 12.33 23.78 15.98 3.2 17.74-9.23 52.84 20.82 62.35l1.97 35.93c-52.6-10.22-43.5-31.78-45.26-75.45-.38-9.52-2.29-30.63-1.31-38.81zm-2.98-30.37c1.23.65 21.09 22.55 21.61 25.87.53 3.4.33 9.13.48 12.8-6.09-1.99-13.84-8.91-19.42-11.32l-2.67-27.35zm187.56 49.64l-1.27-80.15c9.67-.91 29.66 15.25 41.09 13.99-.6 2.81 1.35-14.7 2.26-19.04 3.1-28.64 3.43 19.52 1.41 21.69 42.61 18.55-.18 62.92-12.57 63.4l-30.92.11zm-1.58-231.76v-28.91h11.56c.53 9.81-.23 18.85.11 28.91h-11.67zm14.89-15.82c9.52 5.23 19.75 11.16 27.85 17.37l.01 12.36-27.81-17.14-.05-12.59zM353.87 136.89c-.89-3.21.54-5.03 1.49-8.07-35.35 3.05-80.57 16.4-104.17 40.8 1.26-7.2 10.37-26.29 13.94-32.8 28.42-51.73 83.6-81.94 139.24-97.8 21.68-6.17 59.91-13.51 83.65-12.77l.37 409.76c-5.14-.25-6.59-5-27.05 6.86l-17.6 11.2c.36-1.57.29-15.62 1.21-20.43l-1.58 1.81c-6.08 8.41-9.54 28.22 2.74 32.89 7.91 3.01 8.94-6.53 16.79-3.61 8.66 3.21 17 11.43 25.24 15.08l-.07 34.01h3.85v-32.77l52.77 26.42c6.77 3.39 12.38 7.58 22.01 12.7l-.27-146.51 5.85.85.29 114.8 7-.17 4.95-19.5c8.1-24.58 25.31-38.36 48.14-48.02 1.01 1.5 1.24 1.55 1.61 3.29-12 5.01-29.55 23.75-36.29 35.22-10.25 17.46-12.83 36.71-10.83 61.62 39.62 21.02 13.54 96.01 24.26 129.87 7.89-1.2 3.79-10.2 3.78-24.96-.02-21.1-2.83-74.29 4.24-88.38 10.33-20.59 46.3-46.28 45.27-79.36-7.26 2.67-16.64 12.74-22.63 17.08.04 15.57 2.63 23.56-7.45 35.79.65-10.74 2.47-25.16 1.85-35.55h-.97c-2.98 19.01-1.2 40.4-16.43 54 .74-40.99 11.23-71.05 49.68-92.15l-.82 14.19-.61 4.73c-.34 2.58 1.37 4.12-2.54 17.03-7.67 25.34-28.71 41.35-41.5 63.42-5.72 9.86-4.49 24.88-4.43 38.24 8.55-1 29.42-15.63 35.95-20.25 4.95-2.86 9.3-7.06 9.39-12.65 1.02-66.41 1.59-28.66 1.48-31.39l.24 33.4c7.7-3.5 16.84-15.5 21.28-22.76-3.96 10.5-20.09 26.49-28.93 32.92-8.83 6.42-34.86 20.18-39.22 24.47l.09 67.42c3.89-.2 6.46-2.15 9.64-3.66l.54-64.41c6.87-5.61 18.39-9.83 25-16.09l.06 63.75c-35.1 25.67-74.94 60.54-151.55 61.49 30.95-2.82 41.65-5.06 69.03-14-1.12-24.85-.62-81.42 1.42-105.55l-.05 104.1c6.67-.82 30.67-14 33.37-17.98-1.07-42.57 16.2-121.59-33.81-138.68-1.18 17.31 12.55 22.91 8.71 31.16-21.34-9.12-38.63-21.49-58.93-31.01-14.57-6.82-9.13-2.78-21.22 1.5-26.72 9.46-19.75-9.45-40.58-1.92-15.34 5.54-25.33 14.25-38.94 22.71-13.71 8.53-15.5 7.31-20.9 10.33.46 4.28.58 2.1 1.51 5.51 3.3-1.61 6.78-1.23 10.89-2.18 19.18-4.44 36.19-15.79 56.8-12.52 7.8 1.23 17.26 4.2 23.88 3.57 36.11-4.86 40.38-.97 72.82 10.44-3.03 4.79-9.47 6.96-14.43 9.26-22.45 10.43-93.3-4.97-111.55 9.14 2.64 1.81 6.78 3.68 10.33 4.13-3.41 3.02-7.06-.24-11.29-.46 5.56 3.3 6.93 3.94 13.46 5.51-6.8.44-7.56-.43-13.22-1.52 5.81 4.22 10.22 2.54 16.79 4.31-9.37.5-10.66.21-18.75-1.98 5.95 3.75 12.86 4.2 21.57 3.82-9.69 2.61-12.25 1-21.75-.23 7.66 4.23 18.09 2.11 21.8 3.67-8.59 2.58-18.77 2.13-26.17-1.42 16.62 7.88 13.78 3.55 31.15 3.77-5.46.61-9.27 2.29-15.27 2.55-7.74.32-10.21-1.57-16.19-2.73 15.34 8.36 36.14-.2 54.8-.4l-.03 82.41c-45.72-1.72 8.89 17.05-42.41 13.84-24.18-1.51-37.38-7.64-57.82-19.02-5.09-2.84-20.67-12.13-25.08-13.33-.07-26.88-1.6-55.84-2.51-82.99-1.36-40.87 1.75-75.98-20.47-110.04-12.12-18.57-26.17-30.76-45.62-41.11-8.44-4.5-20.02-11.24-28.65-14.2 1.12 4 7.81 6.37 11.98 8.69 24.62 13.68 43.12 24.28 58.94 47.08 21.89 31.54 19.49 68.84 21 107.66 1.06 27.44 1.31 55.68 3.37 82.78-9.13-2.9-45.19-30.19-54.86-37.55-6.04-4.6-9.26-10.29-12.01-18.87-8.34-26.06-10.63-82.44-12.8-111.89 4.47 1.97 3.04 2.43 6.34 4.28-2.73-4.2-4.6-4.02-7.27-9.23 4.08 2.11 4.45 4.88 9.39 6.9-2.29-4.85-7.87-7.52-9.8-12.24 11.56 8.43 25.01 24.12 37.39 34.27-4.26-7.89-37.33-34.51-38.03-40.35 5.42 6.38 12.01 10.95 17.86 17.29 4.37 4.73 13.96 13.88 19.6 17.42-3.84-8.4-37.7-35.35-38.18-41.28.15.28 35.98 35.05 38.15 36.48-1.26-3.31-7.05-8.49-9.45-11.19l-29.6-31.09c8.6 3.41 31.11 32.74 37.39 35.58-6.1-10.33-36.76-38.11-38.1-41.55 9.31 6.4 38.69 38.03 41.81 39.55-3.99-12.38-35.86-34.38-42.95-45.83 7.13 3.57 23.38 20.77 29.12 26.4l4.36 4.3 5.74 4.64c-7.2-11.53-20.78-22.26-30.21-32.17-3.96-4.17-9.1-5.4-10.83-10.94 12.29 4.17 24.47 22.06 34.09 29.24-6.3-8.86-28.44-30.97-37.51-34.48 3.33 30.09 7.62 62.35 9.23 93.1l-8.45-1.84c3.11 1.56 5.91 1.8 8.72 3.91-2.52 1.4-8.02-1.41-10.89-1.8 2.53 1.39 7.73 3.18 10.73 4.61l-7.85-.67c2.71 1.61 1.13.49 2.5 2.1l-8.15-2 5.96 3.8-2.62 1.33c.87.48 1.68 1.02 2.51 1.57-45.15-5.76-69.31-108.73-65.14-148.48 1.57-14.94 10.53-42.31 31.25-32.68 10.19 4.74 19.51 29.44 27.43 39.43-.01-9.26-1.44-20.55-2.37-29.61-1.62-15.94 1.85-12.06 6.53-23.96 5.79-14.73 5.08-42.36 4.91-59.72 9.82-6.42 17.15-10.44 19.44-24.77 1.06-6.6-2.31-15.05.54-19.77 3-4.98 6.32-8.11 9.01-13.82-4.14 4.28-7.87 9.46-12.29 13.65 1.08-6.91 13.22-16.13 16.38-23.31-3.44 1.48-12.08 11.59-16.41 15.27l16.22-21.09c-2.57-1.58-18.64 17.07-21.95 21.15 5.18-11.24 17.39-19.07 21.53-30.09-3.72 1.9-5.54 4.84-9.06 7.12 1.36-2.6 1.93-3.4 3.33-6.31-3.43 1.43-5.67 4.27-8.81 6.71l2.46-4.57c-7.33 2.71-38.03 38.63-38.73 41.12 5.81-12.94 23.33-36.33 31.98-49.47-7.19 6.5-19.9 23.94-27.29 33.17-3 3.76-5.92 9.02-9.09 12.01 7.13-14.74 21.89-27.33 28.74-41.27l-21.88 25.6c5.01-7.63 12.16-15.64 17-23.75-4.38 3.85-11.88 15.32-16.62 17.48 1.55-5.21 10.1-13.67 13.69-19.2l-23.52 24.32c5.93-9.06 14.15-16.43 19.86-25.37-3.57 3.33-19.96 19.51-21.74 23.37 2.05-6.23 13.38-16.74 17.1-23.86-5.2 3.14-13.87 14.79-18.4 20.27 3.47-6.54 8.91-12.47 12.48-18.98-4.1 3.42-6.38 9.09-10.99 11.79 1.24-4.39 4.19-7.07 6.41-11.25l-9.49 11.48 7.16-14.77c-2.32 2.99-5.46 6.82-7.31 10.13l1.9-9.38-2.52.99c7.44-12.06-3.8-15.09 17.53-30.04 21.15-14.81 64.6-30.57 90.28-31.31-3.34 14.03 12.07 18.84 20.44 21.45-5.22-4.88-4.12-13.33.29-18.39-1.01 15.8 7.41 22.7 20.61 20.96 3.69-.49 8.94-.94 11.42-3.73-25.21 1.95-29.33-18.07-20.97-26.9 12.91-13.64 29.69-10.25 40.57-14.92-9.7-7.57-61.92-2.22-70.17 25.78zM8.13 994.76h314.86c-11.32-49.22-31.57-98.77-31.07-150.84 3.79 38.07 48.75 114.61 73 150.84-44.36-85.21-101.33-159.28-58.52-265.45.25 20.66 2.02 24.88 28.23 36.09l1.09 24.83c-9.69-10.48-19.92-30.79-28.58-38.87-.39 49.98 103.13 123.81 166.05 145.51 3.31 2.58 11.95 26.19 14.34 31.82l-6.27.52c-9.81-15.75-18.53-44.89-33.61-23.02-11.23 16.28-42.06 74.29-46.54 88.57h142.87l3.78-41.44c1.3.85.27-.28 2.02 1.81.51.61 1.14 1.65 1.54 2.29L567.23 984c1.81 2.68 5.41 8.24 6.4 10.76h6.47c-4.21-10.85-33.94-65.32-41.32-76.78-17.04-26.48-17.63-27.25-27.85-6.28-2.95 6.06-5.95 11.43-8.29 17.36l-3.59-.99c.13-4.13 5.04-23.44 6.7-29.39 1.7-6.13 14.93-10.15 23.98-15.41 17.18-9.98 33.89-19.84 48.39-30.66 19.95-14.88 34.54-29.59 51.96-45.34 7.75-7.02 25.45-32.35 32.97-35.18-24.34 39.9-49.33 54.08-71.57 85.33 25.69-21.68 50.37-44.25 67.73-73.5-6.74 25.86-50.8 59-62.76 79.17 8.04-5.16 33.9-21.53 36.58-29.59-6.46 9.04-22.63 26.67-25.95 32.5 5.09-2.21 33.65-31.59 34.52-36.31-9.16 15.4-30.79 41.77-41.57 52.18 4.8-2.59 34.28-31.62 34.96-33.01-9.4 16.01-29.15 37.44-29.59 38.24 14.26-8.09 26.23-25.3 36.65-38.03-6.39 14.66-20.69 24.48-29.02 37.87 7.06-3.52 10.74-10.73 17.24-15.45-3.73 6.2-9.76 11.41-13.27 18.12 12.86-7.86-4.65 6.5-6.8 11.73 9.37-5.17 19.58-19.82 29.92-25.92-5.61 9.58-28.22 32.35-37.98 42.1 14.88-9.58 28.38-27.23 42.06-38.37-3.08 7.98-42.76 47.41-45.73 48.61 5.21-1.42 26.12-23.37 32.15-28.06-1.56 4.33-7.74 9.1-10.92 14.45 7.99-3.62 16.99-19.64 25.95-26.08-6.74 14.31-23.45 26.1-32.31 39.14 9.66-5.21 20.1-21.06 30.03-27.09-8.56 14.51-21.55 21.46-29.03 33.09 5.18-3.34 16.25-14.77 16.66-14.97-3.94 9.41-11.25 14.47-15.88 22.4 9.67-5.83 17.39-20.92 23.3-27.26-3.26 8.43-15.06 24.14-18.34 32.14 9.5-7.81 17.9-24.68 27.31-35.18 6.49-7.25 19.12-24.92 22.22-34.64-2.55 15.94-24.3 48.74-33.05 66.13 14.68-8.35 42.8-82.79 48.44-99.02-3.08 10.45-5.19 18.58-9.04 28.7-12.64 33.18-21.87 47.61-40.13 77.64 17.07-8.74 47.79-84.71 50.21-97.63-.56 10.74-8.01 30.45-12.03 40.17-14.35 34.62-47.53 76.53-56.71 103.07h10.28c5.26-9.89 37.37-72.18 40.92-74.51-4.85 9.31-31.08 54.59-26.26 59.96 5.71-13.95 34.47-62.89 35.12-71.72-6.53 29.16-13.6 57.36-21.09 86.27h338.62v-10.73c-115.79-39.15-326.3-163.5-322.23-304.36.43-11.75-.3-58.32 2.17-61.84 10.03-14.3 12.38-11.91 16.14-32.36l5.51-45.17c7.06-.76 9.67-.97 15.5-2.81 6.13-1.93 10.53-3.99 13.9-7.35 7.48-7.44 24.56-42.73 30.21-54.71 14.85-31.54 25.23-79.89 9.97-112.22-3.8-8.04-9.19-13.41-19.78-12.75-11.49.72-18.07 9.47-23.72 18.65 5.98-27.14 16.02-72.82 16.33-99.48.22-18.76-.07-38.3-2.88-56.51-9.29-60.2-32.06-102.69-81.15-140.73-9.23-7.15-37.75-27.27-48.71-27.04l-.53 72.51c58.18 20.51 113.02 34.46 114.83 155.98l13.08.57c-.04 8.43-5.91 57.65-9.68 62.26-5.88 3.95-70.73-3.43-79.14 3.4-5.85 4.75-8.86 7.71-16.94 10.96-20.5 8.28-46.52 6.73-65.49-5.86-10.51-6.98-5.14-7.19-21.75-7.28l.04 40.15c.06 4.49 1.17 30 .5 38.45-.11 1.29-2.42-.29-2.9 0-1.34-1.97-.11-5.14-.09-7.57v-9.77c-5.02-3.1-29.42-13.79-35.56-15.42v25.05l-11.32-.25-.42-96.16 8.83-.14c2.03-28.56 1.13-46.51 24.75-64.56 7.74-5.91 12.25-5.84 17.76-9.24 3.66-2.26 2.11-7.48 2.09-11.74-7.72-.07-50.25.11-51.14-.08-.68-.14.54-3.95-.08-4.25l51.93.44-.46-72.74-49.25-.34c-.57 6.93.93 21.59-.19 26.98l-4.21.13c-.32-5.98.29-122.91.08-142.84-.09-8.88-.91-7.47 1.95-8.28 1.72 3.2.93 75.08 1.14 79.61l11.42.27c.79-12.23-1.41-74.25.93-78.95 1.99 4.66-.16 67.08.57 79.07l11.84-.26c.09-8.3-1.09-73.64 1.08-77.26 3.15 7.87-1.06 61.71.53 73.39.8 5.9-.72 2.56 2.36 4.03.14-.23.27-.88.31-.75l.82-75.8 14.96 1.65.34 73.56h2.89c.42-14.31-1.39-68.73.92-72.86 2.49 2.31.36 64.88 1.97 72.86h2.89c-.12-8.81-2.75-66.29-.4-71.11 6 1.13 3.68 4.47 3.68 15.32-.01 5.84-2.09 56.76 1.49 58.22 2.48-3.1.33-63.66.86-73.56l12.65 2.41c1.2 12.9-1.88 67.35.95 73 4.01-8.3 1.28-58.78 1.31-71.75 5.76.32 18.06 4.29 21.46 6.86l-.19 71 13.05 2.83.54-74.98c-17.19-5.98-33.4-12.92-52.53-15.44l-42.53-5.56c-4.72-.46-11.94-.92-16.61-.45L490.82 8H8.13v986.76zm596.54-798.94l.17 36.46-4.1.05.07-6.64h-45.29v-2.89h45.29l-.74-26.91-50.51-.43.21 44.78c-13.75 6.28-17.78 3.69-32.38 19.73-8.21 9.01-13.15 23.62-12.74 40.08 7.93-6.04 7.59-9.77 22.03-18.25 31.4-18.45 82.66-19.72 117.45-8.78 9.95 3.13 19.17 7.41 26.92 12.57 7.47 4.96 16.08 11.81 21.25 18.23l14.11 19.58c3.16 3.7.06 1.36 3.85 2.64-4.14-6.04.04-16.44 1.15-30.04.96-11.73.69-24.32 1.23-35.54 2.91-59.87-27.92-112.02-86.9-131 .56 13.98-.15 29.22-.27 43.32-.28 32.07 4.51 19.73-20.8 23.04zM411.94 343.25c1.76-.61 4.39-.11 7.86-.05.91-1.13 1.76-2.41 2.69-3.59 3.13 1.22 3.92 1.13 5.88 4.03-13.22 3.96-17.05 6.53-28.96 13.11 11.67.98 26.61-.83 30.09-3.49 5.19-3.91 25.4-17.39 26.24-23.17 1.74-11.77-3.91-11.09-9.36-17.92 3.72 1.73 3.36 2.55 7.34 4-2.85-6.58-8.97-10.94-13.72-15.94l17.12-11.81c-7.6-15.51-56.21-5.17-79.16-12.29-7.31-2.27-18.96-7.14-26.77-7.08-24.44.19-51.63 19.93-64.44 35.9-8.94 11.15-8.37 15.81-8.82 29.23-.23 7.07 18.68 8.68 22.18 7.45 27.33-.78 4.01-3.07 35.57 12.42 14.02 6.88 13.72 5.9 29.04 8.48-10.6-7.71-22.72-14.01-28.12-23 6.74-1.99 9.21 7.39 18.05 8.93 14.89 5.39 28.72 7.3 57.29-5.21zm-67.53-5.68c2.19-1.99 6.8-3.78 9.97-4.72 3.67 6.59 11.13 14.65 22.83 14.41 10.07-.2 18.78-8.65 20.86-16.91l14.84 6.25c-7.62 14.25-55.86 21.52-68.5.97zm193.72 56.2l.23-68.17c12.33-.96 12.14 2.86 19.45-4.98 12.87-13.8 37.36-19.86 56.71-15.13 15.08 3.69 23.56 10.94 31.56 18.54 4.37 4.16 16.25 2.27 23.13 2.39 7.48.14 16.98-.13 24.25.65-4.62-16.58-35.17-36.04-54.1-41.61-26.72-7.86-59.82-6.65-86.02.83-23.69 6.76-47.33 20.27-50.82 45.4v48.18c1.37 2.93 29.94 14.14 35.61 13.9zm-42.66-248.66l54.05.34c-.08 8.59-1.33 40.55.85 45.93l49.92.23-.11-70.86c-14.61-7.95-86.88-16.08-105.07-11.33-.03 6.94-1.02 30.76.36 35.69zM215.31 422.02c7.59-8.67 11.91-19.37 14.98-30.59 3.33 1.28 3.29 1.73 5.84 4.92-2.38 6.93-9.36 15.18-8.73 22.56 1.41-3.51 10.36-16.12 12.97-19.25 3.12 2.74 13.19 11.73 10.83 15.96 8.53 3.36-22.86 20.54-14.32 36.2 9.36 17.19 24.84 15.89 33.16 24.33-8.6-29.16 3.36-22.05-3.09-41.81-6.73-20.66-14.38-40.5-29.52-55.28-31.11-30.36-26.58 37.56-22.12 42.96zM494.35 833.3l17.5.28.61-98.63-18.23 1.11.12 97.24zm65.74-501.94c5.7-3.96 7.87-7.43 16.35-11.35 24.66-11.4 53.79-2.23 62.07 12.74-4.9 12.72-37.07 22.44-62.73 11.49l-12.66-7.55c-3.43-2.85-1.62-1.95-3.03-5.33zm-6.13-1.22c-5.19.03-15.71-2.75-12.58 3.91.26.54 6.51.65 7.41.71 9.48-.09 3.56 1.93 16.92 9.96 6.69 4.01 18.2 8.02 27.31 8.7 21.82 1.65 39.26-3.15 52.63-18.75l14.88-.03c2.87-.54 1.85.52 2.93-1.89-1.89-4.87-9.37-.45-16.16-3.09-1.99-.77-6.7-6.79-10.07-9.29-33.85-25.1-76.43-6.79-83.27 9.77zm50.57-138.55l16.13.1c1.24-8.32 1.48-56.24.03-64.06-3.93-1.94-11.11-4.53-16.26-5.45l.1 69.41zm-225.17-81.82c22.7-6.51 59.44-1.56 84.8-1.03-1.94-5.57-10.47-10.23-16.9-12.78-23.29-9.21-62.58 4.7-67.9 13.81zM248.08 496.16c15.48-22.82-9.95-22.86-19.28-40.17-3.61 5.94 3.86 10.2-5.84-1.88 1.74 8.75 17.34 36.6 25.12 42.05z" stroke-dasharray="1000" stroke-dashoffset="10000"/>
	<path fill="#fff" d="M975.98 8.02h18.9v18.9h-18.9z"/>
</svg>