<svg xmlns="http://www.w3.org/2000/svg" width="20" height="30" xmlns:v="https://vecta.io/nano"><path d="M0 0h20v30H0z" fill="#f92911"/><path d="M1 11.593l.024 10.593c.012 0 .162-.14.33-.317.606-.644 1.272-.915 2.196-.924.99 0 1.764.373 2.46 1.195.282.336.294.345.546.233.156-.075.462-.103.756-.075.504.047.792.196 1.044.56.126.177.138.177.594.009l.462-.168-.036-1.26-.33-4.797-.102-.821-.36-.215a6.25 6.25 0 0 1-.606-.401c-.198-.159-.282-.177-.444-.112-.456.205-.924.028-1.248-.457-.12-.177-.24-.317-.27-.299-.636.271-1.128.159-1.458-.327-.18-.261-.258-.317-.492-.317-.318 0-.696-.252-.888-.569-.456-.784-.282-2.044.36-2.567.132-.112.162-.196.162-.467 0-.597.324-1.157.672-1.157.198 0 .252-.084.372-.579.264-1.111 1.218-1.755 2.136-1.437.336.112.408.112.51 0 .714-.803.874-1.062 1.422-1.295.08-.034.483-.191 1.034-.237a3.56 3.56 0 0 1 1.206.169c.813.305.796.513 1.558 1.363.102.112.174.112.51 0 .918-.317 1.872.327 2.136 1.437.12.495.174.579.372.579.348 0 .672.56.672 1.157 0 .271.03.355.168.467.636.523.81 1.783.354 2.567-.192.317-.57.569-.888.569-.234 0-.312.056-.492.317-.33.485-.822.597-1.458.327-.03-.019-.15.121-.27.299-.324.485-.792.663-1.248.457-.168-.075-.246-.047-.51.159-.168.131-.438.308-.6.401l-.3.159-.102.831c-.132 1.083-.276 3.211-.324 4.797l-.042 1.269.462.159c.456.168.468.168.594-.009.252-.364.54-.513 1.044-.56.294-.028.6 0 .756.075.252.112.264.103.546-.233.696-.821 1.47-1.195 2.46-1.195.924.009 1.59.28 2.196.924l.33.317S19 17.418 19 11.594V1h-9-9v10.593z"/><path d="M9.346 23.027c-.684.149-1.302.513-1.806 1.064-.408.448-.468.504-.366.308.072-.149.042-.159-.462-.159-1.074 0-1.86.793-1.998 2.007-.042.336-.042.317-.036-.168 0 0 .105-.437.012-.532-.139-.142-.794 0-.794 0-.492 0-.418.42-.514.98-.018.14-.03.112-.036-.075 0-.149.024-.355.06-.457.09-.271-1.04-1.282-1.424-1.431-.69-.28-.444.203-.196 1.556l.166 1.347-.406-.548c-.006-.476-.036-.513-.36-.336L1 26.686v1.157V29h9 9v-1.157-1.157-1.253c-.318-.168-.79.089-.79.089s-.013 1.59-.252 1.053c-.325-.73-.25-2.397-.976-2.061-.366.177-.478 1.22-.388 1.491a1.63 1.63 0 0 1 .06.448c-.006.187-.018.215-.036.075-.096-.56-.522-1.73-1.014-1.73l-.294.75.012.532c.006.485.006.504-.036.168-.138-1.213-.924-2.007-1.998-2.007-.504 0-.534.009-.462.159.102.196.036.14-.372-.317-.768-.851-2.04-1.28-3.108-1.056zm-1.578 1.95c.33.261.372.411.072.243-.486-.271-1.158-.261-1.668.019-.078.047-.084.028-.03-.065.036-.065.216-.196.39-.299.396-.215.882-.178 1.236.102zm5.862 0c.162.112.276.215.264.233s-.21-.028-.444-.103c-.456-.149-.876-.112-1.284.112-.138.075-.234.093-.216.047.042-.112.354-.364.57-.476.24-.121.798-.027 1.11.187z"/><path d="M9.04 11.99h1.91v1.36H9.04z" fill="#009847"/><path d="M6.93 14.17s-.27-.66 0-.81c1.09-.58 5.18-.64 6.15 0 .24.16 0 .81 0 .81H6.93z"/><ellipse cx="10" cy="9.22" rx="2.45" ry=".51"/><path d="M10 14.03l.96-1.16H9.04z" fill="#069847"/><path d="M9.94 12.58c2.01 0 2.53-1.17 2.53-1.17H7.41s.51 1.17 2.53 1.17z" fill="#03421f"/><g fill="#007839"><path d="M10.03 9.14c-1.74 0-1.99.83-1.99.83h3.99c-.01 0-.3-.82-2-.83z"/><path d="M8.77 8.75c-.85 0-1.23 2.33-1.23 2.33h3.22c-.01.01-1.14-2.33-1.99-2.33z"/><path d="M11.23 8.75c-.85 0-1.98 2.33-1.98 2.33h3.22c0 .01-.39-2.33-1.24-2.33z"/></g><ellipse cx="11.23" cy="9.57" rx=".48" ry=".43"/><ellipse cx="8.77" cy="9.61" rx=".48" ry=".43"/><path d="M10.04 6.87c-2.38 0-2.34 2.44-2.34 2.44l4.6-.03c0 0-.07-2.4-2.26-2.41z"/><path d="M10.04 9.72c-.94 0-2.03 1.5-2.03 1.5h4.06c0 .01-1.08-1.5-2.03-1.5z" fill="#fff" stroke="#000" stroke-width=".2" stroke-miterlimit="10"/><path d="M10.01 10.51c-1.59.08-2.03 1.48-2.03 1.48h4.06s-.29-1.25-2.03-1.48z"/><g fill="#fff"><path d="M9.32 11.84h1.39v.29H9.32z" stroke="#000" stroke-width=".2" stroke-miterlimit="10"/><ellipse cx="10.01" cy="11.27" rx=".91" ry=".61"/></g><ellipse cx="10.01" cy="11.27" rx=".84" ry=".56"/><path d="M9.45 12.06h1.12v.18H9.45z"/><g fill="#fff"><ellipse cx="10.01" cy="11.29" rx=".18" ry=".12"/><ellipse cx="10.01" cy="11" rx=".11" ry=".07"/><ellipse cx="10.01" cy="11.59" rx=".11" ry=".07"/><ellipse cx="9.58" cy="11.29" rx=".11" ry=".07"/><ellipse cx="10.44" cy="11.28" rx=".11" ry=".07"/><ellipse cx="10.29" cy="11.1" rx=".11" ry=".07"/><ellipse cx="9.73" cy="11.1" rx=".11" ry=".07"/><ellipse cx="9.73" cy="11.48" rx=".11" ry=".07"/><ellipse cx="10.33" cy="11.51" rx=".11" ry=".07"/></g><path d="M7.72 12.61c-.49-.12-1.24-.97-1.07-1.3.14-.27 1.02-.65 1.42-.53.48.15 1.18.95 1.07 1.3-.09.29-1.01.63-1.42.53z"/><path d="M7.09 12.08c-.33-.34-.45-.67-.3-.74.16-.07.53.15.86.49s.48.67.32.74c-.15.07-.54-.15-.88-.49z" fill="#fff"/><path d="M12.28 12.61c.49-.12 1.24-.97 1.07-1.3-.14-.27-1.02-.65-1.42-.53-.48.15-1.18.95-1.07 1.3.09.29 1.01.63 1.42.53z"/><g fill="#fff"><path d="M12.91 12.08c.33-.34.45-.67.3-.74-.16-.07-.53.15-.86.49s-.48.67-.32.74c.15.07.54-.15.88-.49zM1.96 25.81v-.72l.47.25-.05.47zm.65.35v-.52l.42.25v.47zm-.5.8l-.05-.67.37.2-.05.57zm.6.15l-.05-.52.37.08-.05.69zm.95-.49l-.05-.42.32.16v.51zm.55-.08l-.05-.34.32-.01v.48zm11.4-.19l-.05-.33.32-.02v.49zm2.85-.15l-.05-.34.32-.01v.24zm0 .64l-.05-.34.32-.01v.34zm-2.29.18l-.05-.34.33-.01-.05.23zm-.49.12l-.05-.34.33-.01v.34zm1.23-.59l-.15-.69.22-.16.2.55z"/><path d="M17.11 25.65s-.12-.56 0-.69c.05-.05.23-.01.27.04.13.15 0 1.09 0 1.09l-.27-.44zm-1.1.6l-.05-.53.12-.32.2.99zM1.31 27.5l-.18-.28.29-.15.05.25z"/></g><text transform="translate(17.447 28.829)" fill="#f83015" font-family="AcademyEngravedLetPlain" font-size=".239">HNFT PEPE</text><path d="M12.88 24.82c-.09 0-.27.25-.27.25h.6s-.19-.25-.33-.25zm-5.9 0c-.09 0-.28.25-.28.25h.6c.01 0-.18-.25-.32-.25z" fill="#fff"/></svg>