<?xml version="1.0" encoding="UTF-8"?><svg id="a" xmlns="http://www.w3.org/2000/svg" width="1500" height="1500" viewBox="0 0 1500 1500"><defs><style>.b{fill:#6e6b51;}.b,.c,.d{stroke-width:0px;}.d{fill:#fff;}.e{fill:none;stroke:#000;stroke-miterlimit:10;stroke-width:5px;}</style></defs><rect class="c" width="1500" height="1500"/><path class="b" d="m1308.84,809.71c3.5-13.5-9-61.5-45.5-82s-52.5-14-103-16-205.26-40.77-205.26-40.77c0,0,0,0,0,0-2.16-2.22-4.36-4.42-6.62-6.57.05-.07.1-.14.15-.21-2.32,2.27-53.38,50.65-172.37,38.93,0,0,99.46,8.15,172.41-38.99,2.6-3.7,5.03-7.48,7.32-11.33,9.95-14.9,15.58-31.68,18.76-46.04,1.69-7.24,2.86-14.62,3.46-22.1.7-7.45.66-12.12.65-12.17h0s-.17,0-.17,0c-.07-69.19-48.15-127.47-118.3-154.32-4.56-24.02-15.05-46.23-30.19-65.63-52.62-67.38-157.97-55.72-195.89,20.91l-229.29,151.08-74.5,80c-50.01,72.96-12.6,75.79-84,128l-48.5,171s104.63-51.5,145.87-27.5c43.22,28.14,109.81,71.8,168.56,111.59l-.02.26,61.94,42.4c32.05,22.6,55.41,40.25,60.93,47.26,0,0,15.09-70.64,41.06-97.21,17.89-18.3,30.04-29.44,37.16-37.17,27.76,16.87,58.18,36.09,84.35,35.2,42.89-1.45,78.17-5.41,106.84-12.88,17.52-1.27,32.58-3.1,40.65-5.74,29-9.5,125.5-23.5,166.5-23s80-6.5,116-19,65.16-13.71,69.16-42.04c2.37-16.78-9.92-30.19-16.86-35.08,4.62-1.53,10.8,4.92,17.2,4.12,36-4.5,8-21.5,11.5-35Zm-450.64-391.38s-80.39.99-146.95,88.22c0,0,48.8-90.29,146.95-88.22Zm-155.57,150.92l252.45,4.56c-5.94,9.82-8.56,33.19-9.52,44.73-.27,3.28.74,30.54,1.15,41.4-4.94,4.4-10.64,8.19-17.26,11.06-50.48,21.87-226.83-101.75-226.83-101.75Z"/><path class="e" d="m834,829.8s22.67-1.81,90.33,12.86,205.42-.84,207.42,0,66.25-4.74,83.75-2.08,92.15-4.36,98.2-1.22"/><path class="d" d="m1278.12,838.79s21.75-.91,30.61.28c7.53,1.02-4.67,40.14-10.31,43.93-5.63,3.79-12.2-40.26-20.3-44.21Z"/><path class="d" d="m834,827.03s17,24.91,17.67,28.48,12-11.43,15.33-11.6,13.33,15.17,13.33,15.17c0,0,17.25-21.33,26.25-21.33s-36.25-12.72-72.58-10.72Z"/><path class="d" d="m975.91,846.24s30.67-.67,35,0-8.67,20-9,26-18-28-26-26Z"/><path class="d" d="m1090.41,843.37s15.01-2.62,36.47-3.79c1.13-.06-12.82,29.53-10.63,33.1,2.19,3.57-17.15-29.55-25.84-29.31Z"/><path class="d" d="m1145.11,839.49s44.98-1.82,53.43-2.38c8.45-.56-23.14,28.25-22.81,35.61.33,7.36-17.89-28.97-30.62-33.23Z"/></svg>