<svg xmlns="http://www.w3.org/2000/svg" width="690" height="690" fill-rule="evenodd" image-rendering="optimizeQuality" shape-rendering="geometricPrecision">
	
	<path fill="#000000" d="M341 32a356 356 0 0 0-100 18 283 283 0 0 0-59 28l-24 16-5 4-6 5-4 3-1 1-3 2-2 2v1h-1l-1 1-2 2-1 1-6 6-4 4-4 4-1 1-6 7-6 6-2 3-28 40-3 6a305 305 0 0 0-40 156 315 315 0 0 0 54 171l4 6 13 17 5 6 5 6 1 1 5 5 7 7 2 3 9 8 7 5 3 3 5 4 3 2 14 10 12 8 38 20 14 6a331 331 0 0 0 116 21 324 324 0 0 0 121-26l7-3a295 295 0 0 0 49-29l6-4 11-9 14-12 7-6 4-5 3-3 8-8 3-4 9-11 4-6 5-5 4-6 7-12 7-12a312 312 0 0 0 27-241l-5-15a288 288 0 0 0-53-94l-2-2-4-5v-1l-5-5-1-1-3-3-8-8-1-1-7-6-10-10-8-6-6-4a346 346 0 0 0-90-47 306 306 0 0 0-101-16"/>
	<path fill="#22a574" d="M336 46a302 302 0 0 0-132 36l-6 3-3 2-3 2-15 9-8 5-10 9-8 6-1 1-1 1h-1v1h-1l-7 7h-1l-3 3-1 1-1 2-5 4-1 2-3 3-5 6-9 11-7 9-22 34a297 297 0 0 0 36 336v1l5 5 6 6 1 1 4 4 2 2 5 5 1 1 4 3 2 3 5 4 11 8 5 4a295 295 0 0 0 292 34 289 289 0 0 0 65-37l18-15 7-7 3-2 2-3 8-8 1-1 1-1 1-1 3-4h1l7-9a293 293 0 0 0 60-127 301 301 0 0 0-51-236l-12-14-2-3-1-1-4-5-4-4-4-5-1-1-5-4-5-5-2-2-3-2-15-13-2-2-6-4-5-4a306 306 0 0 0-180-54"/>
	<path fill="#000000" d="M340 60a299 299 0 0 0-116 27l-23 12-16 10-11 8-5 4-13 11-1 1-9 8-5 5a285 285 0 0 0-64 294l2 7 2 6 6 13a287 287 0 0 0 39 61l5 6 4 4 3 4 2 2 6 6 16 15 3 2 5 3 5 4q12 10 27 18l11 6a287 287 0 0 0 240 12l10-5 3-1a291 291 0 0 0 50-30l7-6 3-2 5-4 4-3v-1l3-2 4-4 2-3 5-4 4-5 1-1 14-15 20-29 6-11a274 274 0 0 0 36-143 293 293 0 0 0-46-150l-7-11-4-5-8-10-17-18-1-1-5-6-5-4-5-5-3-2v-1l-14-10-10-8q-16-11-34-19l-18-9a278 278 0 0 0-113-21"/>
	<path fill="#4ee549" d="M339 72a272 272 0 0 0-153 52l-5 3-12 10-3 2v1l-6 5-3 3-1 1-1 1-3 2-1 1-2 2-3 4-1 1-2 2-2 2-2 2-2 3a251 251 0 0 0-42 68 271 271 0 0 0 44 286l2 2v1l5 5 1 1 1 1 1 1 8 9 4 3 7 6 3 3 2 2a253 253 0 0 0 64 38 271 271 0 0 0 174 14l20-5 19-7 11-5 6-3 6-3a237 237 0 0 0 43-29l8-6 4-4 4-4 1-1 1-1 8-7 1-1 1-2 2-2 1-1 6-7a273 273 0 0 0 2-350l-2-2-1-1-1-1-2-3-1-1-5-5-2-2-1-1-1-2-4-4-2-2h-1l-7-7-4-3-1-1-10-8a254 254 0 0 0-69-38 264 264 0 0 0-102-18"/>
	<path fill="#000000" d="M341 77a278 278 0 0 0-97 20l-12 5-27 15-5 3-24 18-2 2-13 10-1 1-2 2-1 1-8 9-4 4-1 1-1 2-3 3a263 263 0 0 0-56 115 264 264 0 0 0 36 202l3 5 17 21 9 12 2 2 2 1 5 5 5 5 8 7 1 1 1 1 2 2 30 21 10 6 23 11 11 5 13 4 13 4 13 3a270 270 0 0 0 146-9l12-4 17-8 11-6 6-3q13-7 25-17l15-12 4-4 5-3 1-2 3-3 5-5 1-1 13-14a272 272 0 0 0 54-113 268 268 0 0 0-27-186l-3-6-8-13-3-5-2-2-7-10-6-7-3-3-6-8-1-1-13-12-3-3-1-1-8-7a241 241 0 0 0-40-27l-11-6-12-5q-48-22-111-23"/>
	<path fill="#4ee549" d="M341 84a269 269 0 0 0-133 38l-5 3-19 14-9 7-10 9-3 3-6 6-6 7-7 8a269 269 0 0 0-58 139 250 250 0 0 0 1 62q5 33 17 64l5 11 8 17 6 10 3 5 4 5 10 14 9 11 5 6 9 9 11 10 16 13 9 6a261 261 0 0 0 151 45h8a286 286 0 0 0 75-15 251 251 0 0 0 65-33l11-9 9-7 2-2 2-1 1-1 3-3 1-1 4-4 1-1 3-3 1-1 3-4 2-2 11-13 7-9 3-5 10-15 3-6 3-5 8-16a211 211 0 0 0 16-50 261 261 0 0 0-14-154l-5-12-3-5-5-11-3-5q-10-17-23-33l-10-12-4-4-8-8-1-1-3-3-5-4-4-4-2-1-19-14-10-7-16-9-5-2-11-6-12-4a262 262 0 0 0-97-17"/>
	<path fill="#000000" d="M340 195a152 152 0 0 0-88 33l-3 2-2 2h-1l-9 9-1 2-4 3-12 16a150 150 0 0 0 12 181l4 4 11 11 1 1 9 7a154 154 0 0 0 93 29 148 148 0 0 0 94-37l9-10 5-4a159 159 0 0 0 25-41 149 149 0 0 0-13-141l-4-5-9-11v-1l-5-5-3-3-5-4v-1l-3-2a151 151 0 0 0-101-35"/>
	<path fill="#b90101" d="M339 201q-16 1-32 5-28 8-51 25l-6 5-10 10-1 1-3 4a152 152 0 0 0-24 39 145 145 0 0 0 21 146l1 1 8 9 10 9q12 10 26 18l12 5a143 143 0 0 0 146-21l5-4 3-4 5-4 1-1 8-10a146 146 0 0 0 26-127 145 145 0 0 0-29-56h-1l-2-3-1-1-13-12-1-1a149 149 0 0 0-37-22c-17-8-40-12-61-11"/>
	<path fill="#000000" d="M340 208a138 138 0 0 0-84 32l-1 1-4 4-1 1-8 8-3 3a138 138 0 0 0-1 174l7 8 1 1 2 3 4 3 8 7a134 134 0 0 0 90 29 139 139 0 0 0 85-34h1l2-2 1-1 6-6 4-4q14-16 23-37a137 137 0 0 0 10-58q0-16-4-30-8-31-28-54l-8-9-3-2-1-1-2-2a137 137 0 0 0-96-34"/>
	<path fill="#fefefe" d="M343 221a124 124 0 0 0-75 27l-5 4-6 6-1 1-3 4-5 5-1 1a127 127 0 0 0-26 79 125 125 0 0 0 28 76l2 2 8 8a124 124 0 0 0 158 12l7-6h1l1-1 7-7 1-1 4-5 7-7 3-5 11-20a124 124 0 0 0-20-129l-10-11-6-5-4-4q-33-24-76-24"/>
	<path id="f" fill="#000000" d="M340 269q-20 2-36 12l-5 3-11 10-8 10a76 76 0 0 0 15 98l1 2 15 9 6 3 15 4a76 76 0 0 0 59-14l10-9a71 71 0 0 0 15-24 76 76 0 0 0-13-77v-1l-4-4-1-1-4-4-15-9-6-3q-15-6-33-5m-16-156q-18 3-25 19c-5 12-3 26 7 33q9 7 24 5 17-1 24-12l2-5q4-13-3-25l-6-8-2-2-3-1q-7-4-18-4M135 246l-3 3-3 11q-5 6 0 10 2 1 4-1 2-3 6-1l5 1c5 2 4 2 2 9l-4 10q-2 2-5 1l-5-2q-4-1-3-4 0-3-3-4-5 2-6 8l-3 11c-2 6 3 7 5 5 3-3 1-3 10-1l21 7 8 3c2 1 0 5 3 7 5 1 6-4 7-7l3-11v-6q-2-2-5 0-1 3-4 2h-2l-8-3q-3 0-4-3l2-5 3-11q2-2 5 0l10 3 2 2q0 3 2 5h3l3-4 5-16q0-4-3-5-4 1-4 3l-3 1-13-4-11-4-10-3q-3-1-2-5-1-3-5-2m263-101 2 13 1 10q-1 3-5 3l-1 3q1 3 5 3l12 4h6q2-2 0-5l-1-1-1-1-1-10-3-20-1-6q4-4 10-6 3 1 5-2 0-3-3-4l-6-2-9-2-2 2q-1 4 2 5l-4 2-11 6 2-5 1-5 5-1q2-2 1-5c-1-2-7-3-9-3l-10-3q-4-1-5 1-1 5 2 6l1 3-1 5-9 30q-1 2-4 2-5 3 1 7l5 1 10 3q3 1 5-1 4-2 0-6l-2-1 1-6 3-10 3-3zm40 384-9-8-10-8q2-2 2-6l-3-2-3 2-6 3-6 3q-3 1-4 4-1 2 1 3h4l8 6 17 13 4 4-2 9-2 2-2 2 1 4h5l10-6q4-1 4-4-3-3-5-3l5-15v1l4 8-2 4q-1 4 2 4t5-1l5-3 6-3q5-1 5-6l-4-3c-4 0-3 2-7-6l-8-15-5-11q-2-3 1-4 2-3-1-5-2-2-5-1l-13 7-4 3q-1 3 2 5l5 1 5 8 2 5q3 1 0 4zm84-194-1 6c-2 11-3 27 9 34 5 3 15 2 20-3l3-3c6-10 7-21 11-27l1-2c4-1 7 9-1 20l-2 4c-1 3 1 7 6 3l9-8q4-3 2-5-3-1-2-4 3-15-6-25a13 13 0 0 0-16 1l-1 1-3 3-4 12c-2 4-5 15-8 17q-5 4-8-2-3-5-2-11 0-11 7-19l2-4q2-6-6-3l-12 8q-3 3 0 6zm-11-128-1 5-1 6-2 11-3 17q-3 5-7 6v3l3 3q2 4 6-1l32-23q2-2 3-1l5 1 2-1q1-4-2-7l-6-7q-2-3-5-1-2 1-1 4 1 4-2 4l-9 8-2 1 2-12 3-18v-6l-6-8-4-4q-3-1-5 1v6l-28 21q-2 3-5 1l-2-1q-6 0-3 6l1 2 5 6 3 4q3 1 5-2v-6l12-9 4-3 6-5zm-57-67-3 4 2 5-2 4-3 4-10 14-1 2-5 6c-2 3-5-1-7 2-4 4 2 6 4 8l4 3 8 5 12 9 3 3q1 4 3 4l5-1 10-5q2 0 3-3c-1-5-10-1-17-5l-8-5-4-3q-5-3 0-8l5-7q2-4 5 0 3 0 4 3l4 9q3 1 5-1l1-6v-7q1-4-2-5l-6 1-3-3q-1-2 2-5 2-6 8-2l4 3 6 8c1 3 2 9 5 8l3-5-1-13-1-2-6-1-8-6-2-1-2-2-10-7zm-285 52q-3 0-3 4l-2 4-9 12-3 4-6 8q1 4 3 4c4 1 4-3 8-1l25 20 3 3v6q2 2 5 1l7-8 5-8 9-11 4-4q3 1 4-2t-1-5l-4-10q0-3-3-4-3 1-3 4l-2 12-6 8-3 4-3 3-5-2-4-3q-8-5-3-8 2-5 8-6 5 0 5-5l-1-2-6-1h-7q-2-1-5 1v5l-2 5q-3 1-5-2c-5-4-6-4-1-10q3-5 10-8l5-1 2-2 1-1q1-3-4-4zm222 324-34 4c-3 0-6-5-8 0l-4 9-2 4q-1 7 5 4l4-3 1-1q5-5 13-5h5q8-3 8 4l1 12-2 1q-4 2-8 1c-3-1-7-5-9-3q-2 1-2 4l2 2 7 9 2 1c3 1 4-3 5-4q3-2 5-1 2 2 2 5 1 3-1 5l-5 2q-6 1-11-1l-5-2-4-2q-3 0-3 3l3 5 1 1 3 3 2 2v1l1 1h2l4-2 23-3q9-1 12-4-2-6-5-5-2-2-2-5l-4-28v-6l3-3c2-1 2-6-5-5m102-71-4 3-1 1-4 4-1 1q-3 3-3 6 2 3 5 2l2-1 3 7-4 6-4 4q-2 4-7 3l-3-1q-2-1-1-3 0-5-4-4l-5 4-3 3v1h-1v1l-5 5-1 3 2 3h4l4-1 7 3 33 13 3 2q4 0 4-2l2-2h1l3-6-13-29-6-17c-1-3 2-5 0-8q-2-2-3-1m-244 51-5 1-4 2-2 2-7 15-3 8-4 9q-2 2-5 1-3 1-2 4l3 3 8 4q3 2 5 1l2-4-2-2v-2c0-4 5-14 7-18 4-11 7-20 20-13q5 2 5 8l-3 9-13 21-2 1-5 1v5l8 4 8 4q3 2 5 1 3-2 1-5l-2-4 7-11 5-8c4-6 9-14 3-23l-2-2-2-3-2-1-4-3q-7-5-18-5m66 22q-5 3-1 6c3 3 3 2 2 8l-2 9-1 4h-4q-7-1-10-6l-3-2q-4-2-3 5l3 8q0 6 5 5l4-2 5 1q2 0 1 4l-1 4q-1 3-3 2-8 0-14-3l-3-2-2-1-5-6-1-1-4 1v4l7 15c2 2 4-1 9 0l9 1 18 3q6 3 8-1c2-4-3-5-4-6l1-9 5-28 2-2 4-2v-4l-4-2-9-2zm198-113-3 2-5 11q-3 4-3 8 1 2 4 2l4-2q2-1 4 1l3 2 8 3q4 1 1 7-2 4-6 5-4 2-6 6 2 4 8 2l10-1 1-4v-5q2-6 8-1 4 1 2 5l-3 8q-4 7-13 10l-3 2v4h10l10-2c2-2 0-4 2-8l4-8 7-15 4-8c0-2-3-5-7-1h-4l-11-5-18-10-4-2v-5q-1-2-4-1M264 124l-5 5-7 3-7 4-8 3q-4 3-7 2-6 0-5 5l-1 10c0 2 0 8 3 7q4-1 4-6l3-5 1-1 7-4 2 3 2 4 7 14 5 11v4q-2 0-2 3-1 2 1 3 4 2 8-1l7-4c3-1 9-3 7-7l-3-2c-4 0-3 1-6-5l-10-21-3-8q-1-2 2-2c6-4 11-1 16 0h5q1-3-2-5l-10-8zM128 322c-3 0-11 5-13 6l-2 1-1 1c-3 3 0 4 1 7v4l1 18v9c-1 2-4 4-1 7 1 2 9 5 12 6q4 3 7 1 1-3-3-6-6-5-6-12l1-3 14-1 19-1 4 1c1 0 1 4 5 4 5 0 3-6 3-10v-9q0-5-4-6l-3 1c-2 3 0 4-5 4l-5 1h-9l-18 1q-3 0-3-3 0-8 5-13l2-3q2-1 1-3zm81 134-15 3q-4 2 1 6c5 2 9 0 16 7l5 5q2 3-1 5l-5 5-2 1-1 1-2 3-3 2-4 5-2 2h-1l-2 2-3 2c-2 0-5-3-7 1v3l2 3 8 9q3 5 7 3 2 0 2-3l-1-3q0-3 2-3l3-4 2-1 3-3v-1l4-3 2-2 5-5 1-1 3-3 1-1 1-1 6 1 3-2-1-4-4-5-2-2-3-2-11-12-2-3q1-5-5-5m-42-45-2 2c-2 3 4 5 7 7q7 4 10 12c3 6 2 5-9 11l-6 3-15 8c-3 1-4-3-7-2l-3 2q-1 4 2 6l3 6c3 5 5 11 9 9l2-3v-4l12-7 6-3 6-3 6-3 3-2q2 0 3 2 5 2 6-2l-2-7-3-5-3-6-6-13c-1-2 2-6-2-7l-8-1zm396-132q-2 0-2 3 0 4-4 3l-31 8h-5l-3-3q-3-1-4 2v5l3 10q0 7 5 8 3-1 3-4 1-3 3-3l31-7q3-2 5-1l4 4 4-2-1-6-2-10c-1-3-1-8-6-7"/>
	<path fill="#4ee549" d="m325 121-3 1-6 7q-3 7-2 15c0 9 6 19 15 18q14-5 11-23l-2-6-3-6c-1-2-5-7-10-6"/>
	<path fill="#fefefe" d="M368 354q-10 2-9 12 2 10 12 10 10-3 8-13-1-9-11-9m2 24-5 3q-3 6 2 11c7 6 16-5 8-12zm-20 1q-6 2-5 8l3 4q5 4 9-1c3-5-2-12-7-11"/>
	<path fill="#4ee549" d="m487 486 15 7-3-7-3-7q0-4-4 0l-1 1z"/>
</svg>