<svg xmlns="http://www.w3.org/2000/svg" width="1024" height="1024" fill="none"><path fill="#FDF0D3" d="M0 0h1024v1024H0z"/><rect width="911" height="912" x="57" y="56" fill="#FFFCED" fill-opacity=".5" rx="40"/><path fill="#52A00B" stroke="#05443F" stroke-width="8" d="M459 259V94c-38 212-21 247-10 261 6 6 40 33 42 45 7 47-5 249-13 332-5 41-7 130-7 152 0 33 63 35 63-2v-1c1-11 1-95-6-149-18-158-12-295-8-332 1-6 3-18 38-49s2-178-15-261v177c-13-24-29-8-44 0-12-24-40 4-40-8Z"/><path stroke="#000106" stroke-width="3" d="M505 301c-5 4-17 17-24 17"/><path stroke="#000106" stroke-width="3" d="M506 299c-3 6-17 16-46 8m93 14c0-5-3-16-13-15m0 0c-12 3-14 5-22 4m22-4c3-3 9-8 9-10"/><path fill="#fff" stroke="#000106" stroke-width="3" d="M509 299c-3 0-2-6-1-10 0-6 13-7 27-9 14-1 22 6 20 12s-42 7-46 7Z"/><path fill="#fff" stroke="#000106" stroke-width="3" d="M478 289a56 56 0 0 1 28 0c2 1 3 5 1 9-4 5-25 6-33 6-7 0-32-8-23-6 8 2 15-5 27-9Z"/><ellipse cx="486.5" cy="295" fill="#000106" rx="10.5" ry="9"/><ellipse cx="531.5" cy="289.5" fill="#000106" rx="10.5" ry="9.5"/><path stroke="#000106" stroke-width="2.5" d="M555 288c-14-12-28-40-55-11"/><path stroke="#000106" stroke-width="3" d="M508 288c-12-18-35-29-57-7"/><ellipse cx="483" cy="290.5" fill="#fff" rx="2" ry="1.5"/><circle cx="529" cy="285" r="2" fill="#fff"/><ellipse cx="489.5" cy="293.5" fill="#fff" rx="2.5" ry="1.5"/><ellipse cx="535.5" cy="288" fill="#fff" rx="2.5" ry="2"/><ellipse cx="482.5" cy="295" fill="#fff" rx="1.5" ry="1"/><circle cx="528" cy="290" r="1" fill="#fff"/><path fill="#B56814" d="M553 322c-16 14-66 11-89 7-9-1-9 3-9 5 0 1 5 7 14 9 72 11 81-5 83-7 2-1-1-3-3-4 2-1 6-3 7-5 5-4 0-5-3-5Z"/><path stroke="#000106" stroke-width="3" d="M459 321c-6 3-16 11-7 21m97-9a41 41 0 0 0 7-5c5-5 0-6-3-6-16 15-66 11-89 8-9-2-10 2-10 4s5 8 15 10c72 12 81-5 83-7 2-1-1-4-3-4Zm0 0c-8 4-36 12-87 2"/></svg>