<svg xmlns="http://www.w3.org/2000/svg" xml:space="preserve" version="1.1" viewBox="0 0 130.144 130.173"><g display="inline" opacity="1"><path d="M0 0h130v130H0z" fill="#cdc6bc" fill-opacity="1" display="inline" opacity="1"/><path d="m.144 21.714 22.306-.063L22.387.144h86.845l-.125 21.57h21.037v86.7h-20.85v21.507l-87.095.251.25-21.758H.145Z" fill="#e86d73" display="inline" opacity="1"/><path d="M51.815 107.802c-1.024 3.301-1.738 6.718-1.71 10.186 11.147 11.564 25.474 7.177 29.803.292-.272-3.598-1.543-7.084-3.058-10.325-3.373-.213-7.44 7.706-25.036-.153z" fill="#bf8267" fill-opacity="1" display="inline" opacity="1"/><path d="M49.746 117.749c5.734 6.76 16.697 11.644 30.096-.014-.183-3.438-1.526-6.189-2.91-9.305-11.96 9.579-16.472 10.833-27.186 9.32z" fill="#ac6748" fill-opacity="1" display="inline" opacity="1"/><path d="M35.227 56.38c4.525 17.172-3.46 29.242 10.535 43.1l33.579 2.783c13.991-9.437 10.737-29.443 13.405-44.759 11.37-51.22-69.006-46.604-57.52-1.124Z" fill="#bf8267" fill-opacity="1" display="inline"/><path d="M64.402 25.416c15.392 6.19 8.655 17.624 5.123 27.136-6.123 16.487 8.917 21.532-4.823 23.246-.206 4.978 2.97 23.64-3.174 25.561 9.765 8.95 28.135-7.346 30.007-28.47 1.53-17.267 5.918-57.325-27.133-47.473z" fill="#ac6748" fill-opacity="1" display="inline" opacity="1"/><path d="M63.928 99.351c.655-1.656 1.143-5.09 4.112-5.623-1.998-1.678-4.59-3.552-8.466-.397 3.086 1.279 4.2 5.651 4.354 6.02z" fill="#3e2c21" fill-opacity="1" display="inline"/><path d="M37.012 71.399c-4.795 46.856 52.98 60.725 54.536 1.28-6.91 19.026-9.617 14.473-25.087 3.779-1.999 2.615-4.79 1.777-6.332.221-13.115 14.936-17.906 12.139-23.117-5.28zm37.879 18.137c9.412 15.502-32.52 12.597-22.073-.472 1.622.293 5.596-6.641 10.548-3.47 4.476-3.05 8.987 2.156 11.525 3.942z" fill="#3e2c21" fill-opacity="1" display="inline" opacity="1"/><path d="M54.706 74.265c1.692 3.277 4.654 2.055 4.946 1.587 1.91 2.702 5.527 3.19 7.307-.474.142-.292 2.06 1.864 4.693.309 2.711-1.603-2.251-6.559-1.561-5.352 1.492 2.61-2.006 1.376-2.027 1.431-2.21 5.667-7.298 5.367-7.423.997-5.796-1.627 8.134-16.556-1.128-21.047 1.544 4.041 1.025 7.26.37 9.881-1.85 7.4-5.442 10.886-5.177 12.668z" fill="#daaa8e" fill-opacity="1" display="inline" opacity="1"/><path d="M52.925 89.312c5.85 4.413 18.607 1.576 21.665.138-2.829-1.828-7.507-6.491-11.143-3.484-3.559-3.293-8.79 2.802-10.522 3.346z" fill="#793c39" fill-opacity="1" stroke="#918d61" stroke-opacity="1" stroke-width=".076" display="inline" opacity="1"/><path d="M52.93 89.337c5.451-1.233 5.44-1.994 10.503-.674 5.361-1.65 6.852-.002 11.063.797-4.944-.792-6.502-1.348-10.926.229-3.591-1.531-6.194-1.022-10.64-.352z" fill="#5e2927" fill-opacity="1" display="inline" opacity="1"/><path d="M55.805 73.93c-.346 1.35 1.885 1.597 2.93 1.094.711-.305-2.22-2.806-2.93-1.094z" fill="#3e2c21" fill-opacity="1" display="inline" opacity="1"/><path d="M71.415 73.928c.346 1.349-1.886 1.597-2.93 1.094-.712-.305 2.22-2.806 2.93-1.094zm-15.34-23.22c-5.021-1.057-3.29-2.056-13.869-.363 3.274-3.81 15.88-3.22 13.869.363zm15.79-.047c2.269-.742 7.535-1.66 13.682.57-.715-.836-.858-1.72-2.267-2.24-5.038-1.86-13.79-1.4-11.414 1.67z" fill="#3e2c21" fill-opacity="1" display="inline"/><path d="M36.987 31.765c-8.871 6.594-4.977 8.313-7.317 13.632-.676 1.539 2.577 2.151 3.486 4.227 1.219 2.781-1.003 2.003-.4 2.55 2.568 2.332 2.755 5.642 1.926 5.537-.478-.061.96 2.297 1.479 4.496 1.313-4.25 1.95-18.596 2.23-23.777 4.694-8.602 5.978-10.693 10.261-14.444 11.79-.475 12.679 2.723 28.491.988 6.198-.68 14.351 8.48 13.476 16.557-1.054 9.719.905 18.574 1.498 22.474.305.12 3.523-1.717 2.64-3.012-1.452-2.126 3.354-2.442 2.56-4.103-2.24-4.692 3.164-2.386.87-5.712-2.802-4.06-.063-4.485 2.553-4.846 1.263-.175-7.087-8.267.736-8.74 3.005-.18-10.963-11.04-6.736-12.335-9.435-9.713-24.062-12.55-36.28-11.864-8.757.548-15.128 5.709-21.473 18.372z" fill="#3e2c21" fill-opacity="1" display="inline"/><path d="M97.675 139.311h-3.533v-3.452h-8.753l-.04 3.452h-3.091v9.074h3.171l-.106 3.673 8.819.141.04-3.814h3.493z" fill="#fc2403" display="inline" opacity="1" style="mix-blend-mode:normal" transform="translate(-40.505 -87.842)"/><path d="M111.379 139.577h3.533v-3.453h8.752l.04 3.453h3.092v9.074h-3.172l.107 3.673-8.82.14-.04-3.813h-3.492z" fill="#fc2403" fill-opacity="1" display="inline" opacity="1" style="mix-blend-mode:normal" transform="translate(-40.505 -87.842)"/><path d="M22.14 129.965c31.37.278 55.843-.024 87.217.065-8.936-10.824-7.917-7.972-29.429-12.367-9.39 7.664-21.26 8.98-29.835-.013-19.087 4.282-20.953 1.996-27.953 12.315z" fill="#1a1a1a" fill-opacity="1" display="inline"/><path d="M16.026 53.408c-6.293.06-13.905 18.152-3.101 23.427 11.314 3.344 16.34-21.913 3.101-23.427zm1.566 20.578c-5.122 5.087-12.18-7.056-3.879-16.68 5.093-6.25 11.651 8.957 3.879 16.68zm95.753-19.74c-2.18 1.53-7.04 5.495-4.596 5.444 7.584-5.199 2.176 12.728 2.292 18.102.03.566 1.911.601 1.953.253 1.386-11.42 2.4-24.902.35-23.8z" fill="#030303" fill-opacity="1" display="inline"/></g></svg>