<svg xmlns="http://www.w3.org/2000/svg" viewBox="0 0 4000 4000"><path d="M0 0h4000v4000H0V0Z" fill="#0D0B07"/><path d="M1190 0h120a25960 25960 0 01 1070 0h1620a84630 84630 0 01 10 910v30l-10 70c-70 60-180 50-260 60-30 0-30 0-50 20v40c-10 100-60 200-100 290l-30 70h-10v-20l-50-230v-30l-10-30v-20l-30-60-310-10-20-10a21070 21070 0 00-1090-30 6610 6610 0 00-300-10h-190c-140 0-250-20-360-120l-10-20-20-20c-90-90-150-190-150-320V460c0-160 50-300 140-440l40-20Z" fill="#FBFBFB"/><path d="M3060 1280h30c80-10 130 10 190 50l30 20c80 60 100 170 110 260 20 210-100 440-230 600l-20 20-20 30c-90 90-240 220-380 230-30 0-50-10-70-30l-120-30c-70 0-100-20-150-70l-80-130-20-30-20-90c-20-80-50-170-130-220-30-20-60-10-90-10-50 20-60 50-80 90s-20 70-20 120c-20 190-30 430-180 570l-80 40-30 10c-210 90-440 60-650-30-200-90-380-230-460-440l-30-170-30-10v90l-150 10a2390 2390 0 01 30-50 1570 1570 0 00 20-50c40-60 70-90 130-110 40-10 50-30 70-60 80-90 180-130 290-170l30-10c250-80 550-60 790 60l20 10c30 20 50 20 90 20l60-30c90-50 190-90 290-80 90 10 90 10 170-20l60-100c150-180 390-290 630-290Z" fill="#1B1CF5"/><path d="M4000 1100v2900h-230l30-60c40-60 70-120 80-200l-20-10-10 20-70 70-20 10-90 40 10-10 90-150 10-20c30-50 50-90 60-140v-40l-20 20-10 10a1180 1180 0 00-40 40c-70 80-160 120-270 130-140 10-280-20-390-120-30-40-50-80-50-130l30-90c10-50 20-100 10-160l40-120 50-120v-20a20280 20280 0 00 40-110c90-240 140-500 130-760 0-70 10-120 40-190l40-150 10-30c20-110-10-230-70-340a1140 1140 0 00-40-50c-50-60-80-130-80-200h180c70 130 100 300 90 450 40-10 60-50 80-80l10-20 140-340h70l40-10 130-20Z" fill="#F77D08"/><path d="M450 2200h80l40 90c30 70 70 130 120 180 30 40 30 40 30 70v40c20 80 60 140 130 180h40l-30-20c-40-40-80-80-100-140l10-40 20 10c210 190 490 240 760 230l130-30-50 50c30 0 60-30 90-40l20-20a16100 16100 0 00 90-50c230-150 470-300 750-250 70 20 130 40 180 100l-10 30-50 10c-60 20-110 60-170 100-100 60-190 120-300 160l-20 10c-130 50-270 50-400 50-120 0-210 0-310 60l-20 10c-30 10-30 30-40 50l-20 20c-20 60-20 130-10 190 50 120 140 170 250 230l-40 60c-20 50-30 100-20 150 20 70 50 110 110 150l20 20 30 10 20 10c100 40 230 30 340 10l-20 60 10-10a6300 6300 0 01 70-60l20-20a1380 1380 0 01 250-160c70-40 140-30 210-30 0 70-20 120-60 170-50 50-120 90-190 120l-20 10c-60 30-110 40-180 40h-140a29920 29920 0 01-220 0 19730 19730 0 00-420 0c-230 0-230 0-320-80a2850 2850 0 00-50-30 8460 8460 0 01-50-40l-20-20-170-140-20-20c-120-110-190-240-260-380l-30-60c-50-90-50-160-60-260 0-60 0-110-30-170l-10-20a3260 3260 0 00-30-60c-70-140-140-320-90-480 10-20 30-40 60-50h100Z" fill="#39932A"/><path d="M1750 1910c90 70 140 150 150 260 10 130-30 230-110 330-90 90-210 130-340 130-140 10-300-30-410-120a62460 62460 0 00-30-20c-130-90-230-210-280-360-10-80-10-140 40-200 240-260 720-220 980-20Z" fill="#070708"/><path d="M3850 1720h50l10 30 40 10 30 10 10 80v110a38890 38890 0 01 0 260v40c0 50 0 100-20 150h-50v-40h30l10-80h-60l-10 60-50 10-10-50 40-20v-60h-70v-60l40-20v-60l-60-10-10 80-50 10v-40l-80-10 10 60 60 10v50l-30 10v70h50v-70h60v40l-10 10c-30 30-30 60-30 90h-50v60l40 10h20l10-70h50l10 50h-40v70h60l10-60 50-10v40l80 10v60l-30 20-10 60h-50l-10-40 20-10 30-40v-30l-70-10-10 80-50 10-10-40-70-20-10 80-20 10-30 10-10 60h-30v90h50v-80h60v40l-10 10c-30 30-30 60-30 90h-50l-10 60-10-30h-50l-10 20-70-20-10-40-50-10v60l50 10 10 60h-40v70l30 10 30 10 10 40h-70l-10-30-50-10v70l60 10 10 50-20 10c-40 30-40 50-50 90h-30v60h20v20c30-20 40-20 50-60v-20l60-20 10 20 10 30 60 10 20 60-20 10-30 10-10 60h70l10 60h-50v-20h-20v-20h-60v60h70v60l-30 10-20 70 100 10c-90 50-200 40-300 20-90-40-180-80-230-160-30-70-10-110 10-170 10-50 20-100 10-160l40-120 50-120v-20a20280 20280 0 00 40-110c90-240 140-500 130-760 0-70 10-120 40-190l40-150h10v60l50-20-10 60h80v-60l50-10 10 50h-40l-10 80 60-10 10-60h50l10 50h-40v70h60l10-60 50-10v50h-30l-20 80h70l10-70 60-20 20 60h50l10-50-70-20-10-50 40-20v-60h-50l-20 70-50 10-10-60 20-10 30-10 10-60Z" fill="#F36A05"/><path d="M3180 1490c60 50 90 100 100 170 10 170-40 330-140 470a1370 1370 0 01-40 40l-20 20c-80 80-180 150-290 160-70 0-120 0-180-20l-30-10c-100-50-170-140-210-240-30-100-40-240 10-340l90-100 20-30c180-180 470-280 690-120Z" fill="#07070A"/><path d="m1730 1150 130 50c110 50 220 70 350 90l210 50-20 20c-60 40-100 80-120 150l10-10 70-60 20-20c50-40 80-50 140-50l50 10-70 70c-80 60-140 130-170 220h-70l10-80-10 30-30 40-90 10c-70 10-120 30-190 60l-70 20-40-30 20 50c-40 0-60-10-90-30-250-120-580-140-850-60l-30 10c-120 40-230 110-310 200l-40 40h-20l50-150c50-130 60-260 60-390v-30l-10-120v-80l160 60 210 70v20l-20 10h-40l-30 10-80 30-10 20 30-10c130-70 280-60 420-30h110l120 30c150 50 310 50 460 50h30c70 0 70 0 130-20l10-20-20-10-150-70-30-10-190-130v-10Z" fill="#389029"/><path d="M2890 2650c30 30 50 50 60 90a380 380 0 01-250 390l-40-10 80-50-40-10a3240 3240 0 01 40-40l20-20c20-20 20-20 60-20l10-80-10 10a32460 32460 0 01-50 40 3590 3590 0 00-40 40c-210 190-420 220-700 240l-70 10c180 0 350 0 530-40-20 40-70 50-110 60l-110 30-20 10-60 10v20h20v20l40-10 10-30a840 840 0 01 80-20l20-10 60-10-110 80-40 20-30 10-30 20-120 30-100 20h-160c-80 10-140-10-210-50v-20h-20c-60-20-100-70-130-110-30-50-30-110-20-160 30-60 80-100 140-130 90-30 180-20 280-20 140-10 270-20 400-80l30-10c90-40 180-90 260-150l20-10a2870 2870 0 00 40-30c90-60 180-80 270-30Z" fill="#F52414"/><path d="M130 0h560l30 110c40 150 110 330 220 450 30 20 30 40 40 70 20 140 110 250 220 330l90 60 30 20c70 40 120 60 200 60l-60-20v-10c110-10 110-10 150 20a1730 1730 0 01 50 40c90 110 240 190 370 240v10a1220 1220 0 01-700-180c-160-80-310-180-460-290l-20-10a2700 2700 0 01-210-180l-30-20-140-150-20-20C130 140 130 140 130 0Z" fill="#F9CB0E"/><path d="M0 0h40l10 30c260 510 640 910 1150 1170-70 20-190-50-260-90-180-90-350-220-510-360a5360 5360 0 00-60-60l-20-10-60-50c30 60 70 110 130 150l50 50a1000 1000 0 00 160 130c150 110 150 110 320 200v10l-180-40h-20c-220-70-400-180-570-330l-40-20c30 50 70 90 120 130 30 50 20 90 20 140v40a24580 24580 0 01 0 50v30a450 450 0 01-250 370l-30 20V0Z" fill="#F7CA0E"/><path d="M2880 3070c60 20 100 40 130 100 30 50 30 100 30 160l-20 10-10 50-10 20v20h-20l-10 20c-20 60-60 100-120 130h-30v-20h-40l-10 50h-20a6050 6050 0 00-100 0l-60-10c-120 0-200 50-310 120-100 70-180 100-300 110h-30c-100 10-170-30-260-80-30-30-40-50-50-90 10-70 50-110 90-150h240l-10 10-20 20-20 20-20 40 20-20 40-10v20h40l-10-50c90-70 190-100 300-120l-20 60 10-20c40-50 70-70 120-100l-40 90h20l10-20c30-80 80-140 160-180l20-10c50-30 90-30 150-30v40l20-10 60-20-30-10v-10l90 10v-20l-60-20v-20h20v-20l-20-10c40-50 40-50 80-50Z" fill="#F42515"/><path d="M320 980c160 80 160 80 200 140 70 210 40 550-50 750-60 130-150 240-240 350l-10 20-200 210H0a25890 25890 0 01 0-220 10950 10950 0 00 0-220l-10-40c0-80 20-140 60-220l10-20c40-80 90-140 150-210a1660 1660 0 00 40-40l10-20c70-100 60-200 60-310v-50a12180 12180 0 00 0-120Z" fill="#F5C80D"/><path d="M3490 2450h50l10 50h-40l-10 80-40 10-10 30c-10 40-30 60-60 90h20v30h60l20 60 60 10v40h70l10-70h50v-80h60v40l-10 10c-30 30-30 60-30 90h-50l-10 60-10-30h-50l-10 20-70-20-10-40-50-10v60l50 10 10 60h-40v70l30 10 30 10 10 40h-70l-10-30-50-10v70l60 10 10 50-20 10c-40 30-40 50-50 90h-30v60h20v20c30-20 40-20 50-60v-20l60-20 10 20 10 30 60 10 20 60-20 10-30 10-10 60h70l10 60h-50v-20h-20v-20h-60v60h70v60l-30 10-20 70 100 10c-90 50-200 40-300 20-90-40-180-80-230-160-30-70-10-110 10-170 10-50 20-100 10-160l40-120 50-120v-20a20280 20280 0 00 130-460l10 40h30v-20l10-30 20-10v40h40v40h40l20-100Z" fill="#ED5903"/><path d="m3440 2810 50 10 10 50h130v30l80 10 10-70h50l10 50-50 10v80l-50 20 10 50h60v60h-40v-20l-90-10v30l-30 40-20 10v60l60 10v-80h60l10 50h-40v80h30l40 30 10 20h70v50h70v-50l-60-20v-40l10-10c30-30 30-50 30-80l-60 10-10 60-60 20v-30l-10-50 50-10v-60h60v30l90 20v50h-30l-10 90 60-10v-70h50v770h-220l30-60c40-60 70-120 80-200l-20-10-10 20-70 70-20 10-90 40 10-10 90-150 10-20c30-50 50-90 60-140v-40l-20 20-10 10a1550 1550 0 00-40 40c-50 50-90 90-160 100l-100-10 10-70 40-10-10-50h-60l-20-50 20-30 60 10v20h20v20h50l-20-50-60-10v-60l50-30-10-50h-60l-30-50-50 10v20l-10 50-40 10v-20h-20v-60l30-10 10-30c10-40 10-40 30-50l20-10v-50l-20 10h-30l-20-20 10-70 70 10 10 40 40-20v-30h-20c-30 0-30 0-50-20l10-70h40l-10-60h-50l-20-50 20-30Z" fill="#F26705"/><path d="M3990 1100v350l-50 10-10-50h40v-90l-50 10-10 70h-50v70l60 20 10 50h-40l-10 80h-40l-10 90h-50l-10 80-50 10v-30l-90-20-10-40h-70l-10 60h-50l-30-30h-10v-30c0-140-10-280-110-390-50-60-80-130-80-200h180c70 130 100 300 90 450 40-10 60-50 80-80l10-20 140-340h70l40-10 120-20Z" fill="#F36A06"/><path d="M3990 1100h10v2900h-10l-10-1500-50-10-20-10v-40l-50 10v30l-10 40h-60l-10-10 10-70h40l-10-50h-50v30l-10 50h-50l-20-20 10-60h50v-30c0-40 0-40 20-70h20v-40l-50 10v30l-10 40h-50l-10-50v-30l40-10v-50h-30l-40-10v-60l80 10 10 30h40v-30l10-50h60l10 40c0 30 0 30-20 50h-30v60l30-10h40l10 40c0 30 0 30-20 50h-30l20 40h40v-30l10-40h60l10 30-20 60h-30v40h50v-20l10-40v-580l-70-10-10-40h-50v30c0 30 0 30-20 50h-40l20 50h40v-30c0-30 0-30 20-50h50l10 40c0 30 0 30-20 50h-30l10 50h30c30 0 30 0 50 20l-20 60h-50l-30-60-50 10v30l-10 50a1770 1770 0 01-70-10c0-40 0-50 20-80h30v-50l-50 10v30l-10 40h-60l-10-10 10-70h40l-10-50h-50v30l-10 40h-60l10-80 30-10v-40l-50 10v60h-80v-50l-40 10v-60h30l10 30h50v-30l10-40h70l10 50h30c40 0 40 10 70 40h40v-30l10-50 40-10v-20l20-60h40v-30l10-50h40l-10-50h-20c-30 0-30 0-50-20l10-70h50v-30l10-50a1000 1000 0 01 50 0v90h-40l20 40h40v-350Z" fill="#F77F08"/><path d="M0 3090h10l10 30 10 30 10 30c30 110 90 200 150 290 230 390 230 390 230 530H0v-910Z" fill="#F4C70E"/><path d="M3010 3520h20l20 40c40 90 110 120 210 160 130 40 240 40 370 10l-100 70-30 20a1390 1390 0 01-80 30c50 0 80-10 120-30a980 980 0 01 60-30l20 10a990 990 0 01-280 170c-90 50-220 50-320 20l-140-80-20-10c-70-60-120-120-160-200v-20h70l40 50c40 40 80 60 130 90l20 10 60 10-20-10c-70-40-140-80-200-140v-30l60-10 40 40c60 70 170 130 260 140h40l-90-40c-80-30-160-80-220-150l80-80 40-40Z" fill="#F3C50E"/><path d="M2830 1420c150 0 270 0 390 100 60 70 70 160 60 250-10 110-50 190-100 280h-10v-20l-10-20v-20l-20-30a1530 1530 0 00-70 0h-60l10-10 30-60-40-10 50-10v-100l-120 10v-30h-30l-40-10-10-60v-30c0-30 10-40 30-60l10-50v-30c0-30-10-30-30-50v-20h-50l10-20Z" fill="#050506"/><path d="M3300 2110h10c0 120 0 240-30 360l-10 30a9250 9250 0 01-50 220l-10 30c-30 130-60 250-130 360h-20l-20-50 50-110 10-60-30 60-20 30-30 60-90-20h-30l30-60c30-60 50-110 60-180l10-60 10-120v-20c0-40 0-80-20-120h-20c10-40 20-40 60-60l120-100 20-10c0 90-10 170-30 260l-20 140h20c40-120 60-250 60-380 10-70 20-110 70-160l20-20 10-20Z" fill="#EFC510"/><path d="M2120 1910c40 10 50 20 80 50 80 130 120 250 100 400v30h30l-10-20v-70h20l30 40 60 60v20h-30c-160 20-300 80-440 160l-50 20 50-130a1470 1470 0 00 30-70h10v80l20-10v-60l-20-40v-100l10-30v-40c10-90 10-180 60-260l50-30Z" fill="#39922B"/><path d="M0 0h40l10 30c260 510 640 910 1150 1170-70 20-190-50-260-90-180-90-350-220-510-360a3860 3860 0 00-60-60l-80-70 20-10 20 10-80-110L20 160l-10-20-10-80V0Z" fill="#F4C80F"/><path d="M3990 1100h10v2900h-10l-10-1500-50-10-20-10v-40l-50 10v30l-10 40h-60l-10-10 10-70h40l-10-50h-50v30l-10 50h-50l-20-20 10-60h50v-30c0-40 0-40 20-70h20v-40l-50 10v30l-10 40h-50l-10-50v-30l40-10v-50h-30l-40-10v-60l80 10 10 30h40v-30l10-50h60l10 40c0 30 0 30-20 50h-30v60l30-10h40l10 40c0 30 0 30-20 50h-30l20 40h40v-30l10-40h60l10 30-20 60h-30v40h50v-20l10-40v-360a188400 188400 0 00 10-890Z" fill="#F88B1C"/><path d="M3140 1950c20 20 20 30 20 60 0 50-10 80-40 110-40 20-90 20-140 20v20h-20l-310 50c-110 20-110 20-150 10-20-30-20-50-20-90 10-30 30-50 60-70l70-20 40-10h20l60-10c150-30 150-30 210-20l20 40v70l20-10 130-20v-70h-150l-10-30c130-40 130-40 190-30Z" fill="#0F0F0F"/><path d="M1110 2370h160l-30 10 10 40v20l40 50 50 10h170l10-20 20 10h130c50 10 80 10 120-30l20-20c-10 50-50 80-80 110l-90 50-30 10c-150 50-320 20-470-40l-100-60 10-30 10 10 110 10h80v-20l-170-10-20-60c10-30 20-40 50-40Z" fill="#07070D"/><path d="M1780 2330c20 40 40 60 30 110l-60 60h-130a24250 24250 0 01-160 0h-60l-30 10c-70 0-70 0-100-20-20-30-30-50-30-80v-30a8090 8090 0 00-70 0h-80l-20 20 10 70h170l20 30c-30 20-60 10-100 10h-20c-50 0-80 0-120-30-20-30-20-40-20-80l20-50c40-20 80-20 120-20h180l30-10h60c50 0 80-10 120 20 20 40 30 60 30 100l-40-10-20-50-50-10h-130l10 20v60h140l-10-80 40 20 10 30 10 20 130 10 30-10h50l10-50c-30-30-80-20-130-20-60-10-60-10-80-30l-10-20c190-30 190-30 250 10Z" fill="#9A9A9A"/><path d="M3440 1740h10v60l50-20-10 60h80v-60l50-10 10 50h-40l-20 90h-50l-10-30-80-10 20 60h80v60h70v60h-50l-10-30-70-10 10 60 60 10 10 50h-40l-30 90h-20v70h50l10-60 50-10v40l90 10v60h-50v-30h-80l-10 60-60 10-20-50h-40l-20 50-30-10v70h-10l10-130 10-170c0-90 0-160 40-240l40-150Z" fill="#F16104"/><path d="M1990 1090h170c70 0 120 0 180 30l70 20 320 130v20c-70 50-70 50-110 50l-70-30-170-40-40-10a2860 2860 0 00-60-20c-60-10-120-40-180-70l-30-10-20-20-20-10-40-40Z" fill="#F6CA0E"/><path d="M3180 120c70 0 110 10 170 60 30 30 40 50 50 90-10 30-10 40-40 60-60 30-130 30-190 20l-40-20v20c0 50 0 90-20 140l-50 10 10-210 10-30c20-140 20-140 100-140Z" fill="#151515"/><path d="m360 3410 70 100 130 230 20 30a3040 3040 0 00 120 180l30 50H510a61880 61880 0 01-70-200c-90-270-90-270-80-390Z" fill="#378E28"/><path d="m210 590 90 80 120 120a2400 2400 0 01 50 40c140 130 310 250 480 330v10l-180-40-20-10a2390 2390 0 01-210-70l30-10-130-110c-60-40-100-80-140-130l-30-20-50-80 50 10-10-20-20-20-20-30-10-50Z" fill="#EDC20D"/><path d="M3260 2100h30c0 40-10 60-40 80-40 60-40 110-40 170-10 120-20 230-70 340h-20l20-170c20-70 20-140 20-220l-20 20c-50 40-90 80-150 110l-20 30h20c30 50 30 110 10 170l-20 70-20-20c-20-30-40-50-80-70-30-20-60-30-80-70v-20l50-10-10-50 20-10c160-80 290-180 390-330l10-20Z" fill="#0D0C0F"/><path d="M200 2370h10v30c10 110 40 190 90 290 90 170 110 300 60 480h-20v-30c-20-90-50-170-90-260l-60-140-10-20c-20-70-20-130-20-200v-60l10-30 30-60Z" fill="#F0C50E"/><path d="M50 2520v20l20 80v30c20 90 50 170 90 250l100 240 10 30 10 180v130l-30-80-10-20v-30l-80-220-10-30a8310 8310 0 00-70-130c-40-100-70-190-80-300v-90c0-30 0-30 20-50l30-10Z" fill="#F2C60D"/><path d="M0 3600c120 100 240 240 270 400H0v-400Z" fill="#0D0B04"/><path d="m2690 120 50 10 30 140 90-90 50-60h50c20 20 10 50 10 70l-10 190v30c-10 70-10 70-30 100l-40-10V250l-70 80-60 10-60-70-50 170h-40c-10-110 20-220 80-320Z" fill="#151515"/><path d="m3860 3730 30 10c-10 80-40 140-80 210l-20 30c-20 20-40 30-80 30l-30-10h-100a21330 21330 0 00-60 0h-130l90-60c90-40 160-100 210-170 20-20 40-30 70-30l-80 120c110-50 110-50 180-130Z" fill="#100C04"/><path d="M3260 1120h180c60 130 100 290 90 430l-30 10-10-50-40-10-10 20-10-20c-20-80-50-130-100-200-40-50-60-110-70-180Z" fill="#EA5B04"/><path d="m2430 110 30 30 10 20 10 30 10 30 10 40c20 60 30 110 30 170h-50l-20-80c-100-10-100-10-190 30l-30 70h-40c10-110 90-220 160-300l20-20c20-20 20-20 50-20Z" fill="#141414"/><path d="m1780 1600 40 40v20l-100-40-160-70-40-20c-90-30-180-30-270-30h-40c-80 0-150 0-220 30l-30 10-180 90a38870 38870 0 01-60 40l-30 20-40 10c10-60 50-80 100-110l20-20c290-190 720-170 1010 30Z" fill="#0A1109"/><path d="M0 120c30 10 30 30 50 60 60 120 140 230 220 340l20 20 20 20 20 60c-50-10-70-40-100-70l-20-30-20-20-20 10c-30 20-50 30-80 20L0 430V120Z" fill="#0E0C04"/><path d="M1410 0h20l-20 20-10 10a1450 1450 0 01-40 40 600 600 0 00-180 420l10 240c-20 0-40-10-50-30-60-130-40-310 10-440 40-110 120-280 260-260Z" fill="#161616"/><path d="m1400 1780 40 60c0 40-10 60-30 90v120l60 30v30l-130 10h-70l10-40 40-10-10-100-60-50c-20-20-30-30-30-60 10-40 20-60 50-80 50-20 80-20 130 0Z" fill="#9D9D9D"/><path d="M1580 610h50l20 40 10 20 10 40h20l10-20 40-80h60c40 80 20 220 20 310a880 880 0 01-50 10l-20-50v-80l-10-60-10 10c-20 20-20 20-50 20l-50-10-10-40h-20a11240 11240 0 00-10 90l-10 30v30l-20 50-40-10c0-100 10-210 60-300Z" fill="#191919"/><path d="M1790 1650c-40 10-50 0-90-20a990 990 0 00-670-50l-40 10c-90 20-180 50-270 100l-20 10-20-10c70-60 150-100 230-140l30-10c270-120 610-50 850 110Z" fill="#61B952"/><path d="M1450 2130a44100 44100 0 01 160 0l10 40 10 30v20c-20 20-30 10-50 10h-100l-100 10h-230l-10-100 310-10Z" fill="#A3A3A3"/><path d="M2870 1450c30 10 30 10 40 40 0 40 0 80-30 120l-10 80v50l60 10v30l-80 20-20 10-100 10 10-40 30-10 30-40v-60l-20-10c-30-10-40-20-60-50-10-40-10-60 10-100 50-50 70-70 140-60Z" fill="#9D9D9D"/><path d="M300 1510h30c10 140-20 280-90 400l-20 30c-60 110-120 210-220 290v-100l60-70c120-140 200-340 230-520l10-30Z" fill="#111006"/><path d="M2910 3220h20v40l50-20c20 20 10 30 10 60 0 50-10 90-40 140l-50 20v20c-20 40-60 50-100 80-40 20-80 20-130 20l-20-40c40-50 90-90 140-120 60-50 100-90 110-160l10-40Z" fill="#FE4E3E"/><path d="M3060 1770v100l-120 30-40 10-190 40-40 10h-60v-90l320-80 30-10 100-10Z" fill="#A0A0A0"/><path d="m1810 130 10 40h-30l-40 10h-20l-110 30v30h20c70 30 160 60 200 130v50c-60 50-100 60-170 60-50 0-90-20-130-40l-10-30h230l10-40-40-20-40-20-30-10-20-10-20-10-50-40v-70c70-60 150-60 240-60Z" fill="#161616"/><path d="m2120 610 10 40c-20 20-20 20-60 20a3300 3300 0 01-40 0h-80v80h110v40l-70 10h-50v70h100c30 0 30 0 50 20v30c-30 20-70 10-100 10h-90l-20-40 10-180v-20l20-70 210-10Z" fill="#171717"/><path d="M2500 600c90 0 150 10 210 70v60c-70 40-110 50-190 50v120h-40c-20-20-10-40-10-60v-50c0-140 0-140 30-190Z" fill="#131313"/><path d="m190 300 60 70 10 20 20 20c230 340 550 600 920 790-60 20-140-30-200-60a3250 3250 0 01-60-30l-20-10c-30-20-60-30-80-60l-20-10v-20l-20-10c-40-10-70-40-100-70l-20-10a9680 9680 0 01-30-30 4130 4130 0 00-60-50 550 550 0 01-80-90l-20-20a12800 12800 0 00-180-220l-20-20c-40-60-80-120-100-190Z" fill="#F1E833"/><path d="m3650 2340 30 10v50l10 50-10-30h-50v30l-20 60h-30v50h30l50 10v60l-60 20v60h-50l-10-40v-20l40-10v-60h-30l-50-10 10-70h40l-10-50h-50v30c0 30 0 40-20 70h-40v-40h-40v-30l60-10v-40h30l10-50h60v40l60-10v-30c0-40 0-40 40-40Z" fill="#F57507"/><path d="M3670 1380h20v20h20v40h30l60 10v40h30l40 10v60l-20 20h-30v30c0 30 0 30-20 50l-70-20v-40h-30c-30 0-30 0-50-20l20-70h30l-10-40h-40v30l-10 40h-50c10-60 40-120 80-160Z" fill="#EF6D06"/><path d="m2710 2510 50 50v20c-50 0-80-10-120-30-120-60-320-20-440 10l-130 50-80 20c10-30 10-30 40-50 210-100 460-190 680-70Z" fill="#5EB550"/><path d="M1440 2320c40 0 60 0 90 20 30 30 40 60 40 100l-40-10-20-50-50-10h-130l10 20v60l-40-10-10-60a12040 12040 0 00-130 0h-50l-40 20 10 70h170l20 30c-30 20-60 10-100 10h-20c-50 0-80 0-120-30-20-30-20-40-20-80l20-50c40-20 80-20 130-20h80l110-10h90Z" fill="#A0A0A0"/><path d="M2630 2930h50c-10 60-40 90-80 130-80 50-150 100-250 100h-50l-10-40 20-30h40v-20h40v-20l60-30a4700 4700 0 00 50-30l50-10 10-30h40v30l30-10v-40Z" fill="#FB4C3C"/><path d="M3220 650h20c30 0 40 10 60 30l-10 30h-20c-50-10-80-10-130 10l-10 30 20 10c50 10 100 30 140 70v60c-20 20-40 30-70 30h-70l-80-20v-40l140-10-50-20c-70-30-70-30-90-60v-60c40-50 80-60 150-60Z" fill="#111"/><path d="M250 940h30v230a450 450 0 01-250 370l-30 20v-70l130-120c40-40 70-100 100-150v-200l20-80Z" fill="#F6F036"/><path d="M2980 1320h20c120 0 220 30 300 110 40 50 60 70 60 140-30-10-50-30-70-60-120-120-270-140-430-150 30-40 70-50 120-40Z" fill="#4546FF"/><path d="M130 0h560l30 110c40 150 110 320 220 450 20 20 20 20 20 50-120-50-200-230-250-350-30-80-50-160-50-250H130V0Z" fill="#F4EA3A"/><path d="M2940 2000c20 20 20 20 20 60v30h-40l-10-50h-50l-30 10-70 10v30l-10 50h-20l-20-60c-60 0-110 10-170 40l-10 50v20h20c40-20 80-20 130-20l10 30-60 20h-30c-40 10-70 10-110-10l-10-80c10-30 30-50 60-70l70-20 40-10h20l60-10c150-30 150-30 210-20Z" fill="#999"/><path d="M2150 140h80l40 10-30 40h-140v210l-10 40-50-10 10-240h-130l-10-40 240-10Z" fill="#131313"/><path d="m1760 2550 10 40a440 440 0 01-340 120h-30c-80 10-130-10-200-50v-30c50 0 100 0 150 20 130 20 230 20 350-50a1170 1170 0 00 60-50Z" fill="#4445FF"/><path d="M910 0h190l-40 100-70 180c-30-30-30-60-50-90v-30c-20-50-30-100-30-160Z" fill="#F6CA12"/><path d="M0 2820a2890 2890 0 01 200 450v20c20 50 30 90 30 140l-70-100-10-10c-50-90-80-170-100-270l-10-20-10-60a3680 3680 0 00-20-60l-10-90Z" fill="#EFE12D"/><path d="M2790 620h40l10 100v30l10 30v90h150l10 40-120 30h-80c-20-20-20-20-20-50V620Z" fill="#111"/><path d="M3310 2110a1360 1360 0 01-60 470v30l-10 30v20l-30 40a1570 1570 0 01 40-410v-20l10-60c10-100 10-100 50-100Z" fill="#F3E935"/><path d="M3140 1950c20 20 20 30 20 60l-10 80c-60 50-140 60-220 60-30 0-30 0-50-20v-80h30l20 60h20c50-20 100-20 160-30v-70h-150l-10-30c130-40 130-40 190-30Z" fill="#999"/><path d="M260 1540h20c0 70-10 120-30 180l-10 30c-50 140-120 270-230 380H0c0-40 0-60 30-90 110-150 180-320 230-500Z" fill="#F4ED35"/><path d="M0 3730c70 80 120 170 160 270H0v-270Z" fill="#FCCF0F"/><path d="M1560 1070c40 10 50 20 70 40 110 120 250 200 400 260v10c-150 0-270-80-380-170l-20-30-20-20c-50-60-50-60-50-90Z" fill="#F5EF36"/><path d="M2950 2460c40 80 50 150 30 240l-20-20c-20-30-40-50-80-70-30-20-60-30-80-70v-20l60-30 40-20 50-10Z" fill="#378D28"/><path d="M90 820h20c30 200 0 350-100 520H0c-10-80 10-130 40-200l30-110v-70l10-70v-40l10-30Z" fill="#181404"/><path d="M640 2070h30l10 30c50 110 90 210 180 290l20 40c-70-10-120-60-170-110-30-40-30-40-30-70h-20c-30-60-40-110-30-170l10-10Z" fill="#4445FF"/><path d="m3860 3730 30 10c-10 90-50 190-120 260h-50l60-90 20-30 10-20-20 20c-30 30-40 40-70 40l-10-20h-30l10-40 50-30c70-40 70-40 120-100Z" fill="#100B04"/><path d="M3980 1970h10v160l-50 10v30c0 30 0 30-20 50l-60-20 10-70h40l-10-50h-20c-30 0-30 0-50-20v-50l40-10h30v20h20l10 20h40v-30l10-40Z" fill="#F98509"/><path d="M1250 1700h120v20h-20c-270 30-270 30-530 130l-40 10c30-70 120-100 180-130 100-30 190-30 290-30Z" fill="#4344FE"/><path d="m2140 1760 30 20v30h-20a7620 7620 0 00-80 30h-20c-60 20-100 40-140 80l-40 10c-10-30-10-50 10-80 80-80 150-100 260-90Z" fill="#4647FF"/><path d="M310 2270v90c10 110 50 210 100 300 30 60 40 110 40 180l-80-130-10-20-60-150-10-20c-20-80-10-160-10-240l30-10Z" fill="#5FB751"/><path d="M2430 1100h220v20l20 10 80 50 80 50v20c-50 10-70 10-110-10l-20-20-270-110v-10Z" fill="#E5BC0E"/><path d="m3450 1500 50 10 10 40h20v20l60-10 10 50h30l40 10v50h-80v-40l-50 10v60l-70 10v-80l40-10-10-40-50-10v-70Z" fill="#F37107"/><path d="M3770 3120h60v30l90 20v50h-30l-10 90 70-10v60h-40v-20l-90-30v-40l10-10c30-30 30-50 30-80l-60 10-10 60-60 20v-30l-10-50 50-10v-60Zm170 110h50v50l-40 20-10-70Z" fill="#F26605"/><path d="m500 2200 40 10 20 50c30 90 90 180 160 250v30c0 60 20 120 60 160l90 70v20h20v20c-80-20-130-70-170-140v-20h-20v-30c-20-80-40-130-90-190s-110-150-110-230Z" fill="#5AAE4C"/><path d="m1990 1090 140 50 20 10 100 50 90 30h40l80 20c70 10 130 30 190 60l-10 30-20-10-240-70h-40a2860 2860 0 00-60-20c-60-10-120-40-180-70l-30-10-20-20-20-10-40-40Z" fill="#F4ED34"/><path d="M3150 160c60 0 100 10 150 50l20 20 10 30-20 30h-170l10-130Z" fill="#EFEFEF"/><path d="M170 2410h20v130c10 140 50 260 110 380 40 80 60 160 60 250h-20v-30c-20-90-50-170-90-260l-60-140-10-20c-30-100-20-210-10-310Z" fill="#F5EB33"/><path d="m3840 1490 30 10v60l-20 20h-30v30c0 30 0 30-20 50l-70-20v-40h-30c-30 0-30 0-50-20l10-50 50-10c30 20 30 20 40 50h40v-30c0-40 10-50 50-50Z" fill="#F88209"/><path d="M2780 2660h30c40 0 50 10 80 40v40h-20l-10-30-30-10v40h-30l-40 10h-20l-90 30h-40v-40h40v-70a770 770 0 01 130-10Z" fill="#FE4E3D"/><path d="M2270 1580c20 30 0 60-10 90l90-10-10 40h-30c-180 0-320 30-470 110l10-30-10-60 30 10c40 10 60 0 100-20 90-30 170-50 260-50l10-30 30-50Z" fill="#080E11"/><path d="m3810 3840 10 20a60950 60950 0 01-30 50l-20 20-20 30-10 20c-30 30-70 20-120 20h-20a4130 4130 0 01-70 0c60-60 100-100 180-110l40 20 60-70Z" fill="#251E05"/><path d="m500 3200 90 130c50 90 110 180 180 260l20 50h20l30 40 60 60 20 10v20l20 10 50 50c-210-100-350-330-450-530l-30-50-10-50Z" fill="#5BB04D"/><path d="M3470 540h30v180l-10 30a8220 8220 0 01-10 60 880 880 0 01-50 10l-10-50 10-120 10-20c0-40 10-60 30-90Z" fill="#161616"/><path d="m1190 3040-10 20c-30 60-20 150 10 220l80 110 40 60c-60-10-90-50-130-100l-20-30c-40-70-50-150-40-230 30-50 30-50 70-50Z" fill="#5FB650"/><path d="M3510 3240h60c20 20 20 20 20 50h30l50 10v60l-40 10h-20v70h-50l-10-40v-20l40-20-10-50h-30c-30 0-30 0-50-20l10-50Z" fill="#F47106"/><path d="M0 2670h10v20c20 110 50 210 100 310l90 210 10 20 20 70h-20l-10 20-10-20-80-220-50-100a1010 1010 0 00-20-60c-40-90-50-160-40-250Z" fill="#251F05"/><path d="M3200 2240h10c10 160-10 310-70 450h-20l20-170c20-80 20-160 20-240h30l10-40Z" fill="#231D05"/><path d="M1210 3050v30c0 120 10 220 100 320l30 30-10 20c-90-70-130-130-170-240v-100l10-50 40-10Z" fill="#0C160A"/><path d="M2100 1920c40 0 60 0 90 20 40 60 70 130 90 200l10 30c20 40 20 70 10 120l-10 20-10 50h-10v-20c10-120-30-260-110-350l-60-50v-20Z" fill="#5DB24F"/><path d="M2800 1450c40 10 60 20 80 50v60c-30 30-40 50-80 60l-30-10-20-60 30-60 40-10v-20l-20-10Z" fill="#6E6E6E"/><path d="M1680 3000h40l10 40-20 10a1430 1430 0 00-140 70 1200 1200 0 01-60 30c0-40 0-60 30-90 40-40 70-60 140-60Z" fill="#FE4D3D"/><path d="M220 700c50 10 80 50 120 90a1770 1770 0 00 280 240h-50l-20-10-20-20-20-10-30-20c-60-50-130-100-180-170l-30-20-50-80Z" fill="#1C1A07"/><path d="M1630 2250v30l-470 10v-30l470-10Z" fill="#A3A3A3"/><path d="m3450 1570 50 10 20 50h-50v80l70-10v-60l50-10 10 20 10 30 60 10v40l-40 20-10-40h-70l-10 60h-50l-30-30h-10v-170Z" fill="#F05C04"/><path d="m2540 3700-80 50-20 20-30 10-180 130-50 20 70-90 20-20c60-60 120-90 200-110l70-10Z" fill="#5AB34B"/><path d="M3040 1900v30a47770 47770 0 01-150 30 22260 22260 0 00-130 30l-20 10-120 10v-30c340-80 340-80 420-80Z" fill="#949494"/><path d="M1240 2380h50l20 70 190 10 10 40h-110l-30 10c-70 0-70 0-100-20-20-30-30-50-30-80v-30Z" fill="#919191"/><path d="M170 650c60 30 80 70 100 120 10 30 30 30 50 40a1460 1460 0 01 30 30c60 70 130 120 200 170l20 10v20c-30 0-30 0-50-20l-20-20a2350 2350 0 00-50-30c-100-70-220-170-280-290v-30Z" fill="#EEE431"/><path d="M1330 2370h140l20 90h-180l-10-20 40 10-10-80Z" fill="#080808"/><path d="M3000 3350v80h-20l-10 20c-20 60-60 100-120 130h-30v-20l-40-10a8050 8050 0 01 40-20l30-20 40-10 10-50 50-10v-20c10-40 20-50 50-70Z" fill="#F02515"/><path d="M2670 2080v80c-90 30-90 30-140 30v-80c40-20 90-30 140-30Z" fill="#0D0D0D"/><path d="m760 2560 10 10c110 80 210 130 330 180v10c-120-10-230-50-320-130-20-30-20-30-20-70Z" fill="#5FB750"/><path d="M3690 3350h50l20 110-10-30h-50v30l-10 50h-50l-20-40v-30a7910 7910 0 01 50-30l20-60Z" fill="#F67A08"/><path d="m3040 1940-20 10 10 20-80 10 40 40h-20v60h-10l-20-70-180 10v-20h-50v-10a21950 21950 0 01 220-50l40-10 70 10Z" fill="#282828"/><path d="M3410 1090h50c40 50 50 110 60 170l10 40 20 170-30-10-10-40-60-270-10-50-30-10Z" fill="#1C1510"/><path d="m3140 1950 20 40v50l-20 40h-30v-70h-150l-10-30c130-40 130-40 190-30Z" fill="#969696"/><path d="m3520 3330 10 50-30 30h-30v60l-50 20v-20h-20l-10-50 20-10c30-20 30-40 40-70l70-10Z" fill="#F36B06"/><path d="M2880 2960c0 50-30 70-60 100s-70 60-120 70l-40-10 80-50-40-10 80-80 30 10v30l70-60Z" fill="#E12213"/><path d="M1740 1080c140-10 140-10 190 10l30 40 80 50h-90l-20-10-30-10-30-10-130-60v-10Z" fill="#EFC30D"/><path d="m360 1380 30 10c30 100 40 200-10 290l-10 20h-10v-320Z" fill="#1C1704"/><path d="M840 0h40l10 30 70 230 10 90c-80-90-120-240-130-350Z" fill="#CDA80C"/><path d="m3880 3820 50 10 20 40h40v90l-50-10-30-40-50-10v-60l20-20Z" fill="#F47707"/><path d="M0 3400c70 70 120 150 160 240v20c-40-20-60-50-90-80l-10-20c-50-60-60-90-60-160Z" fill="#191706"/><path d="M3380 1950h10l10 60 60 10v50a1810 1810 0 01-40 40l-10 50h-30l-10 20-10-90v-20c0-50 0-80 20-120Z" fill="#EA5803"/><path d="m3790 3680 10 20h20l20 30 20 20a8520 8520 0 01-60 50l-20 10c-30 30-70 50-110 60l10-20 110-170Z" fill="#E05C04"/><path d="M2940 2000c20 20 20 20 20 60v30h-40l-10-50h-50l-30 10-70 10-10 20-20-30-40-20c180-40 180-40 250-30Z" fill="#6E6E6E"/><path d="M2600 1110c60 0 90 20 130 50l100 70v20h-90l-40-40c-10-30-30-40-60-50l-40-30v-20Z" fill="#F1E52F"/><path d="M1410 3310c40 10 50 20 80 50 30 50 80 70 130 100l30 20v10c-60 10-110-10-160-50-80-90-80-90-80-130Z" fill="#5DB44F"/><path d="m3040 1880 10 50-10-30-30 10-320 60-30 10-60-10v-90h10v80l20-10a3610 3610 0 01 410-70Z" fill="#2E2E2E"/><path d="M3100 1120h110l30 110-100-20-30-60-10-30Z" fill="#EEC10D"/><path d="m2890 3630 80 40c70 50 150 80 230 120v10c-60 0-100 0-150-30l-20-20c-60-30-100-60-140-110v-10Z" fill="#EAE434"/><path d="M3010 2280h30v20h-20l-10 20c-30 50-90 70-140 90l-90 10 10-30 50-20c60-20 130-50 170-90Z" fill="#4243FE"/><path d="m2470 2710 20 10a810 810 0 01-470 180v-10h20c140-30 290-90 410-170l20-10Z" fill="#57AB49"/><path d="m190 300 60 70 10 20 20 20 130 180 50 70-40-10-20-20-10-20-20-20-20-30-50-60-10-20c-50-60-80-110-100-180Z" fill="#DDD42D"/><path d="M0 3730c70 80 120 170 160 270l-50-10-40-80-20-40-10-20-30-50-10-70Z" fill="#EBE534"/><path d="m1570 3340 40 10 20 10 50 20 170 40v20c-160 10-160 10-230-40v-20l-50-10v-30Z" fill="#F44A3A"/><path d="M3970 3280h20l-10 160-40 10-40-10 10-70 50-10-10-10v-50l20-20Z" fill="#F88409"/><path d="M2930 2460h20c40 80 50 150 30 240-40-40-50-70-50-120l-10-110 10-10Z" fill="#58AA4A"/><path d="M1310 1800h60l-20 20 20 20-10 50-30 10 40 20c-60 0-60 0-90-20v-90l30-10Z" fill="#707070"/><path d="M3410 2690h60l10 20 40 30h30v50l-20 20-50-10-20-50-50-10v-50Z" fill="#F47106"/><path d="M3620 3720h30l-10 20v50l-50 20-40 20c-50 20-90 30-140 30 20-30 50-40 80-50a1110 1110 0 00 130-70v-20Z" fill="#191507"/><path d="M2340 1250c110-10 200 10 300 50v40l-20-10-280-70v-10Z" fill="#EEE835"/><path d="M2960 1110h90v40l30 10 30 50h-90c-30-20-40-50-60-80v-20Z" fill="#D6B20F"/><path d="m3370 2230 60 20 10 50-20 10c-30 10-30 30-40 60l-30-10v70h-10c0-70 10-130 30-200Z" fill="#E25605"/><path d="m2680 2090 30 10 10 50h20l30-10 20-10h80l10 30c-60 20-120 30-180 20-20-20-20-20-20-60v-30Z" fill="#9D9D9D"/><path d="M3630 3740c-50 40-90 70-160 60v-30l-140 10-10-40 30 10c80 10 150 10 230-20l50 10Z" fill="#F4C718"/><path d="m2740 3680 40 10a8840 8840 0 01 30 40c50 50 120 90 190 120h-70c-70-30-130-70-180-130l-10-40Z" fill="#ECE02F"/><path d="m3380 1820 30 10c10 60-10 120-40 170l-60 30 70-210Z" fill="#0E091C"/><path d="M1110 1320v20l-110 30h-30l-40 10-20 10h-70l10-30c80-40 170-40 260-40Z" fill="#5FB750"/><path d="m3960 1200 10 30h20v80l-40-10v-40h-30l-40-10a1000 1000 0 01 0-50h80Z" fill="#F88109"/><path d="m1770 3710 100 30 50 10-10 30c-40 10-80 20-120 10l-30-50 10-30Z" fill="#FE4B3A"/><path d="M2350 2140h40l20 40 70 100 10 40c-60-20-90-70-130-120l-10-60Z" fill="#4041FE"/><path d="M2490 3520v40l-60 20v-30h-30l10 40-90 30c20-40 40-60 80-90l90-10Z" fill="#FA4738"/><path d="m2890 3070 30 10-20 10c-30 40-30 70-30 120l-10-20a1010 1010 0 00-60-20v-20h20v-20l-20-10c40-50 40-50 90-50Z" fill="#D21D11"/><path d="M3870 3540h50l10 50-50 10 10 80h-70l-10-40 20-30h40v-70Z" fill="#F36905"/><path d="m2190 3210 10 20h-20v20h-230l10-20c80-20 150-20 230-20Z" fill="#250705"/><path d="m2530 640 40 10h30l50 30-10 30-110 20v-90Z" fill="#EDEDED"/><path d="M2400 190h20l20 110h-110l70-110Z" fill="#EAEAEA"/><path d="M3670 3800c0 30 0 30-20 50a2270 2270 0 01-30 30l-20 20-30 30a3010 3010 0 00-40 30c-40 30-60 40-100 40h-40l90-60c70-30 130-80 190-140Z" fill="#B3890A"/><path d="M1130 1000c50 10 80 30 120 60l110 70v20c-90-20-170-60-230-130v-20Z" fill="#F4EA32"/><path d="m210 590 90 90 140 150c-50 0-80-40-110-70l-20-20-100-120v-30Z" fill="#1E1905"/><path d="M880 0h30l60 260-20 10c-40-90-60-170-70-270Z" fill="#251F07"/><path d="m3650 3910 20 10v20h30c-40 40-70 60-130 60a750 750 0 01-40 0c90-90 90-90 120-90Z" fill="#4A3B06"/><path d="M2250 2080c30 30 30 50 40 80l10 40c20 50 0 100-20 160h-10v-20c0-70-10-130-30-190v-50l10-20Z" fill="#55A748"/><path d="M3110 2860v60l-10 20-10 30-30 50-10 70h-20v-20l-10-20-20-10h20v-20l50-90 10-30 30-40Z" fill="#221F07"/><path d="M2900 2850h20c10 40 10 60-10 90l-100 90-20-10 20-30 20-30 20-20 50-90Z" fill="#FC4938"/><path d="m380 1280 40 10 20 180-30 10-30-200Z" fill="#1B1704"/><path d="m40 20 70 110 10 20 20 40 50 100h-30v-20h-20C40 70 40 70 40 20Z" fill="#EAE131"/><path d="M2420 3280c-130 90-130 90-180 90l-20-10 30-20 10-30 70-20 40-10h50Z" fill="#E42112"/><path d="M3440 1740h10v60l30-10v60l-50 20 20 70-50 10c-20-30 0-50 10-80l30-130Zm40 40 20 10Z" fill="#DB5404"/><path d="M3700 1460v50h-30l-20 90-50 10v-20l-30-40c20-20 20-20 50-20h20l10-60 50-10Z" fill="#EE5D04"/><path d="m3350 3840-10 30c-60 30-130 30-200 20l-30-30h90l20-10h50l80-10Z" fill="#221E06"/><path d="m3950 1690 40 10v100l-10-30-70-10v-60l40-10Z" fill="#F98609"/><path d="M2800 1110h70l70 90v20c-40 0-60-20-90-40l-10-20-40-30v-20Z" fill="#E0B70E"/><path d="m1240 800 10 10 20 20 20 10a2400 2400 0 00 50 50l30 20v20c-40 10-50 0-80-20l-60-70 10-40Z" fill="#202020"/><path d="m2900 3450 30 10-20 10-10 30h20l-10 40c-50 40-50 40-90 40v-20l-40-10a8050 8050 0 01 40-20l30-20 40-10 10-50Z" fill="#EB2718"/><path d="M3100 2480h10c0 90 0 180-30 270l-20 20 10-100v-60c10-40 10-90 30-130Z" fill="#2F2D0B"/><path d="M2640 2040c80-10 80-10 110 20v80h-20l-20-60h-110l10-20h30v-20Z" fill="#999"/><path d="m3050 3760 160 60-10 20c-80 0-130-30-200-60l50-20Z" fill="#211C06"/><path d="M0 3370c60 20 90 90 120 150l20 80c-30-10-30-20-40-50l-90-130-10-50Z" fill="#F0E833"/><path d="m2190 2930-10 30-10 50h-50v-60l-20 10h-80v-10l70-20h100Z" fill="#D01D10"/><path d="m3850 3870 10 30h20c30 0 30 0 50 20l20 30 40 10v40h-30l-20-30-60-10v-40h-50l20-50Z" fill="#EA5B04"/><path d="M2690 3240v20l-60 20-40 20-80 20 20-40h20v-20c50-20 90-20 140-20Z" fill="#FE4E3D"/><path d="m3900 2640 70 10v60l-30 10c-30 0-30 0-50-20v-50l10-10Z" fill="#F98809"/><path d="m2840 3730 120 70 70 40v10c-50 0-70-10-110-30l-30-20-70-60 20-10Z" fill="#2D2909"/><path d="m2900 3090 30 10v20h20l-20 60h-60c0-60 0-60 20-80l10-10Z" fill="#FC4A3A"/><path d="M3840 2950c30 0 30 0 50 20v50l-30 10c-30 0-30 0-50-20v-50l30-10Z" fill="#F98709"/><path d="m3730 2530 70 10v60l-30 10c-30 0-30 0-50-20l10-60Z" fill="#F98609"/><path d="m3840 1630 60 10v60l-10 10a1770 1770 0 01-70-10v-50l20-20Z" fill="#F98709"/><path d="m2510 1370-100 80-20 20-60 20c10-40 30-50 70-80l20-20c30-20 50-20 90-20Z" fill="#5CB04E"/><path d="m2190 3470-10 40-50 30-30 10h-60a4130 4130 0 01 40-30l20-20c30-30 50-30 90-30Z" fill="#FE4D3C"/><path d="M3580 3010h20v80h-50l-20-20c10-60 10-60 50-60Z" fill="#F77C08"/><path d="m3180 2530-40 160h-20c0-50 0-100 20-150l40-10Z" fill="#1D1905"/><path d="m1180 990 130 90 70 40h-50c-110-50-110-50-150-100v-30Z" fill="#292407"/><path d="M3260 2100h30c0 50-30 90-60 120h-30l-40 20 10-20 70-90 20-30Z" fill="#0E0D21"/><path d="M2940 2000c20 20 20 20 20 60v30h-40l-10-50-70-10c20-40 60-30 100-30Z" fill="#9F9F9F"/><path d="m3810 1350 30 10v60l-30 10-40-10v-60l40-10Z" fill="#F98509"/><path d="m3860 1270 40 10v50l-40 10-40-10v-50l40-10Z" fill="#F88509"/><path d="M3900 3010h70v70h-60l-10-40v-30Z" fill="#F9880A"/><path d="M840 0h40l20 160c-30-30-40-50-50-90V40l-10-40Z" fill="#E3BB14"/><path d="M2580 3820h20c-10 40-40 50-70 80l-30 10-90 40-20-10 140-80 50-40Z" fill="#55A547"/><path d="m3660 3570 70 10-10 50-40 20-30-20v-50l10-10Z" fill="#F57D08"/><path d="M1680 2960h300v10h-70v50h-40v-50h-190v-10Z" fill="#B4150C"/><path d="M3950 2870h40v50l-30 20-10 60h-50v-40l40-40 10-50Z" fill="#F16204"/><path d="M3970 2780h20v80h-50l-20-20c10-60 10-60 50-60Z" fill="#F9890A"/><path d="m3660 2700 30 10a1770 1770 0 01-10 70h-50a1770 1770 0 01-10-70l40-10Z" fill="#F88309"/><path d="m3620 1970 60 20v50l-30 10-40-10v-60l10-10Z" fill="#F88409"/><path d="M3730 1660h20l10 70-60 10-10-40c0-40 0-40 40-40Z" fill="#F98609"/><path d="m3450 1570 50 10 20 50h-50v80l40 20h-20l-10 20-30-10v-170Z" fill="#E95603"/><path d="m2100 3480 20 10-20 10-20 20-10 10-20 20v20h-30l-10 30-40-10h30l-10-50a2740 2740 0 01 40-30l30-20 40-10Z" fill="#E12315"/><path d="m3690 2980 50 10v70h-50l-20-20 20-60Z" fill="#F88509"/><path d="M3890 2730h20l10 60-40 10h-30l-10-50c20-20 20-20 50-20Z" fill="#F9890A"/><path d="m3700 2030 70 10-20 60h-50l-10-30 10-40Z" fill="#F98709"/><path d="M3760 1310v50l-20 20-50-10v-60h70Z" fill="#F58109"/><path d="M1940 3500h40v30l20 10v50h-40v-20l-20 20-40 10c10-30 30-60 60-80l-20-20Z" fill="#340A07"/><path d="M3920 2870h20v70h-60l-10-50c20-20 20-20 50-20Z" fill="#F9890A"/><path d="m2770 1960-10 30c-50 20-90 20-140 20v-30l60-20h90Z" fill="#9A9A9A"/><path d="m270 700 170 150-40 10-30-30-20-20-20-20-20-20a5180 5180 0 01-50-50l10-20Z" fill="#CFA90C"/><path d="m3810 3840 10 20a60950 60950 0 01-30 50l-20 20-20 30-20 20c-10 20-10 20-40 20h-30l80-70 70-90Z" fill="#E7B926"/><path d="m3940 3600 10 40v20h-70v-60h60Z" fill="#F98509"/><path d="M3450 2430h30l-10 70h-30v20h20v30h-30v-40h-40v-30l60-10v-40Z" fill="#FB7814"/><path d="m3070 1970-20 10 70 10-10 20h-150l-10-30c80-20 80-20 120-10Z" fill="#787878"/><path d="m3340 1670 30 10-10 110-40 10v-60l10-30 10-40Z" fill="#4344FF"/><path d="M3740 1220h60v70h-50l-20-40 10-30Z" fill="#F88309"/><path d="M3770 3040h60v70h-60v-70Zm20-730 30 10v60h-60l-10-30c0-40 0-40 40-40Z" fill="#F98809"/><path d="m2640 2060-30 10 10 20-130 40c10-30 20-50 50-70h100Z" fill="#8E8E8E"/><path d="m3590 2060 30 10v60h-60l-10-30c0-40 0-40 40-40Z" fill="#F88209"/><path d="m3750 1440 30 10v60h-60l-10-30c0-40 0-40 40-40Z" fill="#F98609"/><path d="m3610 3520 30 10v50l-30 10-40-10v-50l40-10Z" fill="#F77C08"/><path d="M3720 3490a1000 1000 0 01 50 0l10 40v30h-60v-70Z" fill="#F88309"/><path d="m3890 3460 30 10v50l-30 10-40-10v-50l40-10Z" fill="#F98709"/><path d="M2330 3280v20l-70 10-10 40h-40v-20h-20v-20a3360 3360 0 01 50-20l20-10h70Z" fill="#330906"/><path d="m3520 3100 30 10v50l-30 10-40-10v-50l40-10Z" fill="#F57307"/><path d="m3490 2960 30 10v50l-30 10-40-10v-50l40-10Z" fill="#F67707"/><path d="m3630 2930 30 10v50l-30 10-40-10v-50l40-10Z" fill="#F88309"/><path d="M3650 2850h60v70h-50l-20-20 10-50Z" fill="#F98509"/><path d="m3600 2790 30 10v50l-30 10-40-10v-50l40-10Z" fill="#F88209"/><path d="m2820 2620-30 20 20 20-160 10c50-50 100-50 170-50Z" fill="#D42315"/><path d="m3680 2480 30 10v50l-30 10-40-10v-50l40-10Z" fill="#F98609"/><path d="m3650 2340 30 10v50l-30 10-40-10v-50l40-10Z" fill="#F98509"/><path d="M2320 2300h20l30 40 20 20 30 50c-70-10-70-10-100-40v-70Z" fill="#56A749"/><path d="m3620 2200 30 10v50l-30 10-40-10v-50l40-10Z" fill="#F88409"/><path d="m2670 2070 60 20v50h20l10-20 10 30h-50l-10-20-30-40 10 70 60 20v10l-60 10-30-40 10-90Z" fill="#4D4D4D"/><path d="M3950 3510h40v80h-50l-10-30c0-30 0-30 20-50Z" fill="#F98609"/><path d="M3950 3150h40v80h-50l-10-30c0-30 0-30 20-50Z" fill="#F9880A"/><path d="M3630 3070a1000 1000 0 01 50 0l10 40-10 30h-50v-70Z" fill="#F88409"/><path d="m3520 2870 50 10a880 880 0 01 10 50l-40 10h-30v-60l10-10Z" fill="#F77D08"/><path d="M3530 2290h60l10 50-20 20-50-10v-60Z" fill="#F88109"/><path d="M3460 2230a1000 1000 0 01 50 0l10 40-10 30h-50v-70Z" fill="#F57307"/><path d="M3400 1220c30 0 30 0 50 20l-10 50-60-10a880 880 0 01-10-50l30-10Z" fill="#F46E06"/><path d="M3680 2620a1000 1000 0 01 50 0l10 40v20h-70l10-60Z" fill="#F98709"/><path d="m3110 3880 210 10-40 20h-160l-10-30Z" fill="#F1E733"/><path d="M3980 3370h10v140h-60v-50l20-10c20-10 20-10 30-50v-30Z" fill="#F46E06"/><path d="m3400 2310 60 20v50h-60a1290 1290 0 01-10-60l10-10Z" fill="#F47207"/><path d="M3550 1700h70v60h-70v-60Z" fill="#F88209"/><path d="M3520 1310c30 50 30 100 30 160l-30-10-10-60-10-30 20-60Z" fill="#241E1B"/><path d="m3930 1130-10 40-40 10v-40h-80l-30 30-10 20-20 10 20-70 70-10h20l80 10Z" fill="#D25304"/><path d="M3550 3610h30v60h-70a1000 1000 0 01 0-50l40-10Z" fill="#F67607"/><path d="M3460 3550h20l20 50-40 20-30-10a880 880 0 01-10-50l40-10Z" fill="#F47006"/><path d="m2240 3250-10 20c-60 20-120 20-180 20v-20l190-20Z" fill="#FE4B3A"/><path d="M3710 3130h70v50l-40 10h-30v-60Z" fill="#F98709"/><path d="m1990 2630 20 10-30 10-160 90v-30a820 820 0 01 70-50l20-10c50-30 50-30 80-20Z" fill="#4C9B3F"/><path d="M3560 2430h70v50l-40 10h-30v-60Z" fill="#F88309"/><path d="M3530 1920h60v60l-40 10h-20v-70Z" fill="#F88109"/><path d="M2780 1510h10v60l50-10 10-50h20c0 50 0 50-30 80l-40 10-30-30v-40l10-20Z" fill="#999"/><path d="m2840 1450 50 10c20 30 20 40 20 80l-10 30v20c-20-30-20-40-20-70-10-40-10-40-30-50l-20-10 10-10Z" fill="#969696"/><path d="M1020 1320v10l-30 10h-40l-20 10-120 30c10-30 10-30 40-50 60-20 110-20 170-10Z" fill="#101F0D"/><path d="m150 20 70 110 10 20 20 60-10 20a6440 6440 0 01-40-70l-10-10c-30-50-40-80-40-130Z" fill="#E5DA2E"/><path d="m1060 3880 80 40 130 70v10c-60 0-90-20-140-50l-20-20-50-50Z" fill="#56AA48"/><path d="m3880 3770 20 20c20 20 40 30 80 30l10 50-50 10-10-40-60-10 10-60Z" fill="#EB5A04"/><path d="m500 3200 80 120 10 20 30 50-20 30-10-30-20-40-10-20-50-80-10-50Z" fill="#55A647"/><path d="M3970 2280h20c0 50 0 80-20 130h-50v-40h30l20-90Z" fill="#F46E06"/><path d="M3580 1840h60a880 880 0 01 10 50l-40 10h-30v-60Z" fill="#F88509"/><path d="M3800 1140h70v50l-70 10v-60Z" fill="#F88409"/><path d="M2390 3360v30l-20 20h-10l-20 60-50-10c30-50 50-70 100-100Z" fill="#C71C0F"/><path d="m500 2200 40 10 20 50v30l10 20-40-10c-20-30-30-60-30-100Z" fill="#5DB34F"/><path d="M520 2070h10v80l-150 10 30-60 10 20h30v20h70v-70Z" fill="#1B1CCA"/><path d="M3950 1820h40v90l-50-20 10-70Z" fill="#F98809"/><path d="M3610 1610a1000 1000 0 01 50 0l10 40v20a880 880 0 01-50 10l-10-40v-30Z" fill="#F98509"/><path d="M3410 1360h60v60h-60v-60Z" fill="#F57407"/><path d="m300 670 20 20 130 120-20 20a11530 11530 0 01-60-60l-20-20-20-20-20-10-10-50Z" fill="#B29415"/><path d="M2960 2910c-10 40-20 60-50 80l-50 30 20-40 10-30c20-30 30-40 70-40Z" fill="#230F05"/><path d="m3380 2900 50 10 10 50-40 10-40-30 20-40Z" fill="#F46E06"/><path d="M3060 2490h30a7990 7990 0 01 0 70l-10 40-20 60v-170Z" fill="#FAEF32"/><path d="M2910 2030c20 20 20 20 20 60h30v30l-50-20a1000 1000 0 01 0-50h-30l-10 30v-30h-70v-10l110-10Z" fill="#464646"/><path d="m710 940 110 70v20l50 20-10 20a9510 9510 0 01-70-50l-30-10-20-20-20-10-10-10v-30Z" fill="#E3BD10"/><path d="M1960 3770h40l-20 60h-100l-60-20 140 10v-50Z" fill="#9C1009"/><path d="M3770 3410h60v60h-60v-60Z" fill="#F98809"/><path d="M2300 2270h30v120h-30l-10-100 10-20Z" fill="#0F1A0D"/><path d="m790 1610 30 10c-20 50-70 60-120 80l-20-10a5380 5380 0 01 50-40l30-20 30-20Z" fill="#59AD4C"/><path d="m3600 3790 20 10-50 40-30 20-50 30-10-40 60-30 30-20 30-10Z" fill="#CE940B"/><path d="m3740 3770 30 40c-30 30-60 50-100 60l30-40 20-30 20-30Z" fill="#D35304"/><path d="m2400 3550 10 40-90 30c20-40 30-70 80-70Z" fill="#FE4E3E"/><path d="M3740 3270h60v60h-50l-10-40v-20Z" fill="#F9880A"/><path d="m1320 1820 40 10 10 50h-60a1000 1000 0 01 0-50l10-10Z" fill="#353535"/><path d="m3680 1330 10 20 40 30h20l10 40h-30v20h-20v-40h-20v-20l-30 10 20-60Z" fill="#E65C04"/><path d="M3380 2540h40l20 50-10 20-50-10v-60Z" fill="#F46F06"/><path d="M3490 1870h20v60h-50a880 880 0 01-10-50l40-10Z" fill="#F77C08"/><path d="M3670 1380h20l10 70h-60c10-50 10-50 30-70Z" fill="#F38209"/><path d="m3650 3910 20 10a5380 5380 0 01-50 40l-30 20-30 20-30-10 50-40 20-20 50-20Z" fill="#D3990B"/><path d="m3630 3590 10 40 40 10v20l-30 10v-20h-50l-10-50 40-10Z" fill="#EA5903"/><path d="m3640 3440 50 10-10 50h-50a1000 1000 0 01 0-50l10-10Z" fill="#F88409"/><path d="M3600 3300h50l10 50a880 880 0 01-50 10l-10-40v-20Z" fill="#F98409"/><path d="M2490 3210c-40 30-80 40-130 50l-40-30 70-20h100Z" fill="#8A150C"/><path d="M3460 2600h50l10 50a880 880 0 01-50 10l-10-40v-20Z" fill="#F77C08"/><path d="M2110 2570c-30 40-50 40-90 60h-30l30-40 20-10 20-10h50Z" fill="#58A94B"/><path d="M1310 1810h60c20 20 20 20 20 50s0 30-20 50l-50-10 40-20-10-50-40-20Z" fill="#A3A3A3"/><path d="M3970 1460h20v80l-50-10c10-50 10-50 30-70Z" fill="#F9890A"/><path d="m3580 3160 50 10v50h-50v-60Z" fill="#F88409"/><path d="M3070 2880h20l-70 160h-20l70-160Z" fill="#E9DD2D"/><path d="m1780 2740 20 10-20 10-30 20-20 20a1190 1190 0 00-50 40l-40 10c10-40 40-50 70-70l20-10 50-30Z" fill="#51A344"/><path d="M1990 2400h10v110l-40 10 30-120Z" fill="#55A348"/><path d="m3500 2370 40 10v50h-60l20-60Z" fill="#F78009"/><path d="m2230 1770 70 10 10 40-70-10-10-40Z" fill="#4243FF"/><path d="m3480 1460 40 30 10-30v90l-30 10v-20l-30-40-20-10h30v-30Z" fill="#DB5904"/><path d="M1060 1140c30 0 60 20 90 40l30 10 20 10c-40 10-60 0-100-10l-30-20-30-10 20-20Z" fill="#BDB92C"/><path d="M3990 1100v70l-60-10v-40l60-20Z" fill="#EF8109"/><path d="m3840 3910 30 10v50l-40 10-20-20 10-40 20-10Z" fill="#F57D08"/><path d="m3360 2760 50 10-10 50-20 10-20-10-10-50 10-10Z" fill="#F36C06"/><path d="M2380 3950v20c-50 30-80 30-130 30 40-40 80-50 130-50Z" fill="#5AB14C"/><path d="M1340 3620h40l10 50-50 10v-60Z" fill="#0E210B"/><path d="M3520 3800c-80 50-80 50-130 40v-20l50-20h80Z" fill="#F9DF33"/><path d="M3410 3050h50v50l-50 10v-60Z" fill="#F57507"/><path d="M3970 2550h20v90l-40-20v-50l20-20Z" fill="#F98909"/><path d="m2930 2440-20 40-60 20-10-40c60-30 60-30 90-20Z" fill="#070A1D"/><path d="m3950 2360-30 10v40l20 10-20 60c-20-30-20-40-20-80l10-30-60-10c40-30 60-20 100 0Z" fill="#F57607"/><path d="M3430 2100h60v50h-50l-10-50Z" fill="#F67A08"/><path d="m3320 3740 170 20v10l-160 10-10-40Z" fill="#E0A90C"/><path d="m860 3730 60 20v20l20 10 50 50-90-60-20-10-20-20v-10Z" fill="#55A547"/><path d="M2650 2670v70h-40v-30l-20-10 60-30Z" fill="#BF231C"/><path d="m3390 2180 40 10-10 50-20 10-20-10a1000 1000 0 01 0-50l10-10Z" fill="#F57307"/><path d="m2680 2170 10 30-80 10v-20l-30-10 100-10Z" fill="#919191"/><path d="M3520 1570h60l-10 50-50-10v-40Z" fill="#F68309"/><path d="m3450 1500 50 10v50l-50-10v-50Z" fill="#F67C08"/><path d="M3410 890h40v50l-50 10a1000 1000 0 01 0-50l10-10Z" fill="#1B1B1B"/><path d="M370 570c40 20 60 50 90 80l-20 20a6400 6400 0 01-30-40l-20-20-20-40Z" fill="#E4DC30"/><path d="M3890 3960h50l20 40h-80l10-40Z" fill="#F67907"/><path d="M1580 3680c30 10 30 30 40 50l10 30 10 40-50-30-10-90Z" fill="#509D43"/><path d="M3890 3680h60l10 50-50 10-20-60Z" fill="#F05B03"/><path d="M2180 3240h190l-30 30h-30v-20h-130v-10Z" fill="#D32214"/><path d="M3350 2360h20v20l10 20 20 10-10 50-40-40v-60Z" fill="#F7710E"/><path d="M1680 1600c40 0 80 30 110 50-40 10-50 10-80-10l-30-10-20-10 20-20Z" fill="#59AD4B"/><path d="m3730 1600 10 50h-40v20h-20v-60l50-10Z" fill="#F05B04"/><path d="m3730 1210 10 40 10 30 50 10c-30 20-60 20-100 20l30-100Z" fill="#DD5F05"/><path d="m0 430 100 110c-50-10-70-40-100-80v-30Z" fill="#EBE433"/><path d="m120 180 70 110h-30v-20h-20c-20-30-20-50-20-90Z" fill="#E0D52D"/><path d="m3120 3800 80 10v30l-90-10 10-30Z" fill="#393107"/><path d="M3910 3090h60l10 50-50 10-20-60Z" fill="#F05E04"/><path d="M3970 2920h20v80l-40-20 20-60Z" fill="#F9890A"/><path d="M3110 2860c10 40 0 60-10 100h-30l-10-20 20-40 20-20 10-20Z" fill="#2A2609"/><path d="m3860 2890 10 50-60 20v-60l50-10Z" fill="#F05D04"/><path d="m2870 2130 10 30-70 10v-20l-40-10 100-10Z" fill="#949494"/><path d="m3370 2080 10 30 30-10v60h-30l-10 20v-100Z" fill="#DB5103"/><path d="M3650 1480v50l-40 10h-20l10-50 50-10Z" fill="#F17E08"/><path d="M1740 1080h160v10h-90l10 30-80-40Z" fill="#D7B00C"/><path d="M3450 3770h20v30l-70 20c10-50 10-50 50-50Z" fill="#FBBA0D"/><path d="M2840 3730c30 10 60 30 80 60-50 0-70-10-100-50l20-10Z" fill="#1F1C07"/><path d="M3830 3690h50l10 40-50 10-10-50Z" fill="#F98709"/><path d="M330 3050h20l10 120h-20l-10-120Z" fill="#E7DF32"/><path d="M0 2820a540 540 0 01 40 110l10 20H20l-20-130Z" fill="#D4B110"/><path d="M3860 2810h50l10 50-50 10-10-60Z" fill="#F05E04"/><path d="M3830 2750v50l-50 20v-60l50-10Z" fill="#F05D04"/><path d="M3130 2570h10v20l20 50-20 50h-20l10-120Z" fill="#524407"/><path d="M3770 2390h50l10 50-50 10-10-60Z" fill="#F05C04"/><path d="m3000 2250 20 10c-40 60-40 60-70 70h-20l-20-20 90-60Z" fill="#191AD8"/><path d="M3710 2190v50l-50 20v-60l50-10Z" fill="#F05B03"/><path d="M3570 2140h50l10 50-50 10-10-60Z" fill="#F05A03"/><path d="M3650 1830h50l10 50-50 10-10-60Z" fill="#F05B04"/><path d="M3730 1520h50l10 50-50 10-10-60Z" fill="#F05B03"/><path d="M3500 1410h20v80l-30-10-10-50 20-20Z" fill="#E87007"/><path d="M0 630c60 50 60 50 60 90l-60-40v-50Z" fill="#EDE735"/><path d="m3820 3610 10 20 40 10v30l-50 10v-70Z" fill="#E55603"/><path d="M3870 3540h50l10 50h-50l-10-50Z" fill="#F05A03"/><path d="m3520 3250 50 10v40h-50v-50Z" fill="#F88209"/><path d="M3440 3200h40v50h-50l10-50Z" fill="#F67A08"/><path d="M3920 3170v50l-50 10v-50l50-10Z" fill="#F05C04"/><path d="m3350 3140 40 10-10 50-40-20 10-40Z" fill="#F46F06"/><path d="M3750 2980h50l10 50h-50l-10-50Z" fill="#F05B03"/><path d="M3580 2950v50l-50 10v-50l50-10Z" fill="#EF5803"/><path d="M3540 2660h50v50l-50-10v-40Z" fill="#F98609"/><path d="m1950 2530 10 30 20 10-70 30 20-60 20-10Z" fill="#48913C"/><path d="M3100 2480h10v140l-30-20 20-120Z" fill="#3D390D"/><path d="M3630 2420h50l10 50h-50l-10-50Z" fill="#F05A03"/><path d="m3590 2360 20 40-60 20v-50l40-10Z" fill="#EF5903"/><path d="M3490 2010h40v50h-50l10-50Z" fill="#F88209"/><path d="M3540 2000h50l10 50h-50l-10-50Z" fill="#EF5903"/><path d="M3510 1790h50v50l-50-10v-40Z" fill="#F88409"/><path d="M1140 1690c-20 20-20 20-50 20H990c40-30 100-40 150-20Z" fill="#1819D3"/><path d="M2810 1510h30v60h-50l20-60Z" fill="#333"/><path d="m3900 1350 10 50-60 10v-50l50-10Z" fill="#F05B03"/><path d="m1730 1150 40 10 30 10 40 30-30 20a9620 9620 0 01-40-30l-20-20-20-10v-10Z" fill="#307B23"/><path d="m1260 1070 120 50h-50l-20-10-20-10-30-30Z" fill="#1B1907"/><path d="M3950 3890h40v60l-40-10v-50Z" fill="#F98609"/><path d="M3750 3760h70l-20 40-40 10-10-50Z" fill="#EB6F07"/><path d="m2300 3650 60 10-50 50-20-20 10-40Z" fill="#9D0D07"/><path d="m3550 3390 50 10v40l-50-10v-40Z" fill="#F88409"/><path d="M210 3300h20l20 70-10 20-20-10-10-80Z" fill="#151204"/><path d="m3490 2740 50 10-10 40h-40v-50Z" fill="#F88209"/><path d="M190 2620h10l10 120h-20a4310 4310 0 01-10-40v-30l10-50Z" fill="#F9F033"/><path d="M3520 2520h40v50l-50-10 10-40Z" fill="#F98509"/><path d="M3220 2430h10l-10 130h-10l-10-50v-60l20-20Z" fill="#FBD114"/><path d="m3350 2450 20 10-10 70h-30l20-80Z" fill="#FC781F"/><path d="m3510 2150 50 10v40l-50-10v-40Z" fill="#F88509"/><path d="M3410 1960h40v50l-50-10 10-40Z" fill="#F67A08"/><path d="M3790 1820c20 30 20 60 20 100l10 40-60-20 30-10-10-30 10-80Z" fill="#F57307"/><path d="M3460 1640h10v70l40 20h-20l-10 20-30-10 10-100Z" fill="#DC5B05"/><path d="M2290 1580h20l-30 80h-20l30-80Z" fill="#5AB14B"/><path d="m3470 1270 20 10v70l-40-20 20-60Z" fill="#F57307"/><path d="m0 600 80 90-10 20a4150 4150 0 01-30-40l-20-20c-20-20-20-20-20-50Z" fill="#272207"/><path d="M1380 3150h10l10 50 10 20-10 70c-20-30-20-50-20-90v-50Z" fill="#5FB551"/><path d="m3500 3110 40 10v40l-50-10 10-40Z" fill="#F88209"/><path d="M0 2670h10l20 150H0v-150Z" fill="#2E2605"/><path d="m3850 2160 10 50-50 10-10-50 50-10Z" fill="#F05B04"/><path d="M2700 2050v20l-100 10c20-40 60-30 100-30Z" fill="#A0A0A0"/><path d="m3930 1850 10 50-50 10-10-50 50-10Z" fill="#F05B04"/><path d="m3620 1770 10 50-50 10-10-50 50-10Z" fill="#EF5803"/><path d="M2820 1460v20l-90 50c40-70 40-70 90-70Z" fill="#979797"/><path d="m930 250 40 30v70c-30-30-40-60-40-100Z" fill="#E5BB0D"/><path d="m3490 3970-20 30h-80c30-30 60-30 100-30Z" fill="#D7AA0C"/><path d="m3690 3940 10 30-40 30-40-10 70-50Z" fill="#130F04"/><path d="m3470 3820 30 30-90 10 60-40Z" fill="#332A07"/><path d="m1850 3660 40 10-10 40-40-10 10-40Z" fill="#A60B06"/><path d="M3330 3510h60l-10 40h-40l-10-40Z" fill="#F46E06"/><path d="m3620 3380 50 10v30l-50 10v-50Z" fill="#EF5703"/><path d="m1570 3340 90 30-30 10-10 20v-20l-50-10v-30Z" fill="#E34133"/><path d="M3810 3330v60h-40l-10-40 50-20Z" fill="#EF5903"/><path d="m1650 3200 40 10-10 40-40-10 10-40Z" fill="#A40A05"/><path d="m2250 3070 40 10-10 40-40-10 10-40Z" fill="#9D0804"/><path d="M3660 2930h50l10 40-50 10-10-50Zm-20-140h40l10 40-50 20v-60Z" fill="#EF5903"/><path d="m820 2750 50 20v20h20v20c-60-20-60-20-80-50l10-10Z" fill="#5EB850"/><path d="M3970 2720v50l-40 10-10-50 50-10Z" fill="#F05A03"/><path d="m3600 2730 20 50h-60v-40l40-10Z" fill="#EF5803"/><path d="m3880 2670 10 50-50 10v-50l40-10Z" fill="#F05C04"/><path d="m3940 2580 10 50h-50l-10-40 50-10Z" fill="#F05C03"/><path d="M3520 2590h50v40l-40 10-10-50Z" fill="#EF5803"/><path d="m160 2580 30 10-10 90h-10l-10-100Z" fill="#D5D131"/><path d="M3990 2130v50l-40 10-10-50 50-10Z" fill="#F05B04"/><path d="M3710 2110h50v40l-40 20-10-60Z" fill="#F05B03"/><path d="M3680 2050v50l-40 10-10-50 50-10Z" fill="#EF5903"/><path d="M2950 1980h80v20l-70 10-10-30Z" fill="#9A9A9A"/><path d="M2770 1950h70l-30 30h-60l20-30Z" fill="#A0A0A0"/><path d="m3650 1910 10 50-50 10-10-50 50-10Z" fill="#EF5803"/><path d="M3790 1880v50l-40 10-10-50 50-10Z" fill="#EF5A03"/><path d="m3750 1740 20 40-40 20-20-50 40-10Z" fill="#F05903"/><path d="m3840 1430 10 50-50 10-10-50 50-10Z" fill="#EF5903"/><path d="m3970 1400 20 40-40 20-20-50 40-10Z" fill="#F05903"/><path d="m3800 1290 20 40-40 20-20-50 40-10Z" fill="#EF5803"/><path d="M3410 1090h50c20 20 20 20 20 50h-20l-10 20-10-60-30-10Z" fill="#211C18"/><path d="m3810 3840 10 20-20 40-20 20-10 20-30-20 70-80Z" fill="#AD7F0F"/><path d="m3630 3740-40 30-80-10v-10a3670 3670 0 01 40-10l30-10 50 10Z" fill="#C8940F"/><path d="m2890 3630 80 40-10 30a8580 8580 0 01-30-30l-20-20-20-10v-10Z" fill="#F1EA34"/><path d="m2080 3480 40 10-50 30 10-40Zm-40 50 20 10-10 30-30-10 20-30Z" fill="#E53B2C"/><path d="M3930 3460h40l10 40-50 10v-50Z" fill="#F05903"/><path d="m3830 3120 10 50h-50v-40l40-10Z" fill="#F05A03"/><path d="M2370 2950h50v40h-50v-40Z" fill="#9E0804"/><path d="M3800 2610v50h-40l-10-40 50-10Z" fill="#F05A03"/><path d="M3770 2470v50h-40l-10-40 50-10Z" fill="#EF5A03"/><path d="M3600 2280h50v40l-40 10-10-50Z" fill="#EF5903"/><path d="m3920 2220 20 50-50 10v-50l30-10Z" fill="#F05C04"/><path d="m3890 2080 20 50-50 10v-50l30-10Z" fill="#F05B03"/><path d="m430 2080 50 10v20l-60 10 10-40Z" fill="#4546F8"/><path d="M3910 2000h50l10 40-50 10-10-50Z" fill="#F05A03"/><path d="m3970 1770 20 50-50 10v-50l30-10Z" fill="#F05C04"/><path d="m3910 1490 20 50-50 10v-50l30-10Z" fill="#F05A03"/><path d="M3460 1180h10l20 100-40-10 10-90Z" fill="#DD5403"/><path d="M3020 1120h20l30 40 20 10 10 20-30 10c-50-60-50-60-50-80Z" fill="#E8DD2E"/><path d="m270 800 50 10 20 40h-30l-40-50Z" fill="#E1DA31"/><path d="m3380 3860 30 30-30 30-20-10v-40l20-10Z" fill="#FBB80C"/><path d="m3740 3740 20 10c-20 30-50 40-80 50 10-30 20-40 40-50l20-10Z" fill="#1F1504"/><path d="M3620 3720h30l-20 40-10-40Zm-10 40 30 10v20l-50 10 20-40Z" fill="#291E05"/><path d="M3970 3650h20v80l-30-20 10-60Z" fill="#F88209"/><path d="m3850 3550 20 10v50l-40 10 20-70Z" fill="#F68109"/><path d="M2200 3540h30v50h-40l10-50Z" fill="#A00905"/><path d="M2910 3460h30l10 30-30 30v-20h-20l10-40Z" fill="#B8150D"/><path d="m3880 3400 20 50h-50v-40l30-10Z" fill="#EF5803"/><path d="M3470 3340h40v40h-50l10-40Z" fill="#F77F08"/><path d="M2190 3310h70l-10 40h-40v-20h-20v-20Z" fill="#860905"/><path d="M1980 3310h40l-10 50h-30v-50Z" fill="#9D0804"/><path d="m2720 3080 30 30-70 20-20-10 60-40Z" fill="#C31C10"/><path d="M3890 3030v50h-40l-10-40 50-10Z" fill="#EF5903"/><path d="M2120 2960h40v40h-50l10-40Z" fill="#9A0704"/><path d="m1000 2720 100 30v10l-100-20v-20Z" fill="#58AC4A"/><path d="M3110 2490h10v60h20l-10 70c-20-30-20-40-20-80v-50Z" fill="#D1AB0C"/><path d="m3950 2360 20 50h-50v-40l30-10Z" fill="#F05B03"/><path d="M3710 2130c30 40 20 70 20 120h-50l30-10-10-30 10-80Z" fill="#F47007"/><path d="m3530 2080 20 40-50 20v-50l30-10Z" fill="#EF5703"/><path d="m2900 1970-20 30h-70c20-40 50-30 90-30Z" fill="#0A0A0A"/><path d="m870 80 30 10v70l-30-30V80Z" fill="#F2C60D"/><path d="m3640 3930 30 10h30l-50 40-20-10 10-40Z" fill="#624B07"/><path d="m2080 3660 40 10v30h-50l10-40Z" fill="#9D0804"/><path d="M2780 3560h40v20l20 10-70 20 10-50Z" fill="#8E0905"/><path d="M2320 3410c20 20 20 20 20 60l-50-10 30-50Z" fill="#8F0805"/><path d="M3300 3380h50v30l-50 10v-40Z" fill="#F36D06"/><path d="M3380 3290h40l-10 40h-40l10-40Z" fill="#F57607"/><path d="m1550 3090 30 10c-20 30-40 40-70 50l10-40 30-20Z" fill="#F24438"/><path d="m1990 3080 50 10-10 30h-40v-40Z" fill="#980603"/><path d="M2720 2810h40l-10 50-30-10v-40Z" fill="#9E0804"/><path d="M3330 2620h30l20 40-40 10-10-50Z" fill="#F36B06"/><path d="M3460 2240h40l-10 50-30-10v-40Z" fill="#F88209"/><path d="m2320 2130 40 40v60c-30-30-40-60-40-100Z" fill="#1A1BC2"/><path d="M360 1580h10v70h20l-20 50h-10v-120Z" fill="#312805"/><path d="M3980 1600h10v80l-30-20 20-60Z" fill="#F98609"/><path d="M2460 1370h50c-30 30-40 40-80 50l30-50Z" fill="#60B852"/><path d="M910 1360v20l-70 10 10-30h60Z" fill="#50A143"/><path d="M2340 1250h120l10 30-130-20v-10Z" fill="#D2CE30"/><path d="M3850 1200h-20l-20 10-10 20-60-10c40-40 60-30 110-20Z" fill="#F47006"/><path d="M3950 1180h40v50l-30 10-10-60Z" fill="#F05B03"/><path d="m1990 1090 70 20v30c-40-10-50-20-70-50Z" fill="#E4DD32"/><path d="m470 980 70 40v20l-60-20-10-40Z" fill="#E7BF10"/><path d="M2520 3700h20c-30 30-50 30-90 40 30-40 30-40 70-40Z" fill="#62BD53"/><path d="m1980 3540 20 10v40h-40l-10-30 30-20Z" fill="#900603"/><path d="m3840 3480 10 40-50 10-10-40 50-10Z" fill="#E25604"/><path d="m2420 3280-60 40v-20l-30-10c70-20 70-20 90-10Z" fill="#C01D10"/><path d="m2370 3260 30 10c-30 20-60 20-100 20 30-30 40-30 70-30Z" fill="#1A0705"/><path d="M2930 3210h40l-10 40-30 10v-50Z" fill="#C12D2A"/><path d="m2770 3200 80 10-40 40-20-10 10-20-30-10v-10Z" fill="#C31E10"/><path d="M2860 3190v20h-100v-20h100Z" fill="#3A0B07"/><path d="m2610 2930 30 10-10 40h-30l10-50Z" fill="#C1312D"/><path d="M3440 2830h40l-10 50-30-10v-40Z" fill="#F77F08"/><path d="M3710 2560v40l-40 20v-50l40-10Z" fill="#EF5803"/><path d="m3350 2410 30 40-10 30-20-20-20 20v-50h20v-20Z" fill="#E15D08"/><path d="m3370 2050 40 10-10 40-20 10-10-60Z" fill="#EE6805"/><path d="M2830 2030c-30 20-40 20-80 20l-10-20h90Z" fill="#9F9F9F"/><path d="m2770 1960-10 30h-20v-20l-80 10c40-30 60-40 110-20Z" fill="#7C7C7C"/><path d="m2380 1420 10 40-60 30 50-70Z" fill="#54A547"/><path d="m3470 1380 30 30-20 50-10-20-30-10 20-10 10-40Z" fill="#F16004"/><path d="m2010 1160 30 20c-40 20-70 0-110-10 30-20 40-20 80-10Z" fill="#BD9B0B"/><path d="M3460 1140h30v70l-30-30v-40Z" fill="#0E0D0C"/><path d="m270 700 60 50-20 20-50-60 10-10Z" fill="#E1B70D"/><path d="m170 650 50 30v30h-30l-20-60Z" fill="#FEF535"/></svg>
