<svg xmlns="http://www.w3.org/2000/svg" width="600" height="600"><style>.R{stroke-miterlimit:10}.S{fill:#fff}.T{fill:#01540e}.U{fill:#488100}.V{fill:#ccfcfe}.W{fill:#545454}.X{stroke-width:4.583}</style><path d="M0 0h600v600H0z"/><g stroke="#000"><g class="R X"><path d="m515 575 1-104 59 10v94z"/><path d="m311 575 19-107 191 18 2 89z" class="T"/><path fill="#7e9781" d="m519 533 29-87-105 18z"/><path d="m321 393-30 99 203-23z" class="U"/><path d="m131 575 5-58 208-5-18 63z" class="S"/></g><path stroke-width="4" d="m131 575 3-58 128-5-11 63z" class="R V"/><g class="X"><path fill="#9e0003" d="m199 575-50-42 128-39-6 81z" class="R"/><path d="M395 551c82-4 89-94 89-94l-196 20s17 79 107 74z" class="R S"/><g fill="#111470" class="R"><path d="M384 558c58-3 79-45 79-45l-167-5s37 53 88 50z"/><path d="m293 536-191 22 136-224 105 54z"/></g><path d="M118 558V276l117 74-31 73z" class="R U"/><path d="M426 462c-68-18-115-57-115-57l264-147v228s-74-4-149-24z" class="R T"/><path d="M396 452c-67-22-85-51-85-51l96-43-11 49s8 48 0 45z" class="R W"/><path d="m471 312 9-77 95 26v80z" class="R V"/><path fill="#79877b" d="m492 113 7-88h76v111z" class="R"/><path d="m467 244 26-137 82 22v139z" class="R"/><path d="m231 358 19-39 153 31-62 76z" class="R S"/><path d="m231 358 19-39 57 15 14 79z" class="R U"/><g class="T R"><path d="m161 288 94-181 140 84 1 190z"/><path d="m118 165 8-131 144 25-1 49z"/></g><path fill="#111470" d="m277 95-27 58-31 67-25 59 56 40-19 39-105-70-28 12-11-113 62-68z" class="R"/><path d="M201 95c53 3 68-37 68-37L144 39s17 53 57 56z" class="R S"/><path d="M202 81c41 4 53-27 53-27l-97-14s12 39 44 41z" class="R"/><path d="m131 37 15-12h131l-7 34zm0 37L71 274l55 14z" class="W R"/><path d="M25 254V25h124L85 274z" class="R"/><path fill="#79877b" d="M25 575V435l95 19 18 121z" class="R"/><path d="M25 441V341l103 22-4 121z" class="R T"/><path fill="#7e9781" d="m76 352 9-79 41 12 2 78z" class="R"/><path d="M25 344v-92l60 21-8 79z" class="R W"/><path d="M25 173 88 25H25z" class="R T"/><path d="m275 25 214 38-31 169-23 116-38 125-22-115-23-106-11-65h-72l1-128z" class="R U"/><path d="M381 118c65 6 90-62 90-62L315 28s16 85 66 90z" class="R S"/><path d="M383 95c45 4 64-40 64-40L340 31s9 60 43 64z" class="R"/><path d="M516 46c0 6-10 22-10 22v60s31 22 25 69c-4 32-37 42-37 42l-8 76-50 26 53-278-212-38h231s8 15 8 21z" class="R W"/><path d="m248 320 36-73 54-9-17 172z" class="R S"/><g fill="#f20c0c"><path d="M299 296s11-14 17-15c5 0 16 12 16 12l-2 23-3 29-27 11-23-9-28-31 14-26s15-8 20-7 16 13 16 13z" class="R"/><path d="M248 320s29 16 50 12c18-3 32-20 32-20l-9 98z" class="R"/><circle cx="522" cy="232" r="17"/><circle cx="539" cy="484" r="22"/><circle cx="471" cy="422" r="31"/><circle cx="488" cy="281" r="13"/><circle cx="532" cy="351" r="7"/></g><g class="R"><path fill="#9e0003" d="m211 407 28-43-40-27z"/><path d="m520 536 27 39h-35z" class="V"/></g></g></g><text fill="#f20c0c" font-family="AcademyEngravedLetPlain" font-size="6" transform="translate(30 570)">HNFT PEPE</text><path fill="#fadc00" d="m559 273 1 5h6l-5 3 2 5-4-3-4 3 1-5-4-3h5zM159 561l1 2h3l-2 2v2l-2-1-2 1 1-2-2-2h3z"/><path stroke="#000" stroke-width="5" d="M25 439v81l54-56z" class="R V"/></svg>