<svg xmlns="http://www.w3.org/2000/svg" width="1200" height="1680" xmlns:v="https://vecta.io/nano"><style><![CDATA[.m{letter-spacing:-2.78}.n{fill:#0f0}.o{font-family:Impact}.p{font-size:46.189px}.q{stroke-miterlimit:10}.r{stroke-width:2.965}.s{stroke-dasharray:0,0,0,0,0,0}.t{stroke:#000}.u{stroke:#0f0}.v{font-family:SourceSansPro-Bold}.w{fill:#676975}.x{fill:#274007}.y{opacity:.341}.z{enable-background:new}.AA{fill:#453b32}.AB{stroke-width:2.555}.AC{font-size:30.231px}.AD{stroke-width:4.146}]]></style><path d="M419.7 1082.52l-26.02-51.05L414.86 971s-5.79 49.29-4.76 60.55c1.2 13.24 9.6 50.97 9.6 50.97z" stroke-width="6.309" class="q t"/><path d="M406.69 1104.42l13.01-212.38 376.67-155.33-82.12 367.71z" fill="#3f660c"/><path d="M396.01 456.5l219.46-120.13 187.73 79-28.62 227.41 48.19 3.7 39.17 32.66-7.44 67.91-43.91 3.91-36.53 75.23-14.1-63.46S731.12 819.4 707.9 846c-25.5 29.2-66.71 30.42-66.71 30.42s-24.88 55.26-61.88 70.74c-29.84 12.49-110.47 8.11-138.86-7.65-15.48-8.61-36.37-71.68-36.37-71.68l-29.03-69.84-10.82-216.1 31.78-125.39z" fill="#498200"/><path d="M378.85 663.27l19.41-142.23h-38.82z" fill="#170f05"/><path d="M359.44 521.04l-19.38 142.23h38.79z" fill="#4c4c4e"/><path d="M343.8 635.89l-8.6-133.8 25.88-50.79 31.52 69.74z" fill="#d1ccd2"/><path d="M392.6 535.21l-31.52-83.91 27.46-113.02 67.92 85.96z" fill="#433e42"/><path d="M388.54 338.28l67.92 87.64 173.56-51.57z" fill="#d4cfd5"/><path d="M388.54 338.28l120.74 18.05 52.86-74.19z" fill="#2d282c"/><path d="M701.58 416.49l-2.45-103.12 194.49 122.86-138.16 49.38z" fill="#141412"/><path d="M755.46 485.61l101.49-36.28 67.31 99.45-137.03 101.75z" fill="#e3e2e8"/><path d="M509.28 356.33l52.86-74.19 158.82 20.68-19.38 113.67z" fill="#6b6863"/><path d="M717.29 324.46l38.17 161.15L884.7 377.83z" class="w"/><path d="M924.26 548.78L787.23 650.53l72.88 45.3z" fill="#4c4044"/><path d="M759.97 762.69l-30.65-170.52 26.14-106.56 35.28 167.11z" fill="#221912"/><path d="M782.37 758.17l24.66-74.62 29.52 29.29-27.08 11.34z" fill="#375411"/><path d="M456.46 477.57l-7.05-24.87 134.36 21.53-33.87 35.86z" class="w"/><g class="x"><path d="M409.66 501.8s-53.34-38.37-24.59-42.03c45.58-5.78 196.67 52.94 196.67 52.94l-2 40.63-170.08-51.54z"/><path d="M416.74 617.98s-47.99 40.09-18.73 40.2c46.42.14 189.4-68.8 189.4-68.8l-7.66-36.04-163.01 64.64z"/></g><path d="M579.74 553.34l-167.38-50.75v119.23z" fill="#fff"/><ellipse transform="matrix(1 -.00745 .00745 1 -4.1632 3.088)" cx="412.38" cy="560.33" rx="23.21" ry="51.25"/><ellipse transform="matrix(.9998 -.0183 .0183 .9998 -10.242 7.4294)" cx="400.03" cy="562.25" rx="6.21" ry="28.25" fill="#fff"/><path d="M538.51 643.71l21.28-99.88 19.53 4.2-21.24 99.88z" fill="#617548"/><path d="M514.3 733.77l63.67-222.49 32.25 10.88s61.93 168.91 10.65 202.03c-14.28 9.18-106.57 9.58-106.57 9.58z" fill="#375411"/><path d="M577.52 512.78L440.46 685.17l73.84 48.6z" fill="#617548"/><path d="M560.72 714.89s41.59 11.63 55.46 1.69c8.79-6.32 22.02-31.19 11.14-34.74-17.13-5.64-66.6 33.05-66.6 33.05z"/><ellipse transform="matrix(.5758 -.8176 .8176 .5758 -361.0319 691.4815)" cx="485.86" cy="693.67" rx="11.88" ry="33.2"/><path d="M625.68 548.17c-12.55-43.36-30.19-111.95-3.22-129.64 27.2-17.84 68.21 27.42 109.99 69.52 12.62 12.71-71.3 4.06-71.3 4.06s-30.87 72.03-35.47 56.06z" class="w"/><path d="M632.63 597.38c-14.13-35.39-2.61-169.77-2.61-169.77s120.16 67.98 135.35 104.98c13.97 34.06-3.57 140.44-3.57 140.44s-116.2-43.13-129.17-75.65z" class="x"/><g class="t"><g fill="#fff"><path d="M640.64 591.71c-13.55-34.56-4.92-153.4-4.92-153.4s105.97 64.53 119.74 94.5c17.41 37.9 1.51 129.86 1.51 129.86s-101.52-33.2-116.33-70.96z" stroke-width=".34" class="q"/><ellipse cx="699.13" cy="561.88" rx="45.45" ry="45.58" stroke-width="16.995"/></g><g fill="#afdcfa" stroke-width="6.798" class="z"><path d="M353.1 491h118.13v144.89H353.1z" class="q y"/><ellipse cx="698.33" cy="563.46" rx="83.63" ry="83.84" class="y"/></g></g><path d="M471.23 535.75h146.78v7.29H471.23z" class="y z"/><path d="M398.26 795.64l31.22-25.59s16.64-14.72 24.37-14.79c8.98-.07 28.78 16.62 28.78 16.62L505 794.06l29.16-13.57 21.18-8.94s24.11-11.95 32.77-10.48c8.98 1.54 24.79 20.96 24.79 20.96l16.93 17.98 17.38 17.37s-34.67 22.25-47.25 27.17c-8.56 3.37-27.07 8.43-36.63 8.94-11.43.61-35.05-.5-45.58-4.02-5.83-1.94-20.38-11.7-20.38-11.7s-25.91 8.79-35.18 8.94c-8.3.11-25.01-3.59-31.96-7.07-6.34-3.16-17.93-11.23-21.6-16.33-4.48-6.28-10.37-27.67-10.37-27.67z" fill="#d40000"/><path d="M401.03 796.43l53.5 4.67 50.73 9.76 72.84 1.69 66.25 5.35-66.99-3.49-72.36-1.32-50.63-10.02z"/><path d="M618.05 859.24l39.3-37.25-3.64-96.62 7.12 98.2zm-226.81-63.09l20.93-93.79-17.8 94.79 2.06 24.51zm140.51-359.39l64.7 10.34-64.38-5.38-20.08 8zm38.27-18.88l-77.12 12.21 76.8-6.07 24.08 10.09z" class="x"/><g class="q t"><path d="M827.15 1102.14l-13.82-131.45 242.07 86.93v44.52zm-607.75 0s36.96-18.81 49.6-23.98c18.2-7.45 73.99-24.98 73.99-24.98l-26.02 48.96H219.4z" class="r s AA"/><path d="M437.3 1102.14H335.2l77.67-135.15s-10.22 61.5-4.13 83.19c3.67 13.09 28.56 51.96 28.56 51.96z" fill="#7d8c7e" class="r s"/><path d="M355.94 1102.14h-63.42L413.66 964.9s-30.08 47.28-37.4 68.3c-5.03 14.46-20.32 68.94-20.32 68.94z" class="r s AA"/><path d="M504.25 1102.14s102.11-51.59 134.16-73.65c34.19-23.53 126.28-102.91 126.28-102.91l-49.04 176.57h-211.4z" fill="#7d8c7e" class="r s"/><path d="M754.25 929.6l4.01-15.1s55.51 40.72 66.78 72.45c9.31 26.21 2.11 115.19 2.11 115.19h-59.47l-22.12-.06-33.07.06h-88.85s35.54-22.09 50.83-37.26c18.23-18.1 54.48-56.78 65.89-81.93 11.48-25.28 13.89-53.35 13.89-53.35z" class="r s AA"/><g class="n"><path d="M1082.95 1104.42l-97.29 183.1-880.42 2.52 110.36-185.62z" class="AD"/><path d="M976.65 1223l-81.87 182.1-584.13 3.52 87.6-185.62z" stroke-width="3.385"/></g><path d="M1030.69 1131.43l-97.29 183.1-880.42 2.53 110.36-185.63z" class="AD"/></g><text transform="matrix(1.351 0 0 1 170.4674 1194.4658)"><tspan x="0" y="0" class="q u v AB AC">IF YOU DONT BELIEVE ART BELONGS</tspan><tspan x="-3.05" y="36.28" class="q u v AB AC">ON BITCOIN OR DONT GET IT, I DONT</tspan><tspan x="-10.57" y="72.55" class="q u v AB AC">HAVE TIME TO CONVINCE YOU, SORRY</tspan></text><text transform="matrix(1.351 0 0 1 435.6145 1388.1509)" stroke-width="4" font-size="79.2" class="n q t v">JOIN US</text><path d="M1005.68 1641.32V214.57h140v1306.58z" stroke-width="5" class="q u"/><text transform="matrix(1.4365 0 0 1.48 1059.1018 295.4475)"><tspan class="m n o p" x="0" y="0">N</tspan><tspan x="0.78" y="44.22" class="m n o p">A</tspan><tspan x="0.11" y="88.44" class="m n o p">K</tspan><tspan x="0.78" y="132.66" class="m n o p">A</tspan><tspan x="-4.05" y="176.88" class="m n o p">M</tspan><tspan x="-0.11" y="221.1" class="m n o p">O</tspan><tspan x="1.86" y="265.33" class="m n o p">T</tspan><tspan x="-0.11" y="309.55" class="m n o p">O</tspan><tspan x="0.56" y="397.99" class="m n o p">S</tspan><tspan x="1.86" y="442.21" class="m n o p">T</tspan><tspan x="0.78" y="486.43" class="m n o p">A</tspan><tspan x="-4.05" y="530.65" class="m n o p">M</tspan><tspan x="0.91" y="574.87" class="m n o p">P</tspan><tspan x="5.85" y="663.31" class="m n o p">I</tspan><tspan y="707.53" class="m n o p" x="0">N</tspan><tspan x="-0.26" y="751.76" class="m n o p">D</tspan><tspan x="2.91" y="795.98" class="m n o p">E</tspan><tspan x="1.36" y="840.2" class="m n o p">X</tspan></text><ellipse cx="1075.68" cy="118.82" rx="78" ry="79.5" class="n"/><path d="M1083.91 104.5c4.24-.07 7.47 1.92 7.2 6.57-.04.74-.42 1.11-1.13 1.11l-26.23-.08c-.6 0-2.07.11-2.15-.83-.12-1.53-.01-3.05.88-4.3 1.27-1.77 3.7-2.5 5.83-2.52.69-.01 1.04-.23 1.21-.86.88-3.24 1.35-6.54 1.4-9.9.04-2.32-.56-4.26-1.77-5.84-3.74-4.86-7.56-9.98-8.57-16.17-1.25-7.57 2.28-15.23 9.84-18.07 4.16-1.56 8.3-1.52 12.41.12 2.7 1.08 5.54 3.34 7.17 5.88 3.48 5.4 3.24 11.89.66 17.43-1.51 3.22-3.69 6.18-5.77 9.12-.96 1.36-1.59 2.36-1.89 3-1.88 4.07-.89 9.61.04 13.95.1.48.31.9.62 1.28.06.07.15.12.25.11zm3.23-35.95c0-5.77-4.76-10.46-10.62-10.46-5.87 0-10.62 4.68-10.62 10.46S1070.65 79 1076.51 79c5.87 0 10.63-4.68 10.63-10.45zm-.81.02c0 5.34-4.4 9.67-9.82 9.67-5.43 0-9.82-4.33-9.82-9.67s4.4-9.67 9.82-9.67c5.43 0 9.82 4.33 9.82 9.67zm-6.47.29c-.05-.07-.03-.17.05-.21.49-.28.9-.67 1.05-1.22.43-1.54-.72-2.18-1.9-2.76-.21-.1-.31-.36-.21-.57l.33-.77a.53.53 0 0 0-.3-.71l-.24-.09c-.29-.11-.6.06-.67.35l-.24 1.1c-.04.18-.22.29-.4.25l-.13-.03c-.33-.08-.44-.27-.34-.59l.24-.75a.64.64 0 0 0-.31-.75c-.83-.44-.99.9-1.06 1.36-.04.23-.26.37-.49.3l-1.34-.39c-.4-.11-.65.03-.74.43l-.02.1c-.09.41.07.64.49.69.66.07.9.41.74 1l-1.23 4.66c-.06.24-.33.38-.57.28-.63-.25-1.01-.03-1.12.65-.05.29.07.46.37.52l1.36.26c.3.06.46.38.31.64a2.48 2.48 0 0 0-.33 1.06.46.46 0 0 0 .4.49l.12.02c.3.04.58-.16.64-.46l.18-.98c.04-.24.29-.38.52-.3l.15.05a.39.39 0 0 1 .29.53l-.25.98c-.08.3.11.6.42.67.72.17.84-1.1.99-1.57a.36.36 0 0 1 .44-.23c1.89.5 3.09-.05 3.6-1.67.44-1.33-.15-1.46-.8-2.34zm-3.49-3.16a.43.43 0 0 1 .52-.3l.4.1c.98.25 1.65.91 1.51 1.48l-.06.23c-.15.56-1.06.82-2.04.57l-.4-.1c-.23-.06-.36-.29-.3-.51l.37-1.47zm-.84 3.28a.38.38 0 0 1 .46-.27l.74.19c1.14.29 1.92 1.07 1.74 1.74l-.02.08c-.17.67-1.24.99-2.37.7l-.74-.19a.37.37 0 0 1-.27-.45l.46-1.8zm-33.38 61.28c-.55 0-1-.44-1-.99l.02-11.25c0-2.25 1.89-4.06 4.2-4.06l61.84.11c2.32 0 4.19 1.83 4.19 4.08l-.02 11.25c0 .54-.45.98-1 .98l-68.23-.12zm3.67 8.34c-2.68-.1-2.24-3.06-2.21-5 .01-.48.24-.73.71-.73l63.64-.17c.66 0 1 .32 1.02.96.05 1.44.21 4.06-1.09 4.8-.32.18-.84.28-1.54.28l-57.21-.07a92.41 92.41 0 0 1-3.32-.07zm-12.33 4.85l21.02.02c1.04.01 1.93.12 2.67.34 6.09 1.79 9.99 7.37 9.57 13.61-.07 1.09-.42 2.25-.74 3.33-.23.79-.76 1.41-1.65 1.19-1.62-.41-4.14-1.98-3.78-3.93.67-3.58-1.19-6.97-4.68-8.22-.64-.23-1.5-.34-2.59-.34-6.31 0-12.61-.01-18.92-.01-1.34 0-2.36.12-3.07.36-6.32 2.13-6.35 11.01.01 13.06.75.24 1.86.36 3.33.36l18.01.13c.25.01.48.14.67.4a25.76 25.76 0 0 0 3.78 4.1c.18.16.31.3.38.43.09.15.01.35-.16.4-.86.27-1.65.41-2.37.43l-20.48.09c-2.09-.02-3.64-.17-4.64-.44-5.82-1.62-9.62-7.21-9.41-12.94.22-5.74 3.99-10.29 9.56-12.01 1.14-.35 2.32-.35 3.49-.36zm64.44 17.58c-.32.87-.93 1.14-1.84.83-1.55-.53-3.66-1.9-3.52-3.77.14-1.91.27-3.58-.82-5.28-.93-1.46-2.18-2.46-3.73-3-.7-.24-1.74-.36-3.1-.37l-18.19-.1c-.23-.01-.46-.16-.71-.47-1.2-1.51-2.53-2.87-4.01-4.09-.3-.25-.26-.72.08-.91.24-.14.54-.22.88-.24l5.04-.2 16.98-.02c1.72.01 3.06.13 4.03.38 3.27.82 5.81 2.64 7.63 5.45 2.4 3.68 2.82 7.6 1.28 11.79zm23.64 7.71c-.68.21-1.31.43-2.04.44l-19.38.05c-2 0-4.21.05-6.04-.46-7.25-2.01-11.16-9.67-8.85-16.66.59-1.78 1.43-1.6 2.89-.96 1.19.52 3.05 2 2.67 3.53-.88 3.6 1.27 7.11 4.75 8.26.66.22 1.52.33 2.57.32l19.45-.04c7.98.01 10-10.83 2.46-13.41-.68-.23-1.62-.35-2.8-.36l-18.27-.16c-.62-.01-.79-.05-1.16-.58a19.6 19.6 0 0 0-3.85-3.98c-.23-.18-.21-.52.04-.67 1.3-.8 3.2-.57 4.9-.57l20.31.03c2.7.02 5.4 1.52 7.33 3.27 2.51 2.27 3.93 4.99 4.27 8.16.67 6.13-3.19 11.9-9.25 13.79zm-59.13.19c-3.76-1.22-6.63-3.26-8.42-6.65-1.83-3.46-1.99-7.35-.47-10.97.23-.53.63-.73 1.23-.59 1.57.36 2.81 1.19 3.73 2.48.4.57.38.95.25 1.68-.64 3.54 1.23 7.01 4.78 8.1.63.2 1.51.29 2.64.28l18.56.1c.08 0 .21.06.4.17.12.07.22.17.31.29a26.09 26.09 0 0 0 3.65 3.93 1.5 1.5 0 0 1 .29.31c.24.38.14.63-.3.75-.83.22-1.66.38-2.56.38-7.51.04-15.02.03-22.53-.03a4.64 4.64 0 0 1-1.56-.23z"/></svg>