<svg xmlns="http://www.w3.org/2000/svg" width="400" height="400"><style>.T{stroke-miterlimit:10}.U{stroke:#000}.V{stroke-dasharray:0,0,0,0,0,0}.W{stroke-width:1.948}.X{stroke-width:.386}</style><path fill="#da6e1b" d="M0 0h400v400H0z"/><text fill="#0a6a2c" font-family="AcademyEngravedLetPlain" font-size="4" transform="translate(374.3 397)">HNFT PEPE</text><g class="T U"><path fill="#746a64" d="M50.7 335.3c-3 7.2 23.3 6.6 33.4 5.2 7-.9 18.2-17.2 21.7-21.9 2.9-4 4.8-13.4 2.9-17.3-2.7-5.5 4.3-22.1.6-27.3-3.9-5.5-20.4-11-26.6-15.5-4-3 13.3-9.6 18.3-12.3s16-7.4 19.5-11.1a31 31 0 0 0 6.7-16.5c-.2-3.7-3.7-10.6-5.2-14-2.1-5-9.8-14.6-7.9-19.8 1.3-3.6 10.6-8.5 14.5-11 4.2-2.9 13.3-8.6 15.8-12.3a26 26 0 0 0 3.5-14.5c-1-5.2-10.1-9-6.1-13.8 10.3-12.1 52.7-8.9 71.7-9.1 17.7-.3 57.2-18.7 70.4-11 3.7 2.3-1 10.8-1.7 14.4-1 4.6-2.3 14.7 1.2 18.4 3.5 3.8 17.3 5.5 22.3 8.2 4.7 2.6 12.4 10 13.2 14.3 1 4.7-4.4 14.4-5 19.3a42 42 0 0 0 4.5 21c3.6 5.4 15.8 13.7 20.5 18.5 3.7 3.9 11.7 11.9 12 16.7.2 5.1-34.1 2.7-36 7.7-1.2 3.4-7.8 29.8-4.4 41.2 4 13.4 27.7 14.7 31.5 22.1 3.5 6.9 12.2 11 20 14.5 4.2 1.8 20-3.2 23-5.8 1.9-1.8 6.3-5.2 7.3-7.3 1.5-3.1 4.5-24 .6-25.4-4.6-1.5-5.6 5-10.6 6.5-3.6 1-7.8-16.4-10.6-18-3.1-1.9-.7-5-.9-8-.2-4.2 7.2-12.2 10-16.2 3.3-5 10.2-15.2 10.8-20.6.6-4.8-.8-14.9-4.5-18.6-2.8-2.8-11.8-6-16-7.6-5.5-2.2-17-6.2-21.4-9.3-4.6-3.2-13.4-10.5-14.3-15.1-1.3-6.8 11.4-20.7 9-27.2-2.6-7.7-27.8-12.8-33.6-19.5-5.4-6.2 1-23-2.1-30-2.3-5.4-13.6-14-20.3-16.6-8.4-3.3-13.5-8.8-26.4-10.4-6.5-.7-21.4.5-27 5.8-5.8 5.5-8.5 12.5-17.3 12.9-7.6.4-16.9-1.8-25.5-3.9-7-1.6-24.6-2-32.4 0-7.1 1.9-38 12.8-43.3 17-9 7-22.9 17.9-25.1 27-1.1 4.6 0 15-1 19.6a44 44 0 0 1-8.6 15.7c-3.6 3.6-8.7 10.3-11.8 14a45 45 0 0 0-10.4 26.3c.3 4.3 18.7 12.3 18.6 16.6-.2 4.7-8.1 13.2-11.9 17.1-3.5 3.8-12.9 10.6-14 15-2 7.9 6.1 23.5 11.5 30.1 3.7 4.5 7 6.9 9.8 15.3.8 2.5 3.8 6.8-.8 11.4-3.8 3.8-20.6 11.4-22.1 15.1z" class="V W"/><path fill="#996145" stroke-width="2" d="M107.6 288.6 95.2 245l21.1-41.6 32.7-74.9 44.8-12.6 77 5.2s29.2 21 36.7 30.2a79 79 0 0 1 12.1 23.2c1.7 7.5-.2 23 1.3 30.5 1.1 5.2 7.2 14.3 8.9 19.3a69 69 0 0 1 1.3 26 72 72 0 0 1-15.8 29l-23.5 65.3-97.4 16z"/></g><path fill="#b0806d" d="M183 320.2 153.3 279c-4-5.5-12.8-15.9-16.3-21.7a156 156 0 0 1-14.8-30.8 95 95 0 0 1-2.7-27.3c1-6.6 4.9-19.6 8.4-25.3a82 82 0 0 1 17.7-19.8 77 77 0 0 1 24.2-9.4c6-.7 18.4 0 24.3 1.4a224 224 0 0 1 27.2 10.4c6.4 3 18.3 12.5 25.3 12 4.1-.4 10.3-7 13.5-9.7 2.5-2 7.6-6.5 10.7-7.5a41 41 0 0 1 17.7-1c4 1.2 9.9 2.9 13.4 5.6 3 2.3 8 7.9 10.2 12.8 2.3 5 2.8 10.4 3.1 14.4.3 3 0 12.4-.1 15.3-.2 2-1.3 3.6-.9 7.8.4 4.4 2.6 7.2 3.6 9.2a90 90 0 0 1 4.2 11.3 91 91 0 0 1 1.6 25.8 71 71 0 0 1-4.4 14.6c-1.8 3.6-6.6 10-8.5 13.5-8.4 15.8-26.4 66.4-26.4 66.4l-76.8 3z"/><path fill="#fff" d="M206.7 191c-10.7 0-22.2 20.2-15.8 27.6 3.3 3.8 18.1 4 23.7-1.3 6.4-6 2.9-26.2-7.9-26.2m72.9 1.3c10 0 20.7 18.2 14.7 24.8-3 3.4-16 4-20.3.1-4.5-4-4.5-24.9 5.6-24.9"/><g fill="#0a6a2c"><circle cx="209.1" cy="210.1" r="5.7"/><circle cx="279.9" cy="209.9" r="5.3"/></g><path d="M251.5 239.4c-6.4.6-23-7.5-22-14 .8-5.8 14.7-11.3 20.4-10.7 5 .6 17 4 18 9 1 5.6-10.8 15.1-16.4 15.7"/><path fill="#a2544d" d="M251.5 238.2c-6 .5-21-6.9-20.3-12.8.8-5.2 13.5-10.2 18.8-9.6 4.5.4 15.6 3.6 16.5 8.1 1 5-9.9 13.7-15 14.3"/><path d="M236.2 226.4s10.7.4 14.3.2 14.2-1.7 14.2-1.7-10.2 3.5-13.7 3.7c-3.7.2-14.8-2.2-14.8-2.2"/><g class="T U"><g class="V"><path fill="#587080" d="M58 400h310.8s-2.4-25.2-5-33.2c-1.8-5.7-4.6-17.4-6.5-23.2-2-6.2-6-18.7-9.4-24.2-4.3-7-9.9-17.9-15.3-24-3-3.3-13-14-17.3-14.3-17.3-1.6-36.6 39.2-53 44.7-9.6 3.2-29.4-6.9-38.7-10.6-6.6-2.6-20.2-6.2-26.9-8.6-7.8-2.8-22.8-9.8-30.4-13l-19.2-7.7c-4.7-1.8-13.9-6-18.7-7.1a71 71 0 0 0-14-1.3c-3.8.1-12 0-15.3 2a42 42 0 0 0-10.6 13c-3 5.8-10 18.2-12.8 24a628 628 0 0 0-12.3 28.8 201 201 0 0 0-7.3 25.9c-1.4 7 2 28.8 2 28.8z" class="W"/><path fill="#81a0b6" stroke-width="1.9" d="M58 400h310.8l-16-27-5.5-19.7.6-27.6-16.4-30s-5-7.7-9.4-8.1c-17.3-1.5-42.4 40.4-58.9 45.5-9.5 3-30.8-6.1-40.1-9.5l-26.4-9.7c-7.8-2.6-22.8-9-30.5-12l-19-7.1c-4.8-1.7-14-5.5-18.8-6.6a177 177 0 0 0-20.5-1.7 60 60 0 0 0-17 4c-3.7 2-7.4 16-7.4 16L75.7 323l-12.3 26.6.7 23.4z"/></g><path fill="#b58976" d="m296.8 378-3.7-15.3 11.2-6.2 6.8 4.6-.8 13.9-.2 2q-.1.6-.6 1c-.3.6-1.3 1.5-1.6 2l-.5 1.5q-.4.8-1 1.1a5 5 0 0 1-3.1.2c-.4 0-.8-.8-1-1l-2-1.8c-.7-.7-3.5-2-3.5-2z" class="X"/></g><path fill="#181714" d="M300.8 376.5v-.5q.3-.3.5-.3l.5.7 1.1.3c1 .1 3.1-.2 4.1-.5l.5-.2q.2 0 .3.2t-.2.3a12 12 0 0 1-5.8.5q-.6-.1-1-.5"/><path fill="#7d4a3a" d="M303.2 372.8v.5l.2.3c.5.2 1.6 0 2.1-.2l.4-.2v-.4c-.2-.9-.5-2.7-1.1-3.4l-.3-.1q-.2 0 0 .2c0 .7.6 2 .8 2.6v.6l-.2.3h-1s-.7-.3-.9-.2"/><path fill="#898483" d="M298 378.6c.3-.6-.9-2-1-2.6-.2-.6 0-1.9-.2-2.5-.1-.4-1-1.4-1.2-1.9q-.4-1.6 0-3.2l.4-2.1c.3-.8 0-2.6.5-3.3.8-1.4 3.4-1.9 4.8-2.8.2-.2 1.2-.8 1.5-.8s2.1.9 2.1.9 2.5.5 3.7 1l.9 1c.4.4.3.4.4 1 .3 2.1.7 6.3.5 8.5l-.4 2c0 .4-.3 1.2 0 1.5s1 .4 1.3.2c.6-.3.8-1.8 1.2-2.3s1.5-.5 1.9-1 .4-1.5.3-2c-.1-.7-.1-2.2-.5-2.8-.3-.5-1-1.2-1.2-1.7s-.2-2-.3-2.7l-.5-1.8c-.4-.6-1.3-1.7-1.8-2.1a27 27 0 0 0-5.3-3.5 8 8 0 0 0-2.6-.5c-1 0-3 .3-3.8.7-1.3.6-3.8 2-4.7 3-1.1 1.2-3.1 4-3.2 5.7-.1 1 1 2.8 1 3.8l-.5 1.4c-.2.8-.1 2.6.2 3.4q.1.6.7 1c.4.4 1.5.9 1.8 1.4s.3 2 .3 2.6c.1.5 0 2 .5 2.2.7.3 3-1 3.3-1.7z" class="T U X"/><path fill="#fff" d="m306.6 367.6-1.4.3.1.5.4.3h1zm-6.2.8-1.3.3.1.5.4.2h1z"/><path fill="#1b692f" d="M306.5 367.8c.3-.4 1.4-.6 1.7-.3.2.1.4.8.2.9l-1.7.2c-.2 0-.3-.7-.2-.9m-6 .7c.2-.3 1.4-.5 1.7-.2.1.1.3.8 0 .8l-1.6.3c-.2 0-.3-.7-.2-.9"/><g fill="#272727"><use href="#B"/><use x="-6.1" y=".8" href="#B"/></g><g class="U T V"><path fill="#81a0b6" d="M51.7 400s-4.7-26 27.5-91.8c5.1-10.4 22.4-29.5 53-4.5 29.6 24 11 96.3 11 96.3zm289.1 0s-21-71.6-21-92.6c0-13 5.1-16.3 8.5-14 36 24.3 40 106.6 40 106.6z" class="W"/><path fill="#746a64" stroke-width="2" d="M64.4 290.8c-2.8 6 20.5 13.7 29.5 12.8a46 46 0 0 0 22.1-9.4c2.7-3.3 4.7-11.1 3.1-14.5-2.2-4.7 4.6-18.6 1.5-23-3.3-4.7-7-6.8-12.4-10.8-3.5-2.6 6.6-5.7 11.1-7.8s-.2-8.6 3-11.6c3-3 5.8-7.8 5.8-11.3 0-3.1-2.9-7.9-4.1-10.8-1.8-4.2-3-11.7-1.1-16 1.3-3 14.3-13.6 17.8-15.7 3.9-2.3 12-6.8 14.4-10 2.1-2.7 4.1-9 3.6-12-.7-4.5-12.3-12.7-8.6-16.5 9.5-10 65.8 3.7 82.6 4 15.7.2 29.8-18 41.2-11 3.2 1.8 5 7.4 4.2 10.4-.9 3.9-2.4 12.4.5 15.6 3 3.2 15.2 5 19.5 7.4 4.1 2.3 10.7 8.7 11.3 12.4.7 4-4.4 12-5 16.1-.6 4.6.7 13.8 3.3 17.8 3 4.7 13.5 12 17.5 16.2a28 28 0 0 1 5.8 15.2c.1 4.3-3 11.5-4.8 15.7-1.2 2.8-2.8 8.8-1.7 11.6 1.7 3.9 9 10.8 13.8 13.1 5.9 3 19.2 8.7 26.6 8a30 30 0 0 0 19.7-12.5c1.4-2.6 6.4-9.6 3-10.8-4-1.4-10.3 7.3-14.8 8.4a24 24 0 0 1-12.7-2.5c-2.7-1.6-7.9-5.6-8-8.2 0-3.6 6.8-10.1 9.3-13.4a58 58 0 0 0 10.3-17.1c.7-4-.2-12.5-3.4-15.8-2.4-2.4-10.3-5.3-14-6.8-4.8-2-14.7-5.7-18.6-8.4s-11.6-9.1-12.2-13c-1-5.8 10.7-17.2 9-22.8-2.2-6.5-24.4-11.5-29.3-17.2-4.5-5.4 1.6-19.4-1-25.4-1.8-4.6-11.5-12-17.4-14.5-7.3-3-10.2-8.5-19-8-5.8.4-19.4 4.4-23.7 7.2-5.8 3.8-8.2 8-16 8.2-6.8.1-21.4-3.3-26.6-6.1-5.4-3-21.6-2.3-28.6-.8a93 93 0 0 0-24 8.5c-8.3 5.7-21.1 20-23.4 27.7-1 3.8 2.2 11.5 1.2 15.3a36 36 0 0 1-9 11.9c-3.4 2.9-11.9 7.7-14.7 10.8-5.2 5.7-13.4 18.5-13.3 25 .1 3.7 6.9 9.9 6.7 13.5-.3 4-7.6 10.9-11 14.1-3.2 3-11.8 8.6-12.9 12.2-2 6.7 4.6 20 9.2 25.8 3.1 3.8 16.4 9.7 14.9 14.1-.8 2.1-8.2 4.2-11.4 4.2-4.7.2-17.3-2.6-18.8.5z"/></g><defs><path id="B" d="M305 368c-.3 0-.3-1-.2-1 .7-.7 3-1.1 3.6-.5.2.1.4 1 .1 1z"/></defs></svg>