<svg xmlns="http://www.w3.org/2000/svg" viewBox="0 0 750 750" xmlns:v="https://vecta.io/nano"><path fill="#8f84af" d="M0 0h750v750H0z"/><g fill="#5f4b8b" stroke="#3e2f66" stroke-width="4" stroke-linejoin="round" stroke-miterlimit="10"><path d="M375 140.988c-16.709 74.573-229.422 119.924-178.24 269.293C235.908 524.531 375 459.764 375 459.764s139.092 64.767 178.24-49.482C604.422 260.912 391.709 215.561 375 140.988z"/><g stroke-linecap="round"><path d="M264.548 265.404L236 267.341c-234 40-202 236-132 286 118.432 68.326 242.628-2.826 276.325-143.405"/><path d="M485.452 265.404L514 267.341c234 40 202 236 132 286-118.432 68.326-242.628-2.826-276.325-143.405"/></g></g><ellipse transform="matrix(.8701 -.4929 .4929 .8701 -166.9398 367.4641)" fill="#3e2f66" stroke="#2c2154" stroke-width="4" stroke-linejoin="round" cx="613.54" cy="500.385" rx="51.629" ry="50.74"/><ellipse transform="matrix(.8701 -.4929 .4929 .8701 -170.2345 375.231)" fill="#2c2154" cx="626.625" cy="510.518" rx="23.334" ry="22.932"/><ellipse transform="matrix(.8701 -.4929 .4929 .8701 -170.6307 376.7318)" fill="#0dd1cb" cx="629.274" cy="512.02" rx="18.727" ry="18.405"/><ellipse transform="matrix(.4929 -.8701 .8701 .4929 -366.1724 372.4494)" fill="#3e2f66" stroke="#2c2154" stroke-width="4" stroke-linejoin="round" cx="136.46" cy="500.385" rx="50.74" ry="51.629"/><ellipse transform="matrix(.4929 -.8701 .8701 .4929 -381.6236 366.2025)" fill="#2c2154" cx="123.375" cy="510.518" rx="22.932" ry="23.334"/><ellipse transform="matrix(.4929 -.8701 .8701 .4929 -384.2732 364.6597)" fill="#0dd1cb" cx="120.726" cy="512.02" rx="18.405" ry="18.727"/><path d="M136.46 436c-19.126-2-42.46 10-47.793 20-8-26-12-103.333 67.333-136.667-22 26.667-66.414 82-19.54 116.667zm424.728 20.099c11.517-20.282 36.34-27.94 48.445-23.699 0 0-54.108-87.197-100.095-86.093 33.615 25.2 51.65 109.792 51.65 109.792z" fill="#6d5e96"/></svg>