<svg xmlns="http://www.w3.org/2000/svg" viewBox="0 0 2401 2400"><g data-name="Layer 3"><path d="M0 0h2400v2400H0" fill="#ffa300"/><path d="M2400 661V537L1993 230l-274 100c20 152 41 300 61 455a315 315 0 00-257 110 3378 3378 0 00-337-436 3346 3346 0 00-500-450L0 0v2400h2271l21-240L2400 2045V661Zm-125 800A814 814 0 01 2200 1600a358 358 0 00-39 133l-114-121a148 148 0 00 8-47 170 170 0 00-22-83 428 428 0 00 111-45 407 407 0 00 100-79l56 39a400 400 0 01-25 63Z" fill="#7f0"/><path d="M2400 545a189 189 0 00-67-112c-29-22-45-16-71-33-68-42-35-121-91-183a226 226 0 00-279-27 174 174 0 01-57 53c-31 14-42 0-66 14a175 175 0 00-76 160c0 53 22 63 9 100s-35 43-43 86a85 85 0 00 0 42c12 42 56 45 64 76 0 14 0 37-37 74a600 600 0 01 74 0c51 0 71 9 95 9a184 184 0 00 135-69 107 107 0 01-84-21c-6 0-9-10-20-19a137 137 0 00-48-31c-27-11-32 0-47-11a69 69 0 01-23-70 83 83 0 01 23-41c-17-7-38-20-40-39s12-22 13-41-26-33-33-60a92 92 0 01 61-100c32 0 46 26 78 18s22-28 56-50 72-32 95-14 16 29 18 52c6 70-29 100-12 126s67 21 73 47c0 9 0 11-13 37a148 148 0 00-13 65 90 90 0 00 31 57c17 13 30 9 54 15a213 213 0 01 118 86c19 27 13 34 31 64a254 254 0 00 92 89Z" fill="#444437"/></g><g fill="#1d1d1b" data-name="Layer 4"><path d="M0 0h2400v30H0"/><path d="M0 9h30V2400H0zM2371 0H2400v2400h-29"/><path d="M2 2374H2400V2400H2"/></g><g stroke="#1d1d1b" stroke-linecap="round" stroke-miterlimit="10" data-name="Layer 2"><path d="M2277 2381a1075 1075 0 00 7-237 741 741 0 00-140-425 638 638 0 00-353-212 611 611 0 01 28 200 593 593 0 01-36 193" fill="none" stroke-width="25"/><path d="M712 19a2938 2938 0 01 814 889 2866 2866 0 01 265 600" fill="none" stroke-width="25"/><path d="m2391 2050-100 110M2006 926a500 500 0 00 37 192 465 465 0 00 164 217c47 30 72 31 82 59 16 46-37 89-82 182a533 533 0 00-48 165m229-855a331 331 0 01-74-73c-39-54-31-80-61-111a191 191 0 00-191-42c-75 26-58 86-131 125-92 49-163-21-282 18a300 300 0 00-132 90" fill="none" stroke-width="15"/><path d="M1864 628a46 46 0 00-13 52c11 19 43 15 49 15 30 0 31-21 64-35s66 0 88-24a35 35 0 00 11-26 45 45 0 00-33-38" fill="#ff2a00" stroke-width="10"/><path d="M1932 558c-58 24-100 0-109 27a48 48 0 00 26 55c25 11 42-16 100-35s76-9 89-29 0-65-15-72-34 31-91 54Z" fill="#ff2a00" stroke-width="10"/><path d="M1881 615a118 118 0 00 61-9 110 110 0 00 51-45" fill="none" stroke-width="10"/><path d="M1935 491a213 213 0 00-80 10 129 129 0 00-69 41 84 84 0 00-18 81 75 75 0 00 74 40m135 72a81 81 0 01-50-6 75 75 0 01-33-29" fill="none" stroke-width="15"/><path d="M2112 647a116 116 0 01-39-79c0-45 36-69 24-95s-53-11-69-38 16-53 12-119c0-24 0-46-19-59s-79 0-82 0c-43 21-41 54-73 61S1817 300 1785 300a87 87 0 00-55 88c0 31 32 40 29 72s-11 26-7 41a56 56 0 00 27 31" fill="none" stroke-width="15"/><path d="M2391 524a172 172 0 00-58-91c-29-22-47-17-71-33-65-40-35-118-91-183a212 212 0 00-248-48c-31 21-39 55-88 74s-41 0-66 14a175 175 0 00-76 160c0 53 22 63 9 100s-35 43-43 86a85 85 0 00 0 42c12 42 56 45 64 76 0 13 0 36-35 71" fill="none" stroke-width="15"/><path d="M1810 400a62 62 0 00-45-19 43 43 0 00-20 6M1900 373a100 100 0 01 36-55A115 115 0 01 2000 300m-49 71a84 84 0 00-20 58 55 55 0 00 18 43 50 50 0 00 52 0" fill="none" stroke-width="10"/><path d="M1938 460a190 190 0 00 52-18 180 180 0 00 81-100M1840 474a79 79 0 01-53 25 76 76 0 01-69-61" fill="none" stroke-width="10"/><path d="M1800 466a35 35 0 01 20 24 30 30 0 01 0 26" fill="none" stroke-width="10"/><path d="M1861 1177a206 206 0 00-91 23 231 231 0 00-66 52m342 363a207 207 0 00 0-80 220 220 0 00-16-51" fill="none" stroke-width="15"/><path d="m1971 1492 40-7a462 462 0 00 223-128" fill="none" stroke-width="17"/></g></svg>
