<svg xmlns="http://www.w3.org/2000/svg" width="240" height="240" shape-rendering="geometricPrecision" image-rendering="optimizeQuality" fill-rule="evenodd" fill="#373435" xmlns:v="https://vecta.io/nano"><path d="M133.07 167.16h-2.57v15.5h-2.57v5.14h-2.58v15.49h2.58v5.14h2.57v5.21h2.57v2.57h2.57v2.57h38.7v-10.35h-2.58V187.8h-2.57v-10.29h-2.57v-2.63h-2.57v-2.57h-2.57v-2.57h-2.64v-2.58h-2.57v-2.57h-7.71v-2.57h-15.49zM106.61 50.23l-.01 12.95-.01 2.55h2.58v2.57h2.57v5.15l5.21-.01h10.29v-2.57h5.21V68.3h5.14v-2.58h-5.14v-2.57h-2.64v-2.57h-2.57v-5.2h2.57v2.57h5.21v2.63h5.14v-5.2h-2.57v-7.72h-2.57v2.57h-5.21v-5.14h-2.57v-5.2h-2.57v-2.58h-2.57v-2.57h-2.57v-2.57h-2.57V29.6h-5.21v2.57h-2.57v10.35h-2.57zm-21.65 59.3v2.58h5.15v2.63h2.57v2.56h2.59v-2.56h7.77l-.01 2.56h7.72v-5.2h-2.57V96.67h-5.14v-2.64h-5.21v-2.57h-2.57v5.21h2.57v2.57h2.63v2.57h5.15v2.57h-5.15v2.57h-5.2v2.58zm22.37 34.59v-2.57h-2.57v-2.57h-2.57v-2.63h-2.64v-2.57h-2.57v-2.58h-2.57v-2.57h-5.14v2.57h2.57v2.58h2.57v2.57h2.57v5.2h2.57v5.15h5.21v-2.58zM80.73 84.3h2.57v2.57h2.58l.02-2.54h2.54V71.38h-2.57-2.57v5.14h-2.57zm27.53 85.1v-2.57h-2.63v-5.2h-2.57l.01-2.57h-2.58v-2.57h.07-2.65l.02-2.58h-2.58v5.14h2.57v5.14h2.57v2.64h2.58v2.57zm15.22-65.35h2.57v-7.72h2.57V85.99h2.57v-2.58h-5.14v5.15h-2.57zm-18.81 79.81h10.28v-2.57h-2.56l-.01-2.63h-5.15l.01-2.58h-5.2v5.21h2.63zm4.31 6.33l-.02 2.57h2.64-.07v2.58h2.58l-.01 2.57h2.58v-5.15h-2.58v-2.57h-2.57l.01-2.55h-2.55z"/><path d="M120.27 205.09h7.76l.01-2.57h-7.77zm-1.02 0v-2.57h-2.57v2.57zM79.32 42.05c.16 1.28.02 3.64.02 5.04l-.05 5.17h3.4l.01-3.39h3.48l-.01-3.39h6.71l.01-3.41-3.43.02.03-3.41-3.4.02.02-3.42-3.49.02.02-3.49-3.35.02.03 10.22z"/></svg>