<svg xmlns="http://www.w3.org/2000/svg" viewBox="0 0 400 400" xmlns:v="https://vecta.io/nano"><path d="M0 0h400v400H0z" fill="#d0edfc"/><path d="M10.6 10.6h378.7v378.7H10.6z" fill="#60abde"/><path d="M322.5 230.4c21.1-10.6 14.8-22.6 5.9-25.2-2.5-7.6-15-21.3-24.7-26 1.6-3.8 4.7-7.1-.3-11.6 3.5-6.7 7.8-14.6 6.2-22.1 12.4-1.5 8.6-14.1-1.8-17.1-2.3-4.9-5.1-8.9-8.6-11.2 1.4-10.9-9.3-18.2-20.5-19.4-20.9-15.8-61.4-20-74.7 1.9-49.6-32.7-94.9 24.6-88.3 74.6-71.9 43.4-33.7 109.4-3.2 124.9 4.6 9.8-3.7 12.2-12.8 13.7L74.1 319c-42.5 11.2-50.1 29.7-49.6 70.3h3.3c0-15.3-.9-47.1 20.8-55.2-14 5.2-18.9 35.1-16.8 55.2h18.7c-3-21.3-5.6-62.2 25.6-42 12.3 9.4 12.7 25.9 12.4 42h269.8c-3.6-25.5-15.4-46.6-36-67 17.9 7.5 37.1 29.5 49.4 67h6.6c-28.5-70.9-60.6-77.5-88.1-80.1 15.3-7.2 31.4-31.1 32.1-37.9 17.8-10 12.5-30.4.2-40.9zm-202.7-53.2c-2.3-26.3 3.4-56.7 27.4-71.5-17.9 19.6-25.4 45.5-22.3 71.6-70.8 48.3-30.5 103.8-4.1 125.2-43.1-22.9-67.6-89.5-1-125.3zm209.3 30.6c9.4 1.9 6.6 12.8-3.9 18.1s-69.1 26-143.9 22.6c-15.8-.7-25.9-5.3-27.8 1.1-4 14 35.9 27.4 70.7 28.4 51.2 1.5 127.2-17.6 82.2-42.5 21.5-11.6 31.8 19.1 15.3 29.9-28.1 18.4-158.5 43.2-179.6-19.9-2.1-6.1 7.7-12.8 18-10.4 24.9 5.6 111.4 6.9 169-27.3zm-113.2 54c25.9-.7 57.8-6 78.8-22.1 21.7 35.3-52.6 39.8-78.8 22.1zm49.9-72.1c14.2-2.1 26.3-9.5 36.3-19.7 8.1 6.2-20.7 26.8-32.9 23-1-1.1-2.1-1.9-3.4-3.3zm-23-9.7c0-2.7 0-4.4-1.8-7.1 1.7-2 5.1-13.9 1-24.3 1.5-.6 4.8-1.4 5.5-7.8 2.6-1.7 5.3-2.2 5.1-1.8-4 8.2-10.3 28.9 10.8 37.3 18.2 6.5 43.1-20.1 16.6-41.9 14.3 1.8 18 2.6 25.9 7.9 6.9 25-23.8 45.6-44.3 44.5-8.8-6.1-13.2-7.2-18.8-6.8zm-79.2-3.8c.4 1.9-5.5.5-7 .8-6.6-4.9 20.3-18.5 24.5-23.5-11.2 55 66.7 37 35.1-10.9 36.8 1.3 25.2 42.3.3 51.5-18.6 8.4-40.4-3-50.4-19.3-1.1-3-4.5-1-2.5 1.4zm34.2-23.5c6.6 0 6.4 11.8-.4 11.5-6.6-.2-5.9-11.6.4-11.5zm41.5 23.8c5.4 22.9-50.8 41.7-58.3 16.9 25.5 14.4 46.3 3.6 58.3-16.9zm-46.5-32.7c-6.2 1.6-27.6 18.4-17.8 2.7-13.2-32 40.6-35.6 54.3-14.3-4.2 0-8.4-2.8-11.8-.2 6.9 3.8 16.7 1.9 22.8 8.3 12.6 16-27.4-10-47.5 3.5zm69.9 3.3c6.9 0 6.1 10-.3 10-6.7.2-6.4-10.3.3-10zm42.3-20.4c1.2 2.2-4.4-1.8-9.2-1.3-1 .1-2.9.9 0 1.3 12 1.6 25.1 10.3 16.2 15.9-4.8-.4-2.5-9.6-25.9-11.3-16.7-4.6-37.2 9-29-3.6-18.4-5.8-6.9-15.9 9.9-16.9 15-.9 34.5 6.5 38 15.9zm-7.7-11c-16.4-10.1-45.3-9.8-56.2 1.7-24.6-13.6 58.2-30.9 56.2-1.7zm-22.4-18.5c-12-.2-24.1 4.2-35.8 5.7-46.5-17 11.1-24.7 35.8-5.7zm-50.8 26.4c-7.2-5.1-15.2-8-24.1-8-14.6-1.6-25.1 10.5-35.8 15.6-8.2-13 17.3-22.7 27.5-24.7 8.2-3.9 49.2 10.6 32.4 17.1zm-20.5-19.8c-12.8-1.5-25.8 2.2-35.9 10.2-40.6-5.9 14.4-32.2 35.9-10.2zm-86.8 116.6c7.4-15.4 29.9-23.5 45.4-14.1 28.3 17.1 58.7 6.6 64.5-5 11.6-5.3 16.2-15.3 16.1-18.7 10.6-4.5 31.1 16.4 34.8 26.8 2.6 1.7 3-.6-.7-6.6 20.5-7.1 21.1-16.2 24.9-21.2 13 4 21.8 16.9 24.1 23.9-7.5 5.1-15.9 9.4-25.4 12.4-40.7 12.7-79.3 17.6-122 14.6-22.7-5.7-35.5-2-40.4 5.8-4.2 6.6-2.1 15.4-.5 18.3 33.7 62.7 145.9 38 178.6 24-18 27.8-55.3 42.4-87 45.9-40.8 4.5-82.2-10.1-105.3-45.2-15.3-22.5-16.3-41.8-7.1-60.9z" fill="#3c1c5b"/></svg>