<svg xmlns="http://www.w3.org/2000/svg" width="425" height="425" viewBox="0 0 500 500" style="width:100%;height:100%"><defs><linearGradient id="a" x1="0%" y1="0%" x2="100%" y2="0%"><stop offset="0%" style="stop-color:#b8860b;stop-opacity:1"/><stop offset="50%" style="stop-color:#daa520;stop-opacity:1"/><stop offset="100%" style="stop-color:gold;stop-opacity:1"/></linearGradient><linearGradient id="b" x1="0%" y1="0%" x2="100%" y2="0%"><stop offset="0%" style="stop-color:gold;stop-opacity:1"/><stop offset="50%" style="stop-color:#daa520;stop-opacity:1"/><stop offset="100%" style="stop-color:#b8860b;stop-opacity:1"/></linearGradient></defs><animate attributeName="fill" values="#b8860b; #daa520; #ffd700; #daa520; #b8860b" dur="5s" repeatCount="indefinite"/><path d="M0 0h500v500H0z" fill="url(#a)"/><rect x="141.11" y="120.28" width="232.75" height="232.75" rx="41.89" fill="url(#a)"/><path d="M396.74 500.21h-82.73V374.99c0-13.09 10.61-23.7 23.7-23.7h35.34c13.09 0 23.7 10.61 23.7 23.7v125.22z" fill="url(#b)"/><g fill="url(#a)"><path d="M373.87 500H128.78V385.46c0-18.99 15.39-34.38 34.38-34.38h176.33c18.99 0 34.38 15.39 34.38 34.38z"/><rect x="175.53" y="98.32" width="91.02" height="101.89" rx="17.33"/><rect x="264.42" y="98.09" width="92.38" height="101.89" rx="17.46"/></g><g fill="url(#b)"><rect x="296.43" y="133.75" width="81.21" height="98.38" rx="16.09"/><rect x="209.39" y="133.75" width="81.21" height="98.38" rx="16.09"/><path d="M188.69 500h-67.92V372.55a21.47 21.47 0 0 1 21.47-21.47h24.98a21.47 21.47 0 0 1 21.47 21.47z"/></g><rect x="188.69" y="245.29" width="204.68" height="60.68" rx="20.06" fill="url(#a)"/><rect x="225.45" y="267.45" width="166.44" height="13.36" rx="4.2"/><g fill="url(#b)"><rect x="306.85" y="150.11" width="67.02" height="65.67" rx="11.94"/><rect x="219.81" y="150.11" width="67.02" height="65.67" rx="11.94"/></g><rect x="223.81" y="153.8" width="58.25" height="58.25" rx="10.48"/><rect x="311.23" y="153.8" width="58.25" height="58.25" rx="10.48"/><animate attributeName="fill" values="#ffd700; #daa520; #b8860b; #daa520; #ffd700" dur="5s" repeatCount="indefinite"/><path d="M396.74 500h-82.73V375.18c0-13.07 10.6-23.66 23.66-23.66h35.4c13.07 0 23.66 10.6 23.66 23.66V500z" fill="url(#a)"/><path d="M339.49 351.08H167.22a21.47 21.47 0 0 1 21.47 21.47V500h185.18V385.46c0-18.99-15.39-34.38-34.38-34.38" fill="url(#b)"/><path d="M188.69 500h-67.92V372.55a21.47 21.47 0 0 1 21.47-21.47h24.98a21.47 21.47 0 0 1 21.47 21.47zM379 98.49c0-15.26-12.37-27.62-27.62-27.62H182.17c-22.67 0-41.06 18.38-41.06 41.06v150.25l7.36-5.88a89.68 89.68 0 0 0 33.7-70.07v-33.24c0-22.67 18.38-41.06 41.06-41.06h142.34A13.43 13.43 0 0 0 379 98.5z" fill="url(#b)"/></svg>