<svg xmlns="http://www.w3.org/2000/svg" width="16" height="16"><path fill="#5d412b" d="M0 0h16v16H0z"/><path fill="#fff" d="M12.022 6.913a1.72 1.72 0 1 0 .002-3.439 1.72 1.72 0 0 0-.002 3.439Z"/><path fill="#222326" d="M11.574 5.98a.923.923 0 1 0 .923-1.598.923.923 0 0 0-.923 1.597Z"/><path fill="#fff" d="M3.978 6.926a1.72 1.72 0 1 0 .001-3.439 1.72 1.72 0 0 0-.001 3.439Z"/><path fill="#222326" d="M3.529 5.992a.923.923 0 1 0 .923-1.598.923.923 0 0 0-.923 1.598Z"/><path fill="#382418" d="M12.072 10.985a4.072 4.072 0 1 0-8.144 0 4.072 4.072 0 0 0 8.144 0Z"/><g stroke="#222326"><path fill="none" stroke-linecap="square" stroke-width=".181" d="M8 9.944v2.814"/><path fill="#222326" stroke-width=".1" d="M5.347 11.679a.037.037 0 0 0-.053.053l.027.027c1.403 1.403 3.919 1.402 5.358 0l.027-.026a.037.037 0 1 0-.053-.054l-.027.026c-1.41 1.373-3.878 1.374-5.252 0l-.027-.026z"/></g><path fill="#222326" d="M6.6 8.597a1.4 1.4 0 1 0 2.8 0H6.6Z"/></svg>