<svg xmlns="http://www.w3.org/2000/svg" width="400" height="560"><style>.AC{stroke-miterlimit:10}.AD{font-family:Impact}.AE{fill:none}.AF{stroke:#fff}.AG{stroke:#000}.AH{font-size:15.46px}.AI{stroke-width:3.937}.AJ{stroke-width:.665}.AK{stroke-width:2.652}</style><path d="M0 0h400v560H0z"/><path d="M182 331h2v2h-2z"/><path d="M182 331h2v2h-2z"/><path fill="#e600ff" d="M18 386h309v49H18z"/><g fill="#fff700"><path d="M385 545H15V429h370z"/><path d="m327 386-20 79h78v-79z"/></g><g fill="#0059ff"><path d="m129 545 12-17h119l20 17zM15 17h370v46H15z"/><path d="m305 95-28-46h108v46z"/></g><path stroke="#0059ff" stroke-width="6" d="M15 15h370v530H15z" class="AC AE"/><circle cx="339" cy="53" r="33" stroke="#7125db" stroke-width="3"/><path fill="#483221" d="m329 74 3-3 4-4 4-5 3-3h3l-4 5-3 5-3 4-3 3zm16-22 3 1V40l1-3 3-3-1-2-3 3-2 2-1-3-3-4-2 2 2 3 3 5 1 4v4z"/><path fill="#12a443" d="m334 36 2 3 1 1h5l-1-2-2-2z"/><path fill="#0ba83e" d="m343 65 2 2 1 2h6l-2-3-1-1-2-1z"/><path fill="#625e5e" d="M350 44v4l11-3-6-1z"/><path fill="#615e5e" d="m337 48 3-2 4-1v4l-4 1z"/><path fill="#635e5e" d="m336 54 5 3 5 1 7 1 8-1-21-6-3-2-2-2-4-1 2 3 1 1-1 2-2 2v1z"/><circle cx="336" cy="51" r="1"/><path fill="#ea6619" d="M331 54v1l-5 1v1l-1 1-7 2h-1v-3l7-2 1-1 1 1z"/><path fill="#eb6617" d="M331 46h-1l-5-1h-2l-6-3v-2l1-1h1l6 3h1l1 1z"/><linearGradient id="A" x1="190" x2="190" y1="78" y2="103" gradientUnits="userSpaceOnUse"><stop offset="0" stop-color="#e600ff"/><stop offset="1" stop-color="#9c25db"/></linearGradient><path fill="url(#A)" d="M125 96c8-6 29-14 40-16a152 152 0 0 1 89 12c3 2 10 8 8 11-9 12-52 3-69 2-19-2-66 11-76-1-1-2 5-7 8-8"/><linearGradient id="B" x1="191" x2="190" y1="243" y2="218" gradientUnits="userSpaceOnUse"><stop offset="0" stop-color="#00d4ff"/><stop offset="1" stop-color="#2556db"/></linearGradient><path fill="url(#B)" d="M256 223c-9 6-29 15-39 17a154 154 0 0 1-89-8c-4-2-12-8-10-11 8-12 52-5 69-4 19 1 65-14 75-2 2 2-4 6-6 8"/><linearGradient id="C" x1="193" x2="193" y1="113" y2="137" gradientUnits="userSpaceOnUse"><stop offset="0" stop-color="#c0f"/><stop offset="1" stop-color="#7125db"/></linearGradient><path fill="url(#C)" d="M106 115c11-3 37 1 49 2h59l64-4c5-1 16 18 12 23-4 6-27 7-34 6h-80c-17 0-53 4-68-2-5-2-13-10-12-14 0-4 6-9 10-11"/><linearGradient id="D" x1="194" x2="194" y1="148" y2="173" gradientUnits="userSpaceOnUse"><stop offset="0" stop-color="#8c00ff"/><stop offset="1" stop-color="#4425db"/></linearGradient><path fill="url(#D)" d="M93 160c1-5 13-10 18-11 13-2 40 1 53 1h49l40 1c9 0 30-6 37-2 6 4 9 21 3 25-9 7-38 2-50 1-23-1-67 2-90 2-12 0-39 4-50 0-6-3-12-13-10-17"/><linearGradient id="E" x1="189" x2="189" y1="179" y2="204" gradientUnits="userSpaceOnUse"><stop offset="0" stop-color="#40f"/><stop offset="1" stop-color="#256edb"/></linearGradient><path fill="url(#E)" d="M108 182h49l52-3 41 4c13-1 32-7 40 1 3 3 2 12-1 15-6 5-24 7-32 7l-55-3-54 1c-15 1-48 11-59 3-4-3-5-14-1-17z"/><g fill="#fff"><path d="m266 374-12-7-16-6c-4-1-14 0-17-2-3-4-4-16-4-16h-50s6 11 3 14c-3 2-11 1-14 2-5 1-13 5-16 7q-7 4-12 10c-2 2-3 10-3 10h147zm-75-104c27 0 64-58 38-84-24-24-55-25-78 0-27 28 13 84 40 84"/><path d="m171 346-19-7-12-14-7-13-3-18c0-5-1-16 1-21 2-6 9-18 15-21 4-1 13 0 17 2l3 3 1 12 2 5-1 3 2 5v5l3 5 7 6 6 3 3 1 5-3 4-4 6-4 4-5 1-5v-3l2-3v-5l1-3 1-8 3-5q6-3 14 0c4 2 6 12 8 16l7 19c1 7 2 21-1 27-1 5-8 16-12 20-3 3-9 10-13 12l-19 4z"/></g><path d="M167 260s6-5 23-5c14 0 23 5 23 5l-21 20z"/><path fill="#fff" d="M171 273v-2h1l10 2 15 1-12 1zm18 6 11-2 5-2h1v2l-5 2-12 2-18-2v-1l1-1zm1 6 10-3 6-2h1v2l-5 2-12 3-17-1-1-2h1l7 1zm0 6 7-1 7-3h1v2l-5 2-10 2-9-1-3-1h-2l-2-2 5 1 4 1zm-17-28-1-2 6-1 6 1q1 0 0 0h-6z"/><path d="m193 270 14-62q2 1 2 4c-6 19-13 58-13 58zm22-83c5 2 13 11 15 15h-4c-2-5-9-11-9-11zm-59 46c-5-3-10-17-8-23l3 2q-1 6 1 9zm27 35-4-62-3 3c3 19 5 59 5 59z"/><g stroke-dasharray="0,0,0,0,0,0" stroke-width="0" class="AC AF"><path fill="#e03d9a" d="m171 204 8-17 5 9-3 5z"/><path fill="#c975a5" d="m171 204 8-17-11 3-2 6z"/></g><path fill="#e03d9a" d="m183 192 1-1h1v1zm4-2-1 2-1-1zm-2 3h1v2l-2-1zm2 0 2 1v1z"/><path fill="#c975a5" d="m161 198 2 1-1 1zm3-1h1v1zm-1 3-1 1zm2 0v-1h2l-1 1z"/><path d="m197 187-1-3h-1zm-3-5v-1l-1-1v-1l-2-2 2 2 1-3v4l1 2z"/><path fill="#5186db" d="M182 177q0 4 4 7l3-1-1 3q1 4 4 4l4-2v-3l2 2 3 1q3-3 2-6l-3-2 3-1c1-1 0-7-2-7q-2 0-5 4l-1 5q-3 0-5-3-5-2-8-1"/><g class="AC AE"><path stroke-width="2" d="m168 211 13 6h3l2 1 5-5 1-2-1-2h-3l-2 1v5l3 2 2 1 2 1h6l2-3v-2l-1-1-2-1-1 2 1 2 1 2 2 1 4 1" class="AG"/><g class="AF"><path stroke-width="3" d="M245 151c-5 4-10 16-15 20m-99 25c-6-3-20-4-26-6m20-35c3 5 15 12 19 16m38-34c2 6 3 18 3 24m88 26c-6 3-20 6-26 7"/><g class="AI"><use href="#G"/><use href="#G"/><path d="m82 250 5-1q6-1 8 3l5 16q1 5-4 7l-5 2q-5 0-7-4l-6-16q-1-5 4-7zm13 20 13 15m-32-72h5q6 2 5 6l-1 17q-2 5-7 5l-5-1q-5-1-6-6l2-16q0-5 7-5zm3 23 6 18"/></g></g></g><path d="m62 207 34 3-9 23v-7l-1 5-1-4-1 3-2-7-10-1-2 3v-4l-1 2-1-4v5l-2-3z"/><g class="AC AE AF"><path d="m65 218 1 2m3-7v3m3 6 2-1m-3-2 2-3m10 8v1m3-1 2-2" class="AJ"/><g class="AI"><use href="#H"/><use href="#H"/><path d="m289 250-6-1q-5-1-7 4l-3 16q-1 5 4 7l5 1q6 0 7-4l4-17q1-5-4-6zm-11 21-12 15m26-74-5 1q-5 1-5 6l3 17q2 5 7 4l5-1q6-1 5-6l-3-17q-2-5-7-4zm-1 23-5 19"/></g></g><path d="m305 206-33 4 10 23v-7l1 5 1-4 1 3 1-7 10-2 3 3-1-4 2 1v-3l1 4 1-3z"/><path d="m303 216-1 3m-3-7v3m-3 6-1-1m2-3-2-2m-9 9v1m-3-1-2-2" class="AC AE AF AJ"/><path fill="#ffe89c" d="m192 205 11-3q3-2 1-4l-6-5h-3l-6 9q-1 4 3 3"/><path fill="#d48722" d="M194 192v-2l7 2 5 4 1 3v4h-3l-1-5q-1-3-6-4z"/><path fill="#ffe89c" d="m192 207 1-3h1l-1 3zm9-2v-4h1v4zm-4 2v-4h2l-1 4z"/><g fill="#c73e55"><circle cx="199" cy="200" r="1" transform="rotate(-88 199 200)"/><circle cx="197" cy="196" r="1" transform="rotate(-88 197 196)"/><circle cx="194" cy="203" r="1" transform="rotate(-88 194 203)"/></g><path stroke="#2c7d30" stroke-width="0" d="m195 198 1 1-1 2m7-2-2-1-1-1m-9 7v-1h1m2-2h-1l-1-1m11 0v1" class="AC AE"/><path d="M163 265h-7l-2 1h-2l-2 1-1 1-3 3 3-3h1l2-1h2l2-1h4zh1zm0 8-2 1h-3l-1 1h-2l-2 3 2-3h5l1-1zl4-1zm-16 40 3 1 1 1 2 1 1 1 2 1h4l-4-1-1-1-3-1v-1l-2-1h-2l-4-3zm13-33-1 1q-1 0 0 0zl2-2zm30 35-2-1h-4 1l2 1zh6q-2-2-6 0m24-32-3-2zl2 2h1zm0 78 4 4zl-3-5-1-1zm7-84h-1l-2-1-2-2-3-2 3 3 2 1 1 1zq1 1 0 0m-37 43 2-1 3 1 5-1q2 2 5 1c-2 1-4-2-6-1h-10zm39-2 2-1 2-3 5-3 6-6-7 8-4 3-2 2q-1-1-3 1zm1-50-2-1-1-2-3-2h-1l-2-2 2 2v1l2 1 3 2zl4 3zm-44 89-1-2v-2q-1 2 1 4v2l-1 5v1-1l1-3zm47-71h-2l-2-1q1 3 4 1l2 1 4 2 2 1-1-1-3-2zm-85 1-1 2-2 1q2 0 3-2l2-1 3-1h1-4zm55 79v-4l-1-2-1-1v-4l-1 3 1 2 1 1z"/><path stroke-width="2" d="m151 327 20 10 19 7 8 4h6l4 1 2-3 3-3 3-6 2-5 3-5-7 6-7 2-10 2-8 1h-6c-9-1-32-11-32-11z" class="AC AG"/><path fill="#3c7dc7" d="m205 344 3 1 3 2-3 4c-2 8 3 16 3 20 0 2 2 11-4 13-2 0-5-7-5-9 1-8 4-10 1-23l-4-3q1-3 3-3z"/><ellipse cx="159" cy="300" rx="7" ry="11" transform="rotate(-1 159 300)"/><ellipse cx="218" cy="302" rx="11" ry="7" transform="rotate(-89 218 302)"/><g fill="#fff"><ellipse cx="159" cy="300" rx="4" ry="5" transform="rotate(-17 159 300)"/><ellipse cx="218" cy="301" rx="2" ry="6" transform="rotate(-11 218 301)"/></g><g class="AE AF"><ellipse cx="160" cy="301" rx="6" ry="9" transform="rotate(-1 160 302)"/><ellipse cx="218" cy="302" rx="5" ry="9" transform="rotate(-12 218 302)"/></g><text class="AC AD AF" font-size="37" transform="translate(29 53)">WITNESS WOJAK</text><text class="AD" font-size="17" transform="translate(145 545)">INSCRIPTOOORS</text><g fill="#fff"><ellipse cx="352" cy="411" rx="19" ry="18"/><circle cx="352" cy="411" r="16" class="AG AK"/></g><g class="AE"><path stroke="#ed130c" stroke-width="5" d="m343 423 19-25" class="AC"/><circle cx="352" cy="411" r="16" class="AG AK"/></g><use fill="#f10" href="#I"/><text class="AD" font-size="23" transform="matrix(.8278 0 0 1 49 418)">ATK</text><text class="AD" font-size="16" transform="matrix(.8278 0 0 1 96 415)">DISCOUNT</text><text class="AD" font-size="16" transform="matrix(.8278 0 0 1 214 415)">INFLUENCOOORS</text><use x="121" fill="#0ba83e" href="#I"/><text class="AD" font-size="23" transform="matrix(.8278 0 0 1 170 418)">DEF</text><text><tspan x="49" y="457" class="AD AH">“Fugayzi, fugazi. It’s a whazy. It’s a woozie. It’s fairy</tspan><tspan x="53" y="475" class="AD AH">dust. The Sat doesn’t exist. It’s never landed. It is</tspan><tspan x="64" y="494" class="AD AH">no matter. It’s not on the elemental chart. It’s</tspan><tspan x="150" y="513" class="AD AH">not fucking real.”</tspan></text><g class="AC AE AG"><path stroke-width="2" d="M145 305c-2-5-5-16 3-16 6 0 18-1 21 8q5 8-1 14c-6 4-19 0-23-6zm78-16c6 1 16 6 11 12-4 5-9 15-19 12-5-2-11-4-10-9 0-7 11-15 18-15z"/><path d="m179 308-7 7-5 1q-1 3 1 5 5 5 9 6l4-2c2 0 3 4 4 4 4 2 12 3 15 0 1 0 1-4 3-4l3 2c2 0 6-6 6-8l-3-5-8-1-4-8"/></g><path d="m177 326 4-2 5 5-5-1zm23 3 3-4 3 2-3 2zm41 52v1l1 1 1 1h1v1h1v-1h-1l-1-1-1-1v-2h-2m-87 0-1 1-1 2v1h1v-1l1-2 1-1z"/><defs><path id="G" d="m100 287 3-4q3-4 8-3l16 8q4 3 2 8l-3 4q-2 5-8 2l-15-7q-4-3-3-8"/><path id="H" d="m274 288-3-4q-3-5-8-2l-15 9q-5 3-2 8l3 4q4 4 8 2l15-9q5-3 2-8"/><path id="I" d="M42 419v-21l2-2h38l2 2v21l-2 2H44z"/></defs></svg>