<svg width="24" height="24" viewBox="0 0 24 24" fill="none" xmlns="http://www.w3.org/2000/svg">
    <g clip-path="url(#clip0_1_2)">
        <g clip-path="url(#clip1_1_2)">
            <path d="M1 1H5V3H7V1H11V3H13V1H17V3H19V1H23V5H21V7H23V11H21V13H23V17H21V19H23V23H19V21H17V23H13V21H11V23H7V21H5V23H1V19H3V17H1V13H3V11H1V7H3V5H1V1Z" stroke="#789B00"/>
            <rect x="9.5" y="7" width="1" height="9" fill="#789B00"/>
            <rect x="14.5" y="12" width="1" height="3" fill="#789B00"/>
            <rect x="14.5" y="8" width="1" height="3" fill="#789B00"/>
            <rect x="10.5" y="6" width="1" height="1" fill="#789B00"/>
            <rect x="12.5" y="6" width="1" height="1" fill="#789B00"/>
            <rect x="10.5" y="7" width="4" height="1" fill="#789B00"/>
            <rect x="10.5" y="15" width="4" height="1" fill="#789B00"/>
            <rect x="10.5" y="11" width="4" height="1" fill="#789B00"/>
        </g>
        <rect x="10" y="16" width="1" height="1" fill="#789B00"/>
        <rect x="12" y="16" width="1" height="1" fill="#789B00"/>
    </g>
    <defs>
        <clipPath id="clip0_1_2">
            <rect width="24" height="24" fill="white"/>
        </clipPath>
        <clipPath id="clip1_1_2">
            <rect width="24" height="24" fill="white"/>
        </clipPath>
    </defs>
</svg>

