<svg xmlns="http://www.w3.org/2000/svg" width="690" height="690" fill-rule="evenodd" image-rendering="optimizeQuality" shape-rendering="geometricPrecision">
	<path fill="#98ff98" d="m301 378 31 16 63 32 16 8c5 3 13 6 16 9q-3 3-9 4s-18 0-12 11c2 4 4 3 5 8 0 8-9 6-13 13-6 7 0 14 7 15 8 1 13-4 22-3 12 1 5 9 6 18 15 11 7-10 21-8 11 2 16 19 25 20q11-1 11-11c-2-7-23-19-14-28 2-2 13-1 11-11-1-5-9-5-12-11h91l28 49 29 50H442c-9 0-8-1-14 2-17 10-32 9-56 9h-66c-20 0-45 2-65 0-10 0-17-8-12-18 5-9 15-7 27-7h33c9 0 27 3 21-10-3-3-42-2-48-2h-51c-18 0-17-24-1-25 14-1 95 2 99-1 1-1 8-11-8-11-14 0-96 1-101-1-9-3-16-24 11-24h75c6 0 20 1 24-1 2-1 8-11-8-11h-76q-14 2-18-9-2-12 8-16c6-2 114 0 126 0l-35-21c-10-6-17-12-12-26q2-6 6-9m124-8c0-8 4-20 7-26l11-23 14 25c3 7 9 19 6 29-5 24-38 19-38-5m19-67-61 23-121 44c-10 4-21 10-33 7-24-4-32-35-16-51q11-9 28-14l61-22 121-45 3 7c4 11 17 45 18 51m213 287c0-12-10-27-16-37l-19-33-114-197-76-132-57-98c-6-11-13-22-30-22q-21 2-28 18L126 420 57 540l-18 30q-12 17-2 35c8 12 16 14 33 14h522c12 0 37 2 46-1 9-4 19-15 19-28"/>
	<path d="M405 494c-7-1-13-8-7-15 4-7 13-5 13-13-1-5-3-4-5-8-6-11 12-11 12-11q6-1 9-4c-3-3-11-6-16-9l-16-8-63-32-31-16q-4 3-6 9c-5 14 2 20 12 26l35 21c-12 0-120-2-126 0q-10 4-8 16 5 10 18 9h76c16 0 10 10 8 11-4 2-18 1-24 1h-75c-27 0-20 21-11 24 5 2 87 1 101 1 16 0 9 10 8 11-4 3-85 0-99 1-16 1-17 25 1 25h51c6 0 45-1 48 2 6 13-12 10-21 10h-33c-12 0-22-2-27 7-5 10 2 18 12 18 20 2 45 0 65 0h66c24 0 39 1 56-9 6-3 5-2 14-2h181l-29-50-28-49h-91c3 6 11 6 12 11 2 10-9 9-11 11-9 9 12 21 14 28 1 6-5 11-10 11-9-1-15-18-26-20-14-2-6 19-21 8-1-9 6-17-6-18-9-1-14 4-22 3m252 96c0 13-10 24-19 28-9 3-34 1-46 1H70c-17 0-25-2-33-14q-10-18 2-35l18-30 69-120L317 89q7-16 28-18c17 0 24 11 30 22l57 98 76 132 114 197 19 33c6 10 16 25 16 37M344 51c-35 0-46 32-62 59L83 454l-22 38-44 77q-10 26 4 48c7 10 21 22 38 22h571c27 0 47-25 47-47 0-20-7-28-15-43l-20-34-120-207-20-35-99-172c-14-23-23-50-59-50m-32 246 105-39 8 20 7 19zm132 6c-1-6-14-40-18-51l-3-7c-36 12-85 31-121 45l-61 22q-17 5-28 14c-16 16-8 47 16 51 12 3 23-3 33-7l121-44z"/>
	<path fill="#98ff98" d="M312 297h120l-7-19-8-20z"/>
	<path d="M425 370c0 24 33 29 38 5 3-10-3-22-6-29l-14-25-11 23c-3 6-7 18-7 26"/>
</svg>