<svg xmlns="http://www.w3.org/2000/svg" fill="none" viewBox="0 0 288 288"><path d="M0 0h288v288H0z" fill="#F9F6EE"/><path d="m155 41 9-11 44 55c-14 14-41 44-42 48l-7 18h21v100l-7 4v-61c-36 28-59-17-58-20 1-2 8-5 11-5 19-6 23-18 18-30 20-6 22-32 21-44h-27l-11 3-1 18 1 12 1 3-2 8h-6v-17c2-10 5-29 9-31 5-3 12-2 35-2 0-10-8-13-12-13 1-12-5-20-14-22 6 0 15 6 19 9l-2-22zM86 238c-16 2-21 14-22 20l-6-5 18-35-9-97c4-15 12-49 18-64-1 9 1 16 2 19h-6v14c7-2 17-1 21 0l1 5H90l-12 11c1 9 6 28 19 34-6 12 6 26 12 31l-10 38c-4 2-13 11-13 29z" fill="#898585"/><path d="M17 288c-1-8 4-29 32-50s25-43 20-50c-7-21-16-66 0-84-2-23 3-33 13-45 6-16 14-31 42-40l-9 25c-7-2-22-2-30 17-5 19-5 27-5 29l2 4h20v-4c4 1 10 7 9 21-4-13-13-20-23-12 9-2 18-1 20 7l-4-3c0 1-1 4-5 4s-4-4-4-5c-2-1-5 0-7 3 6 5 6 5 17 3-4 3-8 4-9 4-3 0-9-2-11-9h-4c-2 19 4 59 36 71 5 0 30 2 43-28h60c-4 15-5 54 24 94 17 8 27 21 32 48h-58v-6c5-1 17-1 27 4a6 6 0 0 0 2-2c-5-3-17-9-29-6v-6h-5v6c-6 2-17 7-19 10h-46c18-15 66-44 98-36-18-8-42 0-51 4a16 16 0 0 0-1-2c7-4 26-11 42-9-9-3-42-8-92 43h-14v-1h-5v1h-5v-1h-4v1h-6l1-1h-4l-1 1h-5l1-2-4-1-1 3h-6l3-3-4-1-2 4h-6l4-5-3-1-4 6h-6l5-8-2-1-6 9h-6l7-11-3-1c-2 2-7 9-7 12h-6c1-3 4-11 8-14l-1-2c-3 3-10 10-10 16H17zm146-148c3-9 5-22 6-37 2-33-23-58-50-55l1-3c6-1 21 1 35 13a39 39 0 0 0-34-14l9-26c28-4 83 8 81 87 6 5 8 26 9 35h-57zm-46 43 3 21c-10 2-31 10-38 22v10h-8c-6 6-14 18-6 25 10 8 27 17 83 15 19-17 52-40 89-37-11-3-23-7-61 13v-62h-6v-8c-10 7-36 18-56 1zm79-9v-9l15-16v8l-15 17zm15 3v9c-6 7-16 28-13 52l-5 2c-2-13-2-42 18-63zm0 25v11c-3 4-4 16-3 21l-5 2c-2-15 5-29 8-34zm-25-85v8l20-22v-9l-20 23zm3-14h-3c0-65-32-71-51-75h-5c53-5 62 48 59 75z" fill="#000" fill-rule="evenodd" clip-rule="evenodd"/><path d="M36 76h4v154h-4zm217-44h4v195h-4zm-9 44h4v35h-4zm0 106h4v35h-4zM45 92l4-4 4 4-4 4zm0 86 4-4 4 4-4 4z" fill="#000"/><circle fill="#000" cx="247" cy="174" r="2"/><path d="M112 161c2-3-1-6-2-7 10 3 12 2 18 0-3 1-3 5-2 7-3-1-8-2-14 0zm-11-12 2-1 6 2 9 2h2c1-1 3-2 7-2l9-2a9 9 0 0 0 2 1c0-3-2-4-4-4 1 1 0 4-5 3-5-2-9 0-11 1-1-1-5-2-9-1-5 1-4-1-5-3-4-1-4 2-3 4z" fill="#000"/><path d="M118 147c-9-5-11-12-11-14 0 2 2 2 6 4 4-3 10-4 12-1 2 0 2-5 2-7 4 11 1 12-9 18zm2-25h6c-1-13 2-19 3-20 11-11 17-6 21-3-14-1-17 0-21 8a14 14 0 0 1 9-5c2 7 9 4 10 2l3 1c-4 6-9 5-17 4 9 8 19 0 22-5h15V90h-8v4h-34v-3c-10 0-10 20-9 31zm2 125c-15-8-8-22 0-14 8-8 17 6 0 14zM45 65c-24-11-13-33 0-20 12-13 25 9 0 20z" fill="#000"/><path d="M235 65c-24-11-13-33 0-20 12-13 25 9 0 20z" stroke="#000" stroke-width="4"/></svg>