<?xml version="1.0" encoding="UTF-8"?><svg enable-background="new 0 0 500 680" version="1.0" viewBox="0 0 500 680" xml:space="preserve" xmlns="http://www.w3.org/2000/svg"><!-- ✦A*R*T*C*O*P*S✦ [C] Santiago Itzcoatl --><rect width="500" height="680" fill="#F10"/><circle cx="250" cy="420" r="225" fill="#205"/><circle cx="250" cy="420" r="210" fill="#BD2"/><rect x="25" y="420" width="450" height="225" fill="#205"/><rect x="40" y="420" width="420" height="210" fill="#8B5"/><polygon points="40 420 460 420 295 460 205 460" fill="#794"/><polygon points="40 630 460 630 295 571 205 571" fill="#AE6"/><rect x="197" y="261" width="106" height="127" fill="#F10"/><rect x="205" y="269" width="90"  height="111" fill="#B23"/><rect x="205" y="460" width="90"  height="111" fill="#AA9"/><rect x="90"  y="350" width="36" height="136" fill="#006"/><rect x="374" y="350" width="36" height="136" fill="#006"/><polygon points="222.287 555 250 539 277.713 555 277.713 587 250 603 222.287 587" fill="#376"/><polygon points="236.144 547 250 555 263.856 547 263.856 563 277.713 571 263.856 579 263.856 595 250 587 236.144 595 236.144 579 222.287 571 236.144 563" fill="#653"/><polygon points="236.144 300.5 250 308.5 263.856 300.5 263.856 316.5 277.713 324.5 263.856 332.5 263.856 348.5 250 340.5 236.144 348.5 236.144 332.5 222.287 324.5 236.144 316.5" fill="#653"/></svg>
