<svg xmlns="http://www.w3.org/2000/svg" width="400" height="560" xmlns:v="https://vecta.io/nano"><style><![CDATA[.f{fill:#190c4c}.g{fill:#fee12f}.h{fill:#f9921f}.i{font-family:AreaNormal-ExtraBold}.j{stroke-miterlimit:10}.k{stroke:#000}.l{stroke-width:2}.m{fill:#f3f3cf}.n{font-size:21.162px}]]></style><path d="M0 0h400v560H0z" class="f"/><path d="M20 523.73V36.27A10.17 10.17 0 0 1 30.17 26.1h339.66A10.17 10.17 0 0 1 380 36.27v487.45a10.17 10.17 0 0 1-10.17 10.17H30.17A10.16 10.16 0 0 1 20 523.73z" class="g"/><path d="M42 71.11h315.78v270.61H42z" fill="#75cd28"/><path d="M50.78 242.78s-13.15 77.76 30.59 104.03c11.79 7.08 24.55-3 28.54-16.16 14.82-48.81-59.13-87.87-59.13-87.87zm13.56-73.46s99.1 65.34 96.66 99.62c-.66 9.24-12.17 37.82-23.75 33.93-42.96-14.42-72.91-133.55-72.91-133.55z" class="g"/><path d="M85.48 199.97s75.64 50.55 73.66 77.25c-.53 7.2-9.44 29.49-18.29 26.5-32.83-11.1-55.37-103.75-55.37-103.75z" class="h"/><path d="M75.75 84.73s17.96 147.29 75.59 156.64c15.53 2.52 71.96-1.5 75.92-17.35C241.95 165.19 75.75 84.73 75.75 84.73z" class="g"/><path d="M104.15 127s12.68 123.46 61.56 130.3c13.18 1.84 61.26-2.53 64.91-15.93C244.16 191.69 104.15 127 104.15 127zM60.97 265.97s-1.82 73.41 36.84 87.37c10.42 3.76 27.86-1.75 31.31-12.56 12.8-40.09-68.15-74.81-68.15-74.81z" class="h"/><g class="g"><path d="M350.18 225.03s-90.98 153.1-142.71 151.86c-13.94-.33-57.75-15.55-52.75-33.17 18.55-65.37 195.46-118.69 195.46-118.69z"/><path d="M352.14 293.52s-33.03 48.83-56.43 34.29c-14.26-8.86-15.53-31.51-9.73-41.84 21.52-38.33 66.16 7.55 66.16 7.55z"/></g><g class="h"><path d="M340.2 297.82s-25.01 34.44-45.47 22.34c-12.46-7.38-14.8-24.28-10.5-31.63 15.95-27.29 55.97 9.29 55.97 9.29z"/><path d="M329.37 242.56s-72.55 109.9-104.01 106.74c-8.48-.85-33.56-14.05-28.55-26.94 18.59-47.8 132.56-79.8 132.56-79.8z"/></g><path d="M335.96 102.98s-51.56 193.96-102.26 206c-13.66 3.24-60.04-2.33-59.43-23.23 2.25-77.56 161.69-182.77 161.69-182.77z" class="g"/><path d="M311.23 139.78s-43.75 159.81-86.55 169.79c-11.54 2.69-50.67-1.85-50.14-19.07 1.98-63.88 136.69-150.72 136.69-150.72z" class="h"/><path d="M42 347.35h316v172H42z" class="m"/><g class="g"><path d="M283.54 427.6s68.68 48.43 66.45 74.66c-.6 7.07-9.12 29.07-17.2 26.28-29.97-10.39-49.25-100.94-49.25-100.94z"/><path d="M345.53 430.24s21.41 53.48 8.44 77.64c-3.49 6.51-18.51 25.97-22.3 22.38-14.09-13.32 13.86-100.02 13.86-100.02z"/></g><g class="h"><path d="M298.23 452.56s54.26 37.57 52.32 54.3c-.52 4.51-7.42 17.94-13.82 15.4-23.74-9.45-38.5-69.7-38.5-69.7z"/><path d="M345.72 456.72s18.78 48.24 9.9 58.71c-2.39 2.82-13.05 8.97-16.13 4.55-11.39-16.4 6.23-63.26 6.23-63.26z"/></g><path d="M272.96 487.09s51.04 7.56 55.05 19.06c1.08 3.1.46 14-4.96 14.34-20.08 1.24-50.09-33.4-50.09-33.4z" class="g"/><path d="M288.7 497.86s37.97-5.23 44.7 3.64c1.81 2.39 5.13 11.8 1.49 13.33-13.49 5.64-46.19-16.97-46.19-16.97z" class="h"/><g class="g"><path d="M69.65 401.82s-45.96 92.06-34.17 108.12c3.18 4.33 19.25 12.11 25.73 3.27 24.04-32.81 8.44-111.39 8.44-111.39z"/><path d="M108.95 440.43s-61.01 54.06-56.88 70.18c1.11 4.34 27.83 14.24 35.23 9.74 27.45-16.68 21.65-79.92 21.65-79.92z"/></g><g class="h"><path d="M99.93 463.01s-47.79 41.38-44.87 53.36c.79 3.23 21.2 4.36 26.96.88 21.39-12.9 17.91-54.24 17.91-54.24z"/><path d="M66.67 433.35s-35.03 68.76-26.58 80.49c2.28 3.16 13.99 8.71 18.87 2.07 18.12-24.6 7.71-82.56 7.71-82.56z"/></g><g fill="none" stroke-width="5" class="j"><path d="M42 44.64h316v473.43H42z" class="k"/><path d="M39 42.35h322v478H39z" stroke="#b34322"/></g><path d="M87.43 358.24s-26.84-75.41 0-91.6c39.93-24.09 191.76-25.44 227.04 1.39 23.23 17.67-1.15 90.21-1.15 90.21H87.43z" class="f j k l"/><path d="M190.6 341.72l-35.98-79.76 92.65-2-38.81 81.45z" class="m"/><g class="j k"><path d="M199.09 353.1l33.49-104.22 32.79 25.39z" class="f l"/><path d="M208.71 296.12c-3.2-2.63-4.01-13.09-.76-15.72 3.72-3.01 18.8-7.44 22.12-4.12 2.91 2.9 1.6 19.96-1.31 22.91-3.32 3.36-16.39-.06-20.05-3.07z" fill="#b34423"/><path d="M194.29 355.53l-36.9-106.95-36.7 26.27z" class="f l"/><g fill="#b34423"><path d="M187.64 296.62c3.01-2.92 3.32-13.91 0-16.51-3.79-2.96-18.77-6.84-21.87-3.2-2.71 3.18-.63 20.98 2.36 23.92 3.42 3.37 16.07-.87 19.51-4.21z"/><path d="M188.89 296.62c-3.01-2.92-3.32-13.91 0-16.51 3.79-2.96 16.39-3.64 19.49 0 2.71 3.18 2.99 13.56 0 16.51-3.42 3.37-16.05 3.34-19.49 0z"/></g></g><path d="M25 354.52h0c0-13.25 10.75-24 24-24h302c13.25 0 24 10.75 24 24h0c0 13.25-10.75 24-24 24H49c-13.25 0-24-10.74-24-24z" class="f"/><path d="M31.18 355.52v-2a18.5 18.5 0 0 1 18.5-18.5h300.65a18.5 18.5 0 0 1 18.5 18.5v2a18.5 18.5 0 0 1-18.5 18.5H49.68a18.5 18.5 0 0 1-18.5-18.5z" fill="#b34322"/><path d="M35.81 354.52h0a16 16 0 0 1 16-16h296.38a16 16 0 0 1 16 16h0a16 16 0 0 1-16 16H51.81a16 16 0 0 1-16-16z" fill="#eae3d1"/><path d="M25 57.71h0c0-13.25 10.75-24 24-24h302c13.25 0 24 10.75 24 24h0c0 13.25-10.75 24-24 24H49c-13.25 0-24-10.75-24-24z" class="f"/><path d="M31.18 58.71v-2a18.5 18.5 0 0 1 18.5-18.5h300.65a18.5 18.5 0 0 1 18.5 18.5v2a18.5 18.5 0 0 1-18.5 18.5H49.68c-10.22 0-18.5-8.29-18.5-18.5z" fill="#b34322"/><path d="M35.81 57.71h0a16 16 0 0 1 16-16h296.38a16 16 0 0 1 16 16h0a16 16 0 0 1-16 16H51.81c-8.84 0-16-7.17-16-16z" fill="#eae3d1"/><text transform="matrix(1.0294 0 0 1 101.8876 70.5598)" font-size="35.163" class="i">BOS MUMU</text><text><tspan x="102.718" y="406.776" class="i n">The OG Book of Stamp</tspan><tspan x="73.688" y="432.166" class="i n">bull. One of the most bullish  </tspan><tspan x="84.108" y="457.566" class="i n">book memes in existence. </tspan><tspan font-size="16.413" x="150.592" y="481.065" class="i">Rareness Score</tspan><tspan x="195.812" y="500.765" font-size="16.413" class="i">69    </tspan></text><g class="j k"><path d="M121.56 466.21l2.36 7.64h7.64l-6.18 4.72 2.36 7.64-6.18-4.72-6.18 4.72 2.36-7.64-6.18-4.72h7.64zm154 0l2.36 7.64h7.64l-6.18 4.72 2.36 7.64-6.18-4.72-6.18 4.72 2.36-7.64-6.18-4.72h7.64z" fill="#ffe100"/><g class="l"><path d="M162.17 176.27l41.7-9.63 41.58 16.73 4.37 16.61s14.29 4.21 15.23 6.38c1.21 2.78-9.72 7.06-9.72 7.06l-8.54 5.47s12.45-.06 13.92 1.44c1.17 1.2-3.6 3.77-4.9 4.57-1.88 1.16-11.8 7.6-11.8 7.6s9.86 2.72 12.66 4.25c2.97 1.62-5.31 9.01-8.03 11.03-2.93 2.18-13.73 4.75-13.73 4.75l-11.55 4.48-1.58-7.16-6.37-12.18-14.79-20.11-25.14 11.22s-16.95 19.95-20.01 20.4c-4.31.63-12.9-2.21-17.4-8.75-1.93-2.81 5.86-3.35 9.32-5.45 2.59-1.57 6.57-7.58 6.57-7.58s-6.59-.47-11.01-2.37c-3-1.29-12.14-7.64-9.24-9.03 5.59-2.67 11.06-3.06 14.23-5.05 2.03-1.27 6.74-6.7 6.74-6.7s-15.86-10.55-15.73-12.08c.19-2.23 14.57-4.65 18.48-7.7 1.89-1.5 4.74-8.2 4.74-8.2z" fill="#290d0c"/><path d="M162.42 173.04s20.55-5.97 27.32-4.55c4.92 1.03 16.29 10.32 16.29 10.32s18-7.43 22.4-6.95c7.26.79 16.34 17.35 16.34 17.35s-2.88 16.84-5.52 21.92c-1.49 2.87-4.12 7.77-10.24 8.63-3.59.5-10.52-3.73-12.74-6.35-3.78-4.48-5.98-21.94-5.98-21.94l-15.43-.58s-10.58 17.71-16.15 21.92c-2.32 1.76-8.76 2.27-11.69 1.59-3.22-.75-7.63-5.91-8.44-8.85-1.26-4.54 2.27-16.7 2.27-16.7l1.57-15.81z" fill="#b55d47"/></g></g><linearGradient id="A" gradientUnits="userSpaceOnUse" x1="200.455" y1="233.476" x2="203.07" y2="189.507"><stop offset="0" stop-color="#fff"/><stop offset=".03" stop-color="#f5f5f5"/><stop offset=".309" stop-color="#9f9f9f"/><stop offset=".555" stop-color="#5b5b5b"/><stop offset=".759" stop-color="#2a2a2a"/><stop offset=".913" stop-color="#0b0b0b"/><stop offset="1"/></linearGradient><g class="j k"><g class="l"><path d="M149.52 186.98l5.65-10.74 19.47 2.51 22.98 2.95 19.83 1.48 23.9.94 15.5 4.09-3.38 10.87-9.23-.07s-.33 4.89-1.05 6.31c-1.35 2.66-6.27 6.41-8.8 7.92-2.22 1.33-8.53.71-11.1.62-2.27-.08-7.93-2.29-7.93-2.29l-5.84-4.52s-5.72-5.34-7.62-5.56c-1.72-.2-6.56 3.75-6.56 3.75l-6.4 1.67-6.54 1.47s-11.03.28-13.69-.92c-2.22-1-6.13-4.21-7.62-6.18-1.23-1.63-2.46-5.73-2.63-7.79-.16-2 .57-3.13.57-3.13l-9.51-3.38z" fill="url(#A)"/><path d="M182.09 207.59c3.14-.87 9.4-3.04 12.68-3.09 6.09-.09 18.48 2.05 23.77 4.8 3.13 1.63 8.33 6.37 10.62 8.91 1.92 2.14 6 6.4 7.05 9 1.85 4.59 2.98 14.61 2.25 19.45-.29 1.95-1.16 6.02-2.54 7.54-3.7 4.07-14.23 9.8-19.92 10.8-6.42 1.13-19.63-.37-26.12-1.11-5.27-.6-16.83.49-21.07-2.42-3.52-2.42-5.63-10.96-6.93-14.8-1.19-3.53-5.9-10.2-5.54-13.88.62-6.31 8.69-18.04 14.37-21.68 2.47-1.58 8.51-2.73 11.38-3.52z" fill="#b55d47"/><path d="M181.54 211.54c.26-1.99 5.08-4.79 6.4-5.23 3.37-1.14 10.71-2.05 14.3-1.79 2.94.21 7.79.93 10.27 2.16 2.12 1.05 6.67 4.36 8.18 5.94.96 1 2.19 3.4 1.77 4.63-.45 1.32-5.95 4.74-7.43 5.46-4.41 2.16-9.72 2.64-14.13 2.15-2.23-.25-7.92-.89-9.74-1.91-2.06-1.16-4.46-2.69-6.48-4.36-1.25-1.05-3.32-5.64-3.14-7.05z" fill="#dc8a8f"/><path d="M209.67 216.53c-2.43.9-4.11 4.18-3.96 7.26.08 1.65 11.3-2.06 12.73-5.44.78-1.85-.01-5.06-8.77-1.82zm-15.21-.37c2.59.92 4.35 4.36 4.15 7.6-.11 1.74-12.09-2.03-13.58-5.57-.82-1.95.07-5.34 9.43-2.03z" fill="#160904"/><path d="M155.17 241.39c1.21-.82 3.66-1.4 5.16-1.25 1.43.14 4.59 2.68 5.45 3.73 1.85 2.27 2.38 4.75 2.99 7.52.45 2.05 3.78 4.05 5.56 5.37 1.68 1.25 6.47.09 8.62-.16 2.59-.29 7.63-3.38 10.21-3.7 2.98-.37 8.1 1.15 11.05 1.66 2.99.52 6.23 4.29 9.08 5.25 1.14.39 5.08-.1 6.29-.26 2.08-.27 4.41-1.75 5.58-2.57s3.92-5.53 6-6.84c1.71-1.07 6.53-3.48 8.07-2.22 1.65 1.34 1.21 6.3.14 8.05-1.41 2.3-6.23 5.52-8.42 7.24-2.7 2.12-7.64 6.82-10.28 9-2.1 1.73-6.2 5.45-8.76 6.54-2.73 1.16-8.79 2.04-11.8 2.2-3.68.2-11.19.78-14.76-.06-3.71-.88-10.75-4.13-13.59-6.48-2.49-2.06-6.58-7.04-8.14-9.75-2.31-4-2.19-7.54-4.44-11.57-.94-1.68-4.54-4.69-4.69-6.57-.11-1.2-.4-4.39.68-5.13z" fill="#1d1c24"/><path d="M158.3 171.06s-11.61 3.79-15.66 3.73c-3.18-.05-9.69-1.53-12.18-3.32-1.26-.91-3.11-3.42-3.69-4.79-.96-2.29-2.41-7.13-2.26-9.58.11-1.91 1.33-5.64 2.21-7.37.95-1.88 3.29-5.46 4.59-7.17 1.81-2.37 3.45-6.75 7.7-9.17 1.73-.98-.26 9.75-.92 12.94-.39 1.84-.78 7.04-.48 8.9.34 2.09 1.63 4.27 3.74 5.16 3.41 1.43 14.48-.55 14.48-.55l2.47 11.22zm86.47 8.22s9.98 4.09 13.55 4.12c2.81.03 8.65-1.3 10.96-3.03 1.17-.88 2.98-3.36 3.57-4.72 1-2.27 2.6-7.1 2.65-9.55.03-1.92-.79-5.69-1.45-7.45-.71-1.91-2.53-5.56-3.56-7.3-1.43-2.42-2.58-6.86-6.17-9.39-1.46-1.03-.44 9.79-.06 13.01.22 1.86.21 7.08-.18 8.94-.44 2.08-1.73 4.25-3.65 5.08-3.1 1.35-12.73-.9-12.73-.9l-2.93 11.19z" fill="#868788"/><path d="M158.44 177s-16.91-48.32-7-59.47c17.07-19.21 87.02-19.23 101.36 1.95 9.02 13.32-7.6 64.53-7.6 64.53L158.44 177z" class="m"/><path d="M156.89 172.31l-5.82-23.41 101.77 4.08-6.58 27.58z" class="f"/></g><path d="M199 160.03l-1.1-2.76 3.46-.59-.18 2.66 2.4.08-.15-2.76 3.24.15-.64 2.83 1.76.65c.52.27 1.29.62 1.25 1.39-.02.32-.37 1.23-.65 1.46-.39.32-1.1.78-1.64.92l-1.52.36 2.34.76c.48.14.9.46 1.27.77.39.33.49 1 .56 1.46.05.32 0 1-.15 1.3-.2.4-.72.93-1.21 1.09l-1.06.35.38 2.65-3.42-.09.75-2.55-2.2-.37-.48 2.67-3.59-.63 1.55-2.4-3.43.08-.42-3.17 4.12 1.1-.85-5.34-3.58.23-.27-2.89 3.46.59z" class="m"/><path d="M201.75 161.59l.39 1.45s2.43.27 3.06-.07c.22-.12 1.03-.47.88-1.04-.08-.31-.84-.64-1.19-.71-.57-.13-3.14.37-3.14.37zm.74 4.25l.11 1.93s1.83.66 2.34.65c.41-.01 1.02.02 1.31-.28.16-.17.29-.87.21-1.1-.12-.34-1.23-.91-1.55-1.06-.68-.3-2.42-.14-2.42-.14z" class="f"/><path d="M131.3 179.12c-1.18-1.99-1.13-7.28 2.54-7.73 8.64-1.06 133.37 9.34 138.21 13.29 2.29 1.88 3.26 6.81.96 8.38-1.84 1.26-8.29 2.28-11.48 2.42-3.08.14-12.58-.35-12.58-.35s8.41-4.39 5.56-5.07c-10.47-2.5-92.65-10.39-102.38-8.88-2.45.38 4.84 5.2 4.84 5.2s-8.97.1-11.77-.57c-4.23-1.01-12.55-4.42-13.9-6.69z" class="l m"/></g><path d="M166.35 214.95l-8.51-9.59c-1.27-1.94-5.25 18.48-.12 20.64 1.37.56 8.63-11.05 8.63-11.05zm71.79-.19c-.86-.24-7.82 4.74-7.82 4.74s7.09 8.83 7.64 12.53c.56 3.73 2.13-16.73.18-17.27z"/><path d="M158.32 236.41c-.43-.56-1.17-2.29-.43-2.59 1.81-.72 4.8 2.93 6.5 3.8 1.72.88 5.86 1.57 7.9 1.68 2.81.15 9.72-1.34 12.54-1.43 2.91-.09 9.61-.66 12.51-.47 2.78.18 8.35 2.27 11.08 2.71 2.7.44 7.69 1.88 8.58 2.05.9.18 8.63 1.51 11.49 1.15 2.13-.27 5.7-3.1 7.84-2.87.79.09 2.3 1.18 2.24 1.81-.08.82-1.89 2.04-2.8 2.43-1.44.62-4.54 1.61-6.16 1.77-2.31.22-4.9.21-7.19-.11-3.08-.43-8.37-.87-11.4-1.47-2.48-.49-10.31-3.02-12.84-3.31-1.72-.19-5.21.01-6.95-.02-2.58-.04-4.87.68-7.44.78l-8.47.28c-1.76.01-6.29-.77-7.96-1.2-2.62-.66-7.61-3.12-9.04-4.99z" fill="#160904"/><path d="M197.21 219.12c-4.33 1.55-7.04 5.73-6.2 9.59.84 3.85 5.15 6.98 9.87 7.16s9.35-2.6 10.62-6.37-.96-8.15-5.1-10.02l-.68 1.31c3.44 1.63 5.2 5.35 4.02 8.49s-5.2 5.36-9.14 5.06c-3.94-.29-7.41-3.08-7.9-6.34s2.05-6.66 5.72-8.04c-.27-.36-.53-.73-.82-1.08-.24.15-.47.31-.39.24z" fill="#ad8903" class="j k"/><text transform="matrix(1.0294 0 0 1 67.2142 359.7587)" font-size="18.434" class="i">=2023  Atk=100 Spd=420 Ele=meme</text><g fill="#e30206"><path d="M53.95 361.83l.18-12.21s-4.29-4.33-7.67-1.39c-4.35 3.79 7.49 13.6 7.49 13.6z"/><path d="M53.95 361.83l.1-12.21s4.29-4.33 7.67-1.39c4.36 3.79-7.77 13.6-7.77 13.6z"/><path d="M53.86 361.63l-.47-12h1.25v11.3z"/></g></svg>