<svg xmlns="http://www.w3.org/2000/svg" width="60" height="80" shape-rendering="geometricPrecision" image-rendering="optimizeQuality" fill-rule="evenodd" xmlns:v="https://vecta.io/nano"><path d="M2.59 3.93h55.76v73.78H2.59z" fill="#ffffff"/><g fill="#000000"><path d="M58.35 4.59H2.59V3.27h55.76l.69.66-.69.66zm0-1.32h.69v.66l-.69-.66zm-.68 74.44V3.93h1.37v73.78l-.69.66-.68-.66zm1.37 0v.66h-.69l.69-.66zm-56.45-.66h55.76v1.32H2.59l-.68-.66.68-.66zm0 1.32h-.68v-.66l.68.66zm.69-74.44v73.78H1.91V3.93l.68-.66.69.66zm-1.37 0v-.66h.68l-.68.66z" fill-rule="nonzero"/><path d="M29.42 74.42c.01.09.07.45 0 .52-.1.09-.84-.14-.99-.17-.64-.17-1.84-.37-2.11-1.03-.19-.46.39-.36.68-.36 1.3-.03 1.1-1.4-.07-1.59-.91-.14-1-.21-1.08-1.11-.53-5.67-1.83-11.35-2.95-16.94 4.23 7.35 5.48 12.5 6.52 20.68zm11.72-21.97c.05.26-3.42 18.89-3.46 18.92-.4.4-1.7.07-1.85 1.03-.2 1.25 1.37.64 1.53.95.11.31-.17.56-.41.72-.41.27-2.19.86-2.65.81-.77-.12 2.94-20.26 6.84-22.43zm-11.41-2.56c-.16-.27-.07-.58.19-.75l-.19.75zm-.3-.01c-.09-.23-.04-.62.22-.72 0 .12-.12.95-.22.72zm18.93-12.61c-.22.4-1.67.94-2.06.87-.44-.07.06-.57-.02-1.22-.08-.57-.37.25-.16-1.04.35-2.17 1.68.26 1.94.34.17-.17.23-.47.34-.56.43-2.34-.15-1.36-1.15-2.55.23-.39.82-1.37 1.3-1.42.11.18.34 1.21.39 1.49.22 1.15-.04 3.1-.58 4.09zM31.23 55.65c-1.15-.03-2.17-.6-2.3-1.77-.06-.66.19-1.33.83-1.63.6-.28 1.46-.33 2.12-.47.45-.1 1.31-.34 1.53-.75.12-.23.12-.56.12-.81-.52.18-1.75.43-2.15.23-.18-.09-.19-.44-.2-.62-.02.2-.04.31-.12.49-.72.03-.35-1.39-.56-.14-.02.11.04.1-.1.05-.35-.12-.13-.35-.31-.81l-.05.64c-.15-.29-.21-.59.03-.8 1.17-1.05 3.55-.45 5.03-.5a29.77 29.77 0 0 0 1.22-.71c.08-.15-.96-.25-1.09-.28-.26-.07-.43-.22-.68-.17-.26.06-1.43.38-1.6.2-.06-.05-.01-.1-.1-.21-.54.08-.9.21-1.15-.34-.87.42.01.57-1.18.07-.42.41-.32-.01-.83-.32-.38-.23-.78-.25-1.21-.22.12-.19.44-.35.78-.4.89-.11.54.28 1.45-.99.19-.25.37-.46.55-.67.56-.66 1.08-.63 1.55-.87s.88-.8.96-1.46c-.19.22-.44.62-.88.31-.29-.2-.49-.51-.98-.25-.47.25-.92.95-2.05.69-.62-.17-1.06-.56-1.25-1.15-.02-.06.5-5.65.5-6.47-.01-2.5.16-2.54-1.18-4.22-2.5-2.13-2.92-.94-5.11-1.89-1.72-.73-1.53-1.65-1.89-3.17-.65-2.66-1.88-5.82-.61-8.47.29-.61.65-.96 1.13-1.41-1.37.43-1.95 2.29-2.04 3.53-.12 1.42.25 2.64.34 4.02-.51-.77-.81-4.33-.62-5.26 1.44-7.21 21.72-4.37 23.2-2.45 3.01 2.81 2.54 9.99 3.25 14.33.21 1.29.42 2.55.48 3.86.01 1.44-.49 3.17-.82 4.59-.12.51-.5 1.76-.42 2.28 2.01.19 2.96-1.7 3.55-3.23.6-1.73 1.54-6.2 1.43-7.81-.03-.46-.32-.72-.73-.42-.9.66-.72 1.69-2.06 1.98 1.93-3.48.54-14.19-1.31-17.61-.27-.51-.56-.99-.88-1.48C42 8.53 37.29 6.28 32.24 5.9c-6.66-.48-12.67 2.47-16.26 7.86-3.49 5.22-2.06 9.92-2.02 15.39-.63-.87-2.1-.65-2.07 1.31.02 1.64 1.34 7.51 2.03 8.64.56.92 1.44 1.81 2.64 1.62.23.61.48 2.18.66 2.98.8 3.45 1.11 4.61 3.74 7.06 0 1.47.2 2.89.29 4.34.06 1.02-1.06-.04-1.04 2.47.04 5.69-5.12 8.88-10.23 10.53-1.63.52-.8 1.45.45 1.9 23.44 8.58 19.16 9.07 42.09-.33.71-.28 1.6-.48 1.86-.95.54-.97-1.18-1.29-1.8-1.52-4.28-1.55-8.73-5.21-8.96-9.88-.09-1.81.18-1.14-1.23-2.11l-.07-5.66c-.14.07-.93.9-1.09 1.07-2.98 3.03-5.53 5.13-10 5.03zm5.7-24c.31-.38 1.21-.39 1.8-.3.52.08 1.12.26 1.47.53-1.31-.17-1.73-.35-3.27-.23zm-3.99 2.05c.11-.16.38-.12.55-.09-.1.3-.22.31-.28.63.99-.25 1.08-.46 2.47-.32-.94-.16-.95-.59-.01-1.05.21-.1.15-.08.27.14.44.81 1.26 1.23 2.12.74.59-.33.56-.59.8-1.13a1.07 1.07 0 0 1 .58.51c.12.3-.09.53-.28.65.23-.03.44-.27.81-.28-.48.59-1.75.75-2.82.73-.07.09-.01.47 0 .59.1.37-.03-.4.3-.5.17.18.07.45.17.69.07-.26-.04-.5.17-.69.3.11.16.48.27.74.03-.07-.02-.45.08-.72.42.03.23.36.42.68l-.03-.71c.54.17.26.35.5.69.01-.16-.04-.65.07-.75.1.19.23.47.36.63 0-.32-.17-.55.02-.67.12.12.26.4.36.56.08-.35 0-.37-.11-.69.54.16.36.53.55.53a1.12 1.12 0 0 0-.21-.62c.42.03.4.12.61.33.07-.21-.17-.4-.26-.53.34.07.46.19.73.32-.07-.18-.22-.28-.26-.39.23-.03.31.06.52.11l-.35-.27c.18-.11.38 0 .59.02l-.48-.24.65.01c-.19-.15-.3-.16-.6-.16.58-.21 2-.53 1.95-1.58-.21.05-.11.08-.33.24-.11-.25-.3-.34-.53-.46-.91-.46-6.46-.29-3.4-1.89 2.28-1.2 2.93-.27 4.65.06-.01 0-.71-.63-.87-.73-1.97-1.19-4.72.14-6.82.59-2.42.53-3.36.81-3.71 3.38-.05.38.31.95.78.9zm4.09.66v-.14l-.26.06-.05.59c.24-.11-.13-.55.31-.51zm-.72.39l.15-.41.17-.09-.24-.04-.08.54zm-.38-.12c.05-.24.01-.31.24-.42-.28-.24-.25.32-.24.42z"/></g><path d="M24.92 32.95c.25 1.25-.61 2.09-1.56 2.3-1.76.4-3.2-1.55-2.09-3.02.36-.45.85-.69 1.43-.77.99-.14 2.01.56 2.22 1.49zm12.42-.81c.13.01.51.07.13.08-.16 0-.12-.06-.13-.08zm-.78 1.13c.05-.04.15-.12.24-.12.3-.02-.08.03.28.09.35.05.44-.07.65-.15.15.17.18.17.19.4-.16 0-.68.54-1.36-.22z" fill="#ed3237"/></svg>