<svg xmlns="http://www.w3.org/2000/svg" viewBox="0 0 1800 1800"><g data-name="Layer 1"><path d="M0 0h1800v1800H0" fill="#fff"/><path d="M67 67h1669v1669H67" fill="#110f1c"/></g><g data-name="Layer 3"><path d="M600 200a2300 2300 0 00-100 500 2274 2274 0 00 55 742l721 190 224-95-77-670-72-35V610l-115-43-190-285Z" fill="#eaeaea"/><path d="M672 240 600 342l35 115-111 356L600 1180l-200-40-15-140 46-137 63-341V387L600 200Z" fill="#c9c9c9"/><path d="m936 272 100 20 194 291 90 33-32 100-120-42-33-84L1000 361l-119-34Zm342 566 117 55 16 123-218-190 85 12" fill="#fff"/><path d="m1127 953 168 63 144 23 57 500-223 91-612-158 455-134L1400 1200l-185-29Z" fill="#c9c9c9"/><path d="m400 1140 200 40 91 148 300 163 64 56 200-66 88 91-75 56-651-81-62-64h-59Z" fill="#a3a3a3"/></g><g fill="#110f1c" data-name="Layer 6"><path d="m886 668 2 44 121-66 63-7 65 24-58-53-67-3-126 61zm-114 11-6 27-97-47-102-13-43 10 98-41 77 20 73 44zm161 90 56-32 56-6 47 26-45 22H980l-47-10zm-200-2-44-27h-67l-54 35 58 17 73-6 34-19zM1100 756l37-23 11-41-5 45-29 19h34-27l18 18Zm-534 19-38-23-11-40v44l30 19h-35 28L526 800Zm230 208 38 15 41-12 53 58 73-6 71-80 15 6-70 109-138 7-45-50-42 50-140-12-64-91 36 1 54 61 74 1 44-57zm-15 162 53 8 78-8-45 37 19 50-42 162-46-161 24-48-41-40zm-58-56h236l-129 27-107-27"/><path d="m739 712 73 43L800 974l-12-16L800 764Z"/></g></svg>
