<svg xmlns="http://www.w3.org/2000/svg" viewBox="0 0 2400 2400"><path d="M2331 1311c-21-130-52-258-94-382-8-23-23-43-42-57-34-25-73-39-114-54V576c2-39-17-75-49-97-67-46-137-87-209-121-192-94-402-145-616-149-294 4-581 93-826 256-47 33-74 74-69 135v221c-35 13-70 26-101 45-25 17-46 34-56 64-44 138-79 277-101 420-16 95-21 191-16 287 3 33 8 66 27 95 8 14 20 24 36 25 61 4 108-18 138-75 4-10 8-22 17-31 10 7 13 16 17 25l37 72c26 40 57 71 106 73 80 122 193 219 325 281 222 88 464 113 700 71 97-16 190-49 276-98 106-63 196-150 261-254 30-2 56-15 77-36 30-30 47-65 64-101 5-10 8-24 20-32 12 10 16 24 22 35 18 35 45 59 85 69 61 14 85 0 102-59 10-34 14-69 15-101 4-96-33-283-33-283Zm-234-30c-7 141-38 280-93 410-72 173-208 311-380 384-143 59-295 79-449 79-137-2-272-28-399-79-189-79-335-235-402-429-57-152-79-309-84-470v-10l44 46c30 27 57 27 86 0 18-17 30-36 41-56 14-22 27-44 44-63 21-20 37-23 61-6 20 14 33 32 46 49l59 71c42 46 79 49 125 5 24-22 45-46 69-69 18-20 36-39 59-53 33-20 64-20 96 2 28 20 49 46 70 72 19 22 36 44 59 62 33 23 61 23 92-3 23-20 39-39 59-64 20-23 39-47 66-66 36-26 66-27 102-2 34 23 60 52 87 82 19 20 36 39 60 54 31 20 54 18 83-4 24-18 40-42 58-65 18-24 35-48 59-68 31-26 53-24 79 8 10 13 17 27 26 40l33 49c39 54 79 55 121 4l26-30c3 36 0 71-3 104"/><path d="M1770 1659c-71 199-285 202-469 188l-10-11-7-10c-89-102-104-49-186 5l-12 7c-5 4-11 7-17 10-195 22-359-12-464-189h69c95 141 300 188 421 54 66 20 134 21 202 0 121 138 327 86 423-54h50"/><path d="M1996 1592c-8 9-13 20-14 33-39 17-78 30-123 20-5-2-9-6-12-10-7-1-17-4-27-13-25-22-19-57-18-60l14-18c16 2 26-10 34-21h99c20 16 30 38 48 52v17Z" fill="#fca6fb"/><path d="M1053 1369c-2 9-15 11-21 13-17 4-32-3-34-4-46-17-93-31-141-42-48-11-97-17-146-21-74-5-130 0-147 0-30 3-55 6-73 9 17-5 32-8 41-10 11-2 15-2 29-5 11-2 16-3 26-5 5-1 12-2 20-3 44-6 88-8 133-8 33 0 67 2 100 6 68 7 128 21 178 35 7 2 20 6 28 18 3 4 8 10 6 17Z"/><path d="M1301 1847c-9 3-19 6-28 7-66 3-131 7-196-3-3 0-6 0-8-3l17-10s8-4 12-7h88l98-5 7 10 10 10" fill="#920808"/><path d="M986 1425c-138 35-283 34-421-2 112-81 301-65 421 2Zm857-2c-138 36-283 36-421 2 128-68 315-84 424-2h-3ZM1233 2100c-3 10-8 20-14 29-5 7-12 14-21 16-9 2-20-2-27-8s-12-16-15-25c-6-18-12-37-17-56-6-22-9-45-6-68 0-20 8-39 17-55v-16c-11-15-24-28-39-39 17 0 30-3 42 0 30-2 61-2 92 0 8-3 16 0 30 0-7 4-16 11-25 19-14 13-23 27-28 37 11 20 16 37 18 49 4 23 3 41 0 67-2 17-3 35-8 51Z"/><path d="M1351 1369c2 9 15 11 21 13 17 4 32-3 34-4 46-17 93-31 141-42 48-11 97-17 146-21 74-5 130 0 147 0 30 3 55 6 73 9-17-5-32-8-41-10-11-2-15-2-29-5-11-2-16-3-26-5-5-1-12-2-20-3-44-6-88-8-133-8-33 0-67 2-100 6-68 7-128 21-178 35-7 2-20 6-28 18-3 4-8 10-6 17Z"/><path d="M381 1591c8 9 13 20 14 33 39 17 78 30 123 20 5-2 9-6 12-10 7-1 17-4 27-13 25-22 19-57 18-60l-14-18c-16 2-26-10-34-21h-99c-20 16-30 38-48 52v17Z" fill="#fca6fb"/></svg>
