<svg xmlns="http://www.w3.org/2000/svg" width="400" height="560" xmlns:v="https://vecta.io/nano"><style><![CDATA[.g{stroke-miterlimit:10}.h{fill:#fc1a05}.i{stroke:#000}.j{fill:#4f4739}.k{stroke-width:1.151}.l{stroke-width:.576}.m{enable-background:new}.n{font-family:Arial-BoldMT}]]></style><path d="M0 0h400v560H0z"/><path d="M20 523.73V36.27A10.17 10.17 0 0 1 30.17 26.1h339.66A10.17 10.17 0 0 1 380 36.27v487.45a10.17 10.17 0 0 1-10.17 10.17H30.17A10.16 10.16 0 0 1 20 523.73z" class="h"/><path d="M42 347.35h316v172H42z" fill="#0f5c21"/><path d="M42 44.64h316v473.43H42z" fill="none" stroke-width="5" class="g i"/><radialGradient id="A" cx="179.565" cy="197.192" r="155.629" gradientTransform="matrix(1.1328 0 0 0.7295 -5.4203 66.3137)" gradientUnits="userSpaceOnUse"><stop offset="0" stop-color="#736453"/><stop offset=".234" stop-color="#5d5143"/><stop offset=".719" stop-color="#241f1a"/><stop offset="1"/></radialGradient><path d="M40.82,77.21H358V332.7H40.82V77.21z" fill="url(#A)"/><path d="M25 354.52h0c0-13.25 10.75-24 24-24h302c13.25 0 24 10.75 24 24h0c0 13.25-10.75 24-24 24H49c-13.25 0-24-10.74-24-24z"/><path d="M31.18 355.52v-2a18.5 18.5 0 0 1 18.5-18.5h300.65a18.5 18.5 0 0 1 18.5 18.5v2a18.5 18.5 0 0 1-18.5 18.5H49.68a18.5 18.5 0 0 1-18.5-18.5z" class="h"/><path d="M35.81 354.52h0a16 16 0 0 1 16-16h296.38a16 16 0 0 1 16 16h0a16 16 0 0 1-16 16H51.81a16 16 0 0 1-16-16z" fill="#f3f2e9"/><path d="M25 57.71h0c0-13.25 10.75-24 24-24h302c13.25 0 24 10.75 24 24h0c0 13.25-10.75 24-24 24H49c-13.25 0-24-10.75-24-24z"/><path d="M31.18 58.71v-2a18.5 18.5 0 0 1 18.5-18.5h300.65a18.5 18.5 0 0 1 18.5 18.5v2a18.5 18.5 0 0 1-18.5 18.5H49.68c-10.22 0-18.5-8.29-18.5-18.5z" class="h"/><path d="M35.81 57.71h0a16 16 0 0 1 16-16h296.38a16 16 0 0 1 16 16h0a16 16 0 0 1-16 16H51.81c-8.84 0-16-7.17-16-16z" fill="#f3f2e9"/><text transform="matrix(1.0294 0 0 1 108.5753 69.8684)" font-family="AcademyEngravedLetPlain" font-size="35.163">APETOSHI</text><text transform="matrix(.8327 0 0 1 85.271 359.7602)" font-family="ArialMT" font-size="19.648">= 21   Atk = 90  Spd = 66  Ele = ape</text><g fill="#e30206"><path d="M73.55 363.99l.18-15.82s-4.34-5.6-7.76-1.79c-4.39 4.88 7.58 17.61 7.58 17.61z"/><path d="M73.45 363.72l-.47-15.56h1.27v14.65z"/><path d="M73.55 363.99l.1-15.82s4.34-5.6 7.76-1.79c4.4 4.88-7.86 17.61-7.86 17.61z"/></g><path d="M71.41 518.07l20-46.24h216l20 46.24z"/><path d="M87.91 525.51l10.67-45.06h201.66l11.67 46z" class="h"/><text transform="matrix(1.0294 0 0 1 99.6579 514.8252)" font-family="Impact" font-size="26.924">THE UNPRUNABLES</text><path d="M124,301.87h152v28.65H124V301.87z" fill="#1f1f1f"/><g class="j"><path d="M143.35 200.63h113.31v72.6H143.35v-72.6z"/><path d="M177.67,270.81H222v31.06h-44.33V270.81z"/></g><path d="M154.06,151.15h91.55v49.47h-91.55V151.15z" fill="#504739"/><g fill="#736453"><path d="M165.23,162.08h69.32v64.08h-69.32V162.08z"/><path d="M155.33,205.92h89.24v62.13h-89.24V205.92z"/></g><path d="M170.3,239.97h59.3v12.08h-59.3V239.97z" fill="#c51d0b"/><path d="M170.3 245.15h59.3v1.73h-59.3v-1.73z"/><path d="M179.39 213.4h12.67v6.9h-12.67v-6.9zm27.98 0h12.67v6.9h-12.67v-6.9z" class="j"/><path d="M192.06 212.02h15.32v8.63h-15.32v-8.63z" fill="#726453"/><radialGradient id="B" cx="-80.827" cy="666.8" r="3.661" gradientTransform="matrix(11.5152 0 0 -5.771 1175.1418 4055.3342)" gradientUnits="userSpaceOnUse"><stop offset="0" stop-color="#676766"/><stop offset="1" stop-color="#3a3a39"/></radialGradient><path d="M230.98 222.26l6.22-26.69 9.21 8.4 4.49 25.43-19.92-7.14z" fill="url(#B)"/><radialGradient id="C" cx="-101.948" cy="666.8" r="3.692" gradientTransform="matrix(-11.5152 0 0 -5.771 -1018.5177 4055.3342)" gradientUnits="userSpaceOnUse"><stop offset="0" stop-color="#676766"/><stop offset="1" stop-color="#3a3a39"/></radialGradient><path d="M168.57 222.26l-6.22-26.69-10.82 8.4L149 229.4l19.57-7.14z" fill="url(#C)"/><path d="M169.84 187.74l6.1-4.26 16.7-.81-18.42-4.49-4.38 9.56zm60.45 0l-6.22-4.26-16.7-.81 18.42-4.49 4.5 9.56z" fill="#4d4d4c"/><path d="M218.54 174.05l-18.77-2.53-18.42 2.65 18.42-4.49 18.77 4.37zm-3.68-5.18l-15.32-1.84-15.08 2.19 15.08-3.57 15.32 3.22z" class="j"/><ellipse cx="182.85" cy="196.48" rx="7.14" ry="7.13" fill="#fff" class="i k"/><circle cx="182.85" cy="196.48" r="3.8"/><g fill="#818181"><path d="M195.86 194.64h8.29v2.3h-8.29v-2.3zm35.01.58h10.36v2.3h-10.36v-2.3zm-70.71-.23h9.21v2.3h-9.21v-2.3z" class="g i l"/><path d="M169.95 201.43v-9.55a4.49 4.49 0 0 1 4.49-4.49h0 16.24a4.49 4.49 0 0 1 4.49 4.49h0v9.55a4.49 4.49 0 0 1-4.49 4.49h0-16.24c-2.42.11-4.49-1.96-4.49-4.49z" opacity=".49" class="m"/></g><g class="k"><path d="M169.37 199.71v-6.44a6.34 6.34 0 0 1 6.33-6.33h0 13.93c3.5 0 6.33 2.83 6.33 6.33h0v6.44a6.34 6.34 0 0 1-6.33 6.33h0-14.05c-3.44-.01-6.21-2.88-6.21-6.33z" fill="none" stroke="#818181" class="g"/><ellipse cx="217.05" cy="196.14" rx="7.14" ry="7.13" fill="#fff" class="i"/></g><circle cx="217.05" cy="196.14" r="3.8"/><path d="M229.94 201.2v-9.55a4.49 4.49 0 0 0-4.49-4.49h0-16.24a4.49 4.49 0 0 0-4.49 4.49h0v9.55a4.49 4.49 0 0 0 4.49 4.49h0 16.24a4.49 4.49 0 0 0 4.49-4.49h0z" opacity=".49" fill="#818181" class="m"/><path d="M230.64 199.36v-6.44a6.34 6.34 0 0 0-6.33-6.33h0-13.93c-3.5 0-6.33 2.83-6.33 6.33h0v6.44a6.34 6.34 0 0 0 6.33 6.33h0 13.93c3.49 0 6.33-2.83 6.33-6.33h0z" fill="none" stroke="#818181" class="g k"/><g fill="#6b8262"><path d="M188.84,330.52l-11.17-35.09H222l-8.29,35.09H188.84z"/><g stroke="#5a6d51" class="g l"><path d="M177.67 301.87v-15.53l22.34 8.63-5.07 16.68-17.27-9.78z"/><path d="M221.88 301.87v-15.53l-22.22 8.63 5.07 16.68 17.15-9.78z"/></g></g><radialGradient id="D" cx="-85.262" cy="670.819" r="18.573" gradientTransform="matrix(13.0121 0 0 -23.0369 1322.2974 15557.6885)" gradientUnits="userSpaceOnUse"><stop offset="0"/><stop offset=".331" stop-color="#5d5d5c"/><stop offset=".657" stop-color="#8e8d8c"/><stop offset=".887" stop-color="#a1a0a0"/><stop offset="1" stop-color="#a6a6a6"/></radialGradient><path d="M220.04 162.08c-3.92.23-11.4 6.1-11.4 6.1l-3.34-6.1-11.98 9.2-1.15-9.2-10.94 8.28-.58-8.28-6.56 9.09-3.8-4.37-3.34 11.74c-.46 2.88-.46 8.97-1.73 12.08-1.15 2.76-2.07 7.13-2.76 10.01-.46 2.19-6.33 8.05-6.33 8.05l-7.14 3.34-7.48 15.53-3.45-13.81 1.04-8.63-6.1 2.3 2.76-11.39 2.3-8.4-5.41-2.07 6.22-12.2 5.53-7.94h-11.52l9.67-15.19 7.6-8.17-12.09-2.88 15.89-13c5.3-3.45 16.93-8.28 22.92-9.32 5.64-1.04 17.04.46 22.57 1.61 3.8.81 11.28 4.03 14.74 5.98 3.22 1.73 12.21 8.63 12.21 8.63s8.75-5.98 12.09-6.44c2.88-.35 9.1.81 11.52 2.65 3.8 2.99 11.4 16.34 11.4 16.34l-6.45-.35 7.37 17.26 6.1 13.69-13.13-7.25 7.48 19.67-9.21-3.91 9.79 13.46 9.1 18.98-7.95-8.63-4.72-2.42.69 7.59-3.8 10.93-8.52-8.28-6.56-8.28s-5.18-7.48-5.99-10.47c-1.73-6.21-.35-15.3-.92-19.56-.46-2.99-2.88-11.85-4.95-13.92-2.2-2.28-6.92-2.16-9.69-2.05z" fill="url(#D)"/><path d="M199.66 296.92h.58v33.37h-.58v-33.37z" fill="#596d51"/><text><tspan font-size="30.38" x="81.853" y="415.051" class="n">“I am not Dorian</tspan><tspan x="118.973" y="451.511" font-size="30.38" class="n">Nakamoto”</tspan></text></svg>