<svg xmlns="http://www.w3.org/2000/svg" width="960" height="960" shape-rendering="geometricPrecision" image-rendering="optimizeQuality" fill-rule="evenodd" xmlns:v="https://vecta.io/nano"><style><![CDATA[.G{fill:#fe7801}.H{fill:#fff}]]></style><path d="M15.695 12.024h932.496V944.52H15.695z" stroke="#000" stroke-miterlimit="2.61313"/><path d="M285.47 687.898l23.109-.114-.072 23.594-22.939.035-.098-23.515zm-43.852-136.07l-.5-22.607c28.046-2.951 22.281 1.509 22.301 11.366.008 4.038.689 8.13-1.068 11.255l-20.733-.014zm-46.98-22.951l22.44-.041.136 24.996-22.706.239-23.874.256-.267 19.333-19.14.238c-.808-4.821-.959-15.845.05-20.44l8.88-.06c2.427-6.062 1.725 5.541 1.27-11.194l-.082-11.978c16.15-.944 14.507-1.496 33.293-1.349zm-43.805-154.859l43.508-.338.266-23.02 22.336-.082.188 48.066-66.341.382.043-25.008zm65.926-67.874l24.178.023-.127 19.098-23.433.167-.618-19.288zm24.685-113.796c3.527-.292 20.294-1.536 21.248 1.169.047.132.209.432.26.604l.448 21.271c-4.743.836-17.691 1.134-22.054-.397l.098-22.647zm-94.724 12.213c.066-2.452-.067 2.489 0 0zm69.926-16.056c-14.314.29-28.786.077-43.124.186-27.361.207-22.784 4.479-22.572-20.716l66.238.178-.542 20.352zm46.978-66.895l45.429.477-.092 22.655-45.002-.394-.335-22.738zm0 0l-46.443-.216-.052 22.778-22.461.211-.07-22.869-24.051-.237-.012 23.163-19.533.317-.242-23.196-11.004-.073-.141 22.927-65.082.333-.311 22.743 44.924.266.422 21.32 20.155-.051c.329 7.656.197 14.012.058 21.668l77.821 1.166-.362 34.433-47.334.687.032 24.213 71.044.558.032 22.905-42.903.091c-2.059 2.331-2.872 3.414-4.784 6.054-10.529.507-47.577-1.286-54.244.886l.287 25.097c8.276 1.891 22.973-1.14 31.003 1.015l-.04 22.084-112.685.46-.008 23.771 39.529-.274.044 26.509c3.993 1.622 16.836.781 22.171.597 1.251-7.946.489-18.371.184-27.063l19.69-.079-.147 46.679 1.191 2.238c.081.127.295.402.439.605l53.626-.199.284 26.496-75.023.044.015 26.417 121.197.057.212 26.317-101.816.138c.699 5.67.17 14.892.284 21.98l-64.854-.058c-.867 3.595-.505 16.396-.54 21.668l.619 5.871c.059.172.233.439.353.657 7.514 2.089 51.991.466 64.045.517l.055 43.417 76.923.344.498-21.74 69.176-.139-.061 21.665-44.642.083-.086 22.731-45.993.073-.046 21.513-43.747.435-.343-22.518-11.169-.146-.104 22.257c-15.129 1.284-56.187-1.284-65.518.798l.221 21.143 96.116.445.172 24.286 23.79.151.531-22.292 21.925-.359.174-22.764 23.979.038 22.32.144.106 23.966-22.081.249-24.346.127.039 21.497-21.31.176c-1.176 5.388-1 17.076-.215 22.762l90.104-.031-.057 23.069-134.394.048-.288-23.191-11.179-.038.004 47.247 145.84.113.031 23.088-21.841.334-.452 21.836-46.065.254-.033 23.041-46.321.282-.222 21.836-19.727.175-.084-21.97-9.913-.003-.574 21.943c-10.667 1.353-35.462-1.759-43.15.97l-.101 21.485c8.901.939 19.921.109 29.085.095 8.598-.013 20.546 1.726 27.464-1.782 7.688-3.898 34.229-16.956 40.987-18.301l1.38 2.557 54.786-24.616c9.508-4.221 49.592-22.67 56.764-23.662l-.03-6.04-.281-4.975 24.39-10.881.333-48.737 21.275-.055-.011-25.698c-2.464-2.796-7.667-7.194-10.626-9.716-3.731-3.18-6.712-6.533-10.431-9.518l.105-54.535c3.649.664 10.757 9.972 13.371 12.752 12.366 13.155 27.582 26.484 40.602 39.537 5.11 5.122 8.095 8.633 13.232 13.169 17.497 15.45 29.391 17.334 57.022 22.505-1.543-2.413-11.841-5.557-15.075-7.082-5.626-2.651-9.754-5.943-13.758-9.021l-48.399-42.644c-4.287-3.493-7.946-7.007-12.232-10.566l-11.902-10.798-.262-8.052c-4.892-3.646-9.665-8.574-14.255-12.998l-20.446-20.511c-4.215-3.636-3.883-1.298-5.761-7.868-2.114-7.393-5.173-14.359-6.96-21.339l14.549.181.373-48.82-12.838.058c-1.604-9.206.733-23.567-1.253-32.283-3.9-2.111-17.9-14.125-20.678-17.529-1.209.737-2.057-1.245-1.02 6.487l2.595 20.964c1.346 8.008 4.364 19.809 4.795 27.304l-22.969-16.431c-2.783-2.277-10.172-21.554-12.335-26.802-16.224-39.367-19.475-53.918-21.325-96.971-.54-12.568-1.161-26.311 7.632-32.373 15.369-10.599 26.843 12.633 30.832 23.867 1.652 4.652 2.553 10.804 5.17 14.819l6.087-.061c-1.907-5.465-.607-17.716-.859-24.568l-.441-21.852-21.374.115-.159-26.865 20.812-.069 1.229-28.571.042-24.939-22.07-.432.08-24.587 22.119-.128-.283-25.279 2.683-25.77 15.576-.362 3.031-24.458 45.688-.321-.14-22.052-20.731-.296-.234-8.935.036-15.628 41.691-21.889-20.289-.332.005-26.208 46.652-.005.231-22.112-69.162-.282-45.197-.251-44.052.548c-1.667 4.455-1.013 17.517-.766 22.123l91.559.205.068 25.135-69.362.279.174 23.705zm254.8 147.353l25.966-.085.234 25.206-25.977.012-.223-25.133zm-22.735-125.071l.696-22.726 22.038.174-.321 23.688-22.276-.085.052 47.014-65.294.06.027 25.169c15.347 2.639 80.089-2.254 87.291 1.333l.155 24.362-21.876.195c-.492 4.16-.27 8.364-.284 12.48l.007 6.388c.085 7.653-.305 5.262-1.201 6.393l-21.629.626.3 24.631 22.435.375-.036 23.924-22.1.372.184 23.664 44.442.027.072 25.06c19.32-2.866 35.73-9.001 56.696-9.411 22.495-.441 36.042 4.343 54.258 11.327l-.609-4.316-.507-23.06 18.568 5.109-.047-21.597-19.218-7.053-.437-46.333c-3.862-3.38-11.598-4.015-16.966-5.77l.049-25.516c4.437-.76 18.866 5.344 23.497 6.856 2.083-8.177-1.983-21.19.902-29.534l13.473 5.313.52 102.695 9.089 2.752.179-59.388c6.665 1.095 10.344 4.199 15.935 5.627 1.023-46.487-7.834-87.305-31.4-124.652-6.994-11.083-14.803-20.023-23.637-29.163l-27.628-24.28c-28.593-20.844-81.024-41.097-117.924-38.735l.208 85.526 22.317.479zm152.323 248.423l-3.687-.445c-2.06 2.172-3.341 4.577-5.282 7.741-6.533 10.644-2.34 6.929-20.394 15.133-11.218 5.098-7.412 5.415-13.497 10.162-19.857 15.492-35.095 11.445-57.384 9.887-7.804-.546-20.783 12.836-30.022 17.712l-5.469-3.905c-2.113-1.958-2.818-2.84-4.613-4.476-16.283-14.837-11.701-14.714-19.784-33.036-3.519-7.975-13.572-12.936-24.426-8.612-10.603 4.223-7.664 15.094-7.652 27.013l-.001 71.03c.011 6.377-1.358 12.112 2.342 15.887 3.567 3.641 3.947 5.741 11.3 6.12 19.9 1.026 14.433-6.728 24.923-10.091l.054 14.384 13.322-.01 1.808-11.336c1.558 2.647 1.963 8.188 2.464 11.635 1.016 7 1.618 7.896-.952 11.302-10.027 13.294-29.132 36.335-37.954 49.769l3.659 3.363c6.632-.504 12.474-3.532 18.636-4.202 4.837-.526 41.766 15.75 47.771 17.966l.07 9.822c-13.821-.706-24.061-4.357-36.378-5.576-11.222-1.111-26.131 1.87-32.832 8.44-.463 4.238-.734 8.987.227 12.985l43.972.353-.113 31.65c-11.038 1.488-36.399-1.609-44.636.963l.211 23.933 22.471.124 22.511-.169-.031 18.578c3.807-.737 21.846-18.151 25.087-21.46 7.031-7.179 6.811-3.761 6.693-16.87l-.101-23.996c6.294-4.062 12.995-10.107 19.427-15.164l.59-25.363c6.049-3.477 15.737-9.319 19.655-13.8l.936-11.595c-1.655-4.452-.711-65.154-.611-76.179l19.032-.278.141-11.711c2.917-1.624 38.011-33.287 39.826-35.917l.028-31.785 14.884-.051c7.316-1.133 6.598-4.577 12.122-16.264 3.152-6.669 5.672-12.484 9.29-18.944 15.693-28.021 22.659-17.975 20.767-.393-2.947-2.824-.939-2.606-4.716-4.864-4.973 1.695-19.126 18.503-14.596 32.205 1.234 3.732 2.022 8.833 4.578 11.481 1.948-1.359 4.698-3.126 6.731-4.722 2.723-2.136 3.676-3.387 6.762-4.693-.273 4.351-4.984 27.47-6.872 30.095-4.801 6.676-24.867 16.506-26.302 28.197l-6.078 49.262c7.116-3.081 17.765-9.707 20.825-17.101l10.369-26.044c7.996-20.996 11.737-33.487 15.231-57.739 2.697-18.718 6.419-49.394-3.214-64.405-5.421-8.449-17.307-10.298-23.948-1.816-3.644 4.654-10.182 17.57-12.801 24.079l-2.349-29.41c-.217-.143-.981-.64-1.234-.783l-7.002-2.677c-.45 10.644 1.314 39.483-.817 47.18-2.912 1.559-11.423-1.803-12.967-2.569zm-36.44 281.238c-.247 7.601.873 30.694-.4 36.154-.911 3.908-14.515 16.269-17.571 18.792l-3.091 1.823-.127-14.234c-3.295 1.051-14.067 12.216-16.469 15.45-2.991 4.026-.538 35.413-1.646 49.693l-15.588.759.046 68.399 14.988-.16.333 47.701 18.54.141-.034-118.373 21.304-.086-.038 32.327.652 33.087c3.99 2.071 11.438 6.076 16.357 7.064l-.087-41.121c9.345 3.072 19.844 8.543 29.394 12.686 12.123 5.258 85.82 35.756 86.727 38.388l-.032 12.572c4.556 2.522 15.108 7.386 20.82 8.734l.054-15.949c3.851.37 11.764 4.55 15.545 6.121 12.688 5.274 91.412 35.672 98.578 39.118l7.3-19.215c-.195-1.354-71.648-33.066-74.274-34.143-26.16-10.737-97.716-47.312-119.931-59.49-22.889-12.548-17.271-7.951-35.411-22.851l-17.589-14.32c-9.285-7.518-10.682-7.442-10.657-14.366l-.006-89.552-17.687 14.851z" class="H"/><path d="M570.342 603.556l-.59 25.363c-6.432 5.057-13.133 11.102-19.427 15.164l.101 23.996c.118 13.109.338 9.691-6.693 16.87-3.241 3.309-21.28 20.723-25.087 21.46l.031-18.578-22.511.169.086 34.476c5.44.297 28.023-8.388 34.309-10.6 8.717-3.067 7.731-3.592 13.655-9.131l75.668-81.881c10.094-12.473 15.52-11.691 19.054-25.604 5.963-23.473 9.963-54.267 7.941-80.833-5.544 2.834-10.541 10.955-15.628 13.761l.11 55.223c-.51 6.662-39.435 45.433-41.628 46.386l-.227-13.502c-3.824 1.021-9.058 5.198-11.32 8.981-1.966 6.869 4.621 18.277-7.799 23.092l-.045-44.812zm20.591-25.395c3.934-2.405 15.721-12.557 17.862-15.718l.303-29.141c3.237-4.458 15.718-13.744 19.918-16.967l.202-12.843 17.896-15.516c1.055-11.963-1.23-9.461 5.883-16.125 3.448-3.231 7.239-7.224 10.274-10.49.572-9.069-1.053-32.941.962-39.121l-14.884.051-.028 31.785c-1.815 2.63-36.909 34.293-39.826 35.917l-.141 11.711-19.032.278c-.1 11.025-1.044 71.727.611 76.179zm55.797-253.093l.047 21.597-18.568-5.109.507 23.06.605-1.377 18.532 7.794.159 21.282c1.544.766 10.055 4.128 12.967 2.569 2.131-7.697.367-36.536.817-47.18l7.002 2.677c.253.143 1.017.64 1.234.783l2.349 29.41c-1.435-1.31-1.268-2.74-1.275-5.701l.441-20.057c.448-8.801.289-17.629.952-26.398 1.191-15.752 1.65-37.377 1.254-53.701-5.591-1.428-9.27-4.532-15.935-5.627l-.179 59.388-9.089-2.752-.52-102.695.362 96.324c-.131 6.124-.7 5.108-1.662 5.713z" class="G"/><path d="M97.8 96.468c.445.146.389.334 1.998.458.534.042 2.036.029 2.644.033l92.132-.039-.037-23.192-97.201.001c-.546 3.94-.277 7.496-.246 11.535.026 3.459-.436 7.228.432 10.553.043.163.184.435.278.651z" class="H"/><path d="M398.05 852.325l-.246-118.095-19.047.023.336 118.149z" class="G"/><path d="M150.79 399.026l66.341-.382-.188-48.066-22.336.082-.266 23.02-43.508.338z"/><path d="M216.478 803.537l-.25-22.349-21.078-.208-75.423.605c-1.203 3.262-.857 17.873.233 22.502 7.537-2.002 78.797.582 96.518-.55z" class="H"/><path d="M119.628 449.667l75.023-.044-.284-26.496-53.626.199-.439-.605-1.191-2.238-.453 3.094-19.536-.028.506 26.118z" class="G"/><path d="M832.652 641.552l-87.089.36-.16 20.651c14.285.515 29.327-.021 43.714.006 10.119.018 35.653-1.319 43.98.43l-.445-21.447z" class="H"/><path d="M633.655 247.252l.017 24.757-6.597-.327.437 46.333 19.218 7.053c.962-.605 1.531.411 1.662-5.713l-.362-96.324-13.473-5.313c-2.885 8.344 1.181 21.357-.902 29.534z"/><path d="M545.236 804.474c-2.242 1.187-.346-.313-2.821 2.147l-5.938 5.863c-2.88 2.997-6.585 4.955-6.902 9.444-.664 9.398.172 22.96.209 32.83l.126 65.639 15.581.027-.255-115.95z" class="H"/><path d="M194.621 852.073l.161 16.997c3.837-.306 86.972-37.358 98.671-42.818 4.486-2.094 9.16-4.58 14.265-6.008l-.167-13.892c-7.172.992-47.256 19.441-56.764 23.662l-54.786 24.616-1.38-2.557zm278.753-558.479l-.3-24.631-65.322.126-.113 24.447z" class="G"/><path d="M810.972 572.558c2.585-3.971-.643.98.152-3.791.018-.106.203-.357.216-.466s.109-.374.109-.48-.046-.388-.059-.497l-.589-5.695c.002-.101.087-.36.1-.461.459-3.684.546-4.483-.622-7.657l22.454-.339.056-28.23-22.204-.014-.181 26.24-43.775.549.272 21.329c14.578.13 29.592.806 44.071-.488z" class="H"/><path d="M216.646 188.505l.542-20.352-66.238-.178c-.212 25.195-4.789 20.923 22.572 20.716l43.124-.186z"/><path d="M169.938 271.193l-.032-24.213-50.621.067-1.104 24.276zm640.202-25.291l.177 25.404 45.279-.546c.466-10.022-.063-16.367-.177-25.444l-45.279.586zm-502.619 554.41c6.069-3.555 15.938-7.675 22.913-10.789 7.651-3.416 15.324-7.714 22.699-10.262l.105-43.597-21.275.055-.333 48.737-24.39 10.881.281 4.975zm210.85-433.296l-.072-25.06-44.442-.027-.187 24.921z" class="G"/><path d="M263.624 121.61l.335 22.738 45.002.394.092-22.655z"/><path d="M312.298 293.295l41.119.24.267-24.109c-5.281-.764-37.073-.898-41.308.192l-.078 23.677zm433.037 56.15l42.964.158.013-23.105-42.834-.224zM286.003 49.615l45.197.251.182-21.913-45.053-.035z" class="G"/><path d="M170.739 920.405l45.821-.089-.158-20.946-45.785.066z" class="H"/><path d="M745.563 641.912l87.089-.36-44.32-.692-.182-21.005-42.701.007z" class="G"/><path d="M496.22 920.321l19.913-.043.03-44.966-20.14.416zm-163.102-71.2l20.428.002-.189-44.138-20.13.055zm340.497 17.298c10.993 4.719 40.75 18.623 50.304 21.36l-.064-15.718c-1.06-3.579-49.002-21.789-50.099-21.81l-.141 16.168z" class="H"/><path d="M160.157 553.398c3.721.251 8.604-.381 10.477.929l23.874-.256.13-25.194c-18.786-.147-17.143.405-33.293 1.349l.082 11.978c.455 16.735 1.157 5.132-1.27 11.194zm219.068-408.245l20.644-.174.149 22.874-21.015-.033.222-22.667zm20.032-45.37c-6.139 2.541-12.062 6.168-19.45 10.235l-.083-12.358 19.572.125-19.556-.37-.949 70.169 21.199.535c1.936-12.482-.814-22.727-.812-33.678l.079-34.658z" class="G"/><path d="M591.16 920.508l38.339-.411-.102-20.738-38.277-.15zM333.723 574.514l.376 19.618 19.074.381-.315-29.339c-2.884-2.698-15.833-12.431-19.141-13.66l.006 23z" class="H"/><path d="M593.601 728.499c3.056-2.523 16.66-14.884 17.571-18.792 1.273-5.46.153-28.553.4-36.154-6.031 4.608-12.647 11.191-17.679 17.29l-.292 37.656zM332.036 136.322c6.52-3.105 13.207-6.955 20.442-10.5 4.961-2.431 17.729-7.607 21.004-10.504l.281-16.513-41.691 21.889-.036 15.628zm186.611 157.774l25.977-.012-.234-25.206-25.966.085zm108.428-22.414l6.597.327-.017-24.757c-4.631-1.512-19.06-7.616-23.497-6.856l-.049 25.516c5.368 1.755 13.104 2.39 16.966 5.77z" class="G"/><path d="M119.643 476.084c-5.514.602-17.973-1.676-22.28 1.034-1.309 1.335-.357-1.397-.469 1.745l.574 24.401 22.046-.151.129-27.029z" class="H"/><path d="M590.486 803.707c6.449 2.262 14.591 6.915 21.333 8.232l.038-32.327-21.304.086-.067 24.009zM216.841 665.378l.152 1.76 24.346-.127-.345-24.359-23.979-.038z" class="G"/><path d="M194.508 554.071l22.706-.239-.136-24.996-22.44.041z"/><path d="M855.492 709.016c.788-3.876.11-5.734.137-11.794l.875-10.571c-4.859-3.021-16.933-1.599-23.924-1.34l.23 23.901 22.682-.196zM430.339 341.91l-.127 25.483 21.614.008.097-49.382-21.425.384 21.301-.462-.275 24.181zm-72.611 274.981c5.307.706 14.704.85 18.384-.307l-.037-29.249-18.491-.045.144 29.601z" class="G"/><path d="M285.568 711.413l22.939-.035.072-23.594-23.109.114zm-44.229-44.402l22.081-.249-.106-23.966-22.32-.144z"/><path d="M379.044 243.834l21.423.103.096-24.873-21.464-.224zm-69.91 202.799l21.584.055.213-24.467-21.753-.281zm12.867 126.829c4.479.38 8.389-.301 11.722 1.052l-.006-23c-2.47-4.876-1.086-18.993-1.267-26.431l-10.076-.441-.373 48.82zm-35.555-329.667l20.816.115-.056-25.285-21.043-.109zm231.456-25.276c-7.202-3.587-71.944 1.306-87.291-1.333 4.582 2.165 16.265.072 22.285 1.122l.22 24.999 19.472.022.389-25.25c8.203-.329 38.578-1.026 44.925.44zm-22.213-74.627l.137 1.051 22.276.085.321-23.688-22.038-.174zM94.812 685.499l-.724 24.42 25.624-.344.311-24.022z" class="G"/><path d="M74.241 446.302c6.495-1.017 16.243.659 21.506-.895 2.664-.786 1.396-17.863 1.056-22.097l-22.811-.077.249 23.069z" class="H"/><path d="M241.346 214.995c4.363 1.531 17.311 1.233 22.054.397l-.448-21.271c-.051-.172-.213-.472-.26-.604-.954-2.705-17.721-1.461-21.248-1.169l-.098 22.647z"/><path d="M287.067 395.691l20.029.112.141-24.275-21.029-.405c.252 6.852-1.048 19.103.859 24.568z" class="G"/><path d="M262.351 551.842c1.757-3.125 1.076-7.217 1.068-11.255-.02-9.857 5.745-14.317-22.301-11.366l.5 22.607 20.733.014z"/><path d="M307.453 167.926l3.697.182.144 25.025 19.822-.271.086-24.693 21.928-.495-.129-22.121.14 22.052z" class="G"/><path d="M430.339 341.91l21.185.212.275-24.181-21.301.462z" class="H"/><path d="M474.098 851.455l21.798-.448.047-23.069-21.935.396zM195.15 780.98l21.078.208.25 22.349.272-44.659 68.787-.088-144.694-.113 54.356.366z" class="G"/><path d="M430.02 167.803l21.804.107-.144-23.042c-6.336.112-15.297-1.377-20.952.817l-.708 22.118zM74.293 780.558l22.454.027-.809-22.096-21.693-.32zm256.823-587.696l-19.822.271-.06 24.081 20.2.556z" class="H"/><path d="M571.881 874.08l-.167-23.851-19.534.209.342 23.371zM286.275 293.881l19.678-.186.19-24.192-19.826-.561zm-43.9 604.358l21.834-.363-.084-22.088-22.013.314zm136.66-553.207l20.643.088.035-23.409-20.61-.116zm-45.891 147.291l.079 7.02 19.661.306-.157-24.107c-23.997-1.209-19.635-1.626-19.583 16.781z" class="G"/><path d="M379.003 167.82l21.015.033-.149-22.874-20.644.174z" class="H"/><path d="M430.576 873.714l20.806-.036-.089-22.589c-5.287-.259-15.794-.872-20.75.437l.033 22.188z" class="G"/><path d="M309.134 446.633l.044-24.693-19.103-.199.011 24.908zM789.131 96.728l20.696.228.131-23.052-20.389-.031z" class="H"/><path d="M834.146 803.147l.003-20.783-22.554-.058-.274 21.181z" class="G"/><path d="M195.461 120.355l20.721.108.331-22.784-20.95.481z" class="H"/><path d="M723.92 597.065l20.438-.222-.157-22.352c-5.003-.649-15.59-1.127-20.348.104l.067 22.47zM97.186 850.576c7.688-2.729 32.483.383 43.15-.97l.574-21.943-20.611.255c-1.306 4.809-.731 16.116-.369 21.467-3.882.251-21.331-.779-22.744 1.191z" class="G"/><path d="M789.078 524.491l20.981.1.308-22.099-21.132.166z" class="H"/><path d="M430.195 120.105l21.245.14-.035-21.991-20.689-.128z" class="G"/><path d="M217.377 325.432l23.433-.167.127-19.098-24.178-.023z"/><path d="M430.36 781.075l20.902-.206-.14-21.889-20.797.184zM310.599 898.264l20.483-.066-.189-22.45-20.45.353zm.053-552.164l20.151.528.07-22.63-19.873-.376zm45.305 199.893c.537 2.407-.241.185 1.214 2.36l18.394-.144-.121-23.084-19.41.34-.077 20.528z" class="G"/><path d="M195.286 72.068l20.775.069.432-21.347-21.071.028zM746.094 398.68l19.411-.064-.129-22.019-19.258.04z" class="H"/><path d="M431.41 920.262l8.932.047h2.732l2.732.01 5.605-.113-.364-20.595-5.242-.108-10.019-.053-4.421.295zm314.482-395.357l19.598-.081-.521-21.234-19.298.27zm-42.31 208.56l19.271-.143-.213-20.169c-5.077-1.315-14.216-1.245-19.51-.061l.452 20.373z" class="G"/><path d="M170.634 554.327c-1.873-1.31-6.756-.678-10.477-.929l-8.88.06c-1.009 4.595-.858 15.619-.05 20.44l19.14-.238.267-19.333z"/><path d="M703.366 70.483l19.66.079.227-19.511-19.895-.498zm20.482 22.496l20.089.085.313-19.211-20.204-.282z" class="G"/><path d="M433.071 499.487l-2.047 3.645c-4.876 17.586-5.425 13.697-3.151 28.135 5.711 3.718 23.555 12.223 30.774 14.15-2.775-7.366-6.654-9.878-12.427-14.32l-14.239-11.317 1.09-20.293z" class="H"/><path d="M397.332 899.579l-9.813-.101c-7.941-.085-9.411-3.255-7.817 20.815l17.97-.07-.34-20.644zm391.964-761.43c2.585.293 20.947 1.808 21.084-2.141.031-.891-.053-.823-.088-2.13l-.105-12.578-20.849-.493-.042 17.342z" class="G"/><path d="M746.651 800.734l18.715.097-.206-18.929-18.764.04zm-.42-661.484l19.185.044-.03-17.801-19.3-.042z" class="H"/><path d="M291.36 320.693l15.611.056.266-20.077-15.627-.201zm320.212 352.86l17.687-14.851-.398-18.72c-6.242 4.031-10.88 11.055-16.312 16.256-.622 5.557.258 13.688-.977 17.315z" class="G"/><path d="M139.953 920.413l11.326-.355.119-20.547-11.506.1z" class="H"/><path d="M308.283 492.417l-.08-17.091-20.598-.438c2.778 3.404 16.778 15.418 20.678 17.529z" class="G"/><path d="M399.257 99.783l.039-1.998-19.556-.37-.17 12.606z" class="H"/><g fill="red"><circle cx="566.128" cy="397.057" r="18.725"/><circle cx="376.523" cy="399.294" r="18.725"/></g></svg>