<svg xmlns="http://www.w3.org/2000/svg" xmlns:xlink="http://www.w3.org/1999/xlink" width="1000" height="1000"><style>.q{fill:#faf7f3}.r{fill:#181c51}.s{fill:#e9d5b3}.t{opacity:.49}.u{stroke:#000}.v{stroke-width:2.499}.w{fill:#f4652d}.x{stroke-miterlimit:10}.y{fill:#e9decb}.z{fill:#0834ef}.AA{stroke-width:2.543}.AB{stroke-width:3.195}.AC{stroke-width:3.122}.AD{stroke-width:2.427}</style><path fill="#00bded" d="M0 0v1000h1000V0zm699 646c-5 37-14 77-42 103q-43 39-101 39h-17l-2 1q-25 8-51 12-28 6-54-4-24-10-44-29c-24-22-38-53-49-84q-15-47-22-98-8-55-12-109-4-51-1-102c3-51 9-68 26-98 30-52 87-80 144-92 32-7 67-12 99-2s53 37 74 60c23 26 42 56 49 90q7 53 9 106c2 69 3 139-6 207"/><path fill="#54cbf1" d="M963 474c-24 8-52 2-71-15l-24-24c-37-31-92-9-136-24q-16-6-29-16l2 44c2 69 3 139-6 207-5 37-14 77-42 103q-43 39-101 39h-17l-2 1q-25 8-51 12-28 6-54-4-24-10-44-29c-24-22-38-53-49-84q-15-47-22-98-8-55-12-109-4-51-1-102 2-44 19-86-32 3-60-12c-21-14-35-41-60-48q-15-2-32-1c-60-4-110-82-171-72v844h1000V456q-18 11-37 18"/><path fill="#76d3f1" d="m832 560-126-25q0 56-7 111c-5 37-14 77-42 103q-43 39-101 39h-17l-2 1q-25 8-51 12-28 6-54-4-24-10-44-29c-24-22-38-53-49-84q-15-47-22-98-8-55-12-109-4-49-1-98l-77-1c-46-2-96-10-128-44-16-17-25-39-40-57-14-18-37-32-59-26v749h1000V585c-56-3-113-14-168-25"/><path fill="#689627" d="m340 684-6-18H0v95h381q-28-35-41-77m356-18c-5 30-16 61-39 83l-13 12h356v-95zm-52 95q-39 26-88 27h-17l-2 1q-25 8-51 12-28 5-54-4-24-11-44-29l-7-7H0v239h1000V761z"/><path fill="#558a0b" d="M696 666q-3 21-12 42 52 15 89 53h227v-95zm-356 18-6-18H0v34h345z"/><path d="M303 399H57v38h246zm14 187a1377 1377 0 0 1-14-149H50v233h285q-11-42-18-84" class="y"/><path d="M303 424H50v13h253z" class="q"/><path d="M303 399H57v7h246zm0 38H50v4h253zm0-5H44v5h259z" class="y"/><g class="r"><path d="M303 422v-13h-3v1h1v6l-1 1 1 1-1 4zm-8-5v-1l1-6h-1v-1h3v7l1 1-1 1v4h-3z"/><use xlink:href="#B"/><use xlink:href="#B" x="-5"/><path d="M252 417v-1l1-6h-1v-1h3v7l1 1-1 1v4h-3z"/><use xlink:href="#C"/><use xlink:href="#C" x="-5"/><path d="M236 417v-1l1-6h-1v-1h3v7l1 1-1 1v4h-3z"/><use xlink:href="#B" x="-59"/><use xlink:href="#B" x="-64"/><use xlink:href="#B" x="-70"/><use xlink:href="#D"/><use xlink:href="#C" x="-64"/><use xlink:href="#C" x="-70"/><use xlink:href="#C" x="-75"/><use xlink:href="#C" x="-80"/><use xlink:href="#B" x="-128"/><path d="M156 417v-1l1-6h-1v-1h3v7l1 1-1 1v4h-3z"/><use xlink:href="#B" x="-139"/><use xlink:href="#B" x="-144"/><use xlink:href="#D" x="-102"/><use xlink:href="#C" x="-139"/><use xlink:href="#C" x="-144"/><path d="m97 417 1-1v-6h-1v-1h3v7l1 1-1 1v4h-3z"/><use xlink:href="#B" x="-198"/><use xlink:href="#B" x="-203"/><path d="m81 417 1-1v-6h-1v-1h3v7l1 1-1 1v4h-3z"/><use xlink:href="#B" x="-214"/></g><path d="M303 399H50v5h253zm400 0 1 38h239v-38zm2 38v2a1229 1229 0 0 1-10 231h255V437z" class="y"/><path d="m704 424 1 13h245v-13z" class="q"/><path d="M703 399v7h240v-7zm1 38 1 2v2h245v-4zm0-5v5h252v-6z" class="y"/><g class="r"><path d="M704 422v-6l-1-6h1v-1h-2z"/><use xlink:href="#E"/><use xlink:href="#E" x="5"/><use xlink:href="#F"/><use xlink:href="#F" x="5"/><use xlink:href="#F" x="11"/><use xlink:href="#E" x="54"/><use xlink:href="#E" x="59"/><use xlink:href="#E" x="64"/><use xlink:href="#G"/><use xlink:href="#E" x="75"/><use xlink:href="#F" x="70"/><path d="m823 417-1-1v-6h1v-1h-3v7l-1 1 1 1v4h3z"/><use xlink:href="#F" x="80"/><use xlink:href="#F" x="85"/><use xlink:href="#E" x="128"/><use xlink:href="#E" x="134"/><use xlink:href="#E" x="139"/><use xlink:href="#E" x="144"/><use xlink:href="#E" x="177"/><use xlink:href="#F" x="144"/><use xlink:href="#F" x="150"/><use xlink:href="#F" x="155"/><use xlink:href="#E" x="198"/><use xlink:href="#E" x="203"/><use xlink:href="#G" x="139"/><use xlink:href="#E" x="214"/></g><g class="y"><path d="M703 399v5h247v-5zM317 586v-3h-26v72h32v-34zm-3-22-7-1q-14 1-24 11a4 4 0 0 0 3 6v10l1 1 1-1v-10h28zm-9-87-1-16h-17v83l1 1 2-1v-3h21z"/><use xlink:href="#H"/><path d="M222 583h32v72h-32z"/><use xlink:href="#I"/><use xlink:href="#J"/><path d="M152 583h32v72h-32zm40-8-19-11a10 10 0 0 0-10 0l-18 11q-4 3 1 5h1v9l1 2 1-2v-9h38v9l2 2 1-2v-9h1q4-2 1-5M80 545l2-1v-3h34v3l1 1 2-1v-83H78v83zm3 38h32v72H83z"/><use xlink:href="#I" x="-139"/><path d="m705 583-6 63-1 9h16v-72zm17-9q-6-7-16-10l-1 16h12v9l1 2 2-2v-9a4 4 0 0 0 2-6m-17-113q2 40 1 80h9v3l2 1 1-1v-83z"/><use xlink:href="#J" x="599"/><path d="M752 583h32v72h-32z"/><use xlink:href="#I" x="530"/><path d="m818 545 2-1v-3h34v3l2 1 1-1v-83h-40v83zm3 38h32v72h-32zm40-8-19-11a10 10 0 0 0-10 0l-18 11q-4 3 1 5h1v9l1 2 1-2v-9h38v9l1 2 2-2v-9q5-2 1-5"/><use xlink:href="#H" x="669"/><path d="M891 583h32v72h-32z"/><use xlink:href="#I" x="669"/></g><path d="M317 586v-4h-28v70h31v-48z" class="r"/><path d="M318 588v10h-8v-14h7v-3h-28v72h32v-46zm-19 62h-8v-15h8zm0-16h-8v-16h8zm0-19h-8v-16h8zm0-17h-8v-14h8zm10 52h-9v-15h9zm0-15h-9v-17h9zm0-20h-9v-16h9zm0-17h-9v-14h9zm9 52h-8v-15h8zm0-15h-8v-17h8zm0-20h-8v-16h8zm-4-52a33 33 0 0 0-34 9v4q2 3 3 2h33zm-29 13" class="q"/><path d="m314 566-10-2q-13 1-21 10v1h33z" class="s"/><path d="M286 578v9l-2 1-1-1v-9zm19-101-1-19h-20v83l2 2 1-2v-2h24z" class="q"/><path d="m305 477-1-13h-15v70h21z" class="r"/><path d="M310 532v-2l-1-6zh-9v-15h8v-1h-8v-16h7l-1-3h-6v-16h5v-1h-5v-15h4v-2h-16v72h22zm-11 0h-8v-15h8zm0-16h-8v-16h8zm0-19h-8v-16h8zm0-17h-8v-15h8z" class="s"/><path d="M256 458v83l-2 2-2-2v-2h-34v2l-1 2-2-2v-83z" class="q"/><path d="M220 464h31v70h-32z" class="r"/><path d="M219 463v72h32v-72zm21 54h8v15h-8zm0-17h8v17h-8zm0-19h8v16h-8zm0-15h8v14h-8zm-10 51h10v15h-10zm0-17h10v17h-10zm0-19h10v16h-10zm0-15h10v14h-10zm-8 0h8v14h-8v1h8v16h-8v3h8v16h-8v1h8v15h-8z" class="s"/><path d="M220 582h31v70h-32z" class="r"/><g class="q"><path d="M219 581v72h32v-72zm21 54h8v15h-8zm0-17h8v17h-8zm0-19h8v16h-8zm0-15h8v14h-8zm-10 51h10v15h-10zm0-17h10v17h-10zm0-19h10v16h-10zm0-15h10v14h-10zm-8 0h8v14h-8v1h8v16h-8v3h8v17h-8 8v15h-8zm-10-11 18-11a10 10 0 0 1 10 0l18 10q4 5-1 6h-44q-5-1-1-6"/><use xlink:href="#K"/><path d="m216 587-1 1-2-1v-9h3z"/></g><use xlink:href="#L" class="s"/><path d="M186 458v83l-2 2-1-2v-2h-34v2l-2 2-2-2v-83z" class="q"/><path d="M150 464h31v70h-31z" class="r"/><path d="M150 463v72h32v-72zm21 54h8v15h-8zm0-17h8v17h-8zm0-19h8v16h-8zm0-15h8v14h-8zm-10 51h9v15h-9zm0-17h9v17h-9zm0-19h9v16h-9zm0-15h9v14h-9zm-9 0h8v14h-8v1h8v16h-8v3h8v16h-8v1h8v15h-8z" class="s"/><path d="M150 582h31v70h-31z" class="r"/><g class="q"><path d="M150 581v72h32v-72zm21 54h8v15h-8zm0-17h8v17h-8zm0-19h8v16h-8zm0-15h8v14h-8zm-10 51h9v15h-9zm0-17h9v17h-9zm0-19h9v16h-9zm0-15h9v14h-9zm-9 0h8v14h-8v1h8v16h-8v3h8v17h-8 8v15h-8zm-10-11 19-11a10 10 0 0 1 9 0l19 10q3 5-2 6h-44q-3-1-1-6"/><use xlink:href="#K" x="-70"/><path d="m147 587-2 1-1-1v-9h2z"/></g><use xlink:href="#L" x="-70" class="s"/><path d="M117 458v83l-2 2-2-2v-2H79v2l-2 2-1-2v-83z" class="q"/><path d="M81 464h31v70H81z" class="r"/><path d="M80 463v72h32v-72zm21 54h8v15h-8zm0-17h8v17h-8zm0-19h8v16h-8zm0-15h8v14h-8zm-10 51h10v15H91zm0-17h10v17H91zm0-19h10v16H91zm0-15h10v14H91zm-8 0h8v14h-8v1h8v16h-8v3h8v16h-8v1h8v15h-8z" class="s"/><path d="M81 582h31v70H81z" class="r"/><g class="q"><path d="M80 581v72h32v-72zm21 54h8v15h-8zm0-17h8v17h-8zm0-19h8v16h-8zm0-15h8v14h-8zm-10 51h10v15H91zm0-17h10v17H91zm0-19h10v16H91zm0-15h10v14H91zm-8 0h8v14h-8v1h8v16h-8v3h8v17h-8 8v15h-8zm-10-11 18-11a10 10 0 0 1 10 0l18 10q4 5-1 6H74q-5-1-1-6"/><use xlink:href="#K" x="-139"/><path d="m77 587-1 1-2-1v-9h3z"/></g><use xlink:href="#L" x="-139" class="s"/><path d="m705 582-6 70h12v-70z" class="r"/><g class="q"><path d="M709 615h-6l-1 3h7z"/><path d="M705 581v3h4v66h-8v-15h8-8v-1l-1 6v10h-1l-1 3h14v-72zm15-9q-6-6-14-9l-1 15h12a4 4 0 0 0 3-6m-5 4"/></g><path d="m718 574-12-8-1 9h12z" class="s"/><path d="M714 578v9l2 1 1-1v-9zm-9-120q2 41 1 81h6v2l2 2 2-2v-83z" class="q"/><path d="m705 464 1 70h5v-70z" class="r"/><path d="M705 463v3h4v66h-3v3h6v-72z" class="s"/><path d="M745 458v83l1 2 2-2v-2h34v2l2 2 1-2v-83z" class="q"/><path d="M749 464h31v70h-31z" class="r"/><path d="M749 463v72h32v-72zm11 69h-8v-15h8zm0-15h-8v-17h8zm0-20h-8v-16h8zm0-17h-8v-14h8zm10 52h-10v-15h10zm0-15h-10v-17h10zm0-20h-10v-16h10zm0-17h-10v-14h10zm8 52h-8v-15h8-8v-17h8v-3h-8v-16h8v-1h-8v-14h8z" class="s"/><path d="M749 582h31v70h-31z" class="r"/><path d="M749 581v72h32v-72zm11 69h-8v-15h8zm0-15h-8v-17h8zm0-20h-8v-16h8zm0-17h-8v-14h8zm10 52h-10v-15h10zm0-15h-10v-17h10zm0-20h-10v-16h10zm0-17h-10v-14h10zm8 52h-8v-15h8-8v-17h8v-3h-8v-16h8v-1h-8v-14h8zm10-77-18-11a10 10 0 0 0-10 0l-18 11q-4 3 1 5h44q5-2 1-5m-43 15 1-1v-9h-2v9zm39-1 1 1 2-1v-9h-3z" class="q"/><path d="M743 575h44l-19-11-3-1-4 1z" class="s"/><path d="M814 458v83l2 2 1-2v-2h34v2l2 2 2-2v-83z" class="q"/><path d="M819 464h31v70h-31z" class="r"/><path d="M818 463v72h32v-72zm11 69h-8v-15h8zm0-15h-8v-17h8zm0-20h-8v-16h8zm0-17h-8v-14h8zm10 52h-9v-15h9zm0-15h-9v-17h9zm0-20h-9v-16h9zm0-17h-9v-14h9zm9 52h-8v-15h8-8v-17h8v-3h-8v-16h8v-1h-8v-14h8z" class="s"/><path d="M819 582h31v70h-31z" class="r"/><path d="M818 581v72h32v-72zm11 69h-8v-15h8zm0-15h-8v-17h8zm0-20h-8v-16h8zm0-17h-8v-14h8zm10 52h-9v-15h9zm0-15h-9v-17h9zm0-20h-9v-16h9zm0-17h-9v-14h9zm9 52h-8v-15h8-8v-17h8v-3h-8v-16h8v-1h-8v-14h8zm10-77-19-11a10 10 0 0 0-9 0l-19 11q-2 3 1 5h44q5-1 2-6m-44 16 2-1v-9h-3v9zm39-1 2 1 1-1v-9h-2z" class="q"/><path d="M812 575h44l-18-11-4-1-3 1z" class="s"/><path d="M884 458v83l1 2 2-2v-2h34v2l2 2 1-2v-83z" class="q"/><path d="M888 464h31v70h-31z" class="r"/><path d="M888 463v72h32v-72zm11 69h-8v-15h8zm0-15h-8v-17h8zm0-20h-8v-16h8zm0-17h-8v-14h8zm10 52h-10v-15h10zm0-15h-10v-17h10zm0-20h-10v-16h10zm0-17h-10v-14h10zm8 52h-8v-15h8-8v-17h8v-3h-8v-16h8v-1h-8v-14h8z" class="s"/><path d="M888 582h31v70h-31z" class="r"/><path d="M888 581v72h32v-72zm11 69h-8v-15h8zm0-15h-8v-17h8zm0-20h-8v-16h8zm0-17h-8v-14h8zm10 52h-10v-15h10zm0-15h-10v-17h10zm0-20h-10v-16h10zm0-17h-10v-14h10zm8 52h-8v-15h8-8v-17h8v-3h-8v-16h8v-1h-8v-14h8zm10-77-18-11a10 10 0 0 0-10 0l-18 11q-4 3 1 5h44q5-2 1-5m-43 15 1-1v-9h-2v9zm39-1 1 1 2-1v-9h-3z" class="q"/><path d="M882 575h44l-19-11-3-1-4 1z" class="s"/><path fill="#477309" d="M991 668q3 3 3 7H870q0-6 5-10 5-3 10-1 1-9 6-14 5-6 12-6 3-8 11-7 3 0 5 3 5-8 11-9 8-1 14 3l2-2 3-1 8 1q3 3 4 8 6-1 11 2l5 4q2 3-1 7 4 1 7 4 2 4 1 9 4-1 7 2m-156 3 2 4h-63l3-6q2-3 5-1l3-9q2-4 6-3 1-5 6-5l2 2q2-5 6-5 5 0 6 2l1-2h2l4 1 2 4 6 2 2 2v4l3 3 1 6q2-1 3 1m-585 0-2 4h88q-1-4-4-6-3-3-8-1 0-4-4-9c-4-5-5-3-8-3q-2-6-8-5l-3 2q-3-4-8-6-6-2-10 3l-1-2-3-1-5 1q-3 2-3 5l-8 1-3 3v4l-4 3q-2 3-1 5-3 0-5 2M8 667l-2 8h88l-4-11q-3-4-8-1 0-9-4-15-5-7-8-6-2-9-8-8-2 0-3 3-3-8-8-10-6-2-10 4l-1-3-3-1q-3 0-5 2-3 3-3 8l-8 2-3 5v7q-3 0-4 5-2 6-1 9-3 0-5 2m690-13-4 21h26q-4-10-10-7-1-7-6-12-3-3-6-2m-586 17 5-6q5-4 11-2l2-9 4-8q4-4 6 0 1-6 4-8 4-3 6 0 4-5 9-3l4 4 1 6q7-5 14-1 9 6 9 17 2-3 5-2 4 1 5 3 2 0 3 3l2 4q5-3 8-1 5 2 6 7H111z"/><path fill="#558a0b" d="m29 671-3 4h100l-4-6q-4-3-9-1 0-4-4-9c-4-5-6-3-9-3q-3-6-10-5l-3 2a15 15 0 0 0-20-3l-2-2-3-1-6 1q-3 2-3 5l-9 1-4 3v4l-5 3q-2 3-1 5-3 0-5 2m764 0q3 1 3 4H696l4-6q5-3 9-1 0-4 5-9c5-5 5-3 9-3q2-6 9-5l4 2q3-4 9-6s8 1 11 3l1-2 3-1 6 1q4 2 3 5l9 1 4 3v4q3 0 5 3 3 3 1 5 3 0 5 2m-490 0q-5-5-9-2 0-4-3-7-5-2-8 0-11-9-23-2-3-6-10-6-9 1-10 6-6-8-17-8-9 0-16 8-6-2-13 1c-7 3-7 5-9 9-4-2-11 1-13 5h134zm669 0-6-6q-6-4-13-2l-3-9-5-8q-4-4-8 0 0-6-4-8-5-3-8 0-5-5-12-3l-4 4-2 6q-9-5-17-1-11 6-11 17-3-3-7-2-5 1-7 3l-4 3-2 4q-5-3-10-1t-8 7h133z"/><path d="m346 828-33 55-38 33 26 26 24-16 19 22 42-12 29 13 40-18 5 10 19 2 26-20-1-10-34-89zm216-57-9 47c-1 6-7 18-11 23l-9 10-5 9-2 10 4 14q3 4 8 7l25 5c5 0 17-3 23-2l11 7c6 2 18 0 24 1l24 8c5 2 17 6 23 6 8 0 23-8 32-9 7 0 22 9 29 7 9-2 18-19 25-25 3-2 11-5 13-8q3-4 2-7l-3-9c-2-3-9-9-13-11-3-3-12-7-16-9-3-2-11-6-13-9-10-18-7-81-7-81z" class="u v w x"/><path d="m483 877-9 6-10 4 10-5zm3 4-9 6-10 4 10-4zm5 4-11 7-12 5 12-6zm-69 8-10 8-10 5 10-6zm4 5-10 8-10 5 10-6zm5 4-12 10-12 6 12-7z" class="t"/><g class="u v x"><path fill="#c1b3b7" d="M790 893s-16-30-26-27c-5 2-13 16-11 21 3 8 37 6 37 6z"/><path d="M313 663s-6 107-15 142c-5 22-36 85-36 85l34-39-3 50 38-50s-2 34 3 45c4 7 17 19 24 23l17 5-8-64 48 59 4-62 14 29s11 17 16 21l17 9-4-34 3-21 11 20c2 4 6 12 9 15l9 5-1-16v-23l22 35 5-20-1-20-5-24-3-29 3-11 12-2 9 3-1 16-8 18 21-18-2 11-6 19 18-11 7-7c2-3 4-14 4-14s8 11 9 16-2 19-2 19l17-5c2-2 8-7 9-10 2-3 3-14 3-14l5 8 4 11 1 9c0 3-4 11-4 11l9-6 7-13 6-11 9-20 5 16 4 18 13-8c5-6 15-27 15-27l7 11q6 6 8 14l1 15 9-13 5-16 7 9 5 10 1 11s6-6 7-9c3-4 5-17 5-17v-17l4 13 4 12 5 3v-6l-3-7 1-8 2-8 1-10-3-19-5-19c-2-7-10-21-13-27-2-6-7-17-7-23-1-4 3-16 3-16l-20-19z" class="z"/></g><path d="m501 755-7-20 9 20 5 19zm40 26-5 10zl6-8zm25-50v-20l1 21-8 20z" class="t"/><path d="M562 717h19l-19 2c-5-1-17-8-17-8zm4 10 19 1-19 1-18-3z" class="t"/><g class="u x"><path d="M770 411s28 27 36 37c9 11 31 31 41 42l30 39 18 26 9 10q3 6 3 15l-1 10q0 5 2 9c2 5 2 15 0 19l-6 13c-1 4-20 14-23 17-2 2-8-3-8-3s-2 13-6 16c-6 4-27 2-35-6-3-4-5-18-5-18s-2 9-8 7c-4-1 2-7 0-11-1-2-9-5-12-4-3 0-9 7-12 7-5-1-8-14-9-18v-13l3-13 4-11 5-13q3-5-1-7c-1-2-6 3-7 4l-5 7-12 5q-5 3-11 4l-9-2-10-6q-3-4-4-10l2-15 8-11c3-2 10-6 9-8-3-9-37-11-37-11l1-68z" class="v w"/><path fill="#fff" d="m500 518 27-23 32 53 37-53 28 12 21 187-170 1z" class="AA"/><path stroke-width="2" d="M485 481c17 20 9 80 8 107l2 59c0 20 12 66 0 81-6 7-25 6-33 5l-52 2c-13 1-38 5-51 5l-40-4c-7 0-24 5-28-1-22-25 5-103 12-137 7-35-7-118 17-143 31-30 136-6 165 26z" class="z"/><path d="m218 520 60-25s26 16 35 19q8 3 15 1l18-7c3-1 10-2 13-1l14 6 16 2 11 10 11 13 6 10c1 7 3 20 1 27-1 3-4 10-7 12s-12 3-17 2l-13-6-10-10c-3-3-7-11-11-11q-5 0-8 3-4 4-5 9l1 8 13 27 11 10c2 3 8 9 9 13l2 5 3 15-3 10-5 8c-5 3-18 1-24 1l-11-1-5-3v4l2 9 2 12q0 4-3 8l-11 5c-3 1-11 3-14 2-4 0-9-6-12-6-3 1-4 7-6 9s-9 4-13 4l-10-1-8-6c-5-3-14-8-18-12a142 142 0 0 1-28-41c-7-13-24-53-24-53z" class="v w"/><g class="z"><path stroke-width="3" d="M363 378c0 12-33 1-43 1-16 1-46 12-59 20-8 5-24 18-31 25-7 5-22 15-28 21a338 338 0 0 0-52 62l-5 10c-1 8 2 25 4 33l6 38c2 7 5 20 8 26 5 10 7 12 13 21l19 14 18 8c8 0 0-11-1-14q-3-6-4-13-2-8-1-15l9-15a494 494 0 0 1 46-52l12-11 11-11 15-11q5-4 12-3c8 1 2 2 9 1l12-2c5-1 6-4 12-5 4 0 19 0 24 5"/><path d="M618 492c-6 20 5 63 8 84 4 24 4 75 8 99 2 9 2 30 9 35 4 3 15 2 20 1 10-1 29-3 39-6 9-3 32-9 37-17 2-3 1-11 0-15-2-6-10-18-13-24a193 193 0 0 1-16-73l7-30c3-7 2-25 9-27s20 17 20 17-10-38-1-45c2-2 12 7 12 7s-4-20 1-23c11-5 34 31 34 31s-4-46 7-54c5-4 23 9 23 9s-5-21-11-25c-4-3-17-4-21-7-3-3-3-12-6-15-3-4-14-7-19-9l-19-11-19-4c-9 0-26-2-34 1-29 14-67 71-75 101z" class="v"/></g><path d="m568 553 31-63-82 12z" class="w"/><path fill="#ec0d0b" d="M590 503h18l-20 27-16-6zm-76 15 17-13 17 21-16 7z" class="v"/><path fill="#fff" d="m646 528-31-67-43 45zm-161 35 54-53-61-20z" class="AA"/><g class="w"><path stroke-width="3" d="M706 317c6 1 21 4 26 8 3 2 5 9 6 11l-1 13q-1 5-4 8-5 4-11 5h-13l-20-6c-5-4-15-14-15-19s5-14 10-16c4-3 16-4 22-4z"/><path d="M394 111c32-12 103-8 137-3 17 2 52 6 68 12 14 6 40 23 49 35 12 14 28 48 34 66 6 19 13 58 18 78l19 84c2 13-1 43 9 51 5 4 25-6 28 0 7 10-19 29-29 35a326 326 0 0 1-168 42c-18 0-54 2-72 0a308 308 0 0 1-107-36c-8-5-21-16-27-22-5-5-15-16-18-22-2-5 0-20-6-21-4-1-6 10-9 13q-6 4-12 4c-5 0-15-5-18-9-3-3-5-12-4-16 0-4 5-10 4-13-1-5-10-10-14-14-4-3-11-13-14-18-4-7-13-24-11-32 4-17 37-39 46-54 7-11 7-38 10-51 3-15 15-43 23-55 12-17 45-46 64-54z" class="AC"/></g></g><path d="m358 347 6-9c1-2 8-4 8-4l-8 5zm4 145s-7-5-12-11c-5-7-8-21-8-21s7 15 12 21zm14-146 4-10 8-7-7 7zm-8-19 9-5 10 1h-9zm94-163s41 6 53 11c11 4 33 14 45 16l37 1c11 0 33-3 44-2l20 6-28-2h-20l-22 1-20-1-18-2c-10-3-29-11-39-13zm-31-13s39-5 52-3l40 8 39 13 35 3 29 3s-33 0-44-2l-21-2c-7-1-20-7-26-9l-44-10c-5-1-17-2-22-1zm-67 24s14-19 20-24c7-5 31-14 31-14s-23 11-30 16c-6 4-21 22-21 22m2 13s18-24 26-30c9-7 40-18 40-18s-30 13-39 20c-8 6-27 28-27 28" class="t"/><g class="t"><path d="M475 387c-4 6-14 16-17 22l-10 19-13 38 22-46c4-9 18-25 25-32l24-28s-14 6-17 10zm22-2-17 16-9 14-15 29 23-34c4-7 17-19 24-25l23-20s-13 4-16 7c-4 2-10 9-13 13m168-13 12 16 7 14 11 29-17-34c-3-7-13-19-18-24l-17-20s10 3 12 6zm-20 6 14 11 9 10 14 22-21-25c-4-5-15-13-20-17l-19-14 12 4zm-156 69s36-19 49-20c12-1 36-1 48 1 15 2 60 17 60 17s-29-5-38-8a152 152 0 0 0-64-6z" class="t"/><use xlink:href="#M" class="t"/><use xlink:href="#M" class="t"/><path d="M460 485s31 17 41 19l34 6c12 2 77-5 77-5l-60 5a211 211 0 0 1-47-7z" class="t"/><path d="M460 485s31 17 41 19l34 6c12 2 35 1 35 1l-18-1a211 211 0 0 1-47-7zm-104-60 35 34 35 26 28 14s-16-5-20-8l-22-13-33-26z" class="t"/></g><g class="u w x AB"><path d="M634 336c-4 2-10 11-9 15s8 11 11 13l10 5 18 1 14-3c4-1 12-2 15-5l9-9 6-8 5-11c0-3 0-10-3-12-8-4-26 4-35 6-10 2-32 2-41 8z"/><path d="m411 329-10 5c-3 2-9 7-10 10-1 4 0 12 2 16l11 14c3 3 11 7 15 9l17 7 22 1 21-5 11-9 14-10 8-9 7-9 7-8 12-7q7-1 14 1l11 5q3 1 3 4h-2l-2-2-1-2-3-1-5-2-6-1-6-1-8 3-9 6-7 9-2 5-1 6 1 5 4 5 5 2 7-5 8-5 12 4 13 8 10 8 12 11c4 2 12 5 16 5l16-4 9-3q5-4 8-9l1-11 1-19a115 115 0 0 0-13-32l-9-14-9-14-10-13-9-10q-2-6-8-9c-2-2-8-2-10-1q-6 1-10 5l-10 11-8 9-15 7c-8 3-25 6-33 8-21 5-62 18-82 26z"/></g><g fill="#fff" class="u AB"><ellipse cx="456" cy="291" rx="72" ry="77"/><ellipse cx="657" cy="278" rx="68" ry="72"/></g><ellipse cx="431" cy="316" rx="21" ry="34" transform="rotate(-12 432 316)"/><ellipse cx="685" cy="257" rx="18" ry="30" transform="rotate(-37 685 257)"/><g fill="#fbbf05" class="u x"><path stroke-width="3" d="M368 268s-3-54 3-64c7-13 27-26 39-27 11-1 33 9 42 14l32 23c7 5 21 16 30 18 5 2 16 3 20 1s8-15 8-15 13 18 12 24c-2 5-7 15-13 17-7 3-24 0-31-2-10-4-29-15-39-20-11-6-28-11-41-14-8-1-23 5-30 9-11 7-32 36-32 36z"/><path stroke-width="2" d="M720 243s2-32-5-40c-6-7-20-22-29-23-8-1-22 1-28 5l-24 20c-5 4-15 14-22 16-3 1-11 3-14 1-3-3-6-14-6-14s-10 16-8 21c0 4 5 14 9 15 5 3 17 0 22-2 8-3 22-12 29-17 8-5 22-14 31-16 6-2 18 5 23 8 8 6 22 26 22 26z"/><path d="M315 163c9-6 1-30 6-40s28-23 39-27a495 495 0 0 1 98-25l64-13c20-4 61-13 82-12 16 0 50 5 63 13q7 5 10 13l13 17c4 7 10 22 12 30 1 5 4 14 4 19 0 4-2 12-4 15-2 5-6 15-10 17-6 3-21 3-27 2s-18-1-24-4l-22-12c-9-5-29-12-39-13l-49-7c-17-2-50-2-67-3-14 0-43-3-57-2-8 1-25 3-33 6-7 2-19 8-24 13-3 3-9 9-9 13-1 4 2 12 3 16 2 5 9 14 10 19v12c-1 5-7 15-9 20l-7 18-4 24 1 25 4 18 5 15c1 3 3 11 2 15-1 5-4 15-9 17-4 2-13 1-16-1-3-3-3-12-4-16l-5-16c-3-4-8-14-12-17-3-2-11-5-15-5-5-1-15 0-19 2-4 3-10 11-11 15-1 5 6 19 1 22-4 3-16-7-19-11-4-5-17-14-14-19 2-6 20-1 24-6 1-3-8-9-7-12 1-4 17 1 19-3 3-6-16-13-16-19 1-5 16-5 18-10 3-5-7-16-10-21s-10-17-8-23c2-5 11-13 17-13 4 0 11 9 15 7 4-3-2-13-4-16l-15-14c-4-4-13-12-15-17-3-4-7-15-6-20 0-7 4-22 10-27 5-5 24-19 29-13 4 5-9 16-12 22-2 3-6 13-3 17 3 5 17 6 23 8 8 3 27 12 33 7z" class="AC"/></g><path d="M527 375c1-2 9-9 14-8s22 9 22 11-14 2-21 1c-5 0-16-2-15-4"/><path d="m295 376-10-10-8-8-6-12c0-4 4-11 6-13s10-1 14 1 12 10 14 12l6 11-9-2-8-2c-2 1-3 7-3 9zm7 15 9 3 4-3v-8l-5-6-4-8c1-3 8-7 8-7l2 5-2 7 4 6 2 8-1 8-5 3-7-1c-2-1-5-7-5-7" class="t"/><path d="M447 462s14-16 20-19l18-12a230 230 0 0 1 56-20c9-1 25 0 34 1l29 6 35 7 32 6 33 1 36 1 12-1s-18 6-25 6l-14 1a604 604 0 0 1-78-5l-21-5-22-6c-6-1-19-4-26-4-7-1-22 0-29 1l-34 10-22 10z"/><path d="M618 537s-1 8-6 16c-4 8-18 19-18 19l16-22zm-95 88-2 24c-2 12-9 28-9 28l8-33zm194-131s3 12 4 25c0 12-5 30-5 30l2-35zm-105 35-5 7c-3 3-12 6-12 6l11-8zm-2-8-5 6c-3 3-12 7-12 7l11-8zm-66 42h-9l-20-10 19 8zm74 98s0 3-4 6c-3 4-13 10-13 10l12-10z" class="t"/><g class="u x"><g fill="#c1b3b7"><path stroke-width="3" d="M300 963s55-1 56-16c1-9-14-29-23-30-15-1-33 46-33 46z"/><path stroke-width="2" d="M254 948s47 5 49-8c1-8-11-27-18-29-13-3-31 37-31 37z"/><path d="M526 956s-13-45-27-44c-8 1-24 18-23 26 2 13 49 18 49 18z" class="AD"/><path stroke-width="2" d="M421 612s7-36-3-40c-6-2-24 5-26 11-3 9 29 29 29 29zm315-12s31-16 27-25c-2-5-17-13-23-11-9 4-4 36-4 36zm69 69s21-30 13-37c-4-4-22-4-27 0-6 8 14 37 14 37zm42 20s22-30 14-37c-5-4-23-4-27 0-7 8 14 37 14 37zm37-20s24-28 17-36c-4-4-22-6-27-2-8 7 10 38 10 38zm-472 2s-23-37-34-32c-7 3-17 21-14 28 5 11 48 4 48 4zm-53 46s-11-32-21-31c-6 1-18 13-18 19 0 10 39 12 39 12zm-45 7s-8-28-17-27c-5 0-16 10-16 15-1 8 33 12 33 12z"/><path d="M714 924s-16-44-30-41c-8 1-23 19-21 27 3 13 51 14 51 14z" class="AD"/><path stroke-width="3" d="M778 919s-22-44-36-40c-8 2-21 21-19 29 5 13 55 11 55 11zm-304 53s-11-55-28-55c-10 1-30 19-30 28 1 16 58 27 58 27z"/></g><g fill="#ec0d0b"><path d="m553 552-1 27-21 85 37 44 33-45-25-114z" class="AA"/><path d="m559 521 38-1-19 39-13-3c-4 0-15 5-15 5l-25-31z" class="v"/></g><path fill="#fff" d="M491 428s-7-17-3-22c3-4 21-6 25-2 3 3 0 16 0 16z" class="v"/></g><path d="m327 917 5-8 9-6-8 7zm96-29 10 9 9 15-10-14zm185 4 5 4 6 4-6-5zm34-53 22 17 20 22-22-22zM292 688l-22-24-15-26 17 26zm-9-28 11-8 11-6-11 6zm-3-6 11-8 11-5-12 6zm-5-5 13-9 13-6-14 7zm26 254 10 6 7 7-8-7zm62 22-9-6-8-7 9 7zm-59-27 9 6 8 7-8-7zm2-6 11 7 9 9-10-9zm346-34-10 8-10 5 10-6zm4 5-11 8-10 5 11-6zm4 5-12 9-12 6 13-7zm47-15-10 7-9 5 10-6zm4 3-9 7-10 5 10-5zm5 4-11 8-11 6 12-7zm28-12-8 4-7 2 8-3zm2 3-7 4-7 3 7-4zm3 3-8 5-8 3 8-4zm-7-309 8 5 6 5-7-5zm2-4 9 5 6 5-7-5zm3-4 9 6 8 6-8-6zm158 46h-12l-10 2 11-2zm-1-6h-12l-10 2 11-1zm0-6h-14l-12 3 13-2zm-66 38h14l12 3-13-2zm0-6h13l13 3-13-2zm-2-7h16l15 3-16-2zm-37 0 11 1 10 3-10-3zm0 16 9 1 7 3-8-2zm41 17h11l9 1-10-1zm46-26 9-1 9 1-9-1zm-86-12 11 1 10 3-10-3zm0-6 14 2 11 3-12-3zm-477 44 11-11 10-7-11 8zm-2-6 10-11 10-7-11 8zm-5-7 13-12 11-8-12 9zm69-101-5 9-6 7 6-8zm5 3-5 8-6 7 6-7zm5 1-6 11-7 8 7-9zM242 678l9-7 8-5-8 5zm24 18 6-6 6-4-7 5zm36-15 9-7 9-5-9 5zm39-35 6-9 7-7-7 8zm-102 28 9-7 8-5-9 5zm-4-4 10-8 10-6-10 6zm97-8-23-32-14-29 15 28zm538-29-1-41c-3-15-8-27-8-27l10 24c2 6-1 44-1 44m-43-55v24l-2 24 1-24zm-34-17 5-8 3-6-3 6zm-37-29v-3l15-16v1zm-412 37-1-9 1-8-1 8zm15-9-6-5-3-5 4 5zm347 286 18 13 17 16-19-16zm-239 87-6-7-4-10 5 9z" class="t"/><text class="z" font-family="AcademyEngravedLetPlain" font-size="11" transform="translate(929 994)">HNFT PEPE</text><defs><path id="B" d="m289 417 1-1v-7h3v1h-1l1 6v6h-3v-4z"/><path id="C" d="m246 417 1-1v-7h3v1h-1l1 6v6h-3v-4z"/><path id="D" d="M215 417v-1l1-6h-1v-1h3v1h-1l1 6 1 1-1 1v4h-3z"/><path id="E" d="m711 417-1-1v-7h-3v1h1v6l-1 1v5h3v-4z"/><path id="F" d="M748 417v-1l-1-6h1v-1h-3v1h1l-1 6-1 1 1 1v4h3z"/><path id="G" d="m780 417-1-1v-6h1v-1h-3v7l-1 1 1 1v4h3z"/><path id="H" d="m219 545 2-1v-3h34v3l1 1 2-1v-83h-41v83z"/><path id="I" d="m261 575-18-11a10 10 0 0 0-10 0l-19 11q-3 3 2 5v9l2 2 1-2v-9h38v9l1 2 1-2v-9h1q5-2 1-5"/><path id="J" d="m150 545 1-1v-3h34v3l2 1 1-1v-83h-40v83z"/><path id="K" d="m255 588-1-1v-9h3v9z"/><path id="L" d="M257 575h-44l19-11 3-1 4 1z"/><path id="M" d="M504 466s41 27 53 28c10 0 32 1 42-1 14-2 84-30 84-30l-64 22-25 6c-8 0-24 2-32-1-12-3-58-24-58-24"/></defs></svg>