<svg xmlns="http://www.w3.org/2000/svg" width="400" height="560" xmlns:v="https://vecta.io/nano"><path d="M0 0h400v560H0z"/><path d="M20 523.73V36.27A10.17 10.17 0 0 1 30.17 26.1h339.66A10.17 10.17 0 0 1 380 36.27v487.45a10.17 10.17 0 0 1-10.17 10.17H30.17A10.16 10.16 0 0 1 20 523.73z" fill="#fc1a05"/><path d="M42 347.35h316v172H42z" fill="#7a53aa"/><path d="M42 44.64h316v473.43H42z" fill="none" stroke="#000" stroke-width="5" stroke-miterlimit="10"/><radialGradient id="A" cx="180.817" cy="218.895" r="220.791" gradientTransform="matrix(1.1328 0 0 0.7868 -5.4203 49.3965)" gradientUnits="userSpaceOnUse"><stop offset="0" stop-color="#065e2e"/><stop offset=".253" stop-color="#054b25"/><stop offset=".764" stop-color="#02190c"/><stop offset="1"/></radialGradient><path d="M40.82,77.21H358V332.7H40.82V77.21z" fill="url(#A)"/><path d="M25 354.52h0c0-13.25 10.75-24 24-24h302c13.25 0 24 10.75 24 24h0c0 13.25-10.75 24-24 24H49c-13.25 0-24-10.74-24-24z"/><path d="M31.18 355.52v-2a18.5 18.5 0 0 1 18.5-18.5h300.65a18.5 18.5 0 0 1 18.5 18.5v2a18.5 18.5 0 0 1-18.5 18.5H49.68a18.5 18.5 0 0 1-18.5-18.5z" fill="#fc1a05"/><path d="M35.81 354.52h0a16 16 0 0 1 16-16h296.38a16 16 0 0 1 16 16h0a16 16 0 0 1-16 16H51.81a16 16 0 0 1-16-16z" fill="#f3f2e9"/><path d="M25 57.71h0c0-13.25 10.75-24 24-24h302c13.25 0 24 10.75 24 24h0c0 13.25-10.75 24-24 24H49c-13.25 0-24-10.75-24-24z"/><path d="M31.18 58.71v-2a18.5 18.5 0 0 1 18.5-18.5h300.65a18.5 18.5 0 0 1 18.5 18.5v2a18.5 18.5 0 0 1-18.5 18.5H49.68c-10.22 0-18.5-8.29-18.5-18.5z" fill="#fc1a05"/><path d="M35.81 57.71h0a16 16 0 0 1 16-16h296.38a16 16 0 0 1 16 16h0a16 16 0 0 1-16 16H51.81c-8.84 0-16-7.17-16-16z" fill="#f3f2e9"/><text transform="matrix(1.0294 0 0 1 92.699 69.8684)" font-family="AcademyEngravedLetPlain" font-size="35.163">SUMO PEPE</text><text transform="matrix(.8327 0 0 1 73.1182 361.3896)" font-family="ArialMT" font-size="19.648">= 37   Atk = 96  Spd = 17  Ele = strength</text><g fill="#e30206"><path d="M61.4 365.62l.18-15.82s-4.34-5.6-7.76-1.79c-4.4 4.87 7.58 17.61 7.58 17.61z"/><path d="M61.29 365.35l-.46-15.56h1.27v14.65z"/><path d="M61.4 365.62l.1-15.82s4.34-5.6 7.76-1.79c4.4 4.87-7.86 17.61-7.86 17.61z"/></g><path d="M71.41 518.07l20-46.24h216l20 46.24z"/><path d="M87.91 525.51l10.67-45.06h201.66l11.67 46z" fill="#fc1a05"/><text transform="matrix(1.0294 0 0 1 99.6579 514.8252)" font-family="Impact" font-size="26.924">THE UNPRUNABLES</text><path d="M121.64,227.86h157.68v50.26H121.64V227.86z" fill="#065e2e"/><path d="M141.63 154.79c18.38-20.08 96.08-18.3 116.75 0 14.63 12.95 0 73.07 0 73.07H141.63c0 0-13.02-58.93 0-73.07z" fill="#005e2b"/><path d="M96,294.28h208v36.24H96V294.28z" fill="#0c5e30"/><path d="M257.71 227.86l3.89-16.16s26.3 16.04 28.05 23.29c1.21 5.47 7.78 27.21 7.78 27.21l-9.8-8.79s6.98 14.14 6.04 19.01c-.94 4.52-13.55 16.87-13.55 16.87l-2.28-8.67s-2.55 9.39-5.64 12.12c-5.1 4.4-22.41 10.34-28.99 14.26-4.43 2.73-13.29 8.67-13.82 12.12-.4 1.9 4.03 7.25 4.03 7.25s-29.52-1.19-37.84-3.56c-10.06-2.85-31.4-16.87-31.4-16.87l1.88 8.55-22.01-9.39c-4.16-2.38-11.41-7.72-13.82-10.69-2.82-3.45-6.84-14.26-6.84-14.26l-4.16 8.67s-9.13-12.24-9.39-16.52c-.4-4.63 7.25-18.54 7.25-18.54l-14.49 8.08 12.88-29.59c1.61-6.42 23.22-19.72 23.22-19.72l2.82 15.21s-8.86-.48-11.81 1.9c-6.04 5.94-2.55 15.8 4.16 19.25 5.9 2.97 20.53 6.89 28.31 7.96 10.47 1.54 29.66 2.61 39.99 3.21 11.67.59 35.56-1.66 45.09-4.4 5.64-1.66 17.31-4.87 20.4-7.84 4.16-4.16 5.64-11.76 3.09-16.75-1.5-2.49-13.04-3.21-13.04-3.21zm-62.67-75.8l-2.68-8.44c-.94-2.14-3.89-5.94-4.83-8.08-1.07-2.5-2.15-7.6-2.42-10.22-.27-2.61.4-7.84 1.07-10.34s2.95-7.37 3.76-9.74c1.07-2.97 2.68-9.27 4.56-12 1.61-2.26 8.59-7.72 8.59-7.72s1.74 7.49 1.48 10.1c-.27 2.61-2.55 7.72-2.28 10.34.13 1.43 2.15 5.35 2.15 5.35l1.74-5.47 2.28-5.23 3.09 7.25a95.51 95.51 0 0 1 2.68 8.79c.42 2.16.65 4.34.67 6.53 0 1.66-.81 8.91-.81 8.91l-1.07 8.08c-.56 2.44-1.37 4.82-2.42 7.13-.67 1.19-3.49 4.52-3.49 4.52l-12.07.24z"/><path d="M194.5 203.39l-42.27-16.63v33.27l42.27-16.64zm11.41 0l42.27 16.63v-33.27l-42.27 16.64z" fill="#fff"/><path d="M216.64 207.54l24.15 9.51v-19.01l-24.15 9.5zm-32.87 0l-24.15-9.51v19.01l24.15-9.5z"/><path d="M138.28 322.2h10.06v8.32h-10.06v-8.32zm113.39 0h10.06v8.32h-10.06v-8.32z" fill="#063a1c"/><path d="M153.44 178.08l45.22-6.89 47.77 8.08-48.18-10.69-44.81 9.5zm9.93-6.66l35.29-7.01 38.11 7.84-38.38-10.46-35.02 9.63z"/><path d="M163.37 171.42l35.29-7.01 38.11 7.84-38.38-10.46-35.02 9.63z"/><path d="M146.19 242c-1.61-.95 0-5.35 0-5.35h103.33s1.48 4.4 0 5.35c-16.24 11.65-85.08 10.58-103.33 0z" fill="#fc2a12"/><path d="M265.22 240.69l-26.84-9.15c-9.26-2.38-19.19-3.33-28.99-1.43m-74.6 10.58l26.84-9.15c9.26-2.38 19.19-3.33 28.99-1.43"/><text><tspan font-family="Arial-BoldMT" font-size="30.38" x="100.433" y="415.051">“Can’t you do</tspan><tspan x="72.583" y="451.511" font-family="Arial-BoldMT" font-size="30.38">better than that?”</tspan></text></svg>