<svg width="630" height="630" viewBox="0 0 630 630" xmlns="http://www.w3.org/2000/svg"><filter id="b"><feTurbulence baseFrequency=".01"/><feDisplacementMap in="SourceGraphic" xChannelSelector="B" yChannelSelector="G" scale="30"/></filter><filter id="a"><feTurbulence numOctaves="5" baseFrequency=".3"/><feDisplacementMap scale="34"/></filter><path d="M0 0h960v960H0z" fill="#7C8483"/><path d="M4 50h900v970l30 2v35l110 2-2 2100 90-30" style="filter:url(#a)"/><g style="filter:url(#b)" class="li" fill="none" transform="scale(1 2)" stroke-width="48"><path stroke="#1A44f1" d="M-125 434c71 58 140 90 229 75s311 5 355 34 163-28 182-58-139-67-209-61-239-23-165-45 369-58 349-101c-20-44-134-23-254-7s-240 43-309-4c-69-46-843-572-827-614C-758-388-9 71 90 110c102 43 188 54 183-19-5-72 33-156 89-75s83 186 168 120 866-267 931-218"/><path stroke="#AF6648" d="M-140-61C-114 17-67 80 14 68 428-90 388-24 355 31c-34 55-88 162-30 121s110-78 98-29-126 122-34 96 515 215 242-4C497 108 453 80 748-69"/><g stroke="#FFF"><path d="M149-51c-32-9-93 5-119 67C4 77-113 139-51 118 10 97 96 37 116 84s-61 73-4 106 67 97 88 102"/><path d="M405 380c71 102-144 117 49 114 391-9 244-306 153-343-182-75-19 118-70 87-111-68-49 71-107 16s-82-156-82-93 2 156-27 114c-51-75-71-347-216-381"/></g><path d="M-80-62C30-49 9 61 42 73s145-41 127-17-106 79-65 77c40-1 138-57 102-9-63 84 62-11 56 66-7 84 144-2 152-21 13-29-175-133-155-128 51 13 100 45 146 46 70 2 166-266 166-266M208 322c21-23 27-31 47-23 43 17 5 30-27 31" stroke="#67974C"/></g><path fill="#fff" d="M435 580h195v130H435z"/><text x="443" y="603" font-size="18">The Original Stamp</text><text x="443" y="623" font-size="14">https://xchain.io/tx/2182337</text></svg>