<svg xmlns="http://www.w3.org/2000/svg" width="690" height="690" shape-rendering="geometricPrecision" image-rendering="optimizeQuality" fill-rule="evenodd" xmlns:v="https://vecta.io/nano">
	<style>#AA{transform-origin:center;animation:quantum-rotate 0.08s linear infinite, color-shift 0.05s linear infinite} @keyframes quantum-rotate{0%{transform:rotateX(0deg) rotateY(0deg) rotateZ(0deg) scale(1) skew(0deg, 0deg)}2.38%{transform:rotateX(15deg) rotateY(30deg) rotateZ(45deg) scale(1.1) skew(5deg, -5deg)}4.76%{transform:rotateX(30deg) rotateY(60deg) rotateZ(90deg) scale(0.9) skew(-5deg, 5deg)}7.14%{transform:rotateX(45deg) rotateY(90deg) rotateZ(135deg) scale(1.2) skew(10deg, -10deg)}9.52%{transform:rotateX(60deg) rotateY(120deg) rotateZ(180deg) scale(0.8) skew(-10deg, 10deg)}11.90%{transform:rotateX(75deg) rotateY(150deg) rotateZ(225deg) scale(1.1) skew(5deg, -5deg)}14.28%{transform:rotateX(90deg) rotateY(180deg) rotateZ(270deg) scale(1) skew(0deg, 0deg)}16.66%{transform:rotateX(105deg) rotateY(210deg) rotateZ(315deg) scale(0.9) skew(5deg, 5deg)}19.04%{transform:rotateX(120deg) rotateY(240deg) rotateZ(360deg) scale(1.1) skew(-5deg, -5deg)}21.42%{transform:rotateX(135deg) rotateY(270deg) rotateZ(405deg) scale(1.2) skew(10deg, -10deg)}23.80%{transform:rotateX(150deg) rotateY(300deg) rotateZ(450deg) scale(0.8) skew(-10deg, 10deg)}26.18%{transform:rotateX(165deg) rotateY(330deg) rotateZ(495deg) scale(1.1) skew(5deg, -5deg)}28.56%{transform:rotateX(180deg) rotateY(360deg) rotateZ(540deg) scale(1) skew(0deg, 0deg)}30.94%{transform:rotateX(195deg) rotateY(390deg) rotateZ(585deg) scale(0.9) skew(-5deg, 5deg)}33.32%{transform:rotateX(210deg) rotateY(420deg) rotateZ(630deg) scale(1.2) skew(10deg, -10deg)}35.70%{transform:rotateX(225deg) rotateY(450deg) rotateZ(675deg) scale(1) skew(0deg, 0deg)}38.08%{transform:rotateX(240deg) rotateY(480deg) rotateZ(720deg) scale(0.8) skew(-10deg, 10deg)}40.46%{transform:rotateX(255deg) rotateY(510deg) rotateZ(765deg) scale(1.1) skew(5deg, -5deg)}42.84%{transform:rotateX(270deg) rotateY(540deg) rotateZ(810deg) scale(1) skew(0deg, 0deg)}45.22%{transform:rotateX(285deg) rotateY(570deg) rotateZ(855deg) scale(0.9) skew(-5deg, 5deg)}47.60%{transform:rotateX(300deg) rotateY(600deg) rotateZ(900deg) scale(1.1) skew(5deg, -5deg)}49.98%{transform:rotateX(315deg) rotateY(630deg) rotateZ(945deg) scale(1.2) skew(10deg, -10deg)}52.36%{transform:rotateX(330deg) rotateY(660deg) rotateZ(990deg) scale(0.8) skew(-10deg, 10deg)}54.74%{transform:rotateX(345deg) rotateY(690deg) rotateZ(1035deg) scale(1.1) skew(5deg, -5deg)}57.12%{transform:rotateX(360deg) rotateY(720deg) rotateZ(1080deg) scale(1) skew(0deg, 0deg)}59.50%{transform:rotateX(375deg) rotateY(750deg) rotateZ(1125deg) scale(0.9) skew(5deg, 5deg)}61.88%{transform:rotateX(390deg) rotateY(780deg) rotateZ(1170deg) scale(1.1) skew(-5deg, -5deg)}64.26%{transform:rotateX(405deg) rotateY(810deg) rotateZ(1215deg) scale(1.2) skew(10deg, -10deg)}66.64%{transform:rotateX(420deg) rotateY(840deg) rotateZ(1260deg) scale(0.8) skew(-10deg, 10deg)}69.02%{transform:rotateX(435deg) rotateY(870deg) rotateZ(1305deg) scale(1.1) skew(5deg, -5deg)}71.40%{transform:rotateX(450deg) rotateY(900deg) rotateZ(1350deg) scale(1) skew(0deg, 0deg)}73.78%{transform:rotateX(465deg) rotateY(930deg) rotateZ(1395deg) scale(0.9) skew(-5deg, 5deg)}76.16%{transform:rotateX(480deg) rotateY(960deg) rotateZ(1440deg) scale(1.1) skew(5deg, -5deg)}78.54%{transform:rotateX(495deg) rotateY(990deg) rotateZ(1485deg) scale(1.2) skew(10deg, -10deg)}80.92%{transform:rotateX(510deg) rotateY(1020deg) rotateZ(1530deg) scale(0.8) skew(-10deg, 10deg)}83.30%{transform:rotateX(525deg) rotateY(1050deg) rotateZ(1575deg) scale(1.1) skew(5deg, -5deg)}85.68%{transform:rotateX(540deg) rotateY(1080deg) rotateZ(1620deg) scale(1) skew(0deg, 0deg)}88.06%{transform:rotateX(555deg) rotateY(1110deg) rotateZ(1665deg) scale(0.9) skew(5deg, 5deg)}90.44%{transform:rotateX(570deg) rotateY(1140deg) rotateZ(1710deg) scale(1.1) skew(-5deg, -5deg)}92.82%{transform:rotateX(585deg) rotateY(1170deg) rotateZ(1755deg) scale(1.2) skew(10deg, -10deg)}95.20%{transform:rotateX(600deg) rotateY(1200deg) rotateZ(1800deg) scale(0.8) skew(-10deg, 10deg)}97.58%{transform:rotateX(615deg) rotateY(1230deg) rotateZ(1845deg) scale(1.1) skew(5deg, -5deg)}100%{transform:rotateX(630deg) rotateY(1260deg) rotateZ(1890deg) scale(1) skew(0deg, 0deg)}} @keyframes color-shift{0%{fill:#39FF14}@comment25%{fill:#Ff6600}@comment50%{fill:#000000}@comment75%{fill:#FFFFFF}@comment100%{fill:magenta}@comment}</style>
	<path d="M0 0h690v690H0z" stroke="#000" stroke-width="2" stroke-miterlimit="2.61313"/>
	<path id="AA" d="M479.1 289.27c-15.44 10.39-35.4 27.31-56.83 19.69-34.49-12.26-53.54-55.2-51.02-89.83 1.23-16.96 7.07-51.43 13.9-63.67 5.16 17.57-4.96 58.57.76 88.53 4.18 21.84 23.11 48.8 44.09 54.91 14.96 4.35 22.79-7.79 33.13-14.48 7.65-4.93 23.42-14.31 27.83-21.44 15.97-25.82-16.21-59.51-32.32-102.86-4.3-11.57-9.17-22.33-18.93-29.93-10.17-7.93-64.7-22.78-80.73-24.92-42.08-5.63-100.23 6.64-125.77 40.56-3.86 5.14-7.8 8.74-9.8 15.95 9.52 5.52 11.74 5.33 17.16 14.25-6.05 1.9-44.65-15.08-61.17-14.69 5.24 5.46 13.59 11.79 9.69 22.92-2.35 6.68-13.59 15.12-17.98 18.43-18.91 14.27-33.32 1.13-40.8-17.26-9.57 13.73-3.77 41.2 1.58 52.67 14.06 30.11 39.84 46.73 67.82 63.21 8.17 4.81 34.99 23.81 37.23 29.52-9.67-1.22-16.29-6.66-24.7-10.4 1.25 9.09 3.27 13.4 3.58 24.55.67 24.41 6.1 43.17 2.93 51.01 19.25-4.35 21.82-26.89 49.72-14.81 17.91 7.75 32.31 20.41 39.34 33.74 3.22 6.11 7.91 16.97 10.17 24.46 8.29 27.38-3.9 71.49-10.99 97.17-8.71-8.75 5.9-65.97-1.36-94.83-3.31-13.13-10.67-26.94-17.75-33.38-7.5-6.83-20.99-17.82-33.13-21.52-10.7 3.76-14.42 9.22-23.74 14.72-38.14 22.52-54.37 25.8-27.81 73.87 2.59 4.68 4.41 8.38 6.51 12.35 15.03 28.4 22.51 55.31 41.14 68.47 26.72 18.86 87.15 33.27 126.38 28.1 42.31-5.58 72.8-25.27 92.28-55.95-1.32-1.35-1.14-1.41-3.31-2.92l-18-13.24c3.69-1.43 7.95.49 11.7 2.07 21.17 8.92 42.72 13.23 65.87 15.02 11.08.85 15.55-.04 23.82-3.88l-2.12-5.02c-4.3 1.49-23.26-.68-28.64-2.4-4.86-1.54-1.15-2.28-8.25-3.14l.54 7.55c-20.15-7.62-4.79-28.66 12.03-38.89 23.74-14.43 31.41 10.57 40.23 17.64 6.02-32.58-7.47-62.97-23.66-78.98-13.51-13.37-31.14-23.36-48.67-33.53-6.08-3.53-11.51-8.78-15.9-11.28l-14.25 5.6c-2.75 16.56 11.69 34.02 20.72 39.15 5.6-2.84 8.81-9.16 18.29-5.65 4.48 1.65 10.71 8.23 15.55 11.5 4.99 3.37 8.7 7.98 13.64 12.82 4.81 4.72 8.68 6.35 8.62 15.83-12.34-2.51-13.16-17.53-56.37-19.06-23.13-.82-34.59 11.8-53.81 11.15 3.25-4.41.88-9.44-1.18-13.69-12.2-1.46-11.58 6.02-10.07 16.57 4.27.08 4.2.08 8-1.55-15.5 9.35-31.29 21.59-46.42-16.43-17.81-44.75-1.11-108 36.62-107.73 6.08.04 12.35 4 17.13 4.04 5.38.04 13.44-9.58 44.42-11.93.15-7.6.85-21.69 3.06-28.73zm9.46-3.82c-.7 11.19-2.69 21.89-4.15 32.18 15.66 4.03 44.75 9.46 38.82 28.75-4.93 16.03-23.47 20.4-34.85 28.41 4.14 4.73 7.72 5.54 14.09 8.19l15.14 7.98c33.04 19.57 48.61 36.66 56.82 74.9 5.22 24.32-4.68 60.84-18.01 68.29-16.51 9.23-59.25 7.02-75.42-2.65-3.57 3.44-12.11 18.92-17.73 25.5-12.37 14.48-8.11 12.38-16.73 25.91-8.99 14.12-28.32 37.21-39.62 44.4-22.18 14.12-37.23 11.42-59.83-4.33-8.61-6.01-15.1-11.11-21.93-20.05-12.17-15.93-5.62-9.06-26.87-15.79-19.76-6.25-46.14-15.77-59.18-27.66-18.55-16.91-17.8-30.05-30.02-51.16-5.13-8.86-8.74-17.54-14.61-25.84-5.04-7.11-9.91-17.66-12.79-27.5-9.6-32.84 8.49-35.62 25.88-55.71.9-22.34-3.47-49.58-4.3-73.32-.52-14.88-7.34-15.15-19.3-21.81-35.41-19.72-68.1-47-69.78-93.48-.45-12.44 3.6-24.81 8.15-35.52 11.56-27.18 28.43-25.64 55.14-25.3 13.76.18 25 5.84 35.86 7.24 3.9-18.06 16.07-23.15 25.12-35.79 2.86-4 4.22-9.24 7.35-14.11 11.13-17.33 24.84-33.34 38.36-44.38 33.77-27.58 68.49 12.92 92.22 34.31 5.44 4.89 9.19 3.18 17.03 5.09 8.08 1.97 23.52 7.08 32.18 10.26 39.05 14.38 39.87 34.06 55.15 67.58 11.47 25.15 39.16 56.04 24.93 85.34-4.25 9.47 3.25 4.09-17.12 20.07zm-90.9 58.83c3.89 6.87 11.28 10.28 15.99.52 1.28-2.65 2.64-6.29 3.57-8.16-8.98-7.58-13.68 2.5-19.56 7.64zm30.55 42.14c9.38-.71 13.73-6.68 20.16-11.1 6.12-4.22 15.62-5.3 24.15-7.36 11.52-2.8 35.1-12.49 38.16-25.64-14.87-21.01-47.54-17.08-68.1-6.83-34.89 17.39-20.14 41.83-58.03 27.69-6.97 13.31-3.83 22.86 13.07 26.27 15.65 3.16 25.02-2.69 34.15-8.13l-3.56 5.1zm65.74 40.37c-.4 4.77-1.83 3.25 4.75 6.06 6.76 2.88 6.19-.52 6.76-.98-2.14-2.59-6.05-8.35-11.51-5.08zm-33.26-1.87c-2.37 3.08-7.32 8.62.13 10.91 5.86 1.81 9.58-1.23 12.45-4.13-3.58-3.13-6.25-6.1-12.58-6.78zM327.01 591.74c5.47 12.53 43.32 40.6 62.83 33.08 19.92-7.67 36.46-32.54 48.48-49.34-7.82 3.26-13.73 7.79-22.93 11.05-22.83 8.09-66.16 13.95-88.38 5.21zm54.28-82.73c19.19 8.05 31.87-14.09 36.96-4.98 4.02 7.21-5.99 14.89-9.27 16.99-20.33 13.04-43.21 2.91-51.95-15.47-4.42-9.31-.62-16.55 8.44-8.05 7.02 6.6 5.95 7.38 15.82 11.51zM139.25 170.52c.2-9.68 12.42-10.46 21.71-10.04 9.89.45 23.09 1.31 19.17 12.97-4.3-.45-6.94-2.42-11.14-2.74l-5.37.32c-19.94-3.87-8.83-1.59-24.37-.51zm113.25-56.05c6.91-8.91 13.58-17.83 21.74-26.61 29.15-31.32 36.86-36.92 86.33 7.25-23.53-.87-38.65-3.37-60.8 1.02-21.27 4.21-33.91 13.92-47.27 18.34zm51.65 73.89c9.13-29.31-16.48-37.32-22.98-12.69-6.22 23.57 13.69 42.5 22.98 12.69z" stroke="#000" stroke-width="2" stroke-miterlimit="2.61313" fill="transparent"/>
</svg>