<svg xmlns="http://www.w3.org/2000/svg" viewBox="0 0 102400 102400"><g fill="#fae1dc"><path d="M75536 63087a11973 11973 0 10 23947 0 11973 11973 0 10-23947 0zm-72619 0a11973 11973 0 10 23947 0 11973 11973 0 10-23947 0"/><path d="M12118 59654a40135 40135 0 10 80270 0 40135 40135 0 10-80270 0"/></g><g fill="#200c04"><path d="M87827 41144H16679a39929 39929 0 00-4565 18584 39939 39939 0 00 3040 15332h74197a40017 40017 0 00 3040-15332 40014 40014 0 00-4564-18584zM34336 65048a7067 7067 0 01 0-14132 7067 7067 0 01 0 14132zm34857 0a7067 7067 0 01 0-14132 7067 7067 0 01 0 14132zM22556 32614c6456 3736 16817 6160 28498 6160 12608 0 23667-2823 29954-7074-7296-7510-17494-12184-28790-12184-11750 0-22320 5051-29662 13098"/><path d="M41260 13042a10435 10435 0 10 20870 0 10435 10435 0 10-20870 0"/></g></svg>
