<svg xmlns="http://www.w3.org/2000/svg" width="400" height="560"><path fill="#040403" d="M0 280V0h400v560H0zm209 213q15-7 20-22 3-8-3-11c-3-2-12-3-15-2q-3 1 1 1 8 0 8 11c0 13-10 25-19 25-4 0-11-3-12-5l-1-8q-1-9 3-12l5-7 1-2c-2 0-1-6 1-10l3-6-2 1c-13 10-22 28-20 38 3 12 17 16 30 9m51 1q4 0 2-1l-11 2-8 1c0 1 11 0 17-2m-192 1q-5 0-6-3c-3-2-3-11-2-17 2-8 10-27 15-34q5-6 2-4c-11 6-23 24-26 41q-3 19 17 18h6zm67 0q-9 0-9-4-2-9 1-21c4-13 15-34 19-34l1-1c-1-1-10 5-15 11q-11 12-15 30c-2 8-2 9-1 12l3 4q4 4 14 4 5-1 2-1m-52-4q9-6 17-21c4-8 9-22 9-26 0-7-11-13-19-11h-4l4 1 6 2c4 2 3 19-1 31-3 8-9 19-15 24q-6 6 3 0m65 0q16-11 24-38l3-10c0-2-6-8-11-10h-10q-10 2 0 2c9 0 10 1 10 13a62 62 0 0 1-20 44q-5 4 4-1m138-13q9-10 14-21c4-14-2-25-14-25q-13 0-4 2l7 2c2 2 1 17 0 22l-5 7-2 3 1 4q-1 8-8 15-6 5 1 0zm-21-8q-7 0-5-13 1-13 10-20l2-2-6 3q-23 17-14 29 4 6 13 5l4-1zm51-22 5-4 2-1q6-1 8-5l1-2q3-1 4-7l2-7q1-6 7-5h5c0-2-6-10-8-12l-1-1v11c-1 3-10 4-15 2h-5l-5 1-7 2-3 2q-6 0-2 4 7 7 7 18l1 6zm-80-14q-1-3-10-1l-5 1 8 1zm-91-62-2-6q-1-4-6 2l-9 3-4 1 3 1 10 5 7 4 1-3zm134-2c19-11 40-30 52-48q19-28 27-64A166 166 0 0 0 228 68a156 156 0 0 0-98 15q-25 12-42 31-32 30-43 74a159 159 0 0 0 24 134c6 9 26 31 24 27q-5-11 14-93l6-26c2-1 10-2 13-1q3 1 2 6l-1 4 6 4 8 3q7-1 12-7 6-9-4-8h-7v9h-4q-8 1-7-7 1-3-3-9-4-5-4-8c0-4-4-15-6-18l-2-4-1-2-2 2-3 1c-4 0-4 0-9-10l-5-11 2-11c2-11 3-12 6-16q9-9 18-8h6v5q1 5-3 8-6 4 4 4 8 1 9 4l2 1q2 1 2-9c0-8 0-11 6-29 7-21 11-29 18-37q9-10 22-10c11 0 16 4 25 17q7 12 13 9l5-7 7-9q3-4 8-4c7 0 10 3 19 12 9 8 9 10 9 27l-1 14 6 7c5 6 5 7 5 13s0 6-4 10c-9 9-35 26-46 29q-6 4-1 4 3-2 2 6c-1 7-2 7 19 15 19 7 25 10 29 15 6 7 9 21 11 54l3 28v33c-1 4-2 5-16 11l-8 6c-2 3-3 9-2 9zm-99-36q-1-7-5-6h-4l1 8v9h3q4 1 5-2zm50-44 1-49q-2-11-6-10l-7-3-3-3-5 3q-3 4-8 4-5-1-3 3l4 10 9 24 11 31c5 16 5 16 7-10m31-21c-1-1-11-4-12-3l6 2zm-71-58-2-2q-3-2 0 1 2 4 2 1m-14-14v-6c1-3-20-17-21-16l1 2 6 4q3 3 3 8l1 5 1 4v4h9zm0 0"/><path fill="#EF3617" d="M138 383q-29-12-54-37a158 158 0 0 1-48-111A165 165 0 0 1 231 65a166 166 0 0 1 130 196 168 168 0 0 1-96 120c0-2 4-17 6-19q2-4 11-7l11-6c2-4 2-18 1-29-1-6-3-19-3-29-2-33-5-47-11-54-4-5-10-8-29-15l-18-8c-3-2-3-2-1-11q1-2-3-3-2 1-3-3t3-5c12-4 38-20 47-29 7-7 7-9 1-17-8-10-8-9-7-22v-17c-2-7-18-21-24-21q-4 0-12 12c-4 8-4 8-10 8s-8-2-14-10q-15-23-31-14c-11 5-18 17-27 44-9 26-9 28-5 34 4 5 15 14 25 21l8 5v7q-1 7 1 7l1 1c0 2-6 5-9 4l-8 4q-6 6-5 2l2-6q4-4 0-9l-1-6q2-2-3-6l-5-4-1-1-4-8-5-4-6-3-2-1q-2-3-8-4-3 1-6-1-6-4 0-9 5-3 4-6c-2-3-12 1-18 7q-4 3-6 13l-2 10 5 10 6 9-4-9-3-10 2-7 3-7c3 0 6 9 3 12-1 2 0 9 1 9l1 2c-1 2 2 7 5 7l1 2 2 4c2 2 6 14 6 18l2 6c2 2 2 2-1 8q-4 7-5 5-4-1-7 2a915 915 0 0 0-20 94l-1 14 2 5c3 6 13 15 19 18 8 4 11 4 19-1l7-5q3 1 5 7v20zm0 0"/><path fill="#FEFEFE" d="M61 499q-10 0-12-7c-7-10 5-43 20-55 18-14 44-10 44 7-1 10-9 31-18 41q-12 17-34 14m12-9c10-4 22-26 22-40q0-12-4-12-7-2-13 7c-5 5-13 24-15 31q-1 11 3 14 2 3 7 0m53 9q-10-2-12-7-3-6 0-19c4-19 17-36 29-41q21-7 32 3c4 5 4 9 0 21q-10 32-29 41-10 3-20 2m14-10c10-6 21-28 21-41q0-10-7-10c-7 0-10 3-17 19q-10 19-9 28 3 11 12 4m45 9q-12-8-9-24c5-23 31-44 54-45q12-1 9 6l-1 3h-9q-15 0-22 8c-4 3-8 10-8 12l4-1q17-6 27 0 4 3 4 13-3 11-12 20-10 9-24 10-9 1-13-2m20-8q6-4 9-12 6-9 1-13c-6-8-24 4-24 17q0 6 5 8c5 2 5 2 9 0m35 8v-4q-2-4 6-3c8 1 19-2 24-6 3-2 10-11 10-13l-5 1c-7 2-20 2-23 0q-7-3-7-13 1-13 18-25c11-7 27-9 34-4q7 4 7 18 0 17-15 32a57 57 0 0 1-40 19q-10 0-9-2m38-34 6-6q3-3 3-11 1-10-6-9c-10-1-19 12-18 25 0 5 10 5 15 1m30-17q0-16-13-21l-2-1c0-1 8-7 10-7l4-1 6-2 6-2q6-2 9 1c3 2 9 1 10-2q2-3-1-5-4-8 2-9c3 0 10 7 12 13l3 5-1 10q-3 10-5 12c-4 5-16 14-17 14l8-10 8-9v-6q1-7-2-6c-2 0-6 6-5 9 0 3-3 9-5 9l-1 2c0 2-7 6-8 5l-2 1q-3 5-12 7h-4zm-135-91-7-1-2-1 3-7c2-7 2-10 0-19v-3h14l2 5q3 11-2 20l-3 6zm2-6-1-2q-4 2-3 5 3 2 4-3m51-29-11-31-8-23-10-27q-12-33-22-34-6 0 0-4c4-3 5-3 13 2q6 4 5 7c0 3 3 12 6 16q2 5 10-4l5-4 5 4 9 5q5-1 6 17c1 20-2 75-5 78q-1 1-2-2m28-49c-12-3-11-3-10-6 2-4 2-5 10-3q12 3 11 8c0 4 0 4-11 1m-120-24c-12-6-13-7-11-12v-3l-2-2 6-12 5 4 4 5h10q9-1 11 1c3 3-2 16-8 19s-11 3-15 0m4-13q0-5-4-2v3q3 3 4-1m0 0"/></svg>