<svg xmlns="http://www.w3.org/2000/svg" width="400" height="560" xmlns:v="https://vecta.io/nano"><path d="M0 0h400v560H0z"/><path d="M20 523.73V36.27A10.17 10.17 0 0 1 30.17 26.1h339.66A10.17 10.17 0 0 1 380 36.27v487.45a10.17 10.17 0 0 1-10.17 10.17H30.17A10.16 10.16 0 0 1 20 523.73z" fill="#fc1a05"/><path d="M42 347.35h316v172H42z" fill="#ad9579"/><path d="M42 44.64h316v473.43H42z" fill="none" stroke="#000" stroke-width="5" stroke-miterlimit="10"/><radialGradient id="A" cx="181.208" cy="204.218" r="220.672" gradientTransform="matrix(1.1328 0 0 0.7868 -5.4203 49.3965)" gradientUnits="userSpaceOnUse"><stop offset="0" stop-color="#065e2e"/><stop offset=".197" stop-color="#055228"/><stop offset=".555" stop-color="#033118"/><stop offset="1"/></radialGradient><path d="M40.82,77.21H358V332.7H40.82V77.21z" fill="url(#A)"/><path d="M25 354.52h0c0-13.25 10.75-24 24-24h302c13.25 0 24 10.75 24 24h0c0 13.25-10.75 24-24 24H49c-13.25 0-24-10.74-24-24z"/><path d="M31.18 355.52v-2a18.5 18.5 0 0 1 18.5-18.5h300.65a18.5 18.5 0 0 1 18.5 18.5v2a18.5 18.5 0 0 1-18.5 18.5H49.68a18.5 18.5 0 0 1-18.5-18.5z" fill="#fc1a05"/><path d="M35.81 354.52h0a16 16 0 0 1 16-16h296.38a16 16 0 0 1 16 16h0a16 16 0 0 1-16 16H51.81a16 16 0 0 1-16-16z" fill="#f3f2e9"/><path d="M25 57.71h0c0-13.25 10.75-24 24-24h302c13.25 0 24 10.75 24 24h0c0 13.25-10.75 24-24 24H49c-13.25 0-24-10.75-24-24z"/><path d="M31.18 58.71v-2a18.5 18.5 0 0 1 18.5-18.5h300.65a18.5 18.5 0 0 1 18.5 18.5v2a18.5 18.5 0 0 1-18.5 18.5H49.68c-10.22 0-18.5-8.29-18.5-18.5z" fill="#fc1a05"/><path d="M35.81 57.71h0a16 16 0 0 1 16-16h296.38a16 16 0 0 1 16 16h0a16 16 0 0 1-16 16H51.81c-8.84 0-16-7.17-16-16z" fill="#f3f2e9"/><text transform="matrix(1.0294 0 0 1 70.4722 69.8683)" font-family="AcademyEngravedLetPlain" font-size="35.163">THE OUTLAW</text><text transform="matrix(.8327 0 0 1 78.9043 359.7602)" font-family="ArialMT" font-size="19.648">= 80   Atk = 93  Spd = 68  Ele = rebel</text><g fill="#e30206"><path d="M67.18 363.99l.18-15.82s-4.34-5.6-7.76-1.79c-4.39 4.88 7.58 17.61 7.58 17.61z"/><path d="M67.08 363.72l-.47-15.56h1.27v14.65z"/><path d="M67.18 363.99l.1-15.82s4.34-5.6 7.76-1.79c4.41 4.88-7.86 17.61-7.86 17.61z"/></g><path d="M71.41 518.07l20-46.24h216l20 46.24z"/><path d="M87.91 525.51l10.67-45.06h201.66l11.67 46z" fill="#fc1a05"/><text transform="matrix(1.0294 0 0 1 99.6579 514.8252)" font-family="Impact" font-size="26.924">THE UNPRUNABLES</text><path d="M260.14 300.7h34.46v29.82h-34.46V300.7zm-148.45 0h34.46v29.82h-34.46V300.7z" fill="#0c5e30"/><path d="M134.71,211.14H272v59.87H134.71V211.14z" fill="#065e2e"/><path d="M176.29,259.27H230v71.25h-53.72V259.27z" fill="#0c5e30"/><path d="M203.22 270.05l11.16-25.98h-22.32l11.16 25.98z" fill="#3d2314"/><path d="M147.68 149.83H258.6v61.67H147.68v-61.67z" fill="#005e2b"/><path d="M153.82 236.4l101.29-1.32-1.26 6.11-100.03-4.79z" fill="#aa2311"/><path d="M245.49 239.99l9.07-2.16 35.16 16.64-4.74 4.79" fill="#d6c7c8"/><path d="M284.98 259.27l4.88 2.87 4.6-5.27-4.74-2.39-4.74 4.79z" fill="#9b201d"/><path d="M251.91 243.11l4.74-4.31-7.53-3.59-13.81.12" fill="#d69725"/><path d="M157.45 194.97l-.56-13.65 39.21 8.62-38.65 5.03z" fill="#3d2314"/><path d="M249.26 185.27h9.77v5.63h-9.77v-5.63zm-103.81-30.65l3.35-4.79 69.48 35.08-3.63 5.03-69.2-35.32z"/><path d="M212.14,173.9h39.07v28.5h-39.07V173.9z" fill="#22120f"/><path d="M146.85,88.52h115.11v53.52H146.85V88.52z" fill="#241309"/><path d="M202.94 117.26l146.5 27.66-144.97 21.91-148.03-21.91 146.5-27.66z" fill="#23130c"/><path d="M289.72,216.17h5.02v29.34h-5.02V216.17z" fill="#7c6f6a"/><path d="M147.96 177.97l-17.58 5.63 17.58-16.76v11.13zm0 15.68l-17.58 5.75 17.58-16.88v11.13zm110.65-26.82l17.72 16.76-17.72-5.63v-11.13zm0 15.69l17.72 16.88-17.72-5.75v-11.13z" fill="#3b2212"/><path d="M230 300.7h30.14v29.82H230V300.7zm-83.85 0h30.14v29.82h-30.14V300.7z" fill="#22120f"/><g fill="#3d2314"><ellipse cx="224.56" cy="316.27" rx="2.09" ry="1.8"/><ellipse cx="186.89" cy="316.27" rx="2.09" ry="1.8"/><ellipse cx="194.56" cy="328.24" rx="2.09" ry="1.8"/><ellipse cx="182.01" cy="323.46" rx="2.09" ry="1.8"/><ellipse cx="225.26" cy="325.85" rx="2.09" ry="1.8"/><ellipse cx="218.98" cy="322.26" rx="2.09" ry="1.8"/><ellipse cx="210.61" cy="326.45" rx="2.09" ry="1.8"/><ellipse cx="198.05" cy="322.26" rx="2.09" ry="1.8"/><ellipse cx="207.82" cy="318.67" rx="2.09" ry="1.8"/></g><text><tspan font-family="Arial-BoldMT" font-size="30.38" x="61.598" y="418.57">“Yoo-hoo! I’ll make</tspan><tspan x="107.168" y="455.03" font-family="Arial-BoldMT" font-size="30.38">you famous”</tspan></text></svg>