<svg xmlns="http://www.w3.org/2000/svg" fill="none" viewBox="0 0 501 575"><path d="M428 464v17l16 7 31 13v49H112L26 375 68 81l125-53 132 69 116 90-13 277Z" fill="#fff" stroke="#000" stroke-width="50"/><path d="m308 99 24 80 81-42-47 72 90 21-90 20 47 72-81-42 34 76-81-76-34 106V250l-90-20 90-21V99l34 80 23-80Z" fill="#000"/><path d="m168 99 24 80 34-80v110l90 21-90 20v131l-34-101-71 69 24-69-81 42 47-72-84-20 84-21-47-72 81 42 23-80Z" fill="#000"/><path d="m251 230 4 4c3 2 7 4 13 5 11 3 26 5 43 5s32-2 43-5c6-1 10-3 13-5l4-4c0-2-1-3-4-5s-7-4-13-5c-11-3-26-5-43-5s-32 2-43 5c-6 1-10 3-13 5s-4 3-4 5Z" fill="#fff" stroke="#000" stroke-width="4"/><path d="M298 229c0 6 6 12 13 12s13-6 13-12-6-11-13-11-13 5-13 11Z" fill="#000" stroke="#000" stroke-width="5"/><path d="m213 232-4 4c-3 2-7 4-13 5a179 179 0 0 1-87 0c-6-1-10-3-13-5l-4-4c0-2 1-3 4-5s7-4 13-5c11-3 26-5 44-5 17 0 32 2 43 5 6 1 10 3 13 5s4 3 4 5Z" fill="#fff" stroke="#000" stroke-width="4"/><path d="M166 231c0 6-6 12-13 12-8 0-13-6-13-12s5-11 13-11c7 0 13 5 13 11Z" fill="#000" stroke="#000" stroke-width="5"/><path d="M296 472c0 24-29 20-64 20s-64 4-64-20c26-44 44-101 64-8 22-93 41-27 64 8Z" fill="#000"/><path d="M286 479c0 16-24 13-54 13-31 0-55 3-55-13 22-26 38-61 55-4 18-57 34-17 54 4Z" fill="#EE1313"/></svg>