<svg xmlns="http://www.w3.org/2000/svg" width="24" height="24" xmlns:v="https://vecta.io/nano"><path d="M.49 10.9l3.63.33.45 7.52-4.06-.49z" fill="#37562a"/><path d="M.62 17.51l5.98-.03-.48 6.03-5.64-.09z" fill="#24436f"/><path d="M5.71 23.44l3.48.12-.5-1.15-3.17-1.14zm17.74-4.02l-6.73.08-.28-4.04 4.75-.84-3.26-2.45 5.58.13-.06 7.12z" fill="#141b1f"/><path d="M.49 11.98l2.34.19 2.24-6.4-1.93-1.92L.53 5.14z" fill="#208e46"/><path d="M3.3 3.8l.71 2.78 5.27-3.13-1.83-2.02z" fill="#141c1f"/><path d="M.28 6.22l8.3-4.74L7.74.39.71.46z" fill="#306980"/><path d="M5.58.5l4.64 4.37 4.92.49.26-4.84z" fill="#37562a"/><path d="M17.2 3.67c.05.09.16 5.06.27 5.47.11.4 5.92-.05 5.92-.05l-.13-5.5-6.06.08z" fill="#17585d"/><path d="M14.19 5.28l9.17-.77-.11-4.03-9.11-.05z" fill="#233d37"/><path d="M16.09 17.63l6.32-3.72-10.51-2.03z" fill="#385629"/><path d="M23.15 15.02l-12.33-1.76.7-4.39 11.99-.85z" fill="#22426f"/><path d="M17.95 5.22l.09 5.27-11.02-3.5z" fill="#15796c"/><path d="M8.95 3.14s-1.37-.23-1.8-.09c-.39.12-1.15.45-1.46.71-.36.29-.95 1.02-1.2 1.4-.34.51-.99 1.54-1.23 2.1-.2.47-.47 1.47-.58 1.97l-.44 2.24c-.07.69-.13 2.08-.09 2.77.04.7.13 2.12.33 2.79.19.63.79 1.83 1.15 2.39.27.42.85 1.25 1.2 1.6.72.71 5 2.48 5 2.48L8.95 3.14z" fill="#5f513d"/><path d="M5.07 17.85l3.13-3.83 15.28 7.24-.02 2.23-14.56-.04z" fill="#3a3123"/><path d="M8.86 16.19l3.83-.16.96 5.11-4.25-.43z" fill="#5e3e17"/><path d="M8.42 10.03l3.41-.12.34 3.84-3.2-.1z" fill="#9b945b"/><path d="M8.74 13.29l3.34-.08.74 3.42-3.27-.15z" fill="#54521b"/><path d="M13.18 10.14l-2.54.31s.15 11.26 2.67 11.15c2.67-.11 10.7-.22 10.7-.22v-2.59l-9.49-.27-1.34-8.38z" fill="#066c4e"/><path d="M13.89 14.58l8.05 4.18-8.96 2.06z" fill="#288e46"/><path d="M4.67 12.54l4.69 1.21.07-4.3-4.35-.29z" fill="#51401d"/><path d="M4.35 16.74l.26-4.93 4.75 1.16.19 3.54z" fill="#48443c"/><path d="M8.18 3.94c-.27-.33-1.34-.07-1.69.17-.37.24-.94.92-1.19 1.28-.27.39-.83 1.16-1.02 1.6-.32.75-.7 2.36-.82 3.17-.15 1.04-.46 3.14-.36 4.18.07.78.42 2.34.77 3.05.43.86 1.5 2.51 2.25 3.12.55.45 1.86 1.09 2.54 1.31.72.22 2.21.47 2.95.58l3.09.44s-.84-.69-.7-.94c.32-.58 2.51.87 2.51.87s-1.79-1.9-2.59-2.18c-.75-.26-2.34-.48-3.11-.69-.73-.19-2.23-.56-2.85-.98-.58-.4-1.53-1.48-1.86-2.1-.41-.76-.83-2.07-.92-2.93-.06-.61.18-2.16.38-2.73.24-.7.66-1.96 1.05-2.58.67-1.05 2.33-3.69 1.57-4.64z" fill="#90602a"/><path d="M8.59 19.21s-.61 2.38.07 2.59c.72.22 2.21.47 2.95.58l3.09.44s-.84-.69-.7-.94c.32-.58 2.51.87 2.51.87s-1.79-1.9-2.59-2.18c-.75-.26-2.34-.48-3.11-.69-.73-.19-2.23-.56-2.85-.98-.58-.4-1.53-1.48-1.86-2.1-.41-.76-.83-2.07-.92-2.93-.06-.61.18-2.16.38-2.73.24-.7 1.05-2.58 1.05-2.58l1.45-4.97s-1.24.29-1.59.52c-.35.24-.92.92-1.17 1.28-.27.39-.83 1.16-1.02 1.6-.32.75-.7 2.36-.82 3.17-.15 1.04-.46 3.14-.36 4.18.07.78.42 2.34.77 3.05.43.85 4.72 1.82 4.72 1.82z" fill="#6f572c"/><path d="M6.57 7.77l4.76-1.28 2.16 1.8c1.16.71 1.83.79 2.8 1.19.38.16 1.32.92 1.32.92l-1.85.22-9.19-2.85z" fill="#4a0e0e"/><path d="M8.36 8.65l1.2-.93.63 1.44.96-1.16.54 1.39.72-.87.66 1.33.72-.89.66 1.26.77-.79.77 1.11.9-.9.68.82.6-.88.43.79.49-1.02.34.77.47-.89.15.77-1.18.73-5.07-.28z" fill="#dbb64b"/><path d="M9.56 6.82c.01.03.72.71.72.71l.68-.87.88.94.51-.9.67.93.83-1.06.79.82.7-1.09.86.93.81-1.32.84.96.62-1.38.82.85.46-1.09.38.88.22-.96.43.97.36-.97.43.96.36-.96-.57-.45-11.8 2.1z" fill="#dcb64c"/><path d="M20.68 9.65s-1.22 1.18-1.76 1.3c-.97.21-2.96.24-3.95.15-.75-.07-2.22-.42-2.97-.51-.7-.08-2.13.01-2.83-.08-.53-.07-1.6-.32-2.08-.56-.42-.22-1.28-.69-1.55-1.08-.17-.24-.33-.83-.34-1.12-.01-.38 0-1.19.19-1.51.11-.18.47-.42.65-.53.19-.12.62-.31.77-.48.26-.27.48-1.01.69-1.32.19-.28.69-.75.97-.93.2-.13.6-.44.84-.41.17.02.38.39.55.43.22.05.61-.39.84-.38.24.02.58.44.7.64.1.17.14.62.3.73 1.24.85 4.72.71 6.01-.06.13-.08.27-.38.39-.48s.41-.24.56-.24c.19-.01.59.07.75.18.13.09.24.48.4.48.17.01.3-.43.44-.55.12-.1.44-.2.59-.18s.45.15.55.27c.07.09.06.32.12.41.07.1.35.16.44.25.12.12.24.46.25.63.02.15-.02.62-.02.62l-2.92.15c-.46.03-1.34.38-1.79.53l-1.97.54c-.5.09-1.53.19-2.04.23l-2.97.11c-.48.06-1.42.28-1.88.41l-1.18.37s1.26.73 1.73.83l3.5.78c1 .23 2.97.99 3.99.91l4.03-.53z" fill="#4f371a"/><path d="M8.03 3.25c.24-.24.91-.75 1.25-.74.2.01.68.42.68.42s.54-.38.76-.37c.18.02.56.44.65.59.12.19.23.7.23.7l.82.47-1.19 1.59-.73.97-2.14.48-.9-3.39c0 0 .37-.53.57-.72z" fill="#48372e"/><path d="M8.47 4.3s1.16-.71 1.59-.64c.37.06 1.14.99 1.14.99s-.89.44-1.2.42c-.43-.03-1.53-.77-1.53-.77z" fill="#d62917"/><path d="M.5.5h23v23H.5z" fill="none" stroke="#3eb4c9" stroke-miterlimit="10"/><path d="M5.7 10.8l-2.3-.2-.33 2.75c-.06.57.14 1.74.14 1.74l2.41.55s-.39-1.85-.37-2.44c.01-.6.45-2.4.45-2.4z" fill="#9d6428"/><path d="M20.71 9.65s-.62.63-.88.77c-.24.13-.68.47-.94.56-.39.13-1.23.14-1.65.15l-1.11.02-1.02-1.19 1.17.21c.53.04 2.14-.26 2.14-.26l2.29-.26z" fill="#906028"/><path d="M5.19 7.61l2.26.04 1.36.71c.41.17 1.25.28 1.68.37l1.84.43 1.83.49 1.01.3 1.09 1.22s-1.1 0-1.47-.04c-.44-.05-1.31-.25-1.75-.31l-2.05-.23-1.71-.08c-.38-.05-1.34-.12-1.7-.25S6.5 9.81 6.2 9.58c-.25-.18-.68-.7-.84-.95-.14-.22-.17-1.02-.17-1.02z" fill="#69451b"/><path d="M17.08 4.21l1.38 1.45-.94.32c-.33.07-.96.36-1.28.45a13.09 13.09 0 0 1-1.66.29l-1.59.08-1.29.05-1.2.02 1.91-2.56.91.14a6.37 6.37 0 0 0 1.31.09l1.01-.04.75-.12c.18-.02.69-.17.69-.17z" fill="#6f6b50"/><path d="M7.46 7.66l1.07-.34-.82-3.69s-.27.33-.34.49l-.32.65-.24.46-.59.31c-.14.09-.45.27-.57.39-.1.1-.3.29-.35.42-.06.14-.08.6-.1.74-.03.14 0 .52 0 .52l2.26.05z" fill="#663d2a"/><text transform="matrix(.9639 0 0 1 20.8142 22.7937)" fill="#3cb1c5" font-family="AcademyEngravedLetPlain" font-size=".361">HNFT PEPE</text></svg>