<svg xmlns="http://www.w3.org/2000/svg" width="400" height="400"><style>.U{stroke-miterlimit:10}.V{stroke:#000}.W{stroke-width:2}.X{fill:none}</style><path fill="#da6e1b" d="M0 0h400v400H0z"/><text fill="#0a6a2c" font-family="AcademyEngravedLetPlain" font-size="4" transform="translate(374.3 397)">HNFT PEPE</text><g fill="#a85241" class="U V W"><path d="m204.8 324.8-1.9 7.7 20 19.8 15-8 .8-16.3z"/><path d="m235.7 328.8-2.5 11.4 12.3 4.5 7.6 6.3 5-4 5-4q1.5-1.1 1.6-1l-.2-15z"/></g><g fill="#fff" class="U V"><path d="M254 351.3c-1.2-1.3-3-5.6-4.4-7-1.2-1-3.5-3.4-5-4.2-1.2-.7-4-1.6-5.4-1.9-1.7-.3-5.3-1.2-7-.7-1.3.4-3.5 2.3-4.3 3.5-.8 1-2 3.5-2.1 4.8a14 14 0 0 0 .8 5.7c.4 1.1 1.4 3.4 2.4 4.2a24 24 0 0 0 8 2.7c2.4.4 7 1.4 9.4 1.3 1.5 0 4.5-.7 5.9-1.2 1-.4 3.3-1.1 4.2-1.9s2.4-3.1 3.1-4.2l2.4-3.2c.6-.5 2-1.3 2.4-2 .5-1.1.3-5.2.3-5.2" class="W"/><path d="M242.4 331.2c0 2.2 3.7 5.5 5.2 7.2l2.9 4c.7.8 2.1 3 3.3 3.2.4.1 1.4-.3 1.7-.7.2-.3.3-1.1.3-1.5 0-.6 0-1.8-.3-2.4-.3-1-1.3-2.9-1.9-3.8l-2-2.6c-1-1-4.1-2.6-4.1-4.1m3.8-.3c0 1.7 3.3 4.2 4.7 5.3.8.7 2.1 2.6 3 3.1q.6.4 1 .3c.4-.4.2-1.5 0-2l-1.2-2c-.9-1.2-3.7-3.3-3.7-4.9m-13.5 0c-1.7.4-3.3 4.2-4.1 5.8-.6 1-2 2.7-2.4 3.7v1c.5.3 1.5-.2 1.9-.5l1.6-1.5c1-1.2 2.5-4.4 4-4.8m-30.2-6c-.3 2.5 3.6 6.4 5 8.2 1 1.2 2.4 4 3.5 4.8.3.2 1 .7 1.2.5.5-.4.4-2.1.2-2.8l-1.2-2.9c-1-1.9-4.2-5.3-4-7.5m7.7-2.3c1.4 1.4 1.3 5.4 1.4 7.2 0 1 .6 3.3.5 4.4 0 .2-.2.8-.4.8-.5 0-1.2-1.1-1.5-1.6l-.7-2.2c-.5-1.6-.4-5-1.6-6.2"/></g><path d="m243.4 330.5 1.5-.5s9.8 11.7 9.3 12.7c-.7 1.3-4.4-4.3-4.4-4.3z"/><g fill="#54413e" class="U V"><path d="M194.7 272.9c1.6-.6 4.7 1.8 6.3 2.5 1.8.8 5.8 1.5 7.8 1.8l8.4 1.4a62 62 0 0 0 7.4-.4l6.8-.8c2.2-.4 6.5-1.3 8.6-2 2.6-.7 7.5-3.6 10.2-3.7 2.7 0 8 1.7 10.2 3.3 1.2.9 3.6 3.2 4.2 4.6 1.5 4.4.8 14 .4 18.7l-2.7 28.1-58.6-3.1s-5.4-18-6.4-24.3c-1-5.4-5.3-16-5.1-21.6 0-1.3 1.3-4.1 2.5-4.6z" class="W"/><path d="M216.2 278.8s-2 3.5-1.5 4.7c.4 1 3.6 2 3.6 2s-1 3.1-.5 4c.3.7 2.5 1.4 2.5 1.4l8.5 31.9 3.2-.8-2.6-9.2-2.3-6.8-2-7-1.6-7.8-2.8-8.1-1.3-4.5"/></g><path fill="#81a0b6" d="m191.9 271.8 12.2 4.3 14.4 3.4 13.6-1.8 8.4-2 15.1-6.6-.4-32-5.4-13.7-7-5.2-20.3 12.5-21-13.3-11 21.7-4.6 20.5z"/><g class="U V"><path stroke-width="3" d="m192.7 272.2 8.4 3.8a94 94 0 0 0 22.3 3.7c2.5 0 7.5-1 10-1.6 2-.5 6-1.4 7.9-2l9.5-4.2" class="X"/><g class="W"><g fill="#81a0b6"><path d="m200.8 216.5-11 18.7c-1.6 3-3.9 9.6-4.7 13-.5 2.3-1.6 7-1.5 9.5 0 3 1 8.9 2.1 11.6 1.3 3 7 11 7 11s2.5-7.4 1.8-9.7c-.3-1.2-1.8-3.1-2.2-4.2a58 58 0 0 1-1.8-14.7c.1-1.9 1.4-5.5 1.4-7.3m50.8-29.5s8.4 5.5 9.8 7c2 2.3 4.7 7.8 6.2 10.4s5.1 7.7 6.6 10.5c1.5 2.9 4.1 9 4.8 12.2a35 35 0 0 1 .8 9.1c-.3 3-1.5 9-3.2 11.5-1.4 2-5.2 5.7-7.7 6.1-2.2.4-6.6-1.7-8.3-3.2-1.6-1.3-4.8-4.2-5-6.2-.2-3.2 4-9 4.3-12.1 0-1.7-1.8-4.7-2.2-6.2-.6-2.2-.3-6.8-.3-9"/><path d="M203 211.5c-1.9 1-6.3 3-6.9 5.6-.4 2.1 1.7 6.3 2.8 7.9 1.5 2 4.8 5.5 6.6 6.8a32 32 0 0 0 12.1 4.8c2.7 0 9.6-2.9 10.6-2.7s9-1.6 11.3-4a24 24 0 0 0 5.3-17.8c-.8-2.5-4-6.5-6-7.2-3.2-1.2-9.8 0-13 .6-5.8 1-17.4 3.2-22.8 6z"/></g><path d="M209 209.2c-1.4.5-4.7 1.7-5.1 3.1-.3 1.2 1.2 3.6 2 4.4a26 26 0 0 0 5 3.9c2.2 1 6.7 2.7 9.1 2.7 2 0 7.2-1.6 8-1.5s6.6-1 8.4-2.3c1.2-.8 3-3.4 3.5-4.8s1-4 .5-5.2c-.6-1.4-3-3.7-4.5-4-2.4-.8-7.3 0-9.7.3-4.4.5-13.1 1.8-17.2 3.3z"/></g><g fill="#b0806d"><path d="M154 181c0 1.9 2 5.6 3.6 6.5 2 1.1 9.8 6 12.2 5.9 4.4-.5 10.6-6 15-6 2.7 0 8.1-1.5 10.7-.7a7 7 0 0 1 3.3 2.9c.5 1.3.2 4.3 0 5.7 0 .8-.5 2.4-.2 3 .5 1 2.6 2 3.7 2.5 1.3.4 4.1.8 5.4 1.4.6.3 2 1.2 2.2 1.9.8 1.8.3 5.9.5 7.9 0 1.5 0 5.1 1.2 6 4.8 3.8 20.8 4.8 24.4-.1.7-1-.4-3.7-1-4.8-1-1.4-3.9-3.3-5.2-4.4a32 32 0 0 1-6.7-6.5 34 34 0 0 1-2.7-10.7c-.3-4.2-.2-12.7.4-16.8.4-3 1.9-8.9 2.7-11.8.6-2 2.1-5.7 2.6-7.7 1-3.9 2.1-11.8 2.6-15.7L230 125l1.6-12.4c.6-4 2.7-12.2 3-16.4.2-4.3.5-13-1.1-17-1.5-3.7-6.5-10-9.6-12.4a83 83 0 0 0-24-11.8 91 91 0 0 0-26-.3 63 63 0 0 0-10.6 3.4c-2.5 1.1-7.8 3-9.7 5a27 27 0 0 0-4.4 9 45 45 0 0 0-1.1 6.4c0 4.7 2.3 14 2.3 18.6"/><path d="M153.2 144s2.1 10.9.9 14.2c-1 2.6-5.8 6-8 7.8-1.3 1.2-4 4-5.1 5.3s-3.6 3.5-4 5c-.5 1.2-.8 4.3 0 5.2 2 1.8 7.8 1.4 10.5 1.5 2.6 0 7.9.6 10.5.7s7.7 0 10.2-.2c2 0 5.8.1 7.7-.1a51 51 0 0 0 18-6.2l7.6-4.2c1.8-1 7.1-2.1 7.1-4.2"/><path d="M185.6 95.7c0-4.7-12.7-6-17.3-6.9-4.8-.8-14.2-3.2-18.9-4.3l-19.6-4.2c-4.2-.8-12.7-2-17-2.6-3.8-.5-11.5-2-15.5-2.3-4.3-.3-13-.8-17.2-.3a61 61 0 0 0-16.4 3.3 44 44 0 0 0-11 9.4c-2 2.7-5.9 8.5-6.7 11.7s-1.1 9.8-.2 13 4.2 9.4 6.5 12c2.5 2.8 8.6 7.4 11.8 9.5 2.6 1.8 8 5.4 10.7 7 3.2 1.8 9.5 5.6 12.9 6.9a79 79 0 0 0 11 2.6c3.8.6 11.4 1.8 15.3 2a160 160 0 0 0 28.2-1c2.4-.3 7.2-1 9.5-1.7 3-.9 8.8-3.2 11.7-4.4l13.4-5.9m41.1-11.5c0-1.8 4.2-3.4 5.9-4.1l7.3-3.2c2-.7 6.1-2 8.2-2.2s6.2-.7 7.9.4c1.6 1 3.5 4.6 3.8 6.4.3 1.7.2 5.3-.2 7a42 42 0 0 1-6.1 11.6 25 25 0 0 1-6.3 4.6 27 27 0 0 1-13 .6c-1-.4-2.8-1.8-3.6-2.4-1.5-1.2-5.8-3-5.8-4.8"/><path d="M225 135.4c0 1.1 3.4 1.4 4.6 1.2 1-.3 3-2.2 4-1.8 1 .3 1.3 2.8 1.3 3.8s-.2 2.6.2 3.4c.3.5 2 .6 2 1.2M222 130.7c0-1.6 4-2.3 5.5-2.7l6.1-1.9c1-.3 3.1-.8 4.2-.9 1.4-.1 4.3-.5 5.4.3 1 .7 2 3.3 2 4.5.2 1 .4 3 .1 4-.2.8-1.3 2-1.3 2.8m-39.5 27.8 2.2 2.7c.5.6 1.5 1.5 2 1.7l2.3 1 4.2.8"/></g></g><path stroke="#474442" stroke-width="5.7" d="M187 72.7s6.2-1 8.2-.6c2.9.8 10.7 5.7 10.7 5.7m-40.7-6.3s5-1.3 6.6-1c2.2.3 8.3 4 8.3 4" class="X U"/><path fill="#fff" d="M166.2 83.4c-.8-1.4 0-6 1.5-6.8 2.6-1.5 10-.2 11.3 2.7.7 1.6-.2 5.9-1.5 6.8-2.5 1.9-9.8 0-11.3-2.7m21.5 3.4c-1.1-1.9 0-7.5 2-8.4 3-1.3 11 .4 12.5 3.3.9 2-.2 7.3-2 8.4-2.8 1.7-10.8-.5-12.5-3.3"/><g fill="#0a6a2c"><ellipse cx="174.4" cy="81.4" rx="4" ry="2.8" transform="rotate(-81.7 174.4 81.4)"/><ellipse cx="196.4" cy="84.3" rx="5.4" ry="3.1" transform="rotate(-81.7 196.4 84.3)"/></g><path stroke-width="1.9" d="M166.8 76.7s6.6-.3 8.2.4c1.2.5 4.5 2.8 4.5 2.8m8.9-1h7.7c1.4.2 4 .9 5 1.9.6.5 2 3 2 3" class="U V X"/><path stroke="#746a64" stroke-width="2.4" d="M207 57.3c2.2-2.8 6.9-8.5 9.7-10.3 4.6-3 15.6-2.2 19.2-6.7m-24 24.3a60 60 0 0 1 14-11c3.5-1.8 10.7-6.6 14-6.6 4.2 0 12.8 8.5 12.8 8.5m-30.2 15.6c1.8-2.3 4.8-7.5 7-9.1a15 15 0 0 1 8.3-2.3c2.2.5 6.7 5 6.7 5" class="U X"/><g class="V W U"><path d="m208.1 218.1-2.4 5.5.7 8.9" class="X"/><path d="m218.6 222-.3 7 1.6 6.9m9.7-14.8 1.3 12m5.9-14.3 3.2 3.5 1.5 4.9"/></g><path d="M154.2 183c.2-.8 2.6-1.3 5.5-1 3.8.6 6.6.6 6.5 1.8s-3.8 2.2-6.7 2-5.5-1.7-5.3-2.9"/><g class="V U"><g fill="#54413e" class="W"><path d="m201.8 328.2-3.7-13.8q0-.3.3-.3c3 1 24.6 7 31.4 3 2.8-1.7 6.3 12.5 3.5 14.2-5 3-29.4-2.5-31.4-3z"/><path d="M230.5 332.2c-3.4-1.2-2.6-16.4-1.5-15.7 3.7 2.2 34.5.9 37.7.7q.3 0 .3.3l-1.2 12.5q0 .2-.2.2c-2.3.5-26.8 5-35 2z"/></g><path d="M228.8 351.4c1.8 1.1 3.4 1.3 5 1.8 1.4.3 6.3 1.5 7.6 1.5 1.4 0 6.1-.9 7.5-1.4 2.3-.8 4.9-1.4 4.9-2.7" class="X"/><g fill="#fff"><path d="M220 348.5c0-1.2-1.8-4.7-2.8-6.7a28 28 0 0 0-5-6c-1-1-5.3-4.2-6.6-4.7-1.4-.5-4.2-1.5-5.7-1.5s-4.5.4-5.8 1.2c-1.1.7-3 2.9-3.4 4.1-.5 1.2-.8 3.8-.7 5 0 1.3.4 3.8 1 4.9.4.7 2 2.3 2.8 2.6.9.5 1.6 4.4 2.6 4.5l6.3.7 7.3.3 5.9-.2 5.5-.6c1-.1 4-.4 4.7-1.1" class="W"/><path d="M193.5 347c1.8.7 4.4 1.6 6 1.9a75 75 0 0 0 16.1-.2c2.3-.3 4.4-.3 5.1-.6"/><path d="m219.8 347.8 5.7-1.2.8 4.3-5.6 1.3" class="W"/></g></g></svg>