<svg xmlns="http://www.w3.org/2000/svg" viewBox="0 0 5120 5120" xmlns:v="https://vecta.io/nano"><path d="M290 3810v250c0 450 380 820 840 820h2860c460 0 840-370 840-820v-250H290" fill="#fedfb5"/><path d="M2560 3810H290v250c0 450 380 820 840 820h1430V3810" fill="#fff1d8"/><path d="M4280 3240H2930c0-540 170-1030 460-1440 120-160 190-350 190-570 0-550-460-990-1020-990s-1020 440-1020 990c0 220 70 410 190 570 290 410 460 900 460 1440H840c-460 0-840 370-840 820h5120c0-450-380-820-840-820" fill="#ff7224"/><path d="M2560 240c-560 0-1020 440-1020 990 0 220 70 410 190 570 290 410 460 900 460 1440H840c-460 0-840 370-840 820h2560V240" fill="#ff9755"/><path d="M4280 3240H840c-460 0-840 370-840 820h5120c0-450-380-820-840-820zM1140 4470h310v410h-310zm630 0h310v410h-310zm630 0h310v410h-310zm630 0h310v410h-310zm630 0h310v410h-310" fill="#ff7224"/><path d="M3130 2270H1990c130 300 200 620 200 970h740c0-350 70-670 200-970" fill="#c23700"/><path d="M2560 3240H840c-460 0-840 370-840 820h2560v-820" fill="#ff9755"/><path d="M2560 2270h-570c130 300 200 620 200 970h370v-970" fill="#ff7224"/></svg>