<svg xmlns="http://www.w3.org/2000/svg" width="24" height="24" xmlns:v="https://vecta.io/nano"><path d="M0 0h24v24H0z" fill="#2db493"/><ellipse cx="11.25" cy="11.58" rx="6.29" ry="6.12" fill="#0aa63d" stroke="#135d21"/><path d="M5.02 18.11h12.52V24H5.02z" fill="#f82f15"/><path d="M12.86 20.09h2.63V23h-2.63z" fill="#fff"/><g fill="#115d27"><path d="M11.28 13.33l-3.37 3.9h6.73z"/><path d="M14.18 17.46l3.36-3.9h-6.73z"/><path d="M8.44 17.57l3.37-3.9H5.08z"/><ellipse cx="13.91" cy="7.59" rx="2.66" ry="2.56"/><ellipse cx="8.59" cy="7.59" rx="2.66" ry="2.56"/></g><path d="M6.23 8.78S7.17 7.4 8.54 7.4s2.54 1.1 2.54 1.1-.85 2.32-2.34 2.3c-1.37 0-2.51-2.02-2.51-2.02zm10.04.01s-.95-1.39-2.32-1.39-2.54 1.1-2.54 1.1.85 2.32 2.34 2.3c1.37 0 2.52-2.01 2.52-2.01z" fill="#fff"/><ellipse cx="8.68" cy="9.6" rx="1.11" ry="1.23"/><ellipse cx="13.81" cy="9.6" rx="1.11" ry="1.23"/><path d="M21.89 5.77l-5.36-4.62-1.32 2.3z" fill="#f33417"/><g fill="#fff"><ellipse cx="21.71" cy="5.71" rx="1.12" ry="1.13"/><path d="M6.03 2.32h10.5V6.4H6.03z"/></g><path d="M6.03 1.15h10.5v4.08H6.03z" fill="#f53216"/><text transform="translate(22.426 23.875)" font-family="AcademyEngravedLetPlain" font-size=".25">HNFT PEPE</text><path d="M5.6 12.84h11.3v1.35H5.6z" fill="#f83015"/></svg>