<svg width="800" height="800" viewBox="0 0 800 800" fill="none" xmlns="http://www.w3.org/2000/svg">
<path d="M646.479 158H678V472.779C678 527.116 671.56 550.178 659.467 572.361C647.375 594.544 629.631 611.953 607.021 623.817C584.411 635.681 560.907 642 505.521 642H474V327.22C474 272.882 480.44 249.822 492.53 227.638C504.622 205.455 522.369 188.045 544.979 176.182C567.589 164.318 591.093 158 646.479 158Z" fill="#F32F4D"/>
<path d="M259.5 529C336.544 529 399 466.32 399 389C399 311.679 336.544 249 259.5 249C182.456 249 120 311.679 120 389C120 466.32 182.456 529 259.5 529Z" fill="#F32F4D"/>
</svg>
