<?xml version="1.0" encoding="utf-8"?>
<!-- Generator: Adobe Adobe Illustrator 24.2.0, SVG Export Plug-In . SVG Version: 6.00 Build 0)  -->
<svg version="1.1" id="Layer_5" xmlns="http://www.w3.org/2000/svg" xmlns:xlink="http://www.w3.org/1999/xlink" x="0px" y="0px"
	 width="24px" height="24px" viewBox="0 0 24 24" style="enable-background:new 0 0 24 24;" xml:space="preserve">
<style type="text/css">
	.st0{fill:#656565;}
	.st1{fill:#027D36;}
	.st2{fill:#AA1E12;}
	.st3{fill:#007D39;}
	.st4{font-family:'AcademyEngravedLetPlain';}
	.st5{font-size:0.4316px;}
	.st6{fill:#FFFFFF;}
</style>
<rect x="0" y="0" width="24" height="24"/>
<rect x="2.22" y="2.34" class="st0" width="19.5" height="19.5"/>
<rect x="8.74" y="11.62" class="st1" width="6.58" height="3.58"/>
<path class="st2" d="M10.02,13.01l4.17,0.27c0,0,0.02,0.39-0.11,0.45C13.26,14.11,10.02,13.01,10.02,13.01z"/>
<rect x="9.37" y="7.95" class="st3" width="5.31" height="3.68"/>
<polygon points="9.87,10.8 10.26,9.87 11.72,10.63 "/>
<path d="M12.53,11.06c-0.27-0.26-0.3-1.22,0-1.45c0.33-0.26,1.44-0.31,1.71,0c0.24,0.28,0.27,1.19,0,1.45
	C13.94,11.35,12.83,11.35,12.53,11.06z"/>
<rect x="14.22" y="10.07" width="0.46" height="0.34"/>
<polygon points="9.26,8.24 9.42,7.95 12.74,10.05 12.57,10.34 "/>
<polygon points="9.38,9.63 8.53,9.96 9.38,8.97 "/>
<polygon points="9.38,10.58 8.53,10.9 9.38,9.91 "/>
<polygon points="14.69,8.97 15.53,9.96 14.68,9.63 "/>
<polygon points="14.69,9.91 15.53,10.91 14.68,10.58 "/>
<text transform="matrix(0.9976 0 0 1 19.0171 21.5649)" class="st4 st5">HNFT PEPE</text>
<path d="M9.15,9.18c0.71,0.02,2.12-0.33,2.84-0.34c0.72-0.01,2.14,0.41,2.86,0.38c0.44-0.02,1.3-0.25,1.69-0.46
	c0.35-0.18,0.98-0.71,1.24-1.01c0.3-0.34,1.09-1.14,0.93-1.57c-0.07-0.19-0.75-0.27-0.75-0.27s-1.02,0.02-1.35-0.06
	c-0.26-0.06-0.72-0.35-0.97-0.46c-0.2-0.09-0.81-0.27-0.81-0.27l0.16,0.53c0,0-0.51-0.93-0.76-1.17C14,4.26,13.47,3.93,13.18,3.84
	c-0.3-0.1-0.92-0.23-1.23-0.21c-0.4,0.02-1.21,0.19-1.58,0.38c-0.24,0.12-0.68,0.44-0.85,0.65C9.35,4.88,9,5.69,9,5.69l0.07-0.58
	c0,0-0.55,0.16-0.72,0.23C8.19,5.41,7.89,5.58,7.74,5.66C7.66,5.7,7.51,5.8,7.43,5.82c-0.45,0.12-1.42-0.03-1.87,0.1
	c-0.09,0.03-0.3,0.13-0.33,0.22C5.17,6.42,5.49,6.95,5.67,7.17c0.25,0.3,0.78,0.87,1.09,1.11c0.27,0.2,0.86,0.57,1.17,0.69
	C8.22,9.07,8.84,9.17,9.15,9.18z"/>
<polygon class="st6" points="13.21,10.71 13.23,10.76 13.3,10.82 13.43,10.82 13.5,10.78 13.53,10.7 13.43,10.76 13.31,10.76 "/>
<rect x="13.32" y="10.73" width="0.03" height="0.11"/>
<rect x="13.4" y="10.73" width="0.03" height="0.11"/>
<rect x="13.46" y="10.71" width="0.03" height="0.11"/>
<rect x="13.25" y="10.71" width="0.03" height="0.11"/>
<path class="st6" d="M13.07,10.35c0,0-0.05-0.21-0.03-0.28c0.01-0.05,0.08-0.13,0.12-0.16c0.05-0.03,0.16-0.08,0.22-0.08
	c0.06,0,0.18,0.05,0.23,0.09c0.03,0.03,0.1,0.09,0.11,0.14c0.02,0.07-0.03,0.3-0.03,0.3l0.04,0.07l-0.11,0.17l-0.07,0.02l-0.01,0.06
	l-0.09,0.06H13.3l-0.09-0.07l-0.01-0.06l-0.08-0.01l-0.11-0.18L13.07,10.35z"/>
<polygon class="st6" points="12.07,7.5 11.07,8.15 11.04,8.34 10.77,8.38 10.71,8.17 10.52,8.12 10.55,7.95 10.85,7.97 11.84,7.39 
	10.64,6.75 10.37,6.8 10.35,6.61 10.53,6.57 10.45,6.34 10.77,6.28 10.94,6.62 12.08,7.27 13.26,6.55 13.32,6.28 13.61,6.37 
	13.59,6.54 13.81,6.57 13.75,6.77 13.51,6.73 12.29,7.38 13.06,7.73 13.36,7.87 13.71,7.85 13.7,8.12 13.48,8.12 13.48,8.36 
	13.26,8.29 13.2,8.12 "/>
<path d="M13.31,10.6c0,0.01,0.02,0.02,0.02,0.02c0.01,0,0.03-0.02,0.03-0.02s0.02,0.02,0.03,0.02c0.01,0,0.02-0.01,0.03-0.02
	c0.01-0.03-0.05-0.12-0.05-0.12S13.31,10.57,13.31,10.6z"/>
<path d="M13.32,10.37c0.01,0.01,0.01,0.04,0,0.05c-0.01,0.02-0.05,0.06-0.08,0.07c-0.03,0.01-0.09,0.02-0.11,0
	c-0.03-0.03-0.03-0.13-0.01-0.16c0.02-0.02,0.08-0.02,0.11-0.02C13.26,10.32,13.3,10.35,13.32,10.37z"/>
<path d="M13.41,10.45c-0.01-0.01-0.01-0.04,0-0.05c0.01-0.02,0.05-0.06,0.08-0.07c0.03-0.01,0.09-0.02,0.11,0
	c0.03,0.03,0.03,0.13,0.01,0.16c-0.02,0.02-0.08,0.02-0.11,0.02C13.47,10.5,13.43,10.47,13.41,10.45z"/>
<path class="st6" d="M5.47,6.12C5.32,6.15,5.92,5.95,6.08,5.97c0.14,0.01,0.44,0.06,0.57,0.11C6.82,6.14,7.1,6.4,7.28,6.44
	C7.46,6.47,7.83,6.36,8,6.29c0.41-0.15,1.21-0.52,1.62-0.65c0.34-0.11,1.02-0.28,1.37-0.33c0.25-0.04,0.77-0.1,1.02-0.09
	c0.39,0.01,1.18,0.11,1.56,0.21c0.38,0.1,1.1,0.39,1.46,0.53c0.32,0.12,0.94,0.4,1.27,0.45c0.11,0.02,0.34,0.03,0.45-0.01
	c0.15-0.05,0.37-0.31,0.52-0.36c0.23-0.07,1.22,0.07,0.96,0.07c-0.23,0-0.71-0.02-0.94,0.02c-0.15,0.03-0.37,0.3-0.51,0.37
	c-0.12,0.05-0.38,0.08-0.5,0.06c-0.34-0.05-0.99-0.31-1.32-0.42c-0.35-0.12-1.07-0.34-1.43-0.43c-0.37-0.08-1.12-0.25-1.5-0.26
	c-0.25,0-0.76,0.07-1,0.12C10.68,5.65,10,5.79,9.67,5.89C9.27,6.02,8.51,6.34,8.1,6.46C7.9,6.52,7.48,6.63,7.28,6.58
	c-0.16-0.04-0.4-0.23-0.54-0.31C6.63,6.2,6.39,6.08,6.26,6.08C6.06,6.08,5.8,6.07,5.47,6.12z"/>
<polygon points="9.91,10.31 10.24,9.76 11.03,10.12 10.21,9.54 "/>
<path d="M12.03,12.13c0,0,0.49-0.28,0.66-0.27c0.18,0.02,0.46,0.29,0.62,0.38c0.26,0.15,0.82,0.47,1.11,0.41
	c0.11-0.02,0.3-0.18,0.34-0.28c0.05-0.12,0-0.54,0-0.54s0.26,0.62,0.22,0.83c-0.04,0.19-0.29,0.53-0.46,0.6
	c-0.3,0.13-0.98,0.14-1.28,0.06c-0.31-0.09-1.15-0.6-1.15-0.6s-0.77,0.46-1.05,0.55c-0.29,0.09-0.91,0.22-1.19,0.12
	c-0.19-0.07-0.57-0.34-0.63-0.54c-0.08-0.24,0.12-1,0.12-1s0.04,0.47,0.13,0.6c0.06,0.08,0.24,0.21,0.34,0.21
	c0.26,0,0.74-0.28,0.97-0.41c0.16-0.09,0.47-0.35,0.65-0.36C11.58,11.88,12.03,12.13,12.03,12.13z"/>
<path d="M14.69,11.62l0-1.04c0,0,1.16,1.37,1.23,1.99c0.05,0.47,0.33,2.32,0.33,2.32l-0.42-0.75c0,0,0.3,1.21,0.26,1.62
	c-0.04,0.39-0.58,1.44-0.58,1.44l-0.09-0.73c0,0-0.11,0.8-0.24,1.03c-0.22,0.38-0.96,0.88-1.24,1.22c-0.19,0.23-0.57,0.74-0.59,1.03
	c-0.02,0.16,0.17,0.62,0.17,0.62s-1.26-0.1-1.62-0.3c-0.43-0.24-1.34-1.44-1.34-1.44l0.08,0.73c0,0-0.73-0.57-0.94-0.8
	c-0.18-0.2-0.49-0.66-0.59-0.91c-0.12-0.29-0.29-1.22-0.29-1.22l-0.18,0.74c0,0-0.39-1.04-0.4-1.41c-0.02-0.4,0.31-1.58,0.31-1.58
	l-0.62,0.69c0,0,0.47-1.88,0.55-2.53c0.07-0.55,0.91-1.78,0.91-1.78l0,1.06c0,0-0.18,0.27-0.3,0.5c-0.26,0.51-0.11,1.35,0.18,1.64
	c0.25,0.25,0.88,0.59,1.21,0.68c0.45,0.13,1.27,0.22,1.71,0.27c0.5,0.05,1.52-0.14,1.93-0.38c0.24-0.14,0.74-0.42,0.87-0.67
	c0.18-0.35,0.24-1,0.13-1.43C15.05,12.02,14.69,11.62,14.69,11.62z"/>
</svg>
