<svg xmlns="http://www.w3.org/2000/svg" width="24" height="24" xmlns:v="https://vecta.io/nano"><path d="M0 0h24v24H0z"/><path d="M1 1h22v22H1z" fill="#fa3914"/><text transform="translate(21.497 22.879)" font-family="AcademyEngravedLetPlain" font-size=".239">HNFT PEPE</text><path d="M5.46 20.51h13.12V23H5.46z" fill="#0c5e30"/><path d="M7.11 13.03h9.84v5H7.11z" fill="#065e2e"/><path d="M10.09 17.6h3.85V23h-3.85z" fill="#0c5e30"/><path d="M8.04 7.91h7.95v5.15H8.04z" fill="#005e2b"/><path d="M8.02 15.2h8v1.7h-8z" fill="#c51d0b"/><path d="M8.44 15.55h7.15v1H8.44z" fill="#ab9621"/><path d="M14.79 22.3h.75v.7h-.75zm-6.3 0h.75v.7h-.75z" fill="#063a1c"/><path d="M12.02 2.71l-.95 5.8h1.9z"/><g fill="#093414"><path d="M13.23 21.88h-2.14 0v.2h0 2.14 0v-.2h0zm.1-.62h-2.35v.53h2.35v-.53z"/><path d="M12.45 19.74h-.57v1.54h.57v-1.54z"/><path d="M12.16 19.14l-.62.46.24.75h.77l.24-.75c-.01 0-.63-.46-.63-.46zm0 2.15l.27.26.28-.27-.27-.26-.28.27zm-.28-.28l-.27.26.28.27.27-.26-.28-.27h0z"/></g><path d="M8.04 10.93h7.95v2.1H8.04z"/><path d="M12.02 12.02l-.53 1.05h1.05zm3.97 0l-.77 1.01h1.55zm-7.95.02l-.77 1.01h1.55z" fill="#065e2e"/><path d="M15.99 11.73h1.4v1.3h-1.4zm-9.35 0h1.4v1.3h-1.4z" fill="#f73716"/><g fill="#0a3416"><path d="M15.13 13.13l.03-.01.04.12-.03.01z"/><path d="M15.13 13.15v-.02l.16-.05.01.02zm.04.12l-.01-.03.17-.05.01.03zm.04.11l-.01-.02.17-.05v.02z"/><path d="M15.3 13.22l.03-.01.04.12-.03.01z"/></g><g fill="#0a3415"><path d="M15.35 13.75l-.01-.03.15-.04.01.02zm.07.23l-.01-.03.16-.04.01.02z"/><path d="M15.33 13.73l.03-.01.08.25-.03.01zm-.09-.28v-.03l.11-.03.01.03zm.04.12l-.01-.03.12-.03.01.02z"/><path d="M15.24 13.42h.02l.04.12-.02.01z"/><path d="M15.28 13.55l.02-.01.04.13-.02.01zm.05-.15l.03-.01.05.14-.03.01z"/><path d="M15.33 13.54l.02-.02.13.1-.02.02z"/></g><path d="M18.71 21.13l-.31-.11-.36.05-.3.18-.19.28-.02.34.09.34-.17.17.26.42h.19l.03.15.18.17.64-.01z" fill="#093414"/><path d="M17.72 22.17l-.03.21.08.17.28-.04.14-.17v-.09l-.22-.13zm.89-.08l-.2.16v.1l.26.12m-.38.05l-.14.26.05.07.07-.06.08.05.07-.04zm-.57.48h1.25v.55h-1.25z"/><path d="M18.58 20.45h.65V23h-.65z" fill="#f73716"/><path d="M5.46 22.55l.06.05-.04.21.11.04.06-.22.25-.01.18-.16.01-.28-.05-.22-.11-.07.11-.09.06-.18.02-.19-.11-.16-.13-.12.03-.19-.11-.07-.06.24-.09-.04.03-.25-.1-.04-.05.22-.07-.01z" fill="#0a3415"/><path d="M5.6 21.62l.04-.32.19.07.1.15-.06.18-.13.02zm.02.26l-.05.38.22.07.12-.1-.02-.18-.11-.14z" fill="#0e5e31"/></svg>