<?xml version="1.0" encoding="utf-8"?>
<!-- Generator: Adobe Illustrator 28.1.0, SVG Export Plug-In . SVG Version: 6.00 Build 0)  -->
<svg version="1.1" id="prefix__b" xmlns="http://www.w3.org/2000/svg" xmlns:xlink="http://www.w3.org/1999/xlink" x="0px" y="0px"
	 viewBox="0 0 237.2 154.4" style="enable-background:new 0 0 237.2 154.4;" xml:space="preserve">
<style type="text/css">
	.st0{fill:#FFFFFF;}
	.st1{fill:#FF0000;}
</style>
<rect x="-0.3" class="st0" width="237.5" height="154.4"/>
<g id="prefix__c">
	<path class="st1" d="M120.6,35.2v-28h-1v28h-3v97h6v-97H120.6z M71.6,111.2v17h7v-12L71.6,111.2z M189.6,27.2h1v78h-1V27.2z
		 M145.6,41.2v-18h-1v18h-3v93h6v-93H145.6z M100.6,22.2v-16h-1v16h-2v112h6v-112H100.6z M36.6,36.2v-18h-1v18h-3v77h7v-77H36.6z
		 M18.6,23.2v-9h-1v9h-3v77h7v-77H18.6z M50.6,48.2l7-3v-19h-3v-18h-1v18h-3V48.2z M56.6,79.2l-6-4v48h7v-42L56.6,79.2z M166.6,80.2
		v-31h-1v31h-3v4l4,2l3,5v-11H166.6z M162.6,138.2h7v-20l-7-4V138.2z"/>
	<path d="M174.6,77.2h2l4-2l1-1h1l1,1l-1,2l-1,2l-1,1c-1,1,0,2,1,2h3c1,0,2,0,2,2l2,2l2,2c0,1,1,2,3,2h1l1,2v1l2,1h2l2,2v2l1,2l3-1
		l4-5v-1h1l1,1l1,2l3,4l2,2l7,5c2,1,3,5,3,7v1l-2,3h-5c-3,0-6-2-9-4l-3-2c-2,0-3-1-3-2l-2-2l-1-1h-2l-5-2l-3-3c-1-3-3-4-5-6l-3-2
		c-1-2-2-3-1-4v-1l-1-1h-3l-1-1v-1l-1-2c-1-1-1-2-3-2l-2-1c-2,0-3,0-5-2h-2l-3,1l-4,1h-2l-2-1l-5-3h-2l-3-4h8l3-1l5-2l3-1h1h-1l-5,4
		l-3,1l-1,1l1,2h3l4-2l5-1l9-4l2-1l5-2h1v1l-6,6l-3,3l-1,1V77.2z M217.6,109.2h1l1-1v-1l-1-2l-1,3V109.2z M107.6,65.2v-3l-1-5v-2
		l2-5l1-2l5-1c6,0,12,2,18,4l5,2l5,2l2,1h2l1-1l6-4l2-2h-4l-12-2h-4h6c5-0.1,10,0.2,15,1c2,0,3,2,3,5s1,0,0,0h-4l-3,2l-2,1l-1,2
		l-1,2h-3l-3-1l-3-2l-5-2l-2-1l-6-2l-4-1h-10c-2,1-3,3-3,5v8l-1,1l-1-1V65.2z M83.6,123.2v-3h1v-1l2-1v1l2,1l5,2h4l3,2v1l-1,2l-1,1
		l-1,1h-4v2h-1l-4-1l-3-2l-1-1l-2-2v-2l1-1V123.2z"/>
	<path d="M190.6,65.2l2,2l2,4l1,2l2,3v1l1,1l2,1l1,1l2,2l1,2c0,2,0,4-2,6h-1v-1l1-2l-1-4l-2-2l-1,1v1l-2,1v-4h-1l-2,1h-1v-1l1-2
		c2-2,1-3,0-5l-1-1h-5v-1l2-2h1V65.2z M116.6,24.2l1-4v-2h3l2,1v5l-2,1h-2L116.6,24.2z M180.6,60.2h-9l-1-1l-1-1l-1-1l-2-1v-1h2l8,3
		l2,1L180.6,60.2z M163.6,85.2l3,1l3,4v4h-1v-1l-1-4l-2-2h-1l-1-1l-1-1v-1h1V85.2z M110.6,23.2l2,1v-6l-1-1v-1l3,1v5l-2,2l-1,1l-1,1
		l-1-1v-3L110.6,23.2z M90.6,116.2h1v-2h1l1,1c0,2,2,3,3,4l2,1h-1l-5-1l-1-2l-1-2V116.2z M122.6,30.2l-4-3h3l1,2V30.2z"/>
	<path d="M25.6,48.2l-1-1c-2-1-3,0-5,1l-5,4l-4,2l-3,3h1v3l1,3l1,1l-1-1l-2-1h-1v-1l-1,1v1c0,4,0,7,2,11l5,5c4,2,8,3,12,2l8-1
		c2,1,4,0,5-2l1-3l1-2h10l2-1v2l1,2l2,2l1,3h2l3,2l1,1l1,1l2,2l2,4l2,4l1,8v2l1,2v3l2,3l1,1l7,4l2,1h2v-6c0-3,2-5,4-5l6,1h1v-1
		c-1-2-2-3-4-3c-3,0-5,1-7,3l-2,6v1h-1l-1-1l-3-6l-1-2l-2-1h-3l-1-1v-14l-1-1h-1l1-2l1-1l-1-1h-1v1l-1-1l1-5l1-2l-1-1l-2,1l-2,1h-2
		v-1l1-2v-1l-1-1l-2,1h-1v-3l2-1h3v1l1,1h5l-5,2h-1h9l3,1l-1,1h4l4,1l1,4v4l2,4v-1l1-2l2-1l2,3l-1,7l1,1h2l2-4v-3l-2-2l-1-2v-1h1
		l5,2l2,1l3,1h1l3,1h9l2,1h5l10,5l6,3l2,1l4,2l4,2l4,3l2,4c1,1,1,2,3,2l2,1l3,3l2,5c0,2,2,3,3,4l8,4l4,2l3,1h9l5-1l2-1v-4l-1-3v1
		l-3-4l-4-2l-7-6c0-2-2-3-3-4l-4-3v3l-2,3l-3,1h-1l2-1c2,0,3-3,3-5v-1h1v-3l-2-3h-1v4l1,2v1l-1,3h-1v-3l-1-2l-3-1v3c-2,0-4-2-5-3
		l-1-2l-1-3l-1-1h-4c-1,1-3,2-5,1l-7-3l-4-4l-6-4h-1l-1-1v-2l-2-3l-2-5v-1l-1,1v4l-2,2h-1l-2-3c0-3,0-5,2-7l2-1l5-3l4-1l2-3v-3l-1-1
		l-1-1v1l1,1v3l-1,1l-4,1l-5,1c-2,0-3,2-4,3l-2,3l-1,1l-2,1l-3-1l-5-2l-4-1h-4l-6-1h-5l-2,2h-4l-2-1l-3-5l-1-1l-2-2l-2-2l-1-1v-1
		l2,1l4,2l2,2l1,1v3l1,1h2l2-1l1-1h3l2-1v-4l6-12c1-1,2-3,4-3l1-1l-2-5l-1-2l-5-1l-3-1l-3-1h-2l-1-2v-2l4-2l3-1h1l3-2l3-1l4-1v-2h-1
		v-1l-1,1h-1v-4v1l-2,3l-1,1v-3l-1-1l-1,1v1l-1,1l-1,1h-1v-1l-1-1l-2,1v1l-1,2l-1,2h-1l-1-1l-3-1h-1l-1-1v-4l1-1l4-1h2v-2h1l3-1l3,1
		h1v-1l-1-1h4h-9l-7,1l-6,3l-3,1l-2,1l-1,1l3,1l-3,2l-2,1l-7,2l-3,3l-6,10l-2,1v1l-2,2l-1,2v2h-3v1h2l-1,1h-2l-1-1l-1-1l-1-1l-3-3
		c-3-1-5-1-7,1l-2,1v1l-1-1h-1l-2,2c-2,3-2,6-2,9v1l-1-1l-1-3v-4L25.6,48.2 M97.6,42.2l3,2l1,2l-1,2l-1,1h-1v-4l-2-2l-1-2l1,1H97.6z
		 M76.6,54.2l1-2l2-4l1-3v-1h-2l-2,1l1-1l2-3l4-4h1l1,2v2l-1,4l-5,9l-2,2l-1,1V54.2z M30.6,76.2h-4c-4,1-7-1-9-4l-3-9l-1-3v-4l1-1v7
		l2,5l2,3c2,3,5,5,8,5l3,1h2H30.6z M32.6,52.2l1-1v1c0,2,3,2,4,0l1-1v-2h-2l-1,1v1h-2l1-1c1-2,2-2,3-2l2,2c0,0,2,2.3-3,5
		c-0.4,0.2-2,0-2,0l-2-2V52.2z M40.6,66.2l-2,1h-1l-2-1h2c0,0,1.8-0.5,2-1c1-2-1-4-1-4h-1v1h-2v1h-2v-1h2v-3h1c2,0,4,2,4,4V66.2z
		 M39.6,58.2h1l2-1v-1h1v3l-2,1L39.6,58.2z M46.6,65.2v2l-3,1l-2,1l3-2l1-2v-2l-1-1v-3v1c0,1,0,2,2,2s1,1,1,2v1H46.6z M64.6,67.2h-2
		l-4,3l-1,1l-1,1l-1,1l-2-2h-1v-2l1-2l2-1l1-4h1l2-1h3v1h1v5H64.6z M66.6,60.2l-1-1l-1-1v-1h-3l1,2h-1l-4,1l-2-1h-3l-1-3
		c0-2,1-2,2-2h2l1-1v-1h-3l2-1h6c2,1,3,2,3,4s0,1,1,1h1V60.2z M164.6,110.2l-3-1l-4-2l-1-2C158.6,105.2,164.6,110.2,164.6,110.2h-1
		H164.6z M183.6,126.2h-3l2-1l1-1l1-1L183.6,126.2z M193.6,124.2h-1v-2h1C195.6,123.2,194.6,124.2,193.6,124.2z"/>
	<path class="st1" d="M186.6,105.2h6v41h-6V105.2z M76.6,27.2v-15h-2v15H76.6z"/>
	<ellipse cx="54.2" cy="57.4" rx="0.5" ry="1.1"/>
	<ellipse cx="56.7" cy="57" rx="0.5" ry="1.1"/>
	<ellipse cx="59.6" cy="55.9" rx="0.5" ry="1.1"/>
</g>
</svg>
