<svg width="360" height="280" viewBox="0 0 36 28" fill="none" xmlns="http://www.w3.org/2000/svg">
  <g clip-path="url(#a)">
    <path fill-rule="evenodd" clip-rule="evenodd" d="M0 0h3v1h30V0h3v3h-1v22h1v3h-3v-1H3v1H0v-3h1V3H0V0Z" fill="#FFA600"/>
    <path fill-rule="evenodd" clip-rule="evenodd" d="M1 1h1v1H1V1Zm3 3H2V2h2v2Zm0 0h1v1H4V4Zm31-3h-1v1h-2v2h-1v1h1V4h2V2h1V1ZM2 27H1v-1h1v1Zm2-3v2H2v-2h2Zm0 0v-1h1v1H4Zm31 3h-1v-1h1v1Zm-3-3h2v2h-2v-2Zm0 0h-1v-1h1v1Zm-1 2H5v-1h26v1ZM5 3h26V2H5v1Zm29 2v18h-1V5h1ZM2 23V5h1v18H2ZM4 6h1v16H4V6Zm26-2H6v1h24V4ZM6 23h24v1H6v-1ZM32 6h-1v16h1V6Z" fill="#996300"/>
    <path d="M30 6H6v16h24V6Z" fill="#fff"/>
    <path d="M13 11h-1v1h1v-1Zm1 0h-1v1h1v-1Zm1 0h-1v1h1v-1Zm1 0h-1v1h1v-1Zm1 0h-1v1h1v-1Zm1 0h-1v1h1v-1Zm2 0h-1v1h1v-1Zm1 0h-1v1h1v-1Zm1 0h-1v1h1v-1Zm1 0h-1v1h1v-1Zm1 0h-1v1h1v-1Zm1 0h-1v1h1v-1Zm-12 1h-1v1h1v-1Zm3 0h-1v1h1v-1Zm1 0h-1v1h1v-1Zm1 0h-1v1h1v-1Zm2 0h-1v1h1v-1Zm3 0h-1v1h1v-1Zm1 0h-1v1h1v-1Zm1 0h-1v1h1v-1Zm-15 1H9v1h1v-1Zm1 0h-1v1h1v-1Zm1 0h-1v1h1v-1Zm1 0h-1v1h1v-1Zm3 0h-1v1h1v-1Zm1 0h-1v1h1v-1Zm1 0h-1v1h1v-1Zm1 0h-1v1h1v-1Zm1 0h-1v1h1v-1Zm3 0h-1v1h1v-1Zm1 0h-1v1h1v-1Zm1 0h-1v1h1v-1Zm-15 1H9v1h1v-1Zm3 0h-1v1h1v-1Zm3 0h-1v1h1v-1Zm1 0h-1v1h1v-1Zm1 0h-1v1h1v-1Zm2 0h-1v1h1v-1Zm3 0h-1v1h1v-1Zm1 0h-1v1h1v-1Zm1 0h-1v1h1v-1Zm-15 1H9v1h1v-1Zm3 0h-1v1h1v-1Zm3 0h-1v1h1v-1Zm1 0h-1v1h1v-1Zm1 0h-1v1h1v-1Zm2 0h-1v1h1v-1Zm3 0h-1v1h1v-1Zm1 0h-1v1h1v-1Zm1 0h-1v1h1v-1Zm-12 1h-1v1h1v-1Zm1 0h-1v1h1v-1Zm1 0h-1v1h1v-1Zm1 0h-1v1h1v-1Zm1 0h-1v1h1v-1Zm1 0h-1v1h1v-1Zm2 0h-1v1h1v-1Zm1 0h-1v1h1v-1Zm1 0h-1v1h1v-1Zm1 0h-1v1h1v-1Zm1 0h-1v1h1v-1Zm1 0h-1v1h1v-1Z" fill="#4D4D4D"/>
  </g>
  <defs>
    <clipPath id="a">
      <rect width="100%" height="100%" fill="#fff"/>
    </clipPath>
  </defs>
</svg>
