<svg xmlns="http://www.w3.org/2000/svg" viewBox="0 0 232.7 440.1"><defs><style>.a{fill:#ffd611;}</style></defs><rect class="a" y="371.6" width="25.1" height="14.42"/><rect class="a" x="28.4" y="268.4" width="22.8" height="103.27"/><rect class="a" x="54.9" y="19.1" width="22.2" height="250.11"/><rect class="a" x="36.2" y="253.2" width="7.4" height="16.91"/><rect class="a" x="9.6" y="384.5" width="6.3" height="6.3"/><rect class="a" x="62.4" width="7" height="19.12"/><path class="a" d="M577.7,515.9v-4.5c0-.3.1-.6.1-.8.3-2.7.4-5.4.8-8.1a70,70,0,0,1,5.3-18.5,74.2,74.2,0,0,1,70.8-44.2,67.3,67.3,0,0,1,17.3,2.8q33.6,10.2,47.8,42.4a67.3,67.3,0,0,1,5.2,19.8,62.2,62.2,0,0,1,.5,11.4v.6H661.2c-.8,0-.8,0-.8.7V528c0,.2.1.4.1.7h36.9v14H660.5V572a58.5,58.5,0,0,0,23.2-8.8c12.7-8.3,20.9-19.9,25-34.5H724a1.3,1.3,0,0,0-.1.6,75.6,75.6,0,0,1-4.8,14.6,73.9,73.9,0,0,1-112.2,28.6,73,73,0,0,1-26.3-38.6,69.3,69.3,0,0,1-2.7-15.1C577.9,517.9,577.8,516.9,577.7,515.9Zm28.2,12.8h37V517.5c0-.7,0-.7-.8-.7H592.9a57.9,57.9,0,0,0,13.5,34.5c9.5,11.4,21.7,18.2,36.4,20.7V542.7H605.9Zm45.8-34.4,26.1-33.5a58.6,58.6,0,0,0-30.2-6,57.4,57.4,0,0,0-22.1,6Zm57.8,8.4a55.4,55.4,0,0,0-6.2-17.2,57.4,57.4,0,0,0-12.4-15.7l-25.8,32.9Zm-97-32.9a58.5,58.5,0,0,0-18.7,32.9h44.4Z" transform="translate(-492.9 -147.4)"/></svg>