<svg xmlns="http://www.w3.org/2000/svg" viewBox="0 0 1800 1800"><g data-name="Layer 1"><path d="M0 0h1800v1800H0" fill="#a441e5"/><path d="M67 67h1669v1669H67" fill="#110f1c"/></g><path d="M1164 257 1300 485l277 89 87 226-190-130-74 58 64 59 145 39-109 51-153 44-800-153-279 109-85-64 89 13 113-100-79-85-83 73-8 54-32-100L294 550l134-18L453 300l121-185Z" fill="#00f20b" data-name="Layer 5"/><g data-name="Layer 3"><path d="M600 200a2300 2300 0 00-100 500 2274 2274 0 00 55 742l721 190 224-95-77-670-72-35V610l-115-43-190-285Z" fill="#eaeaea"/><path d="M672 240 600 342 642 500 500 712 600 900l-91 106 156 206L400 1140 385 1000l46-137 63-341V387L600 200Z" fill="#c9c9c9"/><path d="m936 272 100 20 194 291 90 33-32 100-120-42-33-84L1000 361l-119-34Zm387 571 72 50 16 123-118-100-30-170Z" fill="#fff"/><path d="m1300 954 61 53 83 32 57 500-223 91-617-158 455-134L1400 1200l-185-29Z" fill="#c9c9c9"/><path d="m400 1140 200 40 91 148 300 163 64 56 200-66 88 91-75 56-651-81-62-64h-59Z" fill="#a3a3a3"/></g><g data-name="Layer 4"><path d="M513 688c0-9 93-134 93-134L728 700Zm0 50 215 22L604 900l-91-162" fill="#003fef"/><path d="m894 570 92-87 137 71L976 410Zm-357-5L616 500l80 65-89-144ZM784 820l-106 200 156 56 92-118Z" fill="red"/><path d="m838 1156 58-50 160 82L1239 900l10-108 19 143-184 342-249-72-219 78-167-267 15-86 22 86L635 1200l145-76Z" fill="red"/><path d="M537 234 710 347l256-113-383-85Z" fill="#00f20b"/><path d="M881 688 1000 545s164 143 158 143Zm19 63 260-21-81 170L900 751" fill="#003fef"/></g></svg>
