<svg id="PXL_Beta_Stamp_O" xmlns="http://www.w3.org/2000/svg" viewBox="0 0 24 24"><defs><style>.cls-1{fill:#ff9d00;}.cls-2{fill:#fff;}</style></defs><polygon class="cls-1" points="0.39 0.39 15.87 0.39 15.87 8.13 8.13 8.13 0.39 0.39"/><polygon class="cls-1" points="8 16 8 8 0.52 0.52 0.52 23.48 8 16"/><polygon class="cls-1" points="15.74 8.26 23.48 0.52 23.48 23.48 15.74 15.74 15.74 8.26"/><polygon class="cls-1" points="15.74 0.52 15.74 8.26 23.48 0.52 15.74 0.52"/><polygon class="cls-1" points="8 16 8 23.48 0.52 23.48 8 16"/><polygon class="cls-1" points="8 15.74 15.74 15.74 23.48 23.48 8 23.48 8 15.74"/><path d="M24,24H0V0H24ZM.77,23.23H23.23V.77H.77Z"/><rect class="cls-2" x="8.13" y="8.13" width="7.74" height="7.74"/><path d="M16.39,16.39H7.61V7.61h8.78Zm-7.74-1h6.7V8.65H8.65Z"/><rect x="7.61" y="16" width="1.03" height="7.48"/><rect x="15.35" y="0.52" width="1.03" height="7.48"/><rect x="14.27" y="4.13" width="10.95" height="0.26" transform="translate(2.77 15.21) rotate(-45)"/><rect x="-1.22" y="19.61" width="10.95" height="0.26" transform="translate(-12.71 8.79) rotate(-45)"/><rect x="-1.22" y="19.61" width="10.95" height="0.26" transform="translate(-12.71 8.79) rotate(-45)"/><rect x="19.61" y="14.27" width="0.26" height="10.95" transform="translate(-8.18 19.74) rotate(-45)"/><rect x="4.13" y="-1.22" width="0.26" height="10.95" transform="translate(-1.76 4.26) rotate(-45)"/></svg>