<?xml version="1.0" encoding="UTF-8"?><svg id="a" xmlns="http://www.w3.org/2000/svg" viewBox="0 0 1500 1500"><defs><style>.b{fill:#f9b285;}.c{fill:#f6935c;}.d{fill:#903905;}</style></defs><rect width="1500" height="1500"/><path class="d" d="m546.77,790.85c8.6-8.15,47.25,77.89,47.25,77.89,0,0,58.06,134.21,227.67,177.75.17.04.33.06.51.06,5-.04,82.86-.74,103.9-9.51,126.09-52.54,151.36-108.03,116.38-176.6-27.6-54.11-68.52-48.66-108.4-86.64.05-.07.09-.14.14-.21-2.39,2.34-53.46,50.64-172.36,38.93,0,0,99.15,8.13,172.07-38.77.22-.14.42-.33.57-.55,7.69-11.01,14.06-22.7,18.9-34.9-6.96,17.05-18.66,33.61-38.32,42.13-45.23,19.6-191.52-77.62-221.45-98.04-1.61-1.1-.8-3.62,1.15-3.59l266.85,4.82c1.08.02,1.94.9,1.93,1.98-.05,6.03-.79,25.21-7.43,45.25,5.29-15.55,8.13-31.85,8.16-48.61.1-69.01-47.58-127.22-117.3-154.28-.62-.24-1.08-.78-1.21-1.44-4.67-23.62-15.07-45.46-29.99-64.57-34.71-44.45-92.36-54.49-138.47-34.19-.61.27-1.31.21-1.87-.16-35.77-23.38-156.42-49.6-206.93,9.67-11.37,13.34-105.18,121.09-87.62,146.72,67.99,99.25,98.22,77,30.58,176.48h0c22.82,29.87,26.27,70.26,8.83,103.55m423.51-336.26s-56.59.7-114.11,52.43c-1.9,1.71-4.53-1.03-2.72-2.83,24.25-24.24,63.16-50.73,116.84-49.6Z"/><path class="c" d="m1041.56,852.28s-77.21-38.7-100.98-59.77c-6.13-5.44-13.35-10.47-6.52-18.71,16.49-19.87,31.49-80.59,29.48-90.15-2.72-12.89-74.86-112.14-118.23-130.17-60.05-24.97.66-25.92.66-25.92,0,0,120.72,31.14,118.45,164.18-1.46,85.53,1.23,93.13,79.28,122.93,15.52,5.92-2.14,37.62-2.14,37.62Z"/><path class="b" d="m935.56,1067.82c-15.85-5.86-11.72-29.31,5.18-29.35,49.39-.11,107.91-1.9,115.59-9.52,2.12-2.1,3-2.19,2.93-.84,27.73-45.94,60.4-110.51,60.03-161.48-.24-33.01-40.56-61.43-72.3-52.38-6.9,1.97-3.42,9.21-5.73,14.42-9.23,20.83-8.13,52.6,4.37,54.41s-17.32,64.69-23.3,70.94c-106.47,111.34-182.97,9.66-171.42,91.85,1.57,11.18,137.39,82.84,169.33,41.74-1.01.65-1.96,1.12-2.84,1.37-8.79,2.5-46.08-7.94-81.84-21.15Zm112.34-203.31c-17.66-24.91,11.32-27.62,11.32-27.62,57.51-7.7,53.43,42.11,53.43,42.11,0,0-47.09,10.42-64.75-14.49Z"/></svg>