<svg xmlns="http://www.w3.org/2000/svg" version="1.1" width="1284" height="1284"><title>'goose-pfp-716911' by Dmitri Cherniak</title><desc>seed=716911
backgroundColor=#ffffff
padding=0
innerPadding=33
timeout=1500
dimension=1
border=false
Save=function(){return n.handleSave()}
frame=458

Rendered at Thu Oct 05 2023 14:52:59 GMT+0200 (Central European Summer Time)
Generated in &lt;1ms
</desc><defs></defs><rect width="100%" height="100%" fill="#ffffff"></rect><g><g id="0-0"><rect x="33" y="33" height="1218" width="1218" fill="#F0943E"></rect><g><rect id="33-33-3-2-4-7" x="398.4" y="276.6" width="487.2" height="852.6" fill="#4FAE4F"></rect><rect id="33-33-2-3-6-5" x="276.6" y="398.4" width="730.8" height="609" fill="#4FAE4F"></rect><rect id="33-33-4-8-2-2" x="520.2" y="1007.4" width="243.6" height="243.6" fill="#4FAE4F"></rect><rect id="33-33-1-7-8-1" x="154.8" y="885.6" width="974.4" height="121.8" fill="#F7CF46"></rect><rect id="33-33-3-6-4-3" x="398.4" y="763.8" width="487.2" height="365.4" fill="#F7CF46"></rect><rect id="33-33-4-7-2-1" x="520.2" y="885.6" width="243.6" height="121.8" fill="#F4B6AD"></rect><rect id="33-33-1-6-1-2" x="154.8" y="763.8" width="121.8" height="243.6" fill="#F7CF46"></rect><rect id="33-33-8-6-1-2" x="1007.4" y="763.8" width="121.8" height="243.6" fill="#F7CF46"></rect><rect id="33-33-3-4-1-1" x="398.4" y="520.2" width="121.8" height="121.8" fill="#00AFD7"></rect><rect id="33-33-6-4-1-1" x="763.8" y="520.2" width="121.8" height="121.8" fill="#00AFD7"></rect><rect id="33-33-3-5-1-1" x="398.4" y="642" width="121.8" height="121.8" fill="#000000"></rect><rect id="33-33-6-5-1-1" x="763.8" y="642" width="121.8" height="121.8" fill="#000000"></rect><rect id="33-33-2-1-1-2" x="276.6" y="154.8" width="121.8" height="243.6" fill="#F7CF46"></rect><rect id="33-33-4-1-2-2" x="520.2" y="154.8" width="243.6" height="243.6" fill="#F7CF46"></rect><rect id="33-33-7-1-1-2" x="885.6" y="154.8" width="121.8" height="243.6" fill="#F7CF46"></rect><rect id="33-33-2-2-6-2" x="276.6" y="276.6" width="730.8" height="243.6" fill="#F7CF46"></rect><rect id="33-33-3-2-1-1" x="398.4" y="276.6" width="121.8" height="121.8" fill="#1263BD"></rect><rect id="33-33-6-2-1-1" x="763.8" y="276.6" width="121.8" height="121.8" fill="#1263BD"></rect><rect id="33-33-2-9-2-1" x="276.6" y="1129.2" width="243.6" height="121.8" fill="#1263BD"></rect><rect id="33-33-6-9-2-1" x="763.8" y="1129.2" width="243.6" height="121.8" fill="#1263BD"></rect></g><rect x="33" y="33" stroke="white" stroke-width="0" height="1218" width="1218" fill="none"></rect></g></g></svg>