<svg xmlns="http://www.w3.org/2000/svg" viewBox="0 0 1230 1230" xmlns:v="https://vecta.io/nano"><style type="text/css">@keyframes scale-rotate {0% {transform: scale(1) rotate(0deg);}50% {transform: scale(2.5) rotate(180deg);}100% {transform: scale(1) rotate(360deg);}}</style><path d="M0 0h1230v1230H0z" fill="#044352"/><g id="all" style="position: absolute;transform-origin: 615px 615px;animation-name: scale-rotate;animation-duration: 30s;animation-timing-function: linear;animation-iteration-count: infinite;"><path d="M-653.6 633.9c-20.4-1.7-85.2-31.2-71.6-45.4-16.7-.7-6.6 17.1 16.1 31.9-2.8 9.1 21.4 21.3 37 28.8-25.9-4.3-63.9-22.7-62.2-33.4 1.3-8.1 14-2.4 3.2-11.2-34.1 13.8 11.3 42.5 53.9 54.6 35.8 6.2 48.5-23.2 23.6-25.3h0z" id="A"/><path d="M-711.9 621c-7.1-7.1-19.6-16.6-20.8-4.1-.7 7.6 35.9 27.2 49.4 29.1-11.4-5.8-27.5-18.6-28.6-25h0zm-5.6-48.4c-7.5 3.2 1.1 11.7 1.6 11.5-41.5 17.5 51.9 45.6 71.9 52 15 4.8-3.9 29.7-35.2 23.2-26.4-5.5-54.3-23.8-55.6-24.9 6.5 28.4 49 45.9 80.6 40.8 26.4-4.2 50.9-36.5 31.8-58.1 8.2-9 7.9-55.8-30.9-48.1-5.7-10.3-14.2-18.6-28-12.5-6.6-2.8-28.1-6.6-27.3-.9-13.8 6-8.9 17-8.9 17z" id="B"/><path d="M-709.3 622.7c33.2 21.1 54.1 20.5 57.3 22.1-10.4 13-55.3-12.4-57.3-22.1zm87.9-6.8c17.7-24.3-5.7-56.9-32-48.3-2-10-15.9-17.9-27.9-12.8-3.3-1.2-8.4-2.8-14.9-2.4-6.8-1.9-14.4-.4-14.8 3.3-6.7.6-11.5 11.2-8.7 16.6-2.6 2.1-2.6 7.9 1.4 10.3-1.6 1.6-3.4 1.6-5.5 3.5-10.2-1.4-15.3 9-8.6 17.3-12.2 2.3-17.2 17.5-5.8 28.7 12.6 43.6 88.9 64.8 115.6 25.3 6.8-9.8 11.8-30.2 1.2-41.5h0zm-48.1-50.4c-2-3.8-5.4-6.7-9.1-8.8 12-5.5 22.6 6 23.1 11.6-5.5-1.3-19.2-1.3-20.5 3.2-2-5.6-8.7-12.7-15.8-16.6 7.1-.6 18.1 5.3 22.3 10.6h0zm-38.9-9.9c5.4-7.3 28.3 6 31.7 18-.5.1-1.3.6-1.8 1-6.8-14.1-26.7-20.7-29.9-19zm-8.8 25.2c-2.2-2-3.2-4.1-1.6-6.7 5.8 9.6 19.7 12.6 29.8 14.3.1.6.1.8.2 1.2-5.5.8-9.8 1.8-13.2 3.1-3.9-1.9-8.5-3.1-12.2-7.8 5.6 2.5 11.4 4.3 18 5.1-8.1-3-16.3-4.9-21-9.2h0zm-20 47.2c-7-8.4-5.2-20.7 6.3-22.7 8.6 7.7-2.2 2.6-3.7 10.6-2.2 12 38.9 33.1 65.2 36.2 10.4 1.2 18.7-2 20.5-7.6 1.3-4.3-24.2-3-56.6-22.5-25.2-15.2-35.4-32.4-20.4-33.2-11.1 13.1 41.9 41.4 72.3 46 5.5.8 10.6 2.7 11.8 6.6 2.1 6.6-4.4 12.5-9.7 15-24.1 11.1-76.5-17.4-85.7-28.4h0zm53.9 18.1c-12.4-2.1-68.2-30.4-41-34.2 3.4 3.7 7.9 6.5 10.5 8.3.3 3.5 6.5 14.7 30.5 25.9h0zm56.9 11.5c-23 31.8-91.6 15.4-108.3-23.2 14.7 13.3 51.4 30 75.3 27.1 11.1-1.3 24.4-12.4 20.2-22.4-1.5-3.5-3.6-5.8-14.4-7.6-30.6-4.9-92.7-37.4-62.9-46.6 4.9 6.6 11.1 8.2 12.4 9.1-1.5.9-4.1 3.7-4.6 5.4 5.4-5.2 17.9-8.1 19.8-7.3 2.9 15.1 11.9 30.1 37.9 26.8 9.5-1.2.6-1.2.6-1.2l-5.8.1c-12.8.3-21.8-6.6-23.9-11 5.1 3.7 15.8 10.6 31.3 3.8.8-.3 2.2-2.1.4-1.3-17.5 7.1-36.9-6-37.9-13.2 7.4 10.7 25.9 16 41.5 7.2 3-1.7 5.4 2.6 6.8-.8 1.3-3.3-3.1-5-5.1-7.4-1.6-2-4.7-8.6-9.6-13.1-7.2-6.5-14.9-11.1-22.5-8.8.7-1.6 2.3-3.7 7.3-2.7 11.3 2.2 23.7 16.3 29.3 25.2 1.2.9 2.5 1.6.1-1.8-9.3-13-13.9-18.9-23.7-24.1 14.2.8 28.9 11 35.3 24.2-2.1-11.2-13.3-19.8-25-24.1 15.7-5.3 27.7 8.3 30.9 14.7 8.1 16.4-3.6 33.2-3.6 33.2 9 2.5 8.9 23.6-1.8 39.8h0zm-8.1-23.7c4.1 4.3 4.8 6.6 1.9 11.8 3.6-2.2 6.7-8.8-1.9-11.8z" id="C"/><path d="M-672.2 592.2c2.8 1.6 4.8-2.3 2-3.6-2.4-1.4-4 2.4-2 3.6zm28 4.8c-13.7-25.5-35.6-29.4-41.9-9.5-3.5 11.1 22.2 25.9 41.4 13.1 6.2 2.7 6.2-.2.5-3.6h0zm-30.2.6c-6.9-5.8.9-20.4 9.5-16 12.3 6.3.8 22.9-9.5 16zm-31.1-23.2c3.2 1.8 4.5-2.7 2-3.8-2.4-1.2-4.6 2.4-2 3.8zm-9.8-14.3c-13.1 18.1 18.6 25.3 26.7 26.4 2.9-7.5 5.2-8.6 8.4-11.2-2.1-8.3-27.5-25.6-35.1-15.2h0zm9.4 18c-8.9-5-.1-19.2 8.2-14.2 8.8 5.3.1 20-8.2 14.2z" id="D"/><path d="M-552.8 659.3c42.6-12.1 88-40.8 53.9-54.6-10.8 8.8 2 3.2 3.2 11.2 1.7 10.7-36.3 29.1-62.2 33.4 15.6-7.5 39.8-19.7 37-28.8 22.7-14.8 32.8-32.7 16.1-31.9 13.6 14.2-51.3 43.7-71.6 45.4-24.9 2-12.2 31.4 23.6 25.3h0z" id="E"/><path d="M-518.1 621c7.1-7.1 19.6-16.6 20.8-4.1.7 7.6-35.9 27.2-49.4 29.1 11.4-5.8 27.5-18.6 28.6-25h0zm5.6-48.4c7.5 3.2-1.1 11.7-1.6 11.5 41.5 17.5-51.9 45.6-71.9 52-15 4.8 3.9 29.7 35.2 23.2 26.4-5.5 54.3-23.8 55.6-24.9-6.5 28.4-49 45.9-80.6 40.8-26.4-4.2-50.9-36.5-31.8-58.1-8.2-9-7.9-55.8 30.9-48.1 5.7-10.3 14.2-18.6 28-12.5 6.6-2.8 28.1-6.6 27.3-.9 13.8 6 8.9 17 8.9 17z" id="F"/><path d="M-578 644.8c3.3-1.7 24.1-1 57.3-22.1-2 9.7-46.9 35.1-57.3 22.1zm-29.4 12.8c26.7 39.4 103 18.2 115.6-25.3 11.4-11.2 6.4-26.4-5.8-28.7 6.7-8.3 1.6-18.7-8.6-17.3-2.1-1.9-3.9-1.9-5.5-3.5 4-2.4 4-8.2 1.4-10.3 2.8-5.4-2-16-8.7-16.6-.4-3.7-8-5.2-14.8-3.3-6.5-.4-11.7 1.2-14.9 2.4-12-5.2-25.9 2.7-27.9 12.8-26.3-8.5-49.7 24-32 48.3-10.6 11.1-5.6 31.5 1.2 41.5h0zm69.2-102.7c-7.1 3.9-13.8 10.9-15.8 16.6-1.4-4.5-15.1-4.5-20.5-3.2.5-5.6 11.1-17 23.1-11.6-3.7 2.1-7.1 5-9.1 8.8 4.2-5.3 15.2-11.2 22.3-10.6h0zm-13.3 19.7c-.5-.4-1.3-.9-1.8-1 3.3-12 26.3-25.3 31.7-18-3.2-1.7-23.1 4.9-29.9 19zm17.8 15.6c6.6-.8 12.5-2.6 18-5.1-3.8 4.7-8.4 5.9-12.2 7.8-3.4-1.4-7.7-2.3-13.2-3.1.1-.5.1-.6.2-1.2 10-1.7 23.9-4.7 29.8-14.3 1.6 2.6.5 4.7-1.6 6.7-4.8 4.1-13 6-21 9.2h0zm-44.7 66.1c-5.3-2.5-11.8-8.4-9.7-15 1.2-3.8 6.2-5.7 11.8-6.6 30.4-4.6 83.4-32.8 72.3-46 15 .8 4.7 18-20.4 33.2-32.4 19.5-57.9 18.2-56.6 22.5 1.7 5.6 10 8.8 20.5 7.6 26.3-3 67.4-24.2 65.2-36.2-1.5-8-12.2-2.9-3.7-10.6 11.5 2.1 13.3 14.4 6.3 22.7-9.3 11.1-61.7 39.6-85.7 28.4h0zm62.2-36.2c2.6-1.8 7.1-4.5 10.5-8.3 27.2 3.8-28.6 32.1-41 34.2 24-11.1 30.2-22.3 30.5-25.9h0zm-89-2.5s-11.8-16.8-3.6-33.2c3.2-6.4 15.2-20 30.9-14.7-11.7 4.3-22.9 12.9-25 24.1 6.4-13.2 21.1-23.4 35.3-24.2-9.8 5.2-14.4 11.2-23.7 24.1-2.4 3.4-1.1 2.7.1 1.8 5.6-8.9 18-23 29.3-25.2 5-1 6.6 1.1 7.3 2.7-7.6-2.3-15.4 2.3-22.5 8.8-4.9 4.5-8 11.2-9.6 13.1-2 2.4-6.4 4.1-5.1 7.4 1.4 3.4 3.9-.9 6.8.8 15.6 8.7 34.1 3.5 41.5-7.2-1 7.2-20.4 20.3-37.9 13.2-1.8-.7-.4 1 .4 1.3 15.5 6.8 26.2-.1 31.3-3.8-2.1 4.4-11.1 11.3-23.9 11l-5.8-.1s-8.9 0 .6 1.2c26 3.3 35-11.8 37.9-26.8 1.8-.8 14.4 2.1 19.8 7.3-.5-1.7-3.1-4.5-4.6-5.4 1.3-.9 7.5-2.4 12.4-9.1 29.8 9.3-32.3 41.8-62.9 46.6-10.9 1.7-13 4.1-14.4 7.6-4.2 10.1 9.1 21.1 20.2 22.4 23.9 2.9 60.6-13.8 75.3-27.1-16.7 38.6-85.3 55-108.3 23.2-10.9-16-11-37.1-1.8-39.8h0zm9.7 16.3c-4.1 4.3-4.8 6.6-1.9 11.8-3.6-2.2-6.7-8.8 1.9-11.8z" id="G"/><path d="M-557.8 592.2c-2.8 1.6-4.8-2.3-2-3.6 2.4-1.4 4 2.4 2 3.6zm-27.4 8.5c19.2 12.8 44.9-2 41.4-13.1-6.3-19.9-28.2-16-41.9 9.5-5.8 3.3-5.8 6.2.5 3.6h0zm20-19.1c8.6-4.4 16.4 10.2 9.5 16-10.2 6.9-21.7-9.7-9.5-16zm40.7-7.2c-3.2 1.8-4.5-2.7-2-3.8 2.4-1.2 4.6 2.4 2 3.8zm-25.3.9c3.1 2.6 5.5 3.7 8.4 11.2 8.1-1.1 39.8-8.3 26.7-26.4-7.6-10.4-33 6.9-35.1 15.2h0zm17.5-11.4c8.4-5 17.1 9.2 8.2 14.2-8.3 5.8-17-8.9-8.2-14.2z" id="H"/><g transform-origin="615px 615px"><g id="I"><use href="#A" fill="#f5af1b"/><use href="#B" fill="#ef4723"/><use href="#E" fill="#f15b24"/><use href="#F" fill="#14bbe3"/><use href="#C" fill="#823a1b"/><use href="#G" fill="#42286b"/><g fill="#feffff"><use href="#D"/><use href="#H"/></g></g><g transform="matrix(1.48 0 0 1.48 295 -180)" id="J"><use href="#E" fill="#f5af1b"/><use href="#A" fill="#f15b24"/><use href="#F" fill="#ef4723"/><use href="#B" fill="#14bbe3"/><use href="#G" fill="#823a1b"/><use href="#C" fill="#42286b"/><g fill="#feffff"><use href="#H"/><use href="#D"/></g></g><g id="K"><g transform="matrix(.05 0 0 .05 645.68 595.7)" id="L"><use href="#I"/><use href="#J"/></g><use href="#L" transform="rotate(300 615 615)"/><use href="#L" transform="rotate(240 615 615)"/><use href="#L" transform="rotate(180 615 615)"/><use href="#L" transform="rotate(60 615 615)"/><use href="#L" transform="rotate(120 615 615)"/></g><use href="#K" transform="matrix(2.1904 0 0 2.1904 -732.5 -732.5)"/><use href="#K" transform="matrix(4.7961 0 0 4.7961 -2332.5 -2332.5)" id="M"/><use href="#M" transform="matrix(2.1904 0 0 2.1904 -732.5 -732.5)" id="N"/><use href="#N" transform="matrix(2.1904 0 0 2.1904 -732.5 -732.5)" id="O"/><use href="#O" transform="matrix(2.1904 0 0 2.1904 -732.5 -732.5)"/></g></g></svg>