<svg xmlns="http://www.w3.org/2000/svg" width="400" height="560" xmlns:v="https://vecta.io/nano"><path d="M0 0h400v560H0z"/><path d="M20 523.73V36.27A10.17 10.17 0 0 1 30.17 26.1h339.66A10.17 10.17 0 0 1 380 36.27v487.45a10.17 10.17 0 0 1-10.17 10.17H30.17A10.16 10.16 0 0 1 20 523.73z" fill="#fc1a05"/><path d="M42 347.35h316v172H42z" fill="#9c9118"/><path d="M42 44.64h316v473.43H42z" fill="none" stroke="#000" stroke-width="5" stroke-miterlimit="10"/><radialGradient id="A" cx="179.567" cy="223.412" r="232.916" gradientTransform="matrix(1.1328 0 0 0.6145 -5.4203 77.8543)" gradientUnits="userSpaceOnUse"><stop offset="0" stop-color="#065e2e"/><stop offset=".353" stop-color="#043c1d"/><stop offset="1"/></radialGradient><path d="M40.82,77.21H358V332.7H40.82V77.21z" fill="url(#A)"/><path d="M25 354.52h0c0-13.25 10.75-24 24-24h302c13.25 0 24 10.75 24 24h0c0 13.25-10.75 24-24 24H49c-13.25 0-24-10.74-24-24z"/><path d="M31.18 355.52v-2a18.5 18.5 0 0 1 18.5-18.5h300.65a18.5 18.5 0 0 1 18.5 18.5v2a18.5 18.5 0 0 1-18.5 18.5H49.68a18.5 18.5 0 0 1-18.5-18.5z" fill="#fc1a05"/><path d="M35.81 354.52h0a16 16 0 0 1 16-16h296.38a16 16 0 0 1 16 16h0a16 16 0 0 1-16 16H51.81a16 16 0 0 1-16-16z" fill="#f3f2e9"/><path d="M25 57.71h0c0-13.25 10.75-24 24-24h302c13.25 0 24 10.75 24 24h0c0 13.25-10.75 24-24 24H49c-13.25 0-24-10.75-24-24z"/><path d="M31.18 58.71v-2a18.5 18.5 0 0 1 18.5-18.5h300.65a18.5 18.5 0 0 1 18.5 18.5v2a18.5 18.5 0 0 1-18.5 18.5H49.68c-10.22 0-18.5-8.29-18.5-18.5z" fill="#fc1a05"/><path d="M35.81 57.71h0a16 16 0 0 1 16-16h296.38a16 16 0 0 1 16 16h0a16 16 0 0 1-16 16H51.81c-8.84 0-16-7.17-16-16z" fill="#f3f2e9"/><text transform="matrix(1.0294 0 0 1 134.0704 70.4468)" font-family="AcademyEngravedLetPlain" font-size="35.163">RAIDER</text><text transform="matrix(.8327 0 0 1 65.271 361.04)" font-family="ArialMT" font-size="19.648">= 77   Atk = 93  Spd = 79  Ele = scallywag</text><g fill="#e30206"><path d="M53.55 365.27l.18-15.82s-4.34-5.6-7.76-1.79c-4.39 4.88 7.58 17.61 7.58 17.61z"/><path d="M53.45 365l-.47-15.56h1.27v14.65z"/><path d="M53.55 365.27l.1-15.82s4.34-5.6 7.76-1.79c4.4 4.88-7.86 17.61-7.86 17.61z"/></g><path d="M71.41 518.07l20-46.24h216l20 46.24z"/><path d="M87.91 525.51l10.67-45.06h201.66l11.67 46z" fill="#fc1a05"/><text transform="matrix(1.0294 0 0 1 99.6579 514.8252)" font-family="Impact" font-size="26.924">THE UNPRUNABLES</text><path d="M254.96 300.62h33.15v29.9h-33.15v-29.9zm-142.8 0h33.15v29.9h-33.15v-29.9z" fill="#0c5e30"/><path d="M134.3,210.81h132.06v60.04H134.3V210.81z" fill="#065e2e"/><path d="M174.3,265.56h51.67v64.96H174.3V265.56z" fill="#0c5e30"/><path d="M146.78,149.33h106.7v61.84h-106.7V149.33z" fill="#005e2b"/><path d="M208.79,173.47h37.58v28.58h-37.58V173.47z"/><path d="M244.49 184.87h9.39v5.64h-9.39v-5.64zm-99.85-30.74l3.22-4.8 66.84 35.18-3.49 5.04-66.57-35.42zm2.41 23.42l-16.91 5.64 16.91-16.81v11.17zm0 15.73l-16.91 5.76 16.91-16.93v11.17zm106.43-26.9l17.04 16.81-17.04-5.64v-11.17z"/><path d="M253.48 182.11l17.04 16.93-17.04-5.76v-11.17zm-27.51 118.51h28.99v29.9h-28.99v-29.9zm-80.66 0h28.99v29.9h-28.99v-29.9z"/><path d="M153.36 236.98l81.6-2.64s2.28 11.29 0 13.33c-13.96 13.09-81.6-10.69-81.6-10.69z" fill="#aa2311"/><path d="M223.02 197.24l.54 1.08 1.74 1.2h3.22l1.74-.72.81-1.68-2.55 1.2h-2.95l-2.55-1.08z" fill="#fff"/><path d="M225.7 197.72h.81V200h-.81v-2.28zm2.01 0h.81V200h-.81v-2.28zm1.48-.48h.81v2.28h-.81v-2.28zm-5.24 0h.81v2.28h-.81v-2.28z"/><path d="M219.39 189.2s-1.21-4.32-.81-5.88c.27-1.08 2.01-2.76 2.95-3.36 1.21-.6 4.03-1.68 5.5-1.68s4.56 1.08 5.77 1.92c.81.6 2.55 1.92 2.82 2.88.54 1.44-.81 6.24-.81 6.24l.94 1.44-2.82 3.48-1.74.36-.27 1.2-2.28 1.2h-3.76l-2.28-1.44-.27-1.2-2.01-.24-2.82-3.72c.01 0 1.89-1.2 1.89-1.2z" fill="#fff"/><path d="M225.43 194.36c0 .24.54.36.54.36.27 0 .81-.36.81-.36s.54.36.81.36.54-.24.81-.36c.27-.6-1.21-2.52-1.21-2.52s-1.76 1.92-1.76 2.52zm.27-4.8c.27.24.27.84 0 1.08-.27.36-1.21 1.2-2.01 1.44-.81.24-2.28.36-2.82 0-.81-.6-.81-2.76-.27-3.36.54-.36 2.01-.36 2.82-.36.8.23 1.74.84 2.28 1.2zm2.28 1.68c-.27-.24-.27-.84 0-1.08.27-.36 1.21-1.2 2.01-1.44.81-.24 2.28-.36 2.82 0 .81.6.81 2.76.27 3.36-.54.36-2.01.36-2.82.36-.8-.12-1.74-.72-2.28-1.2zm-86.97-26.3c14.76.24 44.29-4.8 59.19-4.92s44.69 5.88 59.72 5.52c9.13-.24 27.11-3.6 35.3-6.72 7.25-2.64 20.4-10.33 25.9-14.65 6.31-4.92 22.68-16.57 19.46-22.69-1.48-2.76-15.7-3.96-15.7-3.96s-21.34.24-28.18-.84c-5.37-.84-15.03-5.04-20.27-6.72-4.16-1.32-16.91-3.96-16.91-3.96l3.36 7.68s-10.6-13.45-15.84-16.93c-4.83-3.24-15.84-7.92-21.88-9.25-6.31-1.44-19.19-3.36-25.63-3-8.32.24-25.23 2.76-33.02 5.52-5.1 1.8-14.36 6.36-17.85 9.49s-10.87 14.89-10.87 14.89l1.48-8.41-15.03 3.36c-3.36.96-9.53 3.48-12.75 4.56-1.61.6-4.7 2.04-6.44 2.4-9.39 1.68-29.66-.48-39.06 1.44-1.88.36-6.17 1.8-6.84 3.12-1.21 4.08 5.5 11.77 9.26 15.01 5.23 4.32 16.24 12.61 22.68 16.09 5.64 2.88 17.98 8.28 24.43 9.97 6.03 1.44 18.92 2.88 25.49 3z"/><path d="M64.11 120.63c-3.09.48 9.39-2.52 12.75-2.16 2.95.12 9.13.84 11.94 1.56 3.49.84 9.39 4.68 13.15 5.16s11.54-1.2 15.03-2.16l33.82-9.37c7.11-1.56 21.34-4.08 28.59-4.8 5.23-.6 16.11-1.44 21.34-1.32 8.19.12 24.56 1.56 32.61 3 7.92 1.44 22.95 5.64 30.47 7.68l26.44 6.48c2.28.24 7.11.48 9.39-.12 2.95-.6 7.65-4.44 10.74-5.16 4.83-.96 25.5.96 20 .96-4.83 0-14.76-.24-19.59.24-3.09.48-7.78 4.32-10.6 5.4a34.4 34.4 0 0 1-10.47.84c-7.11-.72-20.67-4.44-27.51-6.12l-29.79-6.24-31.27-3.72c-5.23 0-15.84.96-20.8 1.68l-28.32 4.68-33.03 8.42c-4.16.84-12.88 2.4-17.04 1.68-3.36-.48-8.32-3.24-11.27-4.44-2.28-.96-7.38-2.76-10.07-2.76-4.16-.01-9.53-.13-16.51.59z" fill="#fff"/><path d="M198.59 221.49s10.07-4.8 13.56-4.68c3.76.36 9.39 5.04 12.75 6.6 5.37 2.64 16.78 8.16 22.82 7.08 2.88-.82 5.36-2.52 6.98-4.8 1.07-2.04 0-9.37 0-9.37s5.37 10.69 4.56 14.41c-.81 3.24-5.91 9.13-9.39 10.33-6.17 2.28-20.13 2.4-26.31 1.08-6.44-1.56-23.62-10.45-23.62-10.45s-15.84 7.92-21.61 9.49c-5.91 1.56-18.66 3.84-24.43 2.16-3.89-1.2-11.68-5.88-12.88-9.37-1.61-4.2 2.42-17.29 2.42-17.29s.81 8.16 2.68 10.33c1.21 1.44 4.97 3.6 6.98 3.6 5.37 0 15.17-4.8 19.86-7.08 3.22-1.56 9.66-6 13.29-6.24 3.21-.12 12.34 4.2 12.34 4.2zm-42.55-33.14l7.78-9.49 23.76 9.49-24.69-13.45-6.85 13.45zm.41 8.89l7.52-16.81 28.05 13.81-35.57 3zm43.48 76.49l9.13-16.33H190.8l9.13 16.33z"/><text><tspan font-family="Arial-BoldMT" font-size="30.38" x="97.036" y="414.261">“But you have</tspan><tspan x="106.316" y="450.721" font-family="Arial-BoldMT" font-size="30.38">heard of me”</tspan></text></svg>