<svg xmlns="http://www.w3.org/2000/svg" xmlns:xlink="http://www.w3.org/1999/xlink" width="600" height="600"><style>.g{stroke-miterlimit:10}.h{stroke-width:.647}.i{stroke-width:.971}.j{stroke:#000}.k{fill:none}.l{fill:#1a8a08}.m{stroke-width:.648}.n{stroke-width:.972}.o{fill:#694635}.p{fill:#8f5e46}.q{stroke-width:.315}.r{fill:#024001}.s{stroke-width:4.555}</style><path fill="#f21400" d="M0 0h600v600H0z"/><path fill="#005eff" d="M25 25h550v550H25z"/><g class="j"><path d="M252 270h144v45H252z" class="g r s"/><ellipse cx="190" cy="140" fill="#474a47" stroke-width="2" rx="4" ry="22" transform="rotate(-61 190 140)"/><g class="g l s"><path d="M394 289q7 0 8-7l11-152q-1-6-7-5c-52 1-209-3-209-3q-7 1-7 9l16 137q3 17 21 18z"/><path d="M437 274c9-18 11-132 11-132l-2-3-28-15h-4l-15 161q0 3 4 3s9 0 16-2c5-1 14-3 18-12zm-23-152-1-28c0-2-18-12-40-20-8-3-14-4-32 2l-43 13c-10 2-32-13-56-13-13 0-23 7-36 12s-26 8-26 12v17a8 8 0 0 0 8 8h222z"/><path d="m458 147 6-13q2-3-1-6l-50-34h-1l1 30 1 3 36 22q4 3 8-2zm-74 340c0-12-42-38-91-38s-88 26-88 38 40 21 89 21 90-9 90-21z"/><path d="M234 405h123v74H234z"/></g></g><path d="M236 467h119v22H236z" class="l"/><path d="M360 490v-21l-122-6-9 4z" class="l"/><path d="m362 469-8-5-123 3v23z" class="l"/><g class="g j s l"><path d="M294 423c-143 0-132-90-132-90l262 3s6 87-130 87z"/><path d="M439 334q0-9-2-9-2-9-9-6l-267-2q-7 1-9 7c-1 10-1 25 6 26 94 25 195 13 262 5 10-1 19-10 19-21z"/><path d="M432 323q5-3 0-6a532 532 0 0 0-276 1q-3 1 0 4a530 530 0 0 0 276 1z"/></g><path stroke="#024001" stroke-width="2" d="M304 469c-29 1-39 0-56-4m114 17c-35 12-92 12-140-1" class="k g"/><g class="j"><path fill="#1e0140" stroke-width="5" d="M282 166c-1-8-13-10-28-12s-36 7-36 7-17 49 19 54c34 5 47-38 45-49z" class="g"/><path fill="#08bbfc" stroke-width="5" d="M283 174s-14-18-28-20-39 11-39 11-9 27 25 32c32 5 42-23 42-23z" class="g"/><path stroke-width="5" d="M287 163c-1-8-5-26-27-27-28-1-41 13-44 21-3 12-3 15 31 20 32 5 41-4 40-14z" class="g r"/><path fill="#d1a9a7" stroke-width="4" d="M284 171s-15-15-29-17-38 7-38 7-7 20 27 25c33 5 40-15 40-15z" class="g"/><ellipse cx="250" cy="166" fill="#f90" stroke-width="3" rx="14" ry="12" transform="rotate(-39 250 166)"/></g><ellipse cx="250" cy="166" rx="9" ry="5" transform="rotate(-81 250 166)"/><g class="j"><g class="g"><path fill="#ff00bf" stroke-width="6" d="M380 166c-1-9-12-27-41-29s-36 19-36 27c0 9 6 6 40 4 29 2 38 5 37-2z"/><path fill="#5c0105" stroke-width="5" d="M380 168s-12-7-40-9c-28-1-37 8-37 8s-4 31 51 31c29 0 26-30 26-30z"/><path fill="#d1a9a7" stroke-width="5" d="M380 168s-12-17-41-18-36 17-36 17 7 19 42 18c29 1 35-17 35-17z"/></g><ellipse cx="342" cy="168" fill="#f90" stroke-width="2" rx="22" ry="12"/></g><ellipse cx="342" cy="168" stroke="#fb2f30" stroke-width="5" rx="9" ry="5"/><path d="M301 243c18-3 74-32 73-16-3 31-139 52-149 25-5-15 57-6 76-9"/><path fill="#fff" d="M290 257c3-3 0-17 0-17h-19s-2 14 0 18c3 4 16 4 19-1m-21 1c2-4 0-18 0-18h-17s-2 15 0 18c3 4 14 4 17 0m-31-5c1-3-1-14-1-14l-9-2s-2 9-1 12c2 4 9 8 11 4m73 2c-4-2-4-16-4-16l18-6s5 13 4 17c-2 5-14 8-18 5m20-8c-3-3-4-15-4-15l15-4s7 11 6 15c-2 6-13 8-17 4m18-6c-3-2-5-14-5-14l12-4s4 10 3 13c-1 5-8 8-10 5m12-6c-3-2-4-13-4-13l9-4s4 6 4 10c-1 4-7 10-9 7"/><path fill="#ed1313" stroke-width="4" d="M215 247c7 52 166 27 168-26 1-27-63 8-84 11-22 3-88-12-84 15zm85-4c18-2 74-32 73-16-3 31-139 52-149 25-5-15 57-6 76-9z" class="g j"/><path d="m323 201-16-12a100 100 0 0 0 29 26q0-2-13-14m-47 8 9-19s-7 7-13 18l-9 19z"/><path d="M208 157s4-13 8-16l15-5-14 7zm184 7s-3-15-6-19c-3-3-17-8-17-8l15 10c3 4 8 17 8 17m-8 80-11 12c-4 4-17 10-17 10s12-6 16-10zm-3-41 5 4 4 7-4-7zm-172 36 1-5 6-4-5 4z" class="r"/><g stroke-width="3" class="g j"><use xlink:href="#B" class="o"/><use xlink:href="#B" fill="#4a3429"/></g><path d="M329 431c0-7 7-20 13-20s22 20 22 27-13 8-20 8c-6 0-15-8-15-15" class="p"/><path d="M329 431c0-7 6-23 12-23s23 22 23 29-13 8-20 8c-6 0-15-7-15-14" class="o"/><path d="M294 403q0-6 7-8c7-2 15 3 15 6s-7 5-11 6-11-1-11-4" class="p"/><path d="M294 402c-1-2 3-7 7-7s15 3 15 6-7 5-11 6-10-2-11-5" class="o"/><path d="M286 376q0 4-3 4c-2 1-8-1-9-2l6-3q4-1 6 1" class="p"/><path d="m286 376-3 4-9-2 6-3z" class="o"/><path d="M400 399q-2-8-9-9c-3 1-10 10-10 15 1 4 8 4 12 4 3 0 7-6 7-10" class="p"/><path d="M400 398q-2-7-9-8c-3 1-10 10-10 14s8 4 12 4c3 0 7-6 7-10m-105-32 15 4 22-3h15l30-6-44 3z" class="o"/><path fill="#54514f" d="M264 349q5-5 5-11l-2-3-8-8-1-4 1 6 8 8v5zm48-9v-6l2-3 1-1q4-6 0-13l-1-4-5-9 2 6 1 5 1 3v8l-1 1q-3 4-3 7c-2 8 6 26 9 22 3-3-6-10-6-16m68-2q1-4-2-8l-1-1 1 2q1 3-1 6l-2 4c-5 5-2 22 2 15 2-4-4-8-1-11q4-3 4-7m-39-26v-4q3-7 1-12l1-3-1 2v4q-3 6-3 14c2 5 7 7 7 13q0-8-5-14m65-16 1-7 3-9 4-4-3 4-2 9v8c-1 9-9 16-16 22q9-10 13-22"/><ellipse cx="393" cy="359" rx="3" ry="8" transform="rotate(-33 393 360)"/><g class="g j"><g class="k"><path d="m408 359-4-4" class="h"/><path d="M397 356h7" class="i"/><path d="m387 372-2-5" class="h"/><path d="m388 362-3 6" class="i"/></g><path fill="#fff" d="M392 354c-1 2 7 12 11 13 2 0 7-3 6-5-5-6-17-9-17-8zm-3 2c2 0 8 12 7 15-1 2-6 5-7 3-3-7-1-19 0-18z" class="q"/></g><ellipse cx="390" cy="355" rx="4" ry="3" transform="rotate(-22 390 355)"/><path d="M386 354q-2-2 1-5 3-1 5 1 1 3-2 4z"/><g class="g j k"><path d="m380 351 4 4" class="m"/><path d="M389 355h-6" class="n"/><path d="m391 344 3 5" class="m"/><path d="m391 354 3-5" class="n"/><path d="m399 347-2 5" class="h"/><path d="m391 355 7-3" class="i"/><path d="m380 359 5 1" class="h"/><path d="m390 356-6 4" class="i"/></g><ellipse cx="412" cy="261" rx="3" ry="8" transform="rotate(-46 412 261)"/><g class="g j"><g class="k"><path d="m398 265 5 2" class="h"/><path d="m409 266-6 1" class="i"/><path d="m416 247 2 5" class="h"/><path d="m417 258 1-7" class="i"/></g><path fill="#fff" d="M415 266c1-2-10-10-14-10-2 0-6 5-4 6 6 5 18 5 18 4zm2-2c-2 0-10-10-10-14 0-2 5-6 6-4 5 6 6 18 4 18z" class="q"/></g><ellipse cx="416" cy="265" rx="4" ry="3" transform="rotate(-33 416 265)"/><path d="M421 265q2 2 0 5h-5q-1-2 1-4 3-3 4-1"/><g class="g j k"><path d="m427 267-4-4" class="m"/><path d="m418 264 5-1" class="n"/><path d="m418 275-4-4" class="m"/><path d="m416 266-1 5" class="n"/><path d="M410 274v-5" class="h"/><path d="m415 265-5 5" class="i"/><path d="M426 259h-5" class="h"/><path d="m417 264 4-5" class="i"/></g><ellipse cx="122" cy="445" rx="9" ry="3" transform="rotate(-25 122 445)"/><g class="g j"><g class="k"><path d="m121 458 4-3" class="h"/><path d="m126 449-1 6" class="i"/><path d="m110 437 5-1" class="h"/><path d="m121 439-6-3" class="i"/></g><path fill="#fff" d="M128 443c-2 0-14 7-15 10 0 2 3 7 5 6 7-4 11-15 10-16zm-1-2c-1 2-14 6-17 5-2-1-4-7-2-7 7-3 19 1 19 2z" class="q"/></g><circle cx="127" cy="442" r="4" transform="rotate(-38 127 442)"/><path d="M129 438q3-1 5 1l-2 5q-2 1-4-2z"/><g class="g j k"><path d="m133 433-5 3" class="m"/><path d="m127 441 1-6" class="n"/><path d="m138 444-5 2" class="m"/><path d="m128 443 5 3" class="n"/><path d="m134 451-5-2" class="h"/><path d="m127 443 3 6" class="i"/><path d="m124 432-1 4" class="h"/><path d="m126 442-3-6" class="i"/></g><ellipse cx="179" cy="167" rx="3" ry="9" transform="rotate(-76 179 167)"/><g class="g j"><g class="k"><path d="M169 177h5" class="h"/><path d="m179 173-5 4" class="i"/><path d="m174 154 5 2" class="h"/><path d="m181 162-2-6" class="i"/></g><path fill="#fff" d="M184 170c-1-2-15-4-18-2-2 1-3 7 0 8 7 1 18-5 18-6zm0-3c-1 2-14-3-16-6-1-2 2-8 4-7 7 2 14 12 12 13z" class="q"/></g><circle cx="184" cy="169" r="4" transform="rotate(-66 184 169)"/><path d="M189 166q3 1 2 4t-4 3-1-4q0-3 3-3"/><g class="g j k"><path d="m195 165-6-1" class="m"/><path d="m185 167 4-3" class="n"/><path d="m191 177-5-2" class="m"/><path d="m184 170 2 5" class="n"/><path d="m184 179-3-4" class="h"/><path d="m184 169-3 7" class="i"/><path d="m189 159-4 2" class="h"/><path d="m184 167 1-6" class="i"/></g><text class="l" font-family="AcademyEngravedLetPlain" font-size="6" transform="translate(540 572)">HNFT PEPE</text><defs><path id="B" d="m398 357-4 19c0 5 9 11 9 19q2 12-7 17-7 6-18-1c-3-3-3-11-3-14q2-5 2-15l-5-12q-6-2-14 0c-3 2-4 10-4 14l-2 12q0 9 3 16c1 5 7 7 9 16 1 3 4 10 0 14-7 9-16 7-21 7q-7-2-13-7c-3-2-6-10-6-14-1-4 3-13 5-18l8-15c3-4 5-16 4-19-1-2-14 3-15 4-3 1-3 14-4 17l-7 11c-2 2-11 3-14 3q-7 0-10-6t3-16c7-10 3-14 1-15-3-2-4 5-10 9-2 1-8 0-10-1q-6-3-9-11l-1-7h46l48-3z"/></defs></svg>