<svg xmlns="http://www.w3.org/2000/svg" xmlns:xlink="http://www.w3.org/1999/xlink" viewBox="0 0 2401 2402"><image xlink:href="../31-01-2024_21-23-30/image-31-01-24-11-15-20.jpeg" width="48000" height="48000" data-name="Layer 1" opacity=".46" transform="translate( 1) scale(.05)"/><g data-name="Layer 3"><path d="M1 0h2400v2400h-2400" fill="#ff8f15"/><path d="M139 1522c100-50 209-107 317-171a4233 4233 0 00 965-800 291 291 0 00-57-186c-110-142-323-100-337-94a378 378 0 00-144 68A308 308 0 00 707 300 334 334 0 00 480 418a329 329 0 00-66 147C390 700 470 754 430 830c-18 34-35 26-147 109a1409 1409 0 00-113 91c-28 26-117 129-31 492Z" fill="#564c45"/><path d="M1447 956a83 83 0 00 15-56 106 106 0 00-10-30 126 126 0 01 6-77 308 308 0 00 0-163c-13-46-48-108-90-109-16 0-22 8-41 17a230 230 0 01-181-30c-95-44-95-82-140-83-77 0-135 100-150 132A464 464 0 00 828 900l-33 16c-6-6-54-50-100-35a100 100 0 00-47 52 638 638 0 00-34 100c-9 0 8-111-35-133a53 53 0 00-56 10c-21 22 0 56 0 100 6 100-56 131-62 254a427 427 0 00 6 83L9 1600l-8 800h2150a677 677 0 00-5-418 877 877 0 00-107-188c-138-205-252-274-238-394a200 200 0 01 33-88l-10-127 112-225-147 114c22-166 9-209-9-215s-67 49-90 100a454 454 0 00-35 176 557 557 0 00-31-174c-19-49-57-111-79-105s-32 72-16 129 65 87 61 144c0 25-12 59-31 63s-53-27-105-138" fill="#12ff18"/><path d="M1321 1305h125l12 140a507 507 0 00-157 107c-74 72-91 176-115 170s-14-21-17-35a168 168 0 01 21-107c60-107 191-142 185-163s-30-14-127 0Zm-552 107a655 655 0 01 159 41c63 25 111 45 131 93 9 21 16 60 0 69-31 21-109-119-246-143a266 266 0 00-152 19m326-125c-9 9-44-37-100-33s-76 38-83 31 16-25 34-65 15-74 29-79c34-15 134 132 120 146Z" fill="#1d1d1b"/><path d="M1072 955a146 146 0 00 0-72c-7-30-29-81-59-82s-83 65-64 115a84 84 0 00 46 45Zm229-31a74 74 0 01 0-53c10-22 31-25 83-52s64-41 71-36 8 37-50 159" fill="#fcfcfd"/><path d="M586 1086a850 850 0 01 327-100 1968 1968 0 01 737 21v58l-79-17v43l-72 40c-52-45-107-61-141-41a54 54 0 00-24 37c0 26 28 54 75 65A951 951 0 00 1154 1700l-87-88a500 500 0 00-33-189 519 519 0 00-168-222c73-90 74-114 68-121s-63 7-100 33c-56 40-77 91-90 86s12-51-8-83c-35-46-148-16-150-30Z" fill="#0019ff"/></g><g data-name="Layer 2"><path d="M890 1532a541 541 0 01 238 142 568 568 0 01 147 345 686 686 0 01-65 370" fill="none" stroke="#1d1d1b" stroke-linecap="round" stroke-miterlimit="10" stroke-width="25"/><path d="M220 2377a1600 1600 0 01 128-430 1200 1200 0 01 319-468c75-61 139-91 168-173a453 453 0 01 55-142c28-41 58-63 51-75s-48 0-80 13c-94 44-131 150-139 146s42-78 17-122-155-26-157-43 200-95 466-119a1926 1926 0 01 600 42v57a2235 2235 0 00-341-42 2400 2400 0 00-360 11" fill="none" stroke="#1d1d1b" stroke-linecap="round" stroke-linejoin="round" stroke-width="25"/><path d="M871 1217a547 547 0 01 200 400M18 1600l453-246a224 224 0 01-13-74c0-60 26-84 45-140 40-120-13-208 35-236a45 45 0 01 35 0c45 17 32 142 46 144s12-128 82-162a70 70 0 01 77 5c17 22 0 72-46 123" fill="none" stroke="#1d1d1b" stroke-linecap="round" stroke-linejoin="round" stroke-width="25"/><path d="M840 988a52 52 0 00 0-70c-14-11-48 0-67 27a39 39 0 01 0-29 60 60 0 01 81-16c33 24 22 89 5 100a20 20 0 01-19-12Z" fill="#1d1d1b"/><path d="M1529 963c0-70 0-107 16-110s43 42 82 135M1548 1200a211 211 0 00-86-87s-89-47-117-15a60 60 0 00 10 77c15 12 28 0 47 12s31 16 46 85a755 755 0 01 0 127 243 243 0 00 114 146 1523 1523 0 01 290 317c66 91 120 246 66 523" fill="none" stroke="#1d1d1b" stroke-linecap="round" stroke-linejoin="round" stroke-width="25"/><path d="M1416 1200a743 743 0 00-175 225 761 761 0 00-78 294m382-675c39 35 47 63 45 82s-24 41-42 85a225 225 0 00-18 77" fill="none" stroke="#1d1d1b" stroke-linecap="round" stroke-linejoin="round" stroke-width="25"/><path d="m1487 1118 84-47 9 17-70 46Z" fill="#1d1d1b"/><path d="M2148 2381c54-287 0-440-65-528-192-260-216-285-216-285a200 200 0 01-72-118c-6-59 32-93 35-182a323 323 0 00-8-80c88-146 125-224 112-234s-87 62-220 215m65-83c18-83 43-214 11-226s-116 82-133 192a271 271 0 00 5 100m-8 313a159 159 0 01-44-115 156 156 0 01 43-100" fill="none" stroke="#1d1d1b" stroke-linecap="round" stroke-linejoin="round" stroke-width="25"/><path d="M1301 945a100 100 0 01 0-72c23-50 92-44 170-100a300 300 0 00 60-58m-458 233c9-81-10-117-31-134S970 800 916 762a232 232 0 01-50-48m242 199a265 265 0 01 193 32" fill="none" stroke="#1d1d1b" stroke-linecap="round" stroke-miterlimit="10" stroke-width="20"/><path d="M1388 955a212 212 0 00 49-68 218 218 0 00 21-100m-552-22a179 179 0 00 7 100 175 175 0 00 88 95m455-180a242 242 0 00-87-269m77 459a109 109 0 00 17-40 100 100 0 00-12-64M1089 800a129 129 0 00-88-70 124 124 0 00-92 16" fill="none" stroke="#1d1d1b" stroke-linecap="round" stroke-miterlimit="10" stroke-width="20"/><path d="M1301 800a127 127 0 01 66-41 136 136 0 01 92 10M1353 450c23 34 20 52 16 61-16 35-95 34-150 23-119-25-143-110-220-100s-100 61-129 94A450 450 0 00 827 900" fill="none" stroke="#1d1d1b" stroke-linecap="round" stroke-miterlimit="10" stroke-width="20"/><path d="M1421 555a252 252 0 00-20-132c-63-133-261-187-412-138a400 400 0 00-222 200" fill="none" stroke="#1d1d1b" stroke-linecap="round" stroke-miterlimit="10" stroke-width="20"/><path d="M873 336a332 332 0 00-257-19 327 327 0 00-200 270c-15 106 47 134 25 213-30 112-169 117-257 211-70 74-121 219-42 524m990-775a193 193 0 00-131-126 154 154 0 00-85 9m359 103a121 121 0 01 58-59 115 115 0 01 85 0" fill="none" stroke="#1d1d1b" stroke-linecap="round" stroke-miterlimit="10" stroke-width="20"/><path d="M964 925c17 0 29-15 36-22a124 124 0 00 19-100L908 770a148 148 0 00 0 69c3 34 26 85 56 86Zm404-94c-22 0-38 23-44 32s-32 67-9 90a62 62 0 00 63 5 70 70 0 00 43-58 66 66 0 00-53-69Z" fill="#1d1d1b"/><path d="M1401 875c0 15-10 32-17 30s-7-16-7-24 0-21 8-23 16 8 16 17Zm-400-20c0 15-16 29-23 27s0-18 0-25 0-22 13-22 10 10 10 20Z" fill="#fcfcfd"/><path d="M1256 913a58 58 0 01 0-32 69 69 0 01 19-33" fill="none" stroke="#1d1d1b" stroke-linecap="round" stroke-miterlimit="10" stroke-width="20"/><path d="M2401 2400h-2400V0h2400ZM50 2350h2300V50H50Z" fill="#1d1d1b"/></g></svg>
