<?xml version="1.0" encoding="UTF-8"?><svg id="a" xmlns="http://www.w3.org/2000/svg" viewBox="0 0 1500 1500"><defs><style>.b{fill:#006837;}</style></defs><rect width="1500" height="1500"/><path class="b" d="m1064.62,737.66c.05-.07.1-.14.15-.21-2.32,2.27-53.38,50.65-172.37,38.93,0,0,99.46,8.15,172.41-38.99,2.6-3.7,5.03-7.48,7.32-11.33,9.95-14.9,15.58-31.68,18.76-46.04,1.69-7.24,2.86-14.62,3.46-22.1.7-7.45.66-12.12.65-12.17h0s-.17,0-.17,0c-.07-69.19-48.15-127.47-118.3-154.32-4.56-24.02-15.05-46.23-30.19-65.63-52.62-67.38-157.97-55.72-195.89,20.91l-99.75,190.49-32.15,46.9c-50.01,72.96-112.03,136.91-183.43,189.12l-51.38,37.58s35.05,14.5,76.29,38.49c43.22,28.14,109.81,71.8,168.56,111.59l-.02.26,61.94,42.4c32.05,22.6,55.41,40.25,60.93,47.26,0,0,15.09-70.64,41.06-97.21,17.89-18.3,30.04-29.44,37.16-37.17,27.76,16.87,58.18,36.09,84.35,35.2,99.06-3.34,157.52-20.1,187.72-62.46-2.7,1.13-5.35,1.84-7.83,2.02-21.73,1.57-43.07-13.65-94.25-10.3,0,0-40.57-14.78-12.51-62.97,0,0,6.11-32.01,87.17-31.46l49.86-2.64s1.64-.02,4.06.31c.02-1.63.04-3.27.04-4.93.08-54.39-23.75-103.56-63.64-141.53Zm-90.26-246.04s-80.39.99-146.95,88.22c0,0,48.8-90.29,146.95-88.22Zm-155.57,150.92l252.45,4.56c-5.94,9.82-8.56,33.19-9.52,44.73-.27,3.28.74,30.54,1.15,41.4-4.94,4.4-10.64,8.19-17.26,11.06-50.48,21.87-226.83-101.75-226.83-101.75Z"/></svg>