<svg xmlns="http://www.w3.org/2000/svg" width="24" height="24" xmlns:v="https://vecta.io/nano"><path d="M0 0h24v24H0z"/><path d="M1 1h22v22H1z" fill="#3b0f86"/><text transform="translate(21.497 22.879)" font-family="AcademyEngravedLetPlain" font-size=".239">HNFT PEPE</text><path d="M7.11 13.03h9.84v5H7.11z" fill="#065e2e"/><path d="M10.09 17.2h3.85V23h-3.85z" fill="#0c5e30"/><path d="M8.04 8.83h7.95v4.23H8.04z" fill="#005e2b"/><path d="M15.31 12l-.66-.74-1.68 1.01 1.98-1.65zm.06.76l-.72-1.37-1.94 1.41zm-6.68-.78l.65-.73 1.68 1.01-1.93-1.69zm-.06.76l.71-1.36 1.95 1.42z"/><path d="M9.04 14.86h5.9v1.7h-5.9z" fill="#c51d0b"/><path d="M9.4 15.21h5.15v1H9.4z" fill="#fff"/><path d="M13.57 20.2h6V23h-6zm-9.1 0h5.95V23H4.47z" fill="#9e1e14"/><g fill="#fff"><path d="M8.932 18.621l3.067 2.295-1.558 2.082-3.067-2.295z"/><path d="M12.002 20.915l3.067-2.295 1.558 2.082-3.067 2.295z"/></g><g fill="#ac9727"><path d="M12.5 21.28h-1 0v.09h0 1 0v-.09h0zm.04-.28h-1.1v.24h1.1V21z"/><path d="M12.13 20.32h-.27v.69h.27v-.69z"/><path d="M11.99 20.05l-.29.21.11.33h.36l.11-.33c.01 0-.29-.21-.29-.21zm0 .96l.13.12.13-.12-.13-.12-.13.12zm-.13-.12l-.13.12.13.12.13-.12-.13-.12h0z"/></g><g fill="#ac9725"><path d="M5.6 6.7l2.21 3.63s.23.51.23.66c0 .12.07.25.06.37-.01.09.01.3.11.35.07.03.28 0 .34-.05a.61.61 0 0 0 .15-.35c-.01-.15-.19-.41-.22-.55-.03-.12-.06-.38.01-.49.05-.09.23-.27.35-.28.19 0 .48.25.54.38s.04.43.05.58c.02.2.13.59.14.79.01.15-.1.47-.05.61.04.13.2.45.37.43.12-.01.23-.25.24-.35.01-.14-.11-.41-.15-.54-.06-.17-.18-.51-.2-.68-.03-.2-.03-.6.01-.8.03-.14.08-.42.19-.53.08-.08.32-.23.43-.2.18.05.28.38.32.52.03.11.1.33.1.45s-.11.36-.1.48c0 .08.03.27.12.3a.55.55 0 0 0 .4-.09c.08-.1-.01-.34-.05-.45l-.18-.48c-.03-.1-.14-.3-.12-.41s.17-.31.27-.39c.11-.08.37-.27.51-.23.1.02.16.21.18.29s.01.26.04.34c.05.1.27.26.33.36.08.14.1.46.12.61l.08.5c.02.09.06.27.06.36 0 .18-.08.54-.09.72 0 .09-.04.28.03.34a.59.59 0 0 0 .43.07c.1-.06.17-.27.15-.37-.02-.13-.2-.35-.24-.47-.15-.43-.21-1.36-.17-1.82.01-.12-.01-.37.08-.47.04-.04.19-.12.25-.1.09.03.15.2.17.27l.11.42c.01.09.01.27.01.36-.01.12-.1.35-.06.46.02.07.13.23.22.24a.38.38 0 0 0 .27-.12c.05-.1-.06-.32-.09-.42-.07-.18-.2-.54-.23-.73a1.62 1.62 0 0 1 0-.44c.03-.14.09-.43.21-.54.09-.08.37-.22.49-.2.16.04.33.29.38.42a4.73 4.73 0 0 1 .22.82c.03.22.08.65.07.87-.01.16-.12.47-.11.62.01.11.03.35.14.41.07.04.29.07.36.03.11-.07.18-.3.17-.4-.02-.13-.2-.34-.25-.46-.07-.16-.14-.5-.16-.68l-.05-.84c0-.13-.01-.39.03-.51.03-.08.09-.26.17-.31.06-.03.22-.07.28-.04.12.06.16.31.17.42.01.13.01.41.01.54 0 .09-.04.29-.03.38s.04.29.14.34c.05.03.22.03.27-.01.07-.05.1-.2.09-.27-.01-.08-.07-.24-.1-.31-.05-.11-.19-.3-.22-.41s-.04-.34-.03-.45c.01-.09-.04-.3.05-.36.04-.03.15-.03.19-.01.07.03.17.15.19.22.02.08-.01.24-.03.31-.02.08-.09.22-.09.3 0 .06.05.2.11.23.05.03.19.05.25.02.07-.04.13-.19.12-.25 0-.08-.07-.23-.1-.31-.06-.13-.21-.39-.22-.53-.01-.09.07-.36.07-.36l1.16-3.17-.97.9-1.01.95-.9-2.12-.97 2.13-1.11-1.5-1.07-1.34-.85 3.28-1-.89-1-.88v1.11l-.08 1.29L5.6 6.7z"/><circle cx="11.23" cy="4.15" r=".36"/><circle cx="14.43" cy="4.83" r=".36"/><circle cx="17.34" cy="5.19" r=".36"/><circle cx="8.31" cy="5.67" r=".36"/><circle cx="5.54" cy="6.66" r=".36"/></g><path d="M8.06 9.03l.13.47.42.22-.09-.47zm7.62-1.36l-.01.49-.35.31-.03-.47z" fill="#b02214"/><path d="M9.47 8.18l-.02.51.54.3-.01-.55z" fill="#3f4ea3"/><path d="M14.28 7.53l.24.44-.35.52-.24-.5z" fill="#384ea7"/><path d="M11.74 6.9l.73.83-.35 1.02-.78-.8z" fill="#b01c16"/></svg>