<svg xmlns="http://www.w3.org/2000/svg" width="24" height="24" xmlns:v="https://vecta.io/nano"><path d="M0 0h24v24H0z"/><path d="M1 1h22v22H1z" fill="#3c6ca8"/><text transform="translate(21.497 22.879)" font-family="AcademyEngravedLetPlain" font-size=".239">HNFT PEPE</text><g fill="#ccaa24"><g stroke="#b59319" stroke-miterlimit="10"><path d="M5.45 20.18h13.1v2.32H5.45z"/><path d="M10.09 17.86h3.85v4.64h-3.85z"/><path d="M7.1 13.21h9.84v4.66H7.1z"/><path d="M8.03 8.44h7.95v4.8H8.03z"/></g><path d="M8.54 12.03h6.95v2.05H8.54zm-2.59 8.61h12.1V23H5.95z"/><path d="M13.45 17.11v5.85h-2.9v-5.85z"/></g><g fill="#b5931e"><path d="M14.28 7.41H9.72h0v.35h0 4.56 0v-.35h0zm.22-1.08h-5v.93h5v-.93z"/><path d="M12.61,3.69h-1.22v2.67h1.22V3.69z"/><path d="M12 2.64l-1.32.8.5 1.3h1.64l.51-1.3c-.01 0-1.33-.8-1.33-.8zm0 3.73l.57.45.6-.47-.57-.45-.6.47zm-.6-.47l-.57.45.6.47.57-.45-.6-.47h0z"/></g><path d="M8.8 16.18h6.5v.23H8.8z" fill="#fc2812"/><g fill="#b5931e"><path d="M14.39 10.51l-1.73.86.2.28zm-.82-.79l-1.12 1.08.28.2zm-.96-.75l-.52 1.42.34.07zm-1.25.05l.25 1.57.34-.08zm-.64.67l.61 1.48.32-.14zm-.86.29l1.19 1.84.22-.14zm-.71 1.35l1.17 1.4.2-.17zm-.35 1.15l1.23 1.24.31-.35zm-.05 1.02l.99.65.13-.22zm-.38 1.94l1.25-1.01-.2-.17zm1.45-.16l.62-.97-.24-.1zm.7.33l.56-1.14-.25-.09zm1.33-.14l.32-1.26h-.65zm1.69.33l-.48-1.63-.33.12zm2.34-1.38l-1.97-.96-.14.29zm-1.49.76l-.25-.98-.49.24zm-4.35-3.9l.67.97.3-.25zm4.04.23l-1.02.43.2.27zm1.32.01l-2 1.08.14.19z"/><path d="M15.23 12.74l-1.72.26.23.57z"/></g><path d="M12 10.06L9.4 14.5h5.2z" fill="#fff" stroke="#000" stroke-width=".25" stroke-miterlimit="10"/><path d="M10.23 12.91l.46-.27.34-.17c.1-.07.33-.18.46-.22.13-.03.39-.07.52-.07.17.01.52.07.68.13.13.05.35.21.47.28.12.08.51.29.51.29l-.1.27-.41-.32c-.1-.08-.41-.3-.53-.34a2.94 2.94 0 0 0-.59-.12c-.13 0-.38.02-.5.06-.1.03-.26.14-.35.2l-.42.25c-.05.04-.18.18-.18.18l-.25.04-.11-.19z"/><path d="M10.46 12.95l.26.2c.06.06.21.15.28.19l.37.26a1.58 1.58 0 0 0 .36.14c.1.02.31.04.42.03s.33-.05.42-.1a3.26 3.26 0 0 0 .4-.24c.09-.07.2-.19.3-.25l.2-.12.19-.08.11.21-.17.09c-.08.03-.21.13-.28.18l-.38.24c-.1.05-.21.14-.32.17-.09.03-.37.07-.47.08a2.54 2.54 0 0 1-.39 0l-.26-.04a2.09 2.09 0 0 1-.37-.17l-.24-.17-.22-.16-.45-.28.24-.18z"/><ellipse cx="12" cy="13.11" rx=".81" ry=".86"/><circle cx="12" cy="13.1" r=".66" fill="none" stroke="#0b602a" stroke-width=".1"/><g fill="#fff"><circle cx="12.36" cy="12.91" r=".2"/><path d="M8.37 19.63H9.4L15.73 23H8.07z"/></g></svg>