<?xml version="1.0" encoding="UTF-8"?>
<svg viewBox="-10 -10 130 130" xmlns="http://www.w3.org/2000/svg">
<defs><style>.a,.c{fill:#eee;}.k,.b{fill:none;animation: d 73s linear infinite;fill-opacity:1;}.j{fill:#222;}.b,.c,.d,.e{stroke:#222;stroke-linecap:round;stroke-linejoin:round;}.d{fill:none;}@keyframes d{0%{fill:#FC0;}25%{fill:#6F3;}50%{fill:#CAE;}75%{fill:#5DD;}100%{fill:#FC0;}}</style></defs>
<title>🦢</title>
<rect class="j" x="-10" y="10" width="100" height="100"/><rect class="k" x="-5" y="5" width="100" height="100"/><rect class="a" width="100" height="100"/><path class="b" d="M13.1,66.3,31.4,15.8a8,8,0,0,1,15.4,1.6L55,73.9a16,16,0,0,0,31.8-.4l3.5-29.7a5.4,5.4,0,0,0,0-.6V14.9a5.4,5.4,0,0,0-9.2-3.8L67,25.2a5.4,5.4,0,0,0-1.5,2.7L61.8,44.4a5.3,5.3,0,1,1-8.7-5.2l7.1-6.2a5.4,5.4,0,0,0-5.8-9L35.6,32.5a8,8,0,0,0-3.8,10.8L42.5,64.6a16,16,0,1,1-29.4,1.7Z"/><path class="c" d="m31.3 16.2a8 8 0 1 1 0.5 6.1 8 8 0 0 1-0.5-6.1z"/><path class="d" d="m28.8 55.8a16 16 0 1 1-5.9 0.9 16 16 0 0 1 5.9-0.9z"/><path class="c" d="m57.3 38a5.3 5.3 0 1 1-3.9 1 5.3 5.3 0 0 1 3.9-1z"/><circle class="e" transform="translate(24.6 83.9) rotate(-86.9)" cx="56.6" cy="29" r="2.5"/><circle class="e" transform="translate(38 98.1) rotate(-86.9)" cx="70.8" cy="29" r="2.5"/><circle class="e" transform="translate(51.3 112.2) rotate(-86.9)" cx="84.9" cy="29" r="2.5"/><circle class="e" transform="translate(65.4 98.9) rotate(-86.9)" cx="84.9" cy="14.9" r="2.5"/><circle class="e" transform="translate(-1.5 1.5) rotate(-2.2)" cx="38.9" cy="39.8" r="3.5"/><path class="e" d="m64.1 71.6a6.7 6.7 0 1 1 2 4.8 6.7 6.7 0 0 1-2-4.8z"/><circle class="e" transform="translate(37.2 125.6) rotate(-86.9)" cx="84.9" cy="43.1" r="2.5"/>
</svg>
