<svg xmlns="http://www.w3.org/2000/svg" width="24" height="24" xmlns:v="https://vecta.io/nano"><path d="M0 0h24v24H0z"/><path d="M1 1h22v22H1z" fill="#0f5c21"/><text transform="translate(21.497 22.879)" font-family="AcademyEngravedLetPlain" font-size=".239">HNFT PEPE</text><path d="M5.43 20.51h13.2V23H5.43z" fill="#1f1f1f"/><g fill="#4f4739"><path d="M7.11 11.71h9.84v6.31H7.11z"/><path d="M10.09 17.81h3.85v2.7h-3.85z"/></g><path d="M8.04 7.41h7.95v4.3H8.04z" fill="#504739"/><g fill="#736453"><path d="M9.01 8.36h6.02v5.57H9.01z"/><path d="M8.15 12.17h7.75v5.4H8.15z"/></g><path d="M9.45 15.13h5.15v1.05H9.45z" fill="#c51d0b"/><path d="M9.45 15.58h5.15v.15H9.45z"/><path d="M10.24 12.82h1.1v.6h-1.1zm2.43 0h1.1v.6h-1.1z" fill="#4f4739"/><path d="M11.34 12.7h1.33v.75h-1.33z" fill="#726453"/><radialGradient id="A" cx="15.886" cy="12.202" r="3.661" gradientTransform="matrix(1 0 0 0.5016 0 6.1623)" gradientUnits="userSpaceOnUse"><stop offset="0" stop-color="#676766"/><stop offset="1" stop-color="#3a3a39"/></radialGradient><path d="M14.72 13.59l.54-2.32.8.73.39 2.21z" fill="url(#A)"/><radialGradient id="B" cx="11.339" cy="12.202" r="3.692" gradientTransform="matrix(-1 0 0 0.5016 19.498 6.1623)" gradientUnits="userSpaceOnUse"><stop offset="0" stop-color="#676766"/><stop offset="1" stop-color="#3a3a39"/></radialGradient><path d="M9.3 13.59l-.54-2.32-.94.73-.22 2.21z" fill="url(#B)"/><path d="M9.41 10.59l.53-.37 1.45-.07-1.6-.39zm5.25 0l-.54-.37-1.45-.07 1.6-.39z" fill="#4d4d4c"/><path d="M13.64 9.4l-1.63-.22-1.6.23 1.6-.39zm-.32-.45l-1.33-.16-1.31.19 1.31-.31z" fill="#4f4739"/><circle cx="10.54" cy="11.35" r=".62" fill="#fff" stroke="#000" stroke-width=".1"/><circle cx="10.54" cy="11.35" r=".33"/><path d="M11.67 11.19h.72v.2h-.72zm3.04.05h.9v.2h-.9zm-6.14-.02h.8v.2h-.8z" stroke="#000" fill="#818181" stroke-width=".05" stroke-miterlimit="10"/><path d="M9.42 11.78v-.83a.39.39 0 0 1 .39-.39h1.41a.39.39 0 0 1 .39.39v.83a.39.39 0 0 1-.39.39H9.81c-.21.01-.39-.17-.39-.39z" opacity=".49" fill="#818181"/><g stroke-width=".1"><path d="M9.37 11.63v-.56a.55.55 0 0 1 .55-.55h1.21a.55.55 0 0 1 .55.55v.56a.55.55 0 0 1-.55.55H9.91c-.3 0-.54-.25-.54-.55z" fill="none" stroke="#818181" stroke-miterlimit="10"/><circle cx="13.51" cy="11.32" r=".62" fill="#fff" stroke="#000"/></g><circle cx="13.51" cy="11.32" r=".33"/><path d="M14.63 11.76v-.83a.39.39 0 0 0-.39-.39h-1.41a.39.39 0 0 0-.39.39v.83a.39.39 0 0 0 .39.39h1.41a.39.39 0 0 0 .39-.39z" opacity=".49" fill="#818181"/><path d="M14.69 11.6v-.56a.55.55 0 0 0-.55-.55h-1.21a.55.55 0 0 0-.55.55v.56a.55.55 0 0 0 .55.55h1.21a.55.55 0 0 0 .55-.55z" fill="none" stroke="#818181" stroke-width=".1" stroke-miterlimit="10"/><g fill="#6b8262"><path d="M11.06 23l-.97-3.05h3.85L13.22 23z"/><g stroke-width=".05" stroke-miterlimit="10" stroke="#5a6d51"><path d="M10.09 20.51v-1.35l1.94.75-.44 1.45z"/><path d="M13.93 20.51v-1.35l-1.93.75.44 1.45z"/></g></g><radialGradient id="C" cx="12.404" cy="6.683" r="18.573" gradientTransform="matrix(1.13 0 0 2.0023 -0.8707 -10.061)" gradientUnits="userSpaceOnUse"><stop offset="0"/><stop offset=".331" stop-color="#5d5d5c"/><stop offset=".657" stop-color="#8e8d8c"/><stop offset=".887" stop-color="#a1a0a0"/><stop offset="1" stop-color="#a6a6a6"/></radialGradient><path d="M13.77 8.36c-.34.02-.99.53-.99.53l-.29-.53-1.04.8-.1-.8-.95.72-.05-.72-.57.79-.33-.38-.29 1.02c-.04.25-.04.78-.15 1.05-.1.24-.18.62-.24.87-.04.19-.55.7-.55.7l-.62.29-.65 1.35-.3-1.2.09-.75-.53.2.24-.99.2-.73-.47-.18.54-1.06.48-.69h-1l.84-1.32.66-.71-1.05-.25 1.38-1.13c.46-.3 1.47-.72 1.99-.81.49-.09 1.48.04 1.96.14.33.07.98.35 1.28.52.28.15 1.06.75 1.06.75s.76-.52 1.05-.56c.25-.03.79.07 1 .23.33.26.99 1.42.99 1.42l-.56-.03.64 1.5.53 1.19-1.14-.63.65 1.71-.8-.34.85 1.17.79 1.65-.69-.75-.41-.21.06.66-.33.95-.74-.72-.57-.72s-.45-.65-.52-.91c-.15-.54-.03-1.33-.08-1.7-.04-.26-.25-1.03-.43-1.21-.19-.2-.6-.19-.84-.18z" fill="url(#C)"/><path d="M12 20.08h.05v2.9H12z" fill="#596d51"/></svg>