<?xml version="1.0" standalone="no"?>
<!DOCTYPE svg PUBLIC "-//W3C//DTD SVG 20010904//EN"
 "http://www.w3.org/TR/2001/REC-SVG-20010904/DTD/svg10.dtd">
<svg version="1.0" xmlns="http://www.w3.org/2000/svg"
 width="24.000000pt" height="24.000000pt" viewBox="0 0 24.000000 24.000000"
 preserveAspectRatio="xMidYMid meet">

<g transform="translate(0.000000,24.000000) scale(0.100000,-0.100000)"
fill="#000000" stroke="none">
<path d="M67 224 c-4 -4 -7 -18 -7 -30 0 -13 -5 -26 -11 -30 -8 -4 -7 -9 2
-15 10 -6 10 -13 1 -33 -7 -17 -8 -27 -1 -31 5 -4 7 -15 4 -24 -3 -10 -1 -29
4 -42 5 -13 10 -18 10 -11 1 9 6 10 20 2 34 -18 65 -11 95 21 28 29 28 30 7
36 -17 4 -21 13 -21 44 0 22 5 39 11 39 8 0 8 4 1 13 -5 6 -12 23 -14 37 -3
22 -9 25 -48 28 -25 2 -49 0 -53 -4z m76 -81 c-13 -2 -35 -2 -50 0 -16 2 -5 4
22 4 28 0 40 -2 28 -4z m-31 -32 c10 15 13 14 30 -3 22 -22 23 -32 4 -25 -8 3
-29 2 -45 -3 -25 -7 -31 -6 -31 6 0 9 -5 12 -11 8 -7 -4 -7 1 1 16 11 21 12
21 26 3 13 -16 16 -16 26 -2z m71 -58 c-7 -2 -21 -2 -30 0 -10 3 -4 5 12 5 17
0 24 -2 18 -5z"/>
</g>
</svg>
