<svg xmlns="http://www.w3.org/2000/svg" width="500" height="500" fill-rule="evenodd" image-rendering="optimizeQuality" shape-rendering="geometricPrecision" viewBox="125 125 250 250"><circle cx="250" cy="250" r="125" fill="#f9e29f"/><path fill="#fcba31" d="M250 250V125c69 0 125 56 125 125z"/><path fill="#ee4f3a" d="M250 250V125c-69 0-125 56-125 125zm0 0v21h123l2-21zm0 39v18h111l8-18zm0 36v19h82q11-9 18-19z"/><path fill="#291f43" d="M250 250v21h-69a9 9 0 0 0-9 9 9 9 0 0 0 9 9h69v18h-22a9 9 0 0 0-9 9 9 9 0 0 0 9 9h22v50c-69 0-125-56-125-125z"/></svg>