<svg xmlns="http://www.w3.org/2000/svg" viewBox="0 0 1800 1799"><g data-name="Layer 2"><path d="M0 0h1800v1799H0" fill="#19ff00"/><path d="M56 58H1740v1700H56" fill="#2e302e"/></g><g data-name="Layer 1"><path d="m355 1281 27 100a525 525 0 01 311 84 510 510 0 01 144 145l188 20a537 537 0 01 486-254l35-100Z" fill="#19ff00"/><path d="M700 612a539 539 0 00-418 127 221 221 0 00-72 128c-18 132 128 239 137 246" fill="none" stroke="#19ff00" stroke-linecap="round" stroke-linejoin="round" stroke-width="15"/><path d="M694 786c-227 28-341 61-343 100 0 12 10 25 32 39m-32 243h1193" fill="none" stroke="#19ff00" stroke-linecap="round" stroke-linejoin="round" stroke-width="15"/><path d="M852 1599a371 371 0 01-300-6c-184-100-270-416-133-755" fill="none" stroke="#19ff00" stroke-linecap="round" stroke-linejoin="round" stroke-width="15"/><path d="M817 1352h73" fill="none" stroke="#fff" stroke-miterlimit="10" stroke-width="50"/><path d="M816 1337h47v26h-47" fill="#3c9900"/><path d="M823 1330h61" fill="none" stroke="#2e302e" stroke-linecap="round" stroke-linejoin="round" stroke-width="40"/><path d="M966 1352h72" fill="none" stroke="#fff" stroke-miterlimit="10" stroke-width="50"/><path d="M965 1337h47v26h-47" fill="#3c9900"/><path d="M972 1330h61" fill="none" stroke="#2e302e" stroke-linecap="round" stroke-linejoin="round" stroke-width="40"/><path d="M923 1370v100h60" fill="none" stroke="#06ba06" stroke-miterlimit="10" stroke-width="30"/><path d="M875 1552h127v-39" fill="none" stroke="#2e302e" stroke-miterlimit="10" stroke-width="40"/><path d="M1380 484a100 100 0 01-43 21c-58 13-107-32-118-20s8 32 23 48a160 160 0 00 134 35m-141-176a65 65 0 00 74 44 54 54 0 00 26-30" fill="none" stroke="#19ff00" stroke-linecap="round" stroke-linejoin="round" stroke-width="11"/><path d="M1324 345a71 71 0 00-54-15c-16 0-40 13-40 27s37 36 69 31a71 71 0 00 29-14" fill="none" stroke="#19ff00" stroke-linecap="round" stroke-linejoin="round" stroke-width="12"/><path d="M1308 359a27 27 0 01-32 26 28 28 0 01-20-36 27 27 0 01 25-18 27 27 0 01 27 28Z" fill="#19ff00"/><ellipse fill="#fff" cx="1292" cy="356" rx="8" ry="11"/><path d="M612 1197h-63l8 23 60 6v24h-62m87-53 5 56m46-52-46 24 52 22m67-46h-42l-2 49 52 3m-9-28-39-1m-135 38-8-72m206 11 22 55 22-57m33-2v56m25 0 4-56 39 59 5-60m92-3v58m43-55-43 26 43 25m20-54 5 58 43-4m65-50h-47l6 50 41 4m0-29-39 2m71-28v57m29 0v-57l42 60 10-57" fill="none" stroke="#19ff00" stroke-linecap="round" stroke-linejoin="round" stroke-width="13"/><path d="M467 632C500 599 749 344 900 213c28-25 84-73 128-56a78 78 0 01 41 47 159 159 0 01 110-46 183 183 0 01 150 149c7 37-6 47 7 87s43 57 52 100-11 53-16 100A255 255 0 00 1400 735c79 170 161 347 149 500a464 464 0 01-187 311 475 475 0 01-341 79" fill="none" stroke="#19ff00" stroke-linecap="round" stroke-linejoin="round" stroke-width="15"/><path d="M1371 638A471 471 0 01 1500 782a486 486 0 01 46 348" fill="none" stroke="#19ff00" stroke-linecap="round" stroke-linejoin="round" stroke-width="15"/></g></svg>
