<svg xmlns="http://www.w3.org/2000/svg" width="999" height="999" fill-rule="evenodd" image-rendering="optimizeQuality" shape-rendering="geometricPrecision"><path fill="#fef9f2" stroke="#373435" stroke-miterlimit="3" stroke-width="8" d="M4 5h990v990H4z"/><path fill="#373435" d="M174 635h216v220H174z"/><path fill="#fff" d="M174 635h14l-5-3c4-7 11 3 17-2-1-5-17-11-20-13l1-3c6-1 15 8 20 8-4-10-15-12-14-19 8-1 11 11 17 13-1-7-6-12-6-17 10 1 5 20 19 17l-1-10 3-4c4-1 0 15 4 30l1 3h55q8-10 22-9c7 0 7-3 8-3 6-5 8-13 14-20l4-6c11-17 23-10 26-5 4-6 15-9 19 1 5 2 2 1 5 7q4 2 6 6 0 6-3 9 7 3 7 8l-11 6q6 4 6 6h8v56q6 1 9 7c19 11 14 11 36 11q7-2 7 4c-5 1-8-1-11 2 4 6 18 7 20 8 0 8-8-1-18-1q3 6 8 8c7 4 9 3 8 7-7 3-15-10-19-8v2l2 3q8 7 11 12c-5 1-9-4-11-6-8-10-6-11-12-7q-1 4 2 6l2 5q-4 2-7-2l-2-7q-2-9-5-13c-3-7-11-8-20-11v35q5 7 5 13a14 14 0 0 1-5 10v86h-9q0-2-6-6l11-5q0-5-7-8 3-4 3-10l-6-6c-3-6 0-5-5-6-4-11-15-7-19-2-3-4-15-11-26 5l-4 7c-6 6-8 15-13 19-2 1-2 3-9 3q-14 0-22 9h-54l-2-3c-4-14 0-31-4-30q-2 2-2 5v9c-14 3-9-15-19-17 0 5 5 10 7 17-7-2-10-14-18-13 0 7 10 9 14 20-5-1-14-10-20-9l-1 3c4 2 19 9 20 13-6 5-13-5-17 2l5 3h-13v-86q5-4 5-10 0-7-5-13v-35c9 3 17 4 20 11q3 4 5 13l2 7q3 4 6 2h1l-2-5q-3-2-2-6c6-4 4-3 12 7 2 2 6 7 11 6q-3-5-11-12l-2-3v-2c4-2 12 11 19 8 1-4-1-3-8-7q-5-2-8-8c10 0 17 9 18 1-2-1-16-2-20-8 3-3 6-1 11-2q-1-6-7-4c-22 0-17 0-36-11q-3-6-9-7z"/><path fill="#606062" d="M390 635h216v220H390z"/><path fill="#373435" d="M390 635h14l-5-3c4-7 11 3 17-2-1-5-17-11-20-13l1-3c6-1 15 8 20 8-4-10-14-12-14-19 8-1 11 11 17 13-1-7-6-12-6-17 10 1 5 20 19 17v-10q0-3 2-4c4-1 0 15 4 30l1 3h55q8-10 22-9c7 0 7-3 8-3 6-5 8-13 14-20l4-6c11-17 23-10 26-5 4-6 15-9 19 1 5 2 2 1 5 7q4 2 6 6 0 6-3 9 7 3 7 8-6 2-11 6 6 4 6 6h8v56q6 1 9 7c19 11 15 11 36 11q7-2 7 4c-5 1-8-1-11 2 4 6 18 7 20 8 0 8-8-1-18-1q3 6 8 8c7 4 10 3 9 7-8 3-16-10-20-8v2l2 3q8 7 11 12c-5 1-8-4-11-6-8-10-6-11-12-7q0 4 2 6l2 5q-4 2-7-2l-2-7q-2-9-5-13c-3-7-11-8-20-11v35q5 7 5 13a14 14 0 0 1-5 10v86h-8l-7-6 11-5q0-5-7-8 5-4 3-10-1-4-6-6c-3-6 0-5-5-6-4-11-15-7-19-2-3-4-15-11-26 5l-4 7c-6 6-8 15-13 19q0 2-9 3-14 0-21 9h-55l-2-3c-4-14 0-31-4-30q-3 2-2 5v9c-14 3-9-15-19-17l7 17c-7-2-10-14-18-13 0 7 10 9 14 20-5-1-14-10-20-9l-1 3c4 2 19 9 20 13-6 5-13-5-17 2l5 3h-13v-86a14 14 0 0 0 5-10q0-7-5-13v-35c9 3 17 4 20 11q3 4 5 13l2 7q3 4 7 2l-2-5q-3-2-2-6c6-4 4-3 12 7 2 2 6 7 11 6q-3-5-11-12l-2-3v-2c4-2 12 11 19 8 1-4-1-3-8-7q-5-2-8-8c10 0 18 9 18 1-2-1-16-2-20-8 3-3 6-1 11-2q0-6-7-4c-22 0-17 0-36-11q-3-6-9-7z"/><path fill="#727376" d="M606 635h216v220H606z"/><path fill="#fff" d="M606 635h14l-5-3c4-7 11 3 17-2-1-5-16-11-20-13l1-3c6-1 15 8 20 8-4-10-14-12-14-19 8-1 11 11 18 13-2-7-7-12-7-17 10 1 5 20 19 17v-10q-1-3 2-4c4-1 0 15 4 30l2 3h55q7-10 21-9c7 0 7-3 9-3l13-20 4-6c11-17 23-10 26-5 4-6 15-9 19 1 5 2 2 1 5 7q4 2 6 6 1 6-3 9 7 3 7 8l-11 6q6 4 6 6h8v56q6 1 9 7c19 11 15 11 36 11q7-2 7 4c-5 1-7-1-11 2 4 6 18 7 20 8 0 8-8-1-18-1q2 6 9 8c6 4 9 3 8 7-8 3-16-10-20-8v2l2 3q8 7 11 12c-4 1-8-4-11-6-8-10-6-11-12-7q-1 4 2 6l2 5q-4 2-7-2l-2-7q-2-9-5-13c-3-7-11-8-20-11v35q5 7 5 13a14 14 0 0 1-5 10v86h-8c1-2-4-3-7-6l11-5q0-5-7-8 5-4 3-10-1-4-6-6c-3-6 0-5-5-6-4-11-15-7-19-2-3-4-15-11-26 5l-4 7c-6 6-8 15-13 19q0 2-9 3-14 0-21 9h-55l-2-3c-4-14 0-31-4-30q-3 2-2 5v9c-14 3-9-15-19-17l7 17c-7-2-10-14-18-13 0 7 10 9 14 20-5-1-14-10-20-9l-1 3c4 2 19 9 20 13-6 5-13-5-17 2l5 3h-13v-86a14 14 0 0 0 5-10q0-7-5-13v-35c9 3 17 4 20 11q3 4 5 13l2 7q3 4 7 2l-2-5q-2-2-2-6c6-4 4-3 12 7 3 2 6 7 11 6q-3-5-11-12l-2-3v-2c4-2 12 11 20 8 1-4-2-3-9-7q-6-2-8-8c10 0 18 9 18 1-2-1-16-2-20-8 3-3 6-1 11-2q0-6-7-4c-21 0-17 0-36-11q-3-6-9-7z"/><path fill="#bdbfc1" d="M606 414h216v221H606z"/><path fill="#373435" d="M606 414h14l-5-2c4-8 11 3 17-3-1-4-16-10-20-13l1-3c6-1 15 8 20 9-4-11-14-13-14-20 8 0 11 12 18 13-2-6-7-11-7-17 10 2 5 21 19 17v-9q-1-3 2-4c4-1 0 15 4 30l2 2h55q7-9 21-9c7 0 7-2 9-3 5-4 7-13 13-19l4-7c11-16 23-9 26-4 4-6 15-10 19 1 5 2 2 1 5 6q4 2 6 7 1 5-3 9 7 2 7 8l-11 6q6 3 6 5h8v56q6 3 9 7c19 11 15 11 36 11q7-1 7 4c-5 2-7 0-11 3 4 6 18 7 20 8 0 8-8-1-18-1q2 6 9 8c6 4 9 3 8 6-8 3-16-9-20-8v3l2 2q8 7 11 13-6-1-11-7c-8-9-6-10-12-7q-1 4 2 7l2 4v1q-4 1-7-2l-2-8-5-13q-5-7-20-10v35q5 6 5 13t-5 10v86h-8c1-2-4-3-7-6l11-6q0-6-7-8 5-3 3-9-1-4-6-6c-3-6 0-5-5-7-4-10-15-7-19-1-3-5-15-12-26 5l-4 6-13 20-9 3q-14-1-21 9h-55l-2-3c-4-15 0-31-4-30q-3 1-2 4v10c-14 3-9-16-19-17l7 17c-7-2-10-14-18-13 0 7 10 9 14 19-5 0-14-9-20-8l-1 3c4 2 19 8 20 13-6 5-13-5-17 2l5 3h-13v-86q5-3 5-10t-5-13v-35q15 3 20 10l5 13 2 8q3 3 7 2v-1l-2-4q-2-3-2-7c6-3 4-2 12 7q4 6 11 7-3-6-11-13l-2-2v-3c4-1 12 11 20 8 1-3-2-2-9-6q-6-3-8-8c10 0 18 9 18 1-2-1-16-2-20-8 3-3 6-1 11-3q0-5-7-4c-21 0-17 0-36-11q-3-4-9-7z"/><path fill="#4b4b4d" d="M606 194h216v220H606z"/><path fill="#fff" d="M606 194h14l-5-3c4-7 11 3 17-2-1-4-16-11-20-13l1-3c6-1 15 8 20 9-4-11-14-13-14-20 8-1 11 11 18 13-2-7-7-12-7-17 10 2 5 20 19 17v-9q-1-3 2-5c4-1 0 16 4 30l2 3h55q7-9 21-9c7 0 7-2 9-3 5-4 7-13 13-19l4-7c11-16 23-10 26-5 4-6 15-9 19 2 5 1 2 0 5 6l6 6q1 7-3 9 7 4 7 9l-11 5q6 4 6 6h8v56q6 1 9 7c19 11 15 11 36 11q7-2 7 4c-5 1-7-1-11 3 4 5 18 6 20 7 0 8-8 0-18 0q2 5 9 8c6 3 9 2 8 6-8 3-16-9-20-8v3l2 2q8 7 11 13c-4 0-8-5-11-7-8-10-6-10-12-7q-1 4 2 6l2 5v1q-4 2-7-3l-2-7-5-13c-3-6-11-7-20-11v36q5 6 5 12 0 7-5 11v85h-8c1-2-4-3-7-5l11-6q0-6-7-8 5-4 3-9-1-5-6-7c-3-5 0-4-5-6-4-11-15-7-19-1-3-5-15-12-26 4l-4 7c-6 6-8 15-13 19q0 2-9 3-14 0-21 9h-55l-2-2c-4-15 0-31-4-30q-3 1-2 4v9c-14 4-9-15-19-17l7 17c-7-1-10-13-18-13 0 7 10 9 14 20-5-1-14-10-20-9l-1 3c4 3 19 9 20 13-6 6-13-5-17 3l5 2h-13v-85q5-4 5-11 0-6-5-12v-36c9 4 17 5 20 11l5 13 2 7q3 5 7 3v-1l-2-5q-2-2-2-6c6-3 4-3 12 7 3 2 6 7 11 7q-3-7-11-13l-2-2v-3c4-1 12 11 20 8 1-4-2-3-9-6q-6-3-8-8c10 0 18 8 18 0-2-1-16-2-20-7 3-4 6-2 11-3q0-6-7-4c-21 0-17 0-36-11q-3-6-9-7z"/><path fill="#d2d3d5" d="M390 194h216v220H390z"/><path fill="#373435" d="M390 194h14l-5-3c4-7 11 3 17-2-1-4-17-11-20-13l1-3c6-1 15 8 20 9-4-11-14-13-14-20 8-1 11 11 17 13-1-7-6-12-6-17 10 2 5 20 19 17v-9q0-3 2-5c4-1 0 16 4 30l1 3h55q8-9 22-9c7 0 7-2 8-3 6-4 8-13 14-19l4-7c11-16 23-10 26-5 4-6 15-9 19 2 5 1 2 0 5 6l6 6q0 7-3 9 7 4 7 9l-11 5q6 4 6 6h8v56q6 1 9 7c19 11 15 11 36 11q7-2 7 4c-5 1-8-1-11 3 4 5 18 6 20 7 0 8-8 0-18 0q3 5 8 8c7 3 10 2 9 6-8 3-16-9-20-8v3l2 2q8 7 11 13c-5 0-8-5-11-7-8-10-6-10-12-7q0 4 2 6l2 5v1q-4 2-7-3l-2-7-5-13c-3-6-11-7-20-11v36q5 6 5 12 0 7-5 11v85h-8q-1-2-7-5l11-6q0-6-7-8 5-4 3-9-1-5-6-7c-3-5 0-4-5-6-4-11-15-7-19-1-3-5-15-12-26 4l-4 7c-6 6-8 15-13 19q0 2-9 3-14 0-21 9h-55l-2-2c-4-15 0-31-4-30q-3 1-2 4v9c-14 4-9-15-19-17l7 17c-7-1-10-13-18-13 0 7 10 9 14 20-5-1-14-10-20-9l-1 3c4 3 19 9 20 13-6 6-13-5-17 3l5 2h-13v-85q5-4 5-11 0-6-5-12v-36c9 4 17 5 20 11l5 13 2 7q3 5 7 3v-1l-2-5q-3-2-2-6c6-3 4-3 12 7 2 2 6 7 11 7q-3-7-11-13l-2-2v-3c4-1 12 11 19 8 1-4-1-3-8-6q-5-3-8-8c10 0 18 8 18 0-2-1-16-2-20-7 3-4 6-2 11-3q0-6-7-4c-22 0-17 0-36-11q-3-6-9-7z"/><path fill="#e6e7e8" d="M390 414h216v221H390z"/><path fill="#fff" d="M390 414h14l-5-2c4-8 11 3 17-3-1-4-17-10-20-13l1-3c6-1 15 8 20 9-4-11-14-13-14-20 8 0 11 12 17 13-1-6-6-11-6-17 10 2 5 21 19 17v-9q0-3 2-4c4-1 0 15 4 30l1 2h55q8-9 22-9c7 0 7-2 8-3 6-4 8-13 14-19l4-7c11-16 23-9 26-4 4-6 15-10 19 1 5 2 2 1 5 6q4 2 6 7 0 5-3 9 7 2 7 8-6 2-11 6 6 3 6 5h8v56q6 3 9 7c19 11 15 11 36 11q7-1 7 4c-5 2-8 0-11 3 4 6 18 7 20 8 0 8-8-1-18-1q3 6 8 8c7 4 10 3 9 6-8 3-16-9-20-8v3l2 2q8 7 11 13-7-1-11-7c-8-9-6-10-12-7q0 4 2 7l2 4v1q-4 1-7-2l-2-8-5-13q-5-7-20-10v35q5 6 5 13t-5 10v86h-8l-7-6 11-6q0-6-7-8 5-3 3-9-1-4-6-6c-3-6 0-5-5-7-4-10-15-7-19-1-3-5-15-12-26 5l-4 6-13 20-9 3q-14-1-21 9h-55l-2-3c-4-15 0-31-4-30q-3 1-2 4v10c-14 3-9-16-19-17l7 17c-7-2-10-14-18-13 0 7 10 9 14 19-5 0-14-9-20-8l-1 3c4 2 19 8 20 13-6 5-13-5-17 2l5 3h-13v-86q5-3 5-10t-5-13v-35q15 3 20 10l5 13 2 8q3 3 7 2v-1l-2-4q-3-3-2-7c6-3 4-2 12 7q3 6 11 7-3-6-11-13l-2-2v-3c4-1 12 11 19 8 1-3-1-2-8-6q-5-3-8-8c10 0 18 9 18 1-2-1-16-2-20-8 3-3 6-1 11-3q0-5-7-4c-22 0-17 0-36-11q-3-4-9-7z"/><path fill="#727376" d="M174 414h216v221H174z"/><path fill="#373435" d="M174 414h14l-5-2c4-8 11 3 17-3-1-4-17-10-20-13l1-3c6-1 15 8 20 9-4-11-15-13-14-20 8 0 11 12 17 13-1-6-6-11-6-17 10 2 5 21 19 17l-1-9 3-4c4-1 0 15 4 30l1 2h55q8-9 22-9c7 0 7-2 8-3 6-4 8-13 14-19l4-7c11-16 23-9 26-4 4-6 15-10 19 1 5 2 2 1 5 6q4 2 6 7 0 5-3 9 7 2 7 8l-11 6q6 3 6 5h8v56q6 3 9 7c19 11 14 11 36 11q7-1 7 4c-5 2-8 0-11 3 4 6 18 7 20 8 0 8-8-1-18-1q3 6 8 8c7 4 9 3 8 6-7 3-15-9-19-8v3l2 2q8 7 11 13-8-1-11-7c-8-9-6-10-12-7q-1 4 2 7l2 4v1q-4 1-7-2l-2-8-5-13q-5-7-20-10v35q5 6 5 13t-5 10v86h-9q0-2-6-6l11-6q0-6-7-8 3-3 3-9-2-4-6-6c-3-6 0-5-5-7-4-10-15-7-19-1-3-5-15-12-26 5l-4 6-13 20c-2 0-2 3-9 3q-14-1-22 9h-54l-2-3c-4-15 0-31-4-30q-2 1-2 4v10c-14 3-9-16-19-17 0 5 5 10 7 17-7-2-10-14-18-13 0 7 10 9 14 19-5 0-14-9-20-8l-1 3c4 2 19 8 20 13-6 5-13-5-17 2l5 3h-13v-86a14 14 0 0 0 5-10q0-7-5-13v-35q15 3 20 10l5 13 2 8q3 3 6 2l1-1-2-4q-3-3-2-7c6-3 4-2 12 7q3 6 11 7-3-6-11-13l-2-2v-3c4-1 12 11 19 8 1-3-1-2-8-6q-5-3-8-8c10 0 17 9 18 1-2-1-16-2-20-8 3-3 6-1 11-3q-1-5-7-4c-22 0-17 0-36-11q-3-4-9-7z"/><path fill="#96989a" d="M174 194h216v220H174z"/><path fill="#fff" d="M174 194h14l-5-3c4-7 11 3 17-2-1-4-17-11-20-13l1-3c6-1 15 8 20 9-4-11-15-13-14-20 8-1 11 11 17 13-1-7-6-12-6-17 10 2 5 20 19 17l-1-9 3-5c4-1 0 16 4 30l1 3h55q8-9 22-9c7 0 7-2 8-3 6-4 8-13 14-19l4-7c11-16 23-10 26-5 4-6 15-9 19 2 5 1 2 0 5 6l6 6q0 7-3 9 7 4 7 9l-11 5q6 4 6 6h8v56q6 1 9 7c19 11 14 11 36 11q7-2 7 4c-5 1-8-1-11 3 4 5 18 6 20 7 0 8-8 0-18 0q3 5 8 8c7 3 9 2 8 6-7 3-15-9-19-8v3l2 2q8 7 11 13c-5 0-9-5-11-7-8-10-6-10-12-7q-1 4 2 6l2 5v1q-4 2-7-3l-2-7-5-13c-3-6-11-7-20-11v36q5 6 5 12 0 7-5 11v85h-9q0-2-6-5l11-6q0-6-7-8 3-4 3-9-2-5-6-7c-3-5 0-4-5-6-4-11-15-7-19-1-3-5-15-12-26 4l-4 7c-6 6-8 15-13 19-2 1-2 3-9 3q-14 0-22 9h-54l-2-2c-4-15 0-31-4-30q-2 1-2 4v9c-14 4-9-15-19-17 0 6 5 11 7 17-7-1-10-13-18-13 0 7 10 9 14 20-5-1-14-10-20-9l-1 3c4 3 19 9 20 13-6 6-13-5-17 3l5 2h-13v-85a14 14 0 0 0 5-11q0-6-5-12v-36c9 4 17 5 20 11l5 13 2 7q3 5 6 3l1-1-2-5q-3-2-2-6c6-3 4-3 12 7 2 2 6 7 11 7q-3-7-11-13l-2-2v-3c4-1 12 11 19 8 1-4-1-3-8-6q-5-3-8-8c10 0 17 8 18 0-2-1-16-2-20-7 3-4 6-2 11-3q-1-6-7-4c-22 0-17 0-36-11q-3-6-9-7z"/><path fill="#727376" d="M242 665c-4-2-18-31-19-33-4-15 0-31-4-30l-3 4 1 10c-14 3-9-16-19-17 0 5 5 10 6 17-6-2-9-14-17-13-1 7 10 9 14 19-5 0-14-9-20-8l-1 3c3 2 19 8 20 13-6 5-13-5-17 2 5 5 24 5 30 8 3 1 11 8 14 25 6 40 35 1 53-7a197 197 0 0 1-16 42c-3 4-6 14-7 19v15l4 12c-10 0-9 3-14 7-6 0-12-6-14 5-4 15-8 19-15 31-2 3-7 9-6 12 4 7 7-8 12-11-1 7-7 12-8 21q5 1 5-3c2-4 5-16 8-17q1 6-2 12-3 7 1 11 4-2 4-11l4-12c3 6-2 13 0 18l4 1c2-12 1-34 8-41 4-1 38 21 44-10 1-7-1-15 2-21 7 0 19 5 26 7l28 5c-7 4-32 17-37 14-12-1-13-4-18 15q-2 9-7 16l-8 9-2 2c0 4 1 2 1 2 3 1 8-5 10-6-2 5-8 10-7 16 6-1 5-7 11-13-2 12-7 16-2 18 3-3 1-10 7-18 1 4-1 14 2 15 4 1 2-6 3-12l2-11q3-10 10-16c13-9 55-2 74-10q7-2 8-12c0-27-73-49-73-50-2-3 16-26 20-31q4-5 9-8c12 10 13 28 35 39 9 5 20 5 24 13q3 4 5 13l2 7q3 4 7 2l-2-5q-3-2-2-6c6-4 4-3 12 7 2 2 6 7 11 6q-3-5-11-12l-2-3v-2c4-2 12 11 19 8 1-4-1-3-8-7q-6-2-8-8c10 0 18 9 18 1-2-1-16-2-20-8 3-3 6-1 11-2q0-6-7-4c-22 0-17 0-36-11-5-8-15-9-19-12 2-2-17-39-24-39v-1l15-4c19-9 10-8 5-13q5-4 11-6 0-5-7-8 3-3 3-9-2-4-6-6c-3-6 0-5-5-7-4-10-15-7-19-1-3-5-15-12-26 5l-4 6c-6 7-8 15-14 20-1 0-1 3-8 3q-17-1-23 11c-10 4-13 6-21 12-3 2-13 10-15 16"/><path fill="#e6e7e8" d="M458 665c-3-2-18-31-19-33-4-15 0-31-4-30q-2 1-2 4v10c-14 3-9-16-19-17 0 5 5 10 6 17-6-2-9-14-17-13 0 7 10 9 14 19-5 0-14-9-20-8l-1 3c3 2 19 8 20 13-6 5-13-5-17 2 5 5 25 5 30 8 3 1 11 8 14 25 6 40 35 1 53-7a196 196 0 0 1-16 42c-3 4-6 14-7 19v15l4 12c-10 0-9 3-14 7-6 0-12-6-14 5-4 15-8 19-15 31-2 3-7 9-6 12 4 7 7-8 12-11-1 7-7 12-8 21q5 1 5-3c2-4 5-16 9-17l-3 12q-3 7 1 11 3-2 4-11l4-12c3 6-2 13 0 18l4 1c2-12 1-34 8-41 4-1 38 21 44-10q0-11 2-21c8 0 19 5 26 7l28 5c-7 4-32 17-37 14-12-1-13-4-18 15q-2 9-7 16l-8 9-1 2v2c4 1 8-5 10-6-2 5-8 10-7 16 6-1 5-7 11-13-2 12-7 16-2 18 3-3 1-10 8-18 0 4-2 14 1 15 4 1 2-6 3-12l2-11q3-10 10-16c13-9 55-2 74-10q7-2 8-12c0-27-73-49-73-50-2-3 16-26 20-31q4-5 9-8c12 10 13 28 35 39 9 5 20 5 24 13q3 4 5 13l2 7q3 4 7 2l-2-5q-2-2-2-6c6-4 4-3 12 7 3 2 6 7 11 6q-3-5-11-12l-2-3v-2c4-2 12 11 20 8 1-4-2-3-9-7q-6-2-8-8c10 0 18 9 18 1-2-1-16-2-20-8 3-3 6-1 11-2q0-6-7-4c-21 0-17 0-36-11-4-8-15-9-19-12 2-2-17-39-24-39v-1l15-4c19-9 10-8 5-13l11-6q0-5-7-8 3-3 3-9-2-4-6-6c-3-6 0-5-5-7-4-10-15-7-19-1-3-5-15-12-26 5l-4 6-13 20c-2 0-2 3-9 3q-16-1-23 11c-10 4-13 6-21 12-3 2-13 10-15 16"/><path fill="#bdbfc1" d="M674 665c-3-2-18-31-19-33-4-15 0-31-4-30q-2 1-2 4v10c-14 3-9-16-19-17 0 5 5 10 7 17-7-2-10-14-18-13 0 7 10 9 14 19-5 0-14-9-20-8l-1 3c4 2 19 8 20 13-6 5-13-5-17 2 5 5 25 5 30 8 3 1 11 8 14 25 6 40 35 1 53-7a196 196 0 0 1-16 42c-3 4-6 14-7 19q-2 7 1 15l3 12c-10 0-9 3-14 7-6 0-12-6-14 5-4 15-8 19-15 31-2 3-7 9-6 12 4 7 7-8 12-11-1 7-7 12-8 21q5 1 5-3c2-4 5-16 9-17l-3 12q-3 7 1 11 4-2 4-11l4-12c3 6-2 13 0 18l4 1c2-12 1-34 8-41 5-1 38 21 44-10 2-7 0-15 2-21 8 0 19 5 26 7l28 5c-7 4-32 17-37 14-12-1-13-4-18 15q-1 9-7 16l-8 9-1 2v2c4 1 8-5 10-6-2 5-8 10-7 16 6-1 5-7 11-13-2 12-7 16-2 18 3-3 1-10 8-18 0 4-2 14 1 15 5 1 2-6 3-12l2-11q3-10 10-16c13-9 55-2 74-10q7-2 8-12c1-27-73-49-73-50-2-3 16-26 20-31q4-5 10-8c11 10 12 28 34 39 10 5 21 5 24 13q3 4 5 13l2 7q3 4 7 2l-2-5q-2-2-2-6c6-4 4-3 12 7 3 2 7 7 11 6q-3-5-11-12l-2-3v-2c4-2 12 11 20 8 1-4-2-3-8-7q-7-2-9-8c10 0 18 9 19 1-3-1-17-2-21-8 4-3 6-1 11-2q0-6-7-4c-21 0-17 0-36-11-4-8-15-9-19-12 2-2-17-39-24-39v-1l15-4c19-9 10-8 5-13l11-6q0-5-7-8 4-3 3-9-2-4-6-6c-3-6 0-5-5-7-4-10-15-7-19-1-3-5-15-12-26 5l-4 6-13 20c-2 0-2 3-9 3q-16-1-23 11c-10 4-13 6-21 12-3 2-12 10-15 16"/><path fill="#4b4b4d" d="M674 445c-3-2-18-31-19-33-4-15 0-31-4-30q-2 1-2 4v9c-14 4-9-15-19-17 0 6 5 11 7 17-7-1-10-13-18-13 0 7 10 9 14 20-5-1-14-10-20-9l-1 3c4 3 19 9 20 13-6 6-13-5-17 3 5 4 25 5 30 8 3 1 11 8 14 25 6 40 35 1 53-8a196 196 0 0 1-16 43c-3 3-6 14-7 19q-2 8 1 15l3 11c-10 0-9 3-14 8-6-1-12-7-14 4-4 15-8 20-15 32-2 2-7 9-6 12 4 6 7-9 12-12-1 8-7 12-8 22q5 1 5-3c2-5 5-16 9-18l-3 12q-3 8 1 12 4-3 4-11l4-12c3 5-2 13 0 18h4c2-12 1-34 8-40 5-2 38 20 44-10 2-8 0-15 2-22 8 1 19 6 26 7 9 3 25 5 28 6-7 4-32 17-37 14-12-2-13-5-18 15q-1 9-7 15l-8 10-1 2v2c4 1 8-5 10-7-2 6-8 11-7 17 6-1 5-7 11-13-2 12-7 15-2 17 3-3 1-9 8-17 0 4-2 13 1 14 5 2 2-5 3-11l2-11q3-11 10-17c13-9 55-1 74-9q7-3 8-12c1-28-73-50-73-50-2-3 16-27 20-31q4-5 10-8c11 10 12 28 34 39 10 5 21 5 24 12l5 13 2 8q3 3 7 2v-1l-2-4q-2-3-2-7c6-3 4-2 12 7q5 6 11 7-3-6-11-13l-2-2v-3c4-1 12 11 20 8 1-3-2-2-8-6q-7-2-9-8c10 0 18 9 19 1-3-1-17-2-21-8 4-3 6-1 11-3q0-5-7-4c-21 0-17 0-36-11-4-7-15-8-19-11 2-2-17-39-24-39v-2l15-4c19-8 10-8 5-12l11-6q0-6-7-8 4-4 3-9-2-5-6-7c-3-5 0-4-5-6-4-11-15-7-19-1-3-5-15-12-26 4l-4 7c-6 6-8 15-13 19-2 1-2 3-9 3q-16 0-23 12c-10 3-13 6-21 12-3 2-12 10-15 16"/><path fill="#727376" d="M674 224c-3-1-18-30-19-33-4-14 0-31-4-30q-2 2-2 5v9c-14 3-9-15-19-17 0 5 5 10 7 17-7-2-10-14-18-13 0 7 10 9 14 20-5-1-14-10-20-9l-1 3c4 2 19 9 20 13-6 5-13-5-17 2 5 5 25 6 30 8 3 2 11 8 14 26 6 39 35 0 53-8a196 196 0 0 1-16 42c-3 4-6 14-7 19q-2 8 1 15l3 12c-10 0-9 3-14 7-6 0-12-6-14 5-4 15-8 20-15 32-2 2-7 9-6 12 4 6 7-9 12-12-1 8-7 12-8 22q5 0 5-4c2-4 5-15 9-17l-3 12q-3 8 1 12 4-4 4-12 1-7 4-11c3 5-2 12 0 18h4c2-12 1-34 8-41 5-1 38 21 44-10 2-7 0-15 2-21 8 0 19 5 26 7l28 5c-7 4-32 17-37 15-12-2-13-5-18 14q-1 10-7 16l-8 9-1 2v3c4 1 8-5 10-7-2 6-8 11-7 17 6-1 5-8 11-13-2 12-7 15-2 17 3-3 1-10 8-17 0 3-2 13 1 14 5 1 2-5 3-11l2-11q3-11 10-17c13-9 55-2 74-9q7-3 8-13c1-27-73-49-73-49-2-4 16-27 20-32q4-5 10-8c11 11 12 29 34 39 10 5 21 6 24 13l5 13 2 7q3 4 7 3v-1l-2-5q-2-2-2-6c6-3 4-3 12 7 3 2 7 7 11 7q-3-6-11-13l-2-2v-3c4-1 12 11 20 8 1-4-2-3-8-6q-7-3-9-8c10 0 18 8 19 0-3-1-17-2-21-7 4-4 6-2 11-3q0-6-7-4c-21 0-17 0-36-11-4-8-15-8-19-11 2-2-17-40-24-39v-2l15-4c19-9 10-8 5-13l11-5q0-5-7-9 4-2 3-9l-6-6c-3-6 0-5-5-6-4-11-15-8-19-2-3-5-15-11-26 5l-4 7c-6 6-8 15-13 19-2 1-2 3-9 3q-16 0-23 12c-10 3-13 5-21 11-3 2-12 11-15 16"/><path fill="#606062" d="M458 224c-3-1-18-30-19-33-4-14 0-31-4-30q-2 2-2 5v9c-14 3-9-15-19-17 0 5 5 10 6 17-6-2-9-14-17-13 0 7 10 9 14 20-5-1-14-10-20-9l-1 3c3 2 19 9 20 13-6 5-13-5-17 2 5 5 25 6 30 8 3 2 11 8 14 26 6 39 35 0 53-8a196 196 0 0 1-16 42c-3 4-6 14-7 19v15l4 12c-10 0-9 3-14 7-6 0-12-6-14 5-4 15-8 20-15 32-2 2-7 9-6 12 4 6 7-9 12-12-1 8-7 12-8 22q5 0 5-4c2-4 5-15 9-17l-3 12q-3 8 1 12 3-4 4-12 1-7 4-11c3 5-2 12 0 18h4c2-12 1-34 8-41 4-1 38 21 44-10q0-11 2-21c8 0 19 5 26 7l28 5c-7 4-32 17-37 15-12-2-13-5-18 14q-2 10-7 16l-8 9-1 2v3c4 1 8-5 10-7-2 6-8 11-7 17 6-1 5-8 11-13-2 12-7 15-2 17 3-3 1-10 8-17 0 3-2 13 1 14 4 1 2-5 3-11l2-11q3-11 10-17c13-9 55-2 74-9q7-3 8-13c0-27-73-49-73-49-2-4 16-27 20-32q4-5 9-8c12 11 13 29 35 39 9 5 20 6 24 13l5 13 2 7q3 4 7 3v-1l-2-5q-2-2-2-6c6-3 4-3 12 7 3 2 6 7 11 7q-3-6-11-13l-2-2v-3c4-1 12 11 20 8 1-4-2-3-9-6q-6-3-8-8c10 0 18 8 18 0-2-1-16-2-20-7 3-4 6-2 11-3q0-6-7-4c-21 0-17 0-36-11-4-8-15-8-19-11 2-2-17-40-24-39v-2l15-4c19-9 10-8 5-13l11-5q0-5-7-9 3-2 3-9l-6-6c-3-6 0-5-5-6-4-11-15-8-19-2-3-5-15-11-26 5l-4 7c-6 6-8 15-13 19-2 1-2 3-9 3q-16 0-23 12c-10 3-13 5-21 11-3 2-13 11-15 16"/><path fill="#d2d3d5" d="M458 445c-3-2-18-31-19-33-4-15 0-31-4-30q-2 1-2 4v9c-14 4-9-15-19-17 0 6 5 11 6 17-6-1-9-13-17-13 0 7 10 9 14 20-5-1-14-10-20-9l-1 3c3 3 19 9 20 13-6 6-13-5-17 3 5 4 25 5 30 8 3 1 11 8 14 25 6 40 35 1 53-8a196 196 0 0 1-16 43c-3 3-6 14-7 19v15l4 11c-10 0-9 3-14 8-6-1-12-7-14 4-4 15-8 20-15 32-2 2-7 9-6 12 4 6 7-9 12-12-1 8-7 12-8 22q5 1 5-3c2-5 5-16 9-18l-3 12q-3 8 1 12 3-3 4-11l4-12c3 5-2 13 0 18h4c2-12 1-34 8-40 4-2 38 20 44-10q0-12 2-22c8 1 19 6 26 7 9 3 25 5 28 6-7 4-32 17-37 14-12-2-13-5-18 15q-2 9-7 15l-8 10-1 2v2c4 1 8-5 10-7-2 6-8 11-7 17 6-1 5-7 11-13-2 12-7 15-2 17 3-3 1-9 8-17 0 4-2 13 1 14 4 2 2-5 3-11l2-11q3-11 10-17c13-9 55-1 74-9q7-3 8-12c0-28-73-50-73-50-2-3 16-27 20-31q4-5 9-8c12 10 13 28 35 39 9 5 20 5 24 12l5 13 2 8q3 3 7 2v-1l-2-4q-2-3-2-7c6-3 4-2 12 7q4 6 11 7-3-6-11-13l-2-2v-3c4-1 12 11 20 8 1-3-2-2-9-6q-6-2-8-8c10 0 18 9 18 1-2-1-16-2-20-8 3-3 6-1 11-3q0-5-7-4c-21 0-17 0-36-11-4-7-15-8-19-11 2-2-17-39-24-39v-2l15-4c19-8 10-8 5-12l11-6q0-6-7-8 3-4 3-9-2-5-6-7c-3-5 0-4-5-6-4-11-15-7-19-1-3-5-15-12-26 4l-4 7c-6 6-8 15-13 19-2 1-2 3-9 3q-16 0-23 12c-10 3-13 6-21 12-3 2-13 10-15 16"/><path fill="#96989a" d="M242 445c-4-2-18-31-19-33-4-15 0-31-4-30l-3 4 1 9c-14 4-9-15-19-17 0 6 5 11 6 17-6-1-9-13-17-13-1 7 10 9 14 20-5-1-14-10-20-9l-1 3c3 3 19 9 20 13-6 6-13-5-17 3 5 4 24 5 30 8 3 1 11 8 14 25 6 40 35 1 53-8a197 197 0 0 1-16 43c-3 3-6 14-7 19v15l4 11c-10 0-9 3-14 8-6-1-12-7-14 4-4 15-8 20-15 32-2 2-7 9-6 12 4 6 7-9 12-12-1 8-7 12-8 22q5 1 5-3c2-5 5-16 8-18q1 7-2 12-3 8 1 12 4-3 4-11l4-12c3 5-2 13 0 18h4c2-12 1-34 8-40 4-2 38 20 44-10 1-8-1-15 2-22l26 7c9 3 25 5 28 6-7 4-32 17-37 14-12-2-13-5-18 15q-2 9-7 15l-8 10-2 2c0 3 1 1 1 2 3 1 8-5 10-7-2 6-8 11-7 17 6-1 5-7 11-13-2 12-7 15-2 17 3-3 1-9 7-17 1 4-1 13 2 14 4 2 2-5 3-11l2-11q3-11 10-17c13-9 55-1 74-9q7-3 8-12c0-28-73-50-73-50-2-3 16-27 20-31q4-5 9-8c12 10 13 28 35 39 9 5 20 5 24 12l5 13 2 8q3 3 7 2v-1l-2-4q-3-3-2-7c6-3 4-2 12 7q3 6 11 7-3-6-11-13l-2-2v-3c4-1 12 11 19 8 1-3-1-2-8-6q-6-2-8-8c10 0 18 9 18 1-2-1-16-2-20-8 3-3 6-1 11-3q0-5-7-4c-22 0-17 0-36-11-5-7-15-8-19-11 2-2-17-39-24-39v-2l15-4c19-8 10-8 5-12q5-4 11-6 0-6-7-8 3-4 3-9-2-5-6-7c-3-5 0-4-5-6-4-11-15-7-19-1-3-5-15-12-26 4l-4 7c-6 6-8 15-14 19-1 1-1 3-8 3q-17 0-23 12c-10 3-13 6-21 12-3 2-13 10-15 16"/><path fill="#373435" stroke="#373435" stroke-miterlimit="3" stroke-width="2" d="M242 224c-4-1-18-30-19-33-4-14 0-31-4-30l-3 5 1 9c-14 3-9-15-19-17 0 5 5 10 6 17-6-2-9-14-17-13-1 7 10 9 14 20-5-1-14-10-20-9l-1 3c3 2 19 9 20 13-6 5-13-5-17 2 5 5 24 6 30 8 3 2 11 8 14 26 6 39 35 0 53-8a197 197 0 0 1-16 42c-3 4-6 14-7 19v15l4 12c-10 0-9 3-14 7-6 0-12-6-14 5-4 15-8 20-15 32-2 2-7 9-6 12 4 6 7-9 12-12-1 8-7 12-8 22q5 0 5-4c2-4 5-15 8-17q1 6-2 12-3 8 1 12 4-4 4-12 1-7 4-11c3 5-2 12 0 18h4c2-12 1-34 8-41 4-1 38 21 44-10 1-7-1-15 2-21 7 0 19 5 26 7l28 5c-7 4-32 17-37 15-12-2-13-5-18 14q-2 10-7 16l-8 9-2 2c0 4 1 2 1 3 3 1 8-5 10-7-2 6-8 11-7 17 6-1 5-8 11-13-2 12-7 15-2 17 3-3 1-10 7-17 1 3-1 13 2 14 4 1 2-5 3-11l2-11q3-11 10-17c13-9 55-2 74-9q7-3 8-13c0-27-73-49-73-49-2-4 16-27 20-32q4-5 9-8c12 11 13 29 35 39 9 5 20 6 24 13l5 13 2 7q3 4 7 3v-1l-2-5q-3-2-2-6c6-3 4-3 12 7 2 2 6 7 11 7q-3-6-11-13l-2-2v-3c4-1 12 11 19 8 1-4-1-3-8-6q-6-3-8-8c10 0 18 8 18 0-2-1-16-2-20-7 3-4 6-2 11-3q0-6-7-4c-22 0-17 0-36-11-5-8-15-8-19-11 2-2-17-40-24-39v-2l15-4c19-9 10-8 5-13l11-5q0-5-7-9 3-2 3-9l-6-6c-3-6 0-5-5-6-4-11-15-8-19-2-3-5-15-11-26 5l-4 7c-6 6-8 15-14 19-1 1-1 3-8 3q-17 0-23 12c-10 3-13 5-21 11-3 2-13 11-15 16z"/></svg>