<svg xmlns="http://www.w3.org/2000/svg" width="400" height="560" xmlns:v="https://vecta.io/nano"><style><![CDATA[.o{letter-spacing:2.82}.r{stroke-miterlimit:10}.s{fill:#007a3c}.t{fill:#fff}.u{stroke:#000}.v{stroke:#fff}.w{fill:#00793a}.x{fill:#004f26}.y{stroke-width:.6}.z{font-family:AcademyEngravedLetPlain}.AA{stroke:#ababab}.AB{stroke:#4d4949}.AC{stroke-width:.3}.AD{stroke:#e0ce26}.AE{stroke-width:1.184}.AF{font-family:AmericanTypewriter}.AG{stroke-width:.963}.AH{stroke-width:.806}.AI{stroke-width:.605}]]></style><path d="M0 0h400v560H0z"/><g class="r"><use href="#L" stroke-width="7.33" class="t v"/><g stroke="#5e182b"><use href="#L" fill="#504584" stroke-width="2.932"/><g fill="#efd510"><g stroke-width="1.983"><use href="#M"/><use href="#M" y="38.25"/><use href="#M" y="19.13"/></g><path d="M223.868 136.84v288.68h-8.19V136.84zm-39.462.002v288.68h-8.19v-288.68zm19.731-.001v288.68h-8.19v-288.68z" stroke-width="2.249"/></g></g></g><use href="#N" class="s"/><path d="M291 257.6c-.45-2.55 17.45 2.9 27.9 2.9s28.53-4.38 28.53-2.9c0 1.45-6.45 11.93-28.53 11.93-19.6 0-26.94-6.61-27.9-11.93z"/><path d="M292.73 240.29c3.1-11.57 17.64-17.99 25.66-17.99 7.38 0 23.81 5.19 27 19.96 3.55 16.35-13.16 10.8-26.65 10.8-13.49-.01-30.81 5.15-26.01-12.77z" class="w"/><path d="M292.59 257.44c-.32-1.29 26.87-9.09 26.87-9.09s25.98 7.25 26.2 8.58c.58 3.39-5.18 4.64-25.75 4.64-20.06-.01-26.32.12-27.32-4.13z" class="s"/><g class="x"><path d="M344.02 239.92c1-5.71-16.9-6.81-19.09-6.16-5.42 1.63-5.79 7.86-1.51 12.82 3.75 4.36 15.04 10.55 19.82 10.94 14.04 1.17-.36-11.17.78-17.6z"/><use href="#O"/></g><path d="M344.45 248.35c-1.28-4.45-3.07-9.06-8.5-9.99-5.4-.9-11.28-2.1-11.98 1.71s5.66 10.25 10.7 11.96c4.26 1.47 11.51 2.38 9.78-3.68zm-50.32-.04c1.28-4.45 3.07-9.06 8.5-9.99 5.4-.9 11.28-2.1 11.98 1.71s-5.66 10.25-10.67 11.96c-4.28 1.45-11.54 2.38-9.81-3.68z"/><use href="#P"/><path d="M325.7 252.96c0-2.16-2.49-3.74-3.2-3.87-1.73-.35-2.94-.03-2.49 3.87.26 2.13.32 3.19 2.49 3.26 1.76.06 3.2-1.14 3.2-3.26z"/><g class="t"><path d="M320.01 264.98c-.89-.61.19-3.29.19-3.29h6.29s.8 2.61 0 3.29c-1.02.84-5.33.77-6.48 0z"/><path d="M327.17 264.98c-.77-.61-.16-3.32-.16-3.32l5.56-.1s.86 2.77.19 3.42c-.89.84-4.6.77-5.59 0z"/><use href="#Q"/><path d="M337.3 263.89c-.51-.55.19-2.77.19-2.77l2.94-.39s.64 1.64.19 2.26c-.57.77-2.65 1.6-3.32.9zm3.77-1.52c-.45.06.06-1.77.06-1.77l1.89-.55-.19.9c-.04 0-.32 1.26-1.76 1.42zm-21.83 2.61c.89-.61 0-3.29 0-3.29h-6.45s-.8 2.61 0 3.29c1.02.84 5.3.77 6.45 0zm-7.19-.22c.73-.74.06-3.06.06-3.06h-4.86s-1.47 2.42-.77 3.19c.91.99 4.65.8 5.57-.13z"/><use href="#R"/><use href="#S"/><use href="#T"/><use href="#U"/><use href="#V"/><use href="#W"/><use href="#X"/><use href="#Y"/><use href="#Z"/><use href="#a"/><use href="#b"/></g><g class="r AA"><path d="M308.01 236.27h21.92v3.61h-21.92z" fill="none" class="AH"/><g stroke-width=".93"><use href="#c"/><use href="#d"/></g></g><radialGradient id="A" cx="320.708" cy="265.738" r="52.843" gradientTransform="matrix(0.9731 0 0 1.3511 6.2285 -97.3467)" gradientUnits="userSpaceOnUse"><stop offset="0" stop-color="#c4c070"/><stop offset=".148" stop-color="#adaa63"/><stop offset=".458" stop-color="#737042"/><stop offset=".902" stop-color="#16150c"/><stop offset="1"/></radialGradient><g class="r u"><path d="M328.94 228.34l-3.5-3-7.36-.66-10.32 5.43-6.1 7.59 1.62 7.4-4.49-6.18 1.53 10.12-4.04-9.09.54 9.93-3.05-7.12.54-7.5-1.81 5.69.54 6.32-.21 4.47-2.84-3.47.8 10.56 4.53 9.64s8.13 12 10.03 16.44c1.15 2.68 3.03 11.29 3.03 11.29l-6.14-6.23s4.04 7.97 3.81 10.84c-.14 1.76-2.28 4.78-3.37 6.14-1.18 1.47-3.31 4.77-4.93 5.69-2.89 1.63-12.97 2.35-12.97 2.35l9.17-4.61 2.59-7.77-4.07 4.06-5.62 1.35 6.31-6.86-2.77-6.05-.78 5.51-4.67 5.42 2.34-8.67-2.08-4.61s-4.15-2.95-5.1-4.33c-1.69-2.45-3.97-8.28-4.07-11.29-.05-1.66 1.3-6.5 1.3-6.5l1.3-11.74-.17-5.87-2.34 10.84.43-12.46-4.15 11.11s0-7.08.69-9.3c.79-2.56 5.36-9.21 5.36-9.21s.04-9.41 1.12-12.28c1.04-2.74 4.88-7.32 6.92-9.39 1.79-1.82 7.53-6.86 7.53-6.86l-7.18.72s10.29-5.47 14.01-6.41c3.77-.95 15.48-.99 15.48-.99l-2.99-6.79s12.41 3.82 16.18 5.94c1.79 1.01 5.71 3.2 6.44 5.16.88 2.34-1.16 9.94-1.16 9.94l3.69-5.28 3.01-10.3s1.56 4.71 1.48 6.34c-.1 2.1-2.69 7.93-2.69 7.93l4.03-5.95-.23 3.39-2.36 4.45 5.65-3.68 4.08-5.13-3.24 7.93 7.18-7.01-2.41 5.8s-2.5 3.44-3.57 4.38c-1.01.89-4.08 2.49-4.08 2.49l5.11-1.77 6.23.79-7.53.65-3.9 1.17-.72 6.45s7.86 2.88 8.97 5.46c.57 1.31.6 5.71.6 5.71l-4.54-5.56-2.2-1.6 5.12 7.89s2.75 3.5 3.19 4.9c.64 2.03.87 6.47.28 8.51-.54 1.86-3.75 6.75-3.75 6.75l-1.78 5.38 3.37 8.6 3.56.29-.15-2.61-2.65-4.39 5.74 3.62s2.71 4.01 2.6 5.54c-.12 1.67-2.25 4.73-3.67 5.54-.97.55-4.34.88-4.34.88l-4.54-.37-2.86-1.46-3.94-7.7s3.22 8.64 3.37 11.68c.09 1.96-1.44 7.73-1.44 7.73l-4.03 4.02 2.11-6.28-2.11-4.27-1.32 7.22-2.11 2.14.66-4.58-.96-5.02-1.26 7.29-2.11-7.29-.24 5.72.84 7.1.84 5.9-3.67 6.59-1.38-4.46s-3.79-2.81-4.69-4.08c-1.1-1.54-2.29-5.65-2.41-7.22s3.91-10.8 3.91-10.8l6.32-8.92 5.17-7.98s6.39-9.74 7.07-16.71c.89-9.16.59-16.54-2.46-20.71-1.2-1.64-11.32-5.73-11.32-5.73l-3.38-4.08z" fill="url(#A)" class="y"/><path d="M308.2 230.12s6.88-4.4 9.44-5.2c4.27-1.34 17.76-1.87 17.76-1.87 4.3 0 6.83 2.22 7.84 3.25.8.83 2.8 2.96 2.87 4.18.03.56-.54 4.98-1.08 4.98L307 233.49c-1.98.01-1.19-.42 1.2-3.37z" fill="#b00e0e" stroke-width=".986"/></g><use href="#N" x="-240.62" y="-1.38" class="s"/><path d="M50.38 256.22c-.45-2.55 17.45 2.9 27.9 2.9s28.53-4.38 28.53-2.9c0 1.45-6.45 11.93-28.53 11.93-19.6 0-26.95-6.61-27.9-11.93z"/><path d="M52.11 238.91c3.1-11.57 17.64-17.99 25.66-17.99 7.38 0 23.81 5.19 27 19.96 3.55 16.35-13.16 10.8-26.65 10.8s-30.81 5.15-26.01-12.77z" class="w"/><use href="#e" class="s"/><g class="x"><use href="#f"/><use href="#g"/></g><path d="M103.83 246.97c-1.28-4.45-3.07-9.06-8.5-9.99-5.4-.9-11.28-2.1-11.98 1.71-.7 3.8 5.66 10.25 10.7 11.96 4.26 1.48 11.51 2.38 9.78-3.68zm-50.32-.04c1.28-4.45 3.07-9.06 8.5-9.99 5.4-.9 11.28-2.1 11.98 1.71s-5.66 10.25-10.67 11.96c-4.28 1.45-11.54 2.39-9.81-3.68z"/><use href="#P" x="-240.62" y="-1.38"/><use href="#h"/><g class="t"><use href="#i"/><use href="#j"/><use href="#Q" x="-240.62" y="-1.38"/><path d="M96.68 262.51c-.51-.55.19-2.77.19-2.77l2.94-.39s.64 1.64.19 2.26c-.58.77-2.65 1.61-3.32.9z"/><use href="#k"/><use href="#l"/><path d="M71.43 263.38c.73-.74.06-3.06.06-3.06h-4.86s-1.47 2.42-.77 3.19c.91 1 4.65.8 5.57-.13z"/><use href="#R" x="-240.62" y="-1.38"/><use href="#S" x="-240.62" y="-1.38"/><use href="#T" x="-240.62" y="-1.38"/><use href="#U" x="-240.62" y="-1.37"/><use href="#V" x="-240.62" y="-1.38"/><use href="#W" x="-240.62" y="-1.38"/><use href="#X" x="-240.62" y="-1.38"/><use href="#Y" x="-240.62" y="-1.38"/><use href="#Z" x="-240.62" y="-1.38"/><use href="#a" x="-240.62" y="-1.38"/><use href="#b" x="-240.62" y="-1.38"/></g><radialGradient id="B" cx="53.464" cy="253.038" r="55.231" gradientTransform="matrix(0.9279 0 0 1 33.2667 0)" gradientUnits="userSpaceOnUse"><stop offset="0" stop-color="#f0ab5d"/><stop offset=".116" stop-color="#dc9d55"/><stop offset=".353" stop-color="#a77741"/><stop offset=".689" stop-color="#533b20"/><stop offset="1"/></radialGradient><g class="r"><path d="M81.76 208.84l-2.51-2.75-.52 2.75s-5.14-2.14-6.95-2.36c-1.99-.24-7.98.72-7.98.72l4.51 2.62-13.68 4 3.47 1.44-6.88 3.28 8.06.72-15.97 2.75 10.42.59-4.31 4.64s-1.59 3.34-2.63 4.47c-.51.55-.89 7.45-.89 7.45s-3.46 2.74-3.82 3.41c-.51.94 2.21 5.84 2.21 5.84l1.5 2.23-2.44 2.14c-1.14 1.33-3.16 4.26-3.75 5.91-.6 1.7-1.17 7.1-1.17 7.1l4.09-3.86s-2.85 10.27-3.13 12.37c-.41 3.03.02 5.32 1.84 7.68.97 1.25 5.55 2.62 5.55 2.62l1.04 7.14s2.12-1.89 2.51-2.75c.54-1.18.52-3.95.3-5.24-.15-.9-1.4-3.34-1.4-3.34l3.59 4.24s1.41 2.87 1.75 3.88c.32.95.88 3.91.88 3.91l-.45-8.71 3.64 4.87 1.4 9.03s2.5-2.16 3.05-3.14c.65-1.15 1.05-3.94.95-5.28-.19-2.36-2.32-6.64-3.05-8.88l-2.59-8.52 6.26 7.27-5.18-12s2.32-9.35 2.06-12.52c-.15-1.84-2.36-6.95-2.36-6.95s1.63-3.33 1.71-4.56c.09-1.36-1.22-5.31-1.22-5.31l-.54-4.46s3.65-1.72 4.94-2.01c1.15-.26 3.51-.19 4.67-.36 1.32-.19 3.99-.86 5.13-1.61 1.08-.71 3.49-3.94 3.49-3.94l.32 4.18 2.68-3.38 1.45 3.98s3.48 1.11 4.67 1.33c1.69.31 5.13.41 6.85.4 1.1-.01 4.4-.32 4.4-.32l3.63 3.98s-.95 3.32-.91 4.46c.03.99 1.04 3.78 1.04 3.78l-.58 5.15s-2.71 2.27-3.21 3.34c-.77 1.66-.62 5.55-1.12 7.33-.42 1.5-2.41 5.69-2.41 5.69l-5.94 7.05 3.77-.57-1.04 3.42-2.01 7.97 2.51-4.19 2.05 3.77s2.24 4.55 2.01 5.55c-.23.99-2.05 6.61-2.05 6.61l5.72-5s.51 3.21.42 4.28c-.14 1.81-1.85 6.98-1.85 6.98s3.87-4.08 4.6-5.82c.72-1.74.97-7.57.97-7.57l2.59 1.92 1.39-3.97 3.28 1.95 2.28 3.83s.94-6 .66-7.98c-.21-1.47-2.12-5.48-2.12-5.48l5.18 1.87.36-7.19-.07-8.71 6.69 6.12 1.14 10.98s2.66-7.04 2.63-9.53c-.03-2.77-3.2-10.54-3.2-10.54l-4.13-9.91s-3.65-6.63-4.27-9.09c-.52-2.07-.5-8.58-.5-8.58l2.42 3.41-.28-6.44-.5-3.72 4.91 2.52s-3.33-5.24-4.7-6.75c-1.28-1.42-5.77-4.92-5.77-4.92l2.55-.79s-3.36-2.24-4.4-3.11c-1.13-.93-3.23-3.12-4.56-3.66-1.43-.57-6.08-.49-6.08-.49s-.24-2.29-.68-2.86c-.37-.48-1.62-.81-2.2-.8-1.3.04-4.84 2.06-4.84 2.06l-3.23 1.87 2.36-4.89-6.48 5.72-2-1.76z" fill="url(#B)" class="u y"/><path d="M177.94 383.58s-11.94-19.83-8.45-25.39c8.08-12.86 49.77-14.32 56.91-.81 3.13 5.93-7.34 26.2-7.34 26.2h-41.12z" class="AB"/></g><g stroke-width="2" stroke="#c4a610" fill="none"><ellipse transform="matrix(.9849 -.1731 .1731 .9849 -62.5451 37.0641)" cx="181.23" cy="377.13" rx="3.25" ry="4.45"/><ellipse transform="matrix(.9973 -.0734 .0734 .9973 -27.0986 15.1444)" cx="192.48" cy="376.23" rx="3.25" ry="4.45"/><ellipse transform="matrix(.0404 -.9992 .9992 .0404 -179.6739 565.3696)" cx="204.52" cy="376.23" rx="4.45" ry="3.25"/><ellipse transform="matrix(.2649 -.9643 .9643 .2649 -204.7839 484.7121)" cx="215.54" cy="376.68" rx="4.45" ry="3.25"/></g><ellipse cx="198.69" cy="389.3" rx="35.25" ry="11.08" class="AB AI"/><use href="#N" x="-120.3" y="161.83" class="s"/><use href="#m"/><path d="M172.43 402.12c3.1-11.57 17.64-17.99 25.66-17.99 7.38 0 23.81 5.19 27 19.96 3.55 16.35-13.16 10.8-26.65 10.8s-30.8 5.15-26.01-12.77z" class="w"/><use href="#n" class="s"/><g class="x"><use href="#o"/><use href="#O" x="-120.3" y="161.83"/></g><use href="#p"/><path d="M173.83 410.15c1.28-4.45 3.07-9.06 8.5-9.99 5.4-.9 11.28-2.1 11.98 1.71.7 3.8-5.66 10.25-10.67 11.96-4.28 1.44-11.54 2.38-9.81-3.68z"/><use href="#P" x="-120.3" y="161.83"/><use href="#h" x="120.32" y="163.21"/><g class="t"><path d="M199.71 426.81c-.89-.61.19-3.29.19-3.29h6.29s.8 2.61 0 3.29c-1.01.84-5.33.78-6.48 0z"/><path d="M206.87 426.81c-.77-.61-.16-3.32-.16-3.32l5.56-.1s.86 2.77.19 3.42c-.89.84-4.6.78-5.59 0z"/><use href="#q"/><use href="#r"/><path d="M220.77 424.2c-.45.06.06-1.77.06-1.77l1.89-.55-.19.9c-.03 0-.32 1.26-1.76 1.42zm-21.82 2.61c.89-.61 0-3.29 0-3.29h-6.45s-.8 2.61 0 3.29c1.01.84 5.3.78 6.45 0zm-7.19-.22c.73-.74.06-3.06.06-3.06h-4.86s-1.47 2.42-.77 3.19c.9 1 4.64.8 5.57-.13z"/><use href="#s"/><use href="#S" x="-120.3" y="161.83"/><use href="#T" x="-120.3" y="161.83"/><use href="#U" x="-120.3" y="161.84"/><use href="#V" x="-120.3" y="161.83"/><use href="#t"/><use href="#X" x="-120.3" y="161.84"/><use href="#Y" x="-120.3" y="161.84"/><use href="#a" x="-120.3" y="161.84"/><use href="#b" x="-120.3" y="161.84"/></g><g class="AA"><path d="M193.48,405.32c0-2.42,10.93-2.42,10.93,0" fill="none" stroke-width="1.418" class="r"/><g stroke-width=".917"><ellipse cx="187.44" cy="406.12" rx="9.05" ry="8"/><ellipse cx="210.82" cy="406.12" rx="9.05" ry="8"/></g></g><path d="M176.55 380.67s2.67-2.46 22.14-2.46 26.3 3.7 26.3 3.7l-45.8 3.71-2.64-4.95z" class="r AB AI"/><radialGradient id="C" cx="201.027" cy="422.541" r="57.419" gradientTransform="matrix(1 0 0 1.0075 0 -4.0992)" gradientUnits="userSpaceOnUse"><stop offset="0" stop-color="#4d4646"/><stop offset=".213" stop-color="#433d3d"/><stop offset=".579" stop-color="#272424"/><stop offset="1"/></radialGradient><path d="M188.11 380.76l-19.64 17.29s-6.46 2.29-7.07 4.27c-.24.77 1.34 2.95 1.34 2.95s.04 3.31-.55 4.19c-.93 1.38-4.73 1.99-5.81 3.26-1.14 1.33-1.49 6.82-1.49 6.82l2.75 1.94s-2.22 4.11-1.49 5.27c.53.85 3.93.7 3.93.7l1.34 6.59s-3.37 4.55-2.67 6.05c.34.74 3.14.93 3.14.93s-2.28 2.39-2.59 3.41c-.53 1.71.28 5.37.55 7.13.13.87.79 3.41.79 3.41l2.2-2.4 3.46 2.95 5.58 2.95-.63 6.98 4.01-3.88 1.1 2.09s-2.11 3.74-2.44 5.12c-.19.81-.08 3.33-.08 3.33l3.93-3.88c1.09-1.37 3.69-5.97 3.69-5.97l1.73 3.49s2.86-2.93 3.54-4.11c.78-1.37 1.28-4.59 2.04-5.97.63-1.15 3.54-3.88 3.54-3.88l-1.26-4.19 2.82 1.21 1.16-2.48s-.01-3.38-.44-4.4c-.49-1.16-3.24-3.88-3.24-3.88l-7.34-10.69-5.73-4.29s2.19-3.26 2.29-4.53c.17-1.97-2.36-7.57-2.36-7.57l2.11-6.62 6.22-8.76 5.92-6.97-2.05 8.11 5.13-8.34c.23-.54.6-2.26.6-2.26s2.09 2.01 2.29 2.92c.35 1.6-1.51 6.38-1.51 6.38s2.63-1.69 3.26-2.5c.8-1.04 2.05-4.83 2.05-4.83s1.73 1.31 1.93 1.97c.36 1.16-.85 4.77-.85 4.77l3.26-5.24 2.42 2.68s2.37 4.28 3.56 5.36c1.14 1.04 5.43 2.92 5.43 2.92l3.14 4.23 1.15 6.14.74-4.46.55 4.87-3.34 3.77c-.37.22-2.36 2.67-2.77 3.77-.63 1.68-.86 7.14-.86 7.14l-2.59 7.95c-.94 1.89-4.84 6.91-4.84 6.91l2.83-1.23-.92 3.88s-1.26 3.28-1.37 4.44c-.21 2.1-.16 6.53.84 8.39.73 1.37 4.54 4.25 4.54 4.25s.7 5.74 0 6.21 2.7-.06 3.39-.56c.9-.65 1.9-2.74 2.4-3.73l2.67-4.97s1.45 3.31 1.03 3.95 2.67-5.01 2.67-5.01l4.42 1.24.04 2.94-.76 3.76s2.21-1.94 2.67-2.78c.42-.78.8-3.46.8-3.46l1.83-7.19s2.17 3.2 2.06 3.69 1.52-1.99 1.72-2.78c.42-1.74-.23-7.15-.23-7.15l.81-4.97 2.4-2.85c.68-1.07 2.12-4.59 2.12-4.59l-5.08 1.3-2.7-2.56 6.29-2.66s-1.03-1.6-1.58-1.88c-.81-.41-3.64-.21-3.64-.21s2.93-2.56 3.31-3.75c.37-1.14-.01-3.65-.48-4.75-.51-1.21-2.86-4.44-2.86-4.44l-3.49-2.19 1.64-3.18s-1.67-3.91-2.59-4.96c-.91-1.04-4.5-3.18-4.5-3.18l-5.28-7.53-7.4-7.14-12.86-4.56-15.79.09z" fill="url(#C)" class="r u y"/><path d="M170.04 388.94c-2.79.58 1.91-6.48 6.38-8.02 5.9-2.04 41.37-2.69 48.61 1.34 1.77.98 5.34 7.26 2.55 6.68-12.31-2.58-39.12-3.8-57.54 0z"/><use href="#u" class="t"/><path d="M181.44 434.22l9.4-6.35c.31-.25 1.25-.87 1.86-.74.1.02.25.2.28.3.29 1.04-.49 1.34-1.6 2.49-1.96 2.04-7.56 7.32-7.56 7.32-.09.07-.27.01-.39-.14l-1.95-2.48c-.11-.14-.13-.33-.04-.4z" fill="#dccfb6"/><linearGradient id="D" gradientUnits="userSpaceOnUse" x1="205.529" y1="731.173" x2="206.118" y2="729.189" gradientTransform="matrix(1.1242 1.0877 -0.3689 0.8164 220.3472 -384.0688)"><stop offset="0" stop-color="#d93e18"/><stop offset="1" stop-color="#362525"/></linearGradient><path d="M180.83 434.7l1.12-.88 2.38 3.03-1.12.88a.44.44 0 0 1-.6-.07l-1.85-2.36c-.14-.19-.11-.45.07-.6z" fill="url(#D)"/><g class="v AC"><ellipse cx="199.08" cy="99.45" rx="20.62" ry="15.25"/><ellipse cx="200.05" cy="108.19" rx="44" ry="14.55"/></g><use href="#N" x="-118.02" y="-117.45" class="s"/><use href="#m" x="2.27" y="-279.28"/><path d="M174.7 122.84c3.1-11.57 17.64-17.99 25.66-17.99 7.38 0 23.81 5.19 27 19.96 3.55 16.35-13.16 10.8-26.65 10.8-13.48-.01-30.8 5.15-26.01-12.77z" class="w"/><use href="#e" x="122.6" y="-116.07" class="s"/><g class="x"><use href="#f" x="122.6" y="-116.07"/><use href="#g" x="122.6" y="-116.07"/></g><path d="M226.43 130.9c-1.28-4.45-3.07-9.06-8.5-9.99-5.4-.9-11.28-2.1-11.98 1.71-.7 3.8 5.66 10.25 10.7 11.96 4.25 1.48 11.51 2.38 9.78-3.68zm-50.32-.03c1.28-4.45 3.07-9.06 8.5-9.99 5.4-.9 11.28-2.1 11.98 1.71s-5.66 10.25-10.67 11.96c-4.29 1.44-11.54 2.38-9.81-3.68zm18.98 4.54c0-2.16 2.49-3.74 3.2-3.87 1.73-.35 2.94-.03 2.49 3.87-.26 2.13-.32 3.19-2.49 3.26-1.77.06-3.2-1.13-3.2-3.26z"/><use href="#h" x="122.6" y="-116.07"/><g class="t"><use href="#i" x="122.6" y="-116.07"/><use href="#j" x="122.6" y="-116.07"/><use href="#Q" x="-118.03" y="-117.45"/><path d="M219.27 146.44c-.51-.55.19-2.77.19-2.77l2.94-.39s.64 1.64.19 2.26c-.57.77-2.64 1.61-3.32.9z"/><use href="#k" x="122.6" y="-116.07"/><use href="#l" x="122.6" y="-116.07"/><path d="M194.03 147.31c.73-.74.06-3.06.06-3.06h-4.86s-1.47 2.42-.77 3.19c.91 1 4.64.8 5.57-.13zm-6.01-.29c.51-.52.38-2.74.38-2.74l-3.87-.16s-.64 2.06-.19 2.64c.62.71 3.05.93 3.68.26zm-4.09-.42c.51-.55 0-2.58 0-2.58l-2.94-.26s-.83 1.32-.38 1.93c.58.78 2.69 1.62 3.32.91z"/><path d="M180.16 145.5c.45.06.32-1.74.32-1.74l-2.08-.39.03.48c-.02.01.3 1.46 1.73 1.65z"/><use href="#U" x="-118.02" y="-117.44"/><use href="#V" x="-118.02" y="-117.45"/><use href="#W" x="-118.02" y="-117.45"/><use href="#X" x="-118.03" y="-117.44"/><use href="#Y" x="-118.03" y="-117.44"/><use href="#a" x="-118.02" y="-117.45"/><use href="#b" x="-118.02" y="-117.44"/><use href="#u" x="2.29" y="-279.34"/></g><path d="M183.42 155.16l9.4-6.35c.31-.25 1.25-.87 1.86-.74.1.02.25.2.28.3.29 1.04-.49 1.34-1.6 2.49-1.96 2.04-7.56 7.32-7.56 7.32-.09.07-.27.01-.39-.14l-1.95-2.48c-.11-.15-.13-.33-.04-.4z" fill="#dccfb6"/><linearGradient id="E" gradientUnits="userSpaceOnUse" x1="128.713" y1="491.684" x2="129.302" y2="489.7" gradientTransform="matrix(1.1242 1.0877 -0.3689 0.8164 220.3472 -384.0688)"><stop offset="0" stop-color="#d93e18"/><stop offset="1" stop-color="#362525"/></linearGradient><path d="M182.81 155.64l1.12-.88 2.38 3.03-1.12.88a.44.44 0 0 1-.6-.07l-1.85-2.36c-.15-.19-.11-.46.07-.6z" fill="url(#E)"/><radialGradient id="F" cx="198.999" cy="61.63" r="63.225" gradientTransform="matrix(-0.1272 0.8223 -0.9919 -0.1055 285.4472 -10.4822)" gradientUnits="userSpaceOnUse"><stop offset="0" stop-color="#474646"/><stop offset=".209" stop-color="#403f3f"/><stop offset=".507" stop-color="#2d2d2d"/><stop offset=".859" stop-color="#0e0e0e"/><stop offset="1"/></radialGradient><path d="M185.13 100.99L165.7 117.5s-6.03 6.8-6.03 9.65c0 1.44 3.06 4.87 3.06 4.87l-4.41 2.35-.36 5.48-.72 4.43s-1.31 6.62-1.44 8.86c-.1 1.82.29 5.47.36 7.3.11 2.89-.09 11.56-.09 11.56l4.86-5.82s1.54 4.43 2.25 5.82c.97 1.9 4.68 7.13 4.68 7.13s5.19 1.24 6.3 2.52c1.02 1.18 1.44 6.08 1.44 6.08l3.87-7.47.89-2.59s2.14 2.43 2.53 3.42c.58 1.46.74 6.26.74 6.26s2.11-3.44 2.27-4.75c.2-1.62-1.3-6.4-1.3-6.4l3.95 3.67 2.09 5.72 1.15 3.92s1.33-6.54 1.19-8.74c-.12-1.93-1.77-6.71-2.42-7.34s-5.1-6.22-5.1-6.22-8.2-7.57-9.72-10.89c-1.09-2.39-1.33-10.44-1.33-10.44s1.89-3.42 2.07-4.69c.4-2.87-1.62-11.46-1.62-11.46l-.72-7.81 6.11-7.73s2.95.15 3.86-.17c1.15-.4 3.14-1.96 3.95-2.86 1.49-1.66 5.12-7.29 5.12-7.29l4.94 2.26s-.64 4.92.18 6.25c.84 1.37 5.66 3.04 5.66 3.04s-.86-3.3-.91-4.44c-.04-1.06.52-4.23.52-4.23s4.19 6.2 6.09 7.77c.79.66 3.66 1.88 3.66 1.88s-.09-2.34.38-2.9c.48-.57 2.12-1.02 2.86-.87 1.19.24 3.45 1.48 4.19 2.44.61.78 1.17 2.74 1.48 3.68.46 1.4 2 5.56 2 5.56l-1.52 6.21s-3.07 4.02-3.57 5.61c-.57 1.8-.33 7.54-.33 7.54l1 5.65-1.76 6.48s-3.33 4.61-4.62 5.99c-1.32 1.42-4.95 3.42-5.79 5.17-1.23 2.56-1.45 8.77-.26 11.35 1.19 2.56 7.77 8.18 7.77 8.18s.19-4.45.35-5.92c.21-2.03 1.21-8.09 1.21-8.09l4.32 6.92s3.42-3.29 4.15-4.67c.81-1.54 1.64-6.76 1.64-6.76l3.97 1.75s3.15-3.12 3.8-4.42c.94-1.87 1.88-6.08 1.81-8.18-.05-1.51-1.21-5.92-1.21-5.92l4.92-4.67 4.18-.22s-2.29-3.61-2.95-4.88c-1.13-2.19-3.93-9.04-3.93-9.04l4.27-.49-8.08-6.53 3.2-5.65-8.74-8.05-16.37-9.13-26.56-1.55z" fill="url(#F)" class="r u y"/><path d="M171.31 112.22c-3.44 1.09 5.5-13.32 5.5-13.32l49.25 1s7.12 14.92 3.83 13.43c-14.12-6.38-43.63-5.84-58.58-1.11z"/><path d="M171.48 257.83c0-2.9 17.67 8.45 30.2 8.45s28.69-11.38 28.69-8.45c0 13.22-21.06 21.18-29.33 21.18-9.94.03-29.56-8.15-29.56-21.18z" class="s"/><use href="#m" x="1.68" y="-160.12"/><path d="M174.11 242c3.1-11.57 17.64-17.99 25.66-17.99 7.38 0 23.81 5.19 27 19.96 3.55 16.35-13.16 10.8-26.65 10.8s-30.8 5.16-26.01-12.77z" class="w"/><use href="#n" x="1.68" y="-160.12" class="s"/><g class="x"><use href="#o" x="1.68" y="-160.12"/><path d="M175.96 241.45c-1.18-5.67 16.71-7.35 18.92-6.77 5.46 1.45 5.62 7.16 1.92 12.77-4.7 7.12-14.73 10.77-19.46 11.57-14.55 2.45-.04-11.18-1.38-17.57z"/></g><use href="#p" x="1.68" y="-160.12"/><path d="M175.51 250.03c1.28-4.45 3.07-9.06 8.5-9.99 5.4-.9 11.28-2.1 11.98 1.71.7 3.8-5.66 10.25-10.67 11.96-4.28 1.44-11.53 2.38-9.81-3.68zm18.98 4.54c0-2.16 2.49-3.74 3.2-3.87 1.73-.35 2.94-.03 2.49 3.87-.26 2.13-.32 3.19-2.49 3.26-1.76.07-3.2-1.13-3.2-3.26z"/><use href="#h" x="122" y="3.09"/><g class="t"><path d="M201.39 266.7c-.89-.61.19-3.29.19-3.29h6.29s.8 2.61 0 3.29c-1.01.83-5.33.77-6.48 0z"/><path d="M208.55 266.7c-.77-.61-.16-3.32-.16-3.32l5.56-.1s.86 2.77.19 3.42c-.89.83-4.6.77-5.59 0z"/><use href="#q" x="1.68" y="-160.12"/><use href="#r" x="1.68" y="-160.12"/><path d="M222.45 264.09c-.45.06.06-1.77.06-1.77l1.89-.55-.19.9c-.03 0-.32 1.25-1.76 1.42zm-21.82 2.61c.89-.61 0-3.29 0-3.29h-6.45s-.8 2.61 0 3.29c1.01.83 5.3.77 6.45 0zm-7.19-.23c.73-.74.06-3.06.06-3.06h-4.86s-1.47 2.42-.77 3.19c.9 1 4.64.81 5.57-.13z"/><use href="#s" x="1.68" y="-160.12"/><use href="#S" x="-118.62" y="1.71"/><path d="M179.57 264.67c.45.06.32-1.74.32-1.74l-2.08-.39.03.48c-.03 0 .29 1.45 1.73 1.65z"/><use href="#U" x="-118.62" y="1.72"/><use href="#V" x="-118.62" y="1.71"/><use href="#t" x="1.68" y="-160.12"/><use href="#X" x="-118.62" y="1.72"/><use href="#Y" x="-118.62" y="1.72"/><use href="#Z" x="-118.62" y="1.72"/><use href="#a" x="-118.62" y="1.72"/><use href="#b" x="-118.62" y="1.72"/></g><g class="r AA"><path d="M189.4 237.98h21.92v3.61H189.4z" fill="none" class="AH"/><g stroke-width=".93"><use href="#c" x="-118.62" y="1.72"/><use href="#d" x="-118.62" y="1.72"/></g></g><radialGradient id="G" cx="198.763" cy="271.53" r="53.357" gradientTransform="matrix(1 0 0 1.1 0 -31.2466)" gradientUnits="userSpaceOnUse"><stop offset="0" stop-color="#b34242"/><stop offset=".129" stop-color="#ae4040"/><stop offset=".28" stop-color="#a03b3b"/><stop offset=".443" stop-color="#883232"/><stop offset=".614" stop-color="#672626"/><stop offset=".791" stop-color="#3c1616"/><stop offset=".971" stop-color="#090303"/><stop offset="1"/></radialGradient><g class="r"><path d="M187.86 218.39l-18.26 6.33s-7.3 6.57-9.59 8.92c-1.23 1.27-3.52 3.98-4.52 5.44-.85 1.25-2.27 4.13-2.99 5.24s-7.82 3.9-7.82 3.9l6.26 1.57s-1.27 2.62-2.05 3.14c-2.07 1.39-9.81 1.86-9.81 1.86s6.77 3.27 9.21 3.26c1.5 0 5.66-2.04 5.66-2.04s-1.43 5.21-1.75 6.98c-.26 1.47-.66 5.94-.66 5.94l7.4-5.53 3.01 7.22-3.43 12.05 5.78-5.3-1.78 7.85 3.13-1.3-3.36 8.66 4.77-3.32s-1.51 7-1.49 9.38c.01 1.51.78 4.51 1.49 5.84.92 1.71 5.22 5.77 5.22 5.77l-2.76 7.65s3.87-1.94 4.77-3.03c1.35-1.63 2.36-5.93 2.76-8.01.36-1.91.26-5.91.97-7.72.58-1.47 2.77-3.84 3.58-5.19.95-1.58 2.61-5.01 2.76-6.85.13-1.71-1.15-5.02-1.72-6.64-1.81-5.2-8.92-20.13-8.92-20.13s-1.45-5.96-1.23-7.96c.23-2.08 3.07-7.78 3.07-7.78l10.87-11.98 10.62-6.6 14.03 1.96 7.33 7.09s3.96 6.93 5.56 9.04c.98 1.29 4.42 4.77 4.42 4.77l-2.91 3.79s-4.51 4.45-5.31 6.36c-1.23 2.92-1.26 12.59-1.26 12.59s-8.36 6.09-9.61 9.17c-.56 1.39.25 5.99.25 5.99s-2.82 7.43-3.29 10.02c-.31 1.72-.65 5.27-.25 6.97.73 3.13 5.82 12.05 5.31 11.73s-1.01-11.61-1.01-11.61l6.19 5.01s-2.72-9.33-2.28-12.47c.26-1.82 3.29-6.6 3.29-6.6l3.54 6.97.38-9.66 5.81-7.82 1.64 9.04 2.28-11.73s4.93-1.79 6.07-3.06c1.94-2.16 4.04-10.88 4.04-10.88l4.31 1.06-4.61-5.89 5.5-.14-6.29-3.74s8.94-.96 10.94-2.97c1.15-1.16 1.68-6.32 1.68-6.32s-4.19 2.38-5.74 2.44c-1.8.08-6.83-2.25-6.83-2.25l-2.38-6.08s-.48-6.78-1.68-8.62c-1.2-1.82-7.18-4.93-7.18-4.93l-15.25-3.88-25.88-2.97z" fill="url(#G)" class="u y"/><path d="M167.37 232.61l28.69-4.11 30.06-5.23s.96 17.52-23.45 20.91c-23.05 3.21-35.3-11.57-35.3-11.57z" stroke="#616161" stroke-width=".513"/><g class="u"><path d="M166.83 234.15c6.7 4.34 25.51.91 33.55-1.16 7.55-1.95 24.49-4.12 29.63-9.25.4-.4.8-1.59.53-2.07-.27-.49-1.7-.82-2.08-1.26-.29-.33-.49-1.23-.33-1.61.31-.74 2.02-1.64 2.41-2.35.26-.47.39-1.6.12-2.07-.33-.57-1.56-1.4-2.2-1.72-3.14-1.52-9.91-3.7-13.22-4.91-2.72-.99-7.82-3.81-10.73-4.24-3.07-.45-9.41.34-12.41 1.09-3.1.78-9.9 1.99-12 4.1-.27.27-.2 1.06-.41 1.37-.81 1.19-3.66 2.85-5.2 3.21-.59.14-1.93-.2-2.43.1-.83.51-.74 2.57-1.23 3.34-.77 1.21-4.05 2.38-4.97 3.51-.23.28-.48 1.01-.34 1.32.22.5 1.58.96 1.83 1.45.4.79-.01 2.7-.59 3.4-.39.48-1.94.87-2.16 1.43-.3.75 1.02 2.21 1.29 2.97.29.83.14 2.83.94 3.35z" fill="#016198" stroke-width=".7"/><g fill="#b5a61d" class="AC"><path d="M201.85 221.76l-.75 5.82 1.65.07 1.19-6.42zm-6.94.56l1.98-.14 1.67 5.97-1.57.02z"/><path d="M167.85 218.79c1.99-.45 6.02 1.18 8.03 1.52 2.47.41 7.5.17 10 .17 1.22 0 3.65.15 4.87.17 1.42.02 4.27.02 5.68-.09 1.57-.12 4.7-.5 6.24-.81 2.34-.47 6.93-1.75 9.23-2.35l7.31-1.8c2.46-.63 7.32-3.11 9.81-2.63.39.08 1.06.62 1.27.96.2.32.56 1.07.5 1.44-.06.44-.54 1.3-.92 1.54-.86.54-2.97.71-3.98.86-1.62.25-4.83.94-6.44 1.29l-5.65 1.22c-1.23.28-3.67.92-4.92 1.15-1.64.3-4.96.72-6.63.88-1.22.12-3.67.31-4.9.38-1.32.08-3.97.17-5.3.24l-5.99.45c-1.37.08-4.13.2-5.5.16-1.97-.06-5.9-.44-7.86-.61-.89-.08-3.35-.28-3.56-.24s-1.96 0-2.54-.29c-.3-.15-.86-.62-.95-.95-.08-.29.01-.94.17-1.2.34-.51 1.42-1.32 2.03-1.46zm52.82 3.97l3.55-.58 2.72-.66c.44-.13 1.28-.57 1.73-.6.29-.02.89.1 1.13.26.17.11.5.4.56.6.09.29.05.93-.09 1.2-.12.24-.48.68-.73.79-.4.18-1.31.15-1.75.19-.72.06-2.14.35-2.84.49l-3.42.71-4.73.68-3.87.43c-1.39.22-4.11.9-5.49 1.18l-8.81 1.53-8.07 1.21-8.44.74-7.56.23c-1.75-.07-5.24-.42-6.96-.74-.26-.05-.76-.16-1.01-.25-.31-.1-.94-.3-1.2-.5-.24-.19-.63-.67-.73-.95-.07-.19-.19-.6-.12-.79.09-.24.53-.6.77-.71s.75-.31 1.01-.3c.48.02 1.36.47 1.82.62.56.19 1.71.42 2.29.53l1.7.27 5.26.59c1.92.05 5.75-.25 7.67-.39l6.29-.44 7.81-.98c2.54-.38 7.61-1.15 10.12-1.67 2.88-.62 8.53-2.12 11.39-2.69z"/></g></g><g fill="#b5341d"><path d="M195.94 221.9l6.88-.48-1.08 5.74-3.86.25z" stroke="#b5a61d" stroke-width="2"/><path d="M196.32 222.76l6.35-.58-.87 4.67-3.92.56z" class="u AC"/></g></g><g fill="#212121"><path d="M75.16 476.4l19.79 4.97.08-9.59z"/><path d="M79.9 500.74l-26.4-9.32c-8.48-2.91-32.84-14.37-32.84-14.37l30.32-1.82-19.67-28.93 62.39 25.38-18.3 4.82 4.5 24.24z" class="r AD AE"/><path d="M325.15 477.17l-19.79 4.96-.07-9.58z"/><path d="M320.92 501l25.9-8.82c8.48-2.91 32.84-14.37 32.84-14.37l-30.32-1.82L369 447.06l-62.39 25.38 18.3 4.82-3.99 23.74z" class="r AD AE"/></g><path d="M75.3 476.82l-1.07 39.62s38.39 18.86 121.94 18.86c86.15 0 127.73-19.49 127.73-19.49l.64-38.14s-96.15 20.35-128.78 20.06c-30.61-.27-120.46-20.91-120.46-20.91z" fill="#910024" class="r AD AE"/><text transform="matrix(.7007 .1143 -.2028 1.2436 87.6998 513.6888)" font-size="22" class="AF">APPETITE</text><text transform="matrix(.71 0 0 1.26 179.9011 527.1381)" font-size="22" class="AF">FOR</text><text transform="matrix(.7019 -.1072 .1903 1.2455 224.4424 526.3583)" font-size="22" class="AF">MEMETICS</text><linearGradient id="H" gradientUnits="userSpaceOnUse" x1="85.43" y1="123.37" x2="108.475" y2="143.68"><stop offset="0" stop-color="#960e07"/><stop offset=".131" stop-color="#981209"/><stop offset=".27" stop-color="#9d1f10"/><stop offset=".413" stop-color="#a7341c"/><stop offset=".558" stop-color="#b4522c"/><stop offset=".705" stop-color="#c57841"/><stop offset=".852" stop-color="#d9a75b"/><stop offset="1" stop-color="#f1dd79"/></linearGradient><path d="M86.47 109.95c3.61.17 5.01 10.36 6.6 13.85 1.1 2.41 4.65 6.33 6.3 8.34 1.86 2.27 7.15 9.36 7.15 9.36s-9.21 2-12.11 1.02c-2.6-.88-7.95-2.95-9.88-5.03-2.44-2.63-6.33-9.44-6.45-13.15-.14-4.25 4.45-14.57 8.39-14.39z" fill="url(#H)" class="r v AG"/><linearGradient id="I" gradientUnits="userSpaceOnUse" x1="317.479" y1="123.37" x2="294.434" y2="143.68"><stop offset="0" stop-color="#950c06"/><stop offset=".131" stop-color="#971008"/><stop offset=".269" stop-color="#9c1d0f"/><stop offset=".411" stop-color="#a6321b"/><stop offset=".555" stop-color="#b3502b"/><stop offset=".701" stop-color="#c47640"/><stop offset=".849" stop-color="#d8a55a"/><stop offset=".996" stop-color="#f0db78"/><stop offset="1" stop-color="#f1dd79"/></linearGradient><path d="M316.44 109.95c-3.61.17-5.01 10.36-6.6 13.85-1.1 2.41-4.65 6.33-6.3 8.34-1.86 2.27-7.15 9.36-7.15 9.36s9.21 2 12.11 1.02c2.6-.88 7.95-2.95 9.88-5.03 2.44-2.63 6.33-9.44 6.45-13.15.14-4.25-4.45-14.57-8.39-14.39z" fill="url(#I)" class="r v AG"/><linearGradient id="J" gradientUnits="userSpaceOnUse" x1="46.823" y1="80.002" x2="351.735" y2="80.002"><stop offset="0" stop-color="#950c06"/><stop offset=".049" stop-color="#99140b"/><stop offset=".127" stop-color="#a22b18"/><stop offset=".224" stop-color="#b2502e"/><stop offset=".335" stop-color="#c9844d"/><stop offset=".458" stop-color="#e5c573"/><stop offset=".5" stop-color="#efdd81"/><stop offset=".606" stop-color="#d7a460"/><stop offset=".746" stop-color="#b95f37"/><stop offset=".863" stop-color="#a32d19"/><stop offset=".951" stop-color="#960e07"/><stop offset="1" stop-color="#910200"/></linearGradient><path d="M83.31 134.69s-.44-12.91.35-17.1c.66-3.53 5.36-9.26 7.85-11.65 4.2-4.04 13.05-11.7 17.96-14.66 3.63-2.19 11.4-5.53 15.35-6.95 4.09-1.48 12.4-4.06 16.57-5.26l21.28-5.83c3.79-1 11.33-3.25 15.17-3.95 5.7-1.04 17.24-2.44 23.02-2.44 4.77-.01 14.3.7 19.01 1.5 4.41.75 13.12 2.93 17.44 4.13 5.04 1.41 15.08 4.38 20.06 6.01 5.92 1.95 17.9 5.53 23.55 8.27 4.69 2.27 13.63 7.85 17.79 11.09 4.09 3.19 12.5 9.55 15.52 13.91 3.01 4.35 8.37 19.73 8.37 19.73s7.11-10.41 9.07-14.16c1.54-2.96 4.65-8.23 6.11-11.02 1.44-2.76 3.9-8.69 4.19-11.84.3-3.2-.33-9.77-1.4-12.78-1.09-3.07-4.18-8.89-6.28-11.28-2.91-3.31-9.73-8.88-13.43-11.09-3.7-2.22-11.59-5.62-15.52-7.33-4.93-2.15-14.69-6.73-19.71-8.65-6.7-2.55-20.3-7.03-27.21-8.83-5.79-1.51-17.5-4-23.37-5.07-4.26-.78-12.8-2.29-17.09-2.82-3.74-.46-11.24-1.33-15-1.32-4.99.02-14.92 1.13-19.88 1.69l-14.65 1.69c-4.21.64-12.6 2.17-16.74 3.2-5.86 1.45-17.44 4.92-23.2 6.77-4.77 1.53-14.36 4.47-19.01 6.39-3.75 1.55-11.03 5.25-14.65 7.14-4.33 2.27-13.19 6.44-17.27 9.21-2.81 1.91-8.16 6.26-10.46 8.83-2.12 2.36-6.41 7.27-7.5 10.34-1.05 2.96-1.55 9.45-1.22 12.59.3 2.93 1.36 8.84 2.62 11.46 2 4.16 7.73 12 10.12 15.91 2.5 4.15 12.19 14.17 12.19 14.17z" fill="url(#J)" class="r v AG"/><text transform="matrix(.6681 -.2402 .4262 1.1857 96.5035 88.7928)" class="o z" font-size="30">FROGS</text><text transform="matrix(.6658 .2467 -.4378 1.1815 238.8519 62.7326)" class="o z" font-size="30">ROSES</text><text transform="matrix(.71 0 0 1.26 192.7208 58.6732)" class="o z" font-size="30">N</text><path d="M178.889 43.084l5.748 3.996-3.996 5.748-5.748-3.996zm39.217 4.174l5.601-4.198 4.198 5.601-5.601 4.198z"/><text transform="translate(374.445 556.933)" fill="#efd510" font-size="3.966" class="z">HNFT PEPE</text><defs ><path id="L" d="M156.62 212.16l-1.71-73.13-24.2-21.53 139.8 1.1-26.54 18.96-.89 74.8 83.55-.33 20.25-19.35-1.45 116.8-19.53-21.45-84.62-1.4-.03 135.05 30 20.82-32.45-.37-110.74-.13 29.48-20.67-2.82-135.48-72.78-.94-28.49 22.79-.33-117.6 27.05 22.64z"/><path id="M" d="M80.06 225.97h231.56v7.94H80.06z"/><path id="N" d="M290.1 256.12c0-2.9 17.67 8.45 30.2 8.45s28.69-11.38 28.69-8.45c0 13.22-21.06 21.18-29.33 21.18-9.94.03-29.56-8.16-29.56-21.18z"/><path id="O" d="M294.58 239.74c-1.18-5.67 16.71-7.35 18.92-6.77 5.46 1.45 5.62 7.16 1.92 12.77-4.7 7.12-14.73 10.77-19.46 11.57-14.55 2.45-.04-11.19-1.38-17.57z"/><path id="P" d="M313.11 252.86c0-2.16 2.49-3.74 3.2-3.87 1.73-.35 2.94-.03 2.49 3.87-.26 2.13-.32 3.19-2.49 3.26-1.76.06-3.2-1.13-3.2-3.26z"/><path id="Q" d="M333.21 264.47c-.51-.52.19-3.03.19-3.03l3.64-.23s.29 2.42-.16 3c-.57.71-3.03.93-3.67.26z"/><path id="R" d="M306.05 264.47c.51-.52.38-2.74.38-2.74l-3.87-.16s-.64 2.06-.19 2.64c.61.71 3.04.93 3.68.26z"/><path id="S" d="M301.96 264.05c.51-.55 0-2.58 0-2.58l-2.94-.26s-.83 1.32-.38 1.93c.57.78 2.68 1.62 3.32.91z"/><path id="T" d="M298.19 262.95c.45.06.32-1.74.32-1.74l-2.08-.39.03.48c-.03.01.29 1.46 1.73 1.65z"/><path id="U" d="M324.07 269.2s-.64-1.61-.13-2.16c.48-.52 2.27-.58 2.68 0 .45.61-.1 1.9-.1 1.9l-2.45.26z"/><path id="V" d="M327.39 268.79s-.73-1.29-.29-1.77c.42-.45 2.01-.52 2.36 0 .38.55-.06 1.48-.06 1.48l-2.01.29z"/><path id="W" d="M330.2 268.27s-.67-.97-.26-1.29c.38-.32 2.05-.42 2.24 0 .29.61.1.81.1.81l-2.08.48z"/><path id="X" d="M320.43 269.33s-.89-2.03-.35-2.58c.48-.52 2.81-.48 3.36 0 .58.55-.54 2.42-.54 2.42l-2.47.16z"/><path id="Y" d="M315.7 269.33s.99-1.39.26-2.42c-.38-.58-2.24-.68-2.68-.13-.48.58.32 2.39.32 2.39l2.1.16z"/><path id="Z" d="M312.82 269.04s.38-1.26-.06-1.74c-.42-.45-2.01-.52-2.36 0-.38.55.26 1.45.26 1.45l2.16.29z"/><path id="a" d="M309.88 268.59s.67-.9.26-1.23c-.38-.32-2.11-.45-2.24 0-.19.81.26.87.26.87l1.72.36z"/><path id="b" d="M319.34 269.33s.96-1.93.48-2.51c-.48-.52-2.81-.58-3.36-.1-.61.52.26 2.61.26 2.61h2.62z"/><path id="c" d="M317.07 239.3c-2.32-4.91-27.39-4.8-25.82 2.36 1.12 5.09 6.41 13.18 12.66 12.73 8.64-.63 15.06-11.07 13.16-15.09z"/><path id="d" d="M321.79 239.3c2.32-4.91 27.39-4.8 25.82 2.36-1.12 5.09-6.41 13.18-12.66 12.73-8.64-.63-15.06-11.07-13.16-15.09z"/><path id="e" d="M51.97 256.06c-.32-1.29 26.87-9.09 26.87-9.09s25.98 7.25 26.2 8.58c.58 3.39-5.18 4.64-25.75 4.64-20.06 0-26.33.12-27.32-4.13z"/><path id="f" d="M103.4 238.55c1-5.71-16.9-6.81-19.09-6.16-5.42 1.63-5.79 7.86-1.51 12.82 3.75 4.36 15.04 10.55 19.82 10.94 14.04 1.16-.36-11.18.78-17.6z"/><path id="g" d="M53.95 238.36c-1.18-5.67 16.71-7.35 18.92-6.77 5.46 1.45 5.62 7.16 1.92 12.77-4.7 7.12-14.73 10.77-19.46 11.57-14.54 2.45-.03-11.19-1.38-17.57z"/><path id="h" d="M85.08 251.58c0-2.16-2.49-3.74-3.2-3.87-1.73-.35-2.94-.03-2.49 3.87.26 2.13.32 3.19 2.49 3.26 1.76.06 3.2-1.13 3.2-3.26z"/><path id="i" d="M79.39 263.6c-.89-.61.19-3.29.19-3.29h6.29s.8 2.61 0 3.29c-1.02.84-5.33.78-6.48 0z"/><path id="j" d="M86.55 263.6c-.77-.61-.16-3.32-.16-3.32l5.56-.1s.86 2.77.19 3.42c-.9.84-4.6.78-5.59 0z"/><path id="k" d="M100.45 260.99c-.45.06.06-1.77.06-1.77l1.89-.55-.19.9c-.04 0-.33 1.26-1.76 1.42z"/><path id="l" d="M78.62 263.6c.89-.61 0-3.29 0-3.29h-6.45s-.8 2.61 0 3.29c1.02.84 5.3.78 6.45 0z"/><path id="m" d="M170.7 419.43c-.45-2.55 17.45 2.9 27.9 2.9s28.53-4.38 28.53-2.9c0 1.45-6.45 11.93-28.53 11.93-19.59 0-26.94-6.61-27.9-11.93z"/><path id="n" d="M172.3 419.27c-.32-1.29 26.87-9.09 26.87-9.09s25.98 7.25 26.2 8.58c.58 3.39-5.18 4.64-25.75 4.64-20.07 0-26.33.13-27.32-4.13z"/><path id="o" d="M223.72 401.76c1-5.71-16.9-6.81-19.09-6.16-5.42 1.63-5.79 7.86-1.51 12.82 3.75 4.36 15.04 10.55 19.82 10.94 14.04 1.16-.35-11.18.78-17.6z"/><path id="p" d="M224.16 410.18c-1.28-4.45-3.07-9.06-8.5-9.99-5.4-.9-11.28-2.1-11.98 1.71s5.66 10.25 10.7 11.96c4.25 1.48 11.5 2.38 9.78-3.68z"/><path id="q" d="M212.91 426.3c-.51-.52.19-3.03.19-3.03l3.64-.23s.29 2.42-.16 3c-.57.71-3.03.94-3.67.26z"/><path id="r" d="M217 425.72c-.51-.55.19-2.77.19-2.77l2.94-.39s.64 1.64.19 2.26c-.57.77-2.65 1.61-3.32.9z"/><path id="s" d="M185.75 426.3c.51-.52.38-2.74.38-2.74l-3.87-.16s-.64 2.06-.19 2.64c.61.71 3.04.94 3.68.26z"/><path id="t" d="M209.91 430.1s-.67-.97-.26-1.29c.38-.32 2.04-.42 2.24 0 .29.61.1.81.1.81l-2.08.48z"/><path id="u" d="M192.62 430.93s.34-1.27-.13-1.74c-.43-.44-2.03-.44-2.36.09-.36.56.31 1.44.31 1.44l2.18.21z"/></defs></svg>