<svg xmlns="http://www.w3.org/2000/svg" width="24" height="24" xmlns:v="https://vecta.io/nano"><path d="M0 0h24v24H0z"/><path d="M.75.75h22.5v22.5H.75z" fill="#fff"/><path d="M1.7 1.75h20.5v20.5H1.7z" fill="#32b7d5"/><text transform="translate(20.793 22.187)" font-family="AcademyEngravedLetPlain" font-size=".233">HNFT PEPE</text><path d="M6.77 12.11c.05.9.32 2.7.66 3.55.45 1.11 1.96 3.31 3.18 3.81.57.23 1.96.28 2.5 0 1.2-.62 2.76-2.75 3.23-3.92.35-.85.63-2.69.67-3.6.04-.87.28-2.66-.01-3.5-.22-.63-1.04-1.79-1.62-2.19-.74-.51-2.51-1.39-3.45-1.33-.95.06-2.76.9-3.4 1.52-.53.5-1.31 1.72-1.52 2.38-.24.8-.28 2.46-.24 3.28z" fill="#0f8137"/><g fill="#0d562b"><path d="M10.42 12.79c.1-.35-1.7-1.18-2.05-1.34-.31-.15-1.17-.15-1.4.1-.24.26-.18 1.08-.12 1.38.06.31.18.99.35 1.26l.55.78c.11.18.44.63.31.51-.26-.25-.82-.72-.95-1.02-.07-.16.23.96.27 1.06a11.31 11.31 0 0 0 .39.85c.12.25.43.7.61.92l.8 1.07c.21.23.7.73.96.91.18.13.73.31.95.36.26.07 1.17.03 1.17.03s.55-3.21-.26-3.8c-.37-.27-2.24.37-2.58.81-.18.24.01.03.01 1.11 0 .26-.32-.64-.34-.9-.09-.82.16-1.93-.11-2.39-.16-.28-.56-.58-.86-.75-.18-.1-.48-.45-.4-.63s.62.02.83-.01c.12-.02 1.84-.2 1.87-.31z"/><path d="M13.37 12.78c-.1-.35.55-1.59.88-1.79.31-.2 2.32.3 2.55.55.24.26.18 1.08.12 1.38-.06.31-.18.99-.35 1.26-.19.3-.36.48-.55.78-.11.18-.44.63-.31.51.26-.25.82-.72.95-1.02.07-.16-.23.96-.27 1.06a11.31 11.31 0 0 1-.39.85c-.12.25-.43.7-.61.92l-.8 1.07c-.21.23-.7.73-.96.91-.18.13-.73.31-.95.36-.26.07-1.17.03-1.17.03s-.55-3.21.26-3.8c.37-.27 2.24.37 2.58.81.18.24-.01.03-.01 1.11 0 .26.32-.64.34-.9.09-.82-.16-1.93.11-2.39.16-.28.56-.58.86-.75.18-.1.48-.45.4-.63s-.62.02-.83-.01c-.12-.02-1.81-.19-1.85-.31z"/></g><path d="M9.55 17.02c-.05.22.39.61.61.74.24.15.75.44 1.05.49.31.06.98.07 1.28-.01.28-.07.77-.33.98-.48.2-.15.73-.47.68-.68-.04-.2-.57-.44-.82-.49-.2-.05-.63-.1-.83-.07-.19.03-.51.25-.7.25s-.5-.21-.68-.25a2.3 2.3 0 0 0-.74.01c-.25.05-.79.29-.83.49z" fill="#eb3123"/><path d="M9.54 17.08l.6.05s.62.3.86.35a5.72 5.72 0 0 0 1.6.01c.21-.04.83-.29.83-.29l.73-.09-.76-.01s-.58.21-.79.24c-.37.06-1.16.05-1.53-.01-.24-.04-.66-.25-.9-.29-.15-.01-.64.04-.64.04z"/><path d="M7.85 12.03c.04-.31.59-.85.92-1.01.3-.14 1.13-.08 1.47-.01.37.07.95.65.99.97.02.12-.1.37-.18.45-.12.13-.42.37-.61.42a3.41 3.41 0 0 1-1.41.04 2.7 2.7 0 0 1-1.06-.56c-.07-.07-.13-.23-.12-.3z" fill="#0f5628"/><path d="M7.96 12c.12-.19.63-.48.92-.55.31-.07 1-.12 1.31-.03.27.08.78.34.88.53.03.06.03.21-.01.27-.09.12-.38.32-.56.36-.4.1-1.29.13-1.69.02-.25-.07-.72-.29-.84-.45-.03-.02-.04-.11-.01-.15z" fill="#ebc7c7"/><path d="M8.88 11.46c.31-.07 1.08-.17 1.45.01.12.06-.09.39-.14.5-.04.08-.14.25-.22.31a1.05 1.05 0 0 1-.46.12 1.31 1.31 0 0 1-.48-.17c-.09-.06-.25-.21-.27-.3-.05-.1.01-.45.12-.47z"/><path d="M11.23 12.03c-.24 1.19-.49 2.42-.89 3.32" fill="#093818"/><path d="M15.98 12.03c-.04-.31-.59-.85-.92-1.01-.3-.14-1.13-.08-1.47-.01-.37.07-.95.65-.99.97-.02.12.1.37.18.45.12.13.42.37.61.42a3.41 3.41 0 0 0 1.41.04 2.7 2.7 0 0 0 1.06-.56c.06-.07.13-.23.12-.3z" fill="#0f5628"/><path d="M15.87 12c-.12-.19-.63-.48-.92-.55-.31-.07-1-.12-1.31-.03-.27.08-.78.34-.88.53-.03.06-.03.21.01.27.09.12.38.32.56.36.4.1 1.29.13 1.69.02.25-.07.72-.29.84-.45.03-.02.04-.11.01-.15z" fill="#ebc7c7"/><path d="M14.95 11.46c-.31-.07-1.08-.17-1.45.01-.12.06.09.39.14.5.04.08.14.25.22.31a1.05 1.05 0 0 0 .46.12 1.31 1.31 0 0 0 .48-.17c.09-.06.25-.21.27-.3.05-.1-.01-.45-.12-.47z"/><path d="M12.6 12.03c.24 1.19.49 2.42.89 3.32" fill="#093818"/><path d="M11.95 14.01c.32 0 .47.7.47.82.01.15.18.51-.12.6-.15.05-.64.02-.76-.04-.17-.09-.13-.33-.11-.44.04-.15.12-.94.52-.94z" fill="#468e3a"/><ellipse cx="12.88" cy="14.92" rx=".18" ry=".19"/><circle cx="12.88" cy="14.92" r=".15" fill="#889997"/><path d="M13.97 10.03c-.44-.02-.94.19-1.17.39-.16.14-.25.46.01.55.3.1 1.08-.1 1.44-.11.39-.02 1.19.07 1.53.16.22.06.63.22.77.33.11.09.06.43.26.42.32-.02.11-.51.01-.67-.09-.15-.24-.46-.44-.57-.36-.22-1.88-.48-2.41-.5zm-4.08 0c.38-.02.81.19 1.02.39.14.14.21.46-.01.55-.26.1-.93-.1-1.25-.11a5.27 5.27 0 0 0-1.33.16c-.19.06-.21.08-.21.24 0 .76.09.09-.09.08-.28-.02-.69-.08-.61-.24.08-.15.21-.46.38-.57.32-.22 1.64-.48 2.1-.5z" fill="#093818"/><path d="M9.12 6.22l1.04-.5 1.01-.47c.16-.08.55-.29.45-.28-.43.07-.8.2-1.06.31l-.89.41c-.21.1-1.14.6-1.38 1-.07.12.69-.41.83-.47z" fill="#458e3c"/><path d="M9.54 18.81c-.01-.12.34-.36.34-.36s.4.36.56.44c.61.27 2.04.2 2.67-.02.18-.06.65-.38.65-.38s.34.27.31.39c-.04.18-.4.4-.57.47-.22.1-.69.27-.93.32a4.53 4.53 0 0 1-.73.08c-.2 0-.61 0-.8-.05-.23-.05-.65-.24-.86-.35-.19-.09-.63-.33-.64-.54zm1.35-3.3c.25-.02.53.19.66.39.09.14.14.46-.01.55-.17.1-.61-.1-.81-.11a2.27 2.27 0 0 0-.86.16c-.12.06-.36.22-.43.33-.06.09-.03.43-.15.42-.18-.02-.06-.51-.01-.67.05-.15.14-.46.25-.57.21-.22 1.06-.48 1.36-.5zm1.82 0c-.27-.02-.57.19-.71.39-.1.14-.15.46.01.55.18.1.65-.1.87-.11.23-.02.72.07.92.16.13.06.38.22.46.33.07.09.03.43.16.42.19-.02.07-.51.01-.67-.05-.15-.15-.46-.27-.57-.21-.22-1.13-.48-1.45-.5z" fill="#093818"/><path d="M11.06 18.34l.77.04c.22 0 .75-.06.75-.06s-.31.21-.42.22c-.19.02-.44.04-.62.02-.1 0-.48-.22-.48-.22z" fill="#0a3819"/><path d="M7.27 12.67c.17-.02.65-.61.65-.61l1.85-1.48c.61-.45.74-1.02 1.38-1.42.16-.1.55-.19.74-.19.13 0 .4.09.52.04.1-.03.21-.26.3-.3.13-.05.44-.03.55.07.18.16.24.72.4.9.29.33 1.21.5 1.59.71.58.32 1.36 1.15 1.67 1.61.18.27.32-.47.31-.69l-.03-.72c-.02-.24.3-.57.3-.82 0-.63-.33-1.57-.67-1.99-.08-.1-.36-.19-.46-.2-.06.02-.09.17-.15.19-.14.04-.39-.22-.52-.27-.22-.09-.72.01-.94-.08-.14-.05-.54-.28-.44-.38 0 0 .01.02.02.02.25 0 .31-.75.53-.85 0 0 .01.01.02.01.42-.25-.36-1.96-.36-1.96l-.45 1c-.13.21-.6.44-.76.62-.2.22-.31.88-.55 1.05-.12.07-.43-.01-.56.04s-.27.36-.41.39c-.1.02-.26-.17-.36-.2-.13-.04-.43-.03-.53.06-.05.04-.05.24-.12.25-.11.02-.17-.3-.27-.36-.69-.37-2.38.23-3.05.66-.22.14-.67.46-.8.7-.1.2-.22.69-.15.9.04.12.29.25.32.37.06.23-.49.75-.3.89.01 0 .01-.02.02-.02.24.05.05.43.16.73.05.12.16.02.19-.09l.18-.61c.07-.25.28-.73.45-.91.27-.28 1.33-.43 1.32-.82 0-.01-.03-.02-.04-.01-.31.17.08.42-.1.75-.25.47-.52.56-.81 1.03-.08.12-.5.67-.61.92-.1.25-.23 1.09-.03 1.07z" fill="#61170d"/><path d="M6.89 11.31c.23-.21.28-.41.37-.54.1-.13.32-.54.43-.65l.59-.55c.12-.11.56-.48.39-.38-.35.18-.55.19-.73.28l-.42.27c-.11.11-.3.42-.35.57-.05.13-.14.39-.16.52-.02.09-.18.54-.12.48z" fill="#360d08"/><path d="M13.35 8.85c.29.2.4.63.6.75.21.13.78.29 1.01.39.22.1.58.39.75.56l.58.61c.14.16.2.21.31.39l.22.3a2.86 2.86 0 0 1 .14.2s-.26-.1-.41-.28l-.57-.61c-.2-.19-.76-.73-1-.86a13.52 13.52 0 0 0-.88-.36c-.12-.05-.35-.13-.43-.23-.09-.11-.15-.36-.22-.59-.03-.06-.18-.33-.1-.27z" fill="#340d0a"/><g fill="#330e0b"><path d="M12.79 8.85l1.07-.06.36.12-.02.44-.37-.4-.46-.05zm4.41 1.81l-.46-.65.49.39z"/><path d="M13.48 8.86c.03-.01-.46-.21-.49-.22-.24-.03-.58.02-.58.02l-.77.13-.92.13-1.05.07c-.07 0-.28.15-.28.15l.55.03.59.01c.27-.02.79-.15 1.06-.15.14 0 .68.02.82-.02l.46-.12s.38.05.61-.03z"/></g><path d="M14.09 5.2l-.02.57-.24-.3v.01zm-3.61 3.93l.47-.08-.48.5-.5.54-.63.49-.4.29.61-.61.59-.59zm-1.09.01l.24-.02-.78 1.02zm1.4-1.66l.5.73.99.63-.84-.64zm1.02-.12l1.34.89.77.59-1.28-.81z" fill="#320f0c"/><path d="M13.76 8.82l1.41-.39.99-.65-.96.76z" fill="#310f0c"/><path d="M6.79 9.67l.03.21.08-.13z" fill="#340d0a"/><path d="M8.7 9.17l.32-.1.64-.09-.55.1zm4.05-2.25l.84-.02.72.14-.02.05-.83-.13z" fill="#330e0b"/><path d="M6.54 10.64s.01-.02.02-.02c.02 0 .05.02.06.03s.03.03.04.05c.01.03.05.13.03.11l-.15-.17z" fill="#340d0a"/></svg>