<svg xmlns="http://www.w3.org/2000/svg" width="8" height="8"><style>.B{stroke:#000}.C{stroke-width:.053}.D{stroke-width:.051}.E{stroke-linecap:square}.F{stroke-linecap:round}.G{stroke-linejoin:round}</style><path fill="#387bb9" d="M0 0h8v8H0z"/><g stroke-width=".121"><path d="M3.979 7.24c2.054 0 3.533-1.852 3.533-2.435s-.181-.669-.181-.669S7.028.86 3.979.86.678 4.137.678 4.137s-.154.009-.154.669 1.56 2.389 3.455 2.435z" fill="#204c88" class="B"/><path d="M3.981 7.122c1.976 0 3.41-1.752 3.41-2.307s-.174-.638-.174-.638S6.914.968 3.981.968.79 4.176.79 4.176s-.149.009-.149.638S2.157 7.078 3.98 7.121z" fill="none" stroke="#0e214d"/></g><path d="M1.389 4.336s.783.861 2.615.861 2.597-.861 2.597-.861-.028-.272-.145-.557-.322-.582-.322-.582-.815.35-2.131.35-2.174-.35-2.174-.35-.173.297-.283.582-.158.557-.158.557z" fill="#d5b17b" class="B C"/><path d="M4.676 3.995s.29-.121.662-.2.859-.065.859-.065l.05-.055s-.367-.235-.603-.235c-.391 0-1.065.209-1.065.209l.098.346zm-1.337 0s-.29-.121-.662-.2-.859-.065-.859-.065l-.05-.055s.367-.235.603-.235c.391 0 1.065.209 1.065.209l-.098.346z"/><path d="M1.112 2.341s-.168.096-.224.245a.68.68 0 0 0 0 .353s1.544.598 3.092.598 3.134-.598 3.134-.598-.005-.203-.078-.353-.202-.245-.202-.245-1.435.307-2.853.307-2.868-.307-2.868-.307z" fill="#77b0d1" class="B C"/><path d="M7.014 2.624s-1.509.507-3.046.507S.92 2.624.92 2.624s-.029.06-.029.13.029.156.029.156 1.499.607 3.047.607 3.108-.607 3.108-.607.003-.063-.013-.156-.049-.13-.049-.13z" fill="#387bb9"/><g class="B"><path d="M2.58 3.403s.224.353 1.425.353 1.396-.353 1.396-.353.145-.207.145-.452-.145-.458-.145-.458-.534.061-1.396.061-1.425-.061-1.425-.061-.111.213-.111.458a1.07 1.07 0 0 0 .111.452z" fill="#a9a9a9" class="C"/><path d="M1.986 4.035s.094.352.603.509.778-.2.778-.2-.356-.014-.699-.091-.682-.218-.682-.218zm4.029-.013s-.094.352-.603.509-.778-.2-.778-.2.356-.014.699-.091.682-.218.682-.218z" stroke-width=".05" fill="#fff"/></g><path d="M3.968 5.399h-.202l-.184.211-.46-.028-.464-.34-.204.286.608.388h.666l.24-.259v-.258zm.096 0h.202l.184.211.46-.028.464-.34.204.286-.608.388h-.666l-.24-.259v-.258z"/><path d="M1.881 4.712c-.225-.03-.418.032-.433.139s.156.217.381.248.418-.032.433-.139-.156-.217-.381-.248zm4.223 0c.225-.03.418.032.433.139s-.156.217-.381.248-.418-.032-.433-.139.156-.217.381-.248z" fill="#dc6c75" class="B D"/><path d="M4.007 6.057c-.235 0-.286.128-.286.128l.12 1.042s.019.141.166.141.177-.141.177-.141l.099-1.042s-.04-.128-.275-.128zm-.44-2.819-.248-.041.135.532.232.035-.119-.526zm.86-.008.248-.041-.135.532-.232.035.119-.526zm-.311.525.092-.567-.214.05-.187-.05.089.567h.22zM4.824 2.566h-1.65s.057.347.126.388.385.084.687.084.632-.041.708-.084.129-.388.129-.388z"/><path d="m3.287 1.461-.178.178a1.262 1.262 0 0 0 1.785.003l-.179-.179a1.01 1.01 0 0 1-1.428-.003z" class="B D"/><path d="M4.095 2.314a.56.56 0 0 1 .065-.275c-.039-.068-.092-.11-.151-.11s-.112.042-.151.11a.56.56 0 0 1 .065.275.564.564 0 0 1-.065.275c.039.068.092.11.151.11s.112-.042.151-.11a.56.56 0 0 1-.065-.275z"/><g fill="none"><g stroke="#fff" class="C"><path d="M4.528 5.713h.435l.276-.228m-1.754.228H3.05l-.276-.228" class="E"/><path d="M4.008 6.242v.339m0 .124v.339" class="F G"/></g><path d="m4.579 3.255-.094.014m-.001-.631h-.306m-.361-.006h-.306m2.357 1.005.068-.068m.014.082.068-.068m-3.755.015-.068-.068m-.014.082-.068-.068m1.298-.294.094.014m.504.023.094-.014m-.114.014-.094-.014" stroke="#fff" stroke-width=".02" class="F G"/><path d="M3.277 1.566c.383.383 1.07.382 1.462 0" stroke="#fff" stroke-width=".034" class="E"/></g></svg>