<svg xmlns="http://www.w3.org/2000/svg" viewBox="0 0 25 21.62"><path d="M15.94 8.39c0 .54-.09.99-.4 1.38-.41.5-.99.45-1.31-.11a2.3 2.3 0 0 1 .16-2.31c.2-.26.46-.42.8-.33.33.08.51.33.62.63.1.26.14.52.13.74Zm-.88-.59c.11 0 .22-.02.32-.06.14-.05.17-.15.07-.27-.24-.31-.6-.31-.86 0-.1.12-.08.21.07.26.13.05.26.08.4.08Zm-.16 1.62-.31.01c-.05 0-.11.01-.13.07-.02.06 0 .11.04.15.21.26.57.28.8.04.04-.04.1-.08.06-.16-.03-.07-.09-.1-.16-.1l-.31-.01ZM10.4 8.15c0 .47-.08.95-.34 1.38a.91.91 0 0 1-.4.4c-.31.14-.64-.03-.81-.4a2.08 2.08 0 0 1-.17-.85c0-.59.09-1.15.46-1.64.1-.13.22-.24.4-.26.33-.05.58.12.72.48a2 2 0 0 1 .13.88Zm-.22-.24-.06-.31c-.06-.2-.11-.4-.29-.53-.11-.09-.24-.08-.35 0-.09.06-.2.12-.17.26.05.25.49.67.73.72.1.02.14-.02.14-.14Zm-.76 1.83c.12 0 .21-.03.25-.12.04-.08-.01-.15-.07-.21a2.18 2.18 0 0 0-.45-.35c-.05-.03-.11-.05-.16 0-.05.04-.03.1-.01.14.05.14.1.28.2.4.07.08.15.16.24.15ZM12.22 14.6c-.07 0-.12-.03-.17-.06l-1.1-.8-.06-.06c-.06-.06-.07-.12-.02-.19.06-.07.13-.05.19 0 .3.26.64.47.95.71.16.12.2.12.34-.03l.63-.73c.06-.08.14-.13.22-.06.08.07.03.16-.03.22l-.81.91c-.04.05-.09.08-.14.08ZM7.66 13.72c0-.2.07-.4.12-.59l.06-.12c.04-.07.11-.1.18-.06.08.04.06.12.02.17-.09.14-.1.3-.14.45-.02.07-.02.14.02.2.03.06.05.13 0 .18-.04.04-.09.05-.14.04-.08-.03-.11-.09-.12-.17v-.1ZM16.39 12.9c.01.13-.03.19-.11.2-.08.01-.11-.07-.11-.13a.76.76 0 0 0-.22-.51c-.05-.05-.06-.12 0-.17.05-.05.12-.03.17.02.2.16.24.4.28.59ZM8.22 13.45l.03-.29c0-.08.06-.13.11-.17.06-.04.12-.03.17.02.04.04.06.1.01.14-.13.14-.11.3-.08.46.01.09.06.21-.07.23-.11.02-.15-.1-.16-.21l-.01-.18ZM15.91 12.96c0 .09-.02.16-.12.17-.1 0-.12-.08-.12-.15a.28.28 0 0 0-.11-.22c-.06-.05-.07-.1-.03-.16.04-.07.11-.05.17-.02.11.05.2.23.21.37Z"/><text font-family="Arial-Black,&quot;Arial Black&quot;" font-size="2.41" font-weight="800" transform="translate(.44 20.75)"><tspan x="0" y="0">I AM GOOD PONKI</tspan></text><path d="M11.94 18.36c-.6.04-1.25-.03-1.9-.1a13.8 13.8 0 0 1-1.91-.3 7.32 7.32 0 0 1-3.86-2.19 6.39 6.39 0 0 1-1.35-2.41 9.13 9.13 0 0 1 .41-6.06 9.02 9.02 0 0 1 2.31-3.29c.15-.13.15-.19-.02-.3l-.96-.65c-.1-.07-.16-.15-.14-.28.01-.12.1-.17.2-.21a5.78 5.78 0 0 1 2.66-.19c.03 0 .07 0 .1.02.2.12.36.03.53-.06a9.47 9.47 0 0 1 3.77-1.03c.34-.03.68.01 1.02.04 1.32.11 2.53.53 3.65 1.24.3.19.3.19.56-.05a3.5 3.5 0 0 1 1.03-.71c.17-.07.34-.1.52-.09.29.02.5.2.56.48.06.31 0 .61-.1.91-.13.36-.31.69-.53 1-.08.11-.07.19.02.29a11.49 11.49 0 0 1 2.52 4.49c.31 1.15.41 2.32.19 3.5a6.54 6.54 0 0 1-2.35 3.98 7.89 7.89 0 0 1-3.06 1.52 15.43 15.43 0 0 1-3.86.46Zm.04-.21h.29c1.13-.03 2.25-.14 3.36-.43a8 8 0 0 0 2.83-1.33 6.38 6.38 0 0 0 2.62-5.14 8.16 8.16 0 0 0-.78-3.63 12.16 12.16 0 0 0-2.48-3.58 7.96 7.96 0 0 0-7.74-2.22 9.46 9.46 0 0 0-3.19 1.47 9.46 9.46 0 0 0-4.08 7.47 6.59 6.59 0 0 0 4.56 6.74c.58.21 1.18.34 1.79.44.93.15 1.87.21 2.81.22Zm6.51-16.17a.81.81 0 0 0-.31.06c-.44.16-.78.47-1.11.78-.09.08-.08.16.02.23.36.26.69.57 1 .9.1.1.17.1.25-.02.19-.3.37-.61.48-.95.07-.23.14-.47.07-.72-.06-.21-.17-.3-.38-.3Zm-11.74.57c-.36 0-.64.03-.91.04-.28.02-.55.07-.83.13-.08.02-.19.04-.2.13-.01.08.09.12.15.16l.82.55c.17.12.21.12.36-.01l.06-.05c.32-.26.65-.51 1.02-.71.06-.03.13-.07.11-.14-.01-.07-.1-.06-.16-.07a4.58 4.58 0 0 0-.44-.03Z"/><path fill="none" d="M0 0h25v21.62H0z"/></svg>