<svg xmlns="http://www.w3.org/2000/svg" width="16" height="16"><path fill="#2da33c" d="M0 0h16v16H0z"/><path d="M12.022 7.073a1.72 1.72 0 1 0 .002-3.439 1.72 1.72 0 0 0-.002 3.439Z" fill="#fff"/><path d="M11.574 6.139a.923.923 0 1 0 .923-1.598.923.923 0 0 0-.923 1.598Z" fill="#222326"/><path d="M3.978 7.085a1.72 1.72 0 1 0 .001-3.438 1.72 1.72 0 0 0-.001 3.438Z" fill="#fff"/><path d="M3.529 6.152a.923.923 0 1 0 .923-1.598.923.923 0 0 0-.923 1.598Z" fill="#222326"/><path d="M3.106 8.716a.558.558 0 0 0-.788.01.558.558 0 0 0-.01.788l.396.396c2.783 2.782 7.738 2.78 10.588.005l.4-.39a.558.558 0 0 0-.01-.789.558.558 0 0 0-.789-.01l.001.002-.39.379c-2.41 2.347-6.658 2.349-9.002.005l-.396-.396Z" fill="#fc3f46"/><path d="M3.102 9.432a.069.069 0 0 0-.097.001.069.069 0 0 0-.002.097l.05.05c2.59 2.59 7.236 2.589 9.893 0l.05-.048a.069.069 0 0 0-.001-.098.069.069 0 0 0-.096-.002l-.05.048c-2.604 2.535-7.161 2.537-9.697 0l-.05-.049Z" fill="#800102"/></svg>