<svg xmlns="http://www.w3.org/2000/svg" width="400" height="400" xmlns:v="https://vecta.io/nano"><style><![CDATA[.o{stroke-miterlimit:10}.p{stroke-width:1.834}.q{fill:#ff5900}.r{fill:#004cff}.s{fill:#7300ff}.t{stroke-width:.765}]]></style><linearGradient id="A" gradientUnits="userSpaceOnUse" x1="200" y1="-.922" x2="200" y2="400.398"><stop offset="0" stop-color="#ff00bf"/><stop offset=".07" stop-color="#f80162"/><stop offset=".122" stop-color="#f40223"/><stop offset=".147" stop-color="#f2020a"/><stop offset=".16" stop-color="#f30f09"/><stop offset=".217" stop-color="#f84105"/><stop offset=".266" stop-color="#fc6502"/><stop offset=".307" stop-color="#fe7c01"/><stop offset=".332" stop-color="#ff8400"/><stop offset=".347" stop-color="#ff8f00"/><stop offset=".418" stop-color="#ffbe00"/><stop offset=".473" stop-color="#ffdb00"/><stop offset=".504" stop-color="#ffe600"/><stop offset=".665" stop-color="#00ff26"/><stop offset=".794" stop-color="#00bfff"/><stop offset=".798" stop-color="#00b6ff"/><stop offset=".827" stop-color="#0082ff"/><stop offset=".851" stop-color="#005cff"/><stop offset=".871" stop-color="#0045ff"/><stop offset=".883" stop-color="#003cff"/><stop offset=".899" stop-color="#172fff"/><stop offset=".928" stop-color="#391aff"/><stop offset=".955" stop-color="#520cff"/><stop offset=".98" stop-color="#6103ff"/><stop offset="1" stop-color="#60f"/></linearGradient><path d="M0 0h400v400H0z" fill="url(#A)"/><path d="M287.05 204.35c-15.35-9.29 5.83-23.5 6.32-32.4 1.63-29.86 22.74-50.56 57.1-36.42 12.13 4.99 38-5.69 41.73 3.01 9.98 23.34-92.86 73.25-105.15 65.81z" fill="#0026ff"/><g fill="#ff00f7"><path d="M351.43 146.07c.02-1.55 4.9-5.4 10.33-6.15 4.19-.58 5.08 1.04 4.75 3.36-.16 1.1-2.78 4.08-6.94 4.85-4.16.78-8.17-.25-8.14-2.06zm-23.6 5.13c-.47-2.69.44-5.1 2.02-5.39s6.21 1.76 6.67 4.44-3.41 4.99-4.99 5.29-3.23-1.65-3.7-4.34z"/><ellipse transform="matrix(.9999 -.0167 .0167 .9999 -2.1865 5.5443)" cx="331.47" cy="133.93" rx="8.13" ry="1.99"/><path d="M300.17 152.15c-.52-2.98 6.8-7.28 9.39-7.76 2.58-.48 2.82 3.9 3.34 6.89.52 2.98-3.5 5.96-7.48 6.38-2.61.26-4.74-2.52-5.25-5.51zm.22 22.23c-.2-1.13 2.47-5.11 5.85-5.73 3.37-.62 6.17 2.34 6.37 3.47s-4.75 4.33-8.12 4.95-3.91-1.55-4.1-2.69zm62.99-5.65c-.84-1.01 1.07-3.45 4.28-5.44 3.2-1.99 11.82-4.84 12.66-3.83s-6.4 5.51-9.61 7.5-6.49 2.78-7.33 1.77zm-76.54 20.57c1.19-1.89 2.77-3.18 3.53-2.88s1.68 3.19.49 5.08-3.85 4.72-4.61 4.41c-.75-.29-.6-4.71.59-6.61z"/></g><path d="M290.46 198.29c-8.45-11.02 25.05-27.79 38.6-36.38s46.34-27.33 56.64-19.29c8.98 7-24.2 27.8-37.75 36.39s-50.74 28.08-57.49 19.28z" fill="#0008a8"/><linearGradient id="B" gradientUnits="userSpaceOnUse" x1="60.234" y1="336.157" x2="87.263" y2="250.309" gradientTransform="matrix(-0.9983 -0.0591 -0.0591 0.9983 431.8151 -67.9323)"><stop offset="0" stop-color="#0026ff"/><stop offset=".183" stop-color="#0023f7"/><stop offset=".465" stop-color="#001ce2"/><stop offset=".808" stop-color="#0010bf"/><stop offset="1" stop-color="#0008a8"/></linearGradient><path d="M375.51 271.77c-1.07-40.46-34.59-109.33-34.59-109.33l-16.38 7.58s13.33 73.87 6.45 108.05c-1.45 7.26 44.71.9 44.52-6.3z" fill="url(#B)"/><path d="M47.4 66.45c-3.51-13.69 14.08-8.87 18.53-13.23 14.92-14.61 35.53-13.21 46.52 13.97 3.88 9.6 22.22 18.95 20.03 25.63-5.88 17.91-82.27-15.41-85.08-26.37z" fill="#0f0"/><g fill="#ae00ff"><path d="M107.97 73.24c.74-.79 5.07.01 8.21 2.76 2.43 2.12 2.12 3.47.85 4.49-.6.48-3.35.53-5.86-1.48-2.49-2.01-4.06-4.85-3.2-5.77zM93.42 62.3c1.03-1.67 2.63-2.4 3.58-1.65.95.76 2.36 4.49 1.34 6.16-1.03 1.67-4.11.63-5.06-.12-.95-.76-.88-2.72.14-4.39z"/><ellipse transform="matrix(.7403 -.6723 .6723 .7403 -10.3786 83.9292)" cx="103.44" cy="55.4" rx="1.39" ry="6.27"/><path d="M78.76 46.84c1.14-1.85 6.93.13 8.49 1.37s-.39 3.66-1.53 5.51-4.61 1.08-6.85-1c-1.48-1.36-1.26-4.03-.11-5.88zm-10.37 11.7c.43-.7 3.68-1.23 5.71.39s2.07 4.78 1.64 5.48-4.48-.48-6.51-2.11c-2.03-1.62-1.28-3.06-.84-3.76zm35.04 33.38c.04-1.01 2.18-1.18 4.76-.37 2.59.81 8.36 4.29 8.31 5.31-.04 1.01-5.89-.83-8.47-1.64s-4.65-2.29-4.6-3.3zM54.39 58.49c1.5-.3 2.92-.06 3.17.54s-.64 2.63-2.14 2.93-4.2.24-4.45-.36 1.91-2.81 3.42-3.11z"/></g><path d="M52.01 65.26c.86-10.61 25.98-.02 36.99 3.32s36.7 12.49 38.21 22.62c1.31 8.82-25.55.52-36.56-2.83-11.01-3.34-39.32-14.64-38.64-23.11z" fill="#008204"/><linearGradient id="C" gradientUnits="userSpaceOnUse" x1="299.986" y1="268.693" x2="319.511" y2="206.679" gradientTransform="matrix(-0.6606 -0.7508 -0.7508 0.6606 452.11 183.1046)"><stop offset="0" stop-color="#0f0"/><stop offset=".142" stop-color="#00f700"/><stop offset=".36" stop-color="#00e201"/><stop offset=".628" stop-color="#00be02"/><stop offset=".932" stop-color="#008e04"/><stop offset="1" stop-color="#008204"/></linearGradient><path d="M61.07 152.57C79.6 130.88 94.86 75.7 94.86 75.7l-11.99-5.5s-27.99 46.15-47.64 59.98c-4.18 2.93 22.54 26.25 25.84 22.39z" fill="url(#C)"/><path d="M120.3 311.64c17.9-5.55-.9-22.01.54-30.04 4.84-26.93-12.47-49.17-51.08-42.7-13.63 2.29-38.05-11.87-43.79-4.77-15.42 19.05 80 81.96 94.33 77.51z" fill="#ff0015"/><g fill="#08ff00"><path d="M66.47 248.15c.31-1.39-3.88-5.7-9.34-7.34-4.21-1.26-5.48.02-5.64 2.15-.08 1.01 1.98 4.14 6.11 5.57 4.14 1.44 8.51 1.23 8.87-.38zm23.27 8.79c1.07-2.31.66-4.63-.91-5.17s-6.8.46-7.87 2.77 2.43 5.06 4 5.61c1.58.54 3.72-.89 4.78-3.21z"/><ellipse transform="matrix(.1812 -.9834 .9834 .1812 -163.3943 285.503)" cx="89.76" cy="240.88" rx="1.83" ry="8.52"/><path d="M118.14 262.73c1.19-2.57-5.44-7.71-8.01-8.6s-3.77 2.98-4.96 5.55 2.32 5.94 6.34 7.02c2.64.71 5.44-1.4 6.63-3.97zm-5.08 19.8c.45-.98-1.44-5-4.79-6.16s-6.89.98-7.34 1.96 3.96 4.71 7.31 5.87c3.34 1.15 4.37-.7 4.82-1.67zm-63.89-16.31c1.09-.75-.36-3.27-3.23-5.62-2.88-2.35-11.16-6.43-12.25-5.68s5.42 6.06 8.3 8.41 6.09 3.65 7.18 2.89zm74.63 32.04c-.82-1.9-2.17-3.33-3.03-3.2-.85.14-2.43 2.55-1.62 4.45s2.95 4.9 3.8 4.76c.86-.14 1.67-4.11.85-6.01z"/></g><path d="M118.1 305.63c11.14-8.33-19.83-29.27-31.96-39.35C74 256.2 44.2 233.61 31.79 238.94c-10.81 4.64 18.94 29.13 31.08 39.21s46.33 34.13 55.23 27.48z" fill="#a80f1c"/><linearGradient id="D" gradientUnits="userSpaceOnUse" x1="40.042" y1="353.955" x2="76.771" y2="277.807"><stop offset="0" stop-color="#ff0015"/><stop offset=".183" stop-color="#f70116"/><stop offset=".465" stop-color="#e20517"/><stop offset=".808" stop-color="#bf0b1a"/><stop offset="1" stop-color="#a80f1c"/></linearGradient><path d="M14.13 355.99c9.94-35.9 59.63-91.36 59.63-91.36l15.28 9.69s-29.91 63.52-30.26 95.25c-.09 6.73-46.42-7.19-44.65-13.58z" fill="url(#D)"/><g stroke="#000" stroke-width="1.531"><g class="o"><path d="M178.32 168.57s-81.58-39.9-45.37-46.8c15.81-3.01 92.65 2.72 112.17 7.46 43.86 10.66-4.02 43.52-4.02 43.52l-62.78-4.18zm45.43 3.8s28.11-24.61 2.87-31.89c-11.23-3.24-55.61-6.54-64.8-4.15-21.03 5.48 25.66 33.72 25.66 33.72l36.27 2.32z" fill="#0a9400"/><path d="M230.75 251.71l21.04 7.18 12.71-20.77 1.88-10.01 2.01 8.87 8.19-8.87-4.92 11.08 6.65 3.08-9.78 1.02-15.85 18.23-21.92-5.88z" class="q"/></g><g fill="#6b0af2"><ellipse cx="253.05" cy="263.53" rx="2.08" ry="2.01"/><ellipse cx="277.66" cy="226.91" rx="4.3" ry="4.16"/><ellipse cx="278.92" cy="241.77" rx="1.71" ry="1.65"/><ellipse cx="266.41" cy="225.91" rx="3.27" ry="3.16"/></g><path d="M191.64 252.14l-19.43 10.62-16.26-18.32-3.64-9.54-.39 9.07-9.66-7.35 6.83 10.09-5.98 4.14 9.81-.64 18.89 15.29 20.53-9.48z" class="o q"/><g fill="#6b0af2"><ellipse cx="171.81" cy="267.54" rx="2.08" ry="2.01"/><ellipse cx="140.98" cy="235.62" rx="4.3" ry="4.16"/><ellipse cx="142.41" cy="250.46" rx="1.71" ry="1.65"/><ellipse cx="151.87" cy="232.74" rx="3.27" ry="3.16"/></g><path d="M195.74 275.69L159.9 288.9l-2.95 29.64-16.85 6.75 17.22-3.78-20.66 14.85 26.4-14.35-9.61 14.57 12.01-12.87-2.47 10.11 5.7-12.11.9 19.6 3.03-23.44-2.51-4.6 3.89-7.32-11.04 7.05 1.36-21.54 31.48-11.45z" class="o r"/><g fill="#eaff00"><ellipse cx="137.51" cy="325.52" rx="3.34" ry="3.23"/><ellipse cx="137.22" cy="336.05" rx="4.19" ry="4.06"/><ellipse cx="151.77" cy="338.66" rx="3.12" ry="3.02"/><ellipse cx="161.31" cy="338.66" rx="2.38" ry="2.3"/><ellipse cx="169.5" cy="344.13" rx="5.48" ry="5.3"/><ellipse cx="176.48" cy="303.6" rx="3.82" ry="3.7"/><ellipse cx="157.48" cy="286.95" rx="3.82" ry="3.7"/></g><path d="M231.42 271.78l23.52 12.77-4.34 29.48 14.72 10.39-15.81-7.59 16.47 19.13L243.81 316l5.79 16.35-8.53-15.24-.07 10.39-2.59-13.08-5.65 18.86 2.77-23.48 3.56-3.9-2-8 9.01 9.37 3.92-21.24-20.04-11.43z" class="o r"/><g fill="#eaff00"><ellipse cx="267.79" cy="325.23" rx="3.34" ry="3.23"/><ellipse cx="265.51" cy="335.54" rx="4.19" ry="4.06"/><ellipse cx="250.72" cy="334.76" rx="3.12" ry="3.02"/><ellipse cx="241.45" cy="331.74" rx="2.38" ry="2.3"/><ellipse cx="232.17" cy="336.04" rx="5.48" ry="5.3"/><ellipse cx="235.25" cy="295.05" rx="3.82" ry="3.7"/><ellipse cx="257.77" cy="283.2" rx="3.82" ry="3.7"/></g><g fill="#0a9400" class="o"><path d="M184.37 259.45c0-18.08 12.36-32.74 27.61-32.74s27.61 14.66 27.61 32.74-12.36 32.74-27.61 32.74c-15.24-.01-27.61-14.66-27.61-32.74zm27.61 25.2c9.42 0 17.06-11.28 17.06-25.2s-7.64-25.2-17.06-25.2-17.06 11.28-17.06 25.2 7.64 25.2 17.06 25.2zm0-7.89c4.71 0 8.53-7.15 8.53-15.98s-3.82-15.98-8.53-15.98-8.53 7.15-8.53 15.98 3.82 15.98 8.53 15.98zm5.45-60.26l-5.23-28.53"/><path d="M212.97 171.32s-69.53 44.49-32.82 64.89c11.71 6.51 60 7.83 69.1 1.1 28.56-21.12-36.28-65.99-36.28-65.99z"/></g><path d="M170.68 181.76c-12.77-1.43-25.75-17.6-19.19-22.22 7.03-4.95 46.02-5.5 54.87-.35 4.44 2.58-2.03 12.21-2.03 12.21s-22.98 11.55-33.65 10.36z" fill="#942000" class="o"/><path d="M212.34 161.53c.37-6.95 26.79-24.35 36.44-20.94 10.34 3.65 19.24 34.6 11.34 39.55-3.96 2.48-22.79-.72-22.79-.72s-25.3-12.08-24.99-17.89z" fill="#5e00ff" class="o"/><path d="M209.98 171.4l-22.96-9.4-16.99 8.87s-3.39 26.71 20.82 25.36c19.25-1.08 19.13-24.83 19.13-24.83z" fill="#2f04db" class="o"/><path d="M210.82 171.28L187.03 162l-17.79 7.94s2.09 21.81 19.88 19.59c18.83-2.35 21.7-18.25 21.7-18.25z" fill="#f007c9" stroke-dasharray="0,0,0,0,0,0" class="o"/><ellipse transform="matrix(.1784 -.984 .984 .1784 -17.6828 329.7285)" cx="188.61" cy="175.45" rx="9.79" ry="12.55" class="q"/><g class="o"><path d="M188.55 168.35c5.91.06 23.23 3.46 23.23 3.46l-28.96-26.52-16.2 26.22c.02.01 16.22-3.22 21.93-3.16z" fill="#ffea00"/><path d="M256.95 172.46l-22.96-9.4-16.99 8.87s-17.9 23.51 20.82 25.36c25.45 1.21 19.13-24.83 19.13-24.83z" fill="#dbb404"/><path d="M257.79 172.34L234 163.06 216.21 171s2.09 21.81 19.88 19.59c18.82-2.35 21.7-18.25 21.7-18.25z" fill="#6e3737"/></g><ellipse transform="matrix(.1626 -.9867 .9867 .1626 24.201 377.6404)" cx="234.58" cy="174.56" rx="7.94" ry="11.22" fill="#00eaff"/><g class="o"><path d="M235.52 169.41c5.91.06 23.98 3.76 23.98 3.76s-1.42-13.85-17.36-17.21c-25.41-5.35-28.24 15.97-28.24 15.97s15.91-2.58 21.62-2.52z" fill="#ff004d"/><g fill="#ed0000"><path d="M167.77 219.37s-8.01-1.61-8.81 4.28c-.54 3.97 3.73 5.46 7.04 6.62 3.17 1.11 12.02 2.57 16.05 2.25 3.65-.29 7.64-3.8 11.36-3.41 3.9.41 3.11 4.39 4.78 5.78 1.43 1.19 6.49 3.43 9.82 3.79 3.48.38 15.05-1.02 17.66-1.55 3.12-.63 12.65-2.68 15.11-3.62 4.72-1.81 12-4 13.44-7.48.88-2.14-86.45-6.66-86.45-6.66z"/><path d="M151.86 216.35c-.66-2.63 10.64-7.03 17.2-7.81 5.49-.65 19.01-1.21 23.6.31 5.77 1.91.87 9.81 7.95 10.87 8.92 1.33 17.12-7.9 24.59-9.79 6.34-1.61 24.81-3.3 31.27-1.39 4.72 1.4 6.84 6.39 6.14 8.51-.78 2.39-3.19 7.55-8.08 9.03-4.62 1.4-17.74 1.95-23.94 1.71-15.97-.6-48.11-3.2-63.01-5.78-4.91-.85-15.23-3.7-15.72-5.66z"/></g></g><g class="s"><ellipse transform="matrix(.0558 -.9984 .9984 .0558 46.5129 400.7507)" cx="235.14" cy="175.78" rx="2.11" ry="3.91"/><ellipse transform="matrix(.9963 -.0864 .0864 .9963 -14.4977 17.0392)" cx="189.58" cy="175.99" rx="3.29" ry="5.69"/></g><g fill="#016b05"><ellipse transform="matrix(.4306 -.9025 .9025 .4306 -66.6749 295.6574)" cx="200.98" cy="200.67" rx="6.23" ry="1.95"/><ellipse transform="matrix(.9209 -.3899 .3899 .9209 -61.4713 99.9925)" cx="215.6" cy="201.43" rx="2.66" ry="7.87"/></g><ellipse cx="181.82" cy="138.54" rx="7.76" ry="7.54" class="r"/></g><path d="M239.58 76.53l-33.43 48.31 27.41 9.62z"/><path d="M266.99 86.16l-33.43 48.3 27.41 9.63z"/><g stroke="#000" class="p"><path d="M289.51 69.86l-41.38 69.72s21.11 13.19 27.41 9.62c17.88-10.13 13.97-79.34 13.97-79.34zm-56.54-19.85s-48.48 50.82-41.38 69.72c2.5 6.65 27.41 9.62 27.41 9.62l13.97-79.34zm28.27 9.92l-41.38 69.72 27.4 9.62z" fill="#a3a000" class="o"/><g fill="#0046a1"><ellipse cx="236.24" cy="40.96" rx="11.64" ry="11.32"/><ellipse cx="269.24" cy="79.73" rx="4.46" ry="4.34"/></g><ellipse cx="292.54" cy="56.81" rx="6.69" ry="6.51" fill="#046e0a"/><g fill="#ba1c04"><ellipse cx="244.22" cy="65.89" rx="7.08" ry="6.89"/><ellipse cx="263.15" cy="54.53" rx="3.59" ry="3.49"/></g><g fill="#0046a1"><ellipse cx="268.5" cy="38.17" rx="3.01" ry="2.92"/><ellipse cx="310.13" cy="31.8" rx="6.55" ry="6.37"/></g><ellipse cx="283.37" cy="26.71" rx="5.43" ry="5.28" fill="#ba1c04"/><ellipse cx="257.13" cy="29.07" rx="2.43" ry="2.36" fill="#046e0a"/></g><ellipse transform="matrix(.9848 -.1738 .1738 .9848 -27.7694 35.607)" cx="189.41" cy="176.35" rx="1.01" ry="3.16"/><g stroke="#000"><g class="o"><path d="M160.05 189.82c-6.37 4.55-6.71-17.17-1.1-15.24 8.36 2.89 30.62.62 30.62.62l.52 2.98c0-.01-17.02 2.35-30.04 11.64z" class="s t"/><path d="M148.39 183.26c-.75-5.63 4.96-14.4 9.15-14.93 4.2-.53 5.3 7.38 6.05 13.01s4.64 8.98-6.24 11.15c-4.15.84-8.21-3.59-8.96-9.23z" stroke-width="1.058" class="q"/></g><ellipse transform="matrix(.9952 -.0981 .0981 .9952 -17.26 15.7399)" cx="151.48" cy="183.44" rx="3.01" ry="6.61" class="s t"/><g fill="#00eaff" stroke-width=".345"><ellipse cx="158.59" cy="187.62" rx="2.04" ry="1.98"/><ellipse cx="157.15" cy="173.5" rx=".78" ry=".75"/><ellipse cx="157.62" cy="180.38" rx="1.5" ry="1.46"/><ellipse cx="152.59" cy="173.96" rx="1.12" ry="1.08"/><ellipse cx="161.17" cy="183.49" rx="1.07" ry="1.04"/><ellipse cx="160.32" cy="173.51" rx="1.17" ry="1.14"/><ellipse cx="162.92" cy="188.74" rx=".68" ry=".66"/><ellipse cx="154.6" cy="190.32" rx=".39" ry=".38"/><ellipse cx="157.53" cy="170.79" rx="1.41" ry="1.37"/></g></g><text transform="translate(374.315 397.076)" fill="#ff008c" font-family="AcademyEngravedLetPlain" font-size="3.966">HNFT PEPE</text></svg>