<svg xmlns="http://www.w3.org/2000/svg" width="400" height="560" xmlns:v="https://vecta.io/nano"><style><![CDATA[.e{stroke:#000}.f{stroke-miterlimit:10}.g{fill:#fc1a05}.h{stroke-width:1.195}.i{font-family:Arial-BoldMT}]]></style><path d="M0 0h400v560H0z"/><path d="M20 523.73V36.27A10.17 10.17 0 0 1 30.17 26.1h339.66A10.17 10.17 0 0 1 380 36.27v487.45a10.17 10.17 0 0 1-10.17 10.17H30.17A10.16 10.16 0 0 1 20 523.73z" class="g"/><path d="M42 347.35h316v172H42z" fill="#e62a88"/><path d="M42 44.64h316v473.43H42z" fill="none" stroke-width="5" class="e f"/><radialGradient id="A" cx="183.201" cy="218.336" r="155.629" gradientTransform="matrix(1.1328 0 0 0.992 -5.4203 3.156)" gradientUnits="userSpaceOnUse"><stop offset="0" stop-color="#444f18"/><stop offset=".263" stop-color="#363f13"/><stop offset=".775" stop-color="#121506"/><stop offset="1"/></radialGradient><path d="M40.82,73.71H358V332.7H40.82V73.71z" fill="url(#A)"/><path d="M25 354.52h0c0-13.25 10.75-24 24-24h302c13.25 0 24 10.75 24 24h0c0 13.25-10.75 24-24 24H49c-13.25 0-24-10.74-24-24z"/><path d="M31.18 355.52v-2a18.5 18.5 0 0 1 18.5-18.5h300.65a18.5 18.5 0 0 1 18.5 18.5v2a18.5 18.5 0 0 1-18.5 18.5H49.68a18.5 18.5 0 0 1-18.5-18.5z" class="g"/><path d="M35.81 354.52h0a16 16 0 0 1 16-16h296.38a16 16 0 0 1 16 16h0a16 16 0 0 1-16 16H51.81a16 16 0 0 1-16-16z" fill="#f3f2e9"/><path d="M25 57.71h0c0-13.25 10.75-24 24-24h302c13.25 0 24 10.75 24 24h0c0 13.25-10.75 24-24 24H49c-13.25 0-24-10.75-24-24z"/><path d="M31.18 58.71v-2a18.5 18.5 0 0 1 18.5-18.5h300.65a18.5 18.5 0 0 1 18.5 18.5v2a18.5 18.5 0 0 1-18.5 18.5H49.68c-10.22 0-18.5-8.29-18.5-18.5z" class="g"/><path d="M35.81 57.71h0a16 16 0 0 1 16-16h296.38a16 16 0 0 1 16 16h0a16 16 0 0 1-16 16H51.81c-8.84 0-16-7.17-16-16z" fill="#f3f2e9"/><text transform="matrix(1.0294 0 0 1 141.6909 70.447)" font-family="AcademyEngravedLetPlain" font-size="35.163">PIMP Z</text><text transform="matrix(.8327 0 0 1 76.271 359.7602)" font-family="ArialMT" font-size="19.648">= 0   Atk = 69  Spd = 11  Ele = carcuss</text><g fill="#e30206"><path d="M64.55 363.99l.18-15.82s-4.34-5.6-7.76-1.79c-4.39 4.88 7.58 17.61 7.58 17.61z"/><path d="M64.45 363.72l-.47-15.56h1.27v14.65z"/><path d="M64.55 363.99l.1-15.82s4.34-5.6 7.76-1.79c4.4 4.88-7.86 17.61-7.86 17.61z"/></g><path d="M71.41 518.07l20-46.24h216l20 46.24z"/><path d="M87.91 525.51l10.67-45.06h201.66l11.67 46z" class="g"/><text transform="matrix(1.0294 0 0 1 99.6579 514.8252)" font-family="Impact" font-size="26.924">THE UNPRUNABLES</text><g fill="#444f18"><path d="M140.16 235.95l127.1-13.49v55.29h-127.1v-41.8z"/><path d="M152.98 225.66l114.28-3.2v55.29h-127.1l12.82-52.09z"/><path d="M152.82 226.33l114.44-3.87v55.29h-127.1l12.66-51.42z"/><path d="M152.43 222.79l114.83-.33v55.29l-113.28-44.5-1.55-10.46z"/></g><path d="M176.07,273.54h49.73v59.16h-49.73V273.54z" fill="#444f19"/><g fill="#6c2496" class="e f h"><path d="M285.73 305.17v27.53h-84.99l25.06-27.53h59.93z"/><path d="M116.01,305.17v27.53H201l-25.06-27.53H116.01z"/></g><path d="M152.43,188.51l99.85-27.42v61.7h-99.85V188.51z" fill="#444f19"/><path d="M186.05 251.7h-9.69v-3.87h9.69v3.87z"/><path d="M170.64,229.31h60.58v41.47h-60.58V229.31z" fill="#7b0e04"/><path d="M172.84,238.38h56.19v24.44h-56.19V238.38z"/><path d="M182.53,238.38h8.14v12.27h-8.14V238.38z" fill="#ab9625"/><path d="M202.55 250.65v12.16h-8.14l1.94-10.5 6.2-1.66z" fill="#aa9627"/><path d="M198.29 251.76l-1.94.55-1.68 8.85 3.62-9.4z" fill="#560c0d"/><path d="M221.28 238.38v12.27l-7.62-4.98-.52-7.3h8.14z" fill="#d5c55f"/><path d="M222.05 247.89v4.98h-10.33v-7.74l10.33 2.76z"/><path d="M217.14 250.1l-.65-2.1-1.55-1.77-.77-.44 1.42-2.54 2.2-1.44 2.33 3.65 1.16 2.43-.39.88-2.45-1-1.3 2.33zm-92.09 70.55l5.81-1.11 2.32-3.21 2.2 7.52 10.85 7.63-9.56-2.65-4.91-.66-9.56 4.53 3.49-4.53-.52-2.99-.12-4.53zm27.77-94.32l-6.85 1.55-2.32 6.97-3.49 1.11v12.5 9.95l8.14-18.8 16.4-5.2-4.52-3.87-5.04-2.32-2.32-1.89z" fill="#560c0d"/><radialGradient id="B" cx="-91.788" cy="657.817" r="1.801" gradientTransform="matrix(5.4883 0 0 -4.9239 730.2874 3441.7817)" gradientUnits="userSpaceOnUse"><stop offset="0" stop-color="#a82117"/><stop offset=".212" stop-color="#a72219"/><stop offset=".351" stop-color="#a5271e"/><stop offset=".468" stop-color="#a03026"/><stop offset=".574" stop-color="#9a3c30"/><stop offset=".672" stop-color="#90483b"/><stop offset=".764" stop-color="#835145"/><stop offset=".851" stop-color="#70554b"/><stop offset=".933" stop-color="#574d49"/><stop offset="1" stop-color="#383838"/></radialGradient><ellipse cx="226.57" cy="202.77" rx="13.56" ry="12.16" fill="url(#B)"/><g opacity=".451" fill="#2d2e2e"><path d="M230.71 206.31h-8.27 0v.66h0 8.27 0v-.66h0zm.38-2.1h-9.04v1.77h9.04v-1.77z"/><path d="M227.61 199.01h-2.2v5.2h2.2v-5.2z"/><path d="M226.57 197.02l-2.45 1.55.9 2.54h2.97l.9-2.54c.01 0-2.32-1.55-2.32-1.55zm0 7.19l1.03.88 1.03-.88-1.03-.88-1.03.88zm-1.16-.88l-1.03.88 1.03.88 1.16-.88-1.16-.88h0z"/></g><radialGradient id="C" cx="-100.935" cy="657.817" r="1.801" gradientTransform="matrix(5.4883 0 0 -4.9239 730.2874 3441.7817)" gradientUnits="userSpaceOnUse"><stop offset="0" stop-color="#a82117"/><stop offset=".212" stop-color="#a72219"/><stop offset=".351" stop-color="#a5271e"/><stop offset=".468" stop-color="#a03026"/><stop offset=".574" stop-color="#9a3c30"/><stop offset=".672" stop-color="#90483b"/><stop offset=".764" stop-color="#835145"/><stop offset=".851" stop-color="#70554b"/><stop offset=".933" stop-color="#574d49"/><stop offset="1" stop-color="#383838"/></radialGradient><ellipse cx="176.33" cy="202.77" rx="13.56" ry="12.16" fill="url(#C)"/><g opacity=".451" fill="#2d2e2e"><path d="M180.46 206.31h-8.27 0v.66h0 8.27 0v-.66h0zm.39-2.1h-9.04v1.77h9.04v-1.77z"/><path d="M177.49 199.01h-2.2v5.2h2.2v-5.2z"/><path d="M176.33 197.02l-2.45 1.55 1.03 2.54h2.97l.9-2.54-2.45-1.55zm0 7.19l1.03.88 1.03-.88-1.03-.88-1.03.88zm-1.04-.88l-1.03.88 1.03.88 1.03-.88-1.03-.88h0z"/></g><path d="M267.26 277.74v-8.18l-2.84 2.87h-5.04l.65 3.54-4.26 1.77h11.49z" fill="#560e0d"/><path d="M145.2 171.15l94.42-18.24-4.91-7.52-5.55-6.19-81.76 17.47-1.94 7.41-.26 7.07z" fill="#fff" class="e f h"/><path d="M146.23 160.2l1.16-3.54 6.07-1.11 8.27 12.5-4.26.77-11.24-8.62zm-1.03 6.3l.39-2.65 5.17 6.3-1.16.22-4.4-3.87zm18.86-7.18l4 7.41 4.13-.77-5.81-5.42-2.32-1.22zm3.23-6.75l9.82-2.21 4.52 12.05-14.34-9.84zm15.24-3.31l6.2 6.86-1.55-4.98-1.55-2.65-3.1.77zm8.78 12.93l1.68-14.93 4.91-1.22 3.23 14.26-9.82 1.89zm17.18-3.54l-4-6.08 10.85 5.2-6.85.88zm-1.29-14.7l12.27 9.95-8.14-11.06-4.13 1.11zm19.89 11.28l-9.56-10.73 13.69 9.95-4.13.78zm-4.26-14.49l12.92 12.94 2.84-.55L228 139.75"/><path d="M147.39 305.72l30.61-.55 22.22 26.65-52.83-26.1zm107.73 0l-30.61-.55-22.22 26.65 52.83-26.1z" fill="#fff" stroke-width="1.793" class="e f"/><path d="M160.96 308.15l-.77 3.76 3.88 2.32-3.11-6.08zm5.42-2.43l1.81 10.17 5.3 2.87-4.91-13.05h-2.2zm5.43 0l2.71 5.09 3.49 2.87-3.36-8.18-2.84.22zm8.39 3.1l4.65 4.98-2.71 8.85-2.33-1 .39-12.83zm6.59 7.51l1.29 7.52.52-5.86-1.81-1.66zm24.8 10.73l.52-7.3 3.75-4.2-2.2 10.39-2.07 1.11zm5.55-13.05l2.84-3.1.78 7.08-3.62-3.98zm5.82 7.3l1.16-12.5 1.94 4.09.9 6.86-4 1.55zm6.07-16.25l5.94 10.39 4.78-2.1-9.04-7.74-1.68-.55zm17.82 4.53l-4.78-2.43 6.85 1.33-2.07 1.1z"/><path d="M147.65 156.66l3.49-47.88 52.96-10.06 24.67 40.36-81.12 17.58zm-7.49 41.36L75.84 185.3l233.15-46.11-48.95 38.15-119.88 20.68z" fill="#6c2496" class="e f h"/><text><tspan font-size="30.38" x="108.098" y="412.011" class="i">“I think pimp,</tspan><tspan x="97.088" y="448.471" font-size="30.38" class="i">therefore I am”</tspan></text></svg>