<svg xmlns="http://www.w3.org/2000/svg" width="24" height="24" xmlns:v="https://vecta.io/nano"><style><![CDATA[.T{stroke:#000}.U{stroke-miterlimit:10}.V{stroke-width:.1}.W{fill:#560c0d}]]></style><path d="M0 0h24v24H0z"/><path d="M1 1h22v22H1z" fill="#e62a88"/><text transform="translate(21.497 22.879)" font-family="AcademyEngravedLetPlain" font-size=".239">HNFT PEPE</text><path d="M7.31 13.03h9.84v5H7.31z" fill="#444f18"/><path d="M10.09 17.65h3.85V23h-3.85z" fill="#444f19"/><g fill="#6c2496" class="T U V"><path d="M18.58 20.51V23H12l1.94-2.49z"/><path d="M5.44 20.51V23h6.58l-1.94-2.49z"/></g><path d="M8.26 9.96l7.73-2.48v5.58H8.26z" fill="#444f19"/><path d="M10.863 15.675h-.75v-.35h.75z"/><path d="M9.67 13.65h4.69v3.75H9.67z" fill="#7b0e04"/><path d="M9.84 14.47h4.35v2.21H9.84z"/><path d="M10.59 14.47h.63v1.11h-.63z" fill="#ab9625"/><path d="M12.14 15.58v1.1h-.63l.15-.95z" fill="#aa9627"/><path d="M11.81 15.68l-.15.05-.13.8z" class="W"/><path d="M13.59 14.47v1.11l-.59-.45-.04-.66z" fill="#d5c55f"/><path d="M13.65 15.33v.45h-.8v-.7z"/><path d="M13.27 15.53l-.05-.19-.12-.16-.06-.04.11-.23.17-.13.18.33.09.22-.03.08-.19-.09zm-7.13 6.38l.45-.1.18-.29.17.68.84.69-.74-.24-.38-.06-.74.41.27-.41-.04-.27z" class="W"/><path d="M7.11 12.8h1.15v1.45H7.11z" fill="#e62f87"/><path d="M8.29 13.38l-.53.14-.18.63-.27.1v1.13.9l.63-1.7 1.27-.47-.35-.35-.39-.21z" class="W"/><radialGradient id="A" cx="14.132" cy="9.497" r="1.801" gradientTransform="matrix(0.4249 0 0 0.4453 7.9918 7.0179)" gradientUnits="userSpaceOnUse"><stop offset="0" stop-color="#a82117"/><stop offset=".212" stop-color="#a72219"/><stop offset=".351" stop-color="#a5271e"/><stop offset=".468" stop-color="#a03026"/><stop offset=".574" stop-color="#9a3c30"/><stop offset=".672" stop-color="#90483b"/><stop offset=".764" stop-color="#835145"/><stop offset=".851" stop-color="#70554b"/><stop offset=".933" stop-color="#574d49"/><stop offset="1" stop-color="#383838"/></radialGradient><ellipse cx="14" cy="11.25" rx="1.05" ry="1.1" fill="url(#A)"/><g opacity=".451" fill="#2d2e2e"><path d="M14.32 11.57h-.64 0v.06h0 .64 0v-.06h0zm.03-.19h-.7v.16h.7v-.16z"/><path d="M14.08 10.91h-.17v.47h.17v-.47z"/><path d="M14 10.73l-.19.14.07.23h.23l.07-.23c0 0-.18-.14-.18-.14zm0 .65l.08.08.08-.08-.08-.08-.08.08zm-.09-.08l-.08.08.08.08.09-.08-.09-.08h0z"/></g><radialGradient id="B" cx="4.985" cy="9.497" r="1.801" gradientTransform="matrix(0.4249 0 0 0.4453 7.9918 7.0179)" gradientUnits="userSpaceOnUse"><stop offset="0" stop-color="#a82117"/><stop offset=".212" stop-color="#a72219"/><stop offset=".351" stop-color="#a5271e"/><stop offset=".468" stop-color="#a03026"/><stop offset=".574" stop-color="#9a3c30"/><stop offset=".672" stop-color="#90483b"/><stop offset=".764" stop-color="#835145"/><stop offset=".851" stop-color="#70554b"/><stop offset=".933" stop-color="#574d49"/><stop offset="1" stop-color="#383838"/></radialGradient><ellipse cx="10.11" cy="11.25" rx="1.05" ry="1.1" fill="url(#B)"/><g opacity=".451" fill="#2d2e2e"><path d="M10.43 11.57h-.64 0v.06h0 .64 0v-.06h0zm.03-.19h-.7v.16h.7v-.16z"/><path d="M10.2 10.91h-.17v.47h.17v-.47z"/><path d="M10.11 10.73l-.19.14.08.23h.23l.07-.23-.19-.14zm0 .65l.08.08.08-.08-.08-.08-.08.08zm-.08-.08l-.08.08.08.08.08-.08-.08-.08h0z"/></g><path d="M17.15 18.02v-.74l-.22.26h-.39l.05.32-.33.16z" fill="#560e0d"/><path d="M7.7 8.39l7.31-1.65-.38-.68-.43-.56-6.33 1.58-.15.67z" fill="#fff" class="T U V"/><path d="M7.78 7.4l.09-.32.47-.1.64 1.13-.33.07zm-.08.57l.03-.24.4.57-.09.02zm1.46-.65l.31.67.32-.07-.45-.49zm.25-.61l.76-.2.35 1.09zm1.18-.3l.48.62-.12-.45-.12-.24zm.68 1.17l.13-1.35.38-.11.25 1.29zm1.33-.32l-.31-.55.84.47zm-.1-1.33l.95.9-.63-1zm1.54 1.02l-.74-.97 1.06.9zm-.33-1.31l1 1.17.22-.05-.82-1.21"/><path d="M7.87 20.56l2.37-.05 1.72 2.41zm8.34 0l-2.37-.05-1.72 2.41z" fill="#fff" stroke-width=".15" class="T U"/><path d="M8.92 20.78l-.06.34.3.21zm.42-.22l.14.92.41.26-.38-1.18zm.42 0l.21.46.27.26-.26-.74zm.65.28l.36.45-.21.8-.18-.09zm.51.68l.1.68.04-.53zm1.92.97l.04-.66.29-.38-.17.94zm.43-1.18l.22-.28.06.64zm.45.66l.09-1.13.15.37.07.62zm.47-1.47l.46.94.37-.19-.7-.7zm1.38.41l-.37-.22.53.12z"/><path d="M7.89 7.08l.27-4.33 4.1-.91 1.91 3.65zm-.58 3.74L2.33 9.67 20.38 5.5l-3.79 3.45z" fill="#6c2496" class="T U V"/></svg>