<svg xmlns="http://www.w3.org/2000/svg" width="24" height="24" xmlns:v="https://vecta.io/nano"><path d="M0 0h24v24H0z"/><path d="M1 1h22v22H1z" fill="#9c9118"/><text transform="translate(21.497 22.879)" font-family="AcademyEngravedLetPlain" font-size=".239">HNFT PEPE</text><path d="M16.1 20.51h2.47V23H16.1zm-10.64 0h2.47V23H5.46z" fill="#0c5e30"/><path d="M7.11 13.03h9.84v5H7.11z" fill="#065e2e"/><path d="M10.09 17.59h3.85V23h-3.85z" fill="#0c5e30"/><path d="M8.04 7.91h7.95v5.15H8.04z" fill="#005e2b"/><path d="M12.66 9.92h2.8v2.38h-2.8z"/><path d="M15.32 10.87h.7v.47h-.7zM7.88 8.31l.24-.4 4.98 2.93-.26.42zm.18 1.95l-1.26.47 1.26-1.4zm0 1.31l-1.26.48 1.26-1.41zm7.93-2.24l1.27 1.4-1.27-.47z"/><path d="M15.99 10.64l1.27 1.41-1.27-.48zm-2.05 9.87h2.16V23h-2.16zm-6.01 0h2.16V23H7.93z"/><path d="M8.53 15.21l6.08-.22s.17.94 0 1.11c-1.04 1.09-6.08-.89-6.08-.89z" fill="#aa2311"/><path d="M13.72 11.9l.04.09.13.1h.24l.13-.06.06-.14-.19.1h-.22z" fill="#fff"/><path d="M13.92 11.94h.06v.19h-.06zm.15 0h.06v.19h-.06zm.11-.04h.06v.19h-.06zm-.39 0h.06v.19h-.06z"/><path d="M13.45 11.23s-.09-.36-.06-.49c.02-.09.15-.23.22-.28.09-.05.3-.14.41-.14s.34.09.43.16c.06.05.19.16.21.24.04.12-.06.52-.06.52l.07.12-.21.29-.13.03-.02.1-.17.1h-.28l-.17-.12-.02-.1-.15-.02-.21-.31.14-.1z" fill="#fff"/><path d="M13.9 11.66c0 .02.04.03.04.03.02 0 .06-.03.06-.03s.04.03.06.03.04-.02.06-.03c.02-.05-.09-.21-.09-.21s-.13.16-.13.21zm.02-.4c.02.02.02.07 0 .09-.02.03-.09.1-.15.12s-.17.03-.21 0c-.06-.05-.06-.23-.02-.28.04-.03.15-.03.21-.03.06.02.13.07.17.1zm.17.14c-.02-.02-.02-.07 0-.09.02-.03.09-.1.15-.12s.17-.03.21 0c.06.05.06.23.02.28-.04.03-.15.03-.21.03-.06-.01-.13-.06-.17-.1zM7.61 9.21c1.1.02 3.3-.4 4.41-.41s3.33.49 4.45.46c.68-.02 2.02-.3 2.63-.56.54-.22 1.52-.86 1.93-1.22.47-.41 1.69-1.38 1.45-1.89-.11-.23-1.17-.33-1.17-.33s-1.59.02-2.1-.07c-.4-.07-1.12-.42-1.51-.56-.31-.11-1.26-.33-1.26-.33l.25.64s-.79-1.12-1.18-1.41c-.36-.27-1.18-.66-1.63-.77-.47-.12-1.43-.28-1.91-.25-.62.02-1.88.23-2.46.46-.38.15-1.07.53-1.33.79S7.37 5 7.37 5l.11-.7-1.12.28c-.25.08-.71.29-.95.38-.12.05-.35.17-.48.2-.7.14-2.21-.04-2.91.12-.14.03-.46.15-.51.26-.09.34.41.98.69 1.25.39.36 1.21 1.05 1.69 1.34.42.24 1.34.69 1.82.83.45.12 1.41.24 1.9.25z"/><path d="M1.88 5.52c-.23.04.7-.21.95-.18.22.01.68.07.89.13.26.07.7.39.98.43s.86-.1 1.12-.18l2.52-.78c.53-.13 1.59-.34 2.13-.4.39-.05 1.2-.12 1.59-.11.61.01 1.83.13 2.43.25.59.12 1.71.47 2.27.64l1.97.54c.17.02.53.04.7-.01.22-.05.57-.37.8-.43.36-.08 1.9.08 1.49.08-.36 0-1.1-.02-1.46.02-.23.04-.58.36-.79.45a2.3 2.3 0 0 1-.78.07c-.53-.06-1.54-.37-2.05-.51l-2.22-.52-2.33-.31c-.39 0-1.18.08-1.55.14l-2.11.39-2.46.7c-.31.07-.96.2-1.27.14-.25-.04-.62-.27-.84-.37-.17-.08-.55-.23-.75-.23-.31 0-.71-.01-1.23.05z" fill="#fff"/><path d="M11.9 13.92s.75-.4 1.01-.39c.28.03.7.42.95.55.4.22 1.25.68 1.7.59a.96.96 0 0 0 .52-.4c.08-.17 0-.78 0-.78s.4.89.34 1.2c-.06.27-.44.76-.7.86-.46.19-1.5.2-1.96.09-.48-.13-1.76-.87-1.76-.87s-1.18.66-1.61.79c-.44.13-1.39.32-1.82.18-.29-.1-.87-.49-.96-.78-.12-.35.18-1.44.18-1.44s.06.68.2.86c.09.12.37.3.52.3.4 0 1.13-.4 1.48-.59.24-.13.72-.5.99-.52.24-.01.92.35.92.35zm-3.17-2.76l.58-.79 1.77.79-1.84-1.12zm.03.74l.56-1.4 2.09 1.15zM12 18.27l.68-1.36h-1.36z"/></svg>