<svg xmlns="http://www.w3.org/2000/svg" width="1000" height="1200" fill-rule="evenodd" image-rendering="optimizeQuality" shape-rendering="geometricPrecision">
	<path fill="#000000" d="M49 32h902v1136H49z"/>
	
	<g fill-rule="nonzero" stroke-miterlimit="3" stroke-width="2">
		<path fill="#b90101" stroke="#b90101" d="M926 1053h4v2h2v7h-75v32h-3v-2h-2v-36h74zm4 45h2v7h-75v32h-3v-2h-2v-36h74v-3h4zm0 43h2v7h-81v-2h-2v-4h77v-3h4zm-160-36v43h-6v-2h-2v-4h2v-43h75v-46h3v2h2v50zm65-43h-65v32h-4v-2h-2v-36h69v2h2zm-80-7h2v7h-75v32h-3v-2h-2v-36h74v-3h4zm0 43h2v7h-75v32h-3v-2h-2v-36h74v-3h4zm0 43h2v7h-81v-2h-2v-4h77v-3h4zm-160-36v43h-6v-2h-2v-4h2v-43h75v-46h3v2h2v50zm65-43h-65v32h-4v-2h-2v-36h69v2h2zm-78 10v59l-14 17h-66v-2h-3v-4h63l14-17v-60l-10-12 13 15-11-13zm-17-10h-57v75h-4v-2h-2v-79h58l2 2zm-73-7h3v7h-75v32h-4v-2h-2v-36h75v-3h3zm0 43h3v7h-75v32h-4v-2h-2v-36h75v-3h3zm0 43h3v7h-81v-2h-2v-4h77v-3h3zm-95-79h-71v-2h-2v-4h71v2h2zm8-7h2v34l-14 16h-50l-11 12v20h-3v-2h-2v-24l10-12h50l14-16v-30h4zm0 86h2v7h-81v-2h-2v-4h77v-3h4zm-160-36v43h-6v-2h-2v-4h2v-43h69v2h2v4zm72-50h2v93h-6v-2h-2v-4h3v-89h3zm-7 7h-65v32h-4v-2h-2v-36h69v2h2zm-153 82v4h-6v-2h-2v-4h3v-86h20l2 2 4 4h-21zm23-89 8 9zm50 0h2v93h-6v-2h-2v-4h2v-89h4zm-8 7h-17l-10 12v74h-6v-2h-3v-4h3v-74l11-12h20v2h2zm-153 43v43h-6v-2h-2v-4h2v-43h69v2h2v4zm73-50h2v93h-6v-2h-2v-4h2v-89h4zm-8 7H69v32h-3v-2h-3v-36h69v2h2zm44-9 8 9z"/>
		<g fill="#ffffff" stroke="#488000">
			<path d="M930 1068h2v7h-62v5h-4v-2h-2v-8h62v-4h4zm0 14h2v7h-68v-2h-2v-3h64v-4h4zm0 29h2v7h-62v5h-4v-3h-2v-7h62v-4h4zm0 14h2v7h-68v-2h-2v-3h64v-4h4zm-108-50h-40v5h-3v-2h-2v-8h43v2h2zm-46 14v-2h-2v-3h52v-18h4v2h2v21zm66 50h2v7h-43v-2h-2v-2h40v-5h3zm0-14h2v7h-49v14h-6v-2h-2v-2h2v-15h50v-4h3zm0-14h2v7h-62v28h-6v-2h-2v-2h3v-29h62v-4h3zm-87-43h2v7h-62v5h-4v-2h-2v-8h62v-4h4zm0 14h2v7h-68v-2h-2v-3h64v-4h4zm0 29h2v7h-62v5h-4v-3h-2v-7h62v-4h4zm0 14h2v7h-68v-2h-2v-3h64v-4h4z"/>
			<use href="#B"/>
			<path d="M601 1089v-2h-2v-3h52v-18h4v2h2v21zm66 50h2v7h-43v-2h-2v-2h40v-5h3zm0-14h2v7h-49v14h-7v-2h-2v-2h3v-15h50v-4h3zm0-14h2v7h-62v28h-6v-2h-2v-2h2v-29h63v-4h3zm-153 21v-2h-2v-3h44l8-9v-46l-6-6h2l2 2 8 9v46l-8 9zm44-57h-38v48h-4v-3h-2v-50h40l1 2h1zm-32 43v-2h-2v-3h23l4-5 1-2v-21l-1-3-2-2h1l2 2 4 5 1 2v22l-1 2-4 5zm22-29h-16v19h-3v-2h-2v-22h17l2 2v1zm-3 8v7h-6v-3h-2v-2h2v-4h4v2zm-53-29h3v7h-63v5h-3v-2h-2v-8h62v-4h3zm0 14h3v7h-69v-2h-2v-3h65v-4h3zm0 29h3v7h-63v5h-3v-3h-2v-7h62v-4h3zm0 14h3v7h-69v-2h-2v-3h65v-4h3zm-87-24 2-2v10l-7 8-2 1h-49l-4 5h-4v-3h-2v-2l5-5h48l2-1 7-8v-3l4-4zm0 24h2v7h-68v-2h-2v-3h64v-4h4zm-13-57h3v12l-8 9h-50l-11 12v-4l-2 2v-7l7-8h50l8-9v-9h3zm-7 7h-59v-2h-2v-3h59v2h2z"/>
			<use href="#C"/>
			<path d="M292 1125h3v21h-6v-2h-3v-2h3v-19h3zm-22 7v14h-6v-2h-2v-2h2v-15h19v2h2v3zm27-14h-40v28h-6v-2h-2v-2h3v-29h43v2h2z"/>
			<use href="#D"/>
			<use x="-350" href="#B"/>
			<path d="M307 1068v21h-56v-2h-2v-3h52v-18h4v2zm-97 9-3 3v66h-6v-2h-2v-2h2v-67l5-5h2v2h2zm9-9v78h-6v-2h-2v-2h3v-76h3v2zm-45 0 8 9v69h-6v-2h-2v-2h2v-70l-5-6h1zm-4 7v71h-6v-2h-2v-2h2v-72h2l2 2z"/>
			<use x="-176" href="#C"/>
			<path d="M117 1125h2v21h-6v-2h-2v-2h2v-19h4zm-23 7v14h-6v-2h-2v-2h2v-15h19v2h2v3zm28-14H82v28h-6v-2h-2v-2h2v-29h44v2h2z"/>
			<use x="-176" href="#D"/>
			<path d="M122 1075H82v5h-4v-2h-2v-8h44v2h2zm7-9v2h2v21H76v-2h-2v-3h52v-18zm610-391 2 1zM258 962l14 7v-1zm2-18 29 13-30-15zm-14-61-25-20-1-1zm425-183h1l26 19zm-79-584-6-5zm265 65zM569 634zm29 2 2 2 23 7v-1zm2 43zM497 368l20 13 1-1-18-10zm24 443 2 2 7 3v-2zm-57 13 15 10 26 14 1-1a197 197 0 0 1-42-23zm13-450 2 2 3 2 1 1-4-4zm-124 68 1 1 4 2 23 13 1-1-27-14zm213 197 9 7v-1zM352 880v-1zm-31-13 5 3zm140-20 5 4zm75 46v1l6 3v-2zm-185 108v1l3 1v-1zm28 7-1 1 17 8h2zm-50 16 1-1zm3-571 2 1 26 12v-1zm477-8-1 1v2l2-1zM634 280l-7-5zm181-18-3-2-6-5 2 2 4 3zm-303 68-5-3zm359 234v-2h-2v-2h-4v2h3v2zm11-10v2h13v-2h-3v-2h-12v2zm22 10v-14h-2v-2h-4v14h3v2zm-13-27v2h21v-2h-2v-2h-21v2zm-20 63v-9h16v-18h35v-40h-2v-2h-4v38h-34v18h-17v11h3v2zm30 357v-9h21V581h-2v-2h-3v365h-22v11h3v2zm-59 17v-8h80v-6h-2v-2h-3v4h-80v10h2v2zm56 44v-15h24v-26h-2v-2h-3v23h-25v18h2v2zm-46 7v3h70v-7h-2v-2h-3v4h-67v2zm-16-44v3h77v-3h-2v-2h-77v2zm37-56 3 2h37v-3h-2v-2h-40zm16-10 1 2 6-1-2-9 19 1v-2l-2-1v-2h-22l1 8-3 1 1 3zM741 677l1 1h1zm23-37v2h26v-16h24v-2h-2v-2h-28v16h-22v2zm54-33v2h61v-2h-2v-2h-61v2zm45-36v2h15v-2h-2v-2h-15v2zm24 309 7-8h2v-3h-2v-2h-5l-8 8 2 5h1l1 2h3zm-38-135v2h54v-19h10v-3h-2v-2h-14v19h-50v3zm0-36v2h6v-18h6v-2h-2v-2h-9v17h-3v3zm-17 65-18-24 10-10v-29h16v-36h6v-2h-2v-2h-10v35h-15v29l-11 10 21 28 2 2zm7-19v-32h-2v-2h-3v32h2v2zm44 113-5-13h27v-98h-2v-2h-3v95h-28l7 18 1-1 1 3zm-19-69q-14-24-24-35h56v-3h-2v-2h-59q11 13 27 42v-2l2 4zm-9-21v3h9v-3h-2v-2h-9v2zm18 3h14v-7h-2v-2h-3v4h-14v33h2v2h3zm15 65v-10h8v-2h-2v-2h-11v12h2v2zm-14 0-5-10h10v-2h-2v-2h-13l6 12h1l1 2zm-50-153v-18h6v-2h-2v-2h-9v17h-18v12h2v2h3v-9zm15-67h7v-2h-2v-2h-10v35h-15v7h2v2h3v-5h15zm-33 105v-20h9v-3h-2v-2h-12v20l-5 3 8 11h1l1 2 1-1-5-7zm82-1v-17h17v-36h8v-3h-2v-2h-11v36h-17v17h-33v11h2v2h3v-8zm0-53h8v-3h-2v-2h-11v29h2v2h3zm0-10v-7h16v-18h9v-2h-2v-2h-13v18h-15v9h2v2zm-17 17v-42h24v-2h-3v-2h-27v44h3v2zm0 37v-28h8v-2h-2v-2h-12v30h3v2zm33-88v-45h9v-3h-2v-2h-13v48h3v2zm-65-42h22v-2h-2v-2h-25v11h2v2h3zm49 35v-17h7v-2h-3v-2h-9v17h-33v60h2v2h3v-58zm-82 16h17v-16h7v-2h-3v-2h-9v16h-17v34h-32v14l-4 5 10 12 2 2 1-1-8-9 5-5v-13h31zm-17 25v-8h8v-3h-2v-2h-11v11h2v2zm-36 11 5-5v-14h22v-3h-2v-2h-26v14l-5 5 2 2 8 8 4 3 2 2-2-3zm31 35 5-6v-14h8v-3h-2v-2h-11v14l-5 6 13 16 2 3 1-1zm82 105 1 2h21v-19h8v-3h-2v-2h-11v19h-19v1l1 2zm-28-35 4-4-2-3-2-2-6 4 28 47h1l2 2h2zm54 115-2-7h15v-19h8v-3h-2v-2h-11v19h-15l2 10h2v2zm-42 39q-11-45-29-87l6-4-2-3h-1l-1-2-7 4q18 43 29 90h1l1 2zm-109-68v2h6l-1-29 7-2v-3h-2v-2l-10 2v29h-2v3zm-11 19-2-87 8-3v-3h-2v-2l-11 3 1 91h2v3zm-570 96h25v-3h-2v-2h-28v36h2v2h3zm99 23q0 3 2 3h30v-3h-2v-2h-33zm-10 10v-35l6 2v-1l-8-3 6 2v-2l-9-3v38h2v2zm0-43v-58l8 5v-1l-10-5v-1l8 5v-1l-11-6v59h2v2zm12-10-1 1 14 6v-1zm16 26h-1l-14-5zm-13 10v-13l15 5q4 1 4-3v-19l-1-3h-1l-2-2-1-1v20q0 4-4 4l-15-5v15h2v2zm-2-54 29 14v-1l-30-15zm-49 71v-55q0-3-3-3 0-3-3-3v59h2v2zm-21-70v2h29v-2h-2v-2h-29v2zm39 70v-71q0-3-3-3 0-2-3-2v74h2v2zm-43-90q0 2 3 2l38 1q3 0 3-3v-20l8 4-10-6 8 4v-1l-11-6v20q-1 4-3 3l-38-1q0 3 2 3zm-10-60 10 6-12-8 10 6-14-9v92h2v2h4zm-80 56v-10h70v-2h-2v-2H92v12h2v2zm62 52v-46l-2-4-3-2v50h2v2zm17 42v-13h15q2 0 3-4v-20q0-2-3-3l-2-2h-1v21q0 3-3 3h-14v16h2v2zm-2-52h28v-2h-2v-2h-31l2 2q0 2 3 2zm640 53-10-47 9-2v-3h-2v-2l-12 3 10 49h1l1 2zm-24-46zm2 3 4-1-1-4-1 1-1-3-6 2v-1l-1 18 9 48h2v2h3l-9-45 1-18zm-76 62-12-70 52-16 2-3 1-41 34-18-2-3h-1l-1-2q-17 11-35 18l-2 41q0 3-2 3l-51 16 12 73h-1 2l1 2h-1zm31-18-5-24 22-6-2-7-1 1-1-3-2 1 1 3-22 7 5 27 1-1 1 3zm3 18-2-8 14-2q3-1 3-4l-3-18-2 1v-3l-3 1 2 14q1 3-2 4l-14 2 2 11h1l1 2zm24-15v3l6-1-1-19 6-2-1-3h-2v-2l-8 3 1 18-3 1v2zm29-116q1 3 4 2l8-4v-3h-2l-1-2-11 4v1zm-279 111 3-31-2-3h-1l-2-2-1-1v2l-3 33h2v2zm34-27 2 2q53 9 105 3l-1-3h-2v-2a385 385 0 0 1-104 0zm-37-44q-33-9-62-25 29 16 62 25zm-60-23q46 24 96 33l1-2h-3v-2q-53-9-100-33l-26 80h3l-1 2 4 1zm2 114v-11h-2v-3h-3v12h2v2zm114-62v2a650 650 0 0 0 101-3v-3l-2 1v-3a649 649 0 0 1-101 3v3zm121 62-12-67q0-3-2-3l-3-2 12 70h2v2zm-48-80v2q46-5 90-22l2-3 1-20 7-3v-4l-2 1v-3l-11 4v20l-2 3q-42 17-87 22v3zm156-60-8-15-2-2-3-2 9 18h1l1 2zm2 49v2l21-1 3-4q-4-35-17-67h-1l-2-2-1 1q12 30 15 63 0 4-3 4l-18 1 1 3zm-16 18 1-31 27-9-1-4-1 1-1-3-29 10-1 35h2v2zm36 31-7-31q0-3-2-3l-3-2 7 34h1l1 2zm34 8v-2q1-3-2-4 0-2-3-2v6h2v2zm-5 7 2 2h17q3-1 3-3v-11h-2v-2h-3v8q-1 3-3 3h-17zm-25 8-3-14h24v-3h-2v-2h-27l3 17h2v2zm-15 19-1-9h24v-7h-2v-2h-3v4h-25l2 12h2l1 2zm-752 7v2h869V517h-2v-2h-3v527H64v2zm3-480h3v-16h-2v-2h-3v16h2zm3 113v-30a650 650 0 0 1 106-104q0-63 13-124l-3-1 1-1-4-1a692 692 0 0 0-14 125q-57 45-104 102v32h2v2zm25 191V710h16q2 0 3-3v-20q0-3-3-4l-2-2h-1v22q0 2-3 3H92v160h2v2zm10-12 1 2h26v-2l-1-1h-1v-1l-1-1-26 1 1 1zm6-7v-13h14v-7h-2v-2h-4v4h-13v16h2v2zm48 37q-2-36 8-72l-2-4h-1l-1-2-2-1v3q-9 36-7 74h2v2zm35 14 2-26-2-4-2-2-2-1v2l-2 28 3 1-1 1zm52-15-26-21zm-3 5 31 22 3-6-2-1v-1l-3-2-3 5 2 2v1zm-49 17-3-1zm-2 13 1-12q6 3 13 3 2 0 3-3 2-18 11-35l-2-2-3-3q-9 17-11 36-1 3-4 2l-12-2-1 14h2v2zm73 20v-20l-2-3h-1l-1-2-2-1v22l2 1v1zm52 6v1l-13-9zm-198 78v2h177q2 0 3-3v-65l7-18 14 9 3-6-2-1v-1l-3-2-3 6-14-10-8 18v65q0 3-3 3H119v3zm-39 1v2h11q3 0 3-3v-22h37v-3h-2v-2H91v23l-3 3h-8v2zm61-8v-18l-2-4-3-2h-1v22h2v2zm-45-61v-24h53v-3h-2v-2H92v27h2v2zm13-9v2h4v-3h-2v-2h-4v3zm-19 16q0 2 3 2h23q7-1 7-7v-13l-3-3-2-2h-1v14q-1 6-6 7H90zm-7-70v2h83v-2h-2v-2H82v2zm6-18 3 2h46q2 0 3-3 1-33 7-65l9 4-11-6v-1l9 5-12-7q-7 32-8 65 0 3-3 3H89zm-19 99V686l34 3v-2h-2v-2l-37-3v290h2v2zm0 63v-53h41v-7h-2v-2h-4v4H67v56h2v2zm407-147 1 1q18 11 39 15 2 1 3-2l7-27c58 15 119 11 175-10v-4l-2 1v-3c-57 22-120 26-178 12l-7 26q-1 3-4 3a117 117 0 0 1-35-13zm7-4 3-9 7-17-3-1 1-1-4-2-6 16-4 10 2 1v1zm124-10v-29h-2v-2h-3v29h2v3zm63-174h1l26 19zm-109 73 2 2 3 1a648 648 0 0 0 88-56l18-99 7 1 1-2h-3l1-2-11-1-19 99-1 2a648 648 0 0 1-88 53l1 2zm2-7-17-18-2-2-1 1 17 17 2 2zm113-70 14-76q0-3-3-4l-2-2h-1v1l-14 76 3 2v1zm32 77-1-53-2-3-1-1-1-1-3-2 1 2 2 57h2v2zm-48-196 2 2q23 6 47 9v-2h-2v-2q-24-3-49-9zm45 115-7-6zm69 156q1 3 4 2l37-24q2-2 1-5-33-55-78-99l-40-36q3-51 21-97l24-1 15-19v-4l-2-2-3-2-1 3-14 19-3 2-21-1q-20 47-21 98l2 2a491 491 0 0 1 115 132q2 3-1 5l-36 24-1 1zm3-10q-7-23-18-44l11-9-3-6-1 1-1-3-2 1 2 2-12 9q12 24 20 48h1l1 3zm16-10q-7-18-18-35h-1l-1-2-2 1q11 17 18 35l1-1 1 3zm-50 2-1-94-4-4-2-2 2 99 2-1v3zm19 39-3-36q0-3-3-3 0-2-3-2l4 41 2-1v3zm80 73q0 3 3 2h16q2 0 3-3a288 288 0 0 0-37-105v-1l-3-2q27 48 34 103 0 4-3 4h-15zm-201-13-1-10c42 0 107-26 171-66l-1-4-1 1-1-3c-65 41-131 67-173 67l1 13h1l1 2zm-6 7 3 3q45-3 87-21l-2-6-1 1-1-3-2 1 1 3q-42 18-87 20zm-11 14-2-47q46 0 87-18l2-4-3-98 15-3 2-3-1-59-2-2v-1l-4-3 2 60q0 3-3 4l-14 3 2 98q0 2-2 3-41 19-87 18l2 50h2v2zm-62 32 3-26a331 331 0 0 0 72 2v-6h-2v-3l-4 1v4a329 329 0 0 1-72-3l-2 29h2v2zm-76 40q0 3 2 2h186q2 0 3-4l-6-32-2-3-4-2v1l6 32q0 4-3 4H486zm7-7 2-11h6v-7h-2v-2h-3l-1 4h-6l-2 14h2v2zm-91-15-18-5q-37-16-73-38v-1a440 440 0 0 0 91 44zm-89-42q37 23 75 39 44 17 81 11l3-2 8-33 35 12v-1l-37-13 35 12v-1l-39-14-8 33q0 2-2 3-38 4-82-11-38-16-74-39v79h2v2h3zm428-295h3v-15q0-6 5-11 19-24 45-43v-5l-2 2v-4q-28 20-49 45-4 5-4 12l-1 15v2h2-2v5l1 1h1v2l1 1 2-3 1-4zm108-104 2 2-8 4-3 2q-14 6-24 13l-15 9v-2l2-1v29h-3v-2h-2l-1-27 4-2v1l-2 1v1l-2 1v-5l37-21 4-2 8-4 2 2zm29-35-1-3 1 1zM188 372v-14h5l1-2h-3l1-3h-10v26l2-6v8zm-2-123v-9h8v-2h-2v-2h-11v11h2v2zm-15 67v-25h38v-2h-2v-2h-41v27h2v2zM155 81v-6h39v-2h-2v-2h-42v8h2v2zm33 15V83h-2v-2h-4v13h2v2zm-17 17v-11h-2v-2h-3v11h2v2zm-35 34v-40h19V90h23v-2h-2v-3h-26v18h-20v42h2v2zm-49 86V105h16V88h9v-2h-3v-2H98v16H82v131h2v2zm16 99v-55h25v-3h-2v-2H98v58h2v2zM87 585v-30h32l4-3h-5l3-2H82v37l2-3v5zm33-58v-26h32l1-3h-3l1-2h-37v29h3v2zm17 0v-14h-2v-2h-3v14h2v2zm-33 19v-62h33v-19h21l1-2h-3l1-2h-25v18H99v65h2v2zm-17-71v-10h41v-2h-2v-2H82v12h2v2zm34-72v-8h33v-54h8v-2h-2v-3h-11v55h-34v10h2v2zm10-27v2h14v-2h-3v-2h-13v2zm-34-37v2h24v-48h7v-2h-2v-2h-11v47H95v3zm-10 10v-56h7v-2h-2v-2H82v58h2v2zm16 54v-27h18v-25h-2v-2h-3v23H98v29h2v2zm79-250v2h6v-22h-2v-2h-4v19h-2v3zm-11 10v-24h7v-2h-2v-2h-10v26h2v2zm-41-9v2h25v-34h33v-17h15V90h17V75h22v-2h-2v-2h-25v14h-17v15h-16v17h-32v34h-22v3zM87 96V75h59v-2h-2v-2H82v23h2v2zm16 137V122h18V88h18v-6h-2v-2h-4v4h-17v33H98v114h2v2zm-16 35v-26h35v-6h-2v-2h-3v4H82v28h2v2zm28-46v2h13v-3h-2v-2h-13v3zm0-35v2h13v-2h-2v-2h-13v2zm6-24v-30h-2v-2h-3v30h2v2zm-18 105v-8h35v-36h16v-58h-2v-2h-3v55h-17v37H98v10h2v2zm34 16v-14h-2v-2h-3v14h2v2zm-16-69v-8h17v-24h-2v-3h-4v23h-16v10h2v2zm0-35v-8h24v-2h-3v-2h-26v10h2v2zm67 27h24v-3h-2v-2h-28v11h2v2h4zm47 42v-9h25v-2h-2v-2h-28v11h2v2zm17 15v-12h-2v-2h-4v16l3-3v5zM146 609l-5-7q12-13 25-24l-2-4v1l-2-3-27 26 8 10h1l1 2zm0 10 1 1h4l14-19-2-2-5-5v1l2 1-14 19-3 1 2 2zm-47 43q15-30 37-54l-3-4v1l-2-3q-23 26-39 57h3l-1 2zm34 59v-49l-2-4-2-2h-1v53l2-1v3zm-6-74 8-15 26 14v-1l-28-15 26 14v-1l-29-15-9 15 3 1-1 2zm17 62 1 2 6-1a281 281 0 0 1-1-54l-2-3-3-2-1-1v2a280 280 0 0 0 1 54h-3l1 3zm-25-58 2 2 19 5v-2h-2v-2l-21-5 2 2 6 2zM555 57v2h6v-3h34v-2h-2v-2h-37v3h-3v2zM425 79V56h127v-2h-2v-2H419v26l2-1v3zm136-3v-9h-2v-2h-3v7l2 1v2zm15 7v-9h14v-7h-2v-2h-3v4h-14v10l2 1v1zm194 13v1l-2-2-3-3-3-3 2 2-1-1-3-3zm15-11v2h6V56h7v-2h-2v-2h-11v31h-2v2zm-29 0 10-12h8V56h7v-2h-2v-2h-10v16h-8l-11 13 3 1-1 1zm23 18v2l-1-2zm1 2h18v-2h-2v-2h-19v2l-1-2-2-2h-1l5-7-2-1v-1l-5-4 1 2-4 6 2 2 1 1-1-1-2-2 5 5 1 1 1 1q13 14 21 32v-3l2 5v-4q-8-14-18-26zm88 84 3-2v-82h24v-2h-2v-2h-28v81l-3 3 2 2 12 12 2 2v-1l-5-5zm3-93v-9h40v-2h-2v-2h-44v11h2v2zm17 101v-76h17V99h-2v-2h-4v19h-17v79h2v2zm6 23-9-12 3-2h15v-37h-2v-3h-3v36h-16l-2 2 12 17v-1l2 3zm-9 102h19v-28h-3v-2h-3v25l-13 1zM306 198v1l6 2q18-47 38-75l1-1v-19h18V90h12V75h15v-7h-3v-2h-3v5h-14v14h-12v17h-19v19q-21 28-39 76l-2-1v1l4 2zm-3 13v-56h18l1-2h-3l1-2h-22v57l2 1v1zm2 8-4-2zm-59 59 3 3q2 1 4-2c11-16 49-49 49-49l1-1v-10l5 2 2-6-3-1 1-1-4-2-1 6-5-2v9l-1 1c-1 0-39 34-49 49q-2 3-4 2zM97 446v2h6v-36h68v-16h19l1-2c0-1 6-22 16-43l1-2 27-44h-3 3v-47h7v-2h-2v-2h-10v47h-3 3l-1 2h3-3l-26 41-1 3c-10 20-16 42-16 42l-1 2h-19v16H98v36h-3v3zm-10 10v-98h25v-2h-3v-3H82v101h2v2zm43-10v2h33l10-24h-3l1-2h-5l-8 21h-30v3zm-9 10v-25h38l1-3h-3l1-2h-42v28h2v2zm33 35v-7h9l7-25h-3l1-2h-4l-6 22h-9v10h2v2zm-34 55v-10h40l2-42h-2v-2h-3l-3 39h-40v13h3v2zm-39 55 3 3 3-2c21-27 41-41 51-48l2-3-3-3-2-2h-1q1 3-1 4a203 203 0 0 0-54 49zm-10-30v2h7v-3h-2v-2h-7v3-1h1v-2h-3v65l2-3v5l3-4v-60zm6-42v2h18v-2h-2v-3H75v3zm4-18v2h6v-29h8v-3h-2v-2H82v29h-3v3zm0-236v2h13v-3h-2v-2H79v3zM203 80V68h-2v-2h-3v12h2v2zm2 50v-9h15v-16h17V89h15V75h16v-7h-2v-2h-4v5h-16v13h-14v16h-18v16h-14v12h2v2zm-34 85v-43h34v-33h32v-22h-2v-2h-3v20h-32v33h-34v45h2v2zm17-17v-9h33v-33h16v-7h-2v-2h-3v4h-16v34h-34v11h2v2zm33 17v-8h16v-38h-2v-2h-3v35h-16v11h2v2zm33-34v-48h-2v-2h-4v48h3v2zm0 34v-24h15v-74h-2v-2h-3v71h-16v27h3v2zm82-87v-26h-2v-2h-3v31l2-3v5zm9-55h-1zm8 3v-1h19v-2h-2v-2h-43v2h2v3h6v-1h12v1zm-84 170v-12h-2v-3h-3v16l2-2v4zm16-15v-15h-2v-2h-3v18l2-2v4zM137 369v-76h17v-51h17v-18h98v-17h19v-68h41l2-2h-4l1-2h-46v67h-18v17h-98v19h-18v51h-16v78h2v2zm34-87v-28h-2v-2h-3v28h2v2zm15 0v-24h17v-18h11v-6h-2v-3h-4v5h-10v18h-17v26h2v2zm17 0v-11h-2v-2h-3v11h2v2zm-38 41v2h23v-16h31v-55h-2v-2h-4v52h-31v17h-19v2zm-11 9v-23h8v-3h-2v-2h-11v26h2v2zm17 55v-46h14v-7h-2v-2h-4v4h-13v49h2v2zm630-225v2h5q20 5 38 16v1l1-1 6 5-10-7-1-1 2 1 7 5-10-7-1-1q-18-11-38-16h-1v3zm-191-30-2-2-6-5c31-33 71-51 108-48q26 2 48 18l-2-2a98 98 0 0 0-51-21c-37-3-78 15-109 48l3 2 6 6 2 3 2 2zm185 42a100 100 0 0 0-33-62q23 25 27 59h2v2zm74 80-3-1zm-182-26q2 3 4 2 43-22 97-10 37 8 81 35 6 4 11-1t3-12a95 95 0 0 0-32-43l-5-4 1 2 5 3-4-3 1 2 7 6q15 14 21 33 3 7-2 12-6 4-11 1-44-27-81-36c-35-8-70-4-97 10h-1v1zm143-14q-15-8-32-13zm-140 5-2-6c46-22 101-21 145 4l3-6-3-2h1l-4-2-2 5c-45-25-100-26-145-3l3 9 1-1 1 3zm99-40 2 2q32 7 53 22l-2-2q-21-16-55-24zm-142 7q-12-25-30-46 25-32 61-42c25-6 52-2 72 13h1l-4-3h1l1 1-4-3a89 89 0 0 0-73-12q-35 9-61 41 20 23 32 50l1-1 1 3zm8-21-12-26q22-20 48-24a73 73 0 0 1 50 10q-9-6-21-10l19 8a73 73 0 0 0-53-12q-26 5-49 23l14 29h1l1 2zm-3 8 4 2q46-18 95-12 5 0 3-4l-10-19h-1l-1-3-2 1 9 16q1 4-3 5a199 199 0 0 0-96 11v1zm-8 22q1 2 4 2 61-24 127-17 3 0 3-3-2-29-23-48l-10-9-1-1 8 7q18 19 21 46 0 4-4 4a273 273 0 0 0-128 16l1 1zM212 560q-5-101 21-174c20-60 58-108 103-132q2 0 2-3c4-51 29-100 68-129a150 150 0 0 1 178-3q-21-16-47-24l-1-1 3 1q23 7 43 22-21-17-47-24c-45-14-95-5-134 24-39 30-65 78-69 130l-1 3c-45 24-83 72-104 131q-26 74-20 176h2v2zm-6 5 2 2 14 5q4 0 4-3v-8h-2v-2h-3l-1 5q-1 4-4 3l-12-4 2 2 13 4h-1zm388-447-6-4zm10-34V56h161v-2h-2v-2H599v32l2-1v3zm-10 16h-2zM110 728l1 2 53-1q3 0 3-3a405 405 0 0 1 15-140l-10-13q10-9 22-15l1-3q-2-98 25-174a284 284 0 0 1 102-141c9-64 48-122 101-149h2v-1l2-1c53-26 119-21 169 13h3c15-14 42-30 42-31l-3-5-2-3-1 1 1 3s-28 16-42 30l-4 1c-49-34-115-40-169-14l-2 1v1h-1c-53 28-92 86-101 149l-1 2c-44 31-80 80-101 139a474 474 0 0 0-27 177l-21 15 10 14 1 3q-20 67-16 136-1 4-3 4l-51 1v2zm-20-60q0 2 3 2l31 4v-2h-2v-2zm211-557V56h114v-2h-2v-2H296v57h2v2zm-6 7v2h25V90h33v-7h-2v-2h-3v4h-33v31h-22v2zm-13 3v2h6V56h4v-2h-3v-2h-7v66h-2v3zM66 511v2h6V56h206v-2h-2v-2H67v456h-3v3zm741-399V56h119v-2h-2v-2H802v58h2v2zm9-10v2h15v-3h-2v-2h-15v3zm19-15v3h21V72h52v-7h-2v-2h-4v4h-51v18h-18v2zm-13 8V72h25v-3h-2v-2h-28v25h2v3zm18 35V97h-2v-2h-3v33h2v2zm-6 24v2h6v-17h16V99h-2v-2h-3v38h-16v16h-3v3zm-27 2v-34h24v-3h-2v-2h-27v36h2v2zm17 6v-29h-2v-2h-4v27l3 1v1zm25 14 7-7v-19h-2v-2h-3v16l-7 7 2 2zm10 7zm38 262v2h23V81h-2v-2h-3v364h-20v2zm6-7V334h-2v-2h-4v104h2v2zm4-182v2h4v-3h-2v-2h-4v3zm-52 106c9-12 16-20 23-33l4-8v32h-3v3h2v2h6v-38h-5l4-7 10-27c4-12 9-26 6-53l2-1v-9h7v-2h-2v-2h-11v8l-1 2c3 27-2 40-6 52l-1 3c-12 34-21 49-42 76h4l-2 2zm29 23v-20h-2v-2h-3v20h2v2zm-5 12v2h5v-4l9 1v-5h-15v4h-2l1 2zm14 62c-3-25-16-62-37-87h18v-2h-2v-2l-21-1c21 27 34 65 37 89h2v3zm4-301h6v-25h-2v-2h-3v23h-3v2h2zm-649-40v2h6v-15h15V85h-2v-2h-3v17h-16v16h-2v2zm428 13 1 3q19-4 37 0h4v-1l-6-1h4v-1q-21-6-42-2v3zm-15 19 1 3q30-13 62-9l3-1 1-3-1-7-2-3-2-2h-1v7l-1 3-2 1q-31-3-61 8l2 4zm-80-16zM355 282c-5-36 4-74 24-104q35-51 95-63 57-10 110 22l3-6-3-2h1l-4-2-2 5q-54-32-111-22a151 151 0 0 0-118 170h2v2zm-5 7 3 2h14v-7h-2v-2h-4v4l-13 1zm270-104 1 3 6-4q-7-12-18-23l-13-12 5 5 5 4q9 10 15 22l-4 2 2 3zm-244 55c4-36 28-71 61-90q50-27 113-12a133 133 0 0 1 44 19l-6-5 1 1 3 2-6-5q-17-10-41-17-65-14-113 12c-35 20-58 56-62 94l3-1v3zm-6 8 1 2 2 1 20-4q2 0 2-3 3-39 34-65c24-19 52-24 71-25 27-1 53 6 75 12l1-7-2-1v-1l-3-1-1 5q-35-11-76-11c-19 0-47 5-70 24a91 91 0 0 0-34 66q0 2-3 3l-19 3v2zm65-28 3 3q19-23 46-35l-2-6-1 1-1-3-2 1 1 3q-27 11-46 34zm172 413q7-44 6-89h-2v-2h-3q0 44-7 88l2 1v1zm0 27q-11-3-23-9 11 6 23 9zm-54 17 1 2h4l29-26q19 10 40 13l3-2 5-17q1-2-2-4l-2-2h-1v2l-5 16q-1 3-4 2-21-3-40-12l-28 25-2 1 1 2zm18-41-4-4h-1zm29 2 2 2 23 7v-1zm-161 50-18-37-1-2h-1q0-2-3-2l19 40 1-1 1 3zm3-17 2 3 5-3-35-71 8-4-2-3v1l-2-3-9 5 35 70-4 2 2 4zm24-48-27-41-1-1-1-1-2-2 28 44 2 2zm-2 10h1q2 3 4 1l16-13q3-2 1-5l-36-47h-1l-1-2h-1l33 45v5l-16 13h-2l1 1zm-3 16-32-56 6-4-2-3h-1l-1-2-7 4 35 62-1-2 3 4-1-2zm120-17v2h7q2 0 3-3l4-25-2-4-3-2h-1v1l-4 26q0 2-3 3l-3-1v3zm-77 57-4-6q41-32 64-80l21 4v-2h-2v-2l-24-5v1q-23 48-64 79l5 10h1l1 2zm48 4-19-21-1-2-2-1 20 22zm53-17-7-6 5 4-11-10-2-1 3 2h-1zm6 42-13-19 15-14q2-2-1-5h-1l-1-2-3-2v5q-6 8-15 14 7 11 16 21h1zm9-93v2l6 1 1-6 20 1v-2h-2v-2l-24-2v6h-3v2zm7-12 3-41 18 2 3-3 1-19h-2v-2h-3l-2 16q0 3-3 3l-17-2-3 44h2v2zm-17 113 2 1 3 1 15-11v-5l-5-6 11-14q21-32 20-72 0-3-2-3 0-2-3-2a122 122 0 0 1-31 86l5 6q2 3-1 5l-14 11-2 1 1 1zm-8-45zm-51 20 2 1q2 3 4 1l35-30-3-2h1l-4-3-35 30-2 1 2 1 1 1zm-23 25q-11-13-19-27l22-19-2-3h-1l-2-2q-10 11-23 19l22 31 2 2zm42 18-3-2a186 186 0 0 1-34-40l3-2-4-5-2-2-1 1 1 2-2 2a190 190 0 0 0 41 47zm-4-18 2 2 4-4-4-6 7-5-2-3-2-2-8 6 4 5-4 4 2 3zm2 26 3 2h3l25-16q2-2 0-4l-20-28-1-1-1-1-2-2 19 27q2 3-1 5l-25 15-2 1 3 2zm-42-17 1 1q2 2 4 1l12-9-3-3-2-2-12 9-2 1 1 1zm-55-68-5-9c25-11 45-35 53-64l35 7 1-2h-3l1-2-39-8q-14 45-53 65l7 12 2 2zm-35 30h1q0 2 4 2 53-29 92-78l-3-2-4-4 1 2a276 276 0 0 1-93 77l1 1zm-84-2-3-10q34-12 67-27l-2-4-1 1-1-3q-34 17-69 29l4 13 2-1v3zm62-7 1 3 5-3-5-14-2-2h-1q0-2-3-2l6 14-4 1 2 4zm-62 63 1 1q1 2 4 1l11-7q2 0 2-4-9-18-15-38l53-23-1-3h-1l-1-3-56 25 15 37q1 3-1 5l-12 7h-1l1 1zm-65-110q0 3 2 2l24 1v-3h-2v-2h-27q1 2 3 2zm5-7 1-9 27 1v-7h-2v-2h-4v4h-27v11h2v2zm63 108q-25-47-33-102l-2-3-3-2h-1q9 58 35 106h1l1 2zm147-377-10-10a75 75 0 0 1-21-38l-2-3-3-2q5 23 23 41zm6-7a110 110 0 0 0 48 21v-2h-2v-2a136 136 0 0 1-48-20zm125 69q2-24-6-47 13-3 22-13l-5-5-2-2v1l1 1q-9 10-21 14 6 23 6 48h2v2zm-6 5q0 2 2 3l39 6q4 1 4-3l2-18v-2l-9-24-1 1-1-3-2 1 7 21v1l-2 19q0 3-3 3l-38-7zm-68-36v-1l-32-10zm-55 24 5 4 20-37 33 11q4 1 4-3v-14a233 233 0 0 0 53 1l-1-3h-1l-1-2-21 2q-19 0-35-3v14q0 4-3 3-18-4-33-11l-20 37-2-1 4 3zm-5-50 7 5 14 8v-1l-18-10zm-16 1-5-4 1 1 2 1-7-6a89 89 0 0 1-21-38l11-3-1-3h-2v-2l-14 3a89 89 0 0 0 35 50zm-18 33 1 1q9 6 18 7 14 0 18-13 1-9-5-17l-2-2-8-7 3 3-1-1 2 2q7 8 6 17c-2 9-11 14-18 13q-9 0-16-5l1 1 12 6zm-23 2 20-20-3-3-2-2-21 21 3 1v1zm93 38v1l5 3 19-31q1-4-2-5l-2-2-1-1-1 3-18 32-2-2 4 3v1zm-36-8q-33-10-64-26v-1q31 16 64 27zM386 583l-2-13q22-7 42-21 3-3 1-5a93 93 0 0 1-19-78q5-22 22-45l7-10q40 22 83 31 2 1 3-1l15-29 10 3v-1l-12-4 10 3v-1l-13-4-15 28-4 2q-42-10-82-31l-8 9q-16 23-22 45c-6 27 2 58 19 78q2 3 0 5-21 13-43 21l3 17 2-1v3zm-41 19 4 2q51-9 92-44l-4-6-1 1-1-3-1 1 1 2q-40 35-92 45zm-9 60 1 2h3l1-1h2q-13-59-12-121h5v-2h-2v-2l-8-1a450 450 0 0 0 11 121l-1 1h-2l1 3zm-62-10q-2-24 1-48l36 2q3-1 3-3l-1-62 9 1v-3h-2v-2h-13l2 61q-1 3-3 3l-37-1v50h2v2zm80 117c-24-30-40-69-45-109l-2-3-3-2h-1l1 1c5 41 21 81 47 112l2 2zm29-45-3-8 29-16-2-6-1 1-1-3-2 1 1 3-30 15 5 12 1-1 1 3zm92 77-10-8 8 6-19-16-24-30 16-12q3-2 1-4l-15-30-2-2-3-2 15 29q1 2-1 4l-17 12a189 189 0 0 0 51 53zm48 12 2 2 7 3v-2zm-28-32 2 2q2 1 4-1l9-12-2-2-3-2-9 12-3 1 2 2h1zm50-12-4-4 4 3zm4 24-4-6 6-10q2-3-1-5h-1l-1-2a225 225 0 0 1-67-83l-3-2q18 36 46 65l22 19-1 3-6 10 6 10 1-1 1 3zm27 28q-2-12-6-23l24-12a674 674 0 0 0 81-53v-16l-2-1v-2h-3l-1 14-1 3a675 675 0 0 1-104 62l8 26h1l1 2zm10-15 1 3q42-20 81-49v-4l-2 1-1-4q-38 30-81 50l1 4zm87 29v2h6l-2-85q0-3-2-3-1-3-4-3v1l2 85-3 1 1 2zm-101-6q1 3 4 2 50-15 92-48v-5l-2 2v-4q-43 34-96 51zm-26-28q2 3 3 2l13-3-1-3-2 1-1-3q-6 3-15 3l1 1zm-51-28-2-2-4-4q-23-24-35-56l24-14-2-4-1 1-1-3q-13 9-25 15 13 34 37 58zm35 36 1-7q1-1-1-3l-1-1-1-1-5-5 5-13q1-2-1-4l-1-1-1-1-3-2 1 1a165 165 0 0 1-46-52l-2-3-1 1a178 178 0 0 0 49 54v3l-6 12 2 2v1l6 5 1 3-2 7 2 1v1zm-2 47-13-4zm-25 23v1l6 2 8-28q19 7 40 10 3-1 3-4l-2-42-2-3-3-2v1l2 42q0 3-4 3-19-2-40-10l-8 29-2-1v1l4 2zm-37-53 15 10 27 14v-1a198 198 0 0 1-42-23zm-70-12-6-9 31-23-2-3-2-2-32 24 8 10zm-1 7 2 2h4l21-17-3-5h-1l-1-2-2 1 2 2-21 17h-3l2 2h1zm-45 25 16 11q2 1 4-1l13-23v-3l-6-15 7-5-2-3h-1l-1-3-9 7 6 14v3l-13 23q0 3-4 1l-12-8 16 11-2-1zm-7 9-12-10 10 8-25-21q-30-32-49-72l8-4-2-3h-1l-1-2-10 5a255 255 0 0 0 82 99zm-3 6q26 19 56 31 3 0 4-2l17-36-2-2-4-2-17 36q-1 2-3 1l3 3-1-1q-29-10-53-28zm-77-37 1 3 22-19-2-3-2-2-22 19 2 3zm27-56-11-20q-1-2-4-2l11 21 1-1 2 3zm60 46-8-6 6 4-13-11q-15-15-25-35l-2-1v-1l-3-1a146 146 0 0 0 45 51zm119 6-11-8-11-11-22-26-1-1-1-1-2-1a201 201 0 0 0 48 48zm2-13q30 22 65 31 4 0 4-3l2-15 7 1v-2h-2v-2l-11-1-1 15q-1 3-4 2-33-8-62-28zm-118-4 2 2h3l66-48-3-3-2-2-66 49h-3l2 2zm-61-51 2 2 5-4q-9-11-13-24h12l-1-2h-1l-1-2h-14q5 12 12 23l-4 4zm-61-27 3 2h43v-3h-2l-1-2h-45zm6-7-1-23 9-1v-7l-2 1v-3l-3 1v4h-9v26h3v2zm39-11 1 2 6-1q-6-23-8-47l7 1v-2l-2-1v-1l-10-1q2 23 7 46l-3 1 1 3zm-43-51v2l33 2-1-2h-1l-1-2-32-3v3zm43-61 1-8h18q3 0 3-4l-2-30h-2v-2h-3l2 28q-1 3-3 3h-19l-1 11h2v2zm74-1a291 291 0 0 1-4-55l-2-3-3-2h-1v1q0 29 5 57h2v3zm122-194 3-6v-4l-11-11-2-2-2-1 9 9q2 2 1 4l-4 7 3 1-1 1zm8-24 2 2 2 2 1 1-4-4zm-103 72q19-57 64-95 2-2 1-4-5-12-14-21l16-2-1-3h-1l-1-2-18 2q9 9 14 21l-1 4q-45 39-65 96l3 2-1 1zm-1 101v3l23-8q3-2 2-5-16-42-6-85 11-43 44-70l-3-5h-1l-1-3-2 1 2 2q-34 27-45 70-10 45 6 85 1 3-1 5l-21 8 1 3zm-21-105 1 1 4 2 24 13v-1l-27-14zm31-113v2l6-1-11-61 8-1-1-3h-2v-2l-11 1 12 61-3 1v3zm155-155zm-126 78 1-30q8-19 29-34c30-19 66-24 99-12l2-6-3-1 1-1-4-2-1 6c-33-12-70-8-99 12q-21 14-30 33v34l2-1v3zm23-16 1 2q53-41 118-46 57-2 110 27v-1a206 206 0 0 0-48-20q25 6 46 19v-1q-54-31-114-28-63 4-116 45l2 3zm235 3h-2zm3-21-1-2-1-1-2-2-2-1 1 1 3 20q-1 5-5 4c-43-30-99-40-147-27q-25 7-49 21l-24 12q-26 12-57 19 2 41 19 78 1 2-1 4-38 37-54 90l2 1v1l3 2q17-52 55-90v-4q-17-37-18-77 30-7 56-20l24-11q24-14 50-22c47-13 103-2 146 27q5 2 5-3zM346 820l11 7h4l9-7-2-4-1 1-1-3-11 8-3 1-8-5 11 7h-1zm7 21-12-10 10 7a225 225 0 0 1-56-61l9-4-1-3h-1l-1-2-11 4a242 242 0 0 0 63 69zm1-46-2-2-2-1c-33-34-54-80-59-129h9v-2h-2v-2l-12-1a212 212 0 0 0 67 138zm38-51-5-11 39-19-1-4-1 1-1-3-41 21 6 14 1-1 1 3zm-38 35h4l62-41-3-6-1 1-1-3-2 1 1 2-62 42h-2l2 2h1zm214-138 9 7v-1zm-14 28-7-8 18-22-2-1v-1l-3-2-18 22 9 10 2 2zm127-409-4-1zm183 9q-17-5-32-15l-27-12h1q13 5 27 13 15 9 31 14zm-449 26q0 2 3 3h6c24 0 48-12 66-23l13-8q25-17 53-26 31-10 67-1 25 6 57 21 12 6 23-1 24-12 45-18a106 106 0 0 1 87 15q16 10 36 16l1-7-2-1v-1l-3-1-1 5q-19-5-37-16l-26-13q-28-9-60-1-21 5-45 18-12 6-23 0-32-15-57-21-37-8-68 1-27 9-52 26l-14 9a135 135 0 0 1-71 22zm5-6v-7q57-15 106-50l-3-6h-1l-2-2-1 1 1 2q-49 35-106 51l1 9h2v2zm293-59-1 1-1-3-2 1 1 3-23 12 1 3h1l2 2 25-13zm-42 93-2-2h-1l2 2a128 128 0 0 1-88 37q-40-1-73-24l2 2q34 26 76 26h5q47-2 83-36zm135 110v2l6-2a135 135 0 0 0-28-54l-2-1-2-1q20 23 27 52l-4 1 1 3zm-47 34 2 2h1l33-3 2-2v-2q-4-38-22-70l6-5-3-3-2-2-6 5a202 202 0 0 1 21 73l-2 1-33 3zm-14 11q0-24-8-47-10-28-24-52l-20-35 1-2h1l13 6v-1l-16-8 1 1 13 6v-1l-16-8h-2v2l19 36q15 24 25 51 8 24 8 50h2v2zm26-33v3l6-2q-10-38-30-71 23 0 44-8l-2-2-3-2q-21 7-44 7 20 33 30 72l-4 1 1 3zm-32 40 3 2a241 241 0 0 0 70-6l20-7q12-7 16-18 5-12-1-27-4-12-12-22a311 311 0 0 0-45-49l3 2h-1a278 278 0 0 1 37 43q8 10 13 22 4 14 0 27-4 11-15 17t-20 7a246 246 0 0 1-70 6zm-20-134-3-1zm41 6q42-3 74-34l-4-5-2-2-1 1 2 2q-33 31-74 33-22 2-43-5 1 10 9 19v1q26 41 37 90h2v2h3q-11-48-37-88-7-9-8-19 20 6 42 5zm-511 35q23-67 67-102l-2-4v1l-2-3q-45 36-69 104l3 1v1zm-18 224-18-7zm-52 76 2 2h19l3-3q2-41 12-80l19 7h3l1-3c2-51 4-104 14-156q17-88 59-144l-2-2-5-4 1 1q-42 56-58 144c-10 52-12 105-14 157l-2 2-2 1-19-8q-12 39-13 80 0 3-3 3h-18zm40-147v2h6c3-51 7-102 22-148l9 4v-1l-11-5 9 3-13-6c-14 47-18 97-21 149l-3-1v3zm66-108v2h6c1-20 10-39 18-54l7-12q12-19 20-40c4-13 10-37 0-60l-1-1-1-1-1-2h-2c10 22 4 47-1 59q-8 21-19 40l-7 13c-8 14-18 33-18 54h-3v2zm-11 6q12-53 35-92l3-5q7-12 12-26 6-20-1-35l7-5-1-3h-1l-1-2-10 6q8 15 2 34-5 15-13 26l-3 6q-23 39-35 92l2 2zm21 20h-1l-24-14v-1zm-36 94a779 779 0 0 1 13-107l25 15 2 1 1-1 2-2a376 376 0 0 1 43-105q15-22 14-50h-2v-2h-3q0 27-14 47-12 18-20 34a376 376 0 0 0-25 74h-3l-25-15a517 517 0 0 0-13 109h2v2zm-9 84-27-9zm-30 27 5-34 28 10 3-1 1-2v-2l2-73 16-1q3 0 3-3a433 433 0 0 1 3-62l28 4 3-3q11-79 54-145 11-14 9-33l-5-18h-1l-1-2-2 1q3 6 3 15 2 17-8 33-43 64-55 144 0 3-3 3l-27-4q-4 31-3 62 0 3-3 4l-17 1-1 72v2l-2 3h-2l-29-10-5 36h3v2zm39 36v3l6-2-6-31-2-3q0-2-3-2l6 32h-3v3zm-62 24 3 2 16 1 3-1 1-3q-3-25-1-51l32 2v-3h-2v-2l-35-1v51l-1 2-2 1h-16zm-19 1v3l6-1v-19h9v-2h-2v-2l-13-1v20h-2v2zm24-20q0-3-2-3l-3-3h-1l1 1v15h2v2h4zm82-232 20 8 1-1-23-9 20 8 1-1-24-9-3 16h3l-1 2h4zM184 685q-1-53 20-100l25 11v-1l-27-12 25 11v-1l-29-13q-20 48-19 103h2v2zm47 128 2 2h4l12-9 2-1 13-10q3-2 1-5-12-22-20-45l15-2-1-6h-1l-1-3-3 1 1 4-16 1q9 24 21 46l-1 4-14 10-1 1h-1l-12 9-2 1zm-13 12 3 3 3-5-2-2-6-6 8-8-2-2-3-3-9 9 3 2h-1l7 6-4 4zm-13 5 6-10-2-2-3-2-6 9 2 2v1zm121 33-2-2-21-18-11-12-2-2-2-1 12 12q12 13 26 23zm-5 51 17-39-1-5h-1l-2-2-2-1v3l-16 41 2 1v1zm34-32-1-1zm111-39-30-26-1-1h-1l-1-2-2-1 2 2q15 16 33 28zm-5 51 17-38q1-3-1-5h-1l-1-2-3-2 1 4-18 39 2 2zm106 24 2 2h18q2 0 3-3v-12l9 1v-3h-2v-2h-13v12q0 2-3 3l-17-1zm5-6v-14h-2v-2h-4l1 13h2v2zm-155 53q-15-5-28-12h1q13 8 27 12zm104-38q-34-10-66-28h1q31 18 65 28zm-135 41 6-13q15 10 32 13 3 1 4-1l30-66c44 26 95 39 145 39h2q2 0 3-3v-35l-1-2-1-1-1-1-2-1v1l-1 34q0 3-3 4h-1q-77 0-146-40l-30 66-3 2q-16-4-33-13l-6 14 3 1-1 1zm-7 5 1 1 37 14 2-6-3-1 1-1-4-2-2 6-35-14 2 2 35 14zm-65-55 2 2 17 8h1l3-2 17-37q20 15 44 27v-1q-24-12-47-28 21 15 45 27v-1q-25-12-48-28l-16 37-3 1h-1l-16-7 2 2 17 7h-1zm9-49 5 3zm-18 1h-1l6 3 5-10-2-2-3-3-6 11-2-1 5 2-1 1zm-15 4 12-23-2-2-3-3-13 24 2 1v1zm-7 60v1l5 3 22-46q1-3-1-5h-1l-1-2-3-2v4l-22 46-1-1-1 1 5 2zm-84-100 78 57h2l2-1 5-10 14 9-16-11 14 9-17-12-6 10-2 2-2-1-74-54 78 57-2-1zm33-29-2-2-5-5h-2l3 2h-1zm-51 36q11-34 37-56 3-1 1-4l-5-13 11-1-2-3h-1l-1-2-13 1 6 14-1 4q-27 22-37 56l2 1v1zm-7 4 1 1 1 1q16 5 30 13l3-6-3-1 1-1-4-2-3 5-28-11 2 1q15 4 29 12-14-7-29-12zm-28-58v2h17q3 0 3-2l5-21 34 2-1-2h-1l-1-2-36-2-5 20-3 2-14 1v2zm-1-27 3 2 13 3 1-2h-3l1-2-17-3zm-18 18v2h6v-31h9v-3h-2v-2h-13v31h-2v3zm-14 32 1-62 9 1v-3h-2v-2h-13v63h2v3zm-6 6 1 2 2 1h20q3 0 3-4v-21h-2v-2h-3v19q-1 3-3 3h-20l1 2zm356 33 5 4zm-30-9-11-8h1l9 7zm5 3h-2l-1-2-12-9 9-9-2-2-3-3-10 10 2 1v1l14 10v3l-44 102 2 1v1l3 2 45-101zm-171 32 23-35-3-4-2-2-24 37 3 2h-1zM151 754v-5q43 0 85-4l-1-2h-1l-1-2-87 3v8h2v2zm96 40-16-32-2-2q-1-2-3-2l17 35h1l2 2zm-58-11-2-2-5-4 2 2-14 19 2 2 3 3zm-46 163h-2v-2h-3v34h-3v3h2v2h6zm403 54 2-31-2-3-3-2h-1l1 1-3 33h2v2zm-7 7 2 2h2q47 5 95 5l22-1v-6h-2v-2h-3v4h-22a986 986 0 0 1-94-2zm-28-43q-21-6-41-17a197 197 0 0 0 41 17zm-39-15q31 17 66 23v-2l-2-1v-1q-36-6-70-24l-11 41-2-1v1l4 2-2-1v1l6 2zm253 76v2l6-1-6-45 48-14q2 0 2-3l1-46 15-6-2-7-1 1-1-3-2 1 1 3-15 7-1 46-3 3-48 13 7 46h-4l1 3zM538 895v1l6 3v-2zm15 22 1-20q0-2-3-3l-2-2-1-1v2l-1 20h-2v2h2v2zm-141 29 43-86-2-2-3-2-43 85-2-1v1l4 2-2-1v1zm-70 7 1 1 20 11h3l1-2 8-21q1-1-1-3l-1-2-1-1 7-14-3-1 1-1-4-2-7 14 3 2h-1l1 1 1 3-8 21-2 2h-2l-18-10 1 1 20 11h-1zm7-4 16-39-2-1v-1l-3-2-17 39 3 1-1 1zm-95-105-13-10zm-5-18-4-5-2-2-1 1 1 2-8 8 3 2 15 12-3 5 3 2-1 1 4 2 3-5-2-2-16-13zm104 177v1l3 1v-1zm12 15v-14l-2-3-2-2-2-1 1 1v17h2v2zm16-8v1l16 8h3zm-54 14q1 3 3 2l94 3q3-1 3-3 1-4-2-4l-2-2h-1v1q-1 3-3 3l-94-2zm4 2 1-1zm5-32v1l-3-3zm-3 23 2-23 5 3v-8l-2-1v-1l-6-4-1-1 3 3-1-1 1 1v8l-5-4-1 26h2v2zm50-154 3 3 15-23-2-2-5-4 2 1-15 23zm-56-350 6-40h-2v-2l-3-1-7 40h3v2zm7-58 2 1 26 12 1-1zm7-5q14-52 47-94l-2-3-5-4 2 2q-34 42-48 96l3 1-1 1zm-51 80v2h6l1-11 44 1 2-1h2l4-35 16 2 3-1 2-3 2-16q1-3-2-4l-2-2h-1v1l-3 17-1 3h-3l-16-1q-4 17-5 34h-1l-2 1-45-1v12h-3v2zm67-25v2h11l-1-2h-2v-2h-10v2zm17 22 6-1-4-22q0-3-2-3l-3-2 3 23h-3v3h2zm-14 55 6-1-4-50-2 1v-3l-3 1 4 47h-3v3h2zm-7 76q0 2 3 2 29-5 54-21 2-2 1-5l-14-30-2-1v-1l-3-2 13 30q2 2-1 4-25 16-53 21 0 2 2 3zm31-28 1 3 6-2-5-18 5-2-1-3h-1l-2-2-7 3 5 18-3 1 1 3zm-18 8 1 2 6-1-5-20 10-3-1-3h-2v-2l-12 3 4 20-3 1 1 3zm-9 12-4-26-1-3 8-1-1-3-2 1v-3l-10 2v3l5 28h2l1 2zm132 141-8-7-9-8-17-21v1l-2-3-1 1a155 155 0 0 0 37 37zm15 17 3-6-3-1 1-1-4-2-2 6-16-10 18 12zm122 56 1 2 2 1h1q32-4 63-17l2-3-3-109 6-2-2-6h-2l-1-3-2 1 1 3-5 3 2 108q1 3-2 4-30 12-63 16l1 2zm-20-27 1 2 42-22v-4l-2 1v-3l-43 23 1 3zm26 12 25-11 1-3 1-25-2-3-2-2-2-1v26q0 3-2 3l-25 12 1 10h2v2h3zm-62 19v3l6-1-1-22 8-1v-3l-2 1v-3l-11 2v22h-2v2zm22-5v-20l-1-3h-1l-1-2h-2v21h-3v2h2v2zm51-266 48 10 1-6-3-1 1-1-4-1-1 5-43-9-1 1 3 1zm-68-174 12-23 19 1v-3h-2v-2h-23l-12 23 2 1v1zm-3 26v1q72 35 152 36l2-1 1-2-4-51-2-3-3-2h-1v1l4 50v3l-3 1q-76-2-148-35v1zm118 5v-21l24 2v-2h-2v-2l-28-2v23h2v2zm-63-5q-30-8-58-22 28 13 58 22zm-79 11 5 4 18-35q65 30 134 36l2-1 1-3 1-14h-3l1-3h-4v13l-1 2-2 1q-71-5-134-35l-18 34-2-1 4 3zm56-33 8 1 3-1 1-3-1-26-2-4-3-2v28l-1 2-2 1h-5l-1 2h3zm42-12 1 2 6-1-5-28 14-9-2-3h-1l-1-2-15 10 4 27-3 1 1 3zm42-11-22-32-1-1-1-1-2-2 22 34h1l1 2zm-26-41 2 2 6-6-2-3h-1l-1-2-7 6zm23 48 2 2h19q2 1 3-1v-3a260 260 0 0 0-36-58l-1-1-3-1q21 25 35 55v3l-3 2-19-1 1 1zm125 48 2 2h1l1-1 17-12 1-3q-5-22-14-43l-1 1-2-3-1 1q9 20 13 39l-2 4-16 12h-1v1zm1-12-1 1 1 2 1-1zM487 599l1 1q2 3 5 0l9-14v-4l-9-13 99 21q2 1 3-3v-25q1-15-9-23l-3-3v1q7 9 7 21v25q-1 3-4 3l-99-21 10 12v4l-10 15-2 1 1 1zm52-59-15-4zm-52 49-56-71v-1q56 9 111 26l2-7h-3l1-2-4-1-1 5a809 809 0 0 0-112-25l60 75 2 2zm-17-50-7-9h-1l-1-2-1 1 7 9v-1l2 3v-1zm99 28v2l6 1 2-15q1-3-2-4l-2-2h-1v1l-2 15h-3v2zm-17-4h-1l-20-7zm-67-4-8-10q40 2 78 16 3 1 4-2l2-10 6 3v-2l-8-3 6 2v-1l-10-3-2 9q0 3-4 3-37-15-78-17l10 12 1 1 1 2zm326 6 1 3 15-8q16-8 29-21 15-17 8-35h-1l-1-2-3 1q4 17-9 32-13 13-29 21l-13 7 2 2-2-2-13 7a309 309 0 0 0-72 57q-5 5-5 11v29q0 7 6 13l1 1 1 1 3 3a940 940 0 0 1 91 108 375 375 0 0 1 53 123h2v2h3a304 304 0 0 0-52-120 613 613 0 0 0-93-110l-4-4q-5-5-5-13v-28q0-7 5-12a265 265 0 0 1 72-57l11-6zm-142-1q39 8 78 8l1-2h-3l1-3q-41 1-82-7l-1 11h3v2l3 1zm212-38-1-3-1-1 2 2h45v-3h-2v-2h-47l1 2-1-2h-2c1 12-1 15-10 28q-7 7-16 11l2 2 1 1 2 2q9-4 17-12c8-11 10-14 10-25zm13-28v2h-6v-2h-2v-2h6v2-2h38V48h3v2h2v451l-41-1zm-2-28h2v23h-3v-2h-3v-23h2-2v-5h27v-8h3v2h2v11h-26v2zm-29-6 6 2q2-9 0-21-9-46-40-78-3-3-3-8t4-8q24-24 39-55l-3-2v-1l-3-2q-15 31-39 55a12 12 0 0 0 0 17q31 32 40 77 2 9 0 20zM636 282l-7-5zm-125 70-6-5-4-4q-9-9-15-21 12-2 23-7l-2-1-1-1h1l-2-2-1-1q-11 5-23 8 6 13 17 22 6 8 13 12zm158-73-27-11q-11-6-23-10l-3-1 4 1 23 10zm148-15-3-2-6-5 3 2 3 3zm-303 68-4-3h-1zm119-44 5 4q12 6 24 8l3-3h-4l1-2q-15 1-29-8l-2-1 5 4 13 6-14-7zm-117 33q36 27 81 23c31-3 61-20 81-46q1-4-2-6 0-2-3-2l-1 3q-32 40-81 47-41 3-77-21zm3-6-4-3h1l1 1-1-1q23-10 41-27l1-7-3 3 1-5q-21 20-46 32l2 2zm294-46 1 1q12 9 25 12l1-1-3-1 1-1a74 74 0 0 1-26-11q11 8 24 12-12-3-23-11zm-336 30v2c17 0 33-8 45-16l11-6q15-10 31-17 28-11 58-2l23 10q21 12 44 14 25-2 47-20l2-6-3 3 1-5q-25 21-52 23c-16 0-30-7-44-13q-11-6-23-10-30-10-59 1l-30 17-11 7c-11 7-26 15-42 16v2zm218 19 8 5q21 12 47 12 16 0 33-5 38-12 69-46 2-1 1-4l-2-2-2-2h-1l-1 3q-33 35-69 46-17 6-34 5a97 97 0 0 1-51-14l8 5zm3-6-2-2-1-1-4-6h-1l-1-2h-2l5 6zm-126-7-2-2q-5-6-3-15l3-17q1-2-1-4h-1l-1-2h-2v2q-4 8-4 17t3 14l3 3zm-4 6q6 5 14 5 17 1 27-13 7-12 5-26l12 5-13-7 11 5q-7-5-16-8 3 15-5 26-9 15-26 14-6 0-11-4 5 4 9 5zm180-10q6 6 13 5 12-2 17-11 12-16 11-36 7-1 12 1l3 2-7-4-2-1 4 1 3 2-7-4q-5-3-11-1 0 20-11 36-6 8-17 11-6 0-10-3 3 4 7 4zm3-5-3-5q-5-10-3-18l5-20q1-3-1-4l-1-1-1-1-2-1v2l-6 21q-1 8 3 18l4 5zM450 467l12 8 24 11a1568 1568 0 0 0 122 48l14 4v-1l-2-1v-2l-17-5-63-23-59-25q-25-10-33-16l12 8 24 11 59 25 63 23 12 3a1024 1024 0 0 1-168-68zm205 83a403 403 0 0 0 112 8q18-1 40-8 21-6 36-19l5-8q1-4-1-10l-2-2q-1-3-4-2 2 5 1 9-1 5-4 8-15 13-37 19-22 7-40 8l-19 1a404 404 0 0 1-93-10l-25-8v19h-2v2l2 1v2l6 1v-19zm-202-89v-1l-1-3q0-2 3-2l83 29 42 15a941 941 0 0 0 128 31q33 4 65 1 30-2 57-11l1-4-3 1 1-3q-27 11-59 12-33 3-68-1a528 528 0 0 1-127-31l-43-15q-37-15-83-29l-2 2v3l2 2zm-9 24q7 8 17 12l46 18 51 19 18 9v-4h1v-2h1-1 1v-1l-3-2h1l-4-3v1h-1v1l-1 2v2l-18-8-50-20-46-18-14-8q8 8 17 11l46 18 50 20q9 3 17 8l-18-9-50-19-46-18q-8-3-14-9zm419-18 6 2q-4 11-14 18-10 6-24 11-29 10-60 13-33 3-69-2a540 540 0 0 1-127-29l-99-35c-26-8-42-1-45 9q-3 9 7 22l4 3-2-1 4 3-3-2-6-6q-12-13-10-24c4-10 20-17 45-10l100 36a803 803 0 0 0 127 30q36 4 68 1 33-3 60-12c13-4 32-14 38-27z"/>
		</g>
	</g>
	<defs>
		<path id="B" d="M647 1075h-40v5h-3v-2h-3v-8h44v2h2z"/>
		<path id="C" d="M282 1139v7h-6v-2h-2v-2h2v-5h4v2z"/>
		<path id="D" d="M307 1111v35h-6v-2h-2v-2h2v-33h4v2z"/>
	</defs>
</svg>