<svg xmlns="http://www.w3.org/2000/svg" xml:space="preserve" id="Layer_1" width="500" height="300" x="0" y="0" version="1.1"><style>.st1{fill:#d4ca73}.st2{fill:#b4aa53}.st3{fill:#f5ee9a}.st5{fill:#d6df9a}.st6{fill:#e3da86}.st8{fill:#eebf51}.st11{fill:#b08d3c}.st12{fill:#d1a745}</style><path d="M0 0h500v300H0z"/><path d="M25 25h450v250H25z" style="fill:#fff"/><path d="m142 257 7-6h246v6z" class="st1"/><path d="M391 71h5v186h-5z" class="st1"/><path d="m149 75-38-12 166 4v8z" class="st2"/><path d="M149 69c-3 0-9-7-9-7l137-1v8z" class="st1"/><path d="m106 63 171 4s3-25-4-25c-43 0-167 21-167 21" class="st3"/><path d="m144 256 5-185h246v185z" style="fill:#f6ee99"/><path d="M148 73h2v183h-2z" class="st5"/><path d="m145 256 11-185h-4z" class="st6"/><path d="m142 257 5-186h7l-9 185z" style="fill:#bfb45a"/><path d="m139 258 5-187 5-1-7 187z" class="st2"/><path d="M146 230v-1h249v1zm0-2v-2h249v2z" class="st8"/><path d="M129 258V66s15-1 15 3c0 56-4 139-4 188 0 3-11 1-11 1" style="fill:#d1c771"/><path d="m123 257 1-191h5l1 192z" class="st6"/><path d="m105 251-2-187c1-5 21 2 21 2v191s-19-1-19-6" class="st3"/><path d="M139 227v-2h4v2zm0 3v-2h4v2z" style="fill:#8c7131"/><path d="M129 227v-2h11v2z" class="st11"/><path d="M123 226v-1h7v2z" class="st12"/><path d="M129 230v-2h11v2z" class="st11"/><path d="M105 226v-2l19 1v2z" class="st8"/><path d="M123 229v-1h7v2z" class="st12"/><path d="M105 229v-2l19 1v2z" class="st8"/><path d="M148 220h2v36h-2zm11-149h2v185h-2zm8 0h2v185h-2zm-60 183V65h2v190zm9 2V65h2v191zm62-185h2v185h-2zm9 0h2v185h-2zm10 0h2v185h-2zm9 0h2v185h-2zm10 0h2v185h-2zm9 0h2v185h-2zm9 0h2v185h-2zm9 0h2v185h-2zm11 0h2v185h-2zm9 0h2v185h-2zm10 0h2v185h-2zm9 0h2v185h-2zm10 0h2v185h-2zm9 0h2v185h-2zm8 0h2v185h-2zm9 0h2v185h-2zm9 0h2v185h-2zm10 0h2v185h-2zm9 0h2v185h-2zm10 0h2v185h-2zm9 0h2v185h-2zm11 0h2v185h-2zm9 0h2v185h-2z" class="st5"/><path d="m104 63-1 2h28s-25-5-27-2" class="st2"/><path d="M178 132q-4 14-4 27v21l-1 6 3-1q2-5 0-11l1-15q0-15 4-28z"/><path d="m171 128 13 4q5 1 8 5 1 5-1 10-4 8-14 8l-3 2q10 5 12 18 3 8-5 10-6 1-13-2l-3 1q8 3 17 1l5-3c8-6-1-24-9-26l-3 1c7 2 11 11 12 17q1 7-4 10-8 2-15-1l-3 1c6 3 17 5 22-1q5-7 1-15-3-8-11-13l-2 2q11 0 18-11 5-7 0-13-9-4-19-6z"/><path d="M193 159c0 5-3 23 8 19 9-4 7-14 7-23l-3 2 1 11c-1 4-3 11-7 9q-4-4-3-9v-11zm16 3 4 8 3 6 3-1c-1-1-5-4-4-6l-3 1 2 4 3-1-2-4-3 1c-1 2 3 5 4 6l3-1-3-6-4-9z"/><path d="M227 157q-2 7-7 13l-6 10q-2 5-8 9c-2 1-5 6-8 7l-3 1q4 0 7-3l4-4 7-5 9-14 8-15z"/><path d="m198 195 8-5-2 1-7 5 2-1 3-2-2 1zl2-1 1-2-1 1zl3-2 1-2-3 1 5-2 10-8-3 1q-5 6-12 9h2l1-1-3 1zl3-1 1-2h-2l-3 3 2-1 3-3-3 1-3 3 2-1q5-1 8-6l-3 1-9 7zm66-69c-3-7-12-10-18-12q-5 0-9 2-6 5-6 12 2 11 11 17l10 3 8 5q5 9 5 19c0 9-3 18-14 18q-13-1-15-13l-3 2c2 12 16 15 25 10 11-6 12-20 8-30q-3-11-14-13-10-3-16-13l-2-10 2-4q1-5 7-3 12 1 18 12z"/><path d="M246 103q4 26 4 53l1 26q0 14 4 26l3-1q-4-13-4-26l-1-26q0-27-4-53zm26 29q3 21 0 42-1 9 3 17l12 14 3-1-5-9-5-5-3 2 5 5 5 8 3-1-11-14q-6-8-4-17 3-21 0-43z"/><path d="M268 147q9 1 17 4l3-2-17-3zm35 24c-10-3-20 13-12 20q5 4 10 0c6-4 5-14 2-19l-3 1q0 7 3 13 2 5 6 9l3-2q-4-3-6-8-3-6-3-13l-3 1 3 10c0 5-3 11-9 7-5-4-3-20 6-18zm8-1q-2 5 1 11l3 15q5 0 3-5-1-10 2-20l-3 1c5 0 4 11 4 13l3-1 3-11 1 1 2 4 4 17 3-2-3-12c0-3-2-10-5-10-6 0-7 11-8 14l3-1c0-3 1-12-3-13l-4 1c-3 3-3 11-2 15q2 5 0 9l3-1-3-14c-1-4-4-9-1-12zm30 8 2 40 3-2-2 2h-1l3-2-3-39z"/><path d="M344 178v-5l-1-4-3 1 1 4v5z"/><path d="M336 170c6 0 18 0 20 8q2 8-4 11h-5l-4 1-3 1q2 1 6-1l6-1q4-1 6-4c6-13-10-17-20-16zm39-1q-4-6-9-3-6 3-4 9l7 4q4 2 4 8c1 2 1 8-2 9-4 1-4-4-5-6l-3 1q0 4 4 6h3q5-2 6-6 3-10-7-15-4-1-4-5-1-3 2-4 4 0 5 4z"/><text style="font-family:&quot;AcademyEngravedLetPlain&quot;;font-size:3.8962px" transform="translate(449 272)">HNFT PEPE</text></svg>