<?xml version="1.0" encoding="utf-8"?>
<!-- Generator: Adobe Adobe Illustrator 24.2.0, SVG Export Plug-In . SVG Version: 6.00 Build 0)  -->
<svg version="1.1" id="Layer_1" xmlns="http://www.w3.org/2000/svg" xmlns:xlink="http://www.w3.org/1999/xlink" x="0px" y="0px"
	 width="24px" height="24px" viewBox="0 0 24 24" style="enable-background:new 0 0 24 24;" xml:space="preserve">
<style type="text/css">
	.st0{fill:url(#SVGID_1_);}
	.st1{fill:none;}
	.st2{font-family:'AcademyEngravedLetPlain';}
	.st3{font-size:0.375px;}
	.st4{fill:#E1C2B0;}
	.st5{fill:#E0C1B1;}
	.st6{fill:#7A7F80;}
	.st7{fill:#72ADC1;}
</style>
<g id="Layer_2">
	<rect width="24" height="24"/>
</g>
<g>
	<linearGradient id="SVGID_1_" gradientUnits="userSpaceOnUse" x1="1.2238" y1="11.9144" x2="20.4157" y2="11.9144">
		<stop  offset="0" style="stop-color:#FA471A"/>
		<stop  offset="0.6198" style="stop-color:#F89F29"/>
		<stop  offset="1" style="stop-color:#F6D234"/>
	</linearGradient>
	<rect x="1.22" y="1.16" class="st0" width="21.5" height="21.5"/>
	<rect x="20.34" y="22.2" class="st1" width="2.25" height="0.35"/>
	<text transform="matrix(1 0 0 1 20.3359 22.4496)" class="st2 st3">HNFT PEPE</text>
	<g>
		<path class="st4" d="M13.91,10.94c-0.44-0.17-1.68,0.18-2,0.55c-0.13,0.15-0.09,0.78-0.03,0.98c0.19,0.63,1.42,1.35,1.99,1.63
			c0.18,0.09,0.56,0.18,0.72,0.3c0.27,0.19,0.6,0.82,0.86,1.03c0.17,0.14,0.59,0.32,0.8,0.35c0.24,0.03,0.73,0.01,0.97-0.04
			c0.29-0.07,0.88-0.24,1.13-0.41c0.24-0.16,0.65-0.57,0.82-0.8c0.15-0.2,0.43-0.61,0.54-0.83c0.09-0.16,0.22-0.51,0.3-0.68
			c0.06-0.12,0.13-0.41,0.24-0.49c0.18-0.12,0.65,0.06,0.86-0.01c0.15-0.05,0.43-0.31,0.46-0.48c0.04-0.18-0.02-0.61-0.15-0.72
			c-0.06-0.05-0.26-0.1-0.31-0.04c-0.09,0.1,0,0.42-0.03,0.55c-0.03,0.1-0.17,0.27-0.26,0.31c-0.07,0.03-0.24,0.04-0.31,0
			c-0.07-0.04-0.21-0.16-0.22-0.25c-0.01-0.14,0.22-0.36,0.22-0.5c0-0.13-0.27-0.3-0.28-0.43c-0.01-0.16,0.31-0.36,0.36-0.51
			c0.03-0.1,0-0.36-0.08-0.41c-0.08-0.05-0.3-0.01-0.37,0.05c-0.12,0.1-0.28,0.39-0.3,0.55c-0.02,0.19,0.26,0.65,0.12,0.77
			c-0.1,0.08-0.38-0.12-0.43-0.24c-0.08-0.2-0.01-0.65,0.01-0.86c0.01-0.1,0.08-0.32,0.02-0.39c-0.05-0.06-0.24-0.05-0.3,0
			c-0.12,0.11-0.19,0.48-0.18,0.65c0.01,0.22,0.36,0.75,0.18,0.87c-0.11,0.07-0.33-0.25-0.38-0.38c-0.05-0.13,0.01-0.47-0.1-0.57
			c-0.06-0.05-0.26-0.04-0.3,0.02c-0.1,0.15-0.03,0.57,0.05,0.73c0.08,0.18,0.36,0.45,0.43,0.63c0.04,0.1,0.09,0.33,0.06,0.43
			c-0.18,0.49-0.89,1.49-1.38,1.48c-0.08,0-0.16-0.19-0.24-0.2c-0.09-0.01-0.21,0.21-0.3,0.19c-0.28-0.05-0.42-0.8-0.56-1.07
			c-0.14-0.26-0.56-0.67-0.77-0.87c-0.19-0.17-0.54-0.52-0.76-0.65C14.78,11.07,14.16,11.05,13.91,10.94z"/>
		<path class="st5" d="M10.28,13.85c-0.23,0.1-0.78-0.06-0.99-0.19c-0.16-0.1-0.41-0.43-0.57-0.54c-0.24-0.17-0.82-0.27-1.06-0.44
			c-0.26-0.18-0.56-0.8-0.81-0.99c-0.08-0.06-0.26-0.12-0.36-0.12c-0.19-0.01-0.56,0.07-0.75,0.08c-0.17,0.01-0.51,0.02-0.67-0.04
			c-0.12-0.04-0.29-0.3-0.41-0.29c-0.27,0.03-0.46,0.74-0.69,0.91c-0.11,0.08-0.43,0.16-0.52,0.06c-0.08-0.09-0.05-0.41,0.02-0.52
			c0.13-0.21,0.71-0.36,0.74-0.6c0.01-0.09-0.14-0.24-0.22-0.25c-0.1-0.01-0.28,0.08-0.36,0.13c-0.17,0.1-0.47,0.37-0.65,0.41
			c-0.14,0.03-0.47,0.01-0.55-0.1c-0.05-0.07-0.04-0.29,0.01-0.37c0.08-0.12,0.36-0.26,0.5-0.31c0.16-0.06,0.66-0.01,0.65-0.18
			c-0.02-0.25-0.71,0.01-0.94-0.04c-0.08-0.02-0.28-0.14-0.27-0.23c0.02-0.11,0.28-0.2,0.39-0.21c0.23-0.03,0.9,0.27,0.94,0.03
			c0.04-0.24-0.67-0.23-0.9-0.27c-0.07-0.01-0.24-0.03-0.27-0.1C2.49,9.58,2.6,9.4,2.67,9.37c0.24-0.1,0.78,0.01,1.02,0.1
			C3.8,9.5,4,9.62,4.11,9.64c0.18,0.04,0.56-0.02,0.74,0.03c0.15,0.04,0.38,0.32,0.53,0.35c0.26,0.06,0.77-0.25,1.04-0.26
			c0.28-0.02,0.81,0.21,1.07,0.31c0.35,0.12,1.11,0.22,1.42,0.44c0.23,0.16,0.42,0.81,0.68,0.9c0.23,0.08,0.67-0.32,0.91-0.36
			c0.38-0.06,1.35,0.02,1.48,0.39C12.22,12.13,10.94,13.57,10.28,13.85z"/>
		<path class="st5" d="M11.68,11.39c-0.09-0.1,0.13-0.4,0.03-0.55c-0.05-0.08-0.2-0.2-0.23-0.29c-0.02-0.07,0.09-0.24,0.04-0.29
			c-0.08-0.09-0.36,0.07-0.46,0.14c-0.11,0.08-0.3,0.32-0.44,0.36c-0.18,0.06-0.59,0.02-0.75-0.08c-0.12-0.08-0.4-0.29-0.38-0.44
			c0.02-0.19,0.5-0.3,0.54-0.49c0.02-0.09-0.17-0.21-0.2-0.29c-0.02-0.05,0.05-0.15,0.04-0.2C9.86,9.22,9.73,9.2,9.72,9.16
			C9.69,9.1,9.76,8.97,9.81,8.93c0.05-0.05,0.19-0.1,0.24-0.15c0.05-0.05,0.14-0.16,0.13-0.23c-0.01-0.04-0.09-0.11-0.13-0.11
			c-0.04,0.01-0.08,0.11-0.12,0.13c-0.1,0.06-0.36,0.1-0.47,0.04C9.41,8.57,9.3,8.44,9.31,8.36c0.01-0.23,0.33-0.59,0.46-0.78
			c0.12-0.17,0.38-0.51,0.44-0.71c0.03-0.1,0.06-0.3,0.04-0.4c-0.02-0.07-0.16-0.2-0.13-0.28c0.14-0.39,1.11-0.48,1.5-0.49
			c0.29-0.01,0.89-0.05,1.17,0.04c0.21,0.07,0.63,0.29,0.75,0.48c0.14,0.21,0.23,0.73,0.24,0.99c0.01,0.15,0.01,0.46-0.03,0.61
			c-0.02,0.09-0.11,0.24-0.13,0.33c-0.13,0.74,0.58,2.38,0.21,3.02C13.55,11.66,12.07,11.79,11.68,11.39z"/>
		<path class="st6" d="M10.12,6.18c0,0-0.11-0.05-0.18-0.1c-0.56-0.39-1-2.48-1-2.48s3.32,1.29,4.17,2.11
			c0.09,0.09,0.35,0.43,0.35,0.43L10.12,6.18z"/>
		<path class="st7" d="M11.97,19.86c0,0,1.41,0.33,1.89,0.36c0.37,0.02,0.62-0.05,1.47-0.17c0.21-0.03,0.2-0.53,0.2-0.75
			c-0.01-0.63-0.57-1.77-0.65-2.4c-0.06-0.49-0.03-1.48-0.1-1.97c-0.05-0.32-0.06-1.1-0.33-1.27c-0.12-0.07-0.39,0.12-0.53,0.12
			c-0.23,0-0.66-0.25-0.83-0.41c-0.11-0.1-0.35-0.32-0.39-0.48c-0.04-0.18,0.05-0.57,0.13-0.74c0.06-0.13,0.29-0.37,0.38-0.48
			c0.05-0.06,0.23-0.25,0.29-0.31c0.15-0.15,0.09-0.06,0.44-0.37c0.12-0.11-0.38,0.1-0.53,0.19c-0.23,0.13-0.71,0.38-0.94,0.53
			c-0.17,0.11-0.49,0.4-0.67,0.51c-0.07,0.04-0.22,0.11-0.3,0.12c-0.04,0.01-0.14,0.02-0.16-0.01c-0.04-0.05-0.02-0.22,0-0.29
			c0.09-0.23,0.17-0.53,0.35-0.85c0.1-0.18-0.39,0.29-0.52,0.44c-0.12,0.14-0.38,0.41-0.48,0.57c-0.09,0.14-0.23,0.46-0.27,0.62
			c-0.04,0.16-0.03,0.39-0.05,0.55c-0.01,0.09,0.01,0.09-0.03,0.16c-0.01,0.02-0.04,0.1-0.06,0.12c-0.02,0.02-0.08,0.11-0.08,0.11
			s-0.07,0.06-0.09,0.11c-0.09,0.24,0.02,0.61,0.14,0.84c0.31,0.63,1,1.89,1.52,2.09C12.4,17.06,11.97,19.86,11.97,19.86z"/>
	</g>
</g>
</svg>
