<svg xmlns="http://www.w3.org/2000/svg" width="24" height="24" xmlns:v="https://vecta.io/nano"><path d="M0 0h24v24H0z"/><path d="M1 1h22v22H1z" fill="#e6771a"/><text transform="translate(21.497 22.879)" font-family="AcademyEngravedLetPlain" font-size=".239">HNFT PEPE</text><path d="M5.46 20.51h13.12V23H5.46z" fill="#444f19"/><path d="M7.11 13.03h9.84v5H7.11z" fill="#444f18"/><path d="M10.09 17.55h3.85V23h-3.85z" fill="#444f19"/><path d="M8.93 9.51s.09-.37.17-.46c.1-.1.37-.21.46-.32.07-.08.1-.31.18-.39.1-.09.4-.07.51-.15.1-.06.17-.34.27-.4.1-.05.33.07.44.05.1-.02.22-.23.32-.24s.26.16.35.21c.08.06.28.09.37.15.11.07.24.33.24.33s.2-.15.24-.22.1-.22.21-.27c.02-.01.31.02.4-.03.06-.03.08-.2.13-.23.07-.04.23.09.32.09.05 0 .13-.09.18-.1.08-.01.57.14.57.14l-.21.58-5.15 1.26z" fill="#8c4645"/><path d="M8.68 9.34l6.06-1.86 1.2.43-7.8 5.15z" fill="#560e0d"/><path d="M8.94 9.96l7.05-2.48v5.58H8.04z" fill="#444f19"/><path d="M11.95 15.48h.75v.35h-.75z"/><path d="M9.67 13.65h4.69v3.75H9.67z" fill="#7b0e04"/><path d="M9.84 14.47h4.35v2.21H9.84z"/><path d="M13.05 14.47h.63v1.11h-.63zm-2.65 1.11v-1.11h.63l-.15.96z" fill="#d6c55f"/><path d="M10.86 15.88v-.45h.8v.7z"/><path d="M12.02 16.68v-1.1l.58.45.05.65z" fill="#d5c55f"/><path d="M11.96 15.83v-.46h.8v.71z"/><path d="M14.79 22.3h.75v.7h-.75z" fill="#2b330d"/><path d="M7.36 19.79h1.75v1.45H7.36z" fill="#e5771d"/><path d="M7.36 20.78l1.08.28.67-.55.28 2.49H8.17l-.71-.2-.19-.55-1.02.26.35-1.05.69-.2z" fill="#560c0d"/><path d="M16 12.8h1.15v1.45H16z" fill="#e5771d"/><path d="M15.97 13.38l.53.14.17.63.28.1v1.13.9l-.63-1.7-1.27-.47.34-.35.4-.21zm-3.63 2.25l.04.19.13.16.05.04-.1.23-.17.13-.18-.33-.09-.23.02-.08.2.1zm-1.6-.16l.14-.04.08-.51z" fill="#560c0d"/><radialGradient id="A" cx="14.132" cy="9.497" r="1.801" gradientTransform="matrix(0.4249 0 0 0.4453 7.9918 7.0179)" gradientUnits="userSpaceOnUse"><stop offset="0" stop-color="#a82117"/><stop offset=".212" stop-color="#a72219"/><stop offset=".351" stop-color="#a5271e"/><stop offset=".468" stop-color="#a03026"/><stop offset=".574" stop-color="#9a3c30"/><stop offset=".672" stop-color="#90483b"/><stop offset=".764" stop-color="#835145"/><stop offset=".851" stop-color="#70554b"/><stop offset=".933" stop-color="#574d49"/><stop offset="1" stop-color="#383838"/></radialGradient><ellipse cx="14" cy="11.25" rx="1.05" ry="1.1" fill="url(#A)"/><g opacity=".451" fill="#2d2e2e"><path d="M14.32 11.57h-.64 0v.06h0 .64 0v-.06h0zm.03-.19h-.7v.16h.7v-.16z"/><path d="M14.08 10.91h-.17v.47h.17v-.47z"/><path d="M14 10.73l-.19.14.07.23h.23l.07-.23c0 0-.18-.14-.18-.14zm0 .65l.08.08.08-.08-.08-.08-.08.08zm-.09-.08l-.08.08.08.08.09-.08-.09-.08h0z"/></g><radialGradient id="B" cx="4.985" cy="9.497" r="1.801" gradientTransform="matrix(0.4249 0 0 0.4453 7.9918 7.0179)" gradientUnits="userSpaceOnUse"><stop offset="0" stop-color="#a82117"/><stop offset=".212" stop-color="#a72219"/><stop offset=".351" stop-color="#a5271e"/><stop offset=".468" stop-color="#a03026"/><stop offset=".574" stop-color="#9a3c30"/><stop offset=".672" stop-color="#90483b"/><stop offset=".764" stop-color="#835145"/><stop offset=".851" stop-color="#70554b"/><stop offset=".933" stop-color="#574d49"/><stop offset="1" stop-color="#383838"/></radialGradient><ellipse cx="10.11" cy="11.25" rx="1.05" ry="1.1" fill="url(#B)"/><g opacity=".451" fill="#2d2e2e"><path d="M10.43 11.57h-.64 0v.06h0 .64 0v-.06h0zm.03-.19h-.7v.16h.7v-.16z"/><path d="M10.2 10.91h-.17v.47h.17v-.47z"/><path d="M10.11 10.73l-.19.14.08.23h.23l.07-.23-.19-.14zm0 .65l.08.08.08-.08-.08-.08-.08.08zm-.08-.08l-.08.08.08.08.08-.08-.08-.08h0z"/></g></svg>