<svg xmlns="http://www.w3.org/2000/svg" width="24" height="24" xmlns:v="https://vecta.io/nano"><path d="M.05 0h24v24h-24z"/><path d="M.05 3H20v21H.05z" fill="#eedd2a"/><path d="M16.37 16l-5.2 8h10.39z"/><path d="M7.76 16l-5.2 8h10.39z"/><ellipse cx="12.08" cy="19.9" rx="3.43" ry="3.15" fill="#8bcd77" stroke="#05411e" stroke-width="1.5"/><path d="M8.85 2.3c2.22 0 5.38 6.69 5.38 6.69H3.46S6.62 2.3 8.85 2.3z" fill="#007635"/><path d="M12.08 11.27L7.46 17.8h9.23z" fill="#007735"/><path d="M8.85 2.3c2.22 0 5.38 6.69 5.38 6.69H3.46S6.62 2.3 8.85 2.3z" fill="#03411d"/><path d="M14.46.55l6.23 8.44H8.23z" fill="#007838"/><path d="M12.05 16.84L3.42 8.99h17.27z" fill="#268837"/><path d="M12.05 14.59l-7.49-5.6h14.99z" fill="#077632"/><path d="M11.98 12.91L5.19 8.99h13.57z" fill="#085426"/><path d="M12.05 11.39l-6.1-2.4h12.21z" fill="#00411b"/><path d="M20.01 5.59s-3.2-2.33-4.44-2.33-4.19 2.01-4.19 2.01 2.95 2.17 4.19 2.17 4.44-1.85 4.44-1.85z" fill="#fff"/><path d="M19.58 5.56s-2.88-2.04-4-2.04-3.77 1.76-3.77 1.76 2.66 1.9 3.77 1.9 4-1.62 4-1.62z" fill="#7b1811"/><circle cx="15.57" cy="5.35" r="1.42" stroke="#fff" stroke-width=".5"/><path d="M6.98 8.4L4.02 5.35h5.92z" fill="#fff"/><circle cx="6.98" cy="5.35" r="1.5"/><path d="M6.98 2.3l2.96 3.05H4.02z" fill="#7b1911"/><circle cx="12.06" cy="17.99" r="1.38" fill="#f46d21"/><path d="M12 17.29L9.9 24h4.2z" fill="#f26d23"/><g stroke="#fff" stroke-width=".65"><circle cx="15.44" cy="17.68" r="1.75"/><circle cx="8.67" cy="17.68" r="1.75"/></g><text transform="translate(22.347 23.729)" fill="#ecdd2c" font-family="AcademyEngravedLetPlain" font-size=".239">HNFT PEPE</text><circle cx="8.67" cy="17.68" r=".65" fill="#fff"/><circle cx="15.44" cy="17.68" r=".65" stroke="#fff" stroke-width=".5"/><path d="M1.42 10.19c-.09-.65 2.16-1.44 2.16-1.44l17.11.24-15.11 1.96s-4.08-.16-4.16-.76z" fill="#958a48"/></svg>