<svg xmlns="http://www.w3.org/2000/svg" fill="none" viewBox="0 0 501 575"><path d="M428 464v17l16 7 31 13v49H112L26 375 68 81l125-53 132 69 116 90-13 277Z" fill="#fff" stroke="#000" stroke-width="50"/><path d="m369 110-36 48-30-87v106l-18-72-17 101-7-73-26 224 39-86h74l41 72-20-103 32 77-32-207Z" fill="#000"/><path d="m369 110-36 48-30-87v106l-18-72-17 101-7-73-26 224 39-86h74l41 72-20-103 32 77-32-207Z" fill="#000"/><path d="m254 230 4 4c3 2 7 4 13 5 11 3 26 5 44 5 17 0 32-2 43-5 6-1 10-3 13-5l4-4c0-2-1-3-4-5s-7-4-13-5a179 179 0 0 0-87 0c-6 1-10 3-13 5s-4 3-4 5Z" fill="#fff" stroke="#000" stroke-width="4"/><path d="M302 229c0 6 5 12 13 12 7 0 13-6 13-12s-6-11-13-11c-8 0-13 5-13 11Z" fill="#000" stroke="#000" stroke-width="5"/><path d="m98 100 36 60 30-87v106l18-72 17 101 7-73 28 221-41-83h-74l-41 72 20-103-32 77 32-219Z" fill="#000"/><path d="m98 100 36 60 30-87v106l18-72 17 101 7-73 28 221-41-83h-74l-41 72 20-103-32 77 32-219Z" fill="#000"/><path d="m213 232-4 4c-3 2-7 4-13 5a179 179 0 0 1-87 0c-6-1-10-3-13-5l-4-4c0-2 1-3 4-5s7-4 13-5c11-3 26-5 44-5 17 0 32 2 43 5 6 1 10 3 13 5s4 3 4 5Z" fill="#fff" stroke="#000" stroke-width="4"/><path d="M166 231c0 6-6 12-13 12-8 0-13-6-13-12s5-11 13-11c7 0 13 5 13 11Z" fill="#000" stroke="#000" stroke-width="5"/><ellipse fill="#000" cx="234" cy="419" rx="117" ry="54"/><path d="M302 420c0 12-42 148-70 148-27 0-66-136-66-148s39-22 66-22c28 0 70 10 70 22Z" fill="#EE1313"/><path d="M234 171 173 54l89-12-28 129Z" fill="#000"/></svg>