<svg xmlns="http://www.w3.org/2000/svg" width="400" height="560" xmlns:v="https://vecta.io/nano"><path d="M0 0h400v560H0z"/><path d="M20 523.73V36.27A10.17 10.17 0 0 1 30.17 26.1h339.66A10.17 10.17 0 0 1 380 36.27v487.45a10.17 10.17 0 0 1-10.17 10.17H30.17A10.16 10.16 0 0 1 20 523.73z" fill="#fc1a05"/><path d="M42 347.35h316v172H42z" fill="#9e3291"/><path d="M42 44.64h316v473.43H42z" fill="none" stroke="#000" stroke-width="5" stroke-miterlimit="10"/><radialGradient id="A" cx="181.888" cy="230.783" r="155.629" gradientTransform="matrix(1.1328 0 0 0.9691 -5.4203 10.7778)" gradientUnits="userSpaceOnUse"><stop offset="0" stop-color="#36a2cb"/><stop offset=".156" stop-color="#2f8db1"/><stop offset=".491" stop-color="#1e596f"/><stop offset=".974" stop-color="#020506"/><stop offset="1"/></radialGradient><path d="M40.82,79.7H358v253H40.82V79.7z" fill="url(#A)"/><path d="M25 354.52h0c0-13.25 10.75-24 24-24h302c13.25 0 24 10.75 24 24h0c0 13.25-10.75 24-24 24H49c-13.25 0-24-10.74-24-24z"/><path d="M31.18 355.52v-2a18.5 18.5 0 0 1 18.5-18.5h300.65a18.5 18.5 0 0 1 18.5 18.5v2a18.5 18.5 0 0 1-18.5 18.5H49.68a18.5 18.5 0 0 1-18.5-18.5z" fill="#fc1a05"/><path d="M35.81 354.52h0a16 16 0 0 1 16-16h296.38a16 16 0 0 1 16 16h0a16 16 0 0 1-16 16H51.81a16 16 0 0 1-16-16z" fill="#f3f2e9"/><path d="M25 57.71h0c0-13.25 10.75-24 24-24h302c13.25 0 24 10.75 24 24h0c0 13.25-10.75 24-24 24H49c-13.25 0-24-10.75-24-24z"/><path d="M31.18 58.71v-2a18.5 18.5 0 0 1 18.5-18.5h300.65a18.5 18.5 0 0 1 18.5 18.5v2a18.5 18.5 0 0 1-18.5 18.5H49.68c-10.22 0-18.5-8.29-18.5-18.5z" fill="#fc1a05"/><path d="M35.81 57.71h0a16 16 0 0 1 16-16h296.38a16 16 0 0 1 16 16h0a16 16 0 0 1-16 16H51.81c-8.84 0-16-7.17-16-16z" fill="#f3f2e9"/><text transform="matrix(1.0294 0 0 1 69.0359 69.8683)" font-family="AcademyEngravedLetPlain" font-size="35.163">420 OUTSIDER </text><text transform="matrix(.8327 0 0 1 74.271 359.7607)" font-family="ArialMT" font-size="19.648">= ?   Atk = 99  Spd = 77  Ele = unknown</text><g fill="#e30206"><path d="M62.55 363.99l.18-15.82s-4.34-5.6-7.76-1.79c-4.39 4.88 7.58 17.61 7.58 17.61z"/><path d="M62.45 363.72l-.47-15.56h1.27v14.65z"/><path d="M62.55 363.99l.1-15.82s4.34-5.6 7.76-1.79c4.4 4.88-7.86 17.61-7.86 17.61z"/></g><path d="M71.41 518.07l20-46.24h216l20 46.24z"/><path d="M87.91 525.51l10.67-45.06h201.66l11.67 46z" fill="#fc1a05"/><text transform="matrix(1.0294 0 0 1 99.6579 514.8252)" font-family="Impact" font-size="26.924">THE UNPRUNABLES</text><g fill="#36a2cb"><path d="M272.39 302.99c4.76 4.87 0 27.53 0 27.53H130.38s-4.22-22.11 0-27.53c22.29-28.2 116.9-25.66 142.01 0zm-115.06-95.54c15.48-16.48 74.04-18.13 87.78 0 7.04 9.18 8.55 39.7 0 47.21-16.89 14.82-72.09 16.36-87.78 0-8.01-8.18-7.9-38.8 0-47.21z"/><path d="M180.49 258.09h41.67v72.43h-41.67v-72.43zm-22.08-126.93c15.26-21.12 72.52-23.22 86.05 0 8.77 15.04 0 77.4 0 77.4h-86.05c0-.11-9.85-63.8 0-77.4z"/></g><path d="M166.31 241.73c-2.06-2.1-.87-15.59 1.08-17.69 14.07-15.59 57.69 2.87 68.73 10.5 2.38 1.66 1.41 5.09-.54 7.19-12.12 12.61-57.04 12.49-69.27 0z" fill="#f82f15"/><path d="M231.36 322.78h8.12v7.74h-8.12v-7.74z" fill="#2c7894"/><path d="M163.17 322.78h8.12v7.74h-8.12v-7.74z" fill="#2b7795"/><path d="M176.81 235.32c0-1.77 6.17-4.42 13.31-3.1 7.58 1.33 18.29 3.32 20.78 5.09 1.84 1.33-12.12 1.33-20.78 1.22-7.36-.12-13.31-1.55-13.31-3.21z"/><path d="M136.65 260.42l9.42 9.51 40.37-31.51s2.49-1.66 2.49-2.99c0-1-1.52-1.88-1.95-1.88-1.41 0-2.49.44-2.49.44l-47.84 26.43z" fill="#fff"/><linearGradient id="B" gradientUnits="userSpaceOnUse" x1="135.086" y1="269.859" x2="139.008" y2="265.949"><stop offset="0" stop-color="#690d04"/><stop offset="1" stop-color="#072c0e"/></linearGradient><path d="M136.65 260.42l9.31 9.4-6.6 5.09-9.85-10.28 7.14-4.21z" fill="url(#B)"/><radialGradient id="C" cx="-79.429" cy="660.672" r="2.32" gradientTransform="matrix(11.3242 0 0 -9.9549 1100.6378 6746.8823)" gradientUnits="userSpaceOnUse"><stop offset="0" stop-color="#128d8b"/><stop offset="1"/></radialGradient><ellipse cx="201.17" cy="169.97" rx="28.68" ry="29.3" fill="url(#C)"/><g opacity=".451" fill="#2d2e2e"><path d="M210.26 180.91h-18.29 0v1.77h0 18.29 0v-1.77h0zm.97-5.41h-20.02v4.64h20.02v-4.64z"/><path d="M203.66,162.45h-4.87v13.27h4.87V162.45z"/><path d="M201.17 157.25l-5.3 3.98 2.06 6.41h6.6l2.06-6.41c-.12 0-5.42-3.98-5.42-3.98zm0 18.47l2.27 2.21 2.38-2.32-2.27-2.21-2.38 2.32zm-2.39-2.32l-2.27 2.21 2.38 2.32 2.27-2.21-2.38-2.32h0z"/></g><path d="M125.5,195.84h9.74v53.08h-9.74V195.84z" fill="#5a6163"/><text><tspan font-family="Arial-BoldMT" font-size="30.432" x="108.702" y="415.23">“Got to have</tspan><tspan x="121.372" y="451.75" font-family="Arial-BoldMT" font-size="30.432">Kaya now”</tspan></text></svg>