<svg xmlns="http://www.w3.org/2000/svg" viewBox="0 0 1230 1230" xmlns:v="https://vecta.io/nano"><style>.D,.C,.E{mix-blend-mode:multiply}.A{isolation:isolate}</style><g class="A"><g><path d="M0 0h1230v1230H0z" fill="#f4f1d4"/><g id="A"><g id="B"><g id="C"><path class="C" d="m622.37,678.41c12.89-4.62,11.16-15.5,2.64-11.65-6.97,3.15-33.97,6.09-32.35-.49-5.85,2.91,1.81,6.74,13.02,6.6,14.44.04,20.46-4.9,22.91-3.88,2.07,6.82-30.49,11.63-33.46,6.94-.82-2.71,4.09-3.21-1.18-3.87-8.37,10.15,12.12,10.43,28.41,6.35Z" fill="#fcdc56"/><path class="D" d="m620.92,674.39c4.69-1.25,7.62-2.96,7-4.83-1.81-.29-8.19,3.52-23.31,3.88,1.96,2.37,9.59,1.58,16.3.95Z" fill="#f27058"/><g class="E"><path d="m603.44,673.42c-3.73-.79-9.7-1.37-7.58,2.52,1.29,2.35,17.09,1.54,21.87-.3-4.85.31-12.65-.57-14.29-2.22Z" fill="#15a8e0"/><path d="m591.99,660.23c-1.81,2.3,2.68,3.26,2.82,3.08-10.04,12.56,25.96,4.08,33.77,2.37,5.83-1.27,4.62,9.39-6.85,13.08-9.68,3.11-22.41,2.74-23.07,2.64,7.74,7.16,25.09,4.68,34.36-2.44,7.75-5.95,9.33-19.83-1.18-22.74.9-4.12-8.53-17.76-19.62-8.57-3.89-2.01-8.33-2.92-11.59,1.34-2.69.37-10.46,3.1-9.08,4.61-3.34,4.27.42,6.63.42,6.63Z" fill="#00a9e5"/></g><path d="M620.85 654.16c-.73-.08-2.09-.9-5.02-1.84-4.65-1.49-9.23-.45-11.03 1.92-2.55-1.92-14.28-2.49-14.68 1.92-.98 7.69 11.48 5.08 14.31 3.07-.06-.22.66.4 1.18 1.01 3.88 2.97 13.79.65 15.43-4.45 1.18-.56 2.16-.18 2.14-.91-.03-.86-1.76-.64-2.32-.7z" fill="#f7f9e9"/><path d="M611.02 659.83c4.73.19 5.17-6.31-.08-6.4-3.65.57-3.32 5.93.08 6.4zm-.45-3.37c1.18-.11 1.31 1.44.08 1.41-.89.04-1.15-1.41-.08-1.41zm-13.7 3.28c3.85.23 3.76-5.7-.14-5.62-3.71-.02-3.75 5.76.14 5.62h0zm-.7-2.6c1.03-.16 1.51 1.45.1 1.46-1.13.06-1.14-1.4-.1-1.46zm35.76-1.42c.94-10.3-13.17-15.65-20.03-8.44-2.66-2.58-8.74-2.42-11.63 1.26-1.29.24-3.31.67-5.35 1.97-2.58.66-4.76 2.45-4.14 3.62-2.08 1.38-1.53 5.33.45 6.42-.44 1.09.73 2.78 2.51 2.78-.22.77-.8 1.07-1.1 2.01-3.6 1.43-3.19 5.36.64 6.61-3.5 2.86-2.11 8.22 3.82 9.47 12.77 10.53 41.83 3.09 42.69-13.25.22-4.14-2.21-11.01-7.87-12.43zm-25.7-6.16c-1.42-.75-3.08-1-4.71-.95 2.83-3.75 8.54-2.29 9.82-.74-2.03.6-6.5 3.04-6.05 4.61-1.78-1.29-5.35-2.15-8.44-2.03 2.21-1.46 6.95-1.69 9.38-.89zm-14.65 4.04c.31-3.1 10.42-3.32 13.88-.39a1.91 1.91 0 0 0-.38.62c-5-2.93-12.8-1.28-13.51-.22zm14.53-.13c3.77-3.69 11.65-.61 14.61.8 2.71.09 3.11.78.55 1.17-.92 1.41-2.73 3.71-5.04 4.83-5.53 2.69-15.03.84-10.12-6.79zm-15.87 2.68c.4-4.4 12.49-3.8 14.45-1.8-.87 1.56-.82 3.7-.5 4.77-2.54 1.18-14.93 4.73-13.95-2.97zm3.51 6.41c-1.1-.2-1.86-.62-1.86-1.66 3.81 1.76 8.93.15 12.54-1.14.14.17.19.21.31.33-1.62 1.21-2.82 2.27-3.67 3.28-1.63.14-3.38.62-5.54-.09 2.31-.26 4.56-.77 6.88-1.73-3.25.5-6.28 1.44-8.66 1zm2.83 17.41c-3.94-1.21-5.79-5.14-2.46-7.79 4.32.73-.2 1.14.91 3.75 1.66 3.91 19.26 2.76 28.41-1.06 3.64-1.52 5.71-3.94 5.16-5.89-.43-1.5-8.48 3.58-22.91 3.53-11.21.14-17.98-3.14-13.25-6.07-1.01 5.85 21.88 4.65 32.7.54 1.97-.75 3.98-1.09 5.13-.18 1.99 1.57 1.07 4.45-.18 6.14-5.57 7.57-28.32 8.61-33.51 7.02zm21.16-4.34c-4.46 1.6-28.27 3.29-20.15-2.69 1.86.48 3.87.48 5.07.54.8.99 5.04 3.16 15.09 2.15zm-13.11-2.2c15.01.26 21.68-3.67 23.07-3.77-.8 5.66-20.51 6.25-23.07 3.77zm33.95-4.61c-1.17 13.44-26.78 20.9-39.9 12.57 7.43 1.27 22.72-.41 29.92-5.53 3.36-2.39 5.5-8 2.13-10.19-1.17-.76-2.32-1.07-6.2.37-10.93 4.05-37.63 5.64-29.75-2.41 2.91 1.07 5.25.41 5.84.44-.3.55-.61 1.81-.44 2.41.72-2.5 4.23-5.59 4.98-5.69 3.93 3.91 9.74 6.57 17.68 1.09 2.8-2.1-.04-.44-.04-.44l-1.87 1.09c-4.11 2.39-8.4 1.97-9.97 1.05 2.4.17 6.67-.16 10.96-4.5.15-.25.3-1-.14-.47-4.29 5.21-13.22 4.84-14.99 2.91 4.55 1.82 11.61.06 14.95-5.3.63-1.01 2.28-.21 2.06-1.45-.21-1.2-1.94-1.07-3.11-1.25-.86-.4-3.24-1.69-5.75-2.12-3.63-.63-7.08-.59-9.09 1.45-.1-.59 0-1.57 1.83-2.1 4.05-1.54 10.97.53 14.56 2.15.55.04 1.21-.22-.35-.55-5.11-2.99-8.3-3.06-12.52-2.84 4.79-2.32 11.61-1.93 16.31.79-2.93-2.91-8.26-3.45-12.94-2.61 4.05-4.37 10.67-2.53 12.97-1.23 5.91 3.35 5.42 10.37 5.42 10.37 3.55-.86 7.69 5.34 7.43 12zm-7.36-5.49c2.17.52 2.88 1.08 2.97 3.14.73-1.31.46-3.79-2.97-3.14z" fill="#e92639"/></g><use href="#C" transform="rotate(240 615 615)"/><use href="#C" transform="rotate(120 615 615)"/></g><use href="#B" transform="rotate(60 615 615)"/><animateTransform attributeName="transform" type="rotate" from="0 615 615" to="360 615 615" dur="95s" repeatCount="indefinite"/></g><g id="D"><use href="#A" transform="matrix(1.67 0 0 1.67 -412.5 -412.5)"/><animateTransform attributeName="transform" type="rotate" from="0 615 615" to="360 615 615" dur="80s" repeatCount="indefinite"/></g><g id="E"><use href="#D" transform="matrix(1.67 0 0 1.67 -412.5 -412.5)"/><animateTransform attributeName="transform" type="rotate" from="0 615 615" to="360 615 615" dur="65s" repeatCount="indefinite"/></g><g id="F"><use href="#E" transform="matrix(1.67 0 0 1.67 -412.5 -412.5)"/><animateTransform attributeName="transform" type="rotate" from="0 615 615" to="360 615 615" dur="50s" repeatCount="indefinite"/></g><g><use href="#F" transform="matrix(1.67 0 0 1.67 -412.5 -412.5)"/><animateTransform attributeName="transform" type="rotate" from="0 615 615" to="360 615 615" dur="35s" repeatCount="indefinite"/></g></g></g></svg>