<svg xmlns="http://www.w3.org/2000/svg" width="400" height="560" xmlns:v="https://vecta.io/nano"><path d="M0 0h400v560H0z"/><path d="M20 523.73V36.27A10.17 10.17 0 0 1 30.17 26.1h339.66A10.17 10.17 0 0 1 380 36.27v487.45a10.17 10.17 0 0 1-10.17 10.17H30.17A10.16 10.16 0 0 1 20 523.73z" fill="#fc1a05"/><path d="M42 347.35h316v172H42z" fill="#3b0f86"/><path d="M42 44.64h316v473.43H42z" fill="none" stroke="#000" stroke-width="5" stroke-miterlimit="10"/><radialGradient id="A" cx="178.695" cy="230.047" r="153.273" gradientTransform="matrix(1.1328 0 0 0.9786 -5.4203 7.6094)" gradientUnits="userSpaceOnUse"><stop offset="0" stop-color="#065e2e"/><stop offset="1"/></radialGradient><path d="M40.82,77.21H358V332.7H40.82V77.21z" fill="url(#A)"/><path d="M25 354.52h0c0-13.25 10.75-24 24-24h302c13.25 0 24 10.75 24 24h0c0 13.25-10.75 24-24 24H49c-13.25 0-24-10.74-24-24z"/><path d="M31.18 355.52v-2a18.5 18.5 0 0 1 18.5-18.5h300.65a18.5 18.5 0 0 1 18.5 18.5v2a18.5 18.5 0 0 1-18.5 18.5H49.68a18.5 18.5 0 0 1-18.5-18.5z" fill="#fc1a05"/><path d="M35.81 354.52h0a16 16 0 0 1 16-16h296.38a16 16 0 0 1 16 16h0a16 16 0 0 1-16 16H51.81a16 16 0 0 1-16-16z" fill="#f3f2e9"/><path d="M25 57.71h0c0-13.25 10.75-24 24-24h302c13.25 0 24 10.75 24 24h0c0 13.25-10.75 24-24 24H49c-13.25 0-24-10.75-24-24z"/><path d="M31.18 58.71v-2a18.5 18.5 0 0 1 18.5-18.5h300.65a18.5 18.5 0 0 1 18.5 18.5v2a18.5 18.5 0 0 1-18.5 18.5H49.68c-10.22 0-18.5-8.29-18.5-18.5z" fill="#fc1a05"/><path d="M35.81 57.71h0a16 16 0 0 1 16-16h296.38a16 16 0 0 1 16 16h0a16 16 0 0 1-16 16H51.81c-8.84 0-16-7.17-16-16z" fill="#f3f2e9"/><text transform="matrix(1.0294 0 0 1 114.2215 69.8681)" font-family="AcademyEngravedLetPlain" font-size="35.163">THE KING</text><text transform="matrix(.8327 0 0 1 73.271 359.7602)" font-family="ArialMT" font-size="19.648">= 88   Atk = 94  Spd = 66  Ele = royalty</text><g fill="#e30206"><path d="M61.55 363.99l.18-15.82s-4.34-5.6-7.76-1.79c-4.39 4.88 7.58 17.61 7.58 17.61z"/><path d="M61.45 363.72l-.47-15.56h1.27v14.65z"/><path d="M61.55 363.99l.1-15.82s4.34-5.6 7.76-1.79c4.4 4.88-7.86 17.61-7.86 17.61z"/></g><path d="M71.41 518.07l20-46.24h216l20 46.24z"/><path d="M87.91 525.51l10.67-45.06h201.66l11.67 46z" fill="#fc1a05"/><text transform="matrix(1.0294 0 0 1 99.6579 514.8252)" font-family="Impact" font-size="26.924">THE UNPRUNABLES</text><path d="M139.25,201.39h120.56v64.76H139.25V201.39z" fill="#065e2e"/><path d="M175.76,255.4h47.17v75.13h-47.17V255.4z" fill="#0c5e30"/><path d="M150.65,146.99h97.4v54.79h-97.4V146.99z" fill="#005e2b"/><path d="M239.72 188.05l-8.09-9.58-20.58 13.08 24.26-21.37 4.41 17.87zm.73 9.84l-8.82-17.75-23.77 18.26 32.59-.51zm-81.84-10.1l7.96-9.46 20.58 13.08-23.65-21.89-4.89 18.27zm-.73 9.84l8.7-17.62 23.89 18.39-32.59-.77z"/><path d="M162.9 225.09h72.28v22.02H162.9v-22.02z" fill="#c51d0b"/><path d="M167.31,229.62h63.1v12.95h-63.1V229.62z" fill="#fff"/><path d="M218.4 294.26h73.51v36.27H218.4v-36.27zm-111.49 0h72.9v36.27h-72.9v-36.27z" fill="#9e1e14"/><path d="M161.58 273.81l37.58 29.73-19.09 26.97-37.58-29.73 19.09-26.97zm37.61 29.71l37.58-29.73 19.09 26.97-37.58 29.73-19.09-26.97z" fill="#fff"/><g fill="#ac9727"><path d="M205.29 308.25h-12.25 0v1.17h0 12.25 0v-1.17h0zm.49-3.63H192.3v3.11h13.48v-3.11z"/><path d="M200.76 295.81h-3.31v8.94h3.31v-8.94z"/><path d="M199.04 292.31l-3.55 2.72 1.35 4.27h4.41l1.35-4.27c.12 0-3.56-2.72-3.56-2.72zm0 12.44l1.59 1.55 1.59-1.55-1.59-1.55-1.59 1.55zm-1.59-1.56l-1.59 1.55 1.59 1.55 1.59-1.55-1.59-1.55h0z"/></g><g fill="#ac9725"><path d="M120.75 119.4l27.08 47.02s2.82 6.61 2.82 8.55c0 1.55.86 3.24.74 4.79-.12 1.17.12 3.89 1.35 4.53.86.39 3.43 0 4.17-.65 1.05-1.27 1.7-2.85 1.84-4.53-.12-1.94-2.33-5.31-2.7-7.12-.37-1.55-.74-4.92.12-6.35.61-1.17 2.82-3.5 4.29-3.63 2.33 0 5.88 3.24 6.62 4.92s.49 5.57.61 7.51c.25 2.59 1.59 7.64 1.72 10.23.12 1.94-1.23 6.09-.61 7.9.49 1.68 2.45 5.83 4.53 5.57 1.47-.13 2.82-3.24 2.94-4.53.12-1.81-1.35-5.31-1.84-6.99-.74-2.2-2.21-6.61-2.45-8.81-.37-2.59-.37-7.77.12-10.36.37-1.81.98-5.44 2.33-6.86.98-1.04 3.92-2.98 5.27-2.59 2.21.65 3.43 4.92 3.92 6.74.37 1.42 1.23 4.27 1.23 5.83 0 1.55-1.35 4.66-1.23 6.22 0 1.04.37 3.5 1.47 3.89 1.71.29 3.47-.12 4.9-1.17.98-1.3-.12-4.4-.61-5.83l-2.21-6.22c-.37-1.3-1.72-3.89-1.47-5.31s2.08-4.02 3.31-5.05c1.35-1.04 4.53-3.5 6.25-2.98 1.23.26 1.96 2.72 2.21 3.76s.12 3.37.49 4.4c.61 1.3 3.31 3.37 4.04 4.66.98 1.81 1.23 5.96 1.47 7.9l.98 6.48c.25 1.17.74 3.5.74 4.66 0 2.33-.98 6.99-1.1 9.33 0 1.17-.49 3.63.37 4.4 1.58 1 3.47 1.33 5.27.91 1.23-.78 2.08-3.5 1.84-4.79-.25-1.68-2.45-4.53-2.94-6.09-1.84-5.57-2.57-17.62-2.08-23.57.12-1.55-.12-4.79.98-6.09.49-.52 2.33-1.55 3.06-1.3 1.1.39 1.84 2.59 2.08 3.5l1.35 5.44c.12 1.17.12 3.5.12 4.66-.12 1.55-1.23 4.53-.74 5.96.25.91 1.59 2.98 2.7 3.11a4.59 4.59 0 0 0 3.31-1.55c.61-1.3-.74-4.14-1.1-5.44-.86-2.33-2.45-6.99-2.82-9.46-.25-1.89-.25-3.81 0-5.7.37-1.81 1.1-5.57 2.57-6.99 1.1-1.04 4.53-2.85 6-2.59 1.96.52 4.04 3.76 4.66 5.44 1.2 3.45 2.1 7 2.7 10.62.37 2.85.98 8.42.86 11.27-.12 2.07-1.47 6.09-1.35 8.03.12 1.42.37 4.53 1.72 5.31.86.52 3.55.91 4.41.39 1.35-.91 2.21-3.89 2.08-5.18-.25-1.68-2.45-4.4-3.06-5.96-.86-2.07-1.72-6.48-1.96-8.81l-.61-10.88c0-1.68-.12-5.05.37-6.61.37-1.04 1.1-3.37 2.08-4.02.74-.39 2.7-.91 3.43-.52 1.47.78 1.96 4.02 2.08 5.44.12 1.68.12 5.31.12 6.99 0 1.17-.49 3.76-.37 4.92.12 1.17.49 3.76 1.72 4.4.61.39 2.7.39 3.31-.13.86-.65 1.23-2.59 1.1-3.5-.12-1.04-.86-3.11-1.23-4.02-.61-1.42-2.33-3.89-2.7-5.31s-.49-4.4-.37-5.83c.12-1.17-.49-3.89.61-4.66.49-.39 1.84-.39 2.33-.13.86.39 2.08 1.94 2.33 2.85.25 1.04-.12 3.11-.37 4.02-.25 1.04-1.1 2.85-1.1 3.89 0 .78.61 2.59 1.35 2.98.61.39 2.33.65 3.06.26.86-.52 1.59-2.46 1.47-3.24 0-1.04-.86-2.98-1.23-4.02-.74-1.68-2.57-5.05-2.7-6.86-.12-1.17.86-4.66.86-4.66l14.21-41.06-11.88 11.66-12.37 12.31-11.03-27.46-11.88 27.59-13.6-19.43L190 88.44l-10.41 42.48-12.25-11.53L155.06 108v14.38l-.98 16.71-33.33-19.69z"/><ellipse cx="189.73" cy="86.37" rx="4.41" ry="4.66"/><ellipse cx="228.94" cy="95.18" rx="4.41" ry="4.66"/><ellipse cx="264.59" cy="99.84" rx="4.41" ry="4.66"/><ellipse cx="153.96" cy="106.06" rx="4.41" ry="4.66"/><ellipse cx="120.02" cy="118.88" rx="4.41" ry="4.66"/></g><path d="M150.89 149.58l1.59 6.09 5.15 2.85-1.1-6.09-5.64-2.85zm93.36-17.62l-.12 6.35-4.29 4.02-.37-6.09 4.78-4.28z" fill="#b02214"/><path d="M168.17 138.57l-.25 6.61 6.62 3.89-.12-7.12-6.25-3.38z" fill="#3f4ea3"/><path d="M227.1 130.15l2.94 5.7-4.29 6.74-2.94-6.48 4.29-5.96z" fill="#384ea7"/><path d="M195.98 121.99l8.94 10.75-4.29 13.21-9.56-10.36 4.91-13.6z" fill="#b01c16"/><text><tspan font-family="Arial-BoldMT" font-size="30.38" x="98.697" y="415.051">“Death smiles</tspan><tspan x="135.847" y="451.511" font-family="Arial-BoldMT" font-size="30.38">at us all”</tspan></text></svg>