<svg xmlns="http://www.w3.org/2000/svg" viewBox="0 0 21 21"><path fill="none" d="M0 0h21v21H0z"/><path fill="#0f0" d="M9 14v1H8v1H7v1H6v-3h3Zm2 0h-1v1h1v2h1v2h2v-2h-1v-2h-1v-2h-1v1Zm4-2v-1h-1v-1h-1V9h-1V8h-1V7h-1v2H8V7h2V6H9V5H8V4H7V3H6v4h1v2H6v3h6v1h4v-1h-1Z"/><path fill="#fff" d="M6 7h1v1H6v1H5V7h1Zm2 0v2h1V8h1V7H8Z"/><path fill="red" d="M12 12v1h-1v1H6v-1H5v-1h7Z"/><path fill="#00f" d="M5 9H4V7h1v2Zm-1 3v1h1v-1H4Zm2-9h1V2H6V1H5v6h1V3Zm0 6H5v3h1V9Zm0 4H5v5h2v-1H6v-4Zm1-5H6v1h1V8Zm0 9h1v-1H7v1Zm1-1h1v-1H8v1Zm2-10V5H9v1h1ZM9 9h1V8H9v1Zm0 5v1h1v-1H9Zm2-7V6h-1v1h1Zm0 8h-1v2h1v-2Zm1-7V7h-1v1h1Zm0 9h-1v2h1v-2Zm1-8V8h-1v1h1Zm-1 10v1h2v-1h-2Zm2-9V9h-1v1h1Zm-1 7h1v-2h-1v2Zm2-6v-1h-1v1h1Zm-1 8h1v-2h-1v2Zm2-7v-1h-1v1h1Zm0 0v1h-4v2h1v-1h4v-2h-1ZM8 4V3H7v1h1Zm1 1V4H8v1h1Z"/></svg>