<svg xmlns="http://www.w3.org/2000/svg" viewBox="0 0 2400 1800"><path d="M0 0h2400v1800H0" fill="#fff" data-name="Layer 4"/><g data-name="Layer 2"><path d="M152 1732a281 281 0 01-10-174 449 449 0 00 21-82c7-47 0-50 5-70 22-84 171-86 186-163a140 140 0 01 18-56c14-21 25-20 32-36 12-31-16-55 0-77s52-21 59-21c68 0 89 58 160 100a423 423 0 00 206 29 329 329 0 01-116 18 259 259 0 01-124-14c-35-15-49-40-56-35s0 47 27 69 83-10 157 19c30 11 26 19 51 25 43 11 65-11 123-6a119 119 0 01 55 14 331 331 0 00-171 20 182 182 0 00-26 15l100 189 30-114-16-41 24-79 58 8 16 79-24 37 63 167 21-121-8-100 17-85a140 140 0 01-42 17 156 156 0 01-69 0 186 186 0 00 100-38 188 188 0 00 42-45l8-66a100 100 0 01-28 57 77 77 0 01-26 17 80 80 0 01-39 0 65 65 0 00 48-32 60 60 0 00 0-47l100-39a100 100 0 01-12-83c11-26 34-31 62-56a220 220 0 00 56-94l24-84 58-45 117-149a386 386 0 00-36 188 481 481 0 00 10 63 746 746 0 00 34 100c14 34 33 84 53 149a251 251 0 01-81-108 245 245 0 01-17-79 232 232 0 00 17 163 237 237 0 00 139 116 300 300 0 01-160-100 300 300 0 01-63-167 174 174 0 00 0 178l-54-74a734 734 0 00 20 111 820 820 0 00 51 126 1279 1279 0 00 91 163 965 965 0 01-89-114 1270 1270 0 01-100-207s17 49 36 121a668 668 0 01 20 100s-15-47-41-116a165 165 0 00-28-52 171 171 0 00-47-42 413 413 0 01 76 139 386 386 0 01 19 142l87 43 91-5 100-45-72-62a692 692 0 01-80-71 235 235 0 01-52-132 400 400 0 00 90 121c32 28 55 38 100 78 34 27 44 66 82 75a337 337 0 01 36 0 167 167 0 01 67 34 686 686 0 00-41-91 600 600 0 00-67-100 970 970 0 01 73 74 388 388 0 01 87 125 260 260 0 01 17 58 447 447 0 01 51 151 477 477 0 01 0 100Zm1540-984a286 286 0 01 47 100 338 338 0 01-61 275l53 53A315 315 0 00 1800 920a300 300 0 00-108-172Zm119 71a288 288 0 01 68 109 284 284 0 01-34 245 633 633 0 00 0-274 539 539 0 00-34-80Z" fill="#1d1d1b"/><path d="m1522 1024 75 86c34 38 68 75 100 109a300 300 0 01-114-80 291 291 0 01-61-115Z" fill="#1d1d1b"/><path d="M1100 1721a248 248 0 00 57-43 269 269 0 00 42-56c30-48 23-60 46-84A121 121 0 01 1300 1500a164 164 0 01 130 39 227 227 0 01 80 83 209 209 0 01 23 100Z" fill="#fff"/><path d="M1050 1717a47 47 0 00 21 0c9 0 14-10 27-31a347 347 0 01 21-35c14-16 25-15 42-26s23-41 52-75a162 162 0 01 63-46 179 179 0 01 100-9 200 200 0 01 110 69 238 238 0 01 56 158h290a400 400 0 00-18-166 265 265 0 00-84-140 265 265 0 00-176-50 418 418 0 00-211 61c-45 27-83 59-85 56s17-23 37-40 51-33 50-36a116 116 0 00-67 18 200 200 0 00-100 100 150 150 0 01-23 53 143 143 0 01-50 35 155 155 0 00-55 104Z" fill="red"/><path d="M831 1138a205 205 0 01-100-7c-41-15-51-36-100-50a147 147 0 00-84 0 367 367 0 01 70 20 393 393 0 01 63 47c29 11 71 20 151-10Zm206-132a154 154 0 01-28 57 157 157 0 01-63 49l-40-12a200 200 0 00 72-27 171 171 0 00 59-67ZM1000 863a248 248 0 01-24 68 407 407 0 01-130 136L800 1100l-68-26a578 578 0 00 77-36A547 547 0 00 1000 863ZM978 690a464 464 0 01-56 74 1000 1000 0 00-73 78c-25 32-17 35-38 61a253 253 0 01-80 69 369 369 0 00-62 34 200 200 0 00-23 17L571 1000c41-17 51-27 50-35s-20-9-27-25 0-26 0-44a54 54 0 00-24-27c-45-32-57-145-59-162a340 340 0 01 151-331l-44 55L700 380a532 532 0 00-100 144 546 546 0 00-44 145 640 640 0 01 100-100 659 659 0 01 152-92 407 407 0 00-145 185 414 414 0 00-25 178c18-21 44-50 76-83a941 941 0 01 76-72 405 405 0 01 165-74 1678 1678 0 00-148 110 565 565 0 00-118 145c0 7-11 19-7 24s56-15 89-38a382 382 0 00 67-64 447 447 0 01 140-98Zm7 446a119 119 0 01-65 12c-37 0-59-29-63-25s15 42 49 49a82 82 0 00 79-36Zm928-377a500 500 0 01 46 190 513 513 0 01-93 300 675 675 0 00 51-143 734 734 0 00-4-347Z" fill="#1d1d1b"/><path d="M1264 770a356 356 0 01-44-88A1424 1424 0 01 1200 500a281 281 0 00-100-149 350 350 0 00-285-31 485 485 0 00-182 80" fill="none" stroke="#1d1d1b" stroke-miterlimit="10" stroke-width="6"/><path d="M434 1064a147 147 0 01 137-27 1074 1074 0 01 136 43 1344 1344 0 00-137-41 148 148 0 00-133 29ZM529 700a327 327 0 01 110-172 315 315 0 01 189-75 390 390 0 00-185 80A400 400 0 00 529 700ZM660 867a482 482 0 01 86-176 493 493 0 01 142-135 746 746 0 00-137 138 752 752 0 00-91 173Zm353-96a465 465 0 01-60 85 515 515 0 01-81 67 883 883 0 00-152 141 571 571 0 01 148-146 426 426 0 00 80-66c24-25 41-52 65-81Z" fill="#1d1d1b"/><path d="M524 1033a86 86 0 01 39-27c33-10 60 10 145 52s109 48 122 46A177 177 0 01 900 1100a121 121 0 01 41 15c25 13 78 13 200-44" fill="none" stroke="#1d1d1b" stroke-miterlimit="10" stroke-width="6"/><path d="M953 1192a368 368 0 01-112 16c-18 0-28-5-29 0a141 141 0 00 87 15 87 87 0 00 54-31Z" fill="#1d1d1b"/><path d="m732 1291 168 93 162-80" fill="none" stroke="#1d1d1b" stroke-miterlimit="10" stroke-width="6"/><path d="M1531 775a120 120 0 01 9 70c0 24-16 45-16 67s24 35 34 58a100 100 0 01 11 69 164 164 0 00-16-66c-8-21-36-32-35-61s14-45 16-68a229 229 0 00-3-69ZM1582 900a300 300 0 00 34 158c27 49 94 54 125 105a513 513 0 01 25 79 281 281 0 00 43 70 183 183 0 01 12 161 206 206 0 00-21-156 269 269 0 01-43-71c-12-26-10-55-25-78-28-47-100-53-125-100A251 251 0 01 1582 900Z" fill="#1d1d1b"/><path d="M1380 636a247 247 0 01 91-111 267 267 0 01 182-35 423 423 0 01 276 177 272 272 0 01 82 185c0 36-16 36-18 81 0 74 29 109 6 158-10 22-17 16-28 40-21 48 10 72-9 115a356 356 0 01-49 63c-19 23-24 26-27 36-7 28 13 44 8 73s-14 14-26 41-6 35-16 41-34-6-41-10a76 76 0 01-28-32" fill="none" stroke="#1d1d1b" stroke-miterlimit="10" stroke-width="6"/><path d="M1214 812a70 70 0 00-30-49 61 61 0 00-62 0c-32 23-23 106 21 207 100-35 173-86 169-129a62 62 0 00-43-51 66 66 0 00-55 22Z" fill="red"/><path d="M1653 1580a108 108 0 00-11-70 118 118 0 00-85-51 65 65 0 00-35 0 227 227 0 01 61 22 147 147 0 01 51 53 164 164 0 01 19 46ZM1460 159a122 122 0 01 88 33 112 112 0 01 36 84 109 109 0 01-36 84 128 128 0 01-90 33 120 120 0 01-86-33 110 110 0 01-34-83 115 115 0 01 35-85 121 121 0 01 87-33Zm0 31a90 90 0 00-65 24 85 85 0 00-25 63 83 83 0 00 25 62 89 89 0 00 64 24 85 85 0 00 63-25 84 84 0 00 26-62 82 82 0 00-26-61 84 84 0 00-60-25Zm164-28h33v200h100v30h-133Zm287 116h77v100a212 212 0 01-84 18 123 123 0 01-90-33 108 108 0 01-34-82 112 112 0 01 35-85 124 124 0 01 85-37 221 221 0 01 37 0 267 267 0 01 43 16v33a158 158 0 00-80-20 86 86 0 00-63 26 84 84 0 00-25 62 84 84 0 00 25 64 93 93 0 00 66 25 154 154 0 00 47-9v-49h-44Zm198-117h23l100 230H2200l-31-68h-100l-29 68h-33Zm48 133-37-83-34 83Z" fill="#1d1d1b"/></g><path d="M2332 1738H66V60h2266ZM91 1713h2216V85H91Z" fill="#1d1d1b" data-name="Layer 3"/></svg>
