<svg xmlns="http://www.w3.org/2000/svg" width="24" height="24" xmlns:v="https://vecta.io/nano"><path d="M0 0h24v24H0z" fill="#da6e1b"/><path d="M0 0h6v24H0z" fill="#80a0b6"/><path d="M8.69 19.49h6.61V24H8.69z" fill="#946b5a"/><path d="M17 17.11L12.51 24H20zm-10 0L2.5 24h7.39z" fill="#81a0b6"/><path d="M8.6 19.65s-3.68 2.94-4.63 2.1c-.64-.57 1.04-3.28 1.04-3.28l-.63-1.58s-1.34-1.1-1.59-1.61c-.38-.77-.38-2.8.2-3.45.32-.37 1.93-.35 1.93-.35l.34-1.62S3.87 7.39 4.04 6.52c.12-.65 1.76-1.97 1.76-1.97l1.29-.45.96-1.3s5.38-1.1 6.67-.05c.34.28.35 1.74.35 1.74l1.2.03s1.77 1.09 2.22 1.6c.41.45 1.21 2.11 1.21 2.11l-.76 2.84s.93 2.39.81 3.21c-.07.49-1 1.73-1 1.73s.27 2.93-.23 3.71c-.4.62-2.59 1.43-2.59 1.43l-3.27-1.36-4.06-.14z" fill="#746a64"/><path d="M7 9.32c.52-.95 1.2-3.35 2.17-3.78 1.28-.57 4.25.53 5.44 1.29.95.61 2.99 1.89 3.45 2.96.54 1.26.55 4.27.02 5.54-.25.59-1.22 1.44-1.6 1.95-.59.8-1.27 2.75-1.88 3.53-.42.53-2.08 1.67-2.08 1.67l-2.95-.37s-2.3-1.97-2.56-2.93c-.12-.45.19-1.39.15-1.86-.09-.93-1.23-2.51-1.41-3.42-.13-.63 0-1.96.21-2.57.16-.54.76-1.51 1.04-2.01z" fill="#b0806d"/><path d="M15.52 6.11l-3.81 8.4s4.89.16 5.93-1.46c1.27-1.96-2.12-6.94-2.12-6.94z" fill="#4e4743"/><g fill="#996145"><path d="M7.47 17.5l5.77-7.5.6.48-1.43 6.48z"/><path d="M11.4 15.85s3.19-2.11 3.96-.25c.14.33.15 1.08-.88 1.29-.65.14-5.91.01-5.91.01l2.83-1.05z"/></g><path d="M12.8 16.19s1.5.66 1.92.35c.6-.45.2-1.16-.22-1.27-.48-.13-1.7.92-1.7.92z" fill="#563524"/><path d="M14.7 13.48c1.45 0 2.5-1.97 2.5-1.97h-5s1.05 1.97 2.5 1.97z" fill="#996145"/><path d="M14.7 12.91c1.45 0 2.5-1.4 2.5-1.4h-5s1.05 1.4 2.5 1.4z" fill="#fff"/><ellipse cx="14.7" cy="11.63" rx="1.24" ry="1.3" fill="#0a6a2c"/><ellipse cx="14.7" cy="11.63" rx=".43" ry="1.06"/><path d="M14.7 8.05c-1.45 0-2.5 3.46-2.5 3.46h5c-.01 0-1.05-3.46-2.5-3.46z" fill="#996145"/><path d="M4.82 14.45c-.15-.2 1.88-6.43 2.63-7.4 1.09-1.42 3.6-.95 4.88 1.33.72 1.28-3.07.56-4.15 1.55-.73.66-2.87 5.15-3.36 4.52z" fill="#4e4743"/><g fill="#996145"><path d="M5.51 11.06s.65-1.74 1.15-2.11c.72-.53 2.76-1.19 3.56-.77.73.39 1.49 2.87 1.49 2.87h-6.2z"/><path d="M11.71 11.06s-.65 1.74-1.15 2.11c-.72.53-2.76 1.19-3.56.77-.73-.39-1.49-2.87-1.49-2.87h6.2z"/></g><path d="M7.74 13.84L5.9 10.59l3.39-2.02 2.25 2.59z" fill="#fff"/><g stroke="#096c31"><circle transform="matrix(.7072 -.707 .707 .7072 -5.3274 9.3054)" cx="8.57" cy="11.09" r="1.5" stroke-width=".35"/><ellipse transform="matrix(.7069 -.7073 .7073 .7069 -5.3283 9.3117)" cx="8.57" cy="11.09" rx=".72" ry=".68" stroke-width=".4"/></g><path d="M7.74 19.29l1.46-.91 1.48-.27.92.71.88-.96 1.49.03 1.5-.46-1.51 2.74-1.24.86-1.77.28-1.92-.81z" fill="#a2544d"/><path d="M7.81 19.28l3.23.23 1.42-.13s.98-.18 1.29-.36c.45-.26 1.69-1.51 1.69-1.51s-1.44 1.63-2.1 1.87a13.8 13.8 0 0 1-1.73.36 5.65 5.65 0 0 1-1.19-.05c-.57-.14-2.61-.41-2.61-.41z"/><text transform="translate(22.347 23.729)" fill="#7fa0b6" font-family="AcademyEngravedLetPlain" font-size=".239">HNFT PEPE</text></svg>