<svg xmlns="http://www.w3.org/2000/svg" viewBox="0 0 100 100" xmlns:v="https://vecta.io/nano"><defs><linearGradient id="A" gradientTransform="rotate(51.42)"><stop offset="5%" stop-color="navy"/><stop offset="65%" stop-color="purple"/></linearGradient><linearGradient id="B" gradientTransform="rotate(90)"><stop offset="5%" stop-color="indigo"/><stop offset="95%" stop-color="red"/></linearGradient></defs><path d="M0 0h100v100H0z" fill="url(#A)"/><g><g fill="url(#B)"><path d="M50.8 80.9c-2 0-3.3 4.9-4.6 4.6-2 0-4.3-6.9-4.9-5.6-4.9 8.5-5.6-.3-6.9-4.9-2-6.2-14.4 2.3-14.4-6.2s11.5-6.2 6.2-12.8c-13.1-14.8-5.6-42 24.3-41.4 29.2.3 31.2 26.3 22.7 38.1-5.3 7.6 6.9 9.9 6.9 14.4 0 10.5-11.2 1.3-13.1 7.2-4.9 15.8-3.6 5.3-7.6 5.9-1 .3-2.6 3.6-3.9 3.6-1.4.3-2.7-2.9-4.7-2.9z"/><path d="M43.6 69.7c5.6 20 10.5-29.2 0 0h0z"/><path d="M55.7 69.4c-6.5 23-15.4-33.2 0 0h0z"/><path d="M48.2 47c.7-5.6-23.3-.7-17.4 11.5S46.6 61.2 48.2 47zm2.3-5.5c-.7-5.9 26.3 6.9 15.8 20-8.6 10.5-14.8-12.8-15.8-20z"/></g><animateTransform attributeName="transform" attributeType="XML" type="rotate" from="0 50 50" to="360 50 50" dur="60s" repeatCount="indefinite"/></g></svg>