<svg xmlns="http://www.w3.org/2000/svg" fill="none" viewBox="0 0 800 990"><path d="M0 0h800v990H0" fill="#D50606"/><g fill="#121111" clip-path="url(#a)"><path d="M185 15c0 3-90 25 41 13 19 4 86 26 79 17-14-15-120-42-120-30Z"/><path d="M130 50a104 104 0 00-23 65c0 49 37 106 56 88 9-10 6-24-8-44-26-38-28-94-6-116 10-10 14-16 10-16-4 0-18 10-30 24Zm17 130c0 7-7 4-14-7A90 90 0 01 120 140c0-8 7-4 13 7 7 10 14 25 14 33ZM293 45c0 10 56 66 87 88 15 11 3-6-27-37-48-56-60-63-60-50Z"/><path d="M223 144c-14 13-23 30-23 36 0 5-10 19-23 28-17 13-20 21-8 30 8 5 34 50 56 100 42 90 44 150 11 191-7 10-8 18-4 18 5 0-10 28-33 62A296 296 0 00 150 717a130 130 0 01-24 66c-23 21-27 118-7 130 7 4 13 16 13 24 0 10-5 8-14-4-12-16-14-16-7 4 4 14 8 31 8 38 0 6 5 12 13 12 7 0 16-23 22-51 10-56 53-150 69-150 7 0 23-9 37-20 23-20 22-20-16 0-22 10-57 43-76 73-20 30-40 54-44 54-5 0-2-8 6-17 6-8 17-30 21-45 8-26 5-30-15-22-20 7-18 3 6-21 28-27 37-53 32-85-2-7 4-8 12-3 6 4 25 0 40-10 17-13 46-18 82-14 68 8 59-15-16-37-41-14-57-12-73 1-32 27-37 8-8-28l27-32 60 32c56 30 68 43 62 70 0 6 11 17 24 25 28 14 90 177 75 200-4 6-37-23-75-67-36-44-73-80-82-79-11 0-12 3-2 7 10 4 40 36 71 72 43 50 53 72 44 90-7 13-10 31-7 40 12 33 43 17 58-30 13-39 12-59-6-110a529 529 0 01-21-73c0-25 30 8 48 52 16 36 24 43 37 32 15-12 20-6 28 22 7 21 10 42 8 48-1 6 4 8 11 4 7-6 16 10 19 34 4 35 5 31 6-18 2-40-8-84-29-131-37-80-32-117 20-136 25-10 39-23 40-41 1-34 4-58 19-143l12-76c1-10 6-21 12-25a40 40 0 00 9-20c0-22-73-82-130-107-30-15-60-33-66-43-5-9-99-80-116-94-30-24-28-29 5 15A852 852 0 00 540 260c60 23 112 72 103 97-4 14-10 14-24 2-12-11-19-11-19-2 0 8 7 19 13 23 24 15 15 47-14 47-24 0-27-6-19-42 7-29 5-38-5-33-8 5-15 23-15 39 0 22-3 25-12 9-8-10-10-23-7-28 3-5 0-13-6-17-7-6-10 9-7 30 4 22 0 43-8 48-8 6-13-5-13-26 0-28-6-35-22-28-16 6-20 2-13-15 7-20 5-20-12 1-10 15-20 36-20 48 0 12-12 34-27 47-16 15-26 17-26 8 0-10-7-12-15-7-10 6-12-1-5-22 5-18 5-28 0-23-15 13-74-63-74-95 0-33 24-37 36-5a120 120 0 00 32 41c14 10 26 34 28 54 3 28 7 30 14 13 10-28-67-137-96-137-11 0-24 17-28 40-6 21-10 32-11 22 0-9-17-41-37-70l-36-55 28-52c32-59 32-63 0-28Zm26 205c-4 11-8 7-8-8-1-14 3-22 7-17 4 4 5 16 1 25Zm98 99c0 10 12 24 26 32 22 10 31 10 50-13a180 180 0 00 33-58c8-26 8-28 10-2 0 16-11 60-26 100-19 54-25 64-27 38 0-20-9-38-20-44-10-4-20-1-20 4 0 7 7 15 14 18 8 2 16 32 18 68 6 72 19 93 76 116 22 9 36 20 32 24-4 4 3 21 14 38 41 63-12 31-100-61a760 760 0 00-132-113c-40-22-56-64-28-82 6-4 8-17 4-29-6-15-4-19 8-12 8 5 12 21 8 35-6 17 0 26 17 32 15 5 41 30 61 58C390 631 400 640 400 623c0-14-15-40-32-59-19-20-30-41-25-48 4-8-2-20-12-28-22-16-24-21-24-59 0-17-3-18-12-5-10 15-12 13-19-4-5-13-4-19 5-12 11 5 12-1 6-23-8-30-7-29 25 7 19 21 35 47 35 56Zm142-32c-4 10-8 7-8-8-1-15 3-23 7-17 4 4 5 16 1 25Zm38 37c18 7 30 19 26 27-4 7-1 13 7 13 10 0 13-8 10-18a20 20 0 01 13-27c26-10 30-7 34 40 3 35-1 39-30 35-27-4-31-2-16 12 22 24 20 56-4 48-11-6-23-2-28 6-6 10-4 11 6 6 20-12 36 29 18 48-10 9-24 5-48-10-28-18-35-34-36-78l-3-55-8 47c-8 42-10 44-16 13-7-30 19-120 33-120 4 0 23 5 42 13Zm-63 188c-21 14-44-6-30-28 6-10 14-10 27 2 16 13 16 18 3 26Zm-193 8a70 70 0 01-34 0c-9-4-2-6 16-6 19 0 26 2 18 6Z"/><path d="M481 475c0 14 4 18 8 8s3-22-1-26c-4-5-8 3-7 18ZM176 960c0 19 3 25 7 16a70 70 0 00 0-33c-4-8-7-2-7 17Z"/></g><defs><clipPath id="a"><path d="M0 0h800v987H0" fill="#fff"/></clipPath></defs></svg>
