<svg xmlns="http://www.w3.org/2000/svg" width="16" height="16"><path fill="#990d00" d="M0 0h16v16H0z"/><path fill="red" d="M.896 15.104h14.208V.896H.896v14.208Z"/><path fill="#222326" d="M10.325 9.528c0-2.227-1.488-4.05-3.325-4.05-1.829 0-3.326 1.812-3.326 4.05v5.579h6.65V9.528Z"/><g fill="#3cb44b"><path d="M6.19 6.643c-.899 0-1.632.732-1.632 1.632v2.287c0 .904.739 1.632 1.632 1.632a1.64 1.64 0 0 0 1.632-1.632V8.275A1.631 1.631 0 0 0 6.19 6.643z"/><path d="M7.822 6.643c-.899 0-1.632.732-1.632 1.632v2.287c0 .904.739 1.632 1.632 1.632a1.64 1.64 0 0 0 1.632-1.632V8.275a1.631 1.631 0 0 0-1.632-1.632z"/><path d="M7.223 12.536c1.471 0 2.664-.901 2.664-2.013S8.694 8.509 7.223 8.509s-2.665.902-2.665 2.014 1.193 2.013 2.665 2.013z"/></g><path fill="#fff" d="M5.381 8.395a.809.809 0 1 0 1.619 0H5.38Z"/><path fill="#222326" d="M5.79 8.397a.403.403 0 1 0 .805 0h-.806Z"/><path fill="#fff" d="M7.592 8.397a.809.809 0 1 0 1.618 0H7.592Z"/><path fill="#222326" d="M8 8.399a.403.403 0 1 0 .806 0H8Z"/><path fill="#289836" d="M7.057 8.395a.865.865 0 1 0-1.73 0h1.73zm2.211 0a.865.865 0 1 0-1.73 0h1.73z"/><path fill="#4d4d4d" d="M10.338 9.528c0-2.227-1.488-4.05-3.325-4.05-1.829 0-3.326 1.812-3.326 4.05v5.579h1.634s-.737-4.247 0-6.487 2.944-2.472 2.944-2.472 1.226.456 1.731 3.073c.43 2.22 0 5.886 0 5.886h.342V9.528z"/><path fill="red" d="M5.447 10.85c0 .222.13.404.653.404h3.434c.523 0 .664-.182.664-.404s-.14-.405-.664-.405H6.1c-.524 0-.653.182-.653.405z"/><path fill="none" stroke="#800102" stroke-linecap="square" stroke-width=".107" d="M6.177 10.85h3.646"/><path fill="#5d412b" d="M12.21 15.105h.661V3.138h-.661v11.967Z"/><path fill="#9c9c9c" d="M8.671 3.135c-1.778 0-3.235.815-3.235 1.81.6-.432 1.521-.707 2.57-.707h4.216V3.135H8.67Z"/></svg>