<svg xmlns="http://www.w3.org/2000/svg" viewBox="0 0 102400 102400"><path d="M75081 57160a12026 12026 0 10 24052 0 12026 12026 0 10-24052 0" fill="#fae2dd"/><path d="M85510 95902H17867a177 177 0 01-176-176V6670a177 177 0 01 176-176h67645a177 177 0 01 176 176v89054a180 180 0 01-180 177" fill="#ef982d"/><g fill="#fae2dd"><path d="M2130 57160a12026 12026 0 10 24053 0 12026 12026 0 10-24052 0"/><path d="M11370 53710a40319 40319 0 10 80637 0 40319 40319 0 10-80637 0"/></g><path d="M53392 70534c-2935 0-5312 2377-5312 5313s2377 5312 5312 5312 5313-2377 5313-5312a5314 5314 0 00-5312-5313zm0 7016a1703 1703 0 11 0-3407 1703 1703 0 11 0 3408" fill="#8a3f37"/><path d="M17600 33235a34071 24955 0 10 68142 0 34071 24955 0 10-68142 0" fill="#ef982d"/></svg>
