<svg xmlns="http://www.w3.org/2000/svg" width="600" height="600" shape-rendering="geometricPrecision" image-rendering="optimizeQuality" fill-rule="evenodd" fill="#FF9900" xmlns:v="https://vecta.io/nano"><path d="M411.06 147.92c-24.42-1.95-37.49 5.39-22.37 30.01 15.81 25.76 90.09 10.04 121.5 93.99 35.71 95.45-65.53 185.3-152.89 207.04-110.48 27.49-277.31-9.81-274.72-151.44 2.63-144.58 232.67-232.04 357.53-192.11 27.89 8.93 34.15 12.65 30.26-27.49-4-41.32-152.88-18.63-179.45-11.69C157.6 131.01 15.94 245.9 78.13 398.84c86.83 213.53 490.99 116.76 456.74-119.05-10.32-71.07-57.96-111.45-123.81-131.87z"/><path d="M204.75 392.93c-4.97 14.69-25.28 4.81-14.97-11.42.05-.08 20.44-4.18 15.8 9.04l-.83 2.38zm31.28 60.31c3.8 11.45-4.03 31.02-18.74 1.87-3.74-7.41-32.53-48.43-10.64-52.03 9.63-1.59 25.82 41.84 29.38 50.16zm66.89-29.58c3.4 10.05-7.55 21.96-23.21-3.84-.12-.2-30.42-59.78-28.67-24.21 1.15 23.27 35.54 56.33 4.03 56.45-1.73 0-47-78.63-39.77-81.4 22.06-8.46 16.09-13.72 27.47 7.64.32-.2 6.59-64.4 53.01 30.29l7.14 15.07zm32.01-5.94c-5.1 8.03-26.29 18.38-15.97-18.04 10.35-36.51-57.42-6.25-28.42-64.28 9.4-18.81 30.61-16.5 18.26 15.89-13.27 34.8 59.56-3.77 26.13 66.43zm7.66-94.87c-4.7 14.44-25.76 4.54-15.11-11.35.22-.32 20.27-4.12 15.88 9.05l-.77 2.3zm30.58 59.09c4.83 14.18-3.28 33.13-19.3.89-.98-1.97-28.15-53.39-8.75-50.49 8.62 1.29 24.69 41.61 28.05 49.6zm59.48-15.72c1.73 9.22-8.72 11.07-14 2.65-11.04-17.62-.16 22.36-25.15 11.12-14.07-6.33-24.72-42.72-6.05-61.58 7.19-7.26-24.52-39.51 5.03-38.13 8.86.42 36.37 74.17 39.01 82.36l1.16 3.58zm-35.61-37.39c-9.13-11.27 1.88 64.82 9.36 24.74 1.4-7.52-5.41-18.77-9.36-24.74zm80.64 14.87c-59.52 34.27-76.86-103.86-27.44-89.52 21.44 6.22 21.57 39.71 1.48 57.38-5.36 4.72 5.21 34.93 15.78 6.71 13.17-35.17 35.72 3.8 10.18 25.43zm-33.53-70.82c-11.5 14.49 10.25 50.74 6.97 7.96-.25-3.25-2.25-11.56-6.97-7.96zm-297.04 21.86c1.29 8.83-4.08 14.08-8.16 23.22 33.47 12.33 41.78 80.63 10.95 31.61-8.38-13.34-33.08-33.56-15.35-.9 1.7 3.15 20.62 39.24 6.81 36.04-6.05-1.39-51.6-75.55-47.69-81.95 11.57-18.97 22.21 9.48 26.96 16.68 6.17-12.92 20.32-60.18 26.48-24.7zm70.98 51.41c-49.23 39.4-84.11-94.48-30.93-89.25 22.45 2.2 26.83 36.87 4.04 58.5-4.28 4.06 5.64 34.25 16.26 6.21 12.74-33.62 34.99-.82 10.63 24.54zm-33.98-69.89c-11.41 14.9 10.19 50.39 6.95 7.98-.25-3.21-2.27-11.77-6.95-7.98zm111.56 21.1c-13.9 32.25-57.37 6.09-72.73-19.2-5.99-9.85-27.94-40.45 1.48-38.66 7.08.43 31.48 60.18 49.28 54.48 13.13-4.21-44.91-77.71-14.64-77.27 9.87.14 43.98 61.04 37.32 78.76l-.71 1.89zm1.62-80.46c-4.79 14.49-25.43 4.85-15.01-11.41.05-.07 20.38-4.19 15.83 9.05l-.82 2.36zm30.14 58.03c5.85 17.03-2.85 34.39-19.52.59-1.74-3.54-27.93-50.99-7.85-48.85 8.57.91 24 40.14 27.37 48.26zm68.13-27.07c3.21 9.66-7.6 21.85-23.39-4.17-.12-.19-30.53-59.8-28.63-24.09 1.19 22.26 34.88 56.25 4.38 56.99-1.67.04-47.05-79.03-40.25-81.7 22.42-8.8 16.15-14.35 27.85 7.91-.05-39.83 29.11-16.68 41.7 7.57 6.12 11.81 12.99 25.39 18.34 37.49z" fill-rule="nonzero"/></svg>