<svg xmlns="http://www.w3.org/2000/svg" width="24" height="24" xmlns:v="https://vecta.io/nano"><path d="M0 0h24v24H0z" fill="#f13516"/><path d="M1.46 1.5h21v21h-21z"/><text transform="translate(20.862 22.293)" fill="#007838" font-family="AcademyEngravedLetPlain" font-size=".239">HNFT PEPE</text><ellipse cx="12" cy="12.59" rx="8.5" ry="8.45" fill="#f03717"/><path d="M10.92 9.01h2.45v2.33h-2.45zm4.69-1.07c0-.86.3-1.86-1.08-2.62-.51-.28-1.23 1.62-1.41 1.9-.5.75-.81.79-.19.79.61 0 2.68.79 2.68-.07z"/><path d="M13.07 7.13c-.28-1.1-.93-2.08-1.65-2.15-.73-.06-1.44.78-1.82 2-.36 1.17-.92 2.32-.05 1.96.67-.28 3.82-.61 3.52-1.81z"/><path d="M14.31 8.53s-.02-2.44-.22-2.39c-.48.14-1.1.4-1.41-.08-.3-.46-.96 2.47-.96 2.47h2.59zm1.85.24c-.16.2-.99-.37-.99-.37l.33-.61c0-.01.74.87.66.98z"/><path d="M12.76 10.95c-1.47.05-3.92-1.89-3.63-2.2.79-.85 7.89-1.03 7.03.26-.38.59-2.55 1.91-3.4 1.94zm2.92-4.45c-.14-.55-.51-.59-.51-.59l-.28.85.62.59c0-.01.33-.22.17-.85zM9.19 21.31s.3-1.82-.12-2.04c-.21-.11-.63.39-.87.41-.56.05-1.7-.91-1.65-1.43.16-1.89.75-4.06 1.05-5.38.04-.19.28-.08.43-.22.11-.11.26-.54.26-.54l.59.46.33-.23.32-.22.31-.28 1.09-.77 1.22.19c.31.01 1.23-.19 1.48-.11.18.06-.14.48-.03.6.23.25 2.09.72 2.55 1.21.69.74.5 2.88.67 3.84l.14 1.03c.01.23-.01.73-.17.91-.2.22-.9.33-1.09.56-.29.35-.46 2.11-.46 2.11l-6.05-.1z"/><path d="M8.28 12.36l.05-.24s-.11-.14-.13-.2c-.03-.09 0-.27-.02-.36-.04-.15-.19-.45-.16-.61s.38-.57.38-.57l1.1-.32s.46.26.53.41c.04.09-.04.29 0 .37.03.07.15.18.16.25.01.06-.04.17-.07.22-.04.05-.16.13-.18.19s.04.19.04.26c-.03.24-.23.87-.23.87l-.73.09-.74-.36z"/><path d="M7.96 12.7c.05-.22.32-.62.32-.62s.32.44.47.49c.16.05.51-.02.68-.02.09 0 .29-.04.36.02.11.1.01.43-.03.56-.03.11-.19.3-.28.37a1.21 1.21 0 0 1-.65.16c-.14-.02-.36-.19-.48-.25-.09-.05-.3-.16-.33-.25s.1-.27.09-.36c-.01-.03-.15-.06-.15-.1zm2.53-1.33l.39-.27.13.07s.54.23.63.38c.03.05-.02.18-.01.24.02.18.17.53.28.68.02.04.06.13.11.13.21.02.68-.5.68-.5l.2.13c.12.07.29.22.4.27.14.07.26.04.29.08.3.47.17 2.21.17 2.21s-.09 2.6-.27 2.6c-.14-.01-.85-2.33-1.19-3.11-.31-.71-.73-2.36-1.39-2.82-.1-.06-.42-.09-.42-.09zm-.2 6.12l.71-.02s.18.59.17.79c-.02.21-.3.77-.3.77l-.71-.06s.24-.59.25-.8c.01-.19-.12-.68-.12-.68zm4.14-3.21l-.12.35 1.09.25s.01-.3-.05-.37c-.16-.16-.92-.23-.92-.23z" fill="#fff"/><ellipse cx="8.74" cy="12.89" rx=".15" ry=".14"/><ellipse transform="matrix(.5 -.866 .866 .5 -10.9794 18.5698)" cx="10.59" cy="18.79" rx=".16" ry=".12"/><path d="M8.35 9.01l-.27.08-.3-.17-.01-.27.25-.16c.03-.03.08-.09.09-.15.01-.07.01-.18-.1-.21-.06-.01-.13.02-.17.03a1.6 1.6 0 0 0-.3.13c-.15.07-.55.49-.55.49l-.22.96s.5 1.09.58 1.07c.05-.02-.37-1.09-.37-1.09l.25-.68.2.14.03.39-.13.17.04.37.12.04-.06.17.22.28.15.01-.01.16.27.27.15-.03.01.18 1.22-.72.05-.29.05-.24-.2-.31-.14.01-.05-.15-.29-.2-.19.01-.01-.13-.31-.16z"/></svg>