<svg xmlns="http://www.w3.org/2000/svg" width="24" height="24" xmlns:v="https://vecta.io/nano"><path d="M0 0h24v24H0z"/><path d="M.75.75h22.5v22.5H.75z" fill="#fff"/><path d="M1.7 1.75h20.5v20.5H1.7z" fill="#eb3123"/><path d="M8.12 8.25l.36.56-1.16.87-.21-.33c-.03-.04-.05-.14-.05-.19 0-.06.05-.22.05-.22" fill="#634613"/><path d="M17.24 12.18s-.06.21-.1.27a1.07 1.07 0 0 1-.18.19c-.05.04-.11.08-.18.12-.05.03-.35.16-.35.16l.06-1.44.66.08.09.62z" fill="#634615"/><path d="M9.88 6.85c-.45.08-1.14.77-1.43 1.12-.32.38-.95 1.16-1.18 1.59-.25.49-.61 1.53-.73 2.06-.12.51-.34 1.55-.35 2.08-.01.8.14 2.42.41 3.18.27.78.99 2.31 1.58 2.9.49.49 1.67 1.34 2.36 1.5.54.13 1.71.12 2.23-.07a5.58 5.58 0 0 0 1.56-1.01c.51-.53 1.36-1.73 1.66-2.39.22-.47.54-1.46.62-1.96.08-.55.09-1.67.06-2.23-.06-1.24.31-3.93-.45-4.95-.94-1.28-4.71-2.13-6.34-1.82z" fill="#073817"/><path d="M11.11 7.4c-.7-.02-2.09.74-2.45 1.32-.17.28-.13.98-.22 1.3-.17.62-.84 1.77-1.21 2.31-.24.35-.92.96-1.04 1.37-.22.78.11 2.43.41 3.18.3.76 1 2.3 1.58 2.9.48.49 1.67 1.34 2.36 1.5.54.13 1.71.12 2.23-.07a5.58 5.58 0 0 0 1.56-1.01c.51-.53 1.36-1.73 1.66-2.39.22-.47.56-1.45.62-1.96.08-.77-.04-2.32-.15-3.09-.09-.61-.13-1.89-.45-2.42-.71-1.19-3.45-2.9-4.9-2.94z" fill="#15551d"/><path d="M13.18 7.96c-.85-.15-2.79.19-3.35.81-.2.23-.15.88-.27 1.15-.2.45-1.08 1.05-1.37 1.45-.36.49-1.18 1.77-1.13 2.37.05.57.33 1.87.58 2.38.27.56.43 2.12.78 2.65.55.83 2.75 1.89 3.78 1.81.87-.06 2.39-1.54 2.76-2.29.24-.49.26-1.6.39-2.12.1-.4.57-1.12.65-1.53.14-.76.02-2.36-.29-3.07-.13-.3-.68-.76-.79-1.07s.2-1 .09-1.31c-.18-.51-1.28-1.13-1.83-1.23z" fill="#168133"/><path d="M10.44 12.36c0-.1.31-.09.36-.18.05-.08.01-.24.02-.33.01-.11.06-.24.17-.27.07-.02.22-.1.28-.07.12.08.25.37.2.5-.05.16-.35.4-.51.47-.09.04-.39.03-.39.12" fill="#488e37"/><path d="M7.28 13.57l.44-.69 1.02-.76c.3-.17 1.14-.34 1.37-.24.3.14 1.13 1.4 1.02 1.78-.04.14 0 0 0 0s-.17.54-.38.71c-.21.18-1 .81-1.26.87-.25.06-1.11.25-1.36.13-.27-.13-.89-1.13-.89-1.13l-.36-.29.4-.38z" fill="#125624"/><path d="M9.51 13.11c-.32 0-1.73.49-1.86.86-.03.09.31.79.44.9.12.1.29.28.49.3.25.03.82-.09 1.07-.17.24-.07 1.15-.85 1.36-1.15.02-.03.03-.27.01-.29-.35-.32-1.07-.45-1.51-.45z" fill="#ebc7c7"/><path d="M8.56 13.38c-.18.11.24.66.43.76.2.1.7.14.9.04.21-.11.75-.86.51-.96-.46-.19-1.31-.17-1.84.16z"/><path d="M12.61 14.07c.22.97.65 1.91 1.24 2.72-.01-.02-.03-.04-.04-.06" fill="#093818"/><path d="M13.01 12.89c-.11.01-.32-.14-.37-.23a.86.86 0 0 1-.05-.5 1.3 1.3 0 0 1 .27-.43c.03-.04.09-.15.14-.14.12.03.09.35.14.46s.34.22.37.34c.03.16-.32.48-.5.5z" fill="#488e37"/><path d="M16.43 13.69l-.3-.38-1.2-.98c-.29-.19-1.12-.39-1.35-.3-.31.12-1.2 1.35-1.1 1.73.03.14 0 0 0 0s.15.54.34.73c.2.18.96.85 1.21.93.25.07 1.1.3 1.35.19.27-.12.74-.73.74-.73l.31-.78v-.41z" fill="#125624"/><path d="M14.13 13.28c.32.01 1.71.57 1.81.94.03.09-.09.48-.18.64-.07.14-.3.54-.5.55-.26.02-.98-.13-1.23-.22-.24-.08-1.25-.93-1.45-1.24a.71.71 0 0 1 0-.29c.38-.3 1.1-.4 1.55-.38z" fill="#ecc7c7"/><path d="M15.06 13.6c.17.12-.27.65-.46.74-.21.09-.71.11-.9 0-.2-.12-.71-.89-.46-.98.45-.18 1.31-.12 1.82.24z"/><path d="M10.96 14.08c-.42 1.04-.85 2.11-1.55 2.9" fill="#093818"/><path d="M11.07 19.93s-.53.22-.54.38c-.01.2.37.45.58.55.2.09.94.31 1.16.26.22-.06.68-.41.73-.6.05-.17-.46-.52-.46-.52l-1.47-.07z" fill="#0f8137"/><path d="M11.26 20.04s-.38.16-.38.28c-.01.15.26.34.41.41s.67.23.83.19.49-.31.52-.44-.33-.39-.33-.39l-1.05-.05z" fill="#468e3a"/><path d="M11.54 17.57s-.15-.28-.15-.38c-.01-.11.03-.26.09-.36.06-.09.22-.35.34-.35.1 0 .29.26.35.35.07.11.14.36.14.48.01.12-.03.33-.03.33l-.74-.07z" fill="#488e37"/><path d="M8.88 18.22l1.28-.51s.68-.23.99-.24c.17 0 .77.13.77.13s.41-.14.63-.09a39.64 39.64 0 0 1 1.3.35l.81.44s-.33.36-.48.46c-.28.19-1.23.75-1.63.75-.34 0-.83-.02-1.22.05-.51.1-1.49-.6-1.86-.84-.23-.15-.59-.5-.59-.5z" fill="#ec2b24"/><path d="M8.87 18.22l1.26-.04s.89-.18 1.19-.18c.13 0 .52.11.52.11l.78-.1c.51 0 2.01.29 2.01.29l-1.45.13-1.34.09c-.29 0-.88-.01-1.17-.04l-1.8-.26zm.55.81s.58.67.84.8c.22.11.97.19.97.19s1.05.07 1.39-.01c.22-.05.64-.23.81-.38l.69-.61-.68.49c-.18.13-.59.32-.81.37-.28.07-1.17.03-1.17.03s-.84-.07-1.1-.18c-.27-.1-.94-.7-.94-.7z"/><path d="M9.23 17.15c-.12.11-.32.27-.49.22-.2-.07-.32-.49-.31-.67.02-.17.06-.33.19-.47.1-.1.42-.27.57-.32.11-.04.48-.29.58-.23.14.09.01.41-.02.56a2.95 2.95 0 0 1-.52.91z" fill="#4a8e32"/><path d="M13.46 15.68c0 .45.26.76.36 1.07.02.07.31.44.39.42.12-.02.5-.1.52-.21.02-.16-.03-.33-.1-.48-.06-.14-.45-.46-.6-.53-.12-.05-.57-.38-.57-.27zm-1.67-2.16c.02.15.18.69.33.67.17-.03-.01-.59 0-.75.02-.22.17-.64.22-.85.04-.17.16-.51.11-.67-.04-.13-.24-.44-.38-.41s-.17.38-.23.51c-.07.14-.34.32-.4.46-.02.04-.03.15 0 .19.07.07.35 0 .42.08.13.14-.1.57-.07.77z" fill="#488e37"/><path d="M17.24 12.18l2.28-5.1s-.91 1.25-1.32 1.22c-.36-.02-.47-.67-.55-1.01-.17-.69-.26-2.83-.26-2.83s-1.03 1.37-1.56 1.55c-.51.18-1.75.13-2.16-.23-.54-.46-1.04-2.6-1.04-2.6l-1.37 1.45c-.39.3-1.27 1.14-1.72.94-.48-.19-.6-1.86-.6-1.86L7.11 8.94s1.75-.65 2.37-.69c.81-.05 2.44.24 3.19.54.73.29 2.33.86 2.76 1.51" fill="#e2a625"/><g fill="#eeaa29"><ellipse transform="matrix(.9942 -.1077 .1077 .9942 -.3494 .9797)" cx="8.9" cy="3.73" rx=".4" ry=".34"/><ellipse cx="12.64" cy="3.06" rx=".45" ry=".44"/><circle cx="19.5" cy="7" r=".37"/><ellipse cx="17.4" cy="4.29" rx=".45" ry=".44"/></g><ellipse transform="matrix(.9544 -.2984 .2984 .9544 -1.6044 3.0629)" cx="9.23" cy="6.79" rx=".5" ry=".51" fill="#3591c3"/><ellipse transform="matrix(.9972 -.0746 .0746 .9972 -.5732 1.1591)" cx="15.23" cy="8.25" rx=".5" ry=".47" fill="#b42213"/><path d="M16.85 8.92c-.08.11-.18.2-.24.32s-.06.29.04.37c.06.06.15.07.24.05.08-.01.16-.05.24-.08.15-.06.31-.09.46-.05s.29.17.3.33c.01.11-.04.22-.09.32a1 1 0 0 1-.18.26 1.23 1.23 0 0 0 .14-.57c0-.03 0-.07-.02-.1s-.05-.06-.08-.08a.64.64 0 0 0-.19-.08c-.22-.04-.44.13-.67.12a.47.47 0 0 1-.26-.11c-.03-.03-.06-.05-.08-.09s-.03-.09-.03-.13a.51.51 0 0 1 .15-.35c.09-.09.22-.14.27-.13zm-5.11-2.2c-.06.14-.15.26-.18.41s.01.32.15.39c.09.04.2.03.29-.01s.17-.1.25-.15c.16-.1.33-.18.52-.18s.38.11.44.28c.04.12.02.25-.01.37s-.07.23-.14.33c.05-.21.05-.44 0-.65-.01-.04-.02-.08-.05-.1-.03-.03-.07-.05-.11-.06-.08-.02-.16-.04-.24-.03-.27.02-.47.26-.74.3a.58.58 0 0 1-.34-.05c-.04-.02-.09-.04-.12-.08a.54.54 0 0 1-.07-.13.52.52 0 0 1 .07-.42c.08-.12.22-.21.28-.22z" fill="#805a14"/><text transform="translate(20.793 22.187)" font-family="AcademyEngravedLetPlain" font-size=".233">HNFT PEPE</text></svg>