<svg xmlns="http://www.w3.org/2000/svg" width="24" height="24" xmlns:v="https://vecta.io/nano"><path d="M0 0h24v24H0z"/><path d="M.8 7.8h2.25v6.07H.8z" fill="#ccfcfe"/><path d="M0 0h23.96v6.25H0z" fill="#01540e"/><path d="M17.45 9.78h5V22.4h-5z" fill="#ccfcfe"/><path d="M17.86 0h6.1v6.65h-6.1zM0 15.25h15.73V24H0z" fill="#01540e"/><g stroke-width=".1" stroke-miterlimit="10"><path d="M4 17.68h10.28v6.25H4z" fill="#453b32" stroke="#000"/><path d="M5.68 15.25L4 20.07s5.26 3.33 6.25 2.02c1.24-1.64-4.57-6.84-4.57-6.84z" fill="#7d8c7e" stroke="#fff"/></g><path d="M5.94 19.8v-3.13l10.4-3.8-1.5 6.07z" fill="#3f660c"/><path d="M5.33 5.18l6.04-3.3 5.16 2.17-.79 6.24 1.33.1 1.08.9-.2 1.86-1.21.11-1.01 2.06-.39-1.74-1.91 1.88c-.43.34-1.86 1.15-1.86 1.15s-.7 1.26-1.11 1.45c-.81.37-2.79.25-3.57-.18-.43-.24-1.34-1.41-1.34-1.41l-.8-1.92-.3-5.93.88-3.44z" fill="#498200"/><path d="M4.86 10.85l.53-3.9H4.33z" fill="#170f05"/><path d="M4.33 6.95l-.54 3.9h1.07z" fill="#4c4c4e"/><path d="M3.9 10.1l-.24-3.67.71-1.39.87 1.91z" fill="#d1ccd2"/><path d="M5.24 7.34l-.87-2.3.76-3.1L6.99 4.3z" fill="#433e42"/><path d="M5.13 1.94l1.86 2.4 4.78-1.41z" fill="#d4cfd5"/><path d="M5.13 1.94l3.32.49L9.9.4z" fill="#2d282c"/><path d="M13.74 4.08l-.07-2.83 5.35 3.37-3.8 1.36z" fill="#141412"/><path d="M15.22 5.98l2.79-1 1.85 2.73-3.77 2.79z" fill="#e3e2e8"/><path d="M8.45 2.43L9.9.4l4.37.57-.53 3.11z" fill="#6b6863"/><path d="M14.17 1.56l1.05 4.42 3.55-2.96z" fill="#676975"/><path d="M19.86 7.71l-3.77 2.79 2.01 1.25z" fill="#4c4044"/><path d="M15.34 13.58L14.5 8.9l.72-2.92.97 4.58z" fill="#221912"/><path d="M15.96 13.46l.68-2.05.81.8-.74.31z" fill="#375411"/><path d="M6.99 5.76l-.19-.68 3.7.59-.94.98z" fill="#676975"/><g fill="#274007"><path d="M5.71 6.42s-1.47-1.05-.68-1.15c1.25-.16 5.41 1.45 5.41 1.45l-.05 1.11-4.68-1.41z"/><path d="M5.9 9.61s-1.32 1.1-.52 1.1c1.28 0 5.21-1.89 5.21-1.89l-.21-.99L5.9 9.61z"/></g><path d="M10.39 7.84L5.78 6.45v3.27z" fill="#fff"/><ellipse transform="matrix(1 -.007483 .007483 1 -.0599 .0435)" cx="5.78" cy="8.03" rx=".64" ry="1.41"/><ellipse transform="matrix(.9998 -.0184 .0184 .9998 -.1478 .1015)" cx="5.44" cy="8.08" rx=".17" ry=".78" fill="#fff"/><path d="M9.839 7.574l.538.115-.584 2.738-.538-.115z" fill="#617548"/><path d="M8.59 12.79l1.75-6.1.89.3s1.7 4.63.29 5.54c-.4.25-2.93.26-2.93.26z" fill="#375411"/><path d="M10.32 6.72l-3.77 4.73 2.04 1.34z" fill="#617548"/><path d="M9.86 12.27s1.14.32 1.53.05c.24-.17.61-.86.31-.95-.48-.16-1.84.9-1.84.9z"/><ellipse transform="matrix(.5744 -.8186 .8186 .5744 -6.2442 11.3613)" cx="7.8" cy="11.69" rx=".33" ry=".91"/><path d="M11.65 7.7c-.35-1.19-.83-3.07-.09-3.56.75-.49 1.88.75 3.03 1.91.35.35-1.96.11-1.96.11s-.85 1.97-.98 1.54z" fill="#676975"/><path d="M11.84 9.05c-.39-.97-.07-4.66-.07-4.66s3.31 1.86 3.72 2.88c.38.93-.1 3.85-.1 3.85s-3.19-1.18-3.55-2.07z" fill="#274007"/><g stroke="#000" fill="#fff"><path d="M12.06 8.89c-.37-.95-.14-4.21-.14-4.21s2.91 1.77 3.29 2.59c.48 1.04.04 3.56.04 3.56s-2.78-.91-3.19-1.94z" stroke-width=".1" stroke-miterlimit="10"/><circle cx="13.67" cy="8.07" r="1.25" stroke-width=".6"/></g><path d="M5.68 19.8l8.59 1.99.65-3.24z" fill="#7d8c7e" stroke="#fff" stroke-width=".1" stroke-miterlimit="10"/><text transform="translate(22.347 23.729)" fill="#01540e" font-family="AcademyEngravedLetPlain" font-size=".239">HNFT PEPE</text><g stroke="#000" fill="#afdcfa" stroke-width=".2"><path d="M4.15 6.13H7.4v3.97H4.15z" opacity=".341" stroke-miterlimit="10"/><circle cx="13.65" cy="8.11" r="2.3" opacity=".341"/></g><path d="M7.4 7.35h4.04v.2H7.4z" opacity=".341"/><path d="M5.39 14.48l.86-.7s.46-.4.67-.41c.25 0 .79.46.79.46l.62.61.8-.37.58-.25s.66-.33.9-.29c.25.04.68.57.68.57l.47.49.48.48-1.3.75c-.24.09-.74.23-1.01.25-.31.02-.96-.01-1.25-.11-.16-.05-.56-.32-.56-.32s-.71.24-.97.25a2.82 2.82 0 0 1-.88-.19c-.17-.09-.49-.31-.59-.45-.12-.18-.29-.77-.29-.77z" fill="#d40000"/><path d="M5.47 14.51l1.47.12 1.4.27 2 .05 1.82.14-1.84-.09-1.99-.04-1.39-.27z"/><path d="M11.44 16.23l1.08-1.02-.1-2.65.2 2.69zM5.2 14.5l.58-2.58-.49 2.6.05.68zm3.87-9.86l1.78.28-1.78-.14-.55.21zm1.05-.52L8 4.46l2.11-.17.66.28z" fill="#274007"/><path d="M19.95 17.89l.18.58h.57l-.46.35.17.57-.46-.35-.46.35.17-.57-.46-.35h.57z" fill="#f5cb21"/></svg>