<svg viewBox="0 0 783 261" xmlns="http://www.w3.org/2000/svg" xml:space="preserve" style="fill-rule:evenodd;clip-rule:evenodd;stroke-linejoin:round;stroke-miterlimit:2"><g transform="scale(3 1)"><path style="fill:none" d="M0 0h261v261H0z"/><clipPath id="a"><path d="M0 0h261v261H0z"/></clipPath><g clip-path="url(#a)"><path d="M0 0h261v261H0z"/><path d="m97.283 1018.59-7.561 3.71v-27.877l7.561-3.71v27.877zm10.265-5.04-7.561 3.71v-27.877l7.556-3.71h.005v27.877zm2.704-1.33v-27.877l7.561-3.71v27.877l-7.561 3.71z" style="fill:#fff" transform="matrix(.59675 0 0 1.79026 -6.444 -1664.006)"/><path d="M87.086 1014.8v7.5l-28.056-13.77v-7.5l28.056 13.77zm0-10.19v7.5L59.03 998.34v-7.5l28.056 13.77zm0-10.19v7.51L59.03 988.16v-7.51l28.056 13.77z" style="fill:#ff9500" transform="matrix(.59675 0 0 1.79026 -6.444 -1664.037)"/><g><path d="M147.814 980.526v-10.721h-3.747l-2.34 5.598-2.34-5.598h-3.747v10.721h3.089v-5.873l1.836 4.833h2.324l1.836-4.833v5.873h3.089zM157.25 979.012l.536 1.514h3.777l-4.358-10.721h-3.64l-4.527 10.721h3.64l.55-1.514h4.022zm-.871-2.539h-2.233l1.132-3.135 1.101 3.135z" style="fill:#fff;fill-rule:nonzero" transform="matrix(.59675 0 0 1.79026 -6.444 -1569.835)"/><path d="M169.409 974.837v2.493c-.52.214-1.04.351-1.407.351-1.392 0-2.416-1.07-2.416-2.554 0-1.453 1.009-2.523 2.386-2.523.887 0 1.927.443 2.645 1.132l2.004-2.432c-1.147-1.01-2.967-1.652-4.634-1.652-3.503 0-6.041 2.309-6.041 5.475 0 3.181 2.447 5.506 5.811 5.506 1.53 0 3.503-.581 4.696-1.376v-4.42h-3.044z" style="fill:#fff;fill-rule:nonzero" transform="matrix(.59675 0 0 1.79026 -6.444 -1569.753)"/><path d="m181.675 979.012.535 1.514h3.778l-4.359-10.721h-3.64l-4.527 10.721h3.64l.551-1.514h4.022zm-.872-2.539h-2.233l1.132-3.135 1.101 3.135zM196.48 972.023v-2.218h-9.544v2.722h4.818l-5.001 5.782v2.217h9.834v-2.722h-5.109l5.002-5.781z" style="fill:#fff;fill-rule:nonzero" transform="matrix(.59675 0 0 1.79026 -6.444 -1569.835)"/><path style="fill:#fff" d="M198.269 969.805h3.548v10.721h-3.548z" transform="matrix(.59675 0 0 1.79026 -6.444 -1569.835)"/><path d="M214.374 980.526v-10.721h-3.212v5.506l-4.237-5.506h-2.967v10.721h3.227v-5.475l4.222 5.475h2.967zM225.584 972.497v-2.692h-9.069v10.721h9.207v-2.692h-5.659v-1.33h5.016v-2.692h-5.016v-1.315h5.521z" style="fill:#fff;fill-rule:nonzero" transform="matrix(.59675 0 0 1.79026 -6.444 -1569.835)"/><g><path d="M191.998 189.381c-2.667 0-4.733 2.178-4.733 4.761 0 2.582 2.052 4.732 4.705 4.732 2.666 0 4.746-2.177 4.746-4.76 0-2.597-2.066-4.733-4.718-4.733zm-.028 8.223c-1.941 0-3.434-1.564-3.434-3.462 0-1.899 1.507-3.49 3.462-3.49a3.44 3.44 0 0 1 3.448 3.462c0 1.898-1.508 3.49-3.476 3.49zm1.996-4.286c0-.963-.67-1.522-1.829-1.522h-1.954v4.328h1.27v-1.173h.643l.586 1.173h1.438l-.894-1.41c.475-.265.74-.74.74-1.396zm-2.513.67v-1.228h.684c.391 0 .615.223.615.614s-.224.614-.615.614h-.684z" style="fill:#ff9500;fill-rule:nonzero" transform="matrix(.6184 0 0 1.85523 13.66 -191.265)"/></g><g><path d="M135.617 988.079v43.021h22.033c10.311 0 16.94-4.67 16.94-12.03 0-5.46-3.376-9.76-8.654-10.86 4.48-1.29 7.303-4.91 7.303-9.271 0-6.63-6.444-10.86-16.509-10.86h-21.113zm12.705 9.57h7.733c2.516 0 4.112 1.35 4.112 3.561 0 2.27-1.596 3.75-4.112 3.75h-7.733v-7.311zm0 16.021h7.733c3.252 0 5.278 1.47 5.278 3.81 0 2.51-2.026 4.11-5.278 4.11h-7.733v-7.92z" style="fill:#ff9500;fill-rule:nonzero" transform="matrix(.59675 0 0 1.79026 -6.444 -1693.09)"/><path style="fill:#ff9500" d="M182.261 988.079h12.766v43.023h-12.766z" transform="matrix(.59675 0 0 1.79026 -6.444 -1693.095)"/><path d="M235.84 998.269v-10.19h-33.08v10.19h10.096v32.831h12.827v-32.831h10.157z" style="fill:#ff9500;fill-rule:nonzero" transform="matrix(.59675 0 0 1.79026 -6.444 -1693.09)"/><path d="M263.5 987.527c-13.318 0-23.138 9.27-23.138 21.793 0 12.7 9.636 22.15 22.709 22.15 6.505 0 13.563-3.25 18.228-8.29l-7.365-7.85c-2.946 3.01-6.935 4.97-10.249 4.97-5.831 0-10.25-4.78-10.25-11.11 0-6.32 4.419-11.043 10.25-11.043 3.559 0 7.549 2.273 10.249 5.703l7.365-8.713c-4.358-4.66-11.293-7.61-17.799-7.61zM307.935 987.527c-13.502 0-23.445 9.21-23.445 21.853 0 12.7 9.943 22.09 23.445 22.09s23.445-9.45 23.445-22.09c0-12.583-9.943-21.853-23.445-21.853zm.184 10.68c5.647 0 10.188 4.723 10.188 11.233 0 6.51-4.541 11.35-10.188 11.35-5.646 0-10.556-4.84-10.556-11.35s4.848-11.233 10.556-11.233z" style="fill:#ff9500;fill-rule:nonzero" transform="matrix(.59675 0 0 1.79026 -6.444 -1692.765)"/><path style="fill:#ff9500" d="M338.622 988.079h12.766v43.023h-12.766z" transform="matrix(.59675 0 0 1.79026 -6.444 -1693.095)"/><path d="M399.935 1031.1v-43.021h-11.661v24.061l-18.228-24.061h-10.925v43.021h11.722v-23.94l18.228 23.94h10.864z" style="fill:#ff9500;fill-rule:nonzero" transform="matrix(.59675 0 0 1.79026 -6.444 -1693.09)"/></g></g></g></g></svg>