<svg xmlns="http://www.w3.org/2000/svg" width="440" height="250" fill-rule="evenodd" image-rendering="optimizeQuality" shape-rendering="geometricPrecision"><style>@keyframes flip{0%,to{transform:scale(1,1)}25%{transform:scale(-1,1)}50%{transform:scale(-1,-1)}75%{transform:scale(1,-1)}}</style><path d="M0 0h440v250H0z"/><path d="M0 0h440v250H0zm438 2H2v246h436z"/><path fill="#fff" d="M12 9h416v232H12z"/><path d="M411 16v27H120v150H83V43H29V16z"/><path d="M411 16v27H120v150H83V43H29V16zm-2 25V18H31v23h54v150h33V41zm2 16v27h-54v55h54v95H29v-27h346v-41h-55V57z"/><path d="M411 57v27h-54v55h54v95H29v-27h346v-41h-55V57zm-2 25V59h-87v105h55v45H31v23h378v-91h-54V82zM138 57v136h36v-54h37v54h36V57h-36v54h-37V57z"/><path d="M140 59v132h32v-54h41v54h32V59h-32v54h-41V59zm-2-2v136h36v-54h37v54h36V57h-36v54h-37V57z"/><g fill="red"><path d="M266 57h36v27h-36z"/><path d="M266 57h36v27h-36zm34 2h-32v23h32z"/></g><path d="M266 111v82h36v-82z"/><path d="M268 113v78h32v-78zm-2-2v82h36v-82z"/><g style="animation:flip 4s steps(1,end) infinite;transform-origin:50% 50%"><path d="M411 16v27H120v150H83V43H29V16z"/><path d="M411 16v27H120v150H83V43H29V16zm-2 25V18H31v23h54v150h33V41z"/><path d="M411 57v27h-54v55h54v95H29v-27h346v-41h-55V57z"/><path d="M411 57v27h-54v55h54v95H29v-27h346v-41h-55V57zm-2 25V59h-87v105h55v45H31v23h378v-91h-54V82z"/><path d="M138 57v136h36v-54h37v54h36V57h-36v54h-37V57z"/><path d="M140 59v132h32v-54h41v54h32V59h-32v54h-41V59zm-2-2v136h36v-54h37v54h36V57h-36v54h-37V57z"/><path fill="red" d="M266 57h36v27h-36z"/><path fill="red" d="M266 57h36v27h-36zm34 2h-32v23h32z"/><path d="M266 111v82h36v-82z"/><path d="M268 113v78h32v-78zm-2-2v82h36v-82z"/></g></svg>