<svg xmlns="http://www.w3.org/2000/svg" width="24" height="24" xmlns:v="https://vecta.io/nano"><path d="M0 0h24v24H0z"/><path d="M1 1h22v22H1z" fill="#f3fb2e"/><text transform="translate(21.497 22.879)" font-family="AcademyEngravedLetPlain" font-size=".239">HNFT PEPE</text><g fill="#4f4739"><path d="M5.43 20.51h13.2V23H5.43zm1.68-8.8h9.84v6.31H7.11z"/><path d="M10.09 17.75h3.85V23h-3.85z"/></g><path d="M8.04 7.41h7.95v4.3H8.04z" fill="#504739"/><g fill="#736453"><path d="M9.01 8.36h6.02v5.57H9.01z"/><path d="M8.15 12.17h7.75v5.4H8.15z"/></g><path d="M9.23 6.51h5.55v1.25H9.23z" fill="#4f4739"/><path d="M8.51 13.93h6.99v2.55H8.51z" fill="#c51d0b"/><path d="M9.17 14.45h5.63v1.5H9.17z"/><path d="M10.24 12.82h1.1v.6h-1.1zm2.43 0h1.1v.6h-1.1z" fill="#4f4739"/><path d="M10.36 14.45h.98v.98h-.98z" fill="#f0e1ae"/><path d="M12.03 1.99l-.72 5h1.43z" fill="#f62c94"/><path d="M10.09 19.06h3.85v1h-3.85z"/><g fill="#828282"><path d="M12.03 19.96l.25-.35h-.5z"/><path d="M12.03 19.26l-.25.35h.5zm-1.25.7l.25-.35h-.5z"/><path d="M10.78 19.26l-.25.35h.5zm2.5.7l.25-.35h-.5z"/><path d="M13.28 19.26l-.25.35h.5z"/></g><ellipse cx="12" cy="14.04" rx="1.15" ry="1.1" fill="none" stroke="#828382" stroke-width=".35"/><path d="M11.34 12.7h1.33v.75h-1.33z" fill="#726453"/><path d="M8.33 20.51h1.4v2.55h-1.4zm6 0h1.4v2.65h-1.4z"/><path d="M9.72 20.51L8.13 23.5l3.9-.5z"/><path d="M14.33 20.51L12.03 23l3.7.65z"/><path d="M9.48 10.3l.49-.47 1.53.47-1.59-.67zm5.3.01l-.49-.53-1.53.53 1.58-.75z" fill="#4f4739"/><path d="M8.04 11.08h7.95v.63H8.04z"/><circle cx="10.28" cy="11.27" r="1.17" fill="#555655"/><circle cx="10.28" cy="11.27" r="1.08"/><g fill="#828382"><path d="M10.73 9.67l-.23.51.19.05zm1 .2l-.73.55.18.18zm-2.97.08l.75.51-.16.19z"/><path d="M11.73 9.87l-.73.55.18.18zm-2.97.08l.75.51-.16.19zm1.09-.28l.23.51-.19.05zm-.16 3.17l.1-.55.19.07zm-.93-.23l.75-.51-.16-.19z"/><path d="M8.76 12.61l.75-.51-.16-.19z"/></g><circle cx="13.73" cy="11.27" r="1.17" fill="#555655"/><circle cx="13.73" cy="11.27" r="1.08"/><g fill="#828382"><path d="M13.28 9.67l.23.51-.19.05zm-.99.2l.72.55-.18.18zm2.96.08l-.75.51.17.19z"/><path d="M12.29 9.87l.72.55-.18.18zm2.96.08l-.75.51.17.19zm-1.09-.28l-.23.51.2.05zm.16 3.17l-.1-.55-.19.07zm.93-.23l-.75-.51.17-.19z"/><path d="M15.25 12.61l-.75-.51.17-.19z"/></g><path d="M15.73 23h2.9v.6h-2.9zm-10.3 0h2.9v.6h-2.9z"/></svg>