<?xml version="1.0" encoding="UTF-8"?>
<svg id="Layer_1" xmlns="http://www.w3.org/2000/svg" width="3000" height="3000" version="1.1" viewBox="0 0 3000 3000">
  <!-- Generator: Adobe Illustrator 29.1.0, SVG Export Plug-In . SVG Version: 2.1.0 Build 142)  -->
  <defs>
    <style>
      .st0 {
        fill: #d1b871;
      }

      .st1 {
        fill: #d8d9da;
      }

      .st2 {
        fill: #fff;
        stroke: #000;
        stroke-miterlimit: 10;
      }

      .st3 {
        fill: red;
      }

      .st4 {
        fill: #1e7226;
      }

      .st5 {
        fill: #381e02;
      }

      .st6 {
        fill: #ff0;
      }

      .st7 {
        fill: #1200ff;
      }
    </style>
  </defs>
  <g id="BACKGROUND">
    <path class="st2" d="M0,0h3000v3000H0V0Z"/>
    <rect class="st1" x="1.5" y=".3" width="3000" height="3000"/>
  </g>
  <g id="Layer_2">
    <rect class="st5" x="200.5" y="1912" width="2691.4" height="85.5"/>
  </g>
  <g id="Layer_4">
    <g>
      <path class="st0" d="M1346.3,1229.4c7.8-68.7,19.1-84.8,10.1-125.8-3-13.6-12.1-53.1-44.9-82.8-43.2-39.1-85.7-23.3-206.3-109.7-49.9-33.4-67.1-66.3-75-62.2-6.3,3.2,3.1,19.7-.2,53.7-3.2,32.6-3.5,24.7-123.8,312.7l-60.7-184.4c-26-117-38.9-145.6-45.7-144.7-3.1.4-14.6,6.9-21.8,17.7-26.2.9-50.1,14.7-63.5,38-9.2,23.9-16,48.7-20.2,74,13.2,4.4,22.4,16.4,22.6,30.9l5.7,22.1-51,50.6-103.6-80.1c4.5-47.7.6-30.3,19-81.3l-72.9,24.8-12.2,80.8c-23.6,70.9-23.1,149.9,5,223.4-100,152.1,129.3,229.6,168.7,189.6s23.7-41.1,29.9-68l148,2.4c33.7,43.5,46.7,100.9,30.6,157.2l-18-22.1c-5.6,1.3-13.4,2-20.6-1.6-17-8.6-10.3-32.9-51.8-45.7-2.7,36.5-25.5,47.8-60.7,57-62.8,16.6-94.5-3.8-101.9,4-4.5,4.8,2.8,15.2,3.8,29.5,1.8,25.6-13.8,19.5-56.8,184.8-8.7,33.4-14.9,82.6-1.2,148.9,14.2,39.4,32.4,14.9,41.3-25.1l22.9-94.2c16.5,17.1,38.1,43.8,54,81.2s13.9,50.6,23.4,179.6c3,40.3,4,76.4.2,122.4,24.7,30.3,11.6,45.5,12.8,73.4.5,10.2.7,15.4,2.4,19,13.4,28.3,103.1,27.9,161.7-13.4,31.3,48.8,23.2-159.7,21-218.5,4.4-38.1,14.5-75.3,30.5-110.5,9.4,123.2,15.2,246.7,17.4,370.4,57,2.5,113.5-11.3,162.9-39.8,3.1.4,6.5-2.5,5.8-6.3-23.2-105.2,39.1-246.5,50.8-348.3,2,21.6,27.2-7.1,41-23.9l7-57.1c69.9,164.8,90,65.5,90-111.9l-2.4-29.1c-31.2-45.2-55.2-96.7-69.3-152.6,9.7-.3,26.6-2.2,44.5-11.7,76.6-40.6,32.4-129.5,51.5-297.2h0ZM1178,1168c-16.1,1.3-57.3,5.1-73,4-11.1-4.5-25.6,2.4-38.8,8.3-9.1,1.9-18.1,3.7-27.2,5.6l-5.2-9.8c.2-2.7.4-5.5.5-8.5,0-4.3,0-8.4-.3-12.1,5.1-15.4-17.2-56.8,13-51.5,8.6,8.3,17.2,16.5,25.8,24.8,4.7-8.4,13.6-13.6,23.2-13.4,10,.2,19,6.2,23.1,15.4,0,.6,0,2.8,1.5,3.6,1.6.9,5-.4,7.1-4.2,19.2-4.9,52.9-25.2,50.3,37.8h0Z"/>
      <path class="st0" d="M2605.9,1393.5c-14.1-26.7-13.8-57.5-.9-83.5-30-64.2-22.4-89.8-37.1-133.9-17-50.9-24.5-63.3-29.9-114.9-90.6-53.7-64.5-40.3-118.1-62-44.1-7.9-86.8-26.3-117.6-58.8-21.1-35.3-31.1-42.3-36.3-40.6-6.1,2.1-4.9,19.8-25,48.4-23.2,96.4-48.2,192.3-75,287.7-9.9-100.9-97.1-219.7-96.8-226.5.3-7.1-3.9-16.3-9.5-29.5-14.5-34.3-29.9-39.1-35.2-66.5-1.9-10-2.1-20.4-5.9-21-3.2-.6-6.9,5.7-9.7,11.3-57.1,65.2-137,85-189.6,108.5-7.4,3.3-51.3,24.2-57.4,29.6-31.9,27.8-17.2,84.4-24.8,113.3-4.7,17.7-20.2,34.3-13.1,77.9-26.4,26.8-35.1,63.9-25.6,99.6-26.7,19.6-44.5,50.6-32.5,82.4-2.8,14.3-5.6,28.6-8.4,42.9,16,33.7,32,67.4,48.1,101.1,22.2,12.6,44.4,25.2,66.6,37.8,1.2,2.6,7.9,16.8,23.8,21.9,8.5,2.7,15.9,1.8,19.8,1,9.8,3.8,19.5,7.5,29.3,11.3-6.8-6.6,7.3-.2,9-1-5.7,13.2-14.1,33.9-21.5,60.1-10.8,38.2-8.7,49.3-17.8,85.8-14.2,57.2-25.6,55.5-29.9,92.2-3.1,26.5-4.2,86.1,22.7,96.3,20.3,7.7,53.4-14.2,78.5-52.6,5.3,11.4,34.2,71,77.7,72,3.1,0,6.4,0,9.8-.7.7,8.4,1.4,16.9,2.1,25.3,2.6,26.8,7.7,54.3,15.6,82,8.4,53.5,21,106.2,37.9,157.7-3.1,19.1-13.3,91.5,17.6,109.3,40.4,23.3,141-52.4,137-108.9-1-13.7-23.9-51.1-11.3-119.2,4.7-116.3,21.1-131.9,15.6-206.6,46.8-.5,44.1,91.2,38.8,135.9,18.8,54.3,13.8,84.5,10.8,138.1l174,141.5c-10.8-209.3-10-126.4-5.2-359.4,22.1-19.8,30.3-44.6,35.7-86.7,15.7,35.3,24.4,73.2,25.7,111.8,71.5-16.4,72-117.3,54.1-187.5-19.8-77.6-49.6-96.6-59.9-197.9-8.2,26.7-26,47.5-48.5,59.9l-23.4,47.7c-92.9-24.6-49.7-56-196.9.2-76.4-3.3-148.1-34.1-200.9-92.7-88.6-18.9-145.9-55.8-136.1-32.5l-8,11c-91.9-35.5,17.2-114.2,105.3-158.4,46.2-9.2,93.4-15.1,141.3-17.5l15.8-21.5,12.6,13.4c16.3-5.5,23.2-22.3,18-38,6.6-6.7,9.5,2.9,13.9,4.1,9.5,2.6,17.4-23.1,49.2-48.6,42.2,30.6,82.8,63.6,121.3,98.7,38.9,20.6,81.9,28.9,124.6,17.4,65.5,18,141.2,98.3,84.5,159.8-24.6,3.9-21.6-23.3-35.1-26.8-3.9-1-9.2-.2-11.1,2.7-4.9,7.7,13.8,29.8,20.9,35.7,9,7.5,10.9,12.4,11.9,12.9,3.1,1.8,12.8-5.2,41-41.5,36-93.2,49.9-109.7,43.7-210.9h-.2ZM2144.8,2273.1c1.3-1.6,1.1-1.7.6.1-1,1.4-.9,1.5-.6-.1ZM2428,1196c-23.3,7.1-48.6,13.8-76,19.8-25.6,5.6-50,9.7-72.8,12.8.2-5,2.9-51.7,37.2-70.2,5.2-2.8,12.4-5.6,21.9-6.7,1.9,1.7,3.9,3.5,5.8,5.2,3.1,3.2,10.3,9.5,21.5,12.5,14.1,3.7,25.7-.2,29.7-1.8,19.9,2,33.7,10.7,34.7,20.2.2,1.9,0,4.7-2.1,8.2h.1Z"/>
    </g>
  </g>
  <g id="TIES">
    <path class="st7" d="M1175.7,1140.6c-1-1.6-9.7-14.2-26.3-15.6-16.6-1.4-27.3,9.6-28.6,10.9-8.3-15.4-23.7-21.6-34.2-17.2-7.7,3.3-10.8,11.5-11.7,14.2-14.1-15.2-31.5-31.7-37.8-27.8-1.6,1-2,2.9-2.2,4-3.4,17.8,2.9,67.4,3.8,74.3l65.9-13.6,72.1-2.9c-.4-8.8-.7-17.7-1.1-26.5v.2h0Z"/>
    <path class="st7" d="M976,926c5.1-9.9-7.4-18.3-16-15-6.4-5.3-11.5-15-20-17-30.5,2.2-95,56.3-51.6,87.7,5.9,3,7.2-1.3,12.8,11.4-7.8,12.1-15.8,25.9-23.4,41.4-5.3,10.9-9.8,21.3-13.7,31.2l45.3,164.2c5.4-21.8,10.8-43.7,16.2-65.5,16.4-39.6,32.9-79.3,49.3-118.9-10.8-15.6-21.6-31.3-32.4-46.9,1.4-5.4,2.9-10.8,4.3-16.2,16.9-10.2,73.8-43.4,29.1-56.2v-.2h.1Z"/>
    <g>
      <path class="st6" d="M2200,1061c-7.8-18-25.2-32.6-27-53,5.4-4.7,51.4-29.3,28-34-14.4-13-34.6-34.2-51-45-12.3-1.1-16.2,14-23,21-1.5,4.3-40.3,34.7-19,34,18.1,4,15.4,24.9,39.1,23v2.3c-1.3.8-2.2,2-2.1,3.7-9.7-4.4-25.9,45.7-31,62,14.5,14.4,34.7,100.6,52.1,130.5-.8,1.5-.8,3.2,0,4.9-.5-.9,0,.4,0,.6.1.5.2,1,.3,1.6v.8c0,.5,0,1.1.1,1.6.1,2.6,2.2,5.1,5,5,2.3,0,4.6-1.8,5-4.2.8,0,1.6-.2,2.4-.6-3-33.6,43.1-153.1,21-154v-.2h0ZM2130,988l1-1c0,2,.4,2.4-1,1ZM2127,1067c0-1.3-.3-1,1-1l-1,1Z"/>
      <path class="st6" d="M2406.4,1170.7c-3,1.4-29.6,13-51.1-1-5.7-3.7-9.7-8.3-12.4-12.5-1.4-2.7-3.1-4-4.2-4.7-5.2-3-13.2-.9-19.7,5.4-10.5-8.7-29.7,37.3-33,46-3.3,6-5.3,25,5,20v-.2c-.7-4.7,134.3-20.6,134.4-40.3,0-3.2-3.5-7.6-18.9-12.9v.2h-.1ZM2319,1181l1,1c-2.5,0-2.3.3-1-1ZM2322,1199c.9,1.5-3.4,1.6-4,2l4-2Z"/>
    </g>
    <g>
      <path class="st6" d="M2314.4,1184.2c.1,1.4.5,2.5,1.5,3.5.9.9,2.3,1.5,3.5,1.5,2.5,0,5.3-2.2,5-5-.2-2-.4-4.1-1.5-5.8-1.1-1.8-2.9-3.4-5-3.8-1.4-.2-2.6-.2-3.9.5-1,.6-2,1.8-2.3,3-.5,2.2.5,5,2.7,5.9v.2h0Z"/>
      <path class="st6" d="M2324.2,1197.1s0-.2-.1-.2v-.2c-.2-.7-.5-1.2-.9-1.7s-.8-1-1.4-1.3c-.6-.4-1.2-.6-1.9-.6h-2c-1.2.4-2.4,1.1-3,2.3-.2.4-.3.8-.5,1.2-.2.9-.2,1.8,0,2.7.1.5.3,1,.5,1.5s.4,1,.7,1.4c.3.6.7,1.1,1.3,1.4.5.4,1,.7,1.7.9.7.2,1.3.2,2,0,.7,0,1.3-.2,1.9-.6,1.1-.7,2-1.7,2.3-3s.3-2.8-.5-3.9h-.1Z"/>
    </g>
  </g>
  <g id="LIPS">
    <g>
      <path class="st3" d="M2356.9,584.4c-44.7,11.8-92.4,22.4-143.1,31.3-20,3.5-39.6,6.6-58.8,9.3-41.8,1.3-92.8-.5-150-9.6-54.1-8.7-100.8-21.8-138.7-35.2-2.4.3-17.5,2.7-24.6,15.4-5.2,9.4-3,19.3-1.9,24,1.8,7.4,8.2,26.2,38.4,43.7,84.7,48.9,276.5,45.7,276.5,45.7,38.5-.6,75.4-2.6,119.9-14.8,57.8-15.8,86.9-37.3,101.5-61.9,4.6-7.7,13.6-22.9,7.2-34.8-6.3-11.6-23.2-12.9-26.4-13.1h0ZM1932,626c0,1.3.5,1-2,1l2-1Z"/>
      <path class="st3" d="M1161.4,581.3c-2.7-3.1-9.8-8.8-48.3-3.1-14.2,2.1-34.8,6.1-59.2,14.3-44.5,8.6-102.4,15.7-170,13.3-66.7-2.4-123.3-13.4-166.7-25.1,0-1.5-.3-3-.4-4.5-3.7-1.3-7.8-2.5-12.4-3.5-7.6-1.6-14.5-2.2-20.2-2.2-4.8,9.7-9.6,19.3-14.4,29,4-.8,8.1-1.6,12.1-2.5,2.9,2.2,7.6,6.4,11.3,13.1,4.5,8.1,5.1,15.7,5.1,19.5l2.3,18.1c28.5,17.3,74.3,40.5,134.8,52.3,69.7,13.6,127.9,6.2,162.4-.9,27.1-5.5,147.4-31.8,164.4-85.5,1.5-4.6,7.5-22.4-.9-32.2h.1ZM891,675c-27.2-5.6-54.3-11.2-81.5-16.7-2.6,4.4-7,10.2-13.6,11.6-11.3,2.4-18.3-10.1-37.6-20.4-20.9-11.1-28.3-4.5-41.3-13.5-9-6.2-19.8-19.2-23-50,31.1,0,95.6,22.9,96,26,3.7,5.1,7.5,10.3,11.2,15.4,46.2,2.5,96.8,3.1,151,.9,51.2-2.1,99-6.5,142.7-12.1-17.4,13.2-41.9,28.9-73.5,40.9-54,20.5-102.2,20.3-130.4,18h0Z"/>
      <path class="st3" d="M2210,1457c-6,0-6,10,0,10s6-10,0-10Z"/>
    </g>
  </g>
  <g id="GREEN">
    <g>
      <path class="st4" d="M2258.5,1444.6c-7.3-7.4-4.9-4.3-11.1-14.7-15.6-11.5-16.4-.3-25.9-5.8-15.4,13.5-15.4,19.2-23.8,27.7-4.8,4.9-3.6,1.2-4.9,11.4s-2.4,9.9-5.7,14.2c9.5,17.6,33.3,20,45.9,4.4,3.7-2.1,8-3,12.2-2.7,8.8-.4,7.9-8.9-.8-7.7-14.9,9-15.9,5.2-2.4-5.9,1.2-1.7,2.6-4.2,3.4-7.4,1.1-4.4-1.5-1.4,13-13.3v-.2h.1ZM2233.6,1430.3l-.4-.2c.1,0,.3.2.4.2Z"/>
      <path class="st4" d="M1055,765c-7,2-17,6-14,6,3.4-.6,41-11.1,14-6Z"/>
      <path class="st4" d="M1977,771c-20.9-9.9-3.2-2.1-39.3-12.8,5.3,1.8,39.3,15.6,39.3,12.8Z"/>
      <path class="st4" d="M1937.7,758.2c-.4,0-.6-.2-.7-.2l.7.2Z"/>
      <path class="st4" d="M2100.8,896.8c15.1,8.8,29.9,16.7,44.2,24,28.7-21,57.3-42.1,86-63.1-1.8-13.6-3.6-27.1-5.4-40.7.6-26.7-2.9-34-6.6-34.9-1.9-.5-3.5.7-7.2.2-5.3-.7-9.3-4.2-11.8-7.2-40.1,1.3-80.2,2.6-120.3,3.9-23.8-3.4-43.2-5.5-57.2-6.7-10.2-.9-19.1-1.6-19.5,0-.5,2,10.7,6.4,21.1,10.1,1.9,4,3.8,8.3,5.4,12.9,8.1,23,7.7,44.4,5.7,59.6,19.8,13.9,41.7,28,65.5,41.8h.1ZM2112.8,796.3c-3,0-3.7,0,0,0h0Z"/>
      <path class="st4" d="M2547.7,1559.9c-31.9-69.4-62.8-87.9-86.2-91-16-2.2-23.8,3.6-50.6-.4-45.4-6.8-72-45.8-135.5,4.4l-68,93.8c11.4-75.6-53.5-144-133.5-128.2-97.6,2.5-183.3,54.6-213.2,149.3,32.1,16.8,11,8.7,120.8,44.1,73.5,42.5,71.5,69.9,151.8,82.1l46.1,33.6c29.1-27.7,79.8-53.9,118.7-52.1,45.9,2.2,66.4,35.1,86.8,23.3,7-4.1,5.5-8.5,26.3-32.4,23.4-26.8,5.2.5,52.3-80.8,25.6-44.2,65.6,23.7,84.1-45.8h0Z"/>
      <path class="st4" d="M579.4,987.7c46.5,21.6,145.4,66.5,108.7,31.4,14.7-61,32.5-81.1,38.6-108.5,9.3-41.6,1.9-77.7-28.5-107.6-32-48.8-37.9-125.2,7.2-163.1,44.3-10.2,48.8,18.2,75,26.2,29.1,8.8,34.9-12.8,20.5-11.6.9-3.4,4.5-18.8-4.6-32.9-7.1-11-9.8-10.6-68-39.6l-34.2,4.2-23.2,19.3c-4.3-22.8,4.9-46,23.9-59.5,41.4,8.9,46.4,18.2,49.1,10.3,31.8,9.4,53.3,22.9,66.6,13.8,6,.5,7.4-3.8,6.3-9,2-3.4.7-8-3.3-9.5-2.1-3.8-8-9.8-19.4-18.4-2.9-6.9-11.5-13.9-15.7-9.9-8-3.9-32.4-6.2-72.6-18.8,12.1-5,25-1.3,29.6-7,50,.5,87.5-37.1,86.4-44.3-1.5-9.9-47.1-21.6-88.7-3l-22.7,3,34.5-63.9c.8-13.2-6.4-34.4-17.5-36.1-10.8-1.6-38.8,25.4-44.5,34.8-22.8,37.5-50.3,71.9-73.3,109.2-12.5,20.3-31.7,49.1-58.8,82.2-66.4,136.4,69.1,219.5,28.6,408.3h0ZM598.5,619.3v1c-1.3,2.7-1.6,3.7,0-1Z"/>
      <path class="st4" d="M1235.9,419.2c-2.3-10.3-7.4-25.1-19.8-37.6-2-2.1-4.1-3.9-6.2-5.5,3.3-9.1-14.2-11.2-9.1,0,1.2,3.5,5.3,3.8,7.5,2.2,52.6,113,31.3,274.8-70.6,346.8-5.7,2.9-.7,11.6,5,8.6,21.7-18.6,71.9-66.6,95.4-146.7,18.2-62.2,12-115.3,6.8-143.1-3-8.2-5.9-16.4-8.9-24.7h-.1Z"/>
      <path class="st4" d="M1814.4,646.3c1.5-1.8,1.9-4.5-.3-6.5-11.6-11-7-21.6-24.3-70.4.5-1.8,0-2.9-1-7.5-17.2-76.7,17.8-182.3,23.4-178.6,5.4-6.3-8.1-21.7-18.9,16.1-31,54.4-39.8,149.6-11.3,200,15.3,60.3,64.7,124.2,127,146.6-61.6-42-71.3-56.1-94.6-99.7h0Z"/>
      <path class="st4" d="M2412.9,383.7c5.6,9,25.2,62.9,25.2,63,13.9,60.8,4.8,130.6-23.6,189.5-.8.4-1.6,1.1-2.1,2.2-20.5,42.5-52.9,68.9-56.8,74.9-1.3,0-2.6.3-3.7,1.6-5.8,6.6-14.5,10.7-21.2,16.3-2.8,2.3-1.1,4.5-1.7,4.9-5.5,4.6-46.5,33.1,1.1,1.3,1.7,2.1,5,3.1,7.6.9,5.6-4.7,12.3-8.1,17.8-12.9,14.3-2.2,16.6-18.2,28-24.2,1.6-.9,2.4-2.2,2.5-3.6,55.3-40.7,58.5-146.4,70.6-198.6,0-34.5-9.7-74.1-27-103.7-.2-4.1-2.1-7.9-5.6-10.5-10.8-23.5-27.2-8-11.1-1h0Z"/>
      <path class="st4" d="M1001.5,783.3c6.5-3.3,1-11.9-4.6-8.9-9.8,5.3-15.6-4.1-18.2,3.5-18.4,1.3-48.6,3.5-79.9,3.7,1.7-10.1-6.4-3-88.1-9.4-6.4-.5-6.4,9.5,0,10,5.7.4,11.3.8,17,1.2-1.5,2.3-1.9,4.6-1.5,6.8-2.1,0-2.9.6-2.2,1.8,2,47,1,44,4,47,22.1,15.4,55.7,38.8,87.3,52.5,4.1,1.7,6.6-2.4,5.8-5.9.8.2,1.6.3,2.4.5,1.7,1.7,2.9,3.3,5.3,3.3s4.2-1.4,4.8-3.7c13.5-3.7,22.8-19.8,45.3-33.7,32-20,27-28,29-65-9.6,1.9-2.1.8-6.5-3.7h.1Z"/>
      <path class="st4" d="M1187.9,290.1c-2.5-21.4-11.8-37.9-22.8-54.9-13.9-21.3-20.8-31.9-33.3-45-17.5-18.3-37.3-39.1-68.6-48.8-55-17.1-106,12-121.7,22.2-16.8,10.9-28.3,23-35.2,31.2-6.6-10.1-28.3-40.6-69.3-53.5-35-11.1-64.6-3.2-80.9,1.4-41.9,11.8-68.3,37.5-80.1,50.7-6.9,9.5-14.2,21-21.2,34.4-7.1,13.8-12.4,26.7-16.3,38-4.1,8.6-9.5,22.5-10.5,40.3-.5,8.4-.8,15.1,1.5,15.9,5.7,2,16.4-33.9,44.3-62.5,19.2-19.7,39.7-28.7,49.3-32.9,55-23.9,109.1-8.5,127-2.5,11.2,1.3,22.5,2.5,33.7,3.8,11.4.5,28.4.8,49.1-.2,42.8-2.1,49.5-7.5,76.3-8.2,18.9-.5,59.5.9,102,22.2,27.1,13.6,45.8,30.8,56.9,42.6,6.5,10.7,14.6,22.5,18.3,21,3.1-1.2,2-10.9,1.5-15.3h0Z"/>
      <path class="st4" d="M828,1417c-4.7-4.3,0-2.8-111-2l-10-6.4-3.8,19.2c-4.7,8-6.9,16.8-6,25.7-7.3,9-25.3,28.7-53.7,34.2-42.8,8.2-108.1-31.7-139.9-62.1-18.3,15.3-52.3,59.8-19.5,58.9-9.5,14.5-14.8,31.9-14.2,50.3,6.1,8.5,12.2,9,13.1,10.9,2.2,4.5-7.7,10-10.7,21.6-7.1,27,22.9,35.4,51,44.5,28,9.1,42.4,13.5,58.7,8.7,31.1-9.2,35.9-29.1,24.2-47.7-113.5-18-.5-9.6,120.6-15.3,37,1.3,70.4-18.9,69.2-55.9l40.7,25.9c10-35.9,18.7-85.2-8.6-110.5h-.1ZM504,1495c-1.4,0-1,0,0-2v2ZM527,1473c-.7-.4-2.5-.9-2-2,.7.4,2.5.9,2,2Z"/>
      <path class="st4" d="M566.2,558.3l12.6-9.4c-10.1-59.5,2.1-120.5,34.3-171.6-13.8-17.1-36.5,36.6-43.7,57.2-8,22.9-17.3,64.4-3.3,123.8h.1Z"/>
      <path class="st4" d="M1834.6,302c-.6,3.8-.8,8.1-.6,8,2.3-3.9,2.2-3.5,3-7,5.7.8,5.8-4.5,9.2-15.6,11.2-14.2,22.8-29.2,38.9-31.5,83.5-68.5,157.8-22.2,225.1-27.5,10.9,0,12.9,1.3,15.2-.1,36,1.1,47.1-7.6,58.5-8.8,6.8-.7,55.2-12.3,109.1,6.9,46.1,16.4,40.9,33.2,50.1,28.1,15,14.7,29.5,34.3,43.9,60.4-.2-6.4-.6-19.5-2.3-28,2.6-.9,4.8-4,3.4-7.4-6-13.9-14.8-29.8-16.6-32-13.2-41.1-62.4-84.2-100.1-99.7-39.5-19.1-126.7-5.4-154.9,44.9-29.6-21-55.6-49-106.3-50.3-28.3-6.4-58.7-4.9-79.9,15.3-8.4,9.9-64.3,35-89.3,111.2-2.9,9.3.3,0-8.1,27.9-.7,2.3.2,4.1,1.7,5.1h0Z"/>
      <path class="st4" d="M680,732c25.8,16.2,54.3,27.9,83.7,36.7-84.2-25.8-88.9-57.5-83.7-36.7Z"/>
      <path class="st4" d="M763.7,768.7c1.4.4,2.9.9,4.3,1.3-1.4-.4-2.8-.8-4.3-1.3Z"/>
    </g>
  </g>
  <g id="Layer_11">
    <g>
      <path class="st5" d="M940,1522c-18-8-11-4-18-1-2,0-5,3-7,5-3,3-4,4-3,8,3.9,15,14,17,22,9s4-3,4-2l2,4c7,7,18-15,0-23ZM2271,1665l-18,30c0,2,3,1,8-3,14-11.1,15-35,10-27ZM628,1159c-21,4-17,28-2,30s12-2,12-6,0-2-3-2c-7,0-11-6-6-8s3-1,10-1c3-4-5-13-11-13ZM2466,1601l1-2-1,2ZM2421,2541h-1c0,2-1,3,1,0ZM522.5,2338l113.5-219v-105h-113.5v324ZM2443,2119c128,248,113,221,114,214v-319h-114v105ZM645,1144c6,11,6,4,7-1,6-20-29-21-29,1s1,6,3,8c8,9,22,5,18-2s-2-1-3-1c-15-4-2-16,4-5ZM2077,1456c-10-5-14-3-18-2-21,4-23,33-9,18s10-8,36-4,1-7-9-12ZM2462,1535c12-7,12-2,26,5s17,8,24,9,4-1-4-6c-21-13-20-25-36-21s-7.2-7.6-36-20-17-6-20-4c-12,4-23,47-18,49,19-33,23-47,29-31s23,26,35,19ZM2169,1497c-20-16-14-12-19-24s-12-16.1-19-19c-19.9-8.2,2.1,4,15,27,25.2,44.9,38,13,38,69,3,4,8-5,9-16s-4-21-24-37ZM2334,1728c-36-6-38,35-28,35s-2-14,10-23,13-7,17-7c6,0,7-4,1-5ZM2471,1581c0-16-12-14-18-11-14,9-26,34-30,42l22-29c10-10,23-10,18,5-3,6,8,0,8-7ZM2292,1627c-3-2-7-3-7,0s10,13,13,13,1-1,1-3-4-8-7-10ZM1966,1539c8-30,3-7,9-13,18-18-26,0-26,26s15,12,27,20c19,9,24,41,24,20,0-32-42-23-34-53ZM2151,1604c0-2-2-1-5,0-17,10,5,2,5,0ZM2012,1479c-10,5-15,18-10,27s11,15,10,8c-4-14-1-25,7-25s9,4,15,9,6,13,18,37l26,34c12,12,5-5-11-25-20-28-14-38-29-55s-19-13-26-10ZM2220,1656c-8-4-6-2-6,1-2,7-5,8-13,5s-10-12-5-16,6-4,9,0,6,2,6-5,0-6-2-7c-4-4-15-2-11-2-5,2-9,6-18,18-11,12-12,14-10,15,7-1,10-3,10,0,0,10.2,27.5,18,29,15s-1-1-22-16c-5-3-6-3,0-3s13,4,19,11,6,5,7,5c6-12,15-17,7-21Z"/>
      <path class="st5" d="M2197,1649v5c3,6,10,1,7-5s-4-4-7,0ZM2398,1677c-9,0-16-11-18-6-1,1,3,7,6,9,5,4,17,3,17-1s-1-2-5-2ZM2414,1552c-18.2,28.9-34,45-34,52s2,1,22-20,29-31,25-57c-4.8-31.5.5,3.5-13,25ZM2280,1577c-2-1-12,4-15,7s-7,5-9,4l-5-6c-2-7-18-16-18-12,40,49,10,10-9,7s13,9,18,17-9-8-23-8-2.1,1.1,4,4c8.9,4.2,23,17,23,22,0,16,6,5,29-26,6-7,7-8,5-9ZM2405,1485c-4-4-9,1-19-6-17-7-20.1-7.2-29-4s-15,8-20,16c-19,25,4,56-25,73s-5,5-1,5c9-2,23-15,26-24,5-15,1-26,5-37,5-11,11-19,18-22s6-2.1,17,1c17,4.8,31,1,28-2ZM2204,1464c-13.6-5.4-8.7-2.5,3,6,8,12,2-3-3-6Z"/>
      <path class="st5" d="M2323,1484c-8,29,22-15,21-16-1-2-12-7-19-8-41-5.9-92.1,127.9-55,65,47.8-81.1,39.1-19.9,3,20s-16,19-17,27,0,4,2,4,39-36,48-75,7-21,12-25c7-5,8-3,5,8Z"/>
      <path class="st5" d="M2256,703c38-7,42.1-10.8,67-24,39.2-20.7,51-32,59-50s7-41.9-9-47c-31-9.9-172,66-400,26-103-25-98-38-118-30-6,3-14,10-17,16s-2,6-2,15c0,49,72,72,119,85,51,14,89,18,183,18s80-2,118-9ZM1844,624c-9.1-21-4-25,4-34s17.8-8.4,43,1c37.7,14,18.1,6.8,89,25,46,11.8,55,12.8,110,12,96-1.4,110-6,174-16,19-4,67-15.9,76-20,24.7-11.2,62.1-4.7,34,40-8.9,14.1-36.9,36.2-62,48-98.7,46.6-427.3,38.1-468-56ZM1839,403c0,2,21.1,21.9,29,27,30.3,19.6,81,34,127,34s10,0,10,1c-40,13-69,14-152-25-1,2,31,23,50,32,22,12,24,12.7,45,13,41,.5,63-8,89-17,1,2-16,16-28,24s-36,18-87,42c-4,3,20-1.1,37-7,60.9-21.2,78-60,126-84s7-4,6-4c-58,10-88,19-141,11-33-7-69-22-98-41s-13-8-13-6ZM2262,521c14.1,3.8,12,3.7,12,1-4-1-34-18-43-23-17-11-41-28-40-30s65,16,94,19,59,0,52-2-179.3-24.2-101-19c77,10,78,11,101,0,6-4,12-10,11-11-12,3-56.1,16.3-89,7-41.1-11.6,45,16,104-45-38,21-69.1,48.4-178,32-39-5.9-49-17-49-12s48.6,62.3,126,83ZM2285,1196c-13.7,35.1-13,31-12,35s2,28,0,39-2,12,9,7c33-15,40-11,75-21s22-6,76-19c2-1,2-2,0-12-2-45-1-39-4-45-1-5-12-13-32-13,0-24,16-77,46-120,0-2-5-1-11,4-26,18-43,87-46,118-6.8,2-11.9,1.5-15.3.8-5.6-1.2-8.5-3.7-27.4-15.3-1.5-.9-2.7-1.6-3.5-2.1,2,4.1,8,14.9,20.8,21.2,21.2,10.5,42.1-.5,44.3-1.6,9,1,20,7,19,12s-24,14-45,20l-95,18c6-21,11.9-53.3,38-64,3.8-1.6,11-7.9,16.6-5.2,1.3.6,2.1,1.5,2.7,2.2,2.3-1.1,16.3-8.4,15.8-16,0-1.1-.4-1.5-.5-1.6-2.4-1.5-12.8,10.7-28.5,12.6-22,2.7-34.8,25.1-43,46h0ZM2415,1201c5-3,4.1-4,6,5,3.2,15,4,24,3,24-110,23-81,13-141,35,2-8,1-24,0-33,102-21,120-23.9,132-31ZM2367,554c16,2,29,15,34,33l2,8c2,1,3-6,3-12,0-25-32-38-44-32-3,1-2,3,5,3ZM2500,1284c11,0,17-15,67,15,0,1,2,4,2,10,0,31,12-10,10-14s-10-1-32-16-15-9-24-10-10,0-13,2c-7,2-16,13-10,13ZM2581,1372c13,15,6,10,7,16s2,3,3,3,2-1,2-6c-2-14,.4-12.6-23-48-7.2-10.9-13.1,7.1,11,35ZM1878,1123c-5,1.1-7,4-7,7s7,13,23,31,28.7,27.1,43,81c16.7,63.1,8.1,144.1,51,109,17-14,6-6,3-14-21.3-57.9-36-201-96-213s-13-1.9-17-1ZM0,3000h0Z"/>
      <path class="st5" d="M2321,619c-21,15-22,21-65,32-129.3,23.3-262.3,12.2-386-32,144,66,260,54.1,348,48,154-10.8,130-60,103-48ZM2123,387l-5-1c0,2.7-2-.9-9.2-7.6-9.5-8.8-43.2-32.1-87.8-42.4-25.2-5.8-45.3-6-60-6s-28.9,1.7-32.5,2.3c-11.8,2.1-24.2,5.8-40.5,12.7-59,24.9-70,39-69,39,54-25,92.1-58.5,170-46,24,3.8,67,16,86,24s20,9,29,18,10,11,12,15l7-8ZM2183,361c.7-.3,1.3-.7,2-1"/>
      <g>
        <path class="st5" d="M2461,1993c8,30,15,21,38,1h380c0-11.6-.1-23.3-.2-34.9h-.8v32.1c-124.8,0-249.5.2-374.3.3,5.1-7.1,10.4-15.5,15.4-25.2,7.6-14.6,12.6-28.3,15.9-39.9h342.1v-2h-342.1c4-46.3,3.2-81.8-1-95.5-.2-.6-3.4-11.1-8.5-25-1.8-5-3.4-9.2-4.5-12-54.4-93.8-55.5-190-55-191-5,4-9.2,10.9-14,19-32,53.4-24,38-36,49s-8,10-14,21c-9.9,18-6,13-20,21-8,3-10,3-14,2s-19-7-19-9c7-12,2.9-9.1,25-38,47.7-62.2,25-38,54-77s25-37,21-37-16,14-25,24c-26,29-16,43-44,71s-17.2,17.6-18.7,19.6c-8.2-14.7-27.1-21.7-22.3-23.6,3-1,14-.2,21,2,18.1,5.6,25.9,2.1,10-5-11-4.9-32-5-36-9s-2-12-4-10l-10,18c-3,2-11,4-11,2s15-19,30-35c42-37,58-89,53-89s-8,11-18,30c-27,60-69,65.6-94,137-6.3,17.9-14,7-38,17s1-2,3-5c33-44,26-33,30-47,5-31,18-36,26-59s2-9,0-9-19.1,25-22,30c-6.8,11.7-2.4,72.6-77,107,0-1,12-17,23-29s20-27,35-58c24.1-50,66-86,61-96s-1.1,0-5,4c-35.5,36.5-52.1,69.9-59,81-68.1,109.3-73,106-68,95,10-14,7-32-7-37s-8-2-14,0-14,8-21,22c0-8,16.8-23.1,35-67,22.8-55.1,35.3-44.9,58-89,31.3-60.8,43.9-77.1,70-86,44.9-15.3,46,14,111,14,39.4,46,46.2,11.7,82,51,35.8,39.2,15-6.1-7-19-24-14.1-41-9-70-32,15-2,23-2,47,8s24.9,15.1,36,27c21.8,23.2,29,37,29,57s-3,17.9-10,22c-20.1,11.8-38-10-61,13,2,0,5,3,11,0,7,7,36,51,42,53,5,0,26-19,37-33s15-24,28-61c13-31,21-64,23-98,9-39,4-80-13-116,0-2,3-9,12-24,7-14,7-10,3-18-10-15-23-48-28-70s-1.1-14-2-26c-3.5-49-10-36-25-89-19-54-4-59-20-64s-54-38-142-66c-50-13-66-27-88-53-66-78-80-77-73-150,24.2-12.1,81-22.6,132-60,77.9-57.1,143-235,52-352-8-21-16.7-75.1-33-116-34.4-86.3-119-155.9-208-119-29,12-52,33-62,48-13-12-22.3-20.5-41-33-99.7-66.5-210.6,15.8-241,125-6.1,22,0,33-10,62s-4,18-27,47c-72,107-16.6,281.4,64,339,33.2,23.7,81,44,133,57,20.7,5.2,30.8,8.6,31,7.9.2-.5-3.3-2.4-3.9-1.7-.7.8,2.3,4.5,4.2,7.3,5.6,8.1,7,18.6,9.7,39.6.2,1.6.6,4.7-.7,8.1-1.4,3.5-5.3,4.9-16.3,29.9-16.2,36.9-10.1,27.9-34,48-26.1,21.9-28,23-32,24-35,14-74,45-102,52s-31,10-46,20-7,3-11,4c-46,8-55.1,67-57,113-1.1,27,0,19-6,32-6,11-7,14-7,51-28,62-26,54-26,81s-1,38-18,55-20,26-20,38c0,18,7,16,7,31s-10.7,23.9-3,48c10.5,32.9,10,23,30,71,18,43,32.7,27.4,112,89,25.9,20.1,34,10,43,10-2.9,6.3-6.4,14.8-10,25-1.5,4.2-4.5,13-6.9,22.7-4.3,17.7-4.7,31.4-5,36.7-2.3,40.6-27.4,62.9-40.1,124.6-2.9,13.8-4.1,25-4.8,32.8-1.5,17.8-1,32.6-.2,42.9-16.7-.5-41.7-1.1-72.1-1.6-104.8-1.7-181.3.6-215,.9-96,.8-193,0-289-2,6.6-4.2,25.4-17.4,32.6-41.9,2.6-8.9,3-16.9,2.7-23.1,2.7,5.9,32,68.3,53.2,63.5,9.5-2.2,15.3-17.4,19.5-28.5,9.4-24.9,9.7-46.3,9.7-50.1-.4-99.1,16.3-113.9-.3-159.4-9.1-25-4.8-26.6-34.5-65.5-16-21-26-46-27-73,41-4,66-23,77-49s6-20,7-40c8.9-176-1.5-150.1,15-248,7.8-46,7-93-1-139-14-56-47-63-101-82-77-27-46-23.9-99-48-59.1-26.9-62-47-139-113-7-2-1-18-1-40,71-19.1,123.5-39.3,162.8-77.9,106.1-104.4,72.3-255.9,66.2-275.7-10.3-33.2-28.9-55.4-28.9-55.4-3.4-4.1-3.7-3.8-6.1-7-10.1-12.9-20-45-20-66,0-36-29-101-77-140-46-42-126-57-195,12l-11,11c-20-27-60-49.9-92-56-7.8-1.5-23.6-4.5-43-2.1-81.7,10.1-136.3,104.1-145,149.1l-8.1,44.3c0,4.3.3,5.9,0,9.7-1.3,20.6-13.6,35.1-16,38-45.6,53.5-55,125-41,193-56,65-37.9,105-18,174,40.3,139.9,40,127,40,205-5,15-59,36-77,43-1,14-2,46-6,66s-18.2,37-22,80c-3.1,35,5.2,98.9,12,116,11.4,28.8,4,61-7,90s-7,22-7,32,3,24,15,44,6,7,3,12c-2,7-4,10-13,20s-17.1,26-16,35c1.8,14,14,7,14,10l-5,8c-11,17-15,41,4,49,8,0-12,12-12,27,0,28,36,34.1,75,47,64,21.2,91-39,67-51s-40-1-44-5c-11-5,49-2,52-2s5,15,5,36c0,54-34,75-51,167s-26,70,0,157c-123.4.9-246.8,1.8-370.2,2.7.2,7.8.3,15.6.3,23.6.1,15.6,0,31-.3,46,169.1,0,338.1-.2,507.2-.3,0,28,13,138,13,146-3,28-7,52,7,76,4,10,4,0,0,59-.8,12-1.9,8.9,3,14,15.3,15.8,34,18,43,21,0,13,1,17-5,27-8,18-5,9-10,41,8.1,53.5,4.5,95.1,0,122.5-9.3,57.6-29.7,97.2-34.1,176.5-1.9,33.5.8,44,3.5,51.4,18.8,51.1,89.3,91.4,139.4,71.6,40.6-16,61-68,65.1-83,36-132-9,57.1,93,93,74,26.1,143.8-74.9,109-174-15.1-43-40-203-35-289l6-49c17-14,26-17,33-27s.9-4,0-11c-13.5-105.8,26-181,42-266,785,0,785-2,785,3,58,304,51,187,58,331,6,26,21,52,35,58,5,1,4-1,3,12,0,20-3,29-13,71-1,9-2,10-5,14-28,28-18,49-5,55s6,3,7,8,0,56-16,104c-45,135,36,221,115,199,90-25,80.3-144.9,68-237-3.2-24-3-20-6-154-10-23-6-13-17-45-9-63-11-53-3-63,25-28,18-53-8-130-.8-9.4-1.8-19.2-2.2-31.5-1.2-36.2,2.6-63.1,4.2-75.5,3.3-25.4,7-63.5,8.5-118.2,10.8-.3,21.6-.6,32.5-.8,0,18-12.1,121,11,187,6,17,2,11,2,14,4,24,2.7,12,8,52,13.3,101.1,48,106,48,119,0,24-18,104-18,104-2,15-2,264,0,276,6.1,37,21,68,41,82,71.1,49.9,190.1,26,154-116-13-51-7.2-88.9-36-163-5-13-5-10,0-16,18-26-.2-45.8-15-66-23.3-31.8-18-18-28-84v-9l11-6c0,20,17.8-9,12-99-13.5-210,0-238,0-275l49-1h.4ZM2413,1993c0-2.9-.1-4.4.3-5.8,1.6-5.3,5.6-8.3,7.7-10.2,3-2.6,5.5-8.2,10.6-19.5,3.5-7.8,7.9-19.1,11.6-33.7,4.3,5.1,9.6,12.7,13.4,22.7,7.6,19.6,5.5,37.2,3.9,45.6-15.9.3-31.7.6-47.6.9h.1ZM2514,1958c-7.4,17.9-16,30-29,38-17,13-17.8,2-18-19-.5-67-14-47-14-72s10.2-20,17-59c3.1-18,4-13,7-9,16,30,9,50,5,86,1.8,5.3,14.7-6.8,17-42,8,25,0,77-15,97s-6,9-3,9,15-10,21-20,8-21,9-37c3-15,.8-14,6,2,3.9,12,3.7,9.9-3,26ZM2416,1684c3-5,8-8,13-12,35.8-28.2,29.8-68,33-29,9.4,115,73.8,172,69,247-2.1,32-10,53-10,41,0-35.8-53.3-149.9-67-167-8-10-5-6-2-4,13.9,9.1,20,11,18,7s-33.9-28.2-49-36c-9.9-5.1-16-10-16-14s8-28,11-33ZM2362,1668s-.1-.2-.2-.3c.2,0,.3,0,.2.3ZM2284,1690l21-42c17,0,26-4,26,0,11,4,20,15,29,25-9,11-5,6-16,23s-2,5-7,3c-14-7-16-8-36-8s-17,0-17-1ZM2163,1688c12-6.9,25,1,25,12s-7,21-10,22c-6,2-21-3-27-10l-3-3c5-10,8-17,15-21ZM2198,1580c4.1,5.9-8,7-21,45-4-13-9-34-9-49s0-2,2-1c8,8,14,41,14,20s-12-19-20-39-21-24-36-53c-10-17-14-28-30-30s-6,2,1,6c10,7,17,15,23,29,11.1,26,10.6,17.2,22,38,3.9,7.1,11,27,11,28-31.5-31.5-30-32.6-30-24,0,19,40,37,19,43-5,1-5,3,1,3s10,1,10,3c-2,5-1,3,7,5,3,21,4,32-5,55s-17,37-18,37-3-4-5-13,3.7-28.9,0-50c-6.5-36.9-17-43-61-107-31-33-25-29-16-13,77,112,74.3,98,71,166-.9,19,0,18-3,19-10,5-35-30-33-32s2,0,4,1c4,1,10,0,13-2,9.9-6.2-9-4-22-6l-8-19c6,4,11,13,25,4,21.7-14-5.5,1.5-15-8s25,2,25-20-3-12-5-5-9,11-21,13c-11,1-16-3-19-15s-9-24-11-24-1,12,2,21c-15-21-40-60-54-74-22.7-22.7,18.1,31.9,48,84,41.3,71.9,44,73,37,73-20-5-12-2-35-13h3c7,2,12-3,12-11s-1-4-5-2-11,3-15,1-13-14-13-19,4-3,8-6l8-7c0-3-6-1-16,4s-12,4-17-2c-4-6-6-8-7-7-9,12,38.1,48.8,20,36-12.9-9.1-41-33-49-42-20.1-22.9-23-56-21-23,1,8,17,26,7,23-45-3-97-33-97-34-2-3,2-23,5-31s4-3,28-6,15-3,19-8,8-15,5-15l-43,12c-3,0,11-18,21-26,24-22,136-75,163-68,34,12.5,44.1-28.1,105,40,.8,1.6,21,22.5,23,44-3,19.7-7.7,42.8-2,51ZM2035,795c-1-5-4-4.3,15-2,88.9,10.7,171.1-8,171-8l1,13c0,73,36,37-78,118-4,0-66.9-37.1-95-56-12-8-10-6-10-11,4-36-2-47-4-54ZM2147,930c22,14,57,47,57,49s-8,14-9,14l-5-4c-3-5-6-4-10,3-8,12-7,12-17,12-17,1-16,2-17-3-4.1-20.6,2.2-23.9-2-26-4-1-9,12-9,24v7c-19-19-16-19-33-25,18-20,28-29,45-51ZM2150,1077c3,4,7,7,11,7s6-5,6-15c0-17-7-10-7-38l-2-18c8,0,5,0,13,2,15,23,16,30,28,44s12,2-27,157c-9-60-57-138-57-144,22.6-45.3,8.3-14.1,25-53,3-3,10-6,11-4s1.9,24,0,34c-3.2,17-4,24-1,28ZM2196,1157c26.5-97.1,17-115,47-193,28.5,46.1,38,42.6,94,115-80,95-85,127-155,208-7,10-5,7-6,7,0-46,7.8-92.1,20-137ZM2217,1009l-9,41c0,7-2.9,5-13-10-16.9-25.1-14-16,16-53,12,12,9,10,6,22ZM2105,995c10,8,19,19,21,23s2,4,0,9c-9.8,24.1-13,28-17,34l-31-61,17-12,10,7ZM2109,1089c30.6,50.2,54,102,57,180-83.1-99.2-107.2-139.6-206-189,28-34,62-63,100-86,2,0,4.1,6,8,14,23.4,47.8,25.8,56.1,41,81ZM2162,1399c-5,11,2.8,1.9-16,25-12.1,14.9-9,10-10,8-1-1,36-48,26-33ZM2225,1470c-16,8-17,13-26,1s-5-6-4-11c2-7,1-5,11-15,10,5-5,7-5,9-3.9,3.9-4.5,2,3,7,6,9,6,5,10,9,1,3,0,3,4,0,2-2,2-4,3-8s0-5,2-4c3,3,7,4,11,3s3-1,6,1c4,1,3,3-3,5s-6,6-6,9c0,5,9-1,12-3l-1,2c-2,0-1,2,1,2,3,0-5,3-8,3s-4,1-5,3c-2,3-1,1-8,5-3,3-7,4-12,3-9-1-7,1-21-13l5-9c12,15,12,12,25,8s7-5,6-7ZM2267,1460c1,5,0,8-2,10-6,4-9,5-13,2s-7-5-12,0c-9,10-6-1-4,1,0-7,10-1,10-13s19-11,11-19-6-8-6-11-1-1-2-1c-3,0-6-2-8-4s-8-3-11-1-3,1-6,0-2-2-7,3-6,5-6,1,5-8,10-8,5-2,9-6,2-1.9,6,0c12.9,6.2,18.9,7.1,22,15,4.8,12.1,15,11,9,21s-1,5,0,10ZM2250,1475c-3,3-5,4-2,1s2-4,2-1ZM2217,1459c3,2,2,2,2,4-1,5-3,6-3,2s-5-10-9-10-3,0-2-1l4-1c2,1,3,0,2-1-1-2,0-2,8-5,4-3,3,0,0,7,0,4,0,2-3-1-3,0-2,4,1,6ZM2208,1462c-2-3-3-3,3,1,2,3-1,2-3-1ZM2218,1437c-3-3-4-5,0-5,4,4,7,3,5,7s-2,1-5-2ZM2220,1428c4,0,5,.3,3,1-2,1-4,1-3-1ZM2223,1449c2-5,3-3,3,0,0,5,14,8,6,10-5,2-11-5-9-10ZM2232,1448c-3-3-3-4,0-4s3,1,3,3c7,8,6,8,6,5-4-6-7-13-13-9-4.5,2.2-4,2-4-2,4-4,0-7-3-10,4,0,6-.7,6-2-1-2,0-1,5-3l2,3c8,8-5-3-5,0,11,11,3,3,13,20,0,3,5,3,6,0s1-2,2-1c2,2,0-3,2-3s3,0,2-2,0-1,2,0c6,3-12,8-12,15s1,4-3,1c-2,0-4-3-9-11ZM2239,1437c4,1,2,0,6,4l-6-4ZM2244,1446c-9-9-4-6-1-4l1,4ZM2237,1432l3,2c-2,0-3-1-3-2ZM2235,1427c-1-3-2-3,1,0,1,3,2,3-1,0ZM2249,1433c1,3,2,3-1,0-1-3-2-3,1,0ZM2214,1442c6,2,5,2,3,3-4,2-8-1-10-2,5-7,3-7,7-1ZM2209,1437c-3,3-3,2-2-1s2-4,3-2l-1,3ZM2211,1556c-2-1-1-15,1-16-1,1,1,3,2,4,3,3,3,2,5,0s0-2-2-5c-5.1-7.9-8,1-4-14l14,13c-2,3-15,19-16,18ZM2213,1512c9.6,8.4,8.5,6,6,11h-4c-2-7-2-5-2-11ZM2230,1535c-2,0-11-9-11-10,2-2,3-1,2,1,1,3,0,2,5,4,2,3,4,3,5,0,1-2,2-2,2-1,2,1-1,6-3,6ZM2295,1452c-26,23-34,26-59,75-1,1-24-19-24-21l-6-13c15.1,0,9.8,3.4,25-8,0-3,32-8,37-15s1-2,1-19c2-6,1.3-10.7-2-14-12-15-7.1-14.7-20-20-9.1-3.8-18-10-20-4s-5,5-9,5-9,6-9,9,0,2-5,11c-4,14-11,13-11,20s-2,13-4,16c-5.1,7.9-13-12-43-36,17-23,35-44,54-64,6,4,97,76,95,78ZM2217,1371c12.2,9.8,11.7,7.3,5,14-12-11-19-15-19-17s2-5,4-5,5,4,10,8ZM2222,1361c2.7,3.3,2.3,3.7-1,1-7.1-5.9-7-7,1-1ZM2229,1387l1,3c2,2-1,1-3-2-1-1-2-1,2-1ZM2198,1356c0,7-26,38-25,33-1-1-3,1-5,3l6-9c25-32,29-39,35-33s-11-1-11,6ZM2233,1385l4,3c-4-1-3,0-4-3ZM2243,1377l30,25c-17-7-47-39-30-25ZM2274,1418l-3-2c0-2.1,2.1,1.1,3,2ZM2256,1405c0-2,2-1,4,1,4,2,3,2,0,7,0,1-1,2-2,1v-4c4-3,3-3-2-5ZM2240,1390c0-2,1,1,11,9-1,0-11-7-11-9ZM2246,1401c-1,3-1,2-2,1l2-1ZM2243,1399c0-2,1-1,0,0h0ZM2303,1447c-2,1-1,2-20-13s-15-14-8-9c6-2,3-5,17,7s14,11,11,15ZM2295,1420c-2-3-5.1-5.9,9,7,20.9,19.1-7-4-9-7ZM2316,1445c0-1,0-2,1-1s0,1-1,1ZM2317,1440c-4-7-4-6,0-2,3,2,2,4,0,2ZM2428,1463l6-10c0,3,6,10-6,10ZM2434,1452v-.2.2ZM2543,1593c4.1-13,3-6,5-12,5,18-14,39-19,39s-10-5-10-7c0-3,16.1,5,24-20ZM2516,1597c14,0,17-6,17-2,0,7-13,12-21,7s-5-5,4-5ZM2548,1618c-8.1,9.9-16,18-27,24l-11-13c-12-15-23-32-21-32,14-2,12-2,15,5,4,7,14,17,19,20s10,3,16-3c13-13,11-19,13-15,2,6,.9,8-4,14ZM2497,1041c17,11,29,20,33,20s7,2,7,12c4,39,7,44-17,61-51.5,44.5,8.6,13.6,24-11,6,14,8,21,13,29s4,11,9,20c-11-1-15-2-27,1-15,5-31,13-31,17s5,1,15-3c23-9.1,31-7,46-5l3,40c0,9,10,18-14-10l-7-12c-6-11-9.1-9-7,2,4.9,26,30.1,34,38,60,6.1,20,13,30,21,46-6,13-18,30-18,34s18,26,18,66,1,14-2,7c-22-42-21-41-23-41-5-1-3,5,9,34s9.1,25,11,40c3.2,25-6,60-15,83,3-23,9-56-7-72s-2-1-3,0-.9,4,1,13c8.5,40.9,0,58-4,106-3,10-9,22-10,21-5-31-2-88-80-127s-37.8-18.8-44.8-22.1c29.7-54.5,23.4-79.1,65.8-83.9,46-5.2,16-1,25,4s6,3,8,2,1-2-1-6c-6-12-19-12-32-12s-21,2-30,8l5-17c0-8,2-10,8-10,14,0,18,16,30,11s6-3.9,0-5c-15-2.8-9-15.2-29-18-8-1.1-5,0-16,11,2-10,1-15,10-17,14-3.1-10.1-7.1,10-38,16.9-26.1,20-34,10-31s-9,7-10,13c-2,12-8,8-20,34-4,11-2.2,13-8-15-7.2-35-6.2-41.1,17-72,15.9-21.1-5-9-19,12s-4,7-5,5c-2-4,0-14,2-19,3.8-9.1,18-18,2-16s-7-1,10-12,3-2,3-3c-24-3-21-1-18-4,5-3,3-7-2-7-12.3,0,3.8-87.8,33-117s12.4-8.8,11.3-11c-.5-1.1-3.7-1-4,0-.4,1,2.9,3.3,5.7,5.1h0ZM2390,994c44,10.2,56,20,94,40-52,52-51.8,132-38,204,26.3,136.9,8,147-26,210-8,18-5,15-12,15-16-1-22-1-43-10s-21-7-39-11c-2-6,0,0-121-100l-6,2c-15,16-29,32-42,49,8-46,6-34,11-55,10-6,23-14,37-47,30-59,53-71,89-128l56-83c0-5-16-26-28-38s-8-6-4-10c14-14,34-15,30-23s-16-5-30-28-15-34-15-35c45,36,36,36.2,87,48ZM2269,905c2,1,5,7,9,13,14,18,34,72,51,89,5,4,6,5,4,5s-16,7-21,11l-4,5c-26-21-29.9-27.1-50-56-18.9-27.1-12-16-5-26s14-27,14-37,0-5,2-4ZM2232,864c35,47,25.1,40.7,4,97-5.2,13.9-11,26-12,26l-8-8c-27-34-80-69-62-57,32-22,70-58,78-58ZM2451,514c-5.1,88-31,163-104,212s-24,15-18,10c82-56,125-161,116-262-2-13-11.9-48-25-75-18.9-39-1.4-22.2,19,28,11.3,27.9,14,53,12,87ZM2387,315c-18-32-19-26-6-37,4,4,6,25,6,37ZM2358,293c-3-1-2,0,0-4,5-2,3-3,8,4,12,17,9,13-8,0ZM2146,163c28.8-17.3,62-23.9,95-21,59,5.2,112.2,62.4,135,116,3.9,9.1,2,6-12,17l-14-14c-41-43-113.3-61.9-178-40-17.1,5.8-34,7-55,7,7.9-43.8,5.4-50.8,29-65ZM2116,234v-4c64,0,45-15-1,31-1,0-1-20,1-27ZM2119,271c32-43.3,80-56.8,132-52,45,4.2,68,20,93,47s13,14,10,17c-3,4-4,4-18-2-51-26-112-30.8-151-20-54.9,15.2-63,58-66,55-6-37-6.8-35.8,0-45ZM1841,269c21.5-67.2,67-94,90-111,72-43,166.8,9.1,177,35,3.9,10,5,33,1,35s-38.1-1.6-55-4c-50.9-7.3-32.7-8-94-6-28,6-63,23-85,40s-22,21-30,31c-7-5-9.1-4-4-20ZM2108,264c-12-8-23-22-53-34s-15-6,12-3c0,1.6,0,1,44,3-2,6-3,27-3,34ZM2110,310c-15-13-23-22-42-31s-63-22-87-24c-88-7.2-128,49-128,37s144.1-137.2,249-19c8.9,10.1,8,4,8,37ZM1849,298c-7,9-6,8-3,2s3-3,3-2ZM1837,296l1,3c-2,8-1,6-4,11,0,0,0-14,3-14ZM1827,341c1,1-4,9-4,9,0-1,3-10,4-9ZM1833,327c3-13,3-5.9,7-9,15.2-11.8,10-9,20-15,3-3,3,1,5,3,4,3,4,4,9-1,0-6-4-4-9-6-1-1,13-13,21-17l21-9c32-10,66-12.9,92-9,35,5.2,104,37,116,70s5,35,3,35-5-4-10-9l-16-15c-29-22-84-34-143-33s-32.9,2.2-50,7c-33.9,9.5-63,30-82,59-2,0,6-21,16-51ZM1868,301l3,1c3,1,2,2-1,2s-5-3-2-3ZM1835,694c-61-70-72.9-178-64-229,8.1-46,39-97,39-86-8,29-33.7,89-26,159,5.2,47,23,101,45,135s58,58,80,73c-27-13-52-30-74-52ZM1937,758c37,11,19,3,40,13,0,3-40-13-40-13ZM1937,720c14,36,36,43,19,37-78-20-138-82-157-160-25-76-14-145,12-210,3,21,3,17,5,6,.9-4.7,1-7.4,2.1-10.1,3.4-7.8,10.6-13.3,14.9-15.9,12.6-7.6,193.2-92.2,269-4,7.1,8.3,14.9,20,20.7,36.4,2.1-11.5,7.3-30.7,22.3-48.6,34.7-41.5,90.2-38.3,97-37.8,54,4,95.1,17.9,125,38,25.1,16.9,42.9,45.1,26,20-26.2-38.9-82-56-128-64-13.6-2.4-26.1-2.6-37.9-1.2,0,0-34.9,3.9-76.1,32.2-10.8,7.5-18.7,16-18.7,16-2,2.1-3.5,3.9-4.3,5l-4,6c-4-33-3.3-46.2,22-72,32.7-33.3,68-34,114-30v1c28,4,61,14,78,24s6,4,6,5c0,2-9,9-11,9-1-3,0-2-7-2-3,3,0,9,5,9s4-2,8-6c9-8,10-8,16-3,14.2,11.8,22.7,19.8,30.5,33.9-15.7-18.4-5.6-2.3,7,15,2.4,5.8,4.8,12.4,7.5,20.2,6,14,3.8,57.1,10,19,1.1-7-.3-7.9,6,6,10.5,23.2,22.2,54,25,71,20.4,123.8-52,263-183,296,8-10,13.1-14.9,21-29,18.3-32.8-28,31-57,36-108,10-118,14-197,2-33-5-46-3-88-50h0ZM2027,779c-19-6-17-6,4-3,49,7,90,11,164,1,8,0-18,11-84,11s-65-3-84-9ZM2026,876c7-43,3-16,6-15,63,38,55,43,106,65-16,23-29.9,34.1-53,53-20.9,17.1-13,10-14,9-30-58-52-69-45-112ZM2012,907c7-13,4-5,4-2,6,28,16.2,38.9,31,65,5.1,9,5,5-1,13-10,10-45,41-47,41s-4-3-9-6c-24-22-45-12-45-27,0-23,61-71,67-84ZM1799,1616c-2,1-11-9-15-16-27-40-60-36-69-58s-3-8-9-36c-7-49-11-9-3,21,4,22,10,30,29,40s36,26,31,22c-62-31-54.3-21.9-92-109-6-14-6-20-3-34,7-23,15.9-32.1,25-39,17-12.8-.8-4.4-22,6-11.5-22.3-3.4-33.8,11-51,31-37,18-54,23-88s13-30,14-30c7,21,22.9,21.1,14,9-8.1-10.9-5-24-4-58,10-12,73.8-10.9,113,58,19.9,35,7,11,8,11,4-3-10.2-43.7-46-66-19.1-11.9-53-21-74-13-2,0,0-7,5-16s5.9-13,7-30c7.2-112.6,36-108,74-108-31.1-15.5-11.6-4.4-9-7,32-21,37-20,47-20s8-1,19-7c92-50.1,79.3-48.9,74-33-8.5,25.2-25,32-15,42s5,3,10,4c18,3.6,30.8,12.2,44,25l-39,38c-12.6,22.3-8.7,15.4,6,21,42,16.1,79,43,108,77,17,37,44.2,41.9,63,83,10.1,22,12.7,38.9,3,62-10.4,24.8-9,52,1,71,11,21,1,35,1,35-6-2-13-4-15-21-4-10-4.3-11.1-7,1-4.5,19.9-12,25-28,32-53,0-42-14-92,3s-62,16-73-6-2.2-7-3-25c-1.2-27-2.9-34.1-15-58-17.8-35.1-15.3-41.9-32-154-16.3-109.9-24-148-47-163-6.5-1.1-14.6-2.1-15.4,0-.7,1.9,4.5,5.3,5.4,6,24.7,17.3,35,86,35,86,19,111,36,222,31,273s-5,33-6,34c-3,3-27-20-43-11s-6,4.9,5,7c31,5.8,35,27,74,49-25,11-50,28-77,63s-31,19-27,78ZM1831,1565c-5-4-4.9-1.9-1-8,11.4-17.8,47.8-58.4,76-71,13.9-6.2,16-7,33-7l-4,2c-77,50-68,77-74,101l-30-17ZM1834,1722c3.7-44.9,13.6-52.1,22-90,2.9-13,11-31,12-34,0-3,3,1,48,17,1,1-5.9,8.1-13,13-18.9,13.2-38,11-42,18s0,5,2,5c55-18,47-12,62-32l13,5c-17,7-36.3,14.9-45,36-4.1,10-7,10-21,28,0,4,5,1,18-9,35-27,6.7-23.6,54-48,7.3-3.8,3.1-4.2,29,1-14,26-33,52-54,73,5-6,3-3,7-13,44.1-40.4,16.8-39.5-1-4s-19,20-25,23c-22,11-59,16-59,19s-2,3-6,3-1.8-1-1-11ZM1886,1726l-7,1c-.5,0-3.2-1,7-1ZM1830,1751c2.2-10,1-8,7-9,39-6.8,33-8,39-6-22,27-14,42-7,29s12-19,26-26,7,0,54-53c8-9,26-39,34-52,9,8,29,26,27,28-74,57-131,100-196,186-22,34-26,75-19,91s14,19,19,19c12,0-17-11-12-49l16-48c2,30-1,33,9,52,24.1,45.8,11.4-4.5,20-34,7-24,10-29,12-31,5-5-13,28,10,74,0,3-15,15-27,22s-15,9-15,11,1,1,2,1c10-5-23.9,24-36-17-21.8-74,29.6-153.9,37-188ZM1305,1875c-11.3,51.9-17,49-50-7-14-18-7.9-26.1-42-79-8.9-13.8-15.1-22.4-8-13,0-4-21.1-36.9-39-61-48.2-64.8-72-76-120-107,55,18,104,37,165,72,1,3,.8,12-1,26-6.8,52.9,17.9,80.1,35,107,19.8,31.1,33,51,35,68s2,13,5,13c5,0,4,1,27-68,1,0-3.1,31-7,49ZM1091,2405c3-5,2-1,2-1,2,0,1,9-2,18s-1,39,1,81c-1,11-3,22-5,22s-9-78-9-13c-14-35-14-18-18-87-1-1-7,32-4,46,4,30,15,24,18,66s5,29-42,39h-5c-3-47-8-33,9-33,0-1-6-7-10-8h-3v-16c5,1,12,3,10-1s-7-3-10-4c0-11-1-14,7-11s5,1,5,1c2-2-1-4-6-7s-5-1-3-10l14,1c4-3-8-6-13-8-2-10,0-8,8-7,16,2,11-4-6-7-1-1-1-8,1-9,14,0,17,2,17-1s-9-6-13-6-3-2-1-6c4-7,8-1,16-1,1-2-5-6-10-7s-5-2-5-4l-6-13c-4-4-5-2-3,6,4,16,0,7-8,15-8,6,1,4,10,2,0,5,1,7-6,10s-11,11-2,7c6-2,5-3,4,2-1,2-1,5-3,6-5,3-9,6-9,8s1,2,5,0,5-3,5,2-1,4-4,6-8,8-6,9c5,2,9-8,9-1s-1,4-3,5c-6,4-9,11-3,8s5-1,5,4,0,5-4,7-7,4-7,7,3,1,6-1c4-3,4,2,4,14-7,7-12,13-3,9s2.8-3,5,12c3.7,25.1,7,24-11,18s-35-5-50-5c0-9-1-2,3-37s1.9-19,9-34c35.6-75.2,44-76,37-80-10-1-21-1-30-14s-3-7,3-2c10,13,33,11,51,11,26,0,56-3,59-8ZM1066,2406l16-7c8-5,10-5,4,0-6,6-13,7-20,7ZM975,2377c0-4,0-3,2,3,11,19,11,20,35,28-14-2-22-1-29-14s-8-13-8-17ZM1047,2407h-28c22-2,16-2,26-1,2,0,3,0,2,1ZM967,2301v-61c18-5,44-10,72-26,2,5,2,46,2,51l-74,36ZM964,2228c5-69-16-107,4-180s3-13,1-13-5,3-7,11-4,6-4-15-2-14,11-39c10-9,7-17-14,4-2-30,0-29-4-49-8.2-42,4-60-2-139,8-10,13.9-19.1,27-28,23.9-16.2-6-17-33,10-7-49-4-39-7-69,16-36,24-38,94-46-6,16-7,14-7,24,17,163,14,0,16,503-36,15-58,26-75,26ZM897,1912c6,27,35,44,28,66-15,78-10,24-12,239l-65-21c-15-5-20.1-143-22-170-6.5-94,3-189,33-279,14-32,14-36,16-55s0-20-6-29-2-3.9,6-1c52.9,19.4,48.8,52,52,92,5.6,69,6.2,64.9-5,44-22.6-42.2-17-56-22-51-5,66,38,70,38,121s1,12-3,8c-4-5-13-25-17-37s-5-15-8-13-1,3-1,11c3,37,25,31,27,82s0,30-3,30c-14,0-45.1-78-36-37ZM890,2276l1,10c-3-9-5-18-1-10ZM902,2398c-28,12-24,11-11,2s15-6,11-2ZM841,2254c7-49,6-49,9-49l62,24c2,2-5,36-7,42-18-10-23-14-64-17ZM811,1614c-30.1,5.5-75,40-89,51-7-1-16.1-41.1,4-69,8-11,3-6,30-23,21,5,23,9.9,60-3,49-17.1,41-24,48-19,6,6,2,19,30,30,1,1-22,22-36,32-59.5,49.6-88.5,24.3-164,94,28-31,76-73.1,121-83,65-14.2,2-11.1-4-10ZM692,1590c-32,2-36,1-52,4-2-9-2-5-5-31,128,8,133-21,126-7-10,11-24,20-37,24s-7,1.1-17,0c-16-1.8-15,1-15,10ZM647,1601c10-4,8-3.3,38-2,19,.8,13.9,1.8,22-3,13.8-8.3,7,1-2,23-49,0-60,5-70,7,4-18,2-20,12-25ZM798,1510c-1.2-7.1-8.9-10.6,34,22,5,3-1,3-3,6-4,5-3,7,1,7,8,0-8,6-22,12s-36,9-36,3c2-14,1-12.9,8-18,19.1-13.9,19.8-21,18-32ZM816,1331c-4,2-1,6-1,11-2,18-5,26-11,26-9,0-20-11-17-33s1-8,0-9c-5-7-14,14-14-7s5-63,8-83c8.4-55.8-26.5-52.7-14-26,8,17,2,7,2,8-2,3-11,5-17,3s-5-6-7-19c-3.9-25-3-16-17-54-7-13-5-2-6-59-1-10,0-9,8-26,0-5-3-13-9-18s-5-5-5-10c0-8,2-2-18-22-1-4,2-23,4-32s7-17,11-27c8-20,8-18,22-31,4-2,26-11,27-10-36,51-39,47.9-17,51,20,2.9,50,13,50,15s-8,8-16,15c-20.9,18.1-51,30-51,32,8,10,18.1,15,26,29,19.2,33.9,32.9,83.1,54,115,35.8,54.1,64,52,88,103s-1,0,13,108l-68,17c-4,2-2-1-3-3-7-19-21.1-10-18-35,2-16,0-31-4-29ZM727,1309c-1.7-37,7-75,0-103s-3-22-2-21c17,69,1.9,87,20,153,8,29,2,47,14,54s6,2,16,2,24,1,26,3c1,2,1,7-1,10s-4,2-36,1c-67.6-2.1-32.3.3-37-99ZM638,1445c2,1,6,0,14-7,39-28,46-68,56-97-7.1,64.1-4.1,63.5-22,88-55,75.3-155.6,4.3-185-92-2.8-9.1-3-2,6-35,4,23,7.2,52.7,40,92,19.5,23.4,30,36,30,28s-48-39-57-135c-4-24-2-2,12-58,2-6,1,3,2,7l5,21c12,38,5,54,12,54s6-35-3-68c-11.3-41.6-8.4-39.8,8-82,1-7,3-9,3-5,8,44,14,57,14,89s1,11,3,9c5-4,6.2-44-2-87-9.8-51-14-71-11-105,3-9,6-15,7-15,20,10,25.8,17.2,40,29,76.8,63.6,59.2,42,51,91-4,39-23,87-10,172,3,2,8,3,10,1s0-2-1-4c-5-5-5-9,1-20s3-8,4-12c16-47,14.8-37,21-72,5.8-33,1-17,26-71,4-5,3-7,3,6,4,47-5,96-7,113-2,38-21,110-61,151s-10,12-9,14ZM644,1026c11,4,37,15,54,15s5,0,5-2c-2-9-2-5-2-16l10,8v44c-8,10-1,2-40,41-25-25-22-11-22-36,0-42-8-58-5-54ZM682,1027c4-2,10-9,10,1l-10-1ZM674,1125c-2-5-1-1,40-41,0,51,3,57-17,86-27,39-6,48-38,126-1,3-9.8-22.1,14-145,1.9-10,3-21,1-26ZM727,917c15-50,5-78-17-103s-14-24-20-38-5-17-8-28-3-7,22,6c30,13,68,26,100,32s8,2,11,10,3,22,3,33c-14,9-35,34-39,51s-6,18-8,20l-37,15c-13,6-6,2-7,2ZM680,732c-1-4-2-10,0-6,18.3,18.3,59,35.7,86.1,43.2-30-8.1-59-20.8-86.1-37.2ZM938,902c25,8,30,17,53,42l-2,2c-13,9-12,9-12,7s-4-5-5-4-5,6-6,13-1,6-16,18c-1-11-1.9-10,4-24,10.1-23.9-5-15-11,4s-2,7-2,25h-32l2-8c7-28,0-39-15-28s-5,4-6,5c-2.8,5.5-.8,7.2,4,4,16-5,10,10,10,26-12-8-15-6-19-16s9-22,4-24c-2-1,1-3,9-9s8-6,5-8c-2-1-11,1-14,3-5,4,4-10,33-27s9-4,16-1ZM753,952c40-60,33-52,33-39,13,79,45,58-33,39ZM820,845c47,30,42,28,100,48-22,11-56,40-81,75-6-12-3-37-18-67s-12-40-4-53,2-3,3-3ZM883,980c27.9,19.1-3,26-19,74-1,0-20-60-22-72s0-4,10-15,12-15,12-9,6,13.1,19,22ZM819,939c0,7-1,12-3,13-2-5-16-32-16-50s-2-6,10,16c8,11,9,14,9,21ZM846,1103c24.1,58,91,266-8-66-34-114-11-38-14-49-4-21-4-19,0-28,14,82,16.8,44,58,202,21.9,84,21,79,20,89-2,20,7.1,1.9-54-54-77.8-71.2-36-106-100-170,18-9,36.8-20.2,51-34,20.8-20.3-2.9-10.1,47,110ZM874,1085c-10.9-31-6-20-5-24,2-6,7.2-15.9,18-33,19.4-30.8,18-32,24-32s3,0,3,3-3,7-5,10l-6,14c-8,24,8,41,23,25s5-11,1-25-2-9-2-17,1-12,3-11c2,0,2,1,1,3-2,17-2,19,7,33s4,7,5,12c1,8,2,10,4,9,4-2,7-17-3-29-6-10-4-4-8-28h2c1,1,3,4,4,9,8,27,19.5,16,22,44,1.7,19-36,88-54,161-10-34-15.8-72.1-34-124ZM958,1018c-9-15-5-8-11-25,50-42,40-32,50-42,11,9,9.9,6.9,5,18-14.4,32.8-23,48-33,67-3-7,0-3-11-18ZM930,887c-7,0-36-10-52-18s-45-26-50-30c-3-3-2,0-4-47-5-9,63,19,184-5-2,37,2.9,44.8-29,65-14.1,8.9-14,10-17,13-13,11-29,22-32,22ZM997,777c-10,5-42,10-79,12s-88-5-99-12-2-1,4-1c55,5,90,7,108,7,64-5,75-12,66-6ZM837,1414c16-8,43.8,31,47,116,.9,25,0,18-5,15s-26-8-34-8-4,0-3-2c14-46,22-72-4-115-4-5-3-3-1-6ZM899,1585c6-9,5-5,6-1,7,22,2,59,0,83-19-10-42.1-23.5-96-13-64.1,12.4,46.9-4.1,90-69ZM950,1653c3.6,35.8,5.9,26-15,45-3,5-5,6-5,4s-6-14-11-21-5-7-5-12c0-41,6-56-2-82s-2-7,0-8l9-3c14-3,2-8,19,1s2.3,0,10,76ZM941,1963c1.3,9.7,2.6,19.3,3.8,29-3.4,0-6.7,0-10.1-.2,2.1-9.6,4.2-19.2,6.3-28.8ZM962,1678c-10-48-5-84-5-92,44,21,84,37,140,89-16-3-67-20-135,3ZM946,1565l-1,2c117,54,155.7,93.2,186,124,7.9,8.1,13,11-16-12-116-107-194-106-169-114ZM1055,1546c6,3-48-3-90,12-19,5,33-20,90-12ZM1316,1778c0,9-1.2,16.9-13,48-18.3,47.9-14.2,46-17,33-10.8-50.8-63.7-69-68-138-1.2-19-1.9-15.1,15,0,20.1,17.9,24,21,47,27s25,9,32,18,4,6,4,12ZM1317,1721v39c-14-9-10.9-12.2-36-19-26.9-7.3-27-13-57-40,71,13,68-2,86,7s6,5,7,13ZM1313,1700c-28-5-57,0-85-9-11-2-8-2-7-16v-18c-13-34-30-27-11-37s50,1,71,7c26,47,20,32,32,73ZM1270,1608l3,7-7-2c-45-15-77,8-77,14s-1,1,13,21l7,20c-126-70-151-57-179-79-33-26-69-16-33-30s61,3,116-9c17-5,28,2.1,101-7,8-1,29,0,32,1,7,3,4,25,24,64ZM1311,1023c59,44,42,140,32,202-12,75-1,128-9,195,0,92-18,83-38,87s-16,4-20-1-9-6-16-4-8,2-8,5,1,2,6,2,13,3,12,5c-23-4-13-5-40-5s-23,0-53,9c-25,6-50,1-52,5-3,3,1,3,18,4,52,3,45-15.2,91-11,41,3.8,22,16,76-4-51,39-44,13.1-106,23-113,18.1-179-23-269,26-20,9-32,14-36,13-6-1-6.9-2-4-13,4.2-16,3.7-29.9-2-64-7.5-44.9-13-60-28-78s-7-9-6-9c71-29,101-26,161-22,65,0,118.1-17.8,101-8-17.9,10.2-29,33-29,55,0,39.4,7.2-34.1,43-52s9-3,15-3c51,0,27,76,73,76s8-4-1-9-13-10-17-16-14-32-15-38c-2.1-13,40,17,61,45s6,8,7,8c7,0-24-55-63-71-27-11-18-4-30-7,12-15,14-22,48-34,24-10,46-22,59-34s5-6,4-6l-8,2c-33,22-80,27-97,48s-5.7,13.9,3-42c1.9-12,14.8-26.1,29-61,11.8-29.1,13-26,27-47-2-4-17,6-24,17s-4,8-6,13c-5,10-5,15-1-14,7-36,23.5-43.1,30-64,3.7-12.1,18-25,18-31s-12,3-21,16-5,6-5,6c7-30,17.4-59.3,33-86,10.6-18.2,38-37,57-28ZM1113,929c7,15,7,16,9,16s2,0,2-10c17,9,35,17,53,24,60,39,67,31,52,35-19,7-23,13-1,13,39,3-26-1-26,60s-11,28-11,49,4,26,8,26,3-2,9-29,8-31,6-42c-2-17,0-21,19-36s18-14,22-15c12-3-18,10-34,79s-24,78-37,116c-1,8-2,24,0,32s1,5-3,10c-19,32-23,61-23,95-15,9-15,14-48,17s-16,1-49,8c-28,6-93-6-132,1-16,1-14,5-14-13-1-16-2-10,4-30,21-88,56-134,113-200,2,0,3,13,1,29s-1,12,0,14c2,3-8.1,54.8,3,52,91.5-22.9,84-24,142-24,0-14-2-22,1-44s1-17-3-24c-5-12-11-16-22-16-23,0-34,15-34,10-3-8-22-29-44-9-5.4,4.3-3.5,5-23-16,24-32,45-54,91-121,4-5,6-6,15-12-9-20-20.5-43-22-21s-4,15-8,20-13,8-16,8-9-4-15-11-9-9-7-10l25-10c3-3-2-11-9-27l6,6ZM1170,1171l-2,27c-25,4-80,4-126,22-4,0-3-15-3-31,6-3,0-1,45-13,18-2,80-6,86-5ZM1126,1167c-34,0-35.1,3.9-19-13,43.8-46.2,71.2-23,67,1-1.9,11-2,5-2,6-21,5-15,4-46,6ZM1091,1163c-5-14-8-23-15-32,8-12,17-15,29-9,19,14,16,11-14,41ZM1085,1168l-11,3c-34,6-30,13-34,5-5-7,2.2-19-3-44-15.4-74.1,64,36,48,36ZM1034,866c-3.8-18-10-20,23,13s34,39,47,64c-21,11-19,10-28,3-8-7-25-17-39-19s-5,0-5-2c4-12,5.2-44,2-59ZM1027,944c4-13,3-7,3-7,2-1,11,1,20,3,41,18,19,39,72,54l-68,93c-13,21-7,10-19,16-2,3-5,10-5,15,0,17-41.1,37-88,126-20,38-10.3,18.9-4,2,9.5-25.2,20.8-46.1,49-89,40.8-62.1,74.1-134.9,31-85-112.7,130.3-106,317-104,210s7-99,37-165,33-83,58-134,14-26,18-39ZM1017,833c3,3,9,44,1,85s-9,34-10,34c-36.5-54.8-66.7-61.7-69.6-62.2.5,0,1.6.2,3.6.2,31-22,62-48,70-56s3-3,5-1ZM1063,765l-22,6c-3,0,7-4,14-6s13-2,8,0ZM1216,388c36.4,61.4,35.2,100,30,148-6.7,62-25,109-55,147s-33,33.9-47,42c-24.1,13.9,28.2-12.9,58-72,28.2-55.9,43.9-123,33-184-14.9-83.5-46.9-128.1-19-81ZM1207,379c3,10,16,39,26,90,15,113-38.2,251.3-162,287-34.1,9.8-17,4-12-1,8-9,18-25,21-33,4.9-13-20,26-49,40s-9,4-28,6c-69,11-85,10.1-162,4-49-3.9-56,0-95-39s-15-14-8-1c13,24,25,28,20,28-27-7-54-20-79-39v-13c0-43,22-68,19-60s47,37,127,52c144,27,207-5,263-26s54-23,66-36,22-35,18-48-29-22.9-54-16c-62,17.2-72,15.9-143,25-147,18.8-240-24-288-32l4-11c4-4,43.2,4.4,73,16,12.1,4.7,29,14,45,8,26.4-9.9,22.7-22.3,3-42s-36-22-31-25c40-16,76-42,103-75,0-1-5,0-15,4-15,6-27,7-38,9s-7,0-7-2c0-6-12-9-8-9,51-7,58-15,88-30,93,35,156.3,53.6,242,3,20.1-11.9,30-17,34-17s4-1,6-3c4-4,5-3-5-2-32.6,0-37.6-36.8-105-45-90-10.9-167,62-172,53s4-11,10-18c11-11,26-18.8,57-28,116.2-34.4,152-10,228,32,7,7,0,42,8-6ZM785,671c5.9,2.1,14,4.9,19.8.6,3.8-2.8,4.6-7.9,6.2-11.6,131,33,154,15,215-3,27-10,36-23,91-45s17-4-60,7-124,7-253,7c-1.9.2-3.9.4-3.9.7,0,1.9,66.5,5.2,105.1,5.8,45,.7,107.1-1.6,182.8-14.5-87,59-172.8,67.4-266,39-5.9-1.8-19.3-7.7-20-6.4-.5,1,6.3,6.2,8.2,4.8.4-.3.8-1-1.2-11.4-.6-3.1.2-5.9-.8-6.2-.6-.2-1.4.6-2.1,1.4,7.7,1.3,15.5,2.4,23.4,3.5,32.4,4.4,63.4,6.6,92.4,7.2,0,7.3.7,10.7,2,10,2-1,1-4,2-5,1-7-1-4,49-8h6c0,17.3-1.1,16.6,4,0,36-7,30-4,29,0,0,4,0,3,3,0,0-5,2-4,39-15,3-2-30,4-38,6-5-6-4-6-4-2s-1,2-29,7c-8-9-6-8-6-3,2,4,2,3-28,5-27,0-24,1-27-3s-14-13-3,2c-17,1-37.5.2-57.6-1.2-19.4-1.4-40-3.9-46.3-4.6-3.8-.5-6.9-.9-9.1-1.1-3.2-10.6-8.5-17.3-11.7-21-4.5-5.3-10.7-10.2-20.3-15-14.8-7.3-22.9-7.4,55,4,86.1,12.6,136.9,2.4,223-10,57.9-8.4,48-13.1,76-17,53-7.3,33,44,9,62s-114,64-210,64c-154,0-221-58-227-58-.6.2-.9.2-.9,0-.2-.4,35.3-6.5,59.9,9.9s12.1,10.8,24,15h0ZM801,653c-3,0-19-25-19-30s0-4,2-5c4-2,5,2,14,14,4,16,3,11,3,21ZM679,593c-9.9,9.1-4,4-4,3l10-23c2-2,16-1,25,2,18,8-4.8-5.8-31,18ZM816,557c-2,2-16-4-21-6s-14-11-15-14,0-3,3-5c6-4,3.9-3.9,11,1,8.9,6.1,24,22,22,24ZM768,511c-67-7-9-5,17-18,34-23,29-20,36-22s8-2,8-1c0,2-34,26-61,41ZM729,431c-5-.9-6,1,10-25s10-19,9-27c-2.4-19.3-13-26-13-26-2.4-1.7-3.8-1.8-3.7-2.5.2-2.8,20-4.5,36.6-3.7,0,0,21.3,1,50.1,11.2,8.8,3.1,9.6,4.4,9.6,5s-1.5.6-4.6,1c-42.1,5.6-39,53-4,67,0,1-28.1,11.7-90,0h0ZM791,456c-15,5-9,6-17-7h34c1,0-2,2-17,7ZM733,447c-25,5.8-14-8-12-8,23,6,55.9-2.3,12,8ZM818,407c0,4-5,4-5-2s5-1,5,2ZM878,393l17,13c-28,17-68,27-46,16,13-15,12-13,14-26s-12-19,15-3ZM841,410c0-6,5-1,5,2s-5,4-5-2ZM836,383c0-6,5-1,5,2s-5,4-5-2ZM1088,358c-24,6.9-37,60,10,68l7,2c-65.8,22.4-150.8-2.1-191-24,73-37,105.2-59.7,167-50,13,2,14,2,7,4ZM1094,391l2,2c0,4,1,3-4,3,0-4,0-2,2-5ZM1109,379c0-4,4-4,5,0l-2,2c-2,0-3,0-3-2ZM1125,404c0,2-4,3-5,1-2-4,5-6,5-1ZM1138,379c-13-28,1-1,10,4,1.9,1.6,3.5,2.7,4.5,3.4.5.4,10.5,5.6,14.5,7.6s2-1-21,12,5,1-8-27ZM1199,370c-1,1-2,1-3-2-72-86-222-56-268-23l-26,24c-2,0,2-30,4-36,15.7-46.1,148-112,249-36-13,7-15,2-15,8s2,3,6,1c2-2,6-2,13-5,9,6,5,3,18,15,7,4,7,6,9,12,14,42,13,36,13,42ZM1175,302c2,2.7,1.3,2.7-2,0-8.9-7.1-3-10,2,0ZM1180,293c2,2,2,10,1,6-2-3-3-8-1-6ZM910,201c3-13,8.9-21.1,24-31,36.8-24.2,76.9-34.7,118-26,48.9,10.4,104,66,123,123s2.5,7.6,3.6,11l-4.6,7.9-14-14c-39-39-93-57.9-136-56-24.5,1.1-24.6,2.4-32.6,4.3-7.4,1.7-18.5,4.4-61.4,6.7-4.9.3-12,.6-20.6,1l.6-26.9ZM973,226c-35,16-33,17-60,38-4-29-2-27-4-34,30.6,0,55.1-4,64-4ZM911,284v-3c21-24,46.9-52.2,97-58,85.8-10,159,60,159,69s-48.4-53.2-141-36c-66.4,12.3-95.7,34.6-108.2,46.6-2.1,2-6,9-8.3,8.1-3.5-1.3-.2-19.3,3.4-35-1.1-2-2.8-4.9-4.4-4.7-6,.9-1.2,43.3-8.5,44.9-4.9,1.1-8.2-18.6-24.2-33.4-10.7-9.9-26.4-19.3-49.7-23.6-82.6-15.4-153,23.3-171.4,38-.8-.4-1.7-.9-2.7-1.3,10.8-14.9,35.4-44.2,54-56.7,22.8-15.3,66-23.8,102-20,50.2,5.4,74.1,26.5,103,65h0ZM648.4,300.8c.6.2,1.1.4,1.8.6,0,.2-.2.4-.2.5-4.4,4.4-4.4,3.2-1.6-1.2h0ZM906,261c-54.1-49.2-64.8-31-2-31,0,7,2,8,2,31ZM633,283c19.9-72.6,75.8-132.9,145.7-140.4,38.4-4.1,84.3,13.5,103.3,27.4,7.5,5.4,11.4,10.8,12.8,12.9,11.5,16.9,9.6,36.5,8.2,45.1-76,0-74-28-152-11-25.7,5.6-47.3,9.7-68.9,25.5-20.2,14.8-32.3,33.5-39.6,48.8-1.7-.7-3.5-1.5-5.5-2.4,0,0-4.3-1.4-4.6-3,0-.5.6-1,.6-3h0ZM631.1,299.6c.2-1.3.5-3.5.8-6.4l8.1,3.6c-.7,1.8-1.4,3.5-2.1,5.1-1.9,5.2-3.7,9.2-5,12-.8,1.7-1.6,3.4-3-2,0-4.2.5-7.5,1.1-12.4h.1ZM611,402c.5,0,.9-1.3,2.7-13.4,1.5-10.4,0-11.2,8.3-29.6,10.2-22.9,9.7-28.2,25-44,11.8-12.2,11-12,27-4,3,1,7,2,7-2s0-3-1-2c-7,0-3,1-17-5,0-11.3,165-93.1,226,11,.5.8,9,16.8,9.6,16.5.3-.2-1.5-5.1-1.5-5.1,0,0-.4,14.4-1.1,41.7-21-36-82-58.2-120-60-25-1.2-71,11-105,27s-33.1,21.9-44,39c-19.1,29.9,3-5,26-21s72-34,125-38c102.3,24.2,105,39,122,75,.2-.2.9-1.7,2.3-4.2,31.6-54.8,109.7-63,125.7-64.8,12.3-1.3,34.5-3.6,63,2,57.6,11.3,94.3,45.6,109,61-15-9-18-16-68-37-31-13-41-14.5-73-15-92.3-1.6-148.6,48-159,58.7v-.7l-.7,1.4c-.2.2-.3.3-.4.4-64.9-64.9-126.5-82.1-215.9-38.9-12.1,5.8-116.6,65.7-6,10,41.1-20.7,57-25,88-25s19,0,30,2c56,14,81,36,99,59,4,8-8.7-13.5-58-38-28.8-14.3-39-16-71-16s-34-3-135,45c18,3,17,4,36,18l-87,134c-5-18-3.9-60,0-75,8.2-31.9,19-57,28-77,2.1,11.8,3.3,14,4,14ZM708,368c13-13,16-10,19-9,1,2-1,9-4,14-4,9-10,11-17,7s-4-6,2-12ZM671,400c-2,0-21-13-21-14,84.7-42.3,53.3-32.9,21,14ZM604,378c3-4,.9-2,2,3,2.8,13-40.6,62-31,153,1,10,3,9-6,18-9-68-5.4-119.3,35-174ZM546,664c-1-16-3.9-24.9,14-54,14.1-22.9,2-4,19-39s-7.8.2-25,21c-15.8,19.2,2.1-9.9,8-17,23.5-28.6,44-60,61-93,4-5,2-3,6-1,6,2,16,1,16-2s-2-1-5-2c-9-3-7-2-10-5,8-11,6-11,14-1,4,6,10-6-4-13l59-79c3-3,1,18,17,10s12-39,21-21,3,6,2,14c0,13-2.1,18-13,35-35.2,54.9-1,28-71,63-4,4,17-1,14,1-41,31-55.8,58.1-75,104-13.8,33.1-14.1,33.9,5,0,48.6-86.2,57-89,107-116,17-12,59-28,69-8s6,5,10,4c37.3-13.7,42.2-17.2,17,9-6.9,7.1-40,20-60,23l-18,2c-23,3-49-30-94,39s-16.3,32.9-22,53c-6.3,21.9-7,20-39,47s-6,5-5,3c4-20,18-30,20-51s1-13-1-13c-4,0,1,4-23,50-9,15-12,24-12,32s-1,8-2,5ZM565,778c-10-26-17.9-62-10-89,4.1-14,8.2-18.8,25-31,12.1-8.8,31-26,31-29s-4,1-23,13-14,8-15,8c6-11,12-18,22-25,16-11.1,17-21,22-41,13-27,21-49,35-64s7-7,9-4,13,8,17,5,1-2-3-3-9-7-9-10,7-5,9-5,7,6,7,10c0,9,8,0,5-10s6.1,1.5,76,16c14,2.9,25,9,18,9s-9,6-9,9c0,5,4,8.9,13,14,19.1,10.8,20,11,31,13-6,8-8,8-14,8-15,0-19-2-44-11s-57-16-63-16-6,1-8,2c-4,3-11,12-12,15l-14,54c-13,14-57,59-65,76s-2,3-6,3c-9,1-21,8-20,11l19,1c0,11-3.3,27.1,0,41,7.3,30.2,16.1,23,33,78,7,23,10,73-1,112-2.4,8.5-7.7,22.5-5.7,23.5s15.6-18.6,21.8-37.1c13-39,7.4-127.7,4.9-171.4,2-12,2-15,0-10-23.8,59.1,1,91-4,142-2,20-4.8,19-4-6,1.3-40-8-80-29-114-9-12-9-15-10-23s0-20,2-27,6-5,17,12,7,9,7,6c1-7-7-23-14-30s-3.9-5-1-10c8.1-13.9,67-76,97-105,2-1,1,0,1,2-2,5,3,15,6,14,0-8-1-12,2-15s0-5,9-3c0,11-3,26,3,17s2-4,4-16c55,25,53,24,50,27-6,8,7,36,21,42s3,7-6,7c-17,0-17-12-38-22s-8-3-7-7c3-5,3-10-2-5-3,4-9,5-18,4-27-3-27,8-32-7,0-4-1-6-3-4-4,5,0,11,2,15-9,11-10.2,9.9-18,32-9.2,25.9-7.2,64.1,0,93,21.3,85.2,78.4,64.2,29,190-20.8,53.1-26,71-26,75-39-6-65-37-94-44,6-40,22-93-21-205ZM630,1018c4,4,3,7,6,22,13.2,67,8,50,0,44l-58-45c-6-5-5-3-3-39,1-3,6-9,8-9,27,11,44,24,47,27ZM580,964c-1,15-1,16-6,21s-4,6-4,8c-2,6-.9,7-5,0-2.9-5-9-13-15-17,2-2,30-13,30-12ZM491,1116c6.9-47,25-58,25-106s1.6-28.2.2-28.4c-.9,0-2.9,5.5-1.3,6.9,1,.9,3-.3,6.1-1.5,5.8-2.4,11.4-3.9,14.3-3.7,5.1.3,9.2,2.5,13.7,4.7,7,6,16,30,16,42s-1,6-5,12-5.1,11-7,16c-4.2,10.9-3,2-3,43s0,37-10,68-28,97-31,97-1-3-2-6l-4-17c-14-38-15.1-106-12-127ZM490,1389c-10-38-3-23,1-41,9.6,25.4,28.9,94.6,105,118,39,12,28,7,38,7s31-7,44-17,7-5,7-4c-15,21-16,30-42,30-78,0-143-55-153-93ZM475,1471c4.2-22,12-17,29-42l11,13-30,38c-5,3-11.9,1-10-9ZM522,1448c21,15,26,16,22,18-37,2-41.1,30.9-46,43-7.2,17.9-12,31-14,31-26-13,1-41,38-92ZM546,1563l-11,11c5,1,13-1,17-4,6.9-5.1,3-1,2,3s-2,13,0,13,1,0,7-12c3-3,7-2,27,0,14,0,15,1,17,3,4,5,2,17-5,24-20,20-40,15-63,5s-35.8-5.2-49-15c-6.9-5.1-9.1-18-5-28,6.9-17,20-18,24-44s9-26,17-34c16-16,27-13.1,59-3,78.1,24.7,84,9,114-21,55-36,109-17,131-15,7-4-61-41-127-4l8-24c9-3,0,5,120,2,18.5,40.9,16.7,67,7,101l-38-26c7-10,5-12,0-17,0,7-4,11-5,11-5-13-13-19-15-19-5.5,0,17.4,23.7-6,10-12-7-14-7-14-5s12,15.1,15,17c20.8,13.4,18.1,32.1-7,48-15.9,10.1-32,14-65,16-100,6-128-20-155,7ZM628,1645c12-25,45.1-21.3,62-18,14.1,2.7,13,2,13,8l3,21c-54,20-49,18-116,82,12-42,26-68,38-93ZM585,1762c7.9-31,1-7,9-13s18.2-16.8,31-29c35.4-33.6,36-33,84-56,7,10,6,7-4,17-96.3,96.8-84,131-84,84,4-41-12.2,23.9-27,50-5.1,9-13,16-14,16-1-20-3.1-37,5-69ZM574,1834c0,16.7,46.4-16.4,69-59,6.9-13,18-30,19-30-21,47-12,14-41,116-19,67-25.8,101-38,64-9.7-29.5-9-46.9-9-91ZM703,1924h-88l3-8c0-5,0-2,2-6,5-25,7-8,28-96v4c15,60,41,85,55,106ZM203,1991.3v-65.3c358,0,370,0,371,2,3,6,11,31,25,25s13-18,15-27l92,1c.3,21.5.7,43.1,1,64.6-168,0-336-.2-504-.3h0ZM736,2213c-8-14-16.3-23-11-52,7.6-42.1-19.8-166-8-243,13.3-87,52-128,85-167-4-2-52.8,31.1-73,79-8.9,21-3,5-11,39-3,2-5-11-4-22,4.9-53,81-97,52-91-16,5-34,21-45,39s-13,25-20,43-4,8-4,7c-3-1,0-19,5-32,8-21,18-34,52-61s7-6,5-7c-6,0-22,6-35,15s-12,10-17,15c-24,24-16,33-28,58s-1-29,6-49,6-10-21,17c8-26,11.2-41.8,31-71,12.1-17.9,19-35,77-58s66-18,77-13c51,17-35.6,107-33,291,.8,59-1,188,21,243-29,0-55.9,2.1-92,17-27,11.1-8,3-9,3ZM772,2260c-22.1,5.8-24,8-36,17,0-48-1-52,8-55,16-7,48-16,65-18h29l-7,50c-53,3-31.1-1.3-59,6ZM767,2414c-1.3-21-2-19,7-8,20,20,83,17,114,4s10-5,7,0c-17,17-44.9,7.9-31,20,17.1,14.9,15.1,30,16,52,1.2,31-1,24,5,36,2,0,2-2,1-10,0-57,2-41-3-57s-3-10-2-13c4-6,7-3,9,12s3,13,5,19c10,45,2,72,6,92s1,7,0,10c-8,12-35,8-47,7-3,0-1-1-1-26l5,1c6,3,8,2,8,0s-9-7-12-7-3-6-3-12,1-3,3-3h10c0-3-5-5-9-6h-5v-11c10,0,22,7,14-1s-16,0-16-16h13c0-2-6-5-10-6s-5-2-5-8,0-3,3-3c4,1,13,5,13,1s-6-6-15-7-3-1-3-5l-1-6c19-2,20,0,20-3-1-2-10-5-17-5s-5,0-5-3,3-3,12-3c14,1,7-4-8-6-8,0-6,2-8-8s-4.1-12-6-9c-3.1,4.9,4,17,0,19-5,1-14,6-15,8-2,3,4,1,17-2,2,0,1,6-1,7-8,2-16,9-14,11,4,4,7-5,15-5s3,1,3,5,1,5-4,7-12,7-12,9,0,2,9-2,8-3,10,4,2,4-4,6c-7,1-9,2-11,5-4,5-1,6,4,3s12-5,13-3c2,12,3,10-2,11s-11,5-9,7c15,0,13-4,14,4,0,4,0,5-3,6-5,3-9,7-7,8,10,0,11-5,11,5s0,7-3,8-8,6-8,8,1,0,10-2c0,5,3,25-2,25-23,6-23,9-39-7-9-12-9-13-10-41s-1-29-6-36c-10-14-22-6-22-11,2-4,2.8-56,2-69ZM911,2697c-4,53-7,48-10,57-13,39-83.1,56.1-136,11-12.6-10.7-12.4-11.9-24-39,17.3,15.3,43.3,55.3,95,53,22-1,20-3.1,32-9,42.9-21.2,42-71,27-56l-3,3c0-3.6,7-14.3,7-20-2-5-83-29-153-3,0,19,10,33.1,21,38,15.9,7.1,9-1,29,6s17,13,17,21c0,15.6-24.1-3.3-73-35-3-12-4-25-4-47,0-71,13.7-71.9,26-165,3.2-24,2-21,13-18,11,6,13,5,13,37s0,22,1,27c3.8,18,16,32,27,32s18-3,27-6c0,14,0,15,2,15s2-3,4-8c3-10,0-8,8-8,19,3,41,9,51-8s1-12,0-19,0-36,1-34c27,155,6,122,2,175ZM891,2721h3c0,17-12,33-28,41-14,8-23,6-25-5-4.1-23,37-1,50-36ZM940,2641c-2,2-7-41-10-59-22.8-136-10-123-37-285,53.1-35.1,9.8-174.8,40-303h13l12,242c5,82-18,87,16,87,0,14-3,33-5,38-5,16,9,2-29,280ZM952,2656c3,10,2,6,3,20,0,12-1-7-3-20ZM987,2760c-8-8-24.1-37-30-66-6.1-30,3,7,7,11,7,27,27,55,23,55ZM1123,2650v74c-10,46-37,70-78,70s-36-6-49-23-3-4,4,1c20,17,86,13,100-6,3-5,8-17,7-19-3-3-7,14-23,21s-20,3-26,0c-16-8,14-11,33-48,24.4-47.6,17.8-42.2-23-48-38,0-24-1.4-58,2-9,.9-27,7-28,9,14,42,8.9,43.1,36,66,19,16.1,15,14,15,18s-5,5-12,5c-19,0-21.9-18-47-84-25.9-68-8-77-14-106v-9c18,0,49,9,73,9,30-5,25-7,31-7,10-3,16-3,18-16s2-7,3-8,1.1,0,2,5c6.8,37.9,23,56,2,77s-42,20-52,14c-23-10-7-44-22-24s-8,10-18,16-17,16-19,28-1.1,9.8,9,6c16.9-6.3,22-7,60-7s42.3,1.6,62,9c12-59-22-123-15-144s-1-7,29,119ZM1054,2261v-48c20,2,20,1,20,3l50,6c3,25,5,29,7,37-13,0-23,2-77,2ZM1123,2210h-4c-65-6-61-4-65-8-6-436,0-437-18-480-7-20-1-31,10-46,31.1,2,31,1.4,31,3,35,7,31,4,56,29s9.2,9.8,51,65c36.2,47.8,41,55,40,80-.4,10.8,2.1,38.2-35,63-2,0-1-3-1-7-10-79-65-130-73-130s26.9,23,50,94c33.9,104-42,229-42,337ZM1574.6,1990.8c-81.3,0-127.6,1.1-262.7.9-53.8,0-98.1-.3-127.7-.5,7.7-10.5,6.5-41.5,4.3-52.8-.4-2-1.7-9.1.8-11.1,0,0,589.7-3.4,589.7.7,3,17,11,27,8,27l1,1c1-1,8,8,7,8l1,1c5.3,2.1,10.1,3,14.4,3.4,35.3,3.1,61.9-32.5,65.8-37.8,7.8,4.4,16.2,9.7,24.9,16.2,16.3,12.2,28.7,25,37.9,36.1,9.8,11.9,24.3,6.3,24.2,7.4-.2,4.9-199.5,0-388.7.4h0ZM2046,2348c-3,0-8.1-7-11-13-6.2-12.9-4-19-4-70,67-44,111-72,121-82s13-9,13-9c2,21,1,30,6,62-51,60-71,90-125,112ZM2173,2577c-7-30-6-38-6-71,18.8,6.9,17,5.4,17,10-9,55,10,98,3,144-6,68-2,70-11,88-11.1,22.3-35.1,45.6-43,22-2-10,7-20,18-20,25.8,0,25.1-51.2,29-90,2.9-29-2-54-7-83ZM2145,2660c-8.2,35-7,44-18,49s-21-3-33-15-18-24-20-49c-4.9-61-1.8-69.8,14-87,16.3-17.8,22-29,22-40s1-6,1-7c3-2,22-7,39-7-2,34,7.7,101.9-5,156ZM2098,2496c-3-11-2-13-5-12s-4-2-1-6,2-3,1-6c-7-21-3.7-31.1,1-16,8.6,27.8,7,25,7,49-15,15-19,17-17,14,12-12,17-12,14-23ZM2123,2430c10,1,8,0,10,4,3,5,3,4-2,4-28,5-23,5-22,0s1-8-1-9c-19,8-1-4,13-8s28,1,28,1c4,4,6,1-36,5-1,2,2,3,10,3ZM2137,2444c4,0,5,0,5,2,8,26,7,21,7,51-15,0-21,2-41,6l-1-20c5-7,14-24,16-32s-1-5,14-7ZM2139,2438l-1-4c-3-4-6-2,19-7,5,0,1,0,8,11h-26ZM2058,2462c4-10,8-10,14-12s5-4,8-9c5-11,20-22,36-26s24-2,32-1c16.9,6.7,15.6,7.6,7,4-26.9-11.2-59.2,0-74,25-7.1,12-5,7.1-10,10-8.9,5.1-17,19-13,9ZM2059,2494c0-16,1-22,7-29s8-9,10-9,2,0-8,9c-6,4-4,5-5,6-1,5,0,34,1,42,4,13,4.9,13.9,13,10,14.9-7.2-11,8-9,6-7-18-7-16-9-35ZM2075,2472c-6.3,44.1-2,36-6,44-3.5-9.7-6.9-41.3,2-48,7-3,5.1-4,4,4ZM2045,2521c-2,13-1,11-4,7-18-18,10-46,12-46,5.4,0-4.9,30.6-8,39ZM2039,2648c15-57,15-65,15-108,4-3,1-2,11-4,18,0,39.9-28.1,35-19-15.4,28.8-16,31-24,37-12,13-18.2,20-21,47-5.5,54-15,77-15,101,0,62,72,47,66,65s-13,14-21,14c-13,0-30-17-42-43s-7-12-7-12c-5,5,5,54,36,72s93,8,113-30c4-9,3-8,3-3,0,68-140,72-160-22-6-21,7-73,11-95ZM2209,2761c-7.3,65.3-74.6,98.7-123,74-47-24-38.9-31.1-26-21,14.1,10.9,37,17,62,16,76-3,84-69,87-69ZM2180,2461c6.9,9.1,9,15,9,26s-1,16-3,15c-13-2-8-1-19-5,0-14,1-40-8-51-4-3-5-2,3-2,8,3,5.9,1.1,18,17ZM2174,2062c-4,107-1,45-5,32-9-40-74.9-181-57-266,24.1-114-60.1-133.2-78-124-15.1,7.8,53.1,0,68,58,10,39-4,27-4,100s83.9,279.9,62,298c-41.1,33.9-67,63-129,90-36.9-126.3-38.3-260.8-1-387,10.7-36.1-12.2,6-25,58-25.4,102.9-1,217-20,124-20-169-15-149,12-251,0-11-30.9,27-36,63-2,14-3,16-3,6-2-18,2-45,9-64s10.2-20.8,24-38c22.3-27.7,25-33,22-33s-89.4,58.9-80,153c3.2,32,19,54,23,85,.3,2.3.3,14.5,1.6,14.6,1,0,2.3-6.4,3.2-12.1-7.9-1.5-22.5-5.7-31.9-18.4-6.3-8.5-7-18.2-10-37-7-44,1.2-79.9,18-119,11.1-25.9,6-16,3-18-4-4-23,19-34,41s-13,43-15,83c-1,0-7-13-9-21s-2-34,0-43c14-48,79-126,92-136s0-6.1,40-3c38,2.9,72,10,106,20s27,10,35,17c28.9,25.1,30,70,20,108-24-54-17-76-38-97s-17-12-10,0c26.9,46,19,75,47,109,0,18-.7,23.9,8,67,11.4,56.9-4,35-8,141h.1ZM2186,1757c-2-7-2.9-5,1-10,16.2-20.8,40-34,66-39,16-4,9-2,8-1-44,29-55,56-68,77,0-9-5-23-7-27ZM2191.5,1991.2c1.6-8.7,3-18.1,4-28.2,1.3-13.4,1.7-25.8,1.5-37l12,23c3.6,9.3,6.9,20,9.1,32,.6,3.4,1.2,6.7,1.6,10-9.4,0-18.8,0-28.2.2h0ZM2319,2506c21-3,17-5,15-26,0-4,0-5-2-5-4,0-2,4-2,22-1,2-14,6-19,6-12,0-14-13-6-10s3,8,9,8,3-1,3-5c0-11,12-2,9-13s-2-2-10-2-10,1-7-3c2-6,1-5,39-8h10l1,11c1,28,2,28-1,28-40-6-44,0-67,10,2-9,0-9,28-13ZM2345,2409c12,3,31,16,37,24,15,20-25.1-35.2-69-20-20,6.9,4-13,32-4ZM2305,2727c-6.2-123-17-153-17-197,2-7,36-23,21-11-6,8-13.1,15-10,39,6.8,53,4.1,49,8,73,11.2,69-1.2,78.1,11,107,8.9,21.1,19,33,37,40s15,9,18,14,2,7-1,7-32-11-38-14c-20-12-27.8-35-29-58ZM2465,2794c-1,7-5,12-11,20s-6,7-13,11c-28,13-70,23-92,1s-5-3,24,7c41,8,72-9,90-40,3.3-4.7,4-4.3,2,1ZM2419,2481c13,9,16,33,6,52l-4,8c3,1,4,3,2,8-9,18,76,238,4,268s-10,4.1-47,2c-17-1-18-.9-23-4-11.1-6.9-25-19-5-7,14,7,18,6.5,42,6,25-.5,32-1,38-5s13-14,11-19-2-1-7,2c-8,6-13,8-20,9s-7,0-10-2c-6-3-5.9-4-3-13,5.2-16,5-81,13-21,6,17,6,19,12,21s2,0,8-8c23-45,17.9-39,3-118-11.1-59-15-102-34-110s-13-1-15,2c-4,3-2,8,9,24,15.9,23,9,19,21,68,5,14,5,21,2,24s-3,3-11,3c-25,0-20,16-40,16s-18.8-17-16-35c8.5-53.9-12-91-7-119s0-13-6-21c31,0,11,12.9,38,24,17,7,33,4,40,5v-3c-6,0-7-1-5-7s1-11,1-21c1-15,0-17-5-32,0-1,3,0,8,3ZM2413,2511c0,27-2,19-5,24s-2,2-5,1c-22-7.2-24-5-31-13s-5-12-9-52c-2-10,0-6,6-4,1,0,2,1,1,2,0,8,0,23,3,23s3,2,0,3-2,1-3,3c-1,4,1,15,3,20,4,7,8,10,19,13s17,2,18-19,1-10-6-34c-6-13,9,6,9,33ZM2403,2496c1-9,2-1,2,13-1,16-1,18-7,18s-6,4,5-31ZM2397,2462c-62,0-17-1-80,5-5,0-4,2,3-26,1-2,12-2,19,1,11,4,15,2,15-5s-5-9-25-10-10,2-12-9c0-4,47-6,80,44ZM2405,2333c-1,1-127-112.9-156-133-23-16-4.6,4-3.5-1,2.7-12.1,4.5-33,6.5-48,72,39,116,78,149,115,5,11,5,66,4,67ZM2406,1891c-1-1,3-17,6-30,6-20,7-31,2-40s-24-30-27-30c-11,0,15,31,17,49,2,12-2,26-6,26-10,0-38-67-44-67s-2.3,0-1,13c.8,8,2,7-2,2-4-4-6-7-6,1,0,19,17,38,32,59,27,50,23,41,10,27-44-61-42-65-45-62s0,20,6,31c20.1,37,40.3,38.9,51,76,7.2,24.9-1,37-1,139s.1,33.9-4,26c-7.8-15.1-12-47-13-64-4-3-5,21-3,40s7.1,32,13,51c9.2,29.9,9,27,9,109l-10-8c-42-39-55-38-65-61s-10-16-17-18-10-1-15,2-2,0-2-2c-2-5-11-11-17-11s-4,0-23-15l15-120c13-103-3.8-91.1,13-219,6.7-51,6-50,17-62s20-15,27-16c11-3,6-7.1-8-8-52-3.4-38.1,52-49,113-5,28-4,10-4,78s1,53-15,195c-23.5-117.5,8.9-95.7-7-271-4-1-5,5-9,23-9,59-12,77-12,70-22-55-35.5-67.2-24-98,6.7-18.1,51-103,91-115s22,0,31,2c66,20,137.9,40,144,109,2,22-1,19-5,30s-1,6-35,40c-1,0,0-9,3-16s5-8,8-12c12-13,15-31,9-31s-17,32-35,65ZM2414,1914c2-6,6-16,12-23,25.2-29.8,21-27,18-15-14,43-24,90-31,93s-1-49,1-55Z"/>
        <path class="st5" d="M2878,1924.5h-1c.3,11.6.7,23.2,1,34.8h.8c-.3-11.5-.6-23.1-.8-34.6h0v-.2Z"/>
        <path class="st5" d="M1169,409c-121,77-202,30-240,30s22,10,45,31,59,54,109,63-42-19-72-41-29-22-28-24c1-3,35,19,89,17s23-1,45-13,51-30,50-32-74,42.2-132,32c-28-4.9-24-7-10-8,28,0,64-5.9,90-15,45.1-15.8,66-45,66-46s-1-1-12,6Z"/>
        <path class="st5" d="M1799,1422c3-6,1-7-7-7-16-2-50-2-57-1-54,12-60,70-42,42s50-42,85-32,18,4,21-2Z"/>
        <path class="st5" d="M1786,1246c0,2,0,3,10,8,15,9,23.1,14.9,35,26,34.2,31.8-12-36-42-36s-2,1-3,2Z"/>
        <path class="st5" d="M2186,436c45,9,82,10,112,4s26-8,54-30c23.7-21.1,26.6-19.6,41-22-87-41-92-46-135-46s-26.2-.3-39.8,3c-9.2,2.2-23.7,7.1-39.5,18.7,1.5.3,3.7.6,6.4.3,4.5-.5,7.7-2.5,8.8-3.1,6.6-4,14.4-5.7,21.4-8.9,14.4-6.5,36.4-5.8,45.4-5.6,26.3.8,67.1,12.4,111.3,38.6,3,0,1,2-6,6-22,17-56,50-134,45s-28-3-28-5,2-1,5-2c24-10,35-58-9-65l-17-3c-16.9,6.5-35.7,17.2-51.3,35-1.6,1.8-3.1,3.6-4.5,5.4,0,.2-.2.4-.2.4,0,0,4.4-12.5,4.9-13.8,8.4-22.8,63-52.2,123-52,16.9,0,29.2,2.4,32.3,3.1,15,3.1,30.5,9.4,55.7,21.9,76.9,38.2,57.1,23.7-7-10-70.9-37.3-142-31-202,26l-10,9c2,2,1,2-1,1-4.1,1.4-6.8,4.6-7,8,0,1.6.5,3,1,4-.6-.3-1.6-.8-2.8-1.3-9.9-4.8-17.2-8.2-18.2-8.7-22.4-10.5-51.1-32.5-91.2-40.9-9.8-2-19.4-2.9-30.8-3.1-85-2.1-99,46-132,46-10-1-9-2-5,2,14,7,5-1.1,40,20,81.1,48.9,154,30,242-3,41,21,37,22,67,26h.1ZM2210,407c0,3-4,4-5,2-2-3,5-8,5-2ZM2187,385c0,3-4,4-5,2-2-3,5-8,5-2ZM2182,412c0,3-4,4-5,2-2-3,5-8,5-2ZM2162,383l-1,6c-9,35,45.1,43.6,5,34-13-3.1-37-14-38-17,3-4-1-1,34-23ZM1929,391l2,2c0,4,1,3-4,3,0-4,0-2,2-5ZM1862,398c-7-2-6-4-6-4l5-3c21-10,26-15,24-12-7,15-3,22,2,33-15-9-18-12-25-14ZM1899,405c-2-4,5-6,5-1s-4,3-5,1ZM1912,381c-2,0-3,0-3-2,0-4,4-4,5,0l-2,2ZM1936,433c-24-5.8-20-5.8-10-7,44.1-5.2,35-61,9-68-11-3-6-3,8-5,61.6-8.9,96.6,15.9,164,50l2,1c-70,35-139.1,37.2-173,29Z"/>
        <path class="st5" d="M798,2655c-17-2-25-5-28-13s-1-5,0-11c2-70-1-53,5-70,12-34-4-54-6-51-18,110-8,73-28,128-3,11-2,42,2,47s5,.8,31-3c36-5.3,46-5,75-2s36,5,43,8c24,8-2-18-5-33-13-36-29,7-89,0Z"/>
        <path class="st5" d="M1800,1403c-23-8-33,3.9,0,7,10,1,7,0,8-1,1-3-2-5-8-6Z"/>
      </g>
      <path class="st5" d="M1737,1441l-9,9c-25,25-43,20-40,26,2,3,20,0,28-5l23-17c3-4,2-13-2-13ZM1823,1396c0-9-3-6-14-8-11-3-12-3-13-2h1c-1,2,0,3,5,6s5,2,4,4c-4,8,17,10,17,0ZM982,1509l-8,1c-5,2-11,8-12,12s0,4,4,8,5,4,7,4c12,0,8-10,13-3s20-22-4-22ZM1001,1053c5,2,11-8,36-48,0-17,0-18-2-20s-4-2-7,1c-8,9-28,54-28,64s1,3,1,3ZM1006,1516c-2,8,8,14,17,9l4-2c3,9,12,0,12-4,0-13-28.1-22-33-3ZM2218,1521c3-1,1-2,0-4-2-4-6,6,0,4ZM1789,1114c0-4,2-8-15-27s-13-12-18-9c-5,2-3,4.9,3,7,11.1,3.9,11,21,25,29s3,1,5,0ZM1823,1412c1,2,6,2,11,2,9,0,29,16,24,4s-39.8-15.1-35-6ZM1812,1101c-10,0-3,1-4,1,5,6,21,25,27,19,5-4-13-20-23-20ZM1816,1031h1-1Z"/>
      <path class="st5" d="M1757,1395c17-4,18-10,31-10,23,0,1-10-17-6-17,8-23,12-45,9s-21-3-21,0c0,6,35,11,52,7ZM807,2556c8,4,12-74,2-104-1-4-7-21-11-21,13,48,9,62,9,125Z"/>
      <path class="st5" d="M1783,1397c6,3,15,2,15-2s-2-3-8-5c-12.1-4-14.7-.7-7,7ZM630,1207c-8,0-9,0-9-2,0-4,2-6,8-4s5,1,7,0c4-2-9.1-13.2-18-10s-11,20-5,26,20,3,23-6-2-5-6-4ZM1815,1314c25,39,43,95,34,74-8-1-10-3-17,0-11.5,4.9,6.8,2.8,20,16s17,36,12,2c-31-128-95-146-95-140,15,15,27,22,46,48Z"/>
    </g>
    <path class="st5" d="M2121.3,381.2"/>
    <path class="st5" d="M2123,385.5"/>
    <path class="st5" d="M2124,380.1"/>
    <path class="st5" d="M2127.5,399.6"/>
    <path class="st5" d="M2121.3,394.6"/>
    <path class="st5" d="M2131.9,399.2"/>
    <path class="st5" d="M2878,1929.7"/>
    <path class="st5" d="M2345.7,1148.6"/>
  </g>
</svg>