<svg xmlns="http://www.w3.org/2000/svg" data-name="Layer 2" viewBox="0 0 2400 2401"><path d="M0 0h2400v1729H0" fill="#ffcda4"/><circle fill="#ff8415" cx="930" cy="703" r="595"/><path d="m2400 976-477-465A4866 4866 0 00 245 2400H2400Z" fill="#8d3eff"/><path d="M1261 734a146 146 0 01 0 88 154 154 0 01-52 72 269 269 0 01-84 49l-15 6 26 93-70 17-25-89-51 13-50 12 25 88-74 17-24-88-139 34-21-76 93-23-126-455-94 23-21-76L700 405l-26-100 71-17 26 100 45-10 57-13-26-100 71-17 27 100h32a190 190 0 01 107 29 138 138 0 01 65 87 128 128 0 01 0 82 144 144 0 01-56 68A200 200 0 01 1200 650a150 150 0 01 61 84ZM790 464l48 177 72-17a216 216 0 00 109-50 78 78 0 00 15-74c-16-57-73-74-172-51Zm354 291A89 89 0 00 1100 700a130 130 0 00-71-18A577 577 0 00 925 700l-66 16 57 200 43-10a817 817 0 00 122-37 109 109 0 00 56-47 88 88 0 00 7-67Z" fill="#ff5224"/><path d="m0 1500 255-100a11390 11390 0 00 1668-889c-100 355-222 447-315 465s-157-27-256 17a349 349 0 00-170 200 193 193 0 00-88 40 200 200 0 00-48 59 112 112 0 00-55 37 119 119 0 00-23 87 62 62 0 00-14 51 58 58 0 00 35 40 165 165 0 00 27 85 184 184 0 00 136 72 367 367 0 00-75 106 400 400 0 00-31 106 75 75 0 00-21 66 72 72 0 00 59 53 100 100 0 00 8 80c19 30 49 29 62 51 26 44-36 125-45 137C992 2413 548 2400 478 2400H0Z" fill="#5c00b5"/><path d="M1489 1400a118 118 0 00 0 81c34 100 234 126 380 87a471 471 0 00 176-100 510 510 0 01-556-68Zm116 244a558 558 0 00 105 71 374 374 0 00 128 29 227 227 0 01-175-32 139 139 0 01-58-68Z" fill="#5c00b5"/></svg>
