<svg xmlns="http://www.w3.org/2000/svg" viewBox="0 0 2100 2100"><g data-name="Layer 3"><path d="M0 0h2100v2100H0" fill="#222322"/><path d="M0 0h2100v72H0" fill="#6bff1d"/><path d="M2029 18H2100v1105h-71zM0 18h67V1120H0" fill="#6bff1d"/></g><g data-name="Layer 2"><path d="M1000 408c0-8 0-22-8-38a455 455 0 01-10-49 133 133 0 01 35-100A115 115 0 01 1122 200a50 50 0 01 24 19 68 68 0 01 30-8 54 54 0 01 46 18 47 47 0 01 6 28c13 0 18 10 20 15v12a24 24 0 01 10 14 20 20 0 01-9 21 35 35 0 01-9 7 41 41 0 01-12 0 67 67 0 01 10 18 47 47 0 01 0 22 14 14 0 01 0 11 17 17 0 01-14 13 17 17 0 01 0 12 17 17 0 01-19 0 62 62 0 01-30 29 58 58 0 01-43 0h-23l-9 28Zm90 105v-36l32 50 24 70-56-84zm-104-79 90 95 110 206 37 222-10 71 5 91H881l-4-177 44 70-53-137-6-264 12-64 112-113" fill="#6bff1d"/><path d="M1214 1119v53l118 286L1500 1674l-28 36 24 60-38 39-9-9-56 61-74 20-28-6 19-34 37-44 10-71-134-219L1117 1400l-57-100-153 252L800 1809 756 1800l-33 66-47-12v-14l-157-59 10-33 136-5 24-20 33-73 66-218 10-66 43-84 15-82 28-84H67l8 913 1948 7 6-917Z" fill="#6bff1d"/><path d="m1003 603 10 262 58 247-93-255 25-254" fill="#222322"/></g></svg>
