<svg xmlns="http://www.w3.org/2000/svg" width="600" height="600"><path fill="#d5292c" d="M0 0h600v200H0z"/><path fill="#f8dc2a" d="M0 200h600v200H0z"/><path fill="#f7691a" d="M0 400h600v200H0z"/><path fill="#996046" d="M336.4 325.6s-2.6 3.1-4.1 8.6c-.2.7-1.8 13.6-.3 14 4 1.4 3.1.3 4-.2.2-.1-.3-8.5.5-7 2.4 4.4-1 20 .5 27.2.2.8 1.8 2 3.7 2.3q1.2 0 1.3-1c.4-4.3-2.3-14.6-2.3-14.6s1.8 8.1 2.3 13.2c.1.6 0 4.8 2 4.9.8 0 3.1-.3 3.2-.9.7-5.2-2.6-17.2-2.6-17.2s1.4 7.5 2.2 13.7c0 .5 1.2 3.3 1.8 3.4 2 .3 3.6 0 3.6-.7 0-5-2.3-18-2.3-18l2.7 14.6c.1.8 1.3.8 2.1.8 1.1 0 2.2-1.4 2.2-2-1-9.3-1.3-15.1-2.5-20.1l-.7-2.7c-.4-1.1-1.6-3.3-2-4.5-1-3.5-2.5-14.5-2.5-14.5"/><path fill="#3d3332" d="m269.4 324.5-4-1.6-5.7 11-1.7 17.7 2.7 8.7 5.3 9.3 1 190.2 32.3 16 2.4-11.6-25.1-15.4 4.2-197m23.6 9.5 9.3 183.1 33 15.6 3.2-9.9-25.5-16.6-7.5-179.2z"/><path fill="#54413f" d="m269.2 324.5 63-6.5.1 209c0 8 20.3 14 24.9 20.7 1.1 1.6 1.3 7.6 1.3 7.6l-12 4.8s-.3-7.8-1.8-10c-4.9-6.8-25.9-12.3-26.2-20.6l-8-163.2s-6 4.7-8.4 4.8c-2 .1-7.3-3.3-7.3-3.3s-8.5 124.9-8.5 172.9c0 8 19.2 15.2 24.3 21.4 1.4 1.8 2.5 8.8 2.5 8.8l-14 5s-.3-7.7-1.8-9.2c-9.1-9.5-24.6-12-24.6-20.4 0-61.7-3.5-221.8-3.5-221.8"/><path fill="#996046" d="M255.8 339.3s11.3 18 12.6 23.2c.2.7-.3 1-2.4 1.5-2.8.6-4-3-4.2-3.8-.6-3.4-2.4-4.8-3.6-3.8-3.2 2.7 3.7 19.5 2.5 26.2-.1.8 1.4 2.2-.1 2.5-.7.2-3.3.6-3.7-3.8-.3-4.1-2.6-14.2-2.6-14.2s2 12.3 1.6 17c0 .7 1.7 3.3 0 3.4-.7 0-3-.3-3.6-3-1.1-4.8-3.3-16.5-3.3-16.5s3.3 11.1 2.6 17c0 .5-.2 1.6-.7 1.7-1.7.3-3.2-3.4-3.3-6-.2-4.8 1.8-14 1.8-14s-1.5 15.8-2.3 16.4c-.6.5-2.6.2-3.9-1q-1.5-1.2-1.7-4c0-1.2-.2-7.8.7-15.7 0-.7 1-4.9 1.2-5.5l1.6-4.6c1-3.3.9-13 .9-13"/><path fill="#ae806d" d="M341.5 324.6s-7.2 15.2-8.4 20.7c-.2.7-.4 2.6.7 3.4.8.4 2.4 0 2.8-.7 1.3-2.2 1.6-6.4 2.7-5.3 3 2.8-1.2 18.4-.1 25.5 0 .8.3 2 1.7 2.3.6.2 2-1 2-1.6l1-14s-.2 10.9.2 15.9c0 .6 0 2 1.6 2.2.6 0 1.9-.7 2-1.3.5-5.2 0-16.8 0-16.8l1.4 15.5c0 .5.7 1.5 1.2 1.6 1.5.3 2.1-1 2.1-1.6 0-5-.8-17.1-.8-17.1l2 14.5c.1.9 1 .9 1.7.9.8 0 1.6-1.4 1.6-2-.7-9.3-1-15.2-2-20.1 0-.7-.2-2-.4-2.7l-1.5-4.5c-.9-3.6-2-14.5-2-14.5m-90.2 14.3s7.2 15.2 8.3 20.6c.2.8.5 2.7-.6 3.4-.8.5-2.4.1-2.9-.6-1.2-2.2-1.6-6.4-2.7-5.4-2.9 2.9 1.3 18.4.2 25.6-.1.7-.3 2-1.7 2.3-.6.1-2-1.1-2-1.7l-1.1-14s.2 11-.2 16c0 .6 0 2-1.5 2.1-.6 0-2-.8-2-1.4-.5-5.2 0-16.7 0-16.7l-1.4 15.6c0 .5-.7 1.5-1.2 1.6-1.5.2-2.2-1-2.2-1.7 0-5 .8-17 .8-17l-2 14.5c0 .8-1 .8-1.6.8-.8 0-1.7-1.4-1.6-2 .6-9.3 1-15.1 1.9-20l.5-2.8c.2-1.1 1.2-3.3 1.4-4.5 1-3.5 1.5-14.5 1.5-14.5"/><path fill="#996046" d="M283.4 163.4h8.7V184h-8.7z"/><path fill="#a67f6f" d="M289.8 159.3h25.8v52.6h-25.8z"/><path fill="#396075" d="M284.8 178.9s-22.5-.1-29.8 1.2a19 19 0 0 0-6.2 2.7c-1.2 1-3.7 3.4-3.7 5-1.6 45.3.3 152.3.3 152.3h12.2l7-119-1.5 104.4 63.6-9.8 1.1-104.5 7.2 114.9h6.1l.2-.1c.3-4.6 6.4-101.8 3.6-141.7-.1-1.5-1.4-4.3-2.4-5.3-1.2-1-4.4-1.6-5.9-1.9-6.6-1-17.9 5.2-17.9 5.2l-11.6 36z"/><path fill="#53afe0" d="M289.8 178.5s-22.1.2-29.5 1.6a19 19 0 0 0-6.1 2.7c-1.3 1-3.7 3.4-3.8 5-1.6 45.3.4 152.3.4 152.3h12.1l7.1-124-1 108.5 63.3-6.6.7-102.6 7.8 110.8 10.5-.4s1.8-100.6-1-141.5c-.1-1.5-1.4-4.3-2.5-5.3-1-1-4.3-1.6-5.8-1.9-6.7-1-26.4-.4-26.4-.4s-2.7 29.5-10.5 30c-8 .7-15.3-28.2-15.3-28.2"/><path fill="#996046" d="M276 160.3c-7.7-21.5 0-77 0-77h42.4s7.7 53.4 0 77c-2 6.2-40.2 5.9-42.3 0"/><path fill="#ae806d" d="M289.1 163.6c-7.8-22.5 0-80.3 0-80.3h42.3s7.8 55.6 0 80.3c-2 6.3-40.2 6-42.3 0"/><path fill="#4d4742" d="M281.7 65h67.5v85.2l-19.1-.4 1.5-64.7-49.9-.4-.6 65.5h-21.5l.8-85.3z"/><path fill="#7a736d" d="M290.2 65h59.1v85.2l-16.8-.4 1.3-64.7-43.6-.4-.6 65.5h-18.8l.7-85.3z"/><path fill="#c4907a" d="m312.3 137.4-1.4-23.7h3.8s8.4 18.2 6.2 22.5c-1.4 2.7-8.6 1.2-8.6 1.2"/><path fill="#996046" d="M309.9 136.8v-23h3s7.7 19.2 5.5 23c-1.3 2.3-8.5 0-8.5 0"/><ellipse cx="313.2" cy="137.2" rx=".3" ry="1.2" transform="rotate(-81.7 313.2 137.2)"/><ellipse cx="318.4" cy="137.2" rx="1.2" ry=".4"/><ellipse cx="300" cy="107.6" fill="#fff" rx="6.4" ry="4"/><ellipse cx="297.3" cy="107.6" fill="#0c6a2c" rx="3.7" ry="3.2"/><ellipse cx="322" cy="107.6" fill="#fff" rx="6.4" ry="4"/><ellipse cx="319.3" cy="107.6" fill="#0c6a2c" rx="3.7" ry="3.2"/><g fill="#fff"><path d="M301.6 152.1v-1.8q0-.6.7-.7H322q.6.1.7.7v1.8q0 .7-.7.7h-19.7a1 1 0 0 1-.7-.7"/><path d="M303.7 152.8h-1.4a1 1 0 0 1-.7-.7v-4.9q0-.6.7-.7h1.4q.6 0 .7.7v4.9q0 .6-.7.7"/></g></svg>