<svg xmlns="http://www.w3.org/2000/svg" xml:space="preserve" width="1000" height="1000" style="shape-rendering:geometricPrecision;text-rendering:geometricPrecision;image-rendering:optimizeQuality;fill-rule:evenodd;clip-rule:evenodd"><defs><linearGradient id="id0" x1="694" x2="591" y1="260" y2="321" gradientUnits="userSpaceOnUse"><stop offset="0" style="stop-opacity:1;stop-color:white"/><stop offset="1" style="stop-opacity:1;stop-color:#fefefe"/></linearGradient><linearGradient id="id1" x1="299" x2="713" y1="557" y2="291" gradientUnits="userSpaceOnUse"><stop offset="0" style="stop-opacity:1;stop-color:#f9c"/><stop offset="1" style="stop-opacity:1;stop-color:white"/></linearGradient><style>.fil6{fill:#000}.fil1{fill:red}.fil0{fill:#f9c}.fil4{fill:#fff}</style></defs><g id="Layer_x0020_1"><g id="_2038198361632"><path d="m627 383-23 18-1 3h16l3-1 3-1c15-1 19-6 32-16 9-6 27-16 41-10 3-6 11-16 12-25l-6-2-22 5-20 8c-12 5-27 14-35 21m100 130c-1 4 9 19 21 5 4-5 5-7 13-9 21-5 21 9 11 11-9 1-5-1-11 4-5 5-7 12-18 11l3 3 5 1 10-2q-1-7 3-12l11-5q12-4 17-14c-2-3 2-9-17-8q-11 0-19 4c-9 5-10 9-16 9q-11-2-7-14h-1l-1-1h-2l-3 7q-1 5 1 10m23 132q-3-9 0-16l4-6 5-3c-3-3-12-6-17-6-15 3-19 15-20 28 10-5 12-8 22-2z" class="fil0"/><path d="M419 606q1 6 7 5t5-7c-2-8-13-5-12 2" class="fil1"/><path d="M214 313h78c3-17 15-38 23-49q14-21 36-34c88-53 187 9 192 87 3 39-12 53-21 84-14 50 16 72 24 112 9 47-16 76 10 122q13 21 37 34 24 12 51 20c29 10 92 33 107 0-15 7-35-4-44-11l-7-7c-52-56-22-132-82-197-7-8-23-22-18-39 5-20 26-19 40-18-4-3-17-13-21-13h-16l1-3 22-17 6-10a78 78 0 0 0 10-30l-7 2 8-5c-2-3 0-18-6-39q-7-19-16-33l-20-26-12-12-12-11-27-19-32-16a242 242 0 0 0-224 18c-16 10-12 7-27 20l-12 11-11 13q-19 27-30 66" style="fill:url(#id1)"/><path d="M418 708v142c3 3 24 13 27 14V705l-1 4c-4-2-19-1-26-1m48 0-1 166 6 3 5 3 11 5 1-149c0 1 7 28 9 30l-4-30c-1-6-3-26-6-29v2zm35 81 7 36 2-2 2-2q14-27 44-39l10-4 9-3h3l4-10 14-29-27 11q-27 10-49 25c-9 6-17 17-19 17M319 492l22 1q-3-21 2-40c5-14 10-19 16-29-3-4-14-12-20-15l-5 8c-14 19-23 55-15 75m392-72c6 4 17 0 23-1-10-20-7-25-2-48l2-7-3-2c-11 10-13 13-22 24l-6 10h19l-1 1-2 1c-14 10-7 4-18 9 7 16 14 12 10 13M465 690h20c-2-16-9-32-20-37z" class="fil0"/><path d="M719 600c1 2 20 12 23 14 5 0 14 3 17 6l4-2 1-2 1-2v-1l-1-1v-2l-4-3-10-2-21-2c22-6 21-10 30-12-4-4-13 3-18 6-8 3-12 4-22 3" class="fil1"/><path d="M729 496h2l1 1h1c3-5 2-5 6-9q-6 3-10 8" class="fil0"/><path d="M214 313q11-39 30-66l11-13 12-11c15-13 11-10 27-20a245 245 0 0 1 256-2l27 19 12 11 12 12 20 26q10 14 16 33c6 21 4 36 6 39 9-1 18-11 59-10 23 1 39 8 32 33l-2 7c-5 23-8 28 2 48-6 1-17 5-23 1-8 0-13-5-18-7l-4 14c7 4 10 3 17 6-23 12-51-8-66-16-14-1-35-2-40 18-5 17 11 31 18 39 60 65 30 141 82 197l7 7c9 7 29 18 44 11 3-4 5-16 5-23q-1-12-6-22l-6-4c-10-6-12-3-22 2 1-13 5-25 20-28-3-2-22-12-23-14h-3l1-1 7-6 14-12 7-6c7-8 20-22 24-4l2 5c6-20-5-16-9-28l-1-11-10 2-5-1-3-3c-7-2-17-13-16-22q-2-5-1-10l3-7q4-5 10-8c-4 4-3 4-6 9q-4 12 7 14c6 0 7-4 16-9q8-3 19-4c19-1 15 5 17 8 2-11 3-14-3-24-14-19-23-32-36-53-29-50-5-49-9-99a212 212 0 0 0-40-109q-46-60-120-88c-139-52-298 3-363 133a256 256 0 0 0 82 316l18 12c5 5 13 34 16 43 8 36 3 73-7 105q-8 23-19 41c-9 17-18 26-24 36l24-1q10-12 18-27c28-52 43-125 17-181-9-20-7-15-20-24l-26-18a253 253 0 0 1-85-255" style="fill:url(#id0)"/><path d="m487 885 59 34c0-15 0-26 2-41 3-29 17-79 29-103h-2l-9 3-10 4q-29 12-44 39l-2 2-2 2-7-36-4-23c-2-2-9-29-9-30z" class="fil4"/><path d="M403 234v21c26-3 43 0 61 13 13 10 20 18 25 34l4 15h24c-2-37-26-63-58-77l-10-4c-17-4-28-4-46-2" style="fill:#063"/><path d="M642 344a79 79 0 0 1-10 30l-5 9c8-7 23-16 35-21l20-8 22-5c-4-5-22-9-29-9-10-1-24 0-33 4" class="fil4"/><path d="m663 398 18-2 9-1c12 0 9 1 9-2q-5-12-21-9c-6 2-16 8-19 14z" class="fil0"/><path d="M765 614c4-8 2-21-6-23-9 2-8 6-30 12l21 2 10 2 4 3v2z" class="fil1"/><path d="m395 483 2-4c3-10 8-20 21-18 14 1 18 11 18 22l1 5q4-8 2-17c-6-24-48-21-44 12m-74-176 11-23 7-11 9-9c8-9 27-20 39-24h4c5-2 2 0 2-3a98 98 0 0 0-72 63zm142 106q4 0 8-3 25-15 37-40 3-5 2-9c-3 1 0-1-4 7q-10 21-28 35c-4 3-13 7-15 10m-115-23c-7 5 0 13 6 9 6-3 0-13-6-9m70 318c7 0 22-1 26 1l1-4-27 1zm48 0 21 1v-2c-1-2 3-1-2-1h-20z" class="fil4"/><path d="M418 708v-2l27-1v159c-3-1-24-11-27-14zM51 22h898v956H51zm526 753c-12 24-26 74-29 103-2 15-2 26-2 41l-59-34-11-5-5-3-6-3 1-166-1-2h20c5 0 1-1 2 1 3 3 5 23 6 29l4 30 4 23c2 0 10-11 19-17q23-16 48-25l28-11-14 29zM465 653c11 5 18 21 20 37h-20zm-46-47c-1-7 10-10 12-2q1 6-5 7t-7-5m18-118c-10 18-37 14-42-5-4-33 38-36 44-12q2 9-2 17m-58 9q10 18 30 23c13 3 19 0 29-4q2 20 14 27 10 11 31 9c-3 7-22 15-28 17-14 5-24 5-40 5v-39l-16-4-13-7c-47-31-25-103 32-103 29 0 53 23 56 49 15 3 18 18 17 31q-2 15-11 25l-3 3-1 2c-5 4-26-10-19-34 2-9 5-14 4-25q-2-11-9-20c-33-44-97 2-73 45m-60-5c-8-20 1-56 15-75l5-8c6 3 17 11 20 15-6 10-11 15-16 29q-5 19-2 40zm29-102c6-4 12 6 6 9-6 4-13-4-6-9m115 23c2-3 11-7 15-10q19-14 28-35c4-8 1-6 4-7q1 4-2 9-13 25-37 40-4 3-8 3m-24-138q26 11 30 42c1 29-20 53-51 53-14-1-29-7-37-16a50 50 0 0 1 58-79m-36-41a112 112 0 0 1 56 6c32 14 56 40 58 77h-24l-4-15c-5-16-12-24-25-34-18-13-35-16-61-13zm-82 73q-1-3 1-7c3-9 4-10 9-18q10-17 26-29c7-5 31-18 36-16 0 3 3 1-2 3h-4c-12 4-31 15-39 24l-9 9-7 11zm-107 6a253 253 0 0 0 86 255l26 18c13 9 11 4 20 24 26 56 11 129-17 181q-8 15-18 27l-24 1c6-10 15-19 24-36q11-18 19-41c10-32 15-69 7-105-3-9-11-38-16-43l-18-12a270 270 0 0 1-70-79c-39-66-50-160-12-237a291 291 0 0 1 483-45 225 225 0 0 1 40 109c4 50-20 49 9 99 13 21 22 34 36 53 6 10 5 13 3 24q-5 10-17 14l-11 5q-4 5-3 12l1 11c4 12 15 8 9 28l-2-5c-4-18-17-4-24 4l-7 6-14 12-7 6 1 1h1c10 1 14 0 22-3 5-3 14-10 18-6 8 2 10 15 6 23l-1 2-1 2-4 2-5 3-4 6q-3 7 0 15 5 9 6 22c0 7-2 19-5 23-15 33-78 10-107 0q-27-8-51-20-24-13-37-34c-26-46-1-75-10-122-8-40-38-62-24-112 9-31 24-45 21-84-5-78-104-140-192-87q-22 13-36 34c-8 11-20 32-23 49z" class="fil6"/><path d="m663 398-12 1q3 0 5-4c36-31 44 0 44 0h-10l-9 1zm-20-57-8 5 7-2c9-4 23-5 33-4 7 0 25 4 29 9l6 2c-1 9-9 19-12 25-14-6-32 4-41 10-13 10-17 15-32 16l-3 1-3 1c4 1 17 10 21 13 15 8 43 28 66 16-7-3-10-2-17-6l4-14q7 6 18 7c4-1-3 3-10-13 11-5 4 1 18-9l2-1 1-1h-19l6-10c9-11 11-14 22-24l3 2c7-25-9-32-32-33-41-1-50 9-59 10m84 172c-1 9 9 20 16 22 11 1 13-6 18-11 6-5 2-3 11-4 10-2 10-16-11-11-8 2-9 4-13 9-12 14-22-1-21-5" class="fil6"/><path d="M406 322c3 15 30 14 27-6-2-17-32-13-27 6" class="fil1"/><path d="M663 398h-4c3-6 13-12 19-14 12-3 17 4 22 11-6-24-32-13-44 0q-2 3-5 4z" style="fill:#299a00"/><path d="m718 600-1-1-1 1z" class="fil1"/><path d="M446 670v-7h-28v7zm0 20v-7h-28v7zm-1-40v-7h-28v7z" class="fil0"/></g></g></svg>