<svg xmlns="http://www.w3.org/2000/svg" width="24" height="24" xmlns:v="https://vecta.io/nano"><path d="M12 0h12v24H12z" fill="#62959d"/><path d="M0 0h12v24H0z" fill="#ec3011"/><path d="M11.81.35c.76.03 2.21.75 2.88 1.18.59.38 1.76 1.21 2.27 1.73.54.56 1.57 1.8 1.91 2.55.34.76.79 2.44.83 3.29.03.62-.07 1.89-.24 2.47-.1.35-.41 1-.6 1.29-.29.46-.91 1.35-1.28 1.71-.3.3-.99.75-1.33.99l-1.23.89L13 17.88c-.17.1-.51.34-.7.34-.43 0-1.24-.46-1.62-.7l-2.25-1.6-1.81-1.37c-.34-.3-1.03-.93-1.28-1.33-.35-.56-.88-1.85-.99-2.53-.08-.49-.06-1.51.02-2 .12-.74.48-2.19.78-2.85.34-.75 1.15-2.24 1.69-2.82.53-.57 1.76-1.47 2.41-1.83.6-.33 1.9-.86 2.56-.84z" fill="#15283d"/><g fill="#0a192b"><path d="M12.03 20.15c.16-.04.56-1.71.64-1.91.07-.18.36-.76.47-.89l.39-.49c.13-.14.41-.37.55-.49l.68-.56.52-.37.48-.38.69-.5.56-.4c.15-.13.41-.46.53-.62l.52-.68c.11-.19.3-.6.37-.82a6.55 6.55 0 0 0 .27-1.1c.02-.24-.02-.72-.03-.96-.02-.28 0-.85-.07-1.11-.07-.28-.34-.75-.46-.99l-.33-.75c-.1-.18-.34-.49-.46-.65l-.49-.79a4.16 4.16 0 0 0-.49-.53 4.71 4.71 0 0 0-.56-.44c-.17-.1-.52-.25-.69-.33l-.69-.33c-.12-.06-.35-.22-.47-.27-.19-.08-.58-.16-.77-.21l-.5-.17c-.18-.03-.55-.03-.74-.02-.21.02-.62.09-.82.14l-.91.27-.69.26c-.17.09-.53.35-.7.48l-.69.58-.63.53c-.18.18-.5.6-.65.82l-.34.6c-.09.17-.25.53-.33.71l-.33.73-.21.75-.19.73c-.04.2-.11.6-.11.81a5.56 5.56 0 0 0 .09.82c.03.17.12.52.17.68.07.22.18.68.29.87.13.22.47.57.66.68.16.09.65.5.82.56.17.07.41.29.58.38.18.09.68.57.86.65s.49.38.66.49.41.23.56.38c.16.16.42.28.57.45.14.16.41.34.55.5s.4.38.52.57c.09.13.24 1.03.31 1.18.09.17-.09 1.17.04 1.14z"/><path d="M0 18.88h24V24H0z"/></g><text transform="translate(.809 22.606)" fill="#f3e5a3" font-family="Arial-BoldMT" font-size="3.396">ANONYMOUS</text><path d="M9.57 14.5c-.21-.19-.59-.95-.59-.95l.89.48-1.49-1.99c-.14-.26-.34-.33-.45-1.09-.05-.35.67.86.9 1.15.29.37 1.3 1.39 1.3 1.39s-.51-.72-.34-.9c.14-.15.88.11.88.11s.38-.06.5.04c.15.14-.05 1.05-.05 1.05l.53 1.47-1.18-.27c-.26-.06-.72-.32-.9-.49z" fill="#ed3012"/><path d="M10.74 12.75c-.24.19-.13 1 .02 1.26.15.28.95 1.55.94 1.24-.02-.34-.35-1.05-.32-1.46.02-.2.14-.86.01-1.03-.09-.12-.53-.1-.65-.01z" fill="#60939b"/><g fill="#ee3012"><path d="M11.94 10.2c.25.17.69.1.69.1s-.4.07-.55.05c-.22-.03-.76-.43-.76-.43s-.69.1-.89.22c-.12.07.09.27.17.32.1.06.4.05.45.15.05.11-.17.35-.28.4-.24.1-.9.13-.9.13l-.82-.59 1.31-.87s-1.37.63-1.84.53c-.37-.08-1.04-.96-1.04-.96s-.15-.71.03-.85c.33-.27 1.37.1 1.82.11.29.01.89-.06 1.12-.21.21-.14.4-.27.57-.81.04-.11.12.46.12.46s.15-.19.17-.14c.16.3-.21.75-.11.95.04.09.24.21.22.3-.13.45-.1.76.1.87M8.5 6.2c-.15.1-.47.6-.36.74.09.11.59.15.73.1.44-.12.96.1 1.2.14.15.03.53.15.66.1s.15-.23.1-.34c-.13-.27-.76-.59-1.08-.7-.25-.09-1.04-.22-1.25-.04z"/><path d="M11.24 6.19c.3.34-1.12-.86-1.58-.94-.44-.07-1.73.42-1.73.42s.57-.5.67-.72c.08-.18.07-.6.19-.77.18-.26.8-.61 1.12-.72.43-.15 1.38-.18 1.85-.18.4 0 1.19.1 1.57.18.42.08 1.27.35 1.59.61.36.27.73 1.07.89 1.47.14.34.26 1.04.35 1.38l.22.77s-.08.3-.06.4a1.43 1.43 0 0 0 .19.31s.15.83.14 1.11c0 .4-.15 1.2-.25 1.59l-.26 1c-.06.27-.22.84-.38 1.09-.17.26-.65.64-.91.84a21.48 21.48 0 0 1-1.37.91c-.26.15-1.4.56-1.21.33.55-.65.41-1.83.33-2.41-.11-.86 3.39-2.09 3.39-2.09l-.18-3.99s-2.46.02-3.09.56S11.51 5 11.51 5l-1.25.37c-.01 0 .51.27.98.82z"/></g><path d="M9.2 11.45l.82.36c.42.12 1.92.13 1.92.13l1.48.48-2.6-.13c-.21-.05-.8-.11-.99-.2-.17-.09-.63-.64-.63-.64z" fill="#ec3313"/><path d="M12.57 15.06c.17-.45.18-.9.21-1.14.04-.28-.13-.58-.1-1.03.01-.18.59-.51.59-.51l-1.47-.11-1.78-.29 1.93-.05 1.55-.18 1.35-.32.59-1-.44-.17-.16.15-1.16-.57s-.95.47-1.29.42c-.21-.03-.81-.35-.92-.53-.16-.26.13-.83.17-1.14.04-.28.09-.99.07-1.27-.02-.26.04-.77 0-1.03-.02-.17-.16-.54-.34-.62-.06-.03-.22.04-.3.03-.25-.03-.92-.4-.92-.4s-.75-.2-.95-.32c-.27-.16.43-.42.57-.6.12-.17.28-.55.45-.67.31-.2 1.11-.29 1.5-.28.44.01 1.31.07 1.73.19.24.07.74.25.93.4.15.12.35.46.46.61.15.19.53.5.66.7.11.17.25.73.25.73s-.56-.4-.91-.48c-.28-.07-1.24-.11-1.51 0-.23.08-.76.45-.81.71-.13.54-.01 2.26-.01 2.26l1.88-.05s.97-2.2 1.39-2.04c.09.03.39 1.22.33 1.29-.12.13.13.79.3.9.21.15.05 1.21.01 1.41-.05.31-.21.92-.31 1.22l-.38.99c-.08.2-.18.63-.31.82-.18.26-.69.69-.95.88-.22.16-.71.45-.94.61-.22.14-.99.57-.96.48z" fill="#60959d"/><path d="M13.71 9.73s1.09.32 1.5.3c.26-.02.76-.27.93-.46.13-.15.19-.57.14-.75-.05-.2-.38-.54-.59-.61-.17-.06-.56.04-.74.06l-1.24.14c-.18 0-.54-.09-.68-.19-.21-.14-.44-.59-.53-.81-.08-.19-.14-.61-.19-.81-.04-.18-.11-.58-.02-.74.06-.11.27-.35.37-.4.24-.13.72-.26.99-.3.15-.02.87.14 1.01.18.23.08.78.3.74.18-.09-.25-.7-.56-.8-.7-.09-.12-.33-.37-.44-.5-.09-.11-.27-.35-.41-.42-.25-.13-.86-.15-1.14-.18-.25-.03-.81-.08-1.04.03-.26.13-.76.46-.87.7-.07.15-.55.28-.51.44.05.16.84.69 1.03.67.1-.01.21-.05.31-.06.12-.01.3.21.35.31.06.12.03.4.02.53l-.06.47c-.01.15.03.44.04.59.02.13-.01.49-.03.62-.05.22-.09.67-.16.85-.04.11-.17.49-.17.61 0 .1.06.21.11.3.07.13.57.35.73.42.14.06.69-.1.85-.22.08-.09.5-.25.5-.25z" fill="#f3e5a3"/><path d="M13.54 6.95c.04.24.82.01 1.08.1.17.05.77.33.77.33s.56-.72.38-.92c-.07-.07-.41.04-.41.04s-1.89.03-1.82.45z" fill="#f1e4a3"/><path d="M12.46 7.38c.18-.22.78-.41 1.08-.46.26-.05.78.05 1.03.11.22.05.66.22.83.36.06.05.12.16.15.22.03.07.06.2.05.27 0 .07-.02.24-.09.29-.09.08-.36.05-.48.08l-.57.15c-.13.02-.54.02-.67.02-.12 0-.36-.06-.51-.1-.06-.02-.24-.08-.31-.14a2.83 2.83 0 0 1-.3-.35c-.05-.05-.25-.38-.21-.45z" fill="#15283d"/><g fill="#f3e5a3"><path d="M13.8 9.8l1.02.46.71.25s.24-.15.23-.23c0-.12-.18-.13-.18-.13l-.9-.12c-.23-.02-.88-.23-.88-.23z"/><path d="M13.31 12.56c-.11.07-.26.19-.26.32-.02.15.16.53.15.69-.02.17-.07.43-.14.58-.05.1-.2.46-.02.42.42-.08.51-.27.72-.43.25-.18 1.1-.9 1.28-1.13.27-.34.43-.6.48-1.02.1-.78.65-1 .79-2.08.04-.38-.8.27-.93.6-.08.21-.3.77-.51.89-.27.15-.9.27-1.2.34a9.52 9.52 0 0 1-1.28.22c-.17.01-.77-.02-.65.08.24.22.94.19 1.25.17.46-.02 1.29-.31 1.79-.37.13-.02-.07.37-.16.45-.33.27-.96.04-1.31.27zm-1.77-1.16c-.18-.1.36-.64.58-.63.23.01.89.63.55.64"/><path d="M13.08 10.56c.01.18.36.46.56.52.19.06.79-.06.79-.06l.41-.58-1-.44s-.36.08-.46.14c-.12.07-.31.29-.3.42z"/></g><path d="M8.24 5.03l.44-.24c.2-.11.63-.24.85-.29.25-.06.75-.14 1-.18l.89-.1.87-.08.89-.04.76.01c.17.02.51.12.68.17l.68.19s-.01-.73-.13-.9c-.23-.33-.92-.8-1.29-.94s-1.14-.32-1.54-.31c-.6.02-1.79.31-2.37.5-.47.14-1.95.2-1.82.67.06.22.77-.35.9-.16.14.22-.63.47-.79.68-.15.2-.02 1.02-.02 1.02z" fill="#15283d"/></svg>