<svg xmlns="http://www.w3.org/2000/svg" xml:space="preserve" version="1.1" viewBox="0 0 5120 5120"><path d="M3150 1150a640 640 0 00-590-880 640 640 0 00-590 880c450 1290-470 1830-470 1830v320h2120v-320s-920-540-470-1830" fill="#fbba00"/><path d="M2560 270a640 640 0 00-590 880c450 1290-470 1830-470 1830v320h1060V270" fill="#fbdb80"/><path d="M320 4010h4480v840H320" fill="#3b67aa"/><path d="M320 4010h2240v840H320" fill="#0094e2"/><path d="M1160 2980h2810v1030H1160" fill="#f28e00"/><path d="M1160 2980h1400v1030H1160" fill="#fbba00"/><path d="M0 3630h5120v760H0" fill="#fbba00"/><path d="M0 3630h2560v760H0" fill="#fbdb80"/></svg>
