<?xml version="1.0" encoding="utf-8"?>
<!-- Generator: Adobe Adobe Illustrator 24.2.0, SVG Export Plug-In . SVG Version: 6.00 Build 0)  -->
<svg version="1.1" id="Layer_1" xmlns="http://www.w3.org/2000/svg" xmlns:xlink="http://www.w3.org/1999/xlink" x="0px" y="0px"
	 width="24px" height="24px" viewBox="0 0 24 24" style="enable-background:new 0 0 24 24;" xml:space="preserve">
<style type="text/css">
	.st0{fill:#F7DC2C;}
	.st1{fill:#D42A2B;}
	.st2{fill:#F9691A;}
	.st3{fill:#808080;}
	.st4{fill:#605753;}
	.st5{fill:#999797;}
	.st6{fill:#86929F;}
	.st7{fill:#CF7B5B;}
	.st8{fill:#A26F5B;}
	.st9{fill:#BF9665;}
	.st10{fill:#A3915B;}
	.st11{fill:#A38261;}
	.st12{fill:#A86C56;}
	.st13{fill:#A5705B;}
	.st14{fill:#8C765F;}
	.st15{fill:#D67765;}
	.st16{fill:#D59056;}
	.st17{fill:#A5604D;}
	.st18{fill:#CE9865;}
	.st19{fill:#A37D5F;}
	.st20{fill:#CE7B5B;}
	.st21{fill:#613F31;}
	.st22{fill:#FFFFFF;}
	.st23{fill:#4AB859;}
	.st24{fill:#605653;}
	.st25{fill:#CEAB7D;}
	.st26{fill:none;}
	.st27{font-family:'AcademyEngravedLetPlain';}
	.st28{font-size:0.375px;}
</style>
<g id="Layer_3">
	<rect x="8.79" class="st0" width="15.21" height="9.5"/>
	<rect class="st1" width="9" height="24"/>
	<rect x="14.01" y="9.5" class="st2" width="10" height="14.5"/>
</g>
<g>
	<polygon class="st3" points="14.16,17.67 14.51,7.11 18.87,7.12 19.37,9.81 18.88,11.84 17.97,14.23 20.35,19.51 	"/>
	<polygon class="st4" points="10.33,5.65 9.79,2.67 11.65,2.13 14.46,2.61 17.42,4.22 18.87,7.12 14.32,7.62 	"/>
	<polygon class="st5" points="6.78,9.82 5.6,9.18 5.48,8.2 6.9,4.8 9.81,2.67 10.34,5.71 	"/>
	<polygon class="st6" points="19.47,24.05 19.93,21.58 14.25,18.03 7.8,20.84 5.47,23.99 	"/>
	<path class="st7" d="M10.83,10.7l3.24-4.01c0,0-0.34-0.48-0.51-0.62c-0.2-0.17-0.77-0.41-1.02-0.51c-0.2-0.08-0.61-0.26-0.82-0.3
		c-0.16-0.03-0.47-0.06-0.63-0.06c-0.24-0.01-0.96,0.12-0.96,0.12L9.28,5.44"/>
	<polygon class="st8" points="7.88,20.78 10.93,20.64 11.14,22.71 11.2,24 9.48,24 	"/>
	<path class="st9" d="M7.8,20.84l1.25-0.71l-1.28-1.74c0,0-0.4,0.15-0.51,0.24c-0.09,0.06-0.28,0.24-0.34,0.33
		c-0.08,0.12-0.12,0.38-0.13,0.52c-0.01,0.13,0.08,0.4,0.14,0.52c0.07,0.16,0.28,0.44,0.4,0.56C7.42,20.66,7.8,20.84,7.8,20.84z"/>
	<polyline class="st10" points="10.85,20.84 11.09,24 13.22,24 14.16,21.77 12.54,20.9 	"/>
	<path class="st11" d="M14.61,12.04l2.34,0.03l-0.19,1.91c0,0-0.19,0.43-0.29,0.57c-0.08,0.11-0.31,0.32-0.43,0.39
		c-0.11,0.06-0.38,0.05-0.5,0.05c-0.13-0.01-0.42-0.06-0.53-0.14c-0.15-0.12-0.3-0.51-0.34-0.7C14.58,13.62,14.61,12.04,14.61,12.04
		z"/>
	<path class="st12" d="M14.65,12.03l1.3-1.64l0.91,0.18c0,0,0.34,1.22,0.33,1.63c-0.01,0.45-0.43,1.78-0.43,1.78L14.65,12.03z"/>
	<polyline class="st13" points="7.77,18.39 10.1,15.34 8.4,14.79 8.56,15.51 8.02,15.82 7.49,15.78 7.18,16.39 7.62,16.67 
		7.68,16.75 7.16,17.03 7.49,17.69 7.91,17.71 	"/>
	<path class="st14" d="M12.15,13.79l-1.6-3.64l3.52-3.46c0,0,0.37,0.72,0.49,0.95c0.1,0.18,0.29,0.55,0.36,0.75
		c0.06,0.15,0.2,0.45,0.22,0.61c0.02,0.19-0.03,0.58-0.06,0.77c-0.06,0.36-0.14,1.12-0.21,1.48c-0.04,0.2-0.21,0.75-0.21,0.75
		l-0.47,1.51L12.15,13.79z"/>
	<polygon class="st15" points="9.14,20.24 7.76,18.38 10.15,15.26 	"/>
	<polygon class="st16" points="10.12,15.18 9.01,20.35 12.94,18.68 14.18,15.96 	"/>
	<polygon class="st17" points="8.46,14.88 13.46,16.28 14.33,13.02 	"/>
	<polygon class="st18" points="6.56,9.49 7.87,9.29 10.38,9.72 12.71,14.98 8.21,14.91 	"/>
	<path class="st19" d="M6.58,9.33l4.44,1.62L9.28,5.44c0,0-0.82,0.22-1,0.38C8.05,6.02,7.35,6.8,7.23,7.03
		C7.04,7.4,6.99,7.82,6.83,8.12C6.67,8.43,6.58,9.33,6.58,9.33z"/>
	<path class="st20" d="M5.82,15.28L6.54,9.4l1.9,5.54c0,0-0.99,0.41-1.36,0.45C6.77,15.43,5.82,15.28,5.82,15.28z"/>
	<polygon class="st21" points="14.56,13.18 14.61,12.34 15.97,11.55 16.62,12.59 16.3,13.79 15.27,13.87 15.67,12.92 15.94,13.21 
		15.97,12.82 15.69,12.49 	"/>
	<polygon class="st21" points="7.62,16.67 9.61,16.7 10.86,16.67 12,15.99 10.89,16.75 8.1,16.75 7.71,16.75 	"/>
	<path class="st21" d="M8.08,15.84l0.28,0.45c0,0,0.62-0.56,0.63-0.58c0.01-0.02,1.67,0.8,1.67,0.8l-1.7-0.75l-0.58,0.6L8.08,15.84z
		"/>
	<polygon class="st21" points="7.98,17.68 9.22,17.77 10.85,17.08 9.13,17.7 	"/>
	<path class="st21" d="M9.53,11.95c0.13-0.09,0.26-0.57,0.26-0.57l0.24-0.64l-0.04-0.63l-0.44,0.24l-0.9-0.22
		c0,0-0.8-0.27-1.07-0.27c-0.14,0-0.41,0.13-0.51,0.24c-0.11,0.12-0.2,0.48-0.19,0.66c0.01,0.25,0.19,0.77,0.36,0.91
		C7.52,11.91,8.57,12,8.57,12S9.33,12.09,9.53,11.95z"/>
	<path class="st22" d="M9.4,11.67c0.1-0.07,0.16-0.48,0.16-0.48l0.19-0.38l0.01-0.23l-0.35,0.03l-0.73-0.16c0,0-0.64-0.21-0.86-0.2
		c-0.11,0-0.33,0.09-0.42,0.18c-0.09,0.09-0.16,0.36-0.15,0.5c0.01,0.19,0.15,0.43,0.29,0.53c0.23,0.17,0.83,0.31,1.13,0.33
		C8.86,11.81,9.24,11.78,9.4,11.67z"/>
	<path class="st3" d="M6.26,9.58l1.74-1.39l1.71,0.6l0.35-0.31c0,0,0.11,0.48,0.1,0.64c0,0.1-0.06,0.3-0.11,0.38
		C9.99,9.59,9.81,9.73,9.71,9.77c-0.11,0.04-0.35,0.03-0.45,0c-0.33-0.1-1.14-0.78-1.14-0.78L6.26,9.58z"/>
	<ellipse class="st23" cx="8.47" cy="11.07" rx="0.53" ry="0.62"/>
	<path class="st21" d="M11.69,13.82c0.18,0,0.49-0.55,0.49-0.55s0.43-0.2,0.55-0.31c0.11-0.1,0.39-0.32,0.36-0.47
		c-0.03-0.13-0.44-0.29-0.44-0.29l-0.2-0.49l0.28-1.05l-1.12-0.43c0,0-0.85,0.8-0.95,0.93c-0.15,0.18-0.36,0.65-0.33,0.84
		c0.04,0.32,0.57,1.04,0.57,1.04S11.42,13.81,11.69,13.82z"/>
	<path class="st22" d="M11.68,13.42c0.14,0,0.37-0.4,0.37-0.4s0.35-0.13,0.44-0.21c0.09-0.08,0.33-0.16,0.29-0.27
		c-0.03-0.09-0.36-0.08-0.36-0.08l-0.23-0.85l0.24-0.57l-0.75-0.29c0,0-0.71,0.53-0.79,0.63c-0.12,0.14-0.18,0.42-0.2,0.58
		c-0.03,0.27,0.38,0.93,0.38,0.93S11.46,13.42,11.68,13.42z"/>
	<path class="st24" d="M11.2,9.55l2.59,0.23l0.01,1.84l0.41,0.08c0,0-0.04,0.66-0.14,0.74c-0.06,0.05-0.29,0.48-0.38,0.49
		c-0.09,0.01-0.54-0.66-0.63-0.71c-0.09-0.05-0.15-0.42-0.15-0.42l0.41-1.28L11.2,9.55z"/>
	
		<ellipse transform="matrix(0.9566 -0.2915 0.2915 0.9566 -3.0365 3.8965)" class="st23" cx="11.56" cy="12.14" rx="0.68" ry="0.5"/>
	<polygon class="st21" points="9.2,7.54 10.86,7.69 12.99,8.99 11,7.6 	"/>
	<polygon class="st21" points="8.84,7.22 11.3,7.46 12.73,8.25 11.43,7.38 	"/>
	<polygon class="st25" points="7.79,20.83 11.51,18.76 12.94,17.42 14.65,12.03 14.73,19.47 12.55,20.9 	"/>
	<rect x="21.62" y="23.59" class="st26" width="2.35" height="0.35"/>
	<text transform="matrix(1 0 0 1 21.6216 23.8444)" class="st27 st28">HNFT PEPE</text>
</g>
</svg>
