<svg xmlns="http://www.w3.org/2000/svg" fill="none" viewBox="0 0 510 503"><path d="M0 0h510v503H0z" fill="#D31125"/><path d="M30 449V35h451v414H30z" fill="#D7C39F"/><path d="M370 156h111" stroke="url(#a)"/><path d="M370 166h111" stroke="url(#b)"/><path d="M143 35v83m218 27h37v33" stroke="#5A5040" stroke-width="3"/><path d="m245 45 35 22-25 45-31-6V54l21-9z" fill="#5A5040"/><path d="M245 90V45l-21 9v24l21 12z" fill="#101417"/><path d="m301 48-50 26v32l50 18V48z" fill="url(#c)"/><path d="M176 172c20 11 64 12 84 11l40 1a5 5 0 0 0 5-5l5-53a5 5 0 0 0-3-5l-53-19c-4-1-23-8-28-8s-10 2-14 3h-5l-17 3a3660 3660 0 0 1-61 20 7 7 0 0 1-3 2c-8 2-10 7-11 11 0 2-1 3-3 4-10 8-9 22-5 24 4 1 9-1 11-2h2l12-1a5 5 0 0 1 3 0 138 138 0 0 0 41 14z" fill="url(#d)"/><path d="M161 151c-12 2-10 14-6 21a4 4 0 0 0 2 2c9 4 26 8 36 6 12-2 7-10 3-13-6-6-22-17-35-16z" fill="#2F5B36" fill-opacity=".4"/><path d="M117 133c2-2 5-1 6 0 7 6 9-3 10-4s4-3 8 2-5 9-9 10-9-4-10-6-2 1-4 2-3-2-1-4z" fill="#5A5040" fill-opacity=".8"/><ellipse fill="#2E9A48" fill-opacity=".2" cx="246.6" cy="136" rx="63.1" ry="31.7" transform="rotate(13 247 136)"/><ellipse fill="#5A5040" cx="221" cy="133" rx="22" ry="18"/><ellipse fill="#101417" cx="220.5" cy="130" rx="23.5" ry="21"/><ellipse fill="url(#e)" cx="220" cy="133.5" rx="19" ry="16.5"/><ellipse fill="#5A5040" cx="218.5" cy="134" rx="16.5" ry="15"/><ellipse fill="#D31125" cx="219" cy="134" rx="12" ry="11"/><circle fill="#D7C39F" cx="219" cy="138" r="6"/><circle fill="#101417" cx="219" cy="138" r="5"/><path d="M194 404v-89l30 43-30 46z" fill="#2E9A48"/><path d="M190 314c-12-22-3-86 4-104l59 28 36 126c-31 13-93 39-95 37-2-4 10-32 12-42s-1-19-16-45z" fill="url(#f)"/><path d="M432 209c-19-29-62-62-73-64h-1c-13-4-48-11-60 5l-1 1c-19 16-3 38-68 28-48-5-97-38-114-18l-1 11c-1 5 4 8 24 16l40 20 69 35a5 5 0 0 1 2 3l32 115a5 5 0 0 0 6 4l166-54a5 5 0 0 0 3-5c-1-23-6-70-24-97z" fill="url(#g)"/><path d="M111 167c0-4 8-4 12-3a1475 1475 0 0 1 129 34h21c3 0 27-2 35-5 2 2 4 7-1 10-5 2-20 3-26 4h-17l-18-2-10-2-12-3-16-5-16-5-18-5-25-6-29-5c-10-1-10-3-9-7z" fill="#2E9A48"/><path d="M300 297c-6-27-33-42-46-46l-1-10c-17-18-94-46-102-48-29-10-36-17-36-18 40 4 93 20 110 27s58 7 69 4c-55 2-67-7-78-10-50-17-109-27-106-23s16 12 23 15c29 12 56 29 62 50 4 17 25 34 35 41 9 5 28-4 70 18z" fill="#5A5040"/><path d="M216 190c36 14 70 9 82 5-38 7-71-4-74-6l-71-19c-15-3-15-5-19-7a24 24 0 0 0-18-3c-4 1-3 4 1 5 18 3 63 11 99 25z" fill="#5A5040"/><path d="m58 356 45 59H12l46-59zm76-81 29 41h-59l30-41z" fill="#101417"/><path d="M468 293v89l13 13v54l-451 1v-16h73l333-140 32-1z" fill="#101417"/><path d="M232 95V42" stroke="#2E9A48" stroke-linecap="round" opacity=".7"/><path d="M240 97a1 1 0 1 0 1 0h-1zm1 0V38h-1v59h1z" fill="#2E9A48" opacity=".7"/><path d="M224 54V38h36l-36 16z" fill="#D7C39F"/><path d="M362 267h139a33 33 0 0 1-33 33h-73a33 33 0 0 1-33-33z" fill="#101417"/><path d="M467 424h11v5h-11z" fill="#D7C39F"/><path d="M420 114v123" stroke="#2E9A48"/><path d="m432 179-70 89 84-1v-70l-14-18z" fill="#2E9A48"/><path d="M448 81v123" stroke="#2E9A48"/><path d="m501 267-55-70v70h55z" fill="url(#h)"/><circle fill="#2E9A48" cx="417.5" cy="111.5" r="13.5"/><circle fill="#101417" cx="418.5" cy="113.5" r="9.5"/><path d="m421 194-33 41c3 0 21-8 29-17 6-7 4-18 4-24z" fill="#266134"/><path d="m428 24 17 17-17 17-17-17z" fill="#101417"/><circle fill="#2E9A48" cx="447.5" cy="79.5" r="3.5"/><path d="m366 79-49-28v397h49V79z" fill="#101417"/><path d="m306 44-5 4v401h5V44z" fill="#2E9A48"/><path d="m317 51-11-7v405h11V51z" fill="url(#i)"/><path d="M333 56v393m17-391v391" stroke="#D7C39F" stroke-width="3"/><path d="M264 456h-17v2h-2v2h-2v3h2v2h2v2h5v3h-2v2h-2v2h-1v3h1v2h2v2h2v4h-5v1h-2v2h-2v4h2v1h2v2h17v-1h2v-2h2v-4h-2v-2h-2v-1h-5v-4h2v-2h2v-2h1v-3h-1v-2h-2v-2h-2v-3h5v-2h2v-2h2v-3h-2v-2h-2v-2z" fill="#2E9A48"/><path d="M252 458h-4v2h-3v3h3v2h4v-2h-2v-3h2v-2zm0 28h-4v2h-3v4h3v1h4v-1h-2v-4h2v-2zm7 8h4v-2h3v-4h-3v-2h-4v2h2v4h-2v1zm0-29h4v-2h3v-3h-3v-2h-4v2h2v3h-2v2zm-7-2v-3h7v3h-7zm0 29v-4h7v4h-7zm7-22h-7v2h-2v2h-2v3h2v2h2v2h7v-2h2v-2h2v-3h-2v-2h-2v-2z" fill="#D31125"/><defs><linearGradient id="a" x1="425.5" x2="425.5" y1="156" y2="157" gradientUnits="userSpaceOnUse"><stop stop-color="#203A27"/><stop offset="1" stop-color="#2E9A48"/></linearGradient><linearGradient id="b" x1="425.5" x2="425.5" y1="166" y2="167" gradientUnits="userSpaceOnUse"><stop stop-color="#203A27"/><stop offset="1" stop-color="#2E9A48"/></linearGradient><linearGradient id="c" x1="275.8" x2="275.8" y1="47" y2="123.5" gradientUnits="userSpaceOnUse"><stop stop-color="#203A27"/><stop offset="1" stop-color="#2E9A48"/></linearGradient><linearGradient id="d" x1="193.9" x2="221.7" y1="94.5" y2="188.9" gradientUnits="userSpaceOnUse"><stop stop-color="#D7C39F"/><stop offset=".3" stop-color="#888E77"/><stop offset="1" stop-color="#466256"/></linearGradient><linearGradient id="e" x1="220" x2="220" y1="117" y2="150" gradientUnits="userSpaceOnUse"><stop stop-color="#203A27"/><stop offset="1" stop-color="#2E9A48"/></linearGradient><linearGradient id="f" x1="236.8" x2="236.8" y1="232" y2="400.7" gradientUnits="userSpaceOnUse"><stop offset=".2" stop-color="#617D50"/><stop offset=".8" stop-color="#101417"/></linearGradient><linearGradient id="g" x1="341.5" x2="435" y1="147" y2="313.5" gradientUnits="userSpaceOnUse"><stop offset="0" stop-color="#466256"/><stop offset=".2" stop-color="#384E46"/><stop offset=".9" stop-color="#101417"/></linearGradient><linearGradient id="h" x1="473.3" x2="473.3" y1="196.5" y2="267" gradientUnits="userSpaceOnUse"><stop stop-color="#203A27"/><stop offset="1" stop-color="#2E9A48"/></linearGradient><linearGradient id="i" x1="311.3" x2="311.3" y1="43.5" y2="447" gradientUnits="userSpaceOnUse"><stop stop-color="#203A27"/><stop offset="1" stop-color="#2E9A48"/></linearGradient></defs></svg>