<svg xmlns="http://www.w3.org/2000/svg" width="400" height="560"><style>.f{stroke-miterlimit:10}.g{stroke:#000}.h{stroke-width:4}.i{fill:#190c4c}.j{fill:#fee12f}.k{font-family:AreaNormal-ExtraBold}.l{fill:#f9921f}.m{fill:#3ea12a}.n{fill:#f3f3cf}.o{font-size:18.662px}.p{stroke-width:4.937}</style><path d="M0 0h400v560H0z" class="i"/><path d="M20 524V36a10 10 0 0 1 10-10h340a10 10 0 0 1 10 10v488a10 10 0 0 1-10 10H30a10 10 0 0 1-10-10" class="j"/><path fill="#75cd28" d="M42 71h316v271H42z"/><g class="j"><path d="M61 238s-31 86 24 107c15 6 34-7 42-22 28-55-66-85-66-85"/><path d="M64 169s99 66 97 100c-1 9-12 38-24 34-43-15-73-134-73-134"/></g><path d="M95 211s123 77 121 117c-1 10-41 32-55 28-53-18-66-145-66-145" class="l"/><path d="M76 85s18 147 75 156c16 3 72-1 76-17C242 165 76 85 76 85" class="j"/><path d="M104 127s45 159 93 165c14 2 30-37 34-51 13-49-127-114-127-114M77 278s-6 59 43 70c13 3 18-2 26-15 27-46-69-55-69-55" class="l"/><g class="j"><path d="M350 225s-91 153-143 152c-13 0-16-53-11-70 19-66 154-82 154-82"/><path d="M353 295s-39 62-63 46c-14-9-14-36-7-49 26-48 70 3 70 3"/></g><path d="M339 301s-46 67-78 47c-19-12-21-43-13-57 29-52 91 10 91 10" class="l"/><path d="M336 103s-52 194-102 206c-14 3-60-2-60-23 3-78 162-183 162-183" class="j"/><g class="l"><path d="M329 243s-72 109-104 106c-8-1-33-14-28-27 28-80 132-79 132-79"/><path d="M311 140s-44 160-86 170c-12 2-51-2-50-20 2-63 136-150 136-150"/></g><path d="M42 347h316v172H42z" class="n"/><g class="j"><path d="M284 428s68 48 66 74c-1 7-9 29-17 27-30-11-49-101-49-101"/><path d="M346 430s21 54 8 78c-4 6-19 26-22 22-14-13 14-100 14-100"/></g><g class="l"><path d="M298 453s54 37 53 54c-1 4-8 18-14 15-24-9-39-69-39-69"/><path d="M346 457s19 48 10 58c-3 3-13 9-17 5-11-16 7-63 7-63"/></g><path d="M273 487s51 8 55 19c1 3 0 14-5 14-20 2-50-33-50-33" class="j"/><path d="M289 498s38-5 44 4c2 2 6 11 2 13-14 5-46-17-46-17" class="l"/><g class="j"><path d="M70 402s-46 92-35 108c4 4 20 12 26 3 24-33 9-111 9-111"/><path d="M109 440s-61 54-57 71c1 4 28 14 35 9 28-16 22-80 22-80"/></g><g class="l"><path d="M100 463s-48 41-45 53c1 4 21 5 27 1 21-13 18-54 18-54"/><path d="M67 433s-35 69-27 81c2 3 14 9 19 2 18-25 8-83 8-83"/></g><g fill="none" stroke-width="5" class="f"><path d="M42 45h316v473H42z" class="g"/><path stroke="#b34322" d="M39 42h322v478H39z"/></g><path d="M25 355c0-14 11-24 24-24h302c13 0 24 10 24 24 0 13-11 24-24 24H49c-13 0-24-11-24-24" class="i"/><path fill="#b34322" d="M31 356v-2a19 19 0 0 1 19-19h300a19 19 0 0 1 19 19v2a19 19 0 0 1-19 18H50a19 19 0 0 1-19-18"/><path fill="#eae3d1" d="M36 355a16 16 0 0 1 16-16h296a16 16 0 0 1 16 16 16 16 0 0 1-16 16H52a16 16 0 0 1-16-16"/><path d="M25 58c0-14 11-24 24-24h302c13 0 24 10 24 24 0 13-11 24-24 24H49c-13 0-24-11-24-24" class="i"/><path fill="#b34322" d="M31 59v-2a19 19 0 0 1 19-19h300a19 19 0 0 1 19 19v2a19 19 0 0 1-19 18H50q-18-1-19-18"/><path fill="#eae3d1" d="M36 58a16 16 0 0 1 16-16h296a16 16 0 0 1 16 16 16 16 0 0 1-16 16H52q-15-1-16-16"/><text class="k" font-size="35" transform="matrix(1.0294 0 0 1 91 70)">LIL PEPE PUP</text><text transform="matrix(1.0667 0 0 1 84 396)"><tspan x="0" y="0" class="k o">The OG Book of Stamp Pepe</tspan><tspan x="18" y="22" class="k o">Pup. One of many pups… </tspan><tspan x="8" y="45" class="k o">because every meme book</tspan><tspan x="47" y="67" class="k o">should have a pup. </tspan></text><text><tspan x="151" y="488" class="k" font-size="16">Rareness Score</tspan><tspan x="197" y="508" class="k" font-size="16">42    </tspan></text><path fill="#ffe100" d="m122 473 2 8h8l-6 5 2 7-6-4-6 4 2-7-6-5h8zm154 0 2 8h8l-6 5 2 7-6-4-6 4 2-7-6-5h8z" class="f g"/><text class="k" font-size="18" transform="matrix(1.0294 0 0 1 72 360)">=2024  Atk=77 Spd=99 Ele=meme</text><g fill="#e30206"><path d="m58 362 1-12s-5-5-8-2c-4 4 7 14 7 14"/><path d="m58 362 1-12s4-5 7-2c5 4-8 14-8 14"/><path d="M58 362v-12h1v11z"/></g><g class="f g h"><path d="m260 255 31 42s13 8 14 11c1 5-13 2-13 2s7 13 2 15c-4 2-14-8-14-8s-5 11-9 9c-3-2-3-15-3-15l-11-26-13-23z" class="m"/><path d="m267 309-21-47s11-6 15-5c13 3 29 39 29 39z" class="i"/><path d="m194 280-55 13s-4 3-9 3c-4 0-5-5-5-5s-8 0-8-5c-1-4 4-8 4-8s1-12 5-14c3-3 5 6 5 6l32-2 28-4z" class="m"/><path d="m134 270 57-5s3 12 1 15c-8 10-52 13-52 13zm89 19s-26 22-20 29c4 4 28 6 34 2 8-5-14-31-14-31z" class="i"/></g><path fill="#fff" d="m220 309 29-43-54-2z"/><path d="m217 305-22-45-26 20zm6 0 21-45 26 20z" class="f g h i"/><g fill="#b34423" class="f g h"><path d="M228 280c-2-1-2-7 0-9s12-7 14-5 3 16 1 18-13-2-15-4zm-16 1c2-2 2-8-1-9-3-2-13-6-15-4s-1 17 1 18c3 2 13-3 15-5z"/><path d="M214 280c-2-1-3-7 0-9 2-2 11-2 13 0s2 8 0 9c-2 2-11 2-13 0z"/></g><ellipse cx="217" cy="223" fill="#58c83b" stroke-width="5" class="g" rx="63" ry="47"/><ellipse cx="216" cy="223" fill="none" stroke="#3ea12a" stroke-width="11" rx="56" ry="40"/><g class="g"><g class="h m"><ellipse cx="180" cy="202" rx="31" ry="19" transform="rotate(-10 180 202)"/><ellipse cx="242" cy="193" rx="31" ry="19" transform="rotate(-2 243 194)"/><ellipse cx="249" cy="308" rx="24" ry="20" transform="rotate(-56 249 308)"/></g><path fill="#474747" stroke-width="2" d="M115 273q-3 3-6 0v-1l14-9h1l1 2-2 3v1l3 5 3 2 11 5q6 6 2 12-3 4-7 4h-5q-6-3-8-8v-9l-6-6zm11-26 1 1 5 5q1 1-1 3l-31 20h-4l-4-6q-1 0 0 0zm-5-2q3-1 3 1v1l-32 21h-1l-1-3 1-1 29-18zm5-7-11 7-1 1q-6 2-11-4v-2h3q2 3 6 3l1-1 10-6 1-1q3-7-5-7l-2 1-9 6-4-1 1-1 10-7 3-1q5-1 10 3c5 4 2 6-1 9zm-40 13 1-1 3 1 3 2h3l1-1 10-6 4 1v1l-3 2-8 5-3 1h-6zm-15 4 1-1 10-6 3-2q9-1 11 5l-1 2-3-1q-2-3-5-3l-2 1-10 6c-4 3-1 9 4 8l2-1 9-6h5v1l-2 2-11 6-5 1-5-2q-4-5-1-10zm30-19h7l5 5-1 1h-3l-1-1-5-2-2 1-9 6h-1l-3-1v-1l1-1 11-7z" class="f"/><ellipse cx="188" cy="308" class="h m" rx="21" ry="24" transform="rotate(-30 188 308)"/></g><g fill="#58c83b"><ellipse cx="190" cy="308" rx="17" ry="21" transform="rotate(-24 190 308)"/><ellipse cx="247" cy="307" rx="21" ry="17" transform="rotate(-61 247 307)"/></g><g class="g h m"><ellipse cx="123" cy="283" rx="9" ry="6" transform="rotate(-22 123 283)"/><ellipse cx="129" cy="291" rx="8" ry="6" transform="rotate(-11 129 290)"/></g><path fill="#e01816" d="M181 245c14 5 33 5 48 2q11-3 20-9 8-3 14-9c3-5-5-10-9-5h-1l-3 2-7 5q-8 5-18 6-21 5-42-2c-5-2-8 7-2 10"/><linearGradient id="A" x1="188" x2="185" y1="260" y2="189" gradientTransform="matrix(.8937 .00101 .00101 .9062 15 20)" gradientUnits="userSpaceOnUse"><stop offset="0" stop-color="#fff"/><stop offset="1"/></linearGradient><path fill="url(#A)" stroke="#fff" d="M155 211c-1-9 10-18 25-19s26 5 27 15c0 9-11 18-25 19s-26-5-27-15z" class="f p"/><linearGradient id="B" x1="259" x2="256" y1="251" y2="180" gradientTransform="matrix(.8923 -.0516 .0543 .9046 3 33)" gradientUnits="userSpaceOnUse"><stop offset="0" stop-color="#fff"/><stop offset="1"/></linearGradient><path fill="url(#B)" stroke="#fff" d="M217 204c-1-9 10-19 24-21s27 4 28 13-9 19-24 21c-14 2-26-4-28-13z" class="f p"/><path fill="#fff" d="m206 211-1-8 13-2 1 8z"/><g class="f g"><g class="h"><path d="M150 193s-38-51-30-67c14-28 100-50 125-30 15 13 13 77 13 77z" class="n"/><path d="m146 188-15-26 125-27 2 34z" class="i"/></g><path d="m193 160-2-3 4-2 1 4 3-1-2-3 4-1 1 3 2 1 2 1v2l-2 1-2 1h3l2 1 1 1 1 2-1 2h-2l2 3-4 1v-3h-3v4h-4l1-3-4 1-2-4h5l-3-6-4 2-1-4z" class="n"/><path d="m197 161 1 2 4-1 1-2h-2zm3 5v2h3l2-1v-1l-2-1z" class="i"/><path d="M117 204c-2-2-4-8 1-10 10-4 174-33 182-30 3 1 2 8 0 11-2 2-14 6-18 7l-10 1s3-6-1-5c-13 0-116 17-128 21-2 2 4 5 4 5l-14 2c-5 1-13 0-16-2z" class="h n"/></g><path d="m148 204 2-6-8 2zm115-26 8 6 2-6z"/></svg>