<svg xmlns="http://www.w3.org/2000/svg" width="838" height="838" xmlns:v="https://vecta.io/nano"><path fill="#fff" d="M0 0h838v838H0z"/><path fill="#f4b6ad" d="M0 0h838v838H0z"/><g fill="#fff"><path d="M251.4 167.6h335.2v586.6H251.4z"/><path d="M167.6 251.4h502.8v419H167.6z"/><path d="M335.2 670.4h167.6V838H335.2z"/></g><g fill="#f0943e"><path d="M83.8 586.6h670.4v83.8H83.8z"/><path d="M251.4 502.8h335.2v251.4H251.4z"/></g><path fill="#f4b6ad" d="M335.2 586.6h167.6v83.8H335.2z"/><path d="M83.8 502.8h83.8v167.6H83.8zm586.6 0h83.8v167.6h-83.8z" fill="#f0943e"/><path d="M251.4 335.2h83.8V419h-83.8zm251.4 0h83.8V419h-83.8z"/></svg>