<svg xmlns="http://www.w3.org/2000/svg" width="400" height="560" xmlns:v="https://vecta.io/nano"><path d="M0 0h400v560H0z"/><path d="M20 523.73V36.27A10.17 10.17 0 0 1 30.17 26.1h339.66A10.17 10.17 0 0 1 380 36.27v487.45a10.17 10.17 0 0 1-10.17 10.17H30.17A10.16 10.16 0 0 1 20 523.73z" fill="#fc1a05"/><path d="M42 347.35h316v172H42z" fill="#22aed0"/><path d="M42 44.64h316v473.43H42z" fill="none" stroke="#000" stroke-width="5" stroke-miterlimit="10"/><radialGradient id="A" cx="181.681" cy="205.477" r="155.629" gradientTransform="matrix(1.1328 0 0 0.9786 -5.4203 7.6094)" gradientUnits="userSpaceOnUse"><stop offset="0" stop-color="#065e2e"/><stop offset=".204" stop-color="#055127"/><stop offset=".586" stop-color="#032d16"/><stop offset="1"/></radialGradient><path d="M40.82,77.21H358V332.7H40.82V77.21z" fill="url(#A)"/><path d="M25 354.52h0c0-13.25 10.75-24 24-24h302c13.25 0 24 10.75 24 24h0c0 13.25-10.75 24-24 24H49c-13.25 0-24-10.74-24-24z"/><path d="M31.18 355.52v-2a18.5 18.5 0 0 1 18.5-18.5h300.65a18.5 18.5 0 0 1 18.5 18.5v2a18.5 18.5 0 0 1-18.5 18.5H49.68a18.5 18.5 0 0 1-18.5-18.5z" fill="#fc1a05"/><path d="M35.81 354.52h0a16 16 0 0 1 16-16h296.38a16 16 0 0 1 16 16h0a16 16 0 0 1-16 16H51.81a16 16 0 0 1-16-16z" fill="#f3f2e9"/><path d="M25 57.71h0c0-13.25 10.75-24 24-24h302c13.25 0 24 10.75 24 24h0c0 13.25-10.75 24-24 24H49c-13.25 0-24-10.75-24-24z"/><path d="M31.18 58.71v-2a18.5 18.5 0 0 1 18.5-18.5h300.65a18.5 18.5 0 0 1 18.5 18.5v2a18.5 18.5 0 0 1-18.5 18.5H49.68c-10.22 0-18.5-8.29-18.5-18.5z" fill="#fc1a05"/><path d="M35.81 57.71h0a16 16 0 0 1 16-16h296.38a16 16 0 0 1 16 16h0a16 16 0 0 1-16 16H51.81c-8.84 0-16-7.17-16-16z" fill="#f3f2e9"/><text transform="matrix(1.0294 0 0 1 129.6407 69.8683)" font-family="AcademyEngravedLetPlain" font-size="35.163">AFRO P</text><text transform="matrix(.8327 0 0 1 85.271 359.7602)" font-family="ArialMT" font-size="19.648">= 69   Atk = 55  Spd = 44  Ele = soul</text><g fill="#e30206"><path d="M73.55 363.99l.18-15.82s-4.34-5.6-7.76-1.79c-4.39 4.88 7.58 17.61 7.58 17.61z"/><path d="M73.45 363.72l-.47-15.56h1.27v14.65z"/><path d="M73.55 363.99l.1-15.82s4.34-5.6 7.76-1.79c4.4 4.88-7.86 17.61-7.86 17.61z"/></g><path d="M71.41 518.07l20-46.24h216l20 46.24z"/><path d="M87.91 525.51l10.67-45.06h201.66l11.67 46z" fill="#fc1a05"/><text transform="matrix(1.0294 0 0 1 99.6579 514.8252)" font-family="Impact" font-size="26.924">THE UNPRUNABLES</text><ellipse cx="200.12" cy="170.42" rx="73.14" ry="66.9"/><path d="M176.87,303.57h46.26v26.95h-46.26V303.57z" fill="#0c5e30"/><path d="M144.44,222.59h111.58v54.12H144.44V222.59z" fill="#065e2e"/><path d="M178.23,270.98h43.66v59.54h-43.66V270.98z" fill="#0c5e30"/><path d="M154.99,177.13h90.15v45.79h-90.15V177.13z" fill="#005e2b"/><g fill="#ab9625"><path d="M208.96 323.7h-18.14 0v1.41h0 18.14 0v-1.41h0zm.91-4.22h-19.84v3.57h19.84v-3.57z"/><path d="M202.27 309.19h-4.88v10.5h4.88v-10.5z"/><path d="M199.89 305.08l-5.22 3.14 2.04 5.09h6.46l2.04-5.09c-.1 0-5.32-3.14-5.32-3.14zm0 14.62l2.27 1.73 2.38-1.84-2.27-1.73-2.38 1.84zm-2.38-1.85l-2.27 1.73 2.38 1.84 2.27-1.73-2.38-1.84h0z"/></g><path d="M237.54 207.76l-7.6-8.98-18.82 11.91 19.05-16.13 7.37 13.2zm.79 9.31l-8.39-16.67-21.77 16.78 30.16-.11zm-75.97-10.5l7.37-8.77 19.28 12.56-19.62-16.78-7.03 12.99zm-.57 9.21l7.94-16.35 22.34 17.43-30.28-1.08z"/><linearGradient id="B" gradientUnits="userSpaceOnUse" x1="224.453" y1="317.043" x2="274.494" y2="317.043"><stop offset="0" stop-color="#4ab840"/><stop offset="1" stop-color="#f33015"/></linearGradient><path d="M274.51 303.57v26.95h-64.63l12.02-26.95h52.61z" fill="url(#B)"/><linearGradient id="C" gradientUnits="userSpaceOnUse" x1="143.07" y1="317.043" x2="173.006" y2="317.043"><stop offset="0" stop-color="#f3f82e"/><stop offset="1" stop-color="#4bbb39"/></linearGradient><path d="M125.5,303.57v26.95h64.41l-11.79-26.95H125.5z" fill="url(#C)"/><g stroke-width="1.33" stroke="#aa9728" fill="none"><ellipse transform="matrix(.9625 -.2715 .2715 .9625 -75.7989 68.0423)" cx="208.05" cy="308.01" rx="3.16" ry="1.63"/><ellipse transform="matrix(.9625 -.2715 .2715 .9625 -75.1438 69.5227)" cx="213.73" cy="306.38" rx="3.16" ry="1.63"/><ellipse transform="matrix(.9625 -.2715 .2715 .9625 -74.4618 70.9902)" cx="219.37" cy="304.65" rx="3.16" ry="1.63"/><ellipse transform="matrix(.2715 -.9625 .9625 .2715 -156.4396 408.8068)" cx="191.81" cy="307.74" rx="1.63" ry="3.16"/><ellipse transform="matrix(.2715 -.9625 .9625 .2715 -158.9675 402.1937)" cx="186.18" cy="306.1" rx="1.63" ry="3.16"/><ellipse transform="matrix(.2715 -.9625 .9625 .2715 -161.4964 395.5815)" cx="180.55" cy="304.46" rx="1.63" ry="3.16"/></g><path d="M160.32 235.58h79.26v27.6h-79.26v-27.6z" fill="#c51d0b"/><path d="M167.8,241.21h63.84v16.24H167.8V241.21z"/><path d="M180.39 241.21h11.34v9.31h-11.34v-9.31zm27.44 0h11.34v9.31h-11.34v-9.31z" fill="#ab9625"/><path d="M194.11 265.79h11.91v8.77h-11.91v-8.77z"/><text><tspan font-family="Arial-BoldMT" font-size="30.38" x="70.302" y="414.261">“When it hits you,</tspan><tspan x="76.192" y="450.721" font-family="Arial-BoldMT" font-size="30.38">you feel no pain”</tspan></text></svg>