<svg xmlns="http://www.w3.org/2000/svg" width="1080" height="1080" shape-rendering="geometricPrecision" image-rendering="optimizeQuality" fill-rule="evenodd" xmlns:v="https://vecta.io/nano"><path d="M10.162 11.991h1055.75V1067.74H10.162z" stroke="#000" stroke-width="16" stroke-miterlimit="2.61313" fill="#efeee9"/><path d="M136.513 445.513c17.12-31.186 30.133-12.781 65.882-62.941 3.892-5.461 13.71-20.89 16.053-27.463-14.064 3.587-46.3 20.632-57.563 29.26-15.609 11.955-26.33 42.904-24.372 61.144zm714.942 414.566l-.64-62.337c22.683 1.906 37.09 9.937 49.372 21.651-2.215-20.204-4.61-31.019-15.114-43.015-4.223-4.823-25.388-21.195-34.137-23.677-.823 7.898-.255 18.19-.254 26.357.001 9.164-.719 17.969-.753 26.807l.198 40.208c.126 11.561-.495 8.528.961 13.124.077.242.21.605.367.882zm-103.344 141.275c1.027-6.635.529-16.299 1.043-23.365 2.187-30.033 11.863-68.346 27.749-93.067 3.708-5.769 6.466-8.777 10.476-13.227 6.018-6.679 8.973-7.529 12.519-11.107-7.883 1.238-22.822 11.953-27.316 15.898-6.165 5.413-13.055 15.932-17.885 25.422-15.734 30.913-15.728 65.143-14.292 99.49l7.706-.044zm191.987-632.281c-.487-8.322 4.108-17.705 4.856-28.137.652-9.102-1.224-25.527 1.064-32.381-8.059 1.282-15.257-1.37-21.707-2.943.994 9.355 5.58 22.016 7.845 31.82 1.588 6.874 5.679 28.087 7.942 31.641zm-77.684 319.106l6.895 4.999c27.304 13.634 56.524-5.918 60.671-16.709-10.46 3.404-18.343 7.24-30.067 9.911-15.103 3.44-22.479 1.652-37.499 1.799zM189.397 288.581c-3.667-2.332-10.902-3.098-15.585-5.204-5.06-2.275-10.1-4.6-14.321-7.275-7.351-4.658-17.269-12.994-20.632-21.824l2.504-1.052-7.508-1.778c-1.29 14.234 9.198 24.159 17.484 28.628 11.215 6.05 23.917 8.632 38.058 8.505zm632.354-18.071c32.803 1.907 24.063 5.24 36.802 12.859-2.913-15.044-18.824-21.664-36.312-20.166l-.49 7.307zm77.018 458.893c-2.539-4.755-5.933-5.027-8.564-9.694-3.086-5.473-.267-8.969-5.702-11.829-6.693-3.522-15.611-6.992-22.688-12.92 3.876 8.35 17.59 22.211 25.505 27.624 4.112 2.814 7.01 4.14 11.449 6.819zm45.021-451.704c5.685-1.773 9.081-2.566 15.748-3.797-3.594-4.016-3.449-4.55-10.532-4.125-3.413 3.268-3.931 2.28-5.216 7.922z" fill="#6c6a6a"/><path d="M751.985 348.437c16.291 8.759 14.995 14.309 20.68 17.586 12.909 7.439 43.568-9.812 33.443-36.579-3.9-10.31-10.734-15.832-17.963-21.189-16.983.795-31.253 4.536-35.626 23.517-.656 2.849-.943 5.933-.685 8.921l.151 7.744zM332.092 773.885c-32.809 6.743-21.973 51.744 8.627 45.882 30.343-5.812 20.997-51.971-8.627-45.882zM87.447 455.025l.6-2.455-23.191-6.308c-2.56 2.39-4.525 4.445-5.888 8.03 2.918 3.71 6.37 5.079 13.069 5.013 8.467-.083 8.915-3.084 15.41-4.28z" fill="red"/><path d="M265.307 1001.474c1.351-57.553 27.945-77.293 67.657-108.916 5.475-4.359 28.782-23.171 33.3-24.888l.279 133.759-101.236.045zm66.785-227.589c29.624-6.089 38.97 40.07 8.627 45.882-30.6 5.862-41.436-39.139-8.627-45.882zM251.481 644.24c3.652 4.308 11.805 27.633 14.097 35.112 8.732 28.493 9.693 56.784 1.319 85.259-1.99 6.768-9.558 26.578-14.465 32.348l-1.35 1.288.399-154.007zm46.192 212.232c-.135-1.859-.093-4.342-.134-6.268-1.073-51.105-.819-128.815.889-176.683 5.264-1.549 39.297-1.008 46.843-.673 11.77.524 26.796 5.732 35.905 10.488 19.332 10.091 35.779 27.126 44.006 49.781 5.109 14.068 3.59 22.786-.428 39.888-3.082 13.117-7.166 22.787-12.388 34.009-8.221 17.665-30.066 43.864-42.136 51.265l.189-154.547-70.281.311c-1.092 24.103 2.817 146.17-1.293 157.256l-1.172-4.827zm166.114-143.387c12.399 12.416 33.741 45.955 36.621 65.694-8.096-23.673-23.926-45.777-39.221-63.069-3.564-4.03-5.742-7.207-9.725-10.91-3.19-2.965-7.297-6.608-11.124-9.492-3.439-2.592-8.982-5.23-9.218-10.598 6.255.295 27.036 22.736 32.667 28.375zm-35.339 15.027c-3.883-6.621-5.849-11.856-10.1-18.045-7.318-10.654-17.768-21.075-28.944-27.74-5.101-3.042-14.445-6.33-18.522-9.229 19.268.034 48.576 8.651 57.28 18.593l.286 36.421zM370.36 598.828c.486.886.014-.15.864 1.847 14.821 34.833 14.765 34.457 40.381 64.593 2.791 3.284 5.333 6.17 8.307 9.223 7.253 7.443 7.351 4.023 7.826 10.066-14.041-4.257-11.468-12.532-57.665-16.226l.287-69.503zM117.438 546.06c29.197-3.569 44.12-8.039 69.256 6.967 24.49 14.621 41.957 43.167 54.626 69.126 7.632 15.637 5.333 15.342 5.368 34.216l.004 81.449c.034 18.599 3.048 65.127-3.902 78.993-11.641 23.224-21.734 30.558-35.543 45.915-10.471 11.645-75.114 74.491-80.686 83.355l26.973 55.397c-8.274-.051-29.245 1.455-35.244-.642-2.522-7.263-.92-97.528-.924-113.522l.072-341.254zm109.6-39.797c.941-.783.793-.713 2.392-1.58l11.684-5.029c45.059-22.917 34.886-61.642 36.741-96.157l16.732.476-.247 159.274c-4.385-28.218-33.16-55.992-67.302-56.984zm72.045-75.57c21.687-7.178 36.923-15.232 48.391-33.956 3.787-6.184 5.9-11.576 8.875-17.7-1.305 49.933-4.868 137.538 3.56 184.197 2.274 12.588 5.751 18.246 5.693 31.295l.111 38.127.051 18.558c.022 5.39 1.253 15.887-1.966 16.955l-65.247-.022.532-237.454zM87.447 455.025c-6.495 1.196-6.943 4.197-15.41 4.28-6.699.066-10.151-1.303-13.069-5.013 1.363-3.585 3.328-5.64 5.888-8.03l23.191 6.308 6.905-2.402c-2.304-3.505-39.607-36.543-45.316-40.291 15.99-22.74.642-23.133-7.421-35.832 19.245 1.723 20.698 4.988 28.449 17.196 21.55-1.244 21.937-23.526 24.525-34.426 3.205-13.504 14.718-28.788 24.857-32.291l-.987 202.963-31.679 6.82.067-79.282zm49.066-9.512c-1.958-18.24 8.763-49.189 24.372-61.144 11.263-8.628 43.499-25.673 57.563-29.26-2.343 6.573-12.161 22.002-16.053 27.463-35.749 50.16-48.762 31.755-65.882 62.941zm162.456-116.171c15.32-10.902 35.653 13.211 21.306 32.964-11.196 15.413-31.833 2.59-42.013 27.938l-.132-21.897c3.836-1.903 13.304-10.025 15.758-13.856 6.281-9.805 3.252-14.123 5.081-25.149zm126.116-20.118c21.519-4.548 40.431 11.457 43.462 29.013 3.727 21.591-11.375 38.804-29.168 42.021-48.464 8.763-60.703-61.225-14.294-71.034zM123.804 423.362c0-64.325 1.645-70.013 43.695-98.347 7.264-4.895 14.681-9.683 21.004-15.083 24.024-20.515 15.639-16.934 36.124-16.899 9.275.016 8.747-.527 12.36 5.568 29.25 49.361-58.995 59.984-81.46 83.535-4.254 4.46-5.676 5.579-8.662 9.89-2.396 3.46-4.67 6.618-6.559 10.936-3.927 8.971-6.351 17.063-7.626 27.632-1.821 15.092-.58 43.621 8.087 57.179l1.548 1.935c-2.409-18.255-9.597-33.542 2.416-48.276 7.77-9.532 20.142-17.315 36.088-21.727 15.16-4.196 32.18-7.077 46.792-11.966 19.185-6.419 23.526-12.666 33.331-24.445l.104 35.944c.028 19.316 3.502 47.049-5.056 60.225-7.143 10.999-20.085 18.134-36.314 23.521-13.39 4.446-83.857 22.09-96.033 23.22l.161-102.842zm-8.237-105.424c2.673-7.685 4.034-12.351 6.46-20.954l32.336 5.75c-6.577 6.98-26.61 14.061-38.796 15.204zm-88.96 38.409c2.229-2.556 6.903-5.621 9.524-8.058 9.192-8.545 17.02-17.759 24.895-27.687 21.463-27.059 20.26-40.848 23.486-45.94 8.792 40.215-29.667 85.747-54.709 85.602l-3.196-3.917zm251.384 5.684c-.318-13.173-.388-27.612-.014-40.77 1.098-38.619 48.971-49.123 68.028-27.902-1.319 1.979-2.568 3.726-3.414 6.818-9.148-3.54-15.465-8.976-28.203-5.513-8.405 2.284-14.786 8.87-18.174 15.738-5.146 10.428-1.257 20.737-3.018 32.137-1.379 8.938-8.898 16.245-15.205 19.492zM119.592 271.91c10.259 2.365 21.399 9.222 31.329 13.796 3.606 1.661 7.243 2.677 10.014 4.907-17.31 1.089-29.305-4.239-44.736-6.271l3.393-12.432zm21.771-18.684c22.885 2.134 40.672 17.604 56.751 29.596 2.154 1.607 5.259 3.555 6.364 5.739l-15.081.02c-14.141.127-26.843-2.455-38.058-8.505-8.286-4.469-18.774-14.394-17.484-28.628l7.508 1.778zm85.095 34.639c-17.409-.17-14.423-.653-25.363-9.031l-19.888-15.177c-11.117-8.722-27.166-20.088-43.423-25.639-22.704-7.753-20.234-.078-20.13-14.65.142-19.841-2.173-94.038 1.795-102.368 4.746 7.892 8.647 52.567 39.047 98.347 8.674 13.063 21.724 29.022 31.836 37.252 3.176 2.584 6.313 5.408 9.449 8.075 4.204 3.575 25.659 20.354 26.677 23.191zM77.996 235.391c3.013-27.525 19.425-79.857 35.439-101.429l-.39 98.701c-6.011.537-12.098-.237-18.14.42-4.645.505-10.986 1.75-16.909 2.308zm199.319 65.675l-6.824-14.321c-12.943-24.633-26.229-38.282-48.081-54.987l-44.753-36.722c-16.938-15.106-44.905-52.066-51.591-70.469 4.462 7.353 11.37 16.653 16.661 23.95l18.313 22.924 42.314 39.231c20.764 15.708 30.905 24.711 49.632 43.06 9.286 9.1 22.695 33.5 24.329 47.334zm87.786 166.629c-.037 29.902 1.065 62.254-.561 91.876-5.619-14.902-2.303-170.356-3.03-200.113-2.824 2.067-6.028 6.904-9.413 9.92-3.254 2.899-6.618 5.884-11.308 7.89l5.962-7.054c25.774-27.969 23.482-68.406-5.323-86.35-14.546-9.061-21.67-6.264-38.46-4.089-2.903-5.769-3.925-9.695-7.176-15.256-19.286-32.997-46.217-53.525-77.371-77.242-4.01-3.053-8.342-6.814-12.419-10.268l-73.447-59.56c-3.841-2.965-9.162-6.323-11.454-10.423 69.361-2.848 101.321-7.514 160.477 21.189 66.122 32.083 113.76 97.2 102.493 173.127-4.788 32.27-11.966 36.47-18.333 51.785-2.002 4.818-.623 103.802-.637 114.568zM171.725 97.677c9.756-5.29 41.928-4.967 55.036-4.276 43.306 2.283 94.107 20.728 125.141 50.093 21.024 19.892 37.64 38.452 49.435 67.088 5.659 13.737 10.375 30.529 11.803 46.952 1.265 14.55-.036 39.761-5.857 51.245 1.073-6.835 3.088-17.433 2.973-25.605 1.337-25.441-3.655-49.745-13.15-72.51-8.611-20.644-30.676-51.072-48.327-65.069-58.955-46.749-103.056-50.909-177.054-47.918zm-4.854 908.303l81.117-.474-.383-92.695c-39.029-9.231-28.485-54.128.632-57.493-.157-8.269-1.099-41.135 2.359-46.059l.995 45.063c6.064 4.282 11.671 2.271 18.746 9.948 16.352 17.743 6.383 45.319-19.088 48.557l.342 91.734c1.828 1.482-.801.3 2.144.969l59.544.541 63.922-.19 126.904.03.051-128.448c-19.865 3.355-93.751-2.01-133.935 2.734.378-20.136-4.051-9.341 17.494-30.827 44.736-44.615 40.959-85.4 45.777-97.887 14.437 35.158 11.715 75.984-15.988 102.937-4.952 4.818-18.284 16.989-27.135 18.006.755 1.299-.683 1.541 5.324 2.013l108.361-.139.412-215.869.04-202.078c.324-15.654 1.224-11.258-2.554-12.769-3.007 2.894-1.646 50.792-1.655 58.134l.182 181.968c-6.105-2.665-20.854-16.952-25.035-21.428-2.179-2.334-3.071-3.786-5.357-5.987-8.945-8.607-7.838-8.291-16.102-17.919-27.466-31.998-52.157-81.08-60.963-122.601-5.178-24.414-10.244-57.142-8.782-83.06 5.294 2.048 27.788 23.846 62.535 16.781 23.447-4.768 38.595-17.221 47.906-32.338 20.717-33.638 13.371-73.699-17.643-99.783-3.682-3.097-8.464-4.986-12.03-8.431 1.099-5.166 2.262-12.323 4.983-16.566l30.575-.059.967 15.352c.09.255.242.618.419.897 4.024-1.89 1.709 3.224 2.672-4.644l-.171-204.275c.1-13.812 1.297-10.77-2.501-12.838-2.554 1.951-1.78-.584-1.611 10.768l.39 190.171-30.082-.121c14.25-80.099-25.101-149.499-65.442-181.961C382.308 87.218 357.445 72.7 321.16 63.92c-67.903-16.433-144.766-3.551-199.643 38.802-11.416 8.811-21.087 20.358-30.141 32.744-21.65 29.616-28.346 61.487-19.036 97.925 4.751 18.597 10.607 32.044 3.245 52.275-5.755 15.811-15.491 27.919-24.662 38.215-6.78 7.612-23.478 26.297-31.852 31.073l11.737 14.781c4.693 4.439 8.092 8.595 12.5 13.274 3.604 3.826 10.472 8.095 6.975 16.51-3.156 7.593-9.456 7.923-12.545 14.564 2.625 5.439 6.218 10.911 9.136 15.862 3.67 6.226 5.979 10.506 11.142 13.56-2.644 4.704-2.231 3.831-5.558 7.708-11.178 13.019.438 19.473 5.196 23.633 13.933 12.184 9.184 18.066 3.427 35.511-5.163 15.641.987 27.604 10.52 34.05 15.89 10.744 24.927 2.986 41.258 2.985l.206 453.906-53.536.034c-5.351.092-4.689-.889-5.83 2.486.033 3.284 1.934 2.252 11.101 2.207l102.071-.045zm635.785-44.762c21.877-4.364 45.125-15.39 74.961-6.277 10.549 3.222 22.295 10.483 27.09 16.233 4.683 5.616 13.542 19.404 13.556 30.255l-115.193.153-.414-40.364zm-6.868 40.155l-24.612-.003c-1.55-10.406 22.094-55.818 27.46-62.454l-.259 47.374c-.026 4.245 1.818 15.088-2.589 15.083zm-47.677-.019l-7.706.044c-1.436-34.347-1.442-68.577 14.292-99.49 4.83-9.49 11.72-20.009 17.885-25.422 4.494-3.945 19.433-14.66 27.316-15.898-3.546 3.578-6.501 4.428-12.519 11.107-4.01 4.45-6.768 7.458-10.476 13.227-15.886 24.721-25.562 63.034-27.749 93.067-.514 7.066-.016 16.73-1.043 23.365zm-12.736-.222l-37.234.236c.93-3.615 4.205-6.335 6.905-9.922 18.933-25.16 28.357-58.811 37.536-89.262l16.222-56.032c3.596-11.574 13.277-46.441 18.11-54.398 2.739 21.057.424 35.078 22.49 51.752 4.257 3.216 11.312 5.532 16.159 8.784-49.869 7.24-71.854 46.238-78.289 92.864-2.839 20.567-.411 46.71-1.899 55.978zm-33.408-184.007c-5.772-8.722-8.335-29.359-7.131-41.111 1.374-13.408 5.871-25.527 11.561-35.875 1.585 2.672 2.486 7.154 3.812 10.061 1.597 3.501 3.676 6.172 5.471 9.27-2.907 9.721-6.115 16.636-8.415 27.927l-4.999 29.028c-.038-.133-.172.48-.299.7zm75.296-32.818c-4.794-6.236-3.75-8.81-10.983-12.839-6.155-3.429-11.055-2.655-17.397-5.289-21.559-8.954-9.531-40.301 7.796-36.018 7.877 1.948-.176 9.793 6.125 22.102 2.755 5.38 7.735 7.907 11.897 11.775 2.578 2.397 2.614 3.786 2.765 8.772.12 3.972.157 7.529-.203 11.497zm153.639-51.691c9.817 9.289 11.607 20.697 10.752 34.757-2.793-1.97-18.845-36.769-20.483-42.175l9.731 7.418zm-69.087-37.656c7.077 5.928 15.995 9.398 22.688 12.92 5.435 2.86 2.616 6.356 5.702 11.829 2.631 4.667 6.025 4.939 8.564 9.694 2.434.544 6.259 3.071 9.373 4.258 4.177 1.592 7.254 2.162 12.161 2.414 12.666 21.683 16.165 47.517 36.235 53.335.361 7.47.61 8.576 3.999 13.348-1.743 2.097-31.044 21.537-32.213 26.243l8.42 1.037c1.799 7.352.071 21.844.584 30.362.574 9.546 5.556 18.623-2.46 24.496-12.957 3.065-67-21.306-83.413-24.817-.157-.277-.29-.64-.367-.882-1.456-4.596-.835-1.563-.961-13.124l-.198-40.208c.034-8.838.754-17.643.753-26.807-.001-8.167-.569-18.459.254-26.357 8.749 2.482 29.914 18.854 34.137 23.677 10.504 11.996 12.899 22.811 15.114 43.015 2.647-1.358 1.007 1.812 2.227-3.853 1.024-4.753.413-12.856-.695-17.683-1.741-7.579-3.782-12.634-7.611-18.147-7.426-10.691-16.25-16.889-28.094-24.47-12.752-8.161-21.499-11.406-29.076-22.506-8.348-12.228-9.041-22.906-8.732-37.225.086-3.946-.236-4.032 1.606-6.845l26.79-.225c1.508 2.527 3.217 5.08 5.213 6.521zm33.097 7.461c4.466-1.485 8.737-1.864 13.436-3.616 4.287-1.597 8.9-4.528 12.331-5.488l4.692 8.047c-9.342 1.554-21.072 2.947-30.459 1.057zm-32.498-14.242c-1.602-.711-.98.113-1.575-1.489 11.18-3.089 22.028-8.132 33.008-11.655 10.157-3.258 28.065-4.714 36.133 1.434-4.147 10.791-33.367 30.343-60.671 16.709l-6.895-4.999zm58.576-28.717c-.028-9.682-1.022-43.016.994-50.135 9.697 10.601 23.238 43.422 24.272 60.335-3.882-1.766-7.106-3.846-11.731-5.601-3.819-1.449-10.945-1.722-13.535-4.599zm-166.001 34.461c11.457-8.169 27.693-14.338 41.89-19.946l43.775-17.05c15.03-6.064 28.583-12.696 41.283-20.611l26.646-19.816c2.378-2.057 4.862-5.209 7.929-6.564-3.5 11.503-25.062 34.611-34.549 41.891-3.066 2.353-5.56 4.392-8.771 6.685-21.354 15.249-58.829 28.744-88.396 47.699-3.096 1.984-5.604 4.471-8.597 5.833-19.604-20.917-9.514-8.613-21.21-18.121zm-54.487 141.583c-4.739-.616-17.43-11.197-19.765-13.568-18.874-19.168-26.172-48.052-20.423-76.14 14.452-70.593 91.564-99.154 150.42-116.794 17.605-5.277 34.586-9.477 52.384-14.653 15.266-4.439 37.884-10.675 53.291-12.951-3.159 6.432-23.764 22.101-32.556 27.574-11.752 7.314-24.153 14.311-38.341 20.433-27.167 11.725-57.763 21.158-83.294 34.221-13.584 6.95-9.033 8.302-19.974 9.771-31.539 4.234-33.382 30.419-36.538 37.781-1.06 2.471-3.647 6.222-5.158 9.346-7.055 14.583-11.42 29.595-10.489 47.828 1.675 32.783 12.488 24.775 10.443 47.152zM595.774 683.934c3.329-4.023 1.156-58.31 1.483-68.359l36.298-.371c-11.257 24.875-16.976 33.78-20.299 64.891-3.714 34.756 1.792 45.993 8.415 75.25-10.175 6.059-21.736 6.561-35.461 26.507-29.06 42.235 6.141 108.228 67.77 94.598 16.812-3.719 34.156-15.851 42.677-29.493 1.558-2.495 2.52-5.233 4.371-7.136-.025 15.46-12.35 47.758-18.993 59.502-11.46 20.258-20.378 31.343-33.99 45.405-12.115 12.516-27.074 23.843-44.152 34.237-8.293 5.046-16.134 9.302-25.651 13.492l-21.189 8.781c-3.517 1.175-5.209.535-6.17 3.611 2.252 1.61 311.535 2.004 356.254 1.205 19.801-.354 39.947.014 59.798 0l29.899.018 21.783.199c4.944-.043 4.591 1.046 5.592-2.453-.823-2.895 1.28-1.731-3.559-2.422l-90.902.124c-11.208-.131-4.163-1.13-11.517-18.096-2.568-5.926-5.458-10.83-9.145-14.553-31.818-32.125-66.473-24.154-106.353-12.589-.859-14.521-.679-20.272 5.847-31.426 8.874-15.167 21.546-30.019 38.556-35.676 37.112-12.341 74.233 21.015 92.657-.131 10.565-12.126 1.287-19.948 2.332-30.547.978-9.917 14.399-11.335 18.715-19.645-.934-5.314-3.754-8.017-5.963-11.258 5.916-4.97 10.707-12.845 14.691-21.734-10.797-12.893-11.997-12.44 9.503-31.163 3.647-3.175 7.216-5.24 8.891-10.503-10.834-4.367-30.676-29.919-36.088-45.343-8.569-24.422 6.323-34.452-5.453-71.918-32.481-103.35-175.771-142.993-266.855-79.974-11.933 8.256-11.999 8.852-22.084 18.118-5.076 4.665-15.725 15.621-18.98 23.419l217.406.442c-1.443 4.646-24.197 2.538-29.189 2.538l-229.472-.842c-1.032-13.022-.259-29.559-.217-42.937l.001-21.651.17-15.57c-.657-6.75 1.681-2.477-2.458-4.344-4.179 2.322-2.123 13.682-2.117 17.852l.296 122.69-.13 10.411c-.059 5.594-1.161 5.811 2.982 6.844zm268.595-240.4c7.73-1.48 18.485-4.472 26.324-3.956 7.394.488 18.055 8.002 12.857 15.179-5.71 7.882-23.001 7.684-36.137-7.215-1.318-1.495-2.138-2.831-3.044-4.008zM823.22 309.633c20.273-1.013 24.585-9.336 39.639 5.416 10.527 10.315 11.466 20.824 11.496 39.236.028 17.255-4.001 34.203 11.414 38.881 11.877 3.604 9.379-2.313 16.553-6.608 2.797-1.674 6.285-2.674 9.888-2.379s6.311 1.798 8.594 4.323c-7.548 1.945-16.488 5.606-18.393 12.633-3.27 12.06 8.901 11.834 13.858 14.691-2.024 1.347-3.354 2.524-6.039 3.535-4.998-3.207-8.161-7.738-16.392-5.126l-45.981 24.592c1.258 2.017 8.218 5.384 11.089 7.973 14.123 12.74 10.695 26.948 10.845 45.788l-46.384.194-.187-183.149zm122.798-1.078c6.004.099 9.871-1.639 13.558-4.38 10.676 21.172 3.16 49.127-5.576 68.111-3.163 6.873-26.258 54.269-28.922 56.06 2.402-16.423-3.908-9.458-4.779-18.28-.247-2.497.059-7.05.05-9.789 5.949-2.706 11.577-6.935 15.378-12.244 6.667-9.311 6.307-6.699 4.371-18.96-2.263-3.554-6.354-24.767-7.942-31.641-2.265-9.804-6.851-22.465-7.845-31.82 6.45 1.573 13.648 4.225 21.707 2.943zm-136.26-11.624c3.073-5.241 12.515-12.169 18.602-15.247 23.724-11.993 32.007 18.522 6.202 21.606-12.668 1.515-16.606-2.952-24.804-6.359zm129.528 5.803c.701-1.84-.155-.254 1.003-1.952 2.626-3.85 12.658-13.501 16.613-15.034-.992 5.896-2.485 12.663-4.285 16.852-3.896.864-8.92 1.274-13.331.134zm-3.144 72.319c-7.953-.779-12.014 2.385-14.174-4.651-1.416-4.616-2.411-9.552-3.568-14.084-7.764-30.415-15.31-56.928-15.453-89.669l.344-139.872c3.058 1.095 6.823 7.161 8.581 9.357 3.714 4.637 4.829 5.086 4.895 12.939l.062 35.096c.018 36.329-2.942 102.072 5.617 134.308l13.696 56.576zm-181.098-97.381c6.325.715 14.197 2.813 20.192 4.444 9.566 2.603 5.848 10.852 25.255 22.07 8.311 4.805 12.629 4.033 16.043 5.606 2.043.942.851.179 2.293 1.449l.332 177.944-30.67-16.961c1.582-18.821 5.44-34.539 3.484-54.083-2.225-22.219-8.655-28.819-15.047-45.815 14.843-.044 25.039-4.733 31.118-15.06 7.043-11.968 6.149-25.389-.374-36.531-3.636-6.208-17.439-18.348-23.797-23.601-8.308-6.864-15.428-11.191-24.714-16.441l-2.747-1.813c-.212-.164-.513-.452-.685-.591a9.96 9.96 0 0 1-.683-.617zm188.746.027c1.285-5.642 1.803-4.654 5.216-7.922 7.083-.425 6.938.109 10.532 4.125-6.667 1.231-10.063 2.024-15.748 3.797zm-121.549-14.496c17.488-1.498 33.399 5.122 36.312 20.166-12.739-7.619-3.999-10.952-36.802-12.859l.49-7.307zm134.043-3.288c2.073-2.244 6.943-5.967 10.698-8.675 2.605-1.879 7.998-6.312 9.882-8.907 1.016 4.203 1.513 6.614.552 10.335l-21.132 7.247zm-201.577-11.108c11.418-5.106 29.797-14.646 44.728-12.53 14.602 2.069 32.028 9.075 41.858 15.767-14.868-2.238-25.912-5.464-42.371-5.772-15.302-.287-30.709 2.624-44.215 2.535zm166.472-101.181c4.907 1.269 26.152 32.754 30.691 40.275 8.845 14.654 18.197 30.089 23.941 48.982-6.135 1.763-26.116 13.987-32.094 17.874-10.972 7.134-15.647 12.458-22.802 25.112l.264-132.243zm-98.187 68.778c7.166-6.399 16.93-12.096 23.76-18.397 14.411-13.295 28.878-28.787 37.942-46.592l13.951-28.085.073 137.011c-2.689-.678-28.704-16.504-55.323-23.795-7.586-2.078-13.611-2.383-20.07-5.726l-.333-14.416zm-24.112 13.845c1.408-1.542 16.459-10.347 19.828-11.614l.116 12.669-19.944-1.055zm24.305-39.285c.322-17.542-1.686-124.541.44-131.646 19.489-2.951 61.407 7.151 77.426 14.534 1.001 10.493-6.588 30.42-10.257 39.32-8.412 20.406-16.016 29.267-28.249 44.952-3.525 4.52-7.286 7.628-11.988 12.746l-13.516 11.258c-2.765 2.298-10.354 8.959-13.856 8.836zM723.611 76.496l.082 154.824c15.844-4.537 45.51-21.37 58.035-31.323 20.408-16.217 27.305-28.929 37.398-51.988l.027 46.024c-28.91 22.764-84.549 36.488-95.297 42.717l-.177 38.048c21.42 2.841 57.064 19.851 64.466 33.457 7.229 5.357 14.063 10.879 17.963 21.189 10.125 26.767-20.534 44.018-33.443 36.579-5.685-3.277-4.389-8.827-20.68-17.586-9.72-5.434-17.244-7.842-28.379-11.274l.033 155.398c-19.703.896-140.035-1.935-146.404.909.211 5.732.451 3.777 16.477 3.784l312.79-.295c1.577-16.023-2.884-19.532 7.197-36.141 9.986-16.452 19.013-28.945 30.761-44.456 11.832-15.622 33.927-56.076 37.902-81.269 6.93 9.666-1.815 61.474-9.736 77.196l1.724.166c-.251-2.979 11.251-25.979 12.716-29.774 12.185-31.557 14.583-61.712 10.854-95.368-.767-6.926-2.826-13.296-3.346-19.781l2.391 4.151c.56 1.267 1.124 2.903 1.699 4.495l9.044 31.211c6.858 29.646 8.526 64.945.65 94.454-2.113 7.916-10.774 33.035-15.551 35.958-7.597 19.388-29.75 37.241-46.547 48.405-6.252 4.156-13.606 7.267-20.358 10.91l98.478-.04c2.034-7.133.618-168.388.615-190.218-.009-60.554 3.719-105.422-31.532-160.583-23.206-36.312-65.633-71.105-108.459-83.319-26.674-7.607-55.905-10.128-86.053-7.563-22.347 1.902-59.018 11.147-75.34 21.103zM619.697 323.36c-4.752 25.955 20.467 76.561 31.847 92.704 12.892 18.287 28.794 34.817 47.542 47.291 4.294 2.857 15.405 10.399 20.437 11.806l-.065-138.398c-7.529.308-21.907-4.032-27.11-7.903-20.786-15.465-17.953-54.002 26.412-54.702 2.172-5.356.805-28.338.856-35.836-15.839 3.487-41.346 16.5-55.338 26.728-1.252.915-2.163 1.537-3.545 2.679l-2.215 1.935c-13.535 11.159-24.029 23.038-32.215 38.835-1.592 3.07-5.112 13.319-6.606 14.861zm-.935-3.206c-.497-10.122 17.411-35.344 25.842-43.854 1.996-2.014 3.696-3.575 5.918-5.419 39.362-32.678 44.674-23.532 68.894-38.255l.531-153.151c-3.332.396-1.907-.004-7.162 3.158-14.16 8.518-33.099 23.29-42.761 34.522-6.727 7.82-12.817 14.989-19.693 24.634-18.56 26.036-31.224 63.366-35.403 96.556-3.817 30.318-.009 54.717 1.647 83.853 1.53-2.31 1.332-1.282 2.187-2.044z"/><path d="M425.103 308.176c-48.608 10.273-35.789 83.578 14.971 74.399 18.636-3.369 34.454-21.397 30.55-44.012-3.174-18.388-22.982-35.15-45.521-30.387z" fill="red"/><path d="M121.122 107.32c2.292 4.101 7.613 7.458 11.454 10.423l73.447 59.56c4.077 3.454 8.409 7.215 12.419 10.268 31.154 23.717 58.085 44.245 77.371 77.242 3.25 5.562 4.273 9.487 7.177 15.256 16.789-2.175 23.912-4.972 38.459 4.089 28.805 17.944 31.097 58.381 5.323 86.351l-5.961 7.053c4.69-2.005 8.053-4.991 11.308-7.889 3.384-3.016 6.588-7.854 9.412-9.921.727 29.758-2.589 185.212 3.03 200.113 1.626-29.621.524-61.973.561-91.876.014-10.766-1.365-109.75.638-114.568 6.366-15.315 13.544-19.514 18.333-51.784 11.266-75.928-36.372-141.044-102.494-173.128-59.156-28.703-91.116-24.037-160.477-21.189zm2.703 316.336l-.161 102.842c12.176-1.13 82.643-18.774 96.033-23.219 16.229-5.387 29.171-12.523 36.314-23.521 8.559-13.177 5.083-40.909 5.056-60.226l-.104-35.943c-9.805 11.778-14.145 18.025-33.331 24.444-14.612 4.889-31.631 7.77-46.792 11.966-15.946 4.413-28.318 12.195-36.088 21.727-12.013 14.735-4.825 30.021-2.416 48.276l-1.548-1.934c-8.667-13.559-9.908-42.088-8.088-57.18 1.276-10.569 3.7-18.661 7.627-27.632 1.889-4.317 4.163-7.475 6.559-10.935 2.986-4.312 4.408-5.43 8.662-9.891 22.465-23.551 110.71-34.174 81.459-83.534-3.611-6.096-3.083-5.553-12.359-5.568-20.485-.036-12.099-3.617-36.124 16.898-6.324 5.4-13.74 10.189-21.004 15.083-42.05 28.335-43.695 34.022-43.695 98.347zm175.278 7.331l-.531 237.454 65.247.022c3.218-1.068 1.988-11.564 1.966-16.955l-.051-18.558-.11-38.127c.057-13.049-3.42-18.707-5.694-31.295-8.428-46.658-4.865-134.264-3.56-184.196-2.975 6.123-5.087 11.515-8.875 17.7-11.467 18.723-26.703 26.777-48.392 33.955zm601.106 388.7c-12.283-11.714-26.69-19.744-49.373-21.65l.641 62.337c16.413 3.51 70.455 27.881 83.412 24.816 8.016-5.873 3.034-14.949 2.46-24.496-.513-8.518 1.215-23.01-.584-30.362l-8.42-1.037c1.169-4.706 30.47-24.146 32.212-26.243-3.388-4.771-3.637-5.878-3.999-13.348-20.069-5.818-23.568-31.652-36.234-53.334-4.907-.253-7.984-.823-12.161-2.415-3.114-1.187-6.94-3.714-9.373-4.257-4.439-2.68-7.337-4.006-11.45-6.819-7.913-5.413-21.628-19.274-25.503-27.624-1.997-1.442-3.706-3.995-5.214-6.522l-26.79.225c-1.842 2.813-1.52 2.899-1.605 6.845-.31 14.319.384 24.998 8.731 37.226 7.577 11.1 16.325 14.344 29.076 22.506 11.844 7.58 20.668 13.778 28.094 24.469 3.829 5.513 5.871 10.568 7.611 18.148 1.107 4.827 1.719 12.929.695 17.683-1.22 5.664.42 2.494-2.226 3.852zm-601.344 41.906c4.111-11.085.203-133.153 1.294-157.256l70.281-.311-.189 154.547c12.07-7.401 33.915-33.599 42.136-51.265 5.222-11.222 9.306-20.891 12.388-34.009 4.018-17.102 5.537-25.82.428-39.888-8.227-22.655-24.674-39.69-44.006-49.781-9.11-4.755-24.135-9.964-35.905-10.487-7.546-.336-41.579-.877-46.843.672-1.708 47.869-1.962 125.578-.889 176.683.041 1.927-.001 4.409.134 6.268l1.171 4.827zm524.376-551.666l.187 183.149 46.384-.194c-.15-18.839 3.277-33.048-10.845-45.788-2.871-2.589-9.831-5.956-11.089-7.973l45.981-24.592c8.231-2.612 11.395 1.919 16.392 5.126 2.685-1.011 4.016-2.188 6.04-3.535-4.958-2.857-17.129-2.631-13.859-14.691 1.905-7.027 10.845-10.688 18.393-12.632-2.283-2.525-4.994-4.028-8.594-4.323s-7.091.704-9.888 2.378c-7.174 4.296-4.675 10.213-16.553 6.608-15.415-4.677-11.386-21.626-11.414-38.881-.03-18.412-.97-28.921-11.496-39.236-15.053-14.752-19.366-6.428-39.639-5.416zm-557.913 691.841l101.236-.044-.279-133.76c-4.518 1.717-27.825 20.529-33.3 24.889-39.713 31.622-66.306 51.363-67.657 108.915zm454.288-763.446c-.051 7.498 1.337 30.775-.835 36.13-44.365.701-47.198 39.237-26.412 54.703 5.203 3.871 19.581 8.211 27.11 7.902 1.499 1.231 2.258.019 2.214 8.238l-.121 8.253v121.653c2.542-6.12-.016-23.539.113-32.987l-.18-100.074c.869-5.325-.668-2.199 2.121-4.683 11.136 3.432 18.66 5.84 28.379 11.274l-.15-7.743c-.258-2.989.029-6.072.685-8.922 4.373-18.981 18.643-22.721 35.626-23.517-7.402-13.606-43.046-30.616-64.466-33.457l.156-38.342-4.24 1.572z" fill="#fff"/><path d="M719.437 232.921c-24.22 14.723-29.532 5.577-68.894 38.254-2.221 1.844-3.922 3.405-5.917 5.419-8.432 8.511-26.34 33.732-25.843 43.854-.401 1.668-.803 2.399.935 3.206 1.495-1.542 5.014-11.791 6.606-14.861 8.186-15.797 18.68-27.675 32.215-38.835l2.215-1.934c1.382-1.142 2.293-1.765 3.545-2.68 13.992-10.228 42.076-24.368 57.915-27.855 10.748-6.229 68.05-20.397 96.96-43.162l-.027-46.024c-10.093 23.06-16.99 35.771-37.398 51.988-12.525 9.953-46.468 28.092-62.312 32.63z" fill="red"/><path d="M719.437 232.921l4.256-1.601-.06-154.53c.001-.557 1.458.679-3.082-.577 2.526 7.5.116 2.154-.583 3.556l-.531 153.152zM88.068 452.864l-.6 2.455-.067 79.282 31.678-6.82.988-202.963c-10.139 3.503-21.652 18.788-24.858 32.291-2.587 10.9-2.974 33.182-24.524 34.426-7.751-12.208-9.204-15.473-28.45-17.195 8.064 12.698 23.412 13.092 7.422 35.831 5.709 3.748 43.012 36.786 45.316 40.291l-6.905 2.402z" fill="#fff"/><path d="M823.206 191.258c3.502.124 11.091-6.537 13.856-8.835l13.516-11.259c4.702-5.118 8.463-8.226 11.987-12.745 12.235-15.686 19.838-24.546 28.25-44.953 3.669-8.9 11.258-28.826 10.257-39.32-16.019-7.383-57.937-17.484-77.426-14.533-2.126 7.104-.118 114.104-.44 131.645z" fill="red"/><path d="M823.013 216.698l.333 14.416c6.459 3.343 12.484 3.648 20.07 5.726 26.619 7.292 52.634 23.118 55.322 23.795l-.071-137.01-13.952 28.084c-9.063 17.805-23.53 33.298-37.942 46.593-6.83 6.3-16.594 11.998-23.76 18.396zm-19.922 785.179l115.193-.153c-.013-10.852-8.873-24.64-13.556-30.255-4.795-5.751-16.541-13.012-27.09-16.234-29.836-9.113-53.083 1.913-74.961 6.277l.414 40.365zm-48.026-723.91c.215.218.509.473.684.616l.685.591 2.745 1.813c9.287 5.251 16.407 9.577 24.715 16.441 6.358 5.253 20.161 17.393 23.797 23.601 6.523 11.142 7.417 24.563.374 36.531-6.079 10.327-16.274 15.016-31.118 15.061 6.392 16.995 12.822 23.595 15.047 45.814 1.957 19.544-1.902 35.262-3.484 54.083l30.67 16.961-.333-177.944c-1.441-1.27-.25-.507-2.292-1.448-3.414-1.574-7.732-.802-16.043-5.606-19.407-11.218-15.689-19.468-25.255-22.071-5.995-1.631-13.867-3.729-20.192-4.443zm165.871 2.197c7.155-12.655 11.831-17.979 22.802-25.113 5.979-3.887 25.959-16.11 32.094-17.874-5.744-18.893-15.095-34.327-23.941-48.982-4.539-7.52-25.784-39.005-30.69-40.274l-.265 132.243zm-185.54 721.263c1.488-9.269-.94-35.412 1.899-55.979 6.434-46.626 28.42-85.624 78.29-92.864-4.848-3.252-11.903-5.567-16.159-8.783-22.067-16.674-19.752-30.695-22.491-51.753-4.833 7.957-14.514 42.824-18.109 54.399-5.791 18.639-10.517 37.098-16.223 56.031-9.179 30.452-18.602 64.103-37.536 89.262-2.7 3.588-5.975 6.307-6.904 9.923l37.233-.236zm-508.337-494.87c34.143.992 62.917 28.766 67.302 56.985l.247-159.275-16.732-.476c-1.855 34.515 8.319 73.241-36.741 96.157l-11.684 5.029c-1.599.868-1.451.797-2.392 1.58zm-.58-218.398c-1.018-2.836-22.473-19.616-26.677-23.191l-9.448-8.075c-10.112-8.23-23.163-24.189-31.837-37.251-30.4-45.78-34.301-90.456-39.047-98.348-3.968 8.33-1.653 82.527-1.794 102.368-.105 14.573-2.575 6.897 20.129 14.65 16.257 5.551 32.306 16.917 43.423 25.639l19.887 15.178c10.94 8.377 7.955 8.86 25.364 9.03zm709.684 87.188l-13.696-56.575c-8.558-32.236-5.599-97.98-5.617-134.309l-.062-35.096c-.066-7.853-1.18-8.302-4.895-12.939-1.758-2.196-5.523-8.261-8.581-9.357-1.385 8.428-.393 128.419-.344 139.872.143 32.741 7.689 59.254 15.453 89.669 1.157 4.532 2.152 9.468 3.568 14.084 2.16 7.037 6.221 3.873 14.174 4.651zm-769.271 630.927c-2.053 2.337.132.631-3.017 1.568-6.993 2.079-99.539-2.054-110.246 1.082l75.117-.783c7.162.55 18.647.739 25.779.557l74.232-.803c6.595.01 16.828 1.822 21.58-1.865.184-.143.486-.445.635-.57s.407-.426.64-.605l-.341-91.733c25.471-3.239 35.439-30.815 19.087-48.558-7.075-7.676-12.682-5.666-18.745-9.948l-.996-45.063c-3.459 4.924-2.516 37.79-2.358 46.06-29.117 3.364-39.662 48.261-.633 57.493l.383 92.694-81.117.474zm337.285-128.517c1.581-1.302 1.703.496 1.09-1.495H389.078c-.51-8.323-.854-.989 1.312-3.542 8.851-1.017 22.183-13.188 27.135-18.006 27.703-26.952 30.425-67.779 15.988-102.937-4.817 12.488-1.041 53.273-45.777 97.887-21.546 21.486-17.116 10.691-17.494 30.827 40.184-4.743 114.07.622 133.935-2.734z" fill="#fff"/><path d="M755.01 694.218c11.696 9.507 1.606-2.797 21.21 18.121 2.993-1.362 5.502-3.849 8.597-5.834 29.568-18.955 67.042-32.45 88.396-47.699 3.211-2.293 5.705-4.332 8.771-6.685 9.487-7.28 31.049-30.388 34.549-41.891-3.067 1.355-5.55 4.508-7.929 6.564l-26.646 19.816c-12.701 7.915-26.253 14.547-41.283 20.611l-43.774 17.05c-14.198 5.608-30.434 11.777-41.891 19.947z" fill="red"/><path d="M974.371 412.749c3.735-21.316 16.49-59.825 7.991-77.656l-62.85 116.418c-9.598 10.493-14.477 25.162-13.01 45.448l19.4.157c27.066-10.916 49.664-30.057 66.927-59.02 4.776-2.924 13.437-28.043 15.55-35.958 7.876-29.509 6.208-64.809-.65-94.454l-9.044-31.211c-.575-1.593-1.139-3.229-1.699-4.496l-2.391-4.15c.519 6.484 2.579 12.854 3.346 19.78 3.729 33.656 1.331 63.812-10.854 95.369-1.465 3.794-12.967 26.794-12.716 29.773zM78.017 235.685c5.923-.558 12.264-1.803 16.909-2.308 6.042-.657 12.129.117 18.139-.419l.391-98.702c-16.013 21.573-32.426 73.905-35.439 101.429zm868.022 73.164c-2.288 6.855-.412 23.279-1.064 32.381-.748 10.432-5.343 19.815-4.856 28.137 1.935 12.261 2.296 9.649-4.371 18.961-3.801 5.308-9.43 9.537-15.377 12.243.008 2.74-.298 7.292-.052 9.789.872 8.822 7.182 1.858 4.78 18.28 2.665-1.791 25.759-49.186 28.923-56.06 8.735-18.983 16.251-46.939 5.575-68.111-3.687 2.742-7.554 4.479-13.558 4.38zM370.094 668.626c46.197 3.694 43.624 11.968 57.665 16.225-.475-6.043-.573-2.622-7.826-10.066-2.974-3.052-5.515-5.939-8.307-9.223-25.616-30.135-25.56-29.76-40.382-64.593-.849-1.996-.377-.96-.863-1.846l-.287 69.503zm-92.082-306.301c6.307-3.247 13.826-10.553 15.206-19.491 1.76-11.401-2.129-21.709 3.016-32.138 3.39-6.868 9.77-13.453 18.175-15.738 12.738-3.462 19.055 1.974 28.204 5.513.846-3.092 2.094-4.839 3.413-6.817-19.058-21.221-66.93-10.718-68.028 27.901-.374 13.158-.304 27.597.014 40.77zm20.978-32.689c-1.829 11.026 1.2 15.344-5.081 25.149-2.454 3.831-11.922 11.953-15.758 13.857l.132 21.896c10.18-25.348 30.817-12.525 42.013-27.938 14.347-19.753-5.986-43.866-21.306-32.964z" fill="#fff"/><path d="M171.746 97.971c73.998-2.991 118.1 1.169 177.054 47.919 17.651 13.996 39.716 44.424 48.327 65.068 9.495 22.765 14.487 47.069 13.15 72.51-.43 8.177-4.668 29.602-5.716 37.214.412-.814 4.72 1.072 4.783-.025.854-14.978 6.217-44.003 3.817-62.829-1.428-16.423-6.144-33.214-11.803-46.952-11.795-28.635-28.411-47.195-49.435-67.088-31.034-29.365-81.835-47.809-125.141-50.092-13.108-.691-45.28-1.015-55.036 4.275z" fill="red"/><path d="M26.628 356.641l3.196 3.918c25.042.145 63.501-45.388 54.709-85.603-3.226 5.093-2.023 18.881-23.486 45.94-7.875 9.928-15.703 19.142-24.895 27.687-2.621 2.438-7.295 5.502-9.524 8.058zm750.656 427.96c.36-3.968.323-7.524.203-11.497-.15-4.986-.186-6.375-2.765-8.772-4.161-3.868-9.142-6.395-11.897-11.775-6.301-12.308 1.752-20.154-6.125-22.101-17.327-4.284-29.355 27.063-7.796 36.017 6.342 2.634 11.243 1.86 17.397 5.289 7.233 4.029 6.189 6.603 10.983 12.839zm18.525 217.066c4.407.006 2.563-10.838 2.589-15.082l.259-47.375c-5.366 6.636-29.01 52.048-27.46 62.454l24.612.003zm-606.39-712.792l15.08-.02c-1.105-2.184-4.21-4.132-6.364-5.739-16.079-11.992-33.866-27.461-56.751-29.596l-2.504 1.052c3.364 8.83 13.281 17.167 20.632 21.824 4.221 2.675 9.261 5 14.321 7.276 4.683 2.105 11.918 2.871 15.586 5.203zM921.01 659.756c2.591 2.877 9.718 3.15 13.536 4.6 4.625 1.755 7.849 3.835 11.731 5.601-1.033-16.913-14.575-49.735-24.271-60.335-2.017 7.118-1.023 40.452-.996 50.134z" fill="#fff"/><path d="M701.988 817.419c.127-.22.261-.832.299-.7l4.999-29.028c2.3-11.291 5.508-18.206 8.415-27.927-1.795-3.098-3.874-5.768-5.471-9.269-1.326-2.908-2.227-7.39-3.811-10.062-5.69 10.348-10.188 22.468-11.562 35.876-1.204 11.751 1.358 32.388 7.131 41.11z" fill="red"/><path d="M428.469 728.406l-.286-36.421c-8.703-9.942-38.012-18.559-57.28-18.593 4.077 2.9 13.421 6.187 18.522 9.23 11.176 6.664 21.626 17.085 28.945 27.74 4.25 6.188 6.216 11.423 10.099 18.044zm381.31-431.181c8.198 3.407 12.136 7.874 24.805 6.36 25.804-3.085 17.521-33.6-6.203-21.606-6.087 3.078-15.529 10.006-18.602 15.246zm54.611 146.604l3.044 4.007c13.136 14.899 30.428 15.098 36.137 7.215 5.198-7.177-5.463-14.691-12.857-15.178-7.839-.517-18.594 2.475-26.324 3.956zm-1.954 244.645c15.019-.148 22.395 1.641 37.498-1.8 11.724-2.671 19.607-6.506 30.067-9.91-8.068-6.148-25.976-4.693-36.133-1.434-10.981 3.522-21.828 8.565-33.008 11.654.596 1.602-.027.779 1.576 1.49zM754.728 249.101c13.506.089 28.913-2.822 44.215-2.535 16.459.309 27.504 3.534 42.372 5.772-9.831-6.692-27.257-13.697-41.859-15.767-14.931-2.116-33.31 7.424-44.728 12.53zm-639.14 69.131c12.186-1.142 32.219-8.224 38.796-15.203l-32.335-5.75c-2.427 8.602-3.788 13.268-6.461 20.953zm.632-33.595c15.432 2.031 27.427 7.359 44.736 6.27-2.771-2.23-6.407-3.246-10.014-4.907-9.929-4.573-21.071-11.431-31.329-13.796l-3.393 12.433zm384.209 494.436c-2.88-19.739-24.222-53.277-36.621-65.694-5.631-5.639-26.412-28.08-32.667-28.375.236 5.368 5.779 8.006 9.219 10.598 3.826 2.885 7.933 6.527 11.123 9.493 3.983 3.702 6.16 6.879 9.725 10.909 15.294 17.292 31.125 39.397 39.221 63.069zm441.246-11.405c.855-14.06-.934-25.468-10.752-34.758l-9.731-7.417c1.638 5.405 17.69 40.205 20.483 42.175zm-2.369-464.639c4.412 1.139 9.436.729 13.333-.134 1.799-4.19 3.292-10.956 4.284-16.853-3.954 1.534-13.986 11.184-16.613 15.035-1.158 1.697-.302.112-1.004 1.952zm-140.405-72.485l19.944 1.054-.116-12.668c-3.368 1.266-18.42 10.072-19.828 11.614zm-98.378 605.257c2.045-22.377-8.767-14.37-10.442-47.153-.932-18.233 3.433-33.245 10.488-47.827 1.512-3.125 4.099-6.875 5.158-9.347 3.156-7.361 4.999-33.547 36.539-37.781 10.94-1.469 6.389-2.821 19.974-9.771 25.53-13.063 56.126-22.496 83.293-34.22 14.188-6.123 26.589-13.12 38.341-20.434 8.792-5.472 29.397-21.142 32.556-27.574-15.407 2.277-38.025 8.512-53.291 12.951l-52.385 14.654c-58.856 17.639-135.967 46.201-150.418 116.793-5.751 28.088 1.548 56.973 20.422 76.14 2.335 2.371 15.026 12.953 19.765 13.569z" fill="#fff"/></svg>