<svg xmlns="http://www.w3.org/2000/svg" width="24" height="24" xmlns:v="https://vecta.io/nano"><path d="M0 0h24v24H0z" fill="#8a8987"/><path d="M1 1h22v22H1z" opacity=".98" fill="#1f1f1f"/><g opacity=".702" fill="#353535"><path d="M19.94 20.11H4.05h0v1.36h0 15.89 0v-1.36h0zm.77-4.16H3.29v3.56h17.42v-3.56z"/><path d="M14.12 5.8H9.87v10.28h4.25V5.8z"/><path d="M12 1.76L7.39 4.84l1.76 4.99h5.7l1.77-4.99C16.61 4.85 12 1.76 12 1.76zm0 14.36l1.99 1.74 2.08-1.82-1.99-1.74L12 16.12zM9.92 14.3l-1.99 1.74 2.08 1.82L12 16.12 9.92 14.3h0z"/></g><linearGradient id="A" gradientUnits="userSpaceOnUse" x1="11.79" y1="12.181" x2="14.895" y2="12.458"><stop offset="0" stop-color="#646361"/><stop offset="1" stop-color="#8a8d89"/></linearGradient><path d="M10.74 18.41l.73.44.44-.12.43-.42.32-1.66-.3-.99.19-1.13V13.3l-.32-1.16.26-.52-.11-.57.08-.42.21-.34.2-.9.49-.97.12-.82-.18-1.33-.3-.58-.41-.14-.58.15-.51.65-.22.67-.37 2.28-.28.58.12.65.3.62-.46 1.21-.01.7.21 1.06-.19 1.16.15.67-.12.99-.13.54z" fill="url(#A)"/></svg>