<svg xmlns="http://www.w3.org/2000/svg" preserveAspectRatio="xMidYMid meet" version="1.0" viewBox="0 0 540 540"><g fill="#36b300" stroke="none"><path d="M108 141C92 150 90 167 90 270c0 97 3 121 15 128 13 7 12 10-7 19-13 6-31 14-41 17-14 4-17 16-15 58l2 53 3-53C50 449 54 440 70 440c16 0 20 9 23 52l3 53 2-61c2-46 6-63 18-68 27-10 304-7 325 4 15 9 19 23 21 68 2 57 2 57 5 10 4-43 7-48 28-48 21 0 24 5 28 47l4 48-1-50c-1-45-4-50-26-55-14-3-36-13-49-22-23-16-24-18-8-36 14-15 17-39 17-125 0-95-2-107-19-117-27-14-144-13-159 2-9 9-15 9-24 0-15-15-126-15-150-1zm148 16c13 17 15 17 28 0 14-18 74-23 135-11l31 6v103c0 140 6 136-191 133l-154-3-3-117c-3-132-8-125 87-127 40-1 57 3 67 16"/><path d="M134 214c-3 8-4 27-2 43 3 27 5 28 58 28h55v-80l-53-3c-39-2-54 1-58 12zM240 245V280H140v-70h100v35"/><path d="M160 250c0 16 7 20 30 20s30-4 30-20-7-20-30-20-30 4-30 20zm144-36c-3 8-4 27-2 43 3 27 5 28 58 28h55v-80l-53-3c-39-2-54 1-58 12zM410 245V280H310v-70h100v35"/><path d="M330 250c0 16 7 20 30 20s30-4 30-20-7-20-30-20-30 4-30 20zm-136 95c-11 29 11 36 97 33 76-3 84-5 84-23 0-18-8-20-88-23-73-2-88 0-93 13zm176 10c0 12-16 15-85 15s-85-3-85-15 16-15 85-15 85 3 85 15"/><path d="M248 357c23 2 59 2 80 0 20-2 1-4-43-4-44 0-61 2-37 4"/></g></svg>
