<svg xmlns="http://www.w3.org/2000/svg" width="400" height="560" xmlns:v="https://vecta.io/nano"><path d="M0 0h400v560H0z"/><path d="M20 523.73V36.27A10.17 10.17 0 0 1 30.17 26.1h339.66A10.17 10.17 0 0 1 380 36.27v487.45a10.17 10.17 0 0 1-10.17 10.17H30.17A10.16 10.16 0 0 1 20 523.73z" fill="#fc1a05"/><path d="M42 347.35h316v172H42z" fill-opacity="0"/><path d="M42 44.64h316v473.43H42z" fill="none" stroke="#000" stroke-width="5" stroke-miterlimit="10"/><radialGradient id="A" cx="177.937" cy="214.383" r="153.273" gradientTransform="matrix(1.1328 0 0 0.8192 -5.4203 44.2793)" gradientUnits="userSpaceOnUse"><stop offset="0" stop-color="#065e2e"/><stop offset=".177" stop-color="#06582b"/><stop offset=".407" stop-color="#054823"/><stop offset=".667" stop-color="#032d16"/><stop offset=".946" stop-color="#010804"/><stop offset="1"/></radialGradient><path d="M40.82,77.21H358V332.7H40.82V77.21z" fill="url(#A)"/><path d="M25 354.52h0c0-13.25 10.75-24 24-24h302c13.25 0 24 10.75 24 24h0c0 13.25-10.75 24-24 24H49c-13.25 0-24-10.74-24-24z"/><path d="M31.18 355.52v-2a18.5 18.5 0 0 1 18.5-18.5h300.65a18.5 18.5 0 0 1 18.5 18.5v2a18.5 18.5 0 0 1-18.5 18.5H49.68a18.5 18.5 0 0 1-18.5-18.5z" fill="#fc1a05"/><path d="M35.81 354.52h0a16 16 0 0 1 16-16h296.38a16 16 0 0 1 16 16h0a16 16 0 0 1-16 16H51.81a16 16 0 0 1-16-16z" fill="#f3f2e9"/><path d="M25 57.71h0c0-13.25 10.75-24 24-24h302c13.25 0 24 10.75 24 24h0c0 13.25-10.75 24-24 24H49c-13.25 0-24-10.75-24-24z"/><path d="M31.18 58.71v-2a18.5 18.5 0 0 1 18.5-18.5h300.65a18.5 18.5 0 0 1 18.5 18.5v2a18.5 18.5 0 0 1-18.5 18.5H49.68c-10.22 0-18.5-8.29-18.5-18.5z" fill="#fc1a05"/><path d="M35.81 57.71h0a16 16 0 0 1 16-16h296.38a16 16 0 0 1 16 16h0a16 16 0 0 1-16 16H51.81c-8.84 0-16-7.17-16-16z" fill="#f3f2e9"/><text transform="matrix(1.0294 0 0 1 107.388 69.8682)" font-family="AcademyEngravedLetPlain" font-size="35.163">THUG LIFE</text><text transform="matrix(.8327 0 0 1 80.271 360.7405)" font-family="ArialMT" font-size="19.648">= 81   Atk = 91  Spd = 90  Ele = hood</text><g fill="#e30206"><path d="M68.55 364.97l.18-15.82s-4.34-5.6-7.76-1.79c-4.39 4.88 7.58 17.61 7.58 17.61z"/><path d="M68.45 364.7l-.47-15.56h1.27v14.65z"/><path d="M68.55 364.97l.1-15.82s4.34-5.6 7.76-1.79c4.4 4.88-7.86 17.61-7.86 17.61z"/></g><path d="M71.41 518.07l20-46.24h216l20 46.24z"/><path d="M87.91 525.51l10.67-45.06h201.66l11.67 46z" fill="#fc1a05"/><text transform="matrix(1.0294 0 0 1 99.6579 514.8252)" font-family="Impact" font-size="26.924">THE UNPRUNABLES</text><path d="M108.5,299.59h177.72v30.55H108.5V299.59z" fill="#0c5e30"/><path d="M130.86,207.82h133.29v61.34H130.86V207.82z" fill="#065e2e"/><path d="M171.22,263.89h52.15v66.25h-52.15V263.89z" fill="#0c5e30"/><path d="M143.45,145h107.69v63.19H143.45V145z" fill="#005e2b"/><path d="M143.18,234.44h108.36v20.86H143.18V234.44z" fill="#c51d0b"/><path d="M148.87,238.73h96.85V251h-96.85V238.73z" fill="#ab9621"/><path d="M234.88 321.55h10.16v8.59h-10.16v-8.59zm-85.33 0h10.16v8.59h-10.16v-8.59z" fill="#063a1c"/><path d="M197.36,81.2l-12.87,71.16h25.74L197.36,81.2z"/><g fill="#093414"><path d="M213.75 316.4h-28.99 0v2.45h0 28.99 0v-2.45h0zm1.36-7.61h-31.83v6.5h31.83v-6.5z"/><path d="M203.19 290.14h-7.72v18.89h7.72c0 .01 0-18.89 0-18.89z"/><path d="M199.26 282.78l-8.4 5.64 3.25 9.2h10.43l3.25-9.2c-.13 0-8.53-5.64-8.53-5.64zm0 26.38l3.66 3.19 3.79-3.31-3.66-3.19-3.79 3.31zm-3.79-3.44l-3.66 3.19 3.79 3.31 3.66-3.19-3.79-3.31h0z"/></g><path d="M143.45,182.05h107.69v25.76H143.45V182.05z"/><path d="M197.36 195.42l-7.18 12.88h14.22l-7.04-12.88zm53.78 0l-10.6 12.61 10.6.14v-12.75zm-107.69.25v12.67l10.57-.28-10.57-12.39z" fill="#065e2e"/><g fill="#0a3416"><path d="M239.49 209.04l.41-.12.54 1.47-.41.12-.54-1.47z"/><path d="M239.49 209.29v-.25l2.17-.61.14.25-2.31.61zm.54 1.47l-.14-.37 2.3-.61.14.37-2.3.61zm.54 1.35l-.14-.25 2.3-.61v.25l-2.16.61z"/><path d="M241.79 210.15l.41-.12.54 1.47-.41.12-.54-1.47z"/></g><g fill="#0a3415"><path d="M242.47 216.65l-.14-.37 2.03-.49.14.25-2.03.61zm.95 2.82l-.14-.37 2.17-.49.14.25-2.17.61z"/><path d="M242.2 216.4l.41-.12 1.08 3.07-.41.12-1.08-3.07zm-1.22-3.43v-.37l1.49-.37.14.37-1.63.37zm.54 1.47l-.14-.37 1.63-.37.14.25-1.63.49z"/><path d="M240.98 212.6h.27l.54 1.47-.27.12-.54-1.59z"/><path d="M241.52 214.2l.27-.12.54 1.59-.27.12-.54-1.59zm.68-1.84l.41-.12.68 1.72-.41.12-.68-1.72zm0 1.71l.27-.25 1.76 1.23-.27.25-1.76-1.23z"/></g><path d="M286.22 305.8l-2.44.04-4.88.61-4.06 2.21-2.57 3.44-.27 4.17 1.22 4.17-2.3 2.09 3.52 5.15h2.57l.41 1.84 1.17.61h7.63V305.8z" fill="#093414"/><path d="M274.57 319.95l-.41 2.58 1.08 2.09 3.79-.49 1.9-2.09v-1.1l-2.98-1.59-3.38.6zm11.65-.7l-2.3 1.68v1.23l2.3 1.47m-3.93.62l-1.9 3.19.68.86.95-.74 1.08.61.95-.49-1.76-3.43zm-7.72 5.89h16.93v.89h-16.93v-.89z"/><path d="M108.5 324.62l.81.61-.54 2.58 1.49.49.81-2.7 3.39-.12 2.44-1.96.14-3.44-.68-2.7-1.49-.86 1.49-1.1.81-2.21.27-2.33-1.49-1.96-1.76-1.47.41-2.33-1.49-.86-.81 2.94-1.22-.49.41-3.07-1.35-.49-.68 2.7-.95-.12-.01 18.89z" fill="#0a3415"/><path d="M110.4 313.21l.54-3.93 2.57.86 1.35 1.84-.81 2.21-1.76.25-1.89-1.23zm.27 3.19l-.68 4.66 2.98.86 1.63-1.23-.27-2.21-1.49-1.72-2.17-.36z" fill="#0e5e31"/><text><tspan font-family="Arial-BoldMT" font-size="30.38" x="89.761" y="414.261">“Only God can</tspan><tspan x="121.831" y="450.721" font-family="Arial-BoldMT" font-size="30.38">judge me”</tspan></text></svg>