<svg xmlns="http://www.w3.org/2000/svg" viewBox="0 0 176.2 198.1"><defs><style>.a{fill:#ffd611;}</style></defs><polygon class="a" points="82.4 117.4 51.3 103.5 22.3 121.3 25.8 87.4 0 65.3 33.3 58.2 46.4 26.8 63.3 56.3 97.3 59 74.5 84.3 82.4 117.4"/><polygon class="a" points="139.5 36.4 132.5 25.4 119.5 24.9 127.9 14.9 124.3 2.4 136.4 7.2 147.2 0 146.4 13 156.6 21 144 24.2 139.5 36.4"/><polygon class="a" points="155.5 100 151.8 87.5 139.5 83.5 150.2 76.1 150.2 63.1 160.5 71 172.9 67 168.5 79.3 176.2 89.8 163.2 89.4 155.5 100"/><polygon class="a" points="125.7 155.9 129.2 143.4 120.9 133.4 133.9 132.9 140.9 121.9 145.4 134.1 158 137.3 147.8 145.4 148.6 158.4 137.8 151.1 125.7 155.9"/><polygon class="a" points="61.5 179.9 72.9 173.8 74.4 160.8 83.8 169.8 96.5 167.2 90.8 178.9 97.3 190.2 84.4 188.5 75.6 198.1 73.3 185.3 61.5 179.9"/></svg>