<svg xmlns="http://www.w3.org/2000/svg" viewBox="0 0 102400 102400"><path d="M10587 41740H92050v53982H10587zm81463 0C90275 23690 72636 9514 51318 9514S12360 23690 10588 41740H92050" fill="#d64a29"/><path d="M16884 53925a34434 34434 0 10 68868 0 34434 34434 0 10-68868 0" fill="#fae2dd"/><path d="M24490 19085h53653V46280H24490" fill="#d64a29"/><path d="M70375 17720 62790 4865 52595 19890l14926 2617 8220 13088L85753 20840" fill="#d0a523"/><path d="M71723 55756a11165 11165 0 10 22330 0 11165 11165 0 10-22330 0zm-63380 0a11165 11165 0 10 22330 0 11165 11165 0 10-22330 0" fill="#fae2dd"/></svg>
