<svg xmlns="http://www.w3.org/2000/svg" viewBox="0 0 2400 2400"><g data-name="Layer 3"><path d="M0 0h2400v2400H0" fill="#00ff12"/><path d="M127 130h2161v2161H127" fill="#2b302b"/></g><g data-name="Layer 2"><path d="m788 1391 266 200 200-25 217-192 112 48-67 169-105 119-354 59-300-146-87-93 30-121Z" fill="#ff4800"/><path d="m755 1522 293 142 360-67 93-125" fill="none" stroke="#d83b05" stroke-miterlimit="10" stroke-width="50"/><path d="m670 983 20 66-29 31 168 129 193-59-18 90 74-257v-59L1019 900l42 39-6 45-279 16Zm481-98-43 25 14 84 28 25 34 200 11-63 92 40 161-24 211-149-87 100 106-78 47 60L1700 978l-8 38-29-100-25 29-156 45-139 10 213-55-263 48-24-12 263-62 53-75-185 87-237 28-31-9-10-30Zm-10-11 153-108 257-67 88 42-7 93 28-124 65 33-100-173-145-179-261-53 240 85 133 183-327 118-124 150" fill="#00ff12"/><path d="m1269 402 196 89 63 89-130-89-129-89zm-16 32-181-117-143 136 163 120-14 104 53-47V473l122-39zm-315-50L680 573l81-100 100-75ZM661 566l9 68 264 129 114 103-372-168-43 49 22 127 285 100-316-93-29-170 44-54-15-43 37-48zm-71 89-47 86 23 111V747l24-92zm275 324-251-81-30 127 21 60 85 70-71-108 21 1-24-44 13-40 53-20 183 35zM637 1140l103 89 157 22-76 50-128-55-81-114 25 8zm383 143v131l92 63 87-79-6-110 28 16-7-90 39 244-116 103-164-98 25-188 5 62 17-54zm306-43 65 61 187-71 98-121-35-5-101 85-214 51zm421-467 67 123-69 253 41-253-39-123zm-26 0-6 92-135 55 107-79 34-68" fill="#00ff12"/><path d="m605 1165 75 222 152-66 94 762-26-52-73-509-240-190v-220Zm314 98-17 24 40 493-6-487-17-30zm391 67-25 593 59 160 52-738-45 60-41-75zm400-110-10 97-217 154-20 102-10-115 232-163 25-75" fill="#00ff12"/><path d="M1134 838a23 23 0 00-21-18 22 22 0 00 12-20 23 23 0 00-25-17v-15h-10v13h-14v-13h-9v14h-20v10h13l10 64h-13v10h19v19h13v-19H1100v19h14v-20l12-5a28 28 0 00 8-22Zm-23-8a11 11 0 01 0 11c0 5-7 7-12 8a33 33 0 01-18 0V830h9c17-3 19-1 21 0Zm-26-36c14 0 21 0 22 10a10 10 0 01 0 10 32 32 0 01-15 0h-10v-25Z" fill="#fa0"/></g></svg>
