<svg xmlns="http://www.w3.org/2000/svg" width="1080" height="1080" shape-rendering="geometricPrecision" image-rendering="optimizeQuality" fill-rule="evenodd" xmlns:v="https://vecta.io/nano"><path d="M419.146 1038.074l149.042-.413-46.265-93.269c-3.476-6.492-2.648-8.426 1.221-14.377 12.16-18.7 51.986-75.204 71.926-89.823 1.072 1.393-.157-1.046 1.653 2.672.589 1.208.702 1.533 1.208 2.913 15.586 42.548 22.427 50.116 40.271 90.367 21.687 48.921 21.254 51.963 36.77 101.426l178.71.357c-13.241-44.622-29.805-87.592-47.344-128.59l-51.906-124.029c22.204-1.64 30.804 6.479 80.344-.971 125.23-18.832 184.872-157.054 122.46-264.576-18.268-31.471-54.302-64.632-98.195-76.493 2.852-34.654 11.347-38.905 8.33-93.556-4.606-83.439-48.084-163.479-102.807-213.271-85.69-77.971-198.901-110.492-318.841-86.6-104.661 20.849-196.764 82.977-247.645 173.751-27.169 48.47-40.318 109.235-33.859 174.396 6.405 64.619 32.426 110.053 62.164 149.291-4.463 14.059-21.01 35.596-24.454 48 5.917 3.982 9.178 3.14 15.229 5.893l43.324 22.15c-4.711 10.979-8.752 13.641-15.792 19.884 1.047 2.572 11.386 15.579 12.972 17.467 7.146 8.506 6.341 7.55 17.044 13.603-12.186 31.698 9.548 21.081 19.492 35.208 3.98 5.653 5.687 7.267 3.294 14.793-8.49 26.699 6.308 46.959 29.696 49.33 20.633 2.093 71.298-23.232 92.965-33.245l28.296-14.198c6.856 9.566 16.138 18.573 25.364 31.728 4.393 6.265 9.031 11.258 10.249 18.85 1.396 8.695 2.121 17.557 3.282 26.377 2.837 21.538 15.343 87.039 6.393 104.301l-74.591 130.654z"/><path d="M114.616 1037.186l317.726 1.269c10.684-38.852 37.392-85.715 62.019-131.539 8.95-17.263-4.18-82.259-7.017-103.797-1.161-8.82-1.886-17.682-3.282-26.377-1.218-7.592-5.856-12.585-10.249-18.85-9.226-13.155-18.508-22.162-25.364-31.728l-28.296 14.198c-21.667 10.013-72.332 35.338-92.965 33.245-23.388-2.371-38.186-22.631-29.696-49.33 2.393-7.526.686-9.14-3.294-14.793-9.944-14.127-31.678-3.51-19.492-35.208-10.703-6.053-9.898-5.097-17.044-13.603-1.586-1.888-11.925-14.895-12.972-17.467 7.04-6.243 11.081-8.905 15.792-19.884l-43.324-22.15c-6.051-2.753-9.312-1.911-15.229-5.893 3.444-12.404 19.991-33.941 24.454-48-29.738-39.238-55.759-84.672-62.164-149.291-6.459-65.161 6.69-125.926 33.859-174.396C248.959 132.818 341.062 70.69 445.723 49.841c119.94-23.892 233.151 8.629 318.841 86.6 54.723 49.792 98.201 129.832 102.807 213.271 3.017 54.651-5.478 58.902-8.33 93.556 43.893 11.861 79.927 45.022 98.195 76.493 62.412 107.522 2.77 245.744-122.46 264.576-49.54 7.45-58.14-.669-80.344.971l51.906 124.029c17.539 40.998 34.103 83.968 47.344 128.59l186.751.068-.005-1004.868H35.071l-.031 1004.867c15.445 0 68.42 1.968 79.576-.808z" fill="#efeee9"/><path d="M319.129 382.162c48.831-11.898 42.259-20.908 105.526-9.668l27.256 4.623c7.338 1.259 5.267-.236 7.239 3.496-4.739 3.302-45.493 3.412-67.465 8.575-6.283 1.476-15.112 4.48-20.246 5.412l112.999-.859c-1.316 6.678-11.068 11.665-19.424 19.496-7.665 7.184-14.202 11.656-20.774 19.222l-40.836 39.153c-14.279 11.57-29.27 21.898-51.601 28.452-11.277 3.31-57.812 12.429-68.324 8.549.932-4.961-.523-1.878 10.493-7.728 12.624-6.703 20.394-17.534 22.285-33.179-48.684 15.128-68.712 50.608-89.165 87.606-1.038 1.877-21.239 36.658-18.34 38.823 15.91 4.214 36.545-2.514 52.163 8.625 15.294 10.908 2.851 24.022-1.226 30.473-2.193 3.469-4.259 6.268-6.717 8.202 8.852 4.125 18.983 3.375 40.043 13.254 7.875 3.694 31.817 13.241 35.587 19.257l-2.042.735c-11.201 1.826-29.334-9.792-26.372 23.065l13.302.382c.34 8.864-16.448 22.496-14.277 45.14 1.53 15.956 16.369 27.343 34.456 26.548 15.345-.675 92.852-34.759 107.624-44.284 6.263-4.037 13.977-6.106 21.071-9.567 22.731-11.089 96.677-53.309 110.655-74.019-9.47-15.167-16.868-31.702-12.303-54.363 3.65-18.119 15.622-35.577 27.961-41.7-3.793-12.049-1.11-29.924 4.73-40.242 10.199-18.023 22.941-12.369 17.178-31.115-2.685-8.734-17.25-12.943-6.635-38.369 20.248-48.503 82.19-23.805 81.634 2.875-9.413-.389-20.351-4.206-31.911-4.708-16.924-.736-20.429 1.982-34.143 4.808 3.326 2.564 6.625 2.582 11.108 3.345 43.009 7.323 55.029 67.715-5.638 78.585-18.449 3.305-26.394 8.943-33.546 21.922 46.229-19.699 59.855 3.318 68.95 1.794 8.554-1.433 34.549-34.622 40.531-44.973 22.075-38.202 36.209-99.609-14.461-117.274-22.269-7.763-53.945-5.993-71.533 5.94-7.9 5.36-13.83 15.153-26.611 15.874-9.718.549-28.343-2.385-38.112-4.276-23.694-4.585-45.302-12.669-62.917-23.693-44.783-28.026-59.999-60.204-55.202-114.556-4.746 4.746-8.602 10.167-12.978 14.872-6.205 6.671-7.462 9.593-14.157 15.146l-29.135 29.536c-9.563 9.337-52.592 50.435-56.7 60.788z" fill="#fcfcfc"/><path d="M568.188 1037.661l106.784-.091c-15.516-49.463-15.083-52.505-36.77-101.426-17.844-40.251-24.685-47.819-40.271-90.367-.506-1.38-.619-1.705-1.208-2.913-1.81-3.718-.581-1.279-1.653-2.672-19.94 14.619-59.766 71.123-71.926 89.823-3.869 5.951-4.697 7.885-1.221 14.377l46.265 93.269z" fill="#fff"/><path d="M613.044 539.71c-29.448 4.76-54.467 35.329-48 71.088 3.571 19.744 11.121 27.631 22.546 37.297 39.648 33.544 106.357-1.501 96.533-59.273-1.377-8.095-4.08-14.946-8.231-21.031-13.498-19.787-35.672-32.473-62.848-28.081z" fill="#ec3136"/><path d="M487.898 770.666c-.414 22.917 7.875 61.616 10.672 86.11 1.919 16.805 2.202 28.768.685 45.664-.682 7.585 3.972 8.89 7.987 15.319 2.591 4.148 6.034 11.533 9.162 14.897l35.335-50.054 9.517-11.801 9.675-11.636c7.624-9.094 13.455-14.338 21.404-22.553l-38.623-44.008c-4.005-4.392-6.012-5.981-9.556-10.42-3.399-4.259-6.811-6.84-10.214-11.093-3.616-4.52-6.343-6.753-10.178-11.134-3.542-4.045-4.853-7.323-9.765-10.76-8.345 4.32-12.223 14.444-26.101 21.469zM241.796 520.978c16.23-16.407 15.532-28.594 54.868-49.461 5.482-2.907 12.208-6.643 18.947-7.554 11.458-1.549 3.05 2.968 16.822-15.362 4.136-5.504 7.565-9.103 13.613-13.079 30.494-20.048 80.28-24.04 119.206-36.991-14.008-1.831-109.657-2.298-123.876 4.342-31.847 14.871-52.922 28.387-72.644 58.115-9.354 14.099-23.03 41.424-26.936 59.99zm407.047-13.96c22.405-13.572 18.382-57.101-24.079-61.412-2.428-.247-4.807-.124-7.104-.34l-7.156-1.986c8.566-16.61 49.973-15.693 69.585-9.661-8.481-23.957-58.879-33.86-73.05 5.654-2.321 6.471-3.294 18.571 1.78 23.594 4.332 4.289 11.567 1.189 23.832 6.783 13.702 6.248 23.899 19.569 16.192 37.368z" fill="#6c6a6a"/></svg>