<svg xmlns="http://www.w3.org/2000/svg" viewBox="0 0 1 1" xmlns:v="https://vecta.io/nano"><defs><linearGradient id="A" x1=".506" y1="1.044" x2=".502" y2=".037" gradientUnits="userSpaceOnUse"><stop offset="0" stop-color="#5e4394"/><stop offset=".227" stop-color="#945779"/><stop offset=".462" stop-color="#c5695f"/><stop offset=".641" stop-color="#e47550"/><stop offset=".741" stop-color="#ef794a"/></linearGradient></defs><path d="M0-.001h1.007v1.007H0z" fill="url(#A)"/><ellipse cx=".635" cy=".366" rx=".362" ry=".335" fill="#e6ac28"/><g fill="#7bbc90"><path d="M.056.848C.047.846.026.825.029.85a.049.049 0 0 0 .019.027.106.106 0 0 0 .033.015C.1.896.098.878.088.869A.141.141 0 0 0 .056.848z"/><path d="M.085.875C.074.871.009.892.018.912c.005.01.032.005.04.003a.077.077 0 0 0 .037-.02C.1.889.106.882.1.876z"/><path d="M.099.899a.068.068 0 0 0-.008.022C.091.948.127.908.13.898.137.881.127.876.115.872.101.861.101.886.101.892.099.91.125.916.14.919a.084.084 0 0 0 .049 0C.204.911.197.89.185.882A.209.209 0 0 0 .138.868.048.048 0 0 0 .085.879"/><path d="M.162.922A.314.314 0 0 0 .179.98a.397.397 0 0 0 .024.066c.005.008.012.018.022.017a.041.041 0 0 0 .024-.018L.285.991A.096.096 0 0 0 .302.965L.311.93.332.86C.337.843.348.806.316.815.294.82.283.853.276.872L.25.937C.243.956.231.973.223.992l-.006.014C.207 1.001.204.967.2.956S.191.915.181.909.154.913.162.922z"/></g><path d="M.181.79C.171.791.161.8.151.802a.222.222 0 0 1-.058.004.16.16 0 0 1-.031-.003C.052.801.044.792.034.791a.052.052 0 0 0 .002.024.125.125 0 0 0 .01.025.098.098 0 0 0 .038.028.083.083 0 0 0 .081-.032A.07.07 0 0 0 .181.79zM.093.856a.158.158 0 0 1 .003.041.147.147 0 0 1-.003.039C.088.949.068.939.06.95s.025.011.032.011A.169.169 0 0 0 .138.954C.14.94.123.944.115.941S.107.923.107.912.114.859.101.85z" fill="#bfd6c9"/><path d="M.046.824c.011.02.017.02.021.023a.082.082 0 0 0 .022.015.053.053 0 0 0 .052-.014.048.048 0 0 0 .021-.022.358.358 0 0 0-.057-.001L.078.829C.069.829.059.824.046.824z" fill="#e36b57"/><g fill="#f0e522"><path d="M.027.762A.078.078 0 0 0 .046.744C.051.737.055.727.063.724.079.715.094.727.108.733A.083.083 0 0 0 .135.74.148.148 0 0 1 .079.757.493.493 0 0 1 .024.773z"/><path d="M.073.753L.08.798a.105.105 0 0 0 .011.044C.09.827.086.811.085.796.084.787.082.754.073.753z"/></g><path d="M.041.798A.446.446 0 0 1 .149.795.135.135 0 0 1 .177.802.125.125 0 0 1 .122.809.308.308 0 0 1 .069.813.035.035 0 0 1 .041.798z" fill="#bfd6c9"/><g fill="#004d75"><path d="M.341.802C.335.806.332.816.328.822a.223.223 0 0 0-.015.024.397.397 0 0 0-.015.051.347.347 0 0 0-.015.1.5.5 0 0 0-.002.054.4.4 0 0 0 .044.006l.058.002a.964.964 0 0 0 .126-.005c.074-.007.15-.002.225-.002l.095-.001A.439.439 0 0 0 .828.907L.823.846A.138.138 0 0 0 .805.797.05.05 0 0 0 .762.772.524.524 0 0 0 .643.776L.52.792a1.28 1.28 0 0 1-.119.006H.373C.366.799.353.795.347.798.334.802.326.828.322.839a.064.064 0 0 0-.007.022"/><path d="M.327.803C.313.791.303.804.29.812S.278.833.269.843A.141.141 0 0 0 .25.875l-.01.02C.237.9.23.905.228.911.223.927.252.931.263.935a.313.313 0 0 1 .038.018L.324.932A.137.137 0 0 0 .337.889C.34.866.361.806.327.803z"/></g><g fill="#7bbc90"><path d="M.774.483V.49L.771.475.768.455V.453L.76.421.748.385A.256.256 0 0 0 .731.346.097.097 0 0 0 .717.327.063.063 0 0 0 .698.314.078.078 0 0 0 .674.308L.648.306.548.305a.194.194 0 0 0-.043.002L.495.31.491.311.487.313.472.323.462.336.455.346.454.348v.001l-.01.02-.009.019.001-.005.005-.014.01-.022.001-.002L.451.343.445.333.435.323.422.315A.099.099 0 0 0 .388.308C.376.307.362.308.348.309a.179.179 0 0 0-.044.006L.282.324.262.338A.2.2 0 0 0 .205.41L.198.43.195.44.194.444v.002.002a.153.153 0 0 0 .002.064l.002.006V.52l.002.004v.003L.198.53.193.542a.083.083 0 0 0-.004.025L.19.579l.002.01.001.002.002.005-.001.005a.103.103 0 0 0-.001.013.11.11 0 0 0 .003.023.117.117 0 0 0 .017.038h0 0v.002L.212.681.211.683.209.689v.003L.208.696V.7.704.709.711.714a.09.09 0 0 0 .005.022.098.098 0 0 0 .013.024.109.109 0 0 0 .022.022l.007.005.007.005.016.008A.178.178 0 0 0 .314.81.316.316 0 0 0 .356.815l.045.002.048.001.103.003a.848.848 0 0 0 .11-.002.337.337 0 0 0 .055-.01L.742.8.766.788.788.774.807.757A.147.147 0 0 0 .834.716.195.195 0 0 0 .848.671.275.275 0 0 0 .852.626L.851.584.848.545A.156.156 0 0 0 .842.511L.839.503.837.5.835.497.833.493.831.49.826.485A.087.087 0 0 0 .805.469L.784.46.771.456.773.475z"/><path d="M.194.597L.193.591.191.594.19.595.193.601.194.597zm.019.081L.214.676H.213h0L.212.678.211.68h.001L.213.678zM.198.53L.199.527.198.524.197.52.195.523.196.525.198.53z"/></g><g fill="#fff"><path d="M.403.491h.001l.01-.005a.026.026 0 0 0 .009-.01.025.025 0 0 0 .002-.017.021.021 0 0 0-.012-.013.054.054 0 0 0-.021-.004l-.11.001-.065.002H.209.2a.019.019 0 0 0-.014.006L.183.458.182.466.179.484a.189.189 0 0 0-.003.034l.001.008.003.007a.025.025 0 0 0 .012.01l.015.003h.048.11a.067.067 0 0 0 .021 0L.394.541.397.533a.053.053 0 0 0 0-.017.074.074 0 0 1 0-.015L.399.495V.493L.4.491zM.679.485H.68h0-.001 0 0zM.667.489L.665.49h0L.664.491h.002 0L.667.489z"/><path d="M.676.491h.001l.01-.005a.026.026 0 0 0 .009-.01.025.025 0 0 0 .002-.017.021.021 0 0 0-.012-.013.054.054 0 0 0-.021-.004l-.11.001-.064.002H.482.474A.02.02 0 0 0 .46.451L.457.458.456.466.453.484a.19.19 0 0 0-.004.034l.001.008.003.007a.024.024 0 0 0 .012.01l.015.003h.048.11a.067.067 0 0 0 .021 0L.668.541.671.533a.053.053 0 0 0 0-.017.074.074 0 0 1 0-.015L.672.495.673.493.674.491z"/></g><path d="M.199.453a.393.393 0 0 0-.006.059C.192.52.191.53.197.536S.216.54.225.541A.047.047 0 0 0 .252.539C.259.534.258.52.258.511v-.03A.059.059 0 0 0 .255.454C.249.445.197.446.199.453zM.467.452a.392.392 0 0 0-.006.059c0 .008-.002.019.005.025S.485.54.493.54A.047.047 0 0 0 .52.538C.528.533.526.52.526.511v-.03A.059.059 0 0 0 .523.454C.518.445.465.446.467.452z" fill="#1d1d1b"/><path d="M.204.456L.2.481C.226.493.231.49.232.479S.236.458.231.453.203.45.204.456zM.473.46L.47.485C.495.497.5.494.501.484S.505.462.5.458.473.454.473.46z" fill="#fff"/><path d="M.165.625L.162.643a.039.039 0 0 0 .012.026.065.065 0 0 0 .032.017.168.168 0 0 0 .044.002L.359.685.49.686.564.688.583.689.602.69A.126.126 0 0 0 .64.685L.657.677.672.664a.11.11 0 0 0 .02-.035L.694.624.695.619.698.609a.057.057 0 0 0 .001-.02.022.022 0 0 0-.009-.016L.68.57.67.569.491.571.311.572.226.573c-.021 0-.055 0-.064.024L.16.608.164.616a.012.012 0 0 1 .001.009z" fill="#e64d95"/><path d="M.168.63L.17.632a.029.029 0 0 0 .016.003h.084l.09-.001.034.001c.011.001.021 0 .031 0l.071.002h.067A.452.452 0 0 0 .629.632.091.091 0 0 0 .652.626.039.039 0 0 0 .667.615C.675.595.648.601.645.602a.139.139 0 0 1-.033.008.581.581 0 0 1-.101.005L.435.615C.356.614.276.613.196.616A.122.122 0 0 1 .177.615z" fill="#1d1d1b"/></svg>