<svg width="800" height="800" xmlns="http://www.w3.org/2000/svg">
  <!-- Background -->
  <rect width="100%" height="100%" fill="black" />

  <!-- Horizontal grid lines -->
  <rect x="40" y="80" width="720" height="50" fill="white" />
  <rect x="40" y="160" width="720" height="50" fill="white" />
  <rect x="40" y="240" width="720" height="50" fill="white" />
  <rect x="40" y="320" width="720" height="50" fill="white" />
  <rect x="40" y="400" width="720" height="50" fill="white" />
  <rect x="40" y="480" width="720" height="50" fill="white" />
  <rect x="40" y="560" width="720" height="50" fill="white" />
  <rect x="40" y="640" width="720" height="50" fill="white" />
  <rect x="40" y="720" width="720" height="50" fill="white" />

  <!-- Vertical grid lines -->
  <rect x="80" y="40" width="50" height="720" fill="white" />
  <rect x="160" y="40" width="50" height="720" fill="white" />
  <rect x="240" y="40" width="50" height="720" fill="white" />
  <rect x="320" y="40" width="50" height="720" fill="white" />
  <rect x="400" y="40" width="50" height="720" fill="white" />
  <rect x="480" y="40" width="50" height="720" fill="white" />
  <rect x="560" y="40" width="50" height="720" fill="white" />
  <rect x="640" y="40" width="50" height="720" fill="white" />
  <rect x="720" y="40" width="50" height="720" fill="white" />
</svg>
