<svg xmlns="http://www.w3.org/2000/svg" width="256" height="256" shape-rendering="geometricPrecision" image-rendering="optimizeQuality" fill-rule="evenodd" xmlns:v="https://vecta.io/nano"><path d="M5.552 6.596h242.965v242.982H5.552z" fill="#f66000"/><path d="M248.517 8.458H5.552V4.733h242.965l1.867 1.863-1.867 1.862zm0-3.725h1.867v1.863l-1.867-1.863zm-1.866 244.845V6.596h3.733v242.982l-1.867 1.862-1.866-1.862zm3.733 0v1.862h-1.867l1.867-1.862zM5.552 247.715h242.965v3.725H5.552l-1.867-1.862 1.867-1.863zm0 3.725H3.685v-1.862l1.867 1.862zM7.418 6.596v242.982H3.685V6.596l1.867-1.863 1.866 1.863zm-3.733 0V4.733h1.867L3.685 6.596z" fill-rule="nonzero"/><path d="M93.243 235.064c-.814-.71-2.943-1.016-6.091-4.262-9.338-9.538-34.507-19.69-30.754-34.406.408-1.725.912-2.229 1.524-3.551l-9.845 2.536c-3.552 1.523-3.145-.408-4.568-.609-2.64-.202-2.132-1.016-3.451-2.843a32.16 32.16 0 0 0-4.358-4.773c-1.222-1.016-5.987-2.536-2.741-4.261 2.338-1.319 3.858.608 4.571.915.408-2.843 1.621-2.943 3.552-5.378.811-.815.609-3.351 2.843-2.944 1.318.202 2.233 2.028 2.943 2.944 1.52 2.535 1.62 1.116 3.854 2.027 1.621.71 2.637 2.133 5.886 3.044 1.754.488 11.45-10.518 16.953-12.582 5.479-2.242 6.955-14.478 9.035-20.711 1.524-4.568.407-5.072.101-10.353-.307-5.987 1.318-13.8 5.479-18.166 4.668-4.871 17.662-5.278 28.116-13.398 1.52-1.221 1.621-1.524 1.826-4.059.404-3.758.504-7.717.097-11.47-1.217.709-2.028 1.217-3.144-1.117a12.45 12.45 0 0 1-1.621-3.959c-.444-1.544-.686-3.157-.718-4.766 0-.81.609-1.519 1.419-1.519.811.096 1.117.911 1.726 1.217-.508-5.483-1.016-10.76 1.826-14.816 7.003-10.047 23.952-6.802 25.174 6.491l.096 4.366c0 .814-.407 3.455-.201 3.854.709-.302.609-1.112 1.621-1.112.915 0 1.221.608 1.322 1.519.097 3.25-1.016 6.092-2.234 8.93-1.116 2.641-2.535 1.117-3.249 1.02-.508 4.056-.202 7.306 0 11.265.101.709.101 1.931.407 2.536.609 1.016 4.06 3.451 4.87 3.959 3.855 2.334 12.281 5.483 16.748 6.902 5.281 1.725 8.019 3.044 10.252 7.511 5.483 10.857 2.028 19.787 2.637 22.633.713 3.145 2.032 5.987 2.943 9.132.613 2.334.915 5.277 1.322 7.813.303 1.625 1.319 2.435 2.028 3.552 2.536 3.858 2.738 1.625 7.209 4.572 3.854 2.737 10.857 11.264 12.994 10.656 2.229-.613 3.955-1.932 5.987-2.843 2.132-.915 2.435.202 3.854-2.132.609-1.016 1.625-2.843 2.842-2.944 2.133-.302 2.234 1.827 2.234 2.028.608 1.323 3.451 2.435 4.366 6.294.81-.407.609-.915 1.927-1.222 1.726-.407 4.165.609 3.455 2.028-.407.814-3.757 2.338-4.467 3.149l-2.028 2.536c-1.322 1.52-2.641 4.463-4.572 4.463-8.015.205-7.204-.912-14.409-1.726 4.463 18.876-10.861 23.65-25.778 32.172-.834.456-5.475 9.85-10.454 9.85l-71.356.008zm71.352 0c16.848.915 44.352 13.703 46.077 14.413H36.51c40.7-10.555 14.712-9.539 56.733-14.413h71.352zm-79.774-35.926c-.306-.101-6.7-3.854-12.179-3.959 2.491 1.246 9.184 2.959 12.179 3.959zm79.976 2.435c4.128-3.104 13.989-6.209 19.186-8.12-10.966-.709-16.848 6.802-19.186 8.12zm-71.348-.407c-6.987-4.923-10.785-8.309-20.202-7.813 1.709-.343 16.517 6.091 20.202 7.813zm121.59-13.498c.915.302 1.318-.407 3.854.101-.504-.508-1.218-.815-2.028-1.117-.71-.206-1.725.71-1.826 1.016zm-175.59 0a11.58 11.58 0 0 1 2.645 0c-.205.504-.508.71-.709 1.117-.303.407-.206 1.016-.303 1.52.504-1.52 2.028-2.23 2.335-2.843-.537-.411-1.194-.637-1.863-.637a3.06 3.06 0 0 0-2.101.839l-.004.004zm175.082-.71c1.221-.205 1.116-.608 2.032-1.016v-2.741c-.299 0-.702-1.205-1.323-1.722-1.62 1.625-1.822 4.06-.709 5.483v-.004zm-172.949-.919c.508.307 1.625 1.02 2.234 1.117.407-.911 1.016-1.52.709-3.044-.201-.709-1.016-2.032-1.318-2.741-1.681.85-1.504 3.197-1.625 4.668zm179.649-1.826c.504-.097.504-.302 1.726-.71.609-.201 1.318-.096 2.133-.201-1.016-.202-.912-.508-2.335-.303-.713.101-1.524.504-1.524 1.218v-.004zm-187.97-.71c2.334-.403 2.435.408 4.056 1.02.209-1.052-3.903-2.278-4.056-1.02zm41.917 7.007c5.229 2.149 19.896 11.003 20.807 11.265-.581-1.008-3.798-4.971.609-3.959 1.826.407 3.346 3.048 5.075 3.048 6.987-14.111 1.859-28.903-2.741-42.732-2.137 1.049-7.511 17.159-8.321 19.59-5.185 14.365-9.241 6.604-15.425 12.792l-.004-.004zm79.777 6.088c0 .036 1.964 4.06 2.133 4.261 2.334-.302 3.145-2.737 5.076-3.043 2.939-.508 2.536 3.043.097 4.055 1.524-.201 7.309-5.378 9.543-6.595l8.422-3.758 3.048-1.117c-1.694-.431-3.339-1.088-4.875-1.923-8.24-4.874-6.019.585-10.45-10.659-2.806-7.479-6.083-11.631-8.224-19.892l-3.653 10.353c-3.249 8.861-2.282 19.19-1.117 28.318zm59.475-20.606l-1.524 1.323c1.524-.915 1.931 0 2.842.201 0-.814-.407-1.725-1.318-1.524zm-171.832 1.827c.444-.222 1.814-.899 2.133-1.117-.613-1.113-2.536-.911-2.133 1.117zm112.051-8.221c-4.846 11.071-2.121 9.027-2.121 18.933 0 1.318.529 6.878.323 7.692 1.149-7.515-.73-17.134 1.798-26.621v-.004zm-51.359-1.217c3.766 9.442 2.024 17.634 2.032 23.036.307 1.02.915 2.133 1.02 2.742-.766-10.095 2.685-15.998-3.052-25.778zm-59.676 10.051c.758-.238 9.398 5.886 12.276 5.886l-1.419 1.221c2.843-.205 9.136-4.467 10.559-5.991 3.044-2.939 3.657-6.491 9.841-6.898-.923 1.383.399.54-1.721 2.133-.504.302-1.927 1.524-2.335 1.621 6.29-2.536 4.367-2.435 6.189-5.479 2.439-3.758 2.846-3.758 3.959-8.221.613-2.032 3.858-13.804 2.742-14.82-.408 2.943-1.625 5.483-2.339 8.12-.645 2.866-1.165 5.813-1.516 8.728 0 1.016-3.35 5.58-4.265 5.987-1.113.609-2.435.915-3.653 1.524-4.164 2.133-11.163 10.555-14.715 11.571-1.827.504-5.685-2.439-7.31-2.943-5.386-1.04-3.801-2.847-4.672-3.246-.609-.205-1.419.504-1.621.815v-.008zm170.002-.815c-1.827 0-1.319 1.524-2.536 2.536-.815.71-2.435.609-3.754 1.218-1.931 1.02-4.874 3.35-7.208 2.032-3.351-1.827-8.019-6.903-11.063-9.442-3.25-2.738-5.785-2.335-6.701-3.552-5.579-7.209-3.346-7.003-5.479-14.716l-2.439-7.918c-.097 5.584 4.467 21.722 8.225 25.883.709 1.117 3.854 2.536 5.172 2.842l-4.06-2.64.206-.71c2.334.101 3.854 0 5.58 1.931 2.338 2.435 2.338 2.843 3.657 4.367s8.119 5.684 10.353 5.886l-1.319-.911c2.492-1.158 5.088-2.153 7.717-2.948 3.048-.814 3.657-3.753 3.657-3.854l-.008-.004zM96.493 119.36l12.687-5.378c3.855-1.625 8.628-3.959 10.962-7.612l-9.236 6.092c-5.483 3.044-18.372 6.092-21.722 9.237-2.335 2.334-4.463 6.696-4.463 10.962-.303-.912 2.943-7.814 3.656-8.83 2.637-3.959 5.58-3.249 8.12-4.467l-.004-.004zm66.276.202c8.527.814 8.93 8.627 10.861 12.179-.302-4.567-2.439-8.527-4.971-10.558-4.774-3.855-17.255-4.77-26.593-12.18-1.419-1.218-2.943-2.133-4.467-3.145 3.455 4.568 6.701 5.891 11.877 8.221l13.297 5.483h-.004zm-23.041-13.498l-.202-9.237c-.508 1.113-.709 5.58-.508 7.205.101.814.508 1.419.71 2.032zm-21.311 0c.504-.206 1.826-2.234 2.028-2.943-.407.508-.815 1.217-1.319 1.725a8.61 8.61 0 0 0 .537-2.987 8.78 8.78 0 0 0-.029-.669c-.096-.911-.201-3.145-.608-3.754-.202 2.637 0 6.29-.609 8.628zm-4.975-23.041c.201-.201.097-.201.302-.508h1.016c0-1.016-1.621-1.318-1.318.508zm31.567-.508l-.306-.609c-1.318 0-.504 1.222.306.609zm-26.491 3.959l.608.101c-9.845-31.16 29.842-30.346 20.3.101 1.826-.101 2.943-5.987 2.943-7.309.1-3.044.1-6.395-1.016-8.931-4.165-10.046-19.082-10.961-24.057-.407-1.318 2.641-1.222 5.685-1.222 8.834.101 3.346.815 5.479 2.44 7.607l.004.004zm8.724 54.605v-5.987h1.322c2.133 0 6.189.096 6.189 2.939 0 3.249-5.277 3.048-7.511 3.048zm0-14.006c.375-.049.75-.077 1.121-.077a8.51 8.51 0 0 1 1.117.077c1.725.101 4.059.407 4.059 2.64.097 2.939-4.366 2.738-6.293 2.738v-5.378h-.004zm-8.116-.202c.408.097 2.028-.205 2.843.202.814.508.608 1.419.608 2.334v9.241c0 .911.303 2.132-.608 2.334-.508.101-2.133 0-2.234.101l-.609 3.144c.202.101 4.463 0 5.379 0 .1.303 0 4.367 0 4.467.1.097 2.435 0 2.737 0v-4.366h2.133v4.366h2.64v-4.366c.202-.206 4.464 0 6.596-2.133.988-1.169 1.528-2.652 1.528-4.176 0-.863-.173-1.726-.508-2.52-.915-2.032-3.148-2.339-3.35-2.439 1.016-.609 1.725-1.117 2.133-2.435.407-1.524.1-3.657-1.016-4.774-1.419-1.318-3.455-1.621-5.378-1.927v-4.366l-2.544.004c-.101 0-.101 0-.101.201v4.06l-2.133.101-.101-4.366-2.636.004v4.366c-.206.101-5.177 0-5.379.101-.1.201 0 2.842 0 2.842zm69.219-7.204c-1.322 0-.306-2.133 0-3.351 1.174.218 2.335.528 3.455.912-1.116.713-1.318-.504-3.451 2.439h-.004zm-124.029 2.229l2.234-.81c.097.097 1.117 3.656 1.117 3.959-.407.201-1.222.201-1.931.302-.912.202 0-.101-1.42-3.451h0zm130.831-11.571c-2.032-.1-7.209.815-6.399-1.524l6.903.101c0 .202-.504 1.218-.504 1.419v.004zm-1.02 4.673c-4.665-.302-6.088 1.016-5.479-3.455 1.318-.097 4.261.206 5.886.206l-.407 3.249zm-146.86-6.092l17.864-.101.097 1.222-16.748.71-1.217-1.827.004-.004zm6.595 8.527a303.5 303.5 0 0 1 11.886-1.209l.504 3.656c-1.419.202-2.536.71-3.044.303a7.26 7.26 0 0 0-4.37-1.456 7.31 7.31 0 0 0-4.367 1.444c0-.912-.302-2.133-.609-2.738zm134.79-13.095c.709-.205 11.566-.709 11.974-.612-1.52.302-3.347 2.741-4.161 3.854l-7.813.004v-3.246zm-139.66 7.818c5.479.096 10.857-.613 16.236-.613l.205 2.943-12.482 1.222c-2.338-4.06-3.757-2.133-3.959-3.552zM152.113 6.596l-10.559 39.889c-.608-.101-2.943-.71-3.346-.912 1.419-12.179 4.87-26.491 6.898-38.977h7.007zm-45.166 0l6.902 39.381-3.149.709c-2.435-12.99-7.103-27.201-10.76-40.09h7.007zm37.752 0l-7.813 38.877-3.347-.508c-.709-6.189 2.738-30.754 3.452-38.365l7.708-.004zm-9.232 0c-.101 5.991-3.044 37.353-3.552 38.163l-4.262-.206-.004-37.957h7.818zm25.475 0c-1.116 7.817-10.861 31.769-13.905 41.715-1.354-.456-2.733-.972-4.064-1.52l10.253-40.195h7.716zm-61.913 0c1.419 10.76 10.353 32.277 10.353 40.598l-4.161 1.419-3.35-10.76L91.215 6.596h7.814zm27.201 0l-.302 37.76c-.206.302-4.669.407-4.874.407-1.42-6.192-2.738-30.552-2.94-38.163l8.116-.004zm-9.644 0c.303 12.687 2.234 25.58 3.044 38.268-.504.302-4.055.911-4.261.709-.097-.205-6.495-32.377-8.015-38.977h9.232zm-35.115 0c.101 1.322 0 4.572.407 5.991l14.413 40.09c-.85.665-1.774 1.25-2.741 1.726L71.626 6.596h9.845zm100.379 0c-3.249 14.006-17.662 33.801-21.516 47.908-.508-.101-2.641-1.42-3.145-1.827l14.715-46.081h9.946zm-92.058 0l14.107 42.529-2.028.71c-1.117-2.338-4.463-11.772-5.277-12.792 0 1.729 3.552 11.066 4.366 13.296l-3.455 1.826C94.663 38.974 84.007 16.643 81.471 6.596h8.321zm-19.896 0l22.533 48.516-3.145 2.641L60.869 6.596h9.027zm123.118 0l-28.318 50.951-3.149-2.233 22.025-48.718h9.442zm-21.924 0c-1.931 8.426-12.788 35.325-15.123 45.573l-3.249-1.621c.814-3.35 5.076-14.413 5.176-16.344-1.015 1.117-5.89 15.329-6.394 15.837l-3.048-1.218c2.944-12.893 9.846-28.725 14.111-42.227h8.527zm51.665 0l-49.331 59.071-3.144-3.346 36.236-54.403-37.248 53.488-3.451-2.939L194.538 6.6l28.217-.004zm-163.309 0l28.621 51.967-3.455 2.843c-.198-.916-33.39-48.21-37.244-53.589.205.609 1.725 2.641 2.233 3.351l34.204 51.254c-.407.608-2.741 3.144-3.148 3.346L31.229 6.596h28.217zm189.087 116.518c-.612-.202-3.555-3.145-8.627-4.161-4.366-.814-4.669 3.552-5.483 4.971-.303-.71-.71-1.117-1.319-1.726-.508.097-3.551-.302-3.757-1.221l-.71-1.726c-.302-.709-2.64-1.826-3.144-1.826-2.536-.302-1.827-1.931-.609-1.725.81.1 9.946.302 10.45 0l-10.656-.508c-.504-2.335 1.117-2.637-2.435-6.395 2.435-.608 13.8-.1 14.917-.709-.709-.407-19.585-.101-20.097-.407-.404-.303-.404-2.335-2.843-3.959-3.451-3.754-20.194-1.117-25.677-.71l-.198-3.649c.097-.302 35.519-5.378 37.248-6.595-11.062.1-29.64 5.579-37.554 5.075l-.814-4.668c14.614-5.89 42.017-12.994 57.442-18.574-9.132.911-53.689 15.224-57.749 17.251-.52-1.657-.967-3.362-1.31-5.071l53.185-24.154c-1.419.202-50.242 21.719-53.689 23.243a48.8 48.8 0 0 1-1.524-4.572c15.731-7.612 48.512-25.984 60.898-36.64L182.87 80.181l-1.725-3.758c16.747-16.134 37.958-28.213 57.85-46.279-19.892 13.7-39.482 30.246-58.56 45.263-.709-.608-1.826-2.842-2.536-3.959 14.506-12.377 55.919-58.152 61.801-61.804-18.775 12.28-44.658 42.828-62.724 60.692a28.14 28.14 0 0 1-2.536-3.451l48.718-60.289h25.375v74.496c-2.439.206-17.356 3.556-21.012 4.366l-20.602 4.971c1.419 1.117 36.74-8.829 41.614-9.131v16.34c-1.931 0-17.255 1.322-17.763 2.032 1.117.709 14.82-1.625 17.763-1.73v25.174zm-20.908-82.112c2.536-1.218 19.489-15.325 19.792-15.429-1.323.915-19.082 14.211-19.792 15.429zm-31.87 45.678c.202.101.101.302.912-.101l12.994-4.669c2.943-1.523-9.745 2.641-10.656 3.048-1.117.504-2.641.811-3.25 1.726v-.004zm8.423 13.393c.915 1.73 30.144-2.637 33.393-3.246-1.318-.407-32.478 2.637-33.393 3.246zM5.552 97.638V6.596h25.371c1.318 2.741 12.691 15.634 15.328 18.981l33.495 41.312c-.408.709-2.234 2.943-2.742 3.451L29.806 23.65 16.715 11.974l59.374 59.478c-.609 1.323-1.726 2.742-2.536 3.96L14.381 29.741c.508.303 1.221 1.016 1.729 1.524 13.498 12.079 47.602 35.926 56.633 45.368l-1.827 3.552L9.41 44.662c2.032 2.738 52.979 32.076 61.103 36.841l-1.729 4.367c-16.341-5.991-36.745-16.55-53.593-23.247.609.71 42.429 19.388 46.586 21.215l6.696 2.943-1.318 5.172L8.902 74.5l57.954 18.574-.709 2.842c-2.234 0-12.788-4.261-13.599-2.435.71.911 12.276 3.145 13.498 3.451l-.101 1.016c-7.813 0-28.112-4.056-37.857-5.076 1.419 1.222 37.353 6.495 37.45 6.495-.097 4.06.206 3.859-1.52 3.657-1.931-.101-19.993-1.826-19.993-.504-.1 1.621 18.671 1.726 21.211 1.927v3.048c-3.959.303-17.558 1.621-20.098-.915-3.753-3.753-10.962-3.854-15.425.302-1.117 1.016-.508 1.117-2.536 1.016-1.826 0-9.95-.201-10.559.206.916.609 10.962.202 12.079.911-1.621 3.048-1.217 3.149-1.217 6.193-3.351 0-14.716-.101-17.054.508.407.302 15.634.201 17.356 0 .201.504 1.419 1.419.407 1.725-4.165 1.419-8.628 7.511-8.728 6.29-4.161-10.656-12.994-2.028-13.905-.71l-.004-25.077c2.435.101 16.441 2.234 17.557 1.73-3.35-1.222-13.195-1.931-17.557-2.032v-.004zM37.22 78.963c.504.815 22.125 8.426 23.037 8.426-.609-1.725-22.735-8.627-23.037-8.426zm9.236 11.676c-.612-1.322-12.994-3.552-14.413-3.552.815 1.016 12.18 3.346 14.413 3.552zm4.971 9.942c-.205-1.419-31.668-3.854-34.813-3.854 1.319 1.016 33.088 4.769 34.813 3.854z"/></svg>