<svg xmlns="http://www.w3.org/2000/svg" fill="none" viewBox="0 0 501 575"><path d="M428 464v17l16 7 31 13v49H112L26 375 68 81l125-53 132 69 116 90-13 277Z" fill="#fff" stroke="#000" stroke-width="50"/><path d="m254 230 4 4c3 2 7 4 13 5 11 3 26 5 44 5 17 0 32-2 43-5 6-1 10-3 13-5l4-4c0-2-1-3-4-5s-7-4-13-5a179 179 0 0 0-87 0c-6 1-10 3-13 5s-4 3-4 5Z" fill="#fff" stroke="#000" stroke-width="4"/><path d="M302 229c0 6 5 12 13 12 7 0 13-6 13-12s-6-11-13-11c-8 0-13 5-13 11Z" fill="#000" stroke="#000" stroke-width="5"/><path d="m152 83 27 96 166-31-146 116 15 126-72-100-65 50 15-76-60-53 80-18 40-110Z" fill="#000"/><path d="m213 232-4 4c-3 2-7 4-13 5a179 179 0 0 1-87 0c-6-1-10-3-13-5l-4-4c0-2 1-3 4-5s7-4 13-5c11-3 26-5 44-5 17 0 32 2 43 5 6 1 10 3 13 5s4 3 4 5Z" fill="#fff" stroke="#000" stroke-width="4"/><path d="M166 231c0 6-6 12-13 12-8 0-13-6-13-12s5-11 13-11c7 0 13 5 13 11Z" fill="#000" stroke="#000" stroke-width="5"/><path d="M299 478c0 16-32 22-65 16-32 5-66 0-66-16s33-94 66-36c32-54 65 20 65 36Z" fill="#EE1313"/><path d="M293 471c0 4-30 6-60 4-29 2-60 0-60-4 0-5 30-28 60-11 30-16 60 6 60 11Z" fill="#000"/></svg>