<svg xmlns="http://www.w3.org/2000/svg" width="400" height="560" xmlns:v="https://vecta.io/nano"><path d="M0 0h400v560H0z"/><path d="M20 523.73V36.27A10.17 10.17 0 0 1 30.17 26.1h339.66A10.17 10.17 0 0 1 380 36.27v487.45a10.17 10.17 0 0 1-10.17 10.17H30.17A10.16 10.16 0 0 1 20 523.73z" fill="#fc1a05"/><path d="M42 347.35h316v172H42z" fill="#8e451e"/><path d="M42 44.64h316v473.43H42z" fill="none" stroke="#000" stroke-width="5" stroke-miterlimit="10"/><radialGradient id="A" cx="181.208" cy="204.218" r="153.156" gradientTransform="matrix(1.1328 0 0 1.1605 -5.4203 -26.9217)" gradientUnits="userSpaceOnUse"><stop offset="0" stop-color="#065e2e"/><stop offset=".192" stop-color="#055228"/><stop offset=".537" stop-color="#033319"/><stop offset=".993" stop-color="#000100"/><stop offset="1"/></radialGradient><path d="M40.82,77.21H358V332.7H40.82V77.21z" fill="url(#A)"/><path d="M25 354.52h0c0-13.25 10.75-24 24-24h302c13.25 0 24 10.75 24 24h0c0 13.25-10.75 24-24 24H49c-13.25 0-24-10.74-24-24z"/><path d="M31.18 355.52v-2a18.5 18.5 0 0 1 18.5-18.5h300.65a18.5 18.5 0 0 1 18.5 18.5v2a18.5 18.5 0 0 1-18.5 18.5H49.68a18.5 18.5 0 0 1-18.5-18.5z" fill="#fc1a05"/><path d="M35.81 354.52h0a16 16 0 0 1 16-16h296.38a16 16 0 0 1 16 16h0a16 16 0 0 1-16 16H51.81a16 16 0 0 1-16-16z" fill="#f3f2e9"/><path d="M25 57.71h0c0-13.25 10.75-24 24-24h302c13.25 0 24 10.75 24 24h0c0 13.25-10.75 24-24 24H49c-13.25 0-24-10.75-24-24z"/><path d="M31.18 58.71v-2a18.5 18.5 0 0 1 18.5-18.5h300.65a18.5 18.5 0 0 1 18.5 18.5v2a18.5 18.5 0 0 1-18.5 18.5H49.68c-10.22 0-18.5-8.29-18.5-18.5z" fill="#fc1a05"/><path d="M35.81 57.71h0a16 16 0 0 1 16-16h296.38a16 16 0 0 1 16 16h0a16 16 0 0 1-16 16H51.81c-8.84 0-16-7.17-16-16z" fill="#f3f2e9"/><text transform="matrix(1.0294 0 0 1 77.2323 69.8682)" font-family="AcademyEngravedLetPlain" font-size="35.163">THE MULLET</text><text transform="matrix(.8327 0 0 1 79.271 359.7602)" font-family="ArialMT" font-size="19.648">= 22   Atk = 11  Spd = 33  Ele = mane</text><g fill="#e30206"><path d="M67.55 363.99l.18-15.82s-4.34-5.6-7.76-1.79c-4.39 4.88 7.58 17.61 7.58 17.61z"/><path d="M67.45 363.72l-.47-15.56h1.27v14.65z"/><path d="M67.55 363.99l.1-15.82s4.34-5.6 7.76-1.79c4.4 4.88-7.86 17.61-7.86 17.61z"/></g><path d="M71.41 518.07l20-46.24h216l20 46.24z"/><path d="M87.91 525.51l10.67-45.06h201.66l11.67 46z" fill="#fc1a05"/><text transform="matrix(1.0294 0 0 1 99.6579 514.8252)" font-family="Impact" font-size="26.924">THE UNPRUNABLES</text><path d="M131.35,201.5H269.5v64.71H131.35V201.5z" fill="#065e2e"/><path d="M173.19,262.84h54.05v40.12h-54.05V262.84z" fill="#0c5e30"/><path d="M144.41,147.14h111.62v54.74H144.41V147.14z" fill="#005e2b"/><path d="M154.24 190.37l7.3-8.93 30.75 8.93-34.54-20.96-3.51 20.96zm0 16.56l7.58-22 30.47 9.32-38.05 12.68zm89.99-16.56l-7.3-8.93-30.89 8.93 34.54-20.96 3.65 20.96zm0 16.56l-7.58-22-30.61 9.32 38.19 12.68z"/><path d="M155.36,232.04h89.15v23.29h-89.15V232.04z" fill="#c51d0b"/><path d="M163.78,236.83h71.88v13.72h-71.88V236.83z"/><path d="M163.78 236.83h71.88v9.71h-71.88v-9.71z" fill="#d9e091"/><path d="M143.71 205.77c.42-6.21 4.35-18.51 3.79-24.72-.42-4.27-2.81-13.33-1.68-17.6 1.12-4.01 10.95-11.13 10.95-11.13l84.1-1.68s9.97 11 10.67 15.01c.56 3.11-3.09 9.19-2.95 12.29.14 4.66 4.21 13.59 4.91 18.25 1.4 8.02 1.68 24.46 1.83 32.61.14 8.28-.84 25.11-2.53 33.26-1.54 7.51-10.39 28.99-10.39 28.99l16.71-26.79s2.39 9.19 1.54 12.16c-.84 2.98-7.58 10.35-7.58 10.35l13.06-10.35s2.25 6.99 2.25 9.45c-.14 3.75-4.21 14.62-4.21 14.62l9.69-21.74s4.35 5.69 6.6 6.34c2.67.78 8.7-1.29 11.09-2.72 1.97-1.04 4.63-4.79 5.19-6.86s-1.54-8.54-1.54-8.54 7.72 1.81 10.11 1.16c3.37-.78 10.95-7.76 10.95-7.76s-8.56 1.29-11.51 1.16-11.65-2.2-11.65-2.2l-5.19-9.32 11.09-6.99h-11.79s-9.13-4.4-11.09-6.86c-2.25-2.85-2.95-10.35-3.09-13.98-.28-4.27 1.26-12.81 0-16.82-1.26-3.88-9.97-13.72-9.97-13.72l11.51 9.06-6.04-14.75-2.81-13.72 2.25-15.53c-.14-5.18-3.09-15.27-5.19-20.06-2.25-4.14-10.95-15.79-10.95-15.79l10.11 1.94-15.72-8.8-19.09-6.99 12.78-2.72-24.29-1.16-18.25 1.16 12.78-7.25-23.03 4.4-14.46 2.98-25.97-1.55 13.48 5.95-32.29 6.73 13.9 3.49-7.02 5.95-19.66 8.93 14.74-2.33-6.46 7.38c-1.83 2.85-3.93 9.06-4.91 12.29-.84 3.24-1.68 10.22-.7 13.46.7 2.72 4.91 7.38 5.48 10.22.98 4.66-.98 14.36-1.83 19.02-1.12 5.56-6.6 21.87-6.6 21.87L100.79 254l17.13-24.85-2.67 17.73s-3.09 13.33-5.9 16.82c-4.63 5.82-25.55 16.44-25.55 16.44l17.69-3.24s-1.68 6.08-1.54 8.02c.42 2.98 4.91 11.39 4.91 11.39l4.49-10.35 3.09-7.51s3.93 4.14 4.49 5.82c.98 2.98-.84 12.42-.84 12.42l6.6-5.44 7.86-7.25 7.58-8.41s-1.83 9.71-3.65 12.42c-1.4 2.2-8.14 7.12-8.14 7.12l-2.25 5.56s8.7 0 11.51-.65c2.67-.78 7.44-3.75 9.13-5.82 2.25-2.59 4.91-9.19 5.19-12.42.98-9.19-2.95-36.75-2.95-36.75l-3.26-39.28z"/><path d="M108.18,298.3h184.2v32.22h-184.2V298.3z" fill="#0c5e30"/><ellipse cx="221.77" cy="315.12" rx="2.11" ry="1.94"/><ellipse cx="207.02" cy="317.06" rx="2.11" ry="1.94"/><ellipse cx="234.26" cy="324.18" rx="2.11" ry="1.94"/><ellipse cx="234.26" cy="313.18" rx="2.11" ry="1.94"/><ellipse cx="171.08" cy="326.12" rx="2.11" ry="1.94"/><ellipse cx="176.84" cy="313.18" rx="2.11" ry="1.94"/><ellipse cx="197.2" cy="313.18" rx="2.11" ry="1.94"/><ellipse cx="191.58" cy="328.06" rx="2.11" ry="1.94"/><ellipse cx="178.95" cy="322.88" rx="2.11" ry="1.94"/><ellipse cx="216.15" cy="321.59" rx="2.11" ry="1.94"/><ellipse cx="207.73" cy="326.12" rx="2.11" ry="1.94"/><ellipse cx="195.09" cy="321.59" rx="2.11" ry="1.94"/><path d="M239.18 321.46h10.53v9.06h-10.53v-9.06zm-88.45 0h10.53v9.06h-10.53v-9.06z" fill="#063a1c"/><path d="M168.56 265.3l-3.79-9.19s-1.97-6.6-1.4-8.8c.56-2.2 3.37-6.47 5.62-8.02s7.86-3.49 10.81-4.27c2.39-.52 7.3-1.81 9.69-1.68 2.81.13 10.81 2.46 10.81 2.46s8.14-2.85 11.09-2.98 8.7 1.94 11.37 2.98c1.97.78 6.32 1.81 8 2.98 1.97 1.42 4.63 5.18 5.19 7.25.56 1.81.14 7.51.14 7.51l-2.39 6.99-2.95 6.08s-1.97 3.62-1.83 4.92c.14 1.29 1.26 3.88 2.67 4.53 1.26.65 4.49 1.16 5.76.65 1.97-.78 4.07-4.01 4.77-5.69.84-1.81 2.53-7.38 2.53-7.38l1.97-6.99.7-6.6.84-6.47c0-2.2-.14-6.73-.98-8.93-.7-1.42-2.53-4.4-4.07-5.44-2.25-1.55-11.09-4.01-11.09-4.01l-7.58-3.36-9.97-3.88c-1.12-.39-3.23-1.29-4.35-1.29-2.81 0-10.25 3.11-10.25 3.11s-7.3-2.59-9.97-2.98c-1.72 0-3.43.26-5.05.78-2.25.78-6.46 2.85-8.56 3.88l-6.6 3.11-8.99 3.49c-1.83.91-5.34 2.85-6.32 4.27-1.4 2.07-1.97 9.32-1.97 9.32l.98 11.13 2.25 12.16s2.67 8.02 5.34 9.84c1.4.91 5.19 2.2 6.88 1.68 1.4-.39 3.51-2.07 3.79-3.11.28-1.97-3.09-8.05-3.09-8.05zm25.69-28.47h11.93v11h-11.93v-11z"/><text><tspan font-family="Arial-BoldMT" font-size="30.38" x="80.986" y="418.57">“Life’s a garden,</tspan><tspan x="156.136" y="455.03" font-family="Arial-BoldMT" font-size="30.38">dig it”</tspan></text></svg>