<svg xmlns="http://www.w3.org/2000/svg" width="400" height="400"><style>.Q{fill:#996145}.R{stroke:#000}.S{stroke-miterlimit:10}.T{stroke-width:3}.U{fill:#b0806d}.V{fill:#0a6a2c}.W{stroke-width:3.272}.X{stroke-width:2.798}.Y{stroke-dasharray:0,0,0,0,0,0}</style><path fill="#da6e1b" d="M0 0h400v400H0z"/><g class="R S"><path d="m290 186 16-7c9 0 28 5 32 13 3 7-3 25-9 31-4 5-22 12-22 12" class="Q W"/><path d="M295 192c-1-2 8-4 11-4 5 0 18 4 20 9 2 4-1 16-5 20-3 3-14 11-14 8-1-15-3-21-12-33z" class="U X Y"/><g class="Q T"><path d="m92 400-8-212c0-19 25-49 44-53 33-7 96-6 126-2 20 3 59 42 62 62 6 56-7 205-7 205z"/><path d="m68 251 19-12 53 1-1 55-1 33-50-23-22 32q-3 3-4-1c0-6 6-25 7-26l8-24-27 16q-3 1-2-2c3-8 18-27 18-27l6-7-20 1q-2-1-1-3c3-4 12-10 17-13z"/></g></g><path d="m90 309-3-75 68-39-7 150z" class="Q"/><g class="R S T"><path d="M130 283c-17-6-16-64 0-74 67-38 170-15 183-6q4 2 4 5c3 19 2 55 0 74l-6 7c-8 8-84 30-181-6z" class="U"/><path fill="#81a0b6" d="M88 351c-5 5-1 49-1 49h113s-46-21-68-34c-9-5-39-20-44-15zm227 0c4 11-1 49-1 49H200l65-33c1-1 47-24 50-16z"/></g><circle cx="220" cy="259" r="2"/><circle cx="240" cy="258" r="2"/><g class="R S"><g class="T"><path fill="#fff" d="m183 211 19 2c4 2 9 10 10 14v10c-1 3-7 9-10 12l-10 8c-3 2-11 2-14 2-5-2-17-4-20-9s-3-15-2-21c1-3 3-11 6-13 4-4 15-5 21-5z"/><path d="m184 226 9 2q3 2 5 6v5l-5 6-5 4h-7c-3 0-9-2-10-4l-1-10 3-6z" class="V"/><path fill="#fff" d="M299 255c-4 2-13 2-17 2-5 1-15 2-17-1q-3-5-4-11l4-15c1-3 1-10 3-13s10-6 14-7c5-1 17-4 21-2 5 4 10 13 11 19v16q-6 8-15 12z"/><path d="m295 248-8 1q-4 1-7-1l-2-5 2-7 1-5q2-3 6-3 5-2 9-1 5 3 5 8v8z" class="V"/></g><g stroke-width="3"><path fill="#a2544d" d="M238 278c10-1 32-3 42-2 7 1 22 3 26 9 2 3 3 12 0 14-5 7-24 11-33 11-10-1-30-6-40-6-12 0-36 7-49 6-8 0-28-2-32-10-2-3-1-13 1-15 9-8 35-4 46-4z"/><path fill="none" d="M307 293c-40-7-130 3-156 1"/></g><path d="m117 319-12 25q0 2 2 2l21-12-1 14q1 4 4 2l10-13 2 10q3 8 8 0l6-20m-38-59 5-12c1-2 5-8 6-7 2 0-1 16-2 22l1 1 6-6c1-1 5-5 6-4 3 1-2 10-4 15q-1 1 0 0l6-2q6-2 3 3l-7 10m88-102 1 15c0 1 0 9-2 9-2 1-8-17-11-23h-1l-2 9q-2 5-5 6c-3 0-3-10-3-15" class="Q T"/></g><path d="m204 184-2 3h4zm23-1-3 3h5zm-109 83-5 19 12-13zm19 18-10 18 13-13z" class="Q"/><path d="m124 271 15 13-10 13-16-13z" class="Q"/><g fill="#746a64" class="R S T"><path d="M209 72c5-21-32-57-32-57s-19 41-19 55c0 11 11 38 11 38l6 3s32-28 34-39zm99 87c16-18 7-87 7-87s-29 21-36 36l-16 36 26 20s11 5 19-5z"/><path d="M309 88s2 23 0 34l-9 31m-2-57-6 12-1 12m-13 22c36-23-21-118-21-118s-22 59-39 80c-12 14-74 19-74 19l11 13c22 8 104 19 123 6z"/><path d="M184 133c-15-22 31-87 31-87s28 30 31 47c3 13 7 52 3 63-1 4-8 6-9 6-15 1-48-17-56-29z"/><path d="M222 70s8 15 10 23c3 8 2 69 2 69"/><path d="m222 69 2 26-1 14m-16 40s-70-1-88-11c-32-17-13-110-13-110l59 20"/><path d="M131 59s27 15 36 22c8 7 24 26 24 26m58-58 17 29c4 10 8 40 8 40M123 59l4 34c2 10 20 37 20 37m-4-5L60 39s-11 62-5 82c4 15 30 44 38 56h4z"/><path d="M66 82s1 25 4 34c4 10 25 32 25 32M80 89l1 22c1 5 12 13 12 13m85-91 14 17c2 4-1 17-1 17m-73-26 24 7c5 2 13 10 13 10m-44-14 1 14 3 11m55 66c0-23-60-61-60-61s-9 35-5 50c4 11 17 45 24 53 3 2 9 2 10 2 12-5 31-31 31-44z"/><path d="m115 107 6 23c2 7 17 27 17 27"/></g><text class="V" font-family="AcademyEngravedLetPlain" font-size="4" transform="translate(374 397)">HNFT PEPE</text><g class="R S"><path d="m92 237-17-6c-7-5-18-22-15-30 2-7 18-17 26-18 7-1 25 6 25 6" class="Q W"/><g class="X Y"><path d="M92 229c0 2-8-3-11-4-4-4-11-15-10-20 2-5 12-12 17-12 5-1 19 1 16 4-8 11-11 16-12 32z" class="U"/><path fill="none" d="m84 211 6-1 5 1m-6-2v-4"/></g></g></svg>