<?xml version="1.0" encoding="utf-8"?>
<!-- Generator: Adobe Adobe Illustrator 24.2.0, SVG Export Plug-In . SVG Version: 6.00 Build 0)  -->
<svg version="1.1" id="Layer_1" xmlns="http://www.w3.org/2000/svg" xmlns:xlink="http://www.w3.org/1999/xlink" x="0px" y="0px"
	 width="24px" height="24px" viewBox="0 0 24 24" style="enable-background:new 0 0 24 24;" xml:space="preserve">
<style type="text/css">
	.st0{fill:#12A443;}
	.st1{fill:#EE78B6;}
	.st2{fill:#FFFFFF;}
	.st3{fill:#F078BB;}
	.st4{fill:#483221;}
	.st5{fill:#0BA83E;}
	.st6{fill:#625E5E;}
	.st7{fill:#615E5E;}
	.st8{fill:#635E5E;}
	.st9{fill:#EA6619;}
	.st10{fill:#EB6617;}
	.st11{font-family:'AcademyEngravedLetPlain';}
	.st12{font-size:0.3989px;}
</style>
<g id="Layer_3">
	<rect class="st0" width="24" height="24"/>
	<rect x="1.72" y="1.88" width="20.5" height="20.5"/>
	<path class="st1" d="M12.84,14.63c0.04-0.04-0.01-0.2,0.04-0.24c0.05-0.05,0.23-0.05,0.3,0c0.03,0.03,0.06,0.11,0.06,0.15
		c0.01,0.04,0.01,0.13,0,0.17c-0.01,0.05-0.03,0.14-0.06,0.18"/>
	<path class="st1" d="M12.34,15.08C12.27,15.03,12.06,15.06,12,15c-0.07-0.07-0.1-0.33-0.03-0.41c0.04-0.04,0.15-0.06,0.21-0.07
		c0.06,0,0.18,0,0.23,0.01c0.07,0.02,0.2,0.06,0.25,0.11"/>
	<path class="st1" d="M12.62,14.67c-0.03-0.06,0.06-0.24,0.02-0.3c-0.05-0.07-0.27-0.13-0.37-0.08c-0.05,0.02-0.1,0.12-0.12,0.17
		c-0.02,0.05-0.05,0.15-0.05,0.2c0,0.06,0,0.18,0.03,0.23"/>
	<path class="st1" d="M12.76,14.8c0.09-0.03,0.19-0.21,0.28-0.23c0.11-0.03,0.35,0.05,0.37,0.14c0.02,0.04-0.04,0.15-0.07,0.19
		c-0.03,0.05-0.11,0.14-0.16,0.18c-0.06,0.05-0.18,0.13-0.25,0.16"/>
</g>
<path class="st2" d="M8.94,13.84l1.64-0.23l3.29-0.13l1.91-0.11c0,0-0.03,0.11-0.02,0.14c0.11,0.21-5.19,0.23-5.19,0.23
	s-1.05,0.28-1.55,0.28C8.98,14.02,8.94,13.84,8.94,13.84z"/>
<rect x="12.43" y="11.03" class="st3" width="0.5" height="4.3"/>
<g>
	<polygon class="st2" points="4.25,22.38 4.64,21.83 5.54,21.39 6.75,21.09 7.47,20.52 7.95,19.31 8.16,18.19 7.86,17.19 7.4,16.17 
		7.61,15.07 8.42,14.32 8.95,13.84 9.68,14.2 10.78,14.68 11.85,14.83 12.86,15 13.75,14.82 14.45,14.35 15.28,14.03 15.76,13.38 
		15.95,14.03 16.26,14.68 16.45,15.24 16.2,15.58 16.1,16.12 16.5,16.54 16.57,17.16 16.38,17.67 15.9,18.33 15.65,18.78 
		15.5,19.43 15.04,19.79 14.7,20.12 13.99,20.42 13.48,20.38 13.52,20.87 14.22,21.18 15.16,21.11 16.11,21.31 17.26,21.42 
		17.95,21.78 18.18,22.38 	"/>
	<polygon points="11.4,17.8 12.17,19.33 13.23,19.88 14.35,19.66 15.17,18.29 13.47,18.24 	"/>
	<polygon points="10.08,15.37 9.85,15.67 10.22,16.03 11.55,16.25 11.99,15.74 11.1,15.2 	"/>
	<polygon points="14.11,15.76 14.17,16.19 15.13,16.27 15.75,16.51 15.93,15.59 15.1,15.52 	"/>
	<polygon class="st2" points="10.31,15.59 10.32,15.86 10.72,15.95 10.71,15.68 10.84,15.42 	"/>
	<polygon class="st2" points="11.37,15.59 11.71,15.79 11.43,16.04 11.23,15.98 11.39,15.8 	"/>
	<polygon class="st2" points="14.43,15.87 14.43,16.07 15.01,16.16 14.9,15.95 15.06,15.7 	"/>
	<polygon class="st2" points="15.52,15.79 15.74,15.79 15.64,16.31 15.4,16.21 15.55,16.01 	"/>
	<polygon class="st2" points="12.25,18.73 12.91,19.48 13.56,19.68 14.25,19.51 14.36,19.15 13.99,18.93 13.84,19.09 13.91,19.32 
		13.33,19.29 	"/>
	<polygon class="st2" points="12.45,18.28 13.62,18.39 14.5,18.44 14.24,18.65 13.75,18.67 13.07,18.54 	"/>
	<polygon points="12.96,17.77 12.7,17.71 12.57,17.55 12.59,17.42 12.91,17.37 12.96,17.25 12.81,17.23 12.71,17.28 12.47,17.31 
		12.46,17.59 12.56,17.76 12.68,17.87 12.98,17.89 	"/>
	<polygon points="13.97,17.83 14.05,17.71 14.31,17.82 14.33,17.6 14.58,17.29 14.09,16.81 13.93,16.58 13.99,16.3 14.16,16.31 
		14.18,16.57 14.74,17.17 14.83,17.31 14.54,17.67 14.52,17.93 14.33,18.05 	"/>
</g>
<g>
	<polygon class="st4" points="10.78,12.88 11.35,12.22 12.1,11.32 12.77,10.38 13.32,9.6 13.88,9.73 13.23,10.71 12.65,11.67 
		12,12.49 11.46,13.18 	"/>
	<polygon class="st4" points="13.77,8.28 14.3,8.43 14.4,7.52 14.36,6.38 14.24,5.73 14.58,5.08 15.09,4.52 14.81,4.21 14.39,4.65 
		14.02,5.23 13.69,4.45 13.21,3.78 12.8,4.13 13.26,4.75 13.69,5.73 13.85,6.52 13.84,7.4 	"/>
	<path class="st0" d="M11.63,4.99c0,0,0.24,0.42,0.33,0.55C12,5.6,12.12,5.73,12.2,5.77c0.11,0.06,0.36,0.08,0.49,0.08
		c0.14,0,0.54-0.02,0.54-0.02s-0.22-0.44-0.32-0.57c-0.05-0.07-0.2-0.18-0.27-0.23c-0.08-0.05-0.25-0.11-0.34-0.12
		C12.13,4.89,11.63,4.99,11.63,4.99z"/>
	<path class="st5" d="M13.39,10.87c0,0,0.24,0.42,0.33,0.55c0.05,0.07,0.17,0.2,0.25,0.24c0.11,0.06,0.36,0.08,0.49,0.08
		c0.14,0,0.54-0.02,0.54-0.02s-0.22-0.44-0.32-0.57c-0.05-0.07-0.2-0.18-0.27-0.23c-0.08-0.05-0.25-0.11-0.34-0.12
		C13.9,10.77,13.39,10.87,13.39,10.87z"/>
	<path class="st6" d="M14.64,6.6v0.73l2.14-0.63c0,0-0.81-0.16-1.08-0.17C15.43,6.52,14.64,6.6,14.64,6.6z"/>
	<path class="st7" d="M12.24,7.34c0,0,0.47-0.27,0.63-0.34c0.19-0.08,0.78-0.25,0.78-0.25l-0.07,0.88l-0.76,0.26L12.24,7.34z"/>
	<path class="st8" d="M11.99,8.65c0,0,0.76,0.44,1.02,0.56c0.22,0.1,0.68,0.26,0.92,0.31c0.3,0.07,0.93,0.11,1.24,0.11
		c0.38-0.01,1.53-0.2,1.53-0.2l-3.87-1.16l-0.56-0.49l-0.44-0.34l-0.67-0.31L11.09,7.3c0,0,0.29,0.32,0.36,0.44
		c0.06,0.09,0.18,0.3,0.17,0.4c-0.01,0.11-0.14,0.3-0.22,0.39c-0.07,0.08-0.32,0.3-0.32,0.3l0.1,0.17L11.99,8.65z"/>
	<ellipse cx="12.09" cy="8.13" rx="0.24" ry="0.24"/>
	<path class="st9" d="M11.11,8.76c0.05,0.01,0.16,0.09,0.16,0.09S11.27,9,11.24,9.04c-0.13,0.17-0.63,0.19-0.81,0.31
		c-0.04,0.02-0.07,0.11-0.1,0.15c-0.03,0.04-0.13,0.09-0.18,0.12c-0.29,0.13-0.89,0.38-1.2,0.42c-0.05,0.01-0.15,0.01-0.19-0.02
		C8.7,9.99,8.61,9.89,8.59,9.84C8.57,9.76,8.57,9.6,8.6,9.53c0.01-0.03,0.04-0.1,0.07-0.12c0.26-0.2,0.92-0.35,1.24-0.43
		c0.05-0.01,0.15-0.05,0.2-0.05c0.05,0,0.15,0.06,0.21,0.05C10.52,8.98,10.9,8.73,11.11,8.76z"/>
	<path class="st10" d="M11.17,7.04c0.03,0.04,0.04,0.17,0.04,0.17s-0.11,0.11-0.16,0.11C10.83,7.35,10.48,7,10.27,6.95
		c-0.04-0.01-0.13,0.03-0.18,0.03c-0.05,0-0.16-0.03-0.21-0.05C9.59,6.81,9,6.55,8.76,6.34c-0.04-0.03-0.1-0.1-0.12-0.15
		C8.62,6.14,8.63,6,8.66,5.95c0.04-0.07,0.16-0.17,0.24-0.2C8.93,5.74,9,5.72,9.03,5.72c0.32,0.05,0.88,0.43,1.16,0.61
		c0.04,0.03,0.14,0.07,0.17,0.11c0.04,0.04,0.06,0.15,0.1,0.19C10.61,6.77,11.05,6.88,11.17,7.04z"/>
</g>
<text transform="matrix(1 0 0 1 19.6865 22.1855)" class="st2 st11 st12">HNFT PEPE</text>
<polygon points="13.6,20.42 11.95,19.97 11.31,19.6 10.26,19.02 9.85,18.49 10.32,19.02 12,19.95 "/>
</svg>
