<svg xmlns="http://www.w3.org/2000/svg" fill="none" viewBox="0 0 501 575"><path d="M428 464v17l16 7 31 13v49H112L26 375 68 81l125-53 132 69 116 90-13 277Z" fill="#fff" stroke="#000" stroke-width="50"/><path d="m311 400 99-26 6 23-99 26zM105 507l315-84 6 23-315 84zm-38-41 99-26 6 23-99 26zm176-230c0 45 58 42 96 42 54 0 60 91 60 46S357 95 319 95s-76 96-76 141Z" fill="#000"/><path d="M243 236c0 45 58 42 96 42 54 0 60 91 60 46S357 95 319 95s-76 96-76 141Z" fill="#000"/><path d="m254 230 4 4c3 2 7 4 13 5 11 3 26 5 44 5 17 0 32-2 43-5 6-1 10-3 13-5l4-4c0-2-1-3-4-5s-7-4-13-5a179 179 0 0 0-87 0c-6 1-10 3-13 5s-4 3-4 5Z" fill="#fff" stroke="#000" stroke-width="4"/><path d="M302 229c0 6 5 12 13 12 7 0 13-6 13-12s-6-11-13-11c-8 0-13 5-13 11Z" fill="#000" stroke="#000" stroke-width="5"/><path d="M223 236c0 45-58 42-96 42-54 0-60 91-60 46s42-229 80-229 76 96 76 141Z" fill="#000"/><path d="M223 236c0 45-58 42-96 42-54 0-60 91-60 46s42-229 80-229 76 96 76 141Z" fill="#000"/><path d="m213 232-4 4c-3 2-7 4-13 5a179 179 0 0 1-87 0c-6-1-10-3-13-5l-4-4c0-2 1-3 4-5s7-4 13-5c11-3 26-5 44-5 17 0 32 2 43 5 6 1 10 3 13 5s4 3 4 5Z" fill="#fff" stroke="#000" stroke-width="4"/><path d="M166 231c0 6-6 12-13 12-8 0-13-6-13-12s5-11 13-11c7 0 13 5 13 11Z" fill="#000" stroke="#000" stroke-width="5"/><path d="M271 352c0 25-15 22-33 22-19 0-34 3-34-22 0-26 15-47 34-47 18 0 33 21 33 47Z" fill="#000"/><ellipse fill="#EE1313" cx="243" cy="431" rx="67" ry="35" transform="rotate(-15 243 431)"/><ellipse fill="#000" cx="243" cy="431" rx="43" ry="13" transform="rotate(-15 243 431)"/></svg>