<svg xmlns="http://www.w3.org/2000/svg" viewBox="0 0 870 980"><rect width="870" height="980" fill="#fff"/><path d="M123.25,188.16h.07L88.85,531.51C168.32,427.27,293.8,360,434.99,360s266.67,67.27,346.14,171.51L746.66,188.16h.07c-94.42,4.92-200.13,7.68-311.75,7.68s-217.33-2.76-311.75-7.68Z" fill="#00aeef"/><path d="M781.14,531.51C701.67,427.27,576.19,360,435,360S168.33,427.27,88.86,531.51L73.95,680h722.1L781.14,531.51Z" fill="#e8048a"/><path d="M49.86,920H820.14L796.05,680H73.95Z" fill="#fbee0a"/><path d="M500.97,920c1.95-15.52-35.12-35.21-39.16-48.74,11.23-10.57,154.26-144.97,166.83-156.78,6.89.63,15.21,12.6,21.71,16.65,12.11,7.44,23.41-11.21,31.03-17.15,8.58-6.69-1.26-14.5-3.78-21.4-13.36-34.71,41.54,40.76,63.91,26.17,9.03-5.89,29.77-17.54,22.84-33-15.88-32.27-81.95-94.55-95.06-116.11,5.66-12.43-40.42-57.09-105.53-119.71-8.2-12.44-6.67-15.3-22.49-15.64-4.72-32.38,1.31-48.17,1.31-48.17,7.3-13.93,7.9-26.77,4.98-39.7,9.89-5.35,25.02-31.3,24.86-43.75-.22-4.25-9.62-7.04-9.62-7.04-5.31-2.02-16.65-4.29-20.06,1.74-3.7,6.54-6.12,27.56-10.57,41.24-6.62,20.37-14.13,29.31-14.13,29.31,14.86-38.61-2.23-39.89-2.23-39.89-9.17-.63-24.07,11.37-34.4,49.96-9.26,30.38,1.27,70.84-13.65,70.36-63.6-41.97-99.18-87.15-161.62-40.1C243.61,455.37,82.56,583.73,106.69,638.28,167.01,774.65,254.57,823.8,351.5,919.99H0v60H870v-60H500.97Zm-123.58,0c27.71-14.88,16.59-21.29-1.28-38.98C363,852.38,413.78,907.11,428.54,920H377.38ZM578.37,284.16a46.119,46.119,0,0,1-8.64.05c-16.09-1.69-26.79-13.79-27.74-13.53-1.3.36-2.68,2.49-2.28,3.71a4.44,4.44,0,0,0,.53.81c13.26,17.65,36.04,14.67,37.35,14.16,0,0,2-3.51.77-5.2ZM870,30V180c-121.11,9.95-271.74,15.84-435,15.84S121.11,189.95,0,180V30c121.11,9.95,271.74,15.84,435,15.84S748.89,39.94,870,30Z"/></svg>