<svg xmlns="http://www.w3.org/2000/svg" width="690" height="690" fill-rule="evenodd" image-rendering="optimizeQuality" shape-rendering="geometricPrecision"><path fill="#fefefe" stroke="#20672c" stroke-miterlimit="3" stroke-width="20" d="M0 0h690v690H0z"/><path fill="#20672c" d="M435 170c-18-25 1-23 25-28l15-4c34-15 27-6 59 1q40 9 62 44c11 16-8 6-16 3-80-32-86 21-121 9-11-5-18-16-24-25m-202 71c81 8 102-76 181-36 24 12 34 32 13 53-8 9-23 13-35 23-15 14-43 33-64 26-18-6-22-26-44-26-21 0 27 42 31 45l8 6c51 14 60-23 94-45 16-9 40-23 37-44-3-25-2-23 25-30 39-10 42-32 91-13 11 4 43 17 38 32-5 13-24 27-37 33-16 9-18 13-31 25-12 11-38 18-53 11l-15-6c-12-3-16 7-2 17 20 16 34 18 59 16 27-2 38 13 48 35 5 12 3 31 3 30-1-1-3 4-7 6-32 23-52 22-88 29-30 5-45-1-73-1l-15-1c-15-3-24-3-40-8-30-8-40-8-70-22-23-11-73-31-72 15 1 23 21 41 39 51 23 11 36 12 59 18 18 5 31 13 49 17 26 6 21 6 48 4 24-1 30 5 58-1 8-2 27-6 34-1 4 3-6 8-9 10-27 23-9 19-48 21-17 1-14 4-23 6-8 2-26-2-29 12q0 4 4 7c7 2 31-1 32 0 7 4-29 46-43 49-35 7-29-2-63 22-9 6-34 9-43 4-9-4-14-9-26-13-34-14-19-10-38-35-7-8-27-25-37-28-38-14-64-7-69-59-2-20-4-21-15-38-8-10-6-16-2-28 11-25 32-18 26-40-4-17-24-12-37-31l-3-5c-12-22-1-17-6-38-2-13-4-12-1-27 1-10 17-66 34-46 8 9 10 7 15-4 7-15 5-18 17-30 6-6 6-5 9-14 8-22 9-29 21-50l10-21c10-23 24-33 44-47 48-32 92-24 136 12 5 5 30 27 12 30-12 2-26 1-7 16 18 14 49 27 62 47 7 11-8 7-12 5-61-17-63-8-114 19-22 12-59 14-73 23l-4 4c-4 5 7 8 11 9m277-129-40 5c-18 4-65 13-73-10-10-26 47-41 63-42 23-1 50 12 53 36q2 6-3 11M261 43q-70 17-107 79c-24 45-7 46-53 89-38 36-48 53-49 107 0 18-4 38 5 53 19 35 15 35 10 72-2 35 13 41 21 72 14 48 23 53 72 62 28 4 37 18 53 42 13 20 15 19 39 28l6 2c28 10 45 19 73 1l4-3c32-21 42-13 69-26q16-7 27-19c22-21 10-30 46-47 30-14 17-28 55-45 28-13 60-19 58-58-1-21 18-24 21-41 2-10-8-23-11-34l-1-4c-9-31-18-30-26-52-17-50 55-38 53-109-2-17-15-33-25-47-27-39-51-22-67-68-10-27-17-35-45-45-60-14-89 38-130 17-40-21-50-35-98-26m8 533c20 2 31-9 45-22 5-4 24-19 12-25-14-8-38 27-63 22-13-5-14-9-24-13-16-8-5 34 30 38m-36-426c26-13 30-26 60-33 9-2 27-7 9-15q-8-3-17-3c-19 2-50 23-64 36q-10 10 1 16zm395 428c-10-10-8 15-18 22-17 12-32 3-33 3-6 2 6 37 38 17 13-8 23-23 15-38zM351 227c0 4-3-3 0-1zm23 6c-1-26-40-12-33 7 5 11 28 13 33-7M257 333c-26 19-26-1-31 2-6 3 2 28 27 21 22-6 24-38 6-25zm273-110c-5 0 1-8 3-3q1 3-3 3m-12 7c1 24 43 9 34-9-5-11-29-11-34 9M112 63c-7-3-10-9-12-6-5 5 5 32 27 18q14-9 9-22c-9 0-12 12-24 10m92 402c-8-13-21-47-21-6 1 9 6 37 21 35q7-2 6-9 0-10-5-18zM576 48c15 10 33-4 28-14-2-5-11 6-22 5q-15-3-6 9m-83 571c-9 4-17 0-15 9 3 11 22 8 18-7v-2l-1-1zm-364 18q-3 0-4 2c-1 6-9-2-10 4 0 0 0 5 2 4 2-2-1 6 9 5 10-4 9-19 3-16zm441-94c-6-8-18 8-6 9q10 1 6-9M95 159c10-5-3-19-6-5q-1 6 6 5m536 319c6 9 11-11 2-6q-4 3-2 6"/></svg>