<svg xmlns="http://www.w3.org/2000/svg" viewBox="0 0 4750 4460" xmlns:v="https://vecta.io/nano"><path d="M1-.5h4748v4461H1" fill="#ffd996"/><linearGradient id="A" gradientUnits="userSpaceOnUse" x1="2375" y1="2617.5" x2="2375" y2="500.5"><stop offset=".001" stop-color="#ec64a5"/><stop offset=".218" stop-color="#934696"/><stop offset=".413" stop-color="#4d368e"/><stop offset=".499" stop-color="#2b318c"/><stop offset="1" stop-color="#87288a"/></linearGradient><path d="M537,500.5h3676v2117H537" fill="url(#A)"/><radialGradient id="B" cx="6156.697" cy="-1197.91" r="1222.062" gradientTransform="matrix(-1.3616 0 0 1.0548 10757.96 3157.0554)" gradientUnits="userSpaceOnUse"><stop offset="0" stop-color="#fdc47b" stop-opacity=".7"/><stop offset=".27" stop-color="#ffcd76" stop-opacity=".509"/><stop offset=".77" stop-color="#ffe562" stop-opacity=".156"/><stop offset=".99" stop-color="#fff453" stop-opacity="0"/></radialGradient><ellipse cx="2375" cy="1893.5" rx="1664" ry="1289" opacity=".65" fill="url(#B)"/><linearGradient id="C" gradientUnits="userSpaceOnUse" x1="2375" y1="1174.5" x2="2375" y2="2732.5"><stop offset="0" stop-color="#fff33b"/><stop offset=".059" stop-color="#ffe029"/><stop offset=".13" stop-color="#ffd217"/><stop offset=".203" stop-color="#fec90e"/><stop offset=".281" stop-color="#fdc70c"/><stop offset=".669" stop-color="#f3903f"/><stop offset=".888" stop-color="#ed683c"/><stop offset="1" stop-color="#e93e3a"/></linearGradient><ellipse cx="2375" cy="1953.5" rx="749" ry="779" fill="url(#C)"/><linearGradient id="D" gradientUnits="userSpaceOnUse" x1="2375" y1="2623.06" x2="2375" y2="3851.05"><stop offset="0" stop-color="#3a3a97"/><stop offset="1" stop-color="#44124b"/></linearGradient><path d="M537,2498.5h3676v1461H537" fill="url(#D)"/><g opacity=".62"><radialGradient id="E" cx="2666.452" cy="2740.12" r="1351.148" gradientTransform="matrix(0.9619 0 0 -0.7217 -189.8603 4471.5103)" gradientUnits="userSpaceOnUse"><stop offset="0" stop-color="#1e1854"/><stop offset=".855" stop-color="#1f55a6" stop-opacity=".9"/></radialGradient><path d="M537 2489.5h3676v9H537" opacity=".53" fill="url(#E)"/><radialGradient id="F" cx="2666.452" cy="2902.95" r="1351.282" gradientTransform="matrix(0.9619 0 0 -0.7217 -189.8603 4471.5103)" gradientUnits="userSpaceOnUse"><stop offset="0" stop-color="#1e1854"/><stop offset=".855" stop-color="#1f55a6" stop-opacity=".9"/></radialGradient><path d="M537 2356.5h3676v40H537" opacity=".53" fill="url(#F)"/><radialGradient id="G" cx="2666.452" cy="2811.541" r="1351.191" gradientTransform="matrix(0.9619 0 0 -0.7217 -189.8603 4471.5103)" gradientUnits="userSpaceOnUse"><stop offset="0" stop-color="#1e1854"/><stop offset=".855" stop-color="#1f55a6" stop-opacity=".9"/></radialGradient><path d="M537 2430.5h3676v25H537" opacity=".53" fill="url(#G)"/><radialGradient id="H" cx="2666.452" cy="3297.19" r="1351.811" gradientTransform="matrix(0.9619 0 0 -0.7217 -189.8603 4471.5103)" gradientUnits="userSpaceOnUse"><stop offset="0" stop-color="#1e1854"/><stop offset=".855" stop-color="#1f55a6" stop-opacity=".9"/></radialGradient><path d="M537 2048.5h3676v86H537" opacity=".53" fill="url(#H)"/><radialGradient id="I" cx="2666.452" cy="3145.781" r="1351.593" gradientTransform="matrix(0.9619 0 0 -0.7217 -189.8603 4471.5103)" gradientUnits="userSpaceOnUse"><stop offset="0" stop-color="#1e1854"/><stop offset=".855" stop-color="#1f55a6" stop-opacity=".9"/></radialGradient><path d="M537 2165.5h3676v71H537" opacity=".53" fill="url(#I)"/><radialGradient id="J" cx="2666.452" cy="3014.37" r="1351.41" gradientTransform="matrix(0.9619 0 0 -0.7217 -189.8603 4471.5103)" gradientUnits="userSpaceOnUse"><stop offset="0" stop-color="#1e1854"/><stop offset=".855" stop-color="#1f55a6" stop-opacity=".9"/></radialGradient><path d="M537 2268.5h3676v56H537" opacity=".53" fill="url(#J)"/></g><path d="M4213 3734.5v-51l-237-186h237v-27h-271l-441-347h513l200 108v-23l-161-85h161v-27h-212l-347-182h391l168 68v-13l-138-55h138v-27h-206l-242-96h320l128 41v-8l-104-33h104v-25h-185l-197-62h269l113 30v-6l-93-24h93v-24h-184l-153-41h231l106 24v-4l-89-20h89v-21h-183l-139-32h200l123 25v-3l-108-21h108v-19l-139-25h139v-16h-230l-155-27h385v-13H537v13h391l-155 27H537v16h144l-140 25h-4v19h113l-113 22v3l128-26h200l-139 32H537v21h94l-94 21v4l112-26h231l-153 41H537v24h98l-98 26v6l118-32h269l-197 62H537v25h110l-110 35v8l134-43h320l-242 96H537v27h144l-144 57v13l173-70h391l-347 182H537v27h167l-167 88v23l205-110h513l-442 347H537v27h242l-242 190v52l297-242h731l-300 463h75l280-463h731l-10 463h75l-10-463h731l280 463h75l-300-463h731l290 237zm-249-638h-497l-232-182h390l339 182zm-639-479l-80-32h200l98 32h-218zm37 21l101 41h-254l-77-41h230zm-53-21h-218l-60-32h200l78 32zm-235 0h-218l-40-32h200l58 32zm40 21l75 41h-254l-52-41h231zm120 65l116 62h-305l-80-62h269zm163 88l178 96h-376l-122-96h320zm-24-26l-119-62h269l155 62h-305zm109-86l-102-41h231l126 41h-255zm78-62l-100-32h200l118 32h-218zm45-51l-94-25h175l108 25h-189zm-15 0h-189l-78-25h175l92 25zm-203 0h-189l-63-25h175l77 25zm-203 0h-189l-47-25h175l61 25zm-203 0h-189l-32-25h175l46 25zm-204 0h-189l-16-25h175l30 25zm23 19l39 32h-218l-20-32h199zm66 53l50 41h-254l-26-41h230zm79 65l77 62h-305l-40-62h268zm108 88l118 96h-376l-62-96h320zm151 123l224 182h-497l-118-182h391zm775-27h-376l-182-96h320l238 96zm27-122h-305l-158-62h269l194 62zm4-86h-254l-128-41h231l151 41zm3-62h-218l-119-32h200l137 32zm-205-51l-109-25h175l123 25h-189zm253-24l139 25h-189l-125-25h175zm-244-44l154 27h-165l-138-27h149zm-161 0l137 27h-165l-121-27h149zm-160 0l120 27h-165l-104-27h149zm-161 0l102 27h-165l-87-27h150zm-160 0l85 27h-165l-69-27h149zm-161 0l68 27h-165l-52-27h149zm-160 0l51 27h-165l-35-27h149zm-161 0l34 27h-165l-18-27h149zm-481 0l-18 27h-165l34-27h149zm-782 119h-218l98-32h200l-80 32zm95-32h200l-60 32h-218l78-32zm99 53l-77 41h-254l101-41h230zm166 65l-80 62h-305l116-62h269zm-224-24l75-41h231l-52 41h-254zm115-62l59-32h200l-40 32h-219zm94-51l46-25h175l-32 25h-189zm-14 0h-189l61-25h175l-47 25zm-204 0h-189l77-25h175l-63 25zm-203 0h-189l92-25h175l-78 25zm-203 0H962l108-25h175l-94 25zm144 19l-100 32H977l118-32h200zm81 53l-102 41h-254l126-41h230zm125 65l-119 62h-305l155-62h269zm177 88l-122 96h-376l178-96h320zm264 123l-118 182h-497l224-182h391zm-358-27l118-96h320l-62 96h-376zm149-122l77-62h269l-40 62h-306zm107-86l50-41h231l-26 41h-255zm76-62l39-32h200l-20 32h-219zm62-51l30-25h175l-16 25h-189zm73-68l-35 27h-165l51-27h149zm-160 0l-52 27h-165l68-27h149zm-161 0l-69 27h-166l85-27h150zm-160 0l-87 27h-165l102-27h150zm-161 0l-104 27h-165l120-27h149zm-161 0l-121 27H962l137-27h149zm-309 0h149l-138 27H785l154-27zm-384 68l139-25h175l-125 25H555zm204 0l123-25h175l-109 25H759zm-17 51l138-32h200l-119 32H742zm3 62l151-41h231l-128 41H745zm5 86l194-62h269l-158 62H750zm26 122l238-96h320l-182 96H776zm16 209l339-182h391l-232 182H792zm790 374H867l427-347h513l-225 347zm769 0h-715l210-347h513l-8 347zm8-374h-497l110-182h391l-4 182zm5-209h-376l58-96h320l-2 96zm2-122h-305l38-62h269l-2 62zm2-86h-254l25-41h231l-2 41zm2-62h-218l19-32h200l-1 32zm1-51h-189l15-25h175l-1 25zm1-40h-165l17-27h149l-1 27zm11-28h149l17 27h-165l-1-27zm1 44h175l15 25h-189l-1-25zm1 43h200l19 32h-218l-1-32zm1 53h231l25 41h-254l-2-41zm2 65h269l38 62h-305l-2-62zm2 88h320l58 96h-376l-2-96zm3 123h391l110 182h-497l-4-182zm12 556l-8-347h513l210 347h-715zm769 0l-225-347h513l427 347h-715" opacity=".9" fill="#dd60a4" enable-background="new"/></svg>