<svg xmlns="http://www.w3.org/2000/svg" width="24" height="24" xmlns:v="https://vecta.io/nano"><path d="M0 0h24v24H0z" fill="#f13516"/><path d="M1.46 1.5h21v21h-21z"/><path d="M2.87 13.8c0-.9 5.53 2.62 9.45 2.62s8.98-3.53 8.98-2.62c0 4.1-6.59 6.57-9.18 6.57-3.11.01-9.25-2.53-9.25-6.57z" fill="#007a3c"/><path d="M3.15 14.26c-.14-.79 5.46.9 8.73.9s8.93-1.36 8.93-.9c0 .45-2.02 3.7-8.93 3.7-6.13 0-8.43-2.05-8.73-3.7z"/><path d="M3.85 9.21c.97-3.59 5.52-5.58 8.03-5.58 2.31 0 7.45 1.61 8.45 6.19 1.11 5.07-4.12 3.35-8.34 3.35s-9.64 1.6-8.14-3.96z" fill="#00793a"/><path d="M3.65 14.21c-.1-.4 8.41-2.82 8.41-2.82l8.2 2.66c.18 1.05-1.62 1.44-8.06 1.44-6.28 0-8.24.04-8.55-1.28z" fill="#007a3c"/><path d="M19.8 8.87c.37-1.76-5.22-2.28-5.91-2.1-1.71.45-1.89 2.38-.6 3.96 1.13 1.39 4.6 3.42 6.09 3.59 4.38.5 0-3.47.42-5.45z" fill="#00441f"/><path d="M4.27 8.72c-.37-1.76 5.23-2.28 5.92-2.1 1.71.45 1.76 2.22.6 3.96-1.47 2.21-4.61 3.34-6.09 3.59-4.55.76-.01-3.47-.43-5.45z" fill="#004420"/><path d="M19.88 11.39c-.4-1.38-.96-2.81-2.66-3.1-1.69-.28-3.53-.65-3.75.53s1.77 3.18 3.35 3.71c1.33.46 3.6.74 3.06-1.14zm-15.75-.01c.4-1.38.96-2.81 2.66-3.1 1.69-.28 3.53-.65 3.75.53s-1.77 3.18-3.34 3.71c-1.34.45-3.61.74-3.07-1.14zm5.94 1.41c0-.67.78-1.16 1-1.2.54-.11.92-.01.78 1.2-.08.66-.1.99-.78 1.01-.55.02-1-.35-1-1.01zm3.94.03c0-.67-.78-1.16-1-1.2-.54-.11-.92-.01-.78 1.2.08.66.1.99.78 1.01.55.02 1-.35 1-1.01z"/><g fill="#fff"><path d="M12.23 16.55c-.28-.19.06-1.02.06-1.02h1.97s.25.81 0 1.02c-.32.26-1.67.24-2.03 0z"/><path d="M14.47 16.55c-.24-.19-.05-1.03-.05-1.03l1.74-.03s.27.86.06 1.06c-.28.26-1.44.24-1.75 0z"/><path d="M16.36 16.39c-.16-.16.06-.94.06-.94l1.14-.07s.09.75-.05.93c-.18.22-.95.29-1.15.08z"/><path d="M17.64 16.21c-.16-.17.06-.86.06-.86l.92-.12s.2.51.06.7c-.18.24-.83.5-1.04.28z"/><path d="M18.82 15.74c-.14.02.02-.55.02-.55l.59-.17-.06.28c-.01 0-.1.39-.55.44zm-6.83.81c.28-.19 0-1.02 0-1.02H9.97s-.25.81 0 1.02c.32.26 1.66.24 2.02 0zm-2.25-.07c.23-.23.02-.95.02-.95H8.24s-.46.75-.24.99c.28.31 1.45.25 1.74-.04z"/><path d="M7.86 16.39c.16-.16.12-.85.12-.85l-1.21-.05s-.2.64-.06.82c.19.22.95.29 1.15.08z"/><path d="M6.58 16.26c.16-.17 0-.8 0-.8l-.92-.08s-.26.41-.12.6c.18.24.84.5 1.04.28z"/><path d="M5.4 15.92c.14.02.1-.54.1-.54l-.65-.12.01.15c-.01 0 .09.45.54.51zm8.1 1.94s-.2-.5-.04-.67c.15-.16.71-.18.84 0 .14.19-.03.59-.03.59l-.77.08z"/><path d="M14.54 17.73s-.23-.4-.09-.55c.13-.14.63-.16.74 0 .12.17-.02.46-.02.46l-.63.09z"/><path d="M15.42 17.57s-.21-.3-.08-.4c.12-.1.64-.13.7 0 .09.19.03.25.03.25l-.65.15zm-3.06.33s-.28-.63-.11-.8c.15-.16.88-.15 1.05 0 .18.17-.17.75-.17.75l-.77.05zm-1.48 0s.31-.43.08-.75c-.12-.18-.7-.21-.84-.04-.15.18.1.74.1.74l.66.05zm-.9-.09s.12-.39-.02-.54c-.13-.14-.63-.16-.74 0-.12.17.08.45.08.45l.68.09z"/><path d="M9.06 17.67s.21-.28.08-.38c-.12-.1-.66-.14-.7 0-.06.25.08.27.08.27l.54.11zm2.96.23s.3-.6.15-.78c-.15-.16-.88-.18-1.05-.03-.19.16.08.81.08.81h.82z"/></g><path d="M17 8.54l-.22 1.31h.45zm0 3.6l.23-1.31h-.45zm1.68-1.82l-1.22-.24v.49zm-3.36 0l1.23.25v-.49z" fill="#f33315"/><g fill="none" stroke="#f13616" stroke-width=".5"><circle cx="6.98" cy="10.32" r=".65"/><circle cx="17" cy="10.34" r=".65"/></g><path d="M6.98 8.54l-.22 1.31h.45zm0 3.6l.23-1.31h-.45zm1.68-1.82l-1.22-.24v.49zm-3.36 0l1.23.25v-.49z" fill="#f33315"/><path d="M12.05 13.96l-.54.58h1.08z"/><path d="M12.05 15.12l.54-.58h-1.08zm-2.98-2.65l-.36.38h.72z"/><path d="M9.07 13.24l.36-.39h-.72zm-1.01-.13l-.24.25h.48z"/><path d="M8.06 13.62l.24-.26h-.48zm-1.02-.01l-.18.19h.35z"/><path d="M7.04 13.99l.17-.19h-.35zm7.94-1.52l.36.38h-.72z"/><path d="M14.98 13.24l-.36-.39h.72zm1.02-.13l.24.25h-.48z"/><path d="M16 13.62l-.24-.26h.48zm1.02-.01l.17.19h-.35z"/><path d="M17.02 13.99l-.18-.19h.35zm-2.1-8.66l.49.63h-.99z"/><path d="M14.92 6.6l-.5-.64h.99zm1.64-.64l.33.43h-.66z"/><path d="M16.56 6.81l-.33-.42h.66zm1.34-.42l.24.31h-.48z"/><path d="M17.9 7.02l-.24-.32h.48zM9.11 5.24l-.5.63h.99z"/><path d="M9.11 6.51l.49-.64h-.99zm-1.64-.64l-.33.43h.65z"/><path d="M7.47 6.72l.32-.42h-.65zM6.13 6.3l-.25.31h.49z"/><path d="M6.13 6.93l.24-.32h-.49zm6.73 7.02l3.11.18c.79.09 3.13.57 3.13.57l-3.15.32-3.09.11v-1.18zm-1.62 0l-3.11.18c-.79.09-3.13.57-3.13.57l3.15.32 3.09.11v-1.18zm2.26-9.76s.89.13 1.9.54c1 .42 1.74.96 1.74.96s-.89-.13-1.9-.54-1.74-.96-1.74-.96zm-2.88 0s-.89.13-1.9.54c-1 .42-1.74.96-1.74.96s.89-.13 1.9-.54 1.74-.96 1.74-.96z"/><text transform="translate(20.862 22.293)" fill="#f03717" font-family="AcademyEngravedLetPlain" font-size=".239">HNFT PEPE</text><path d="M19.26 16.52v.23l-.97.83-1.22.65-.95.37-1.15.28-1.47.15.94-.18 1.08-.2.98-.3 1.05-.47 1.01-.66z"/><path d="M18.27 17.46s-.55-.23-.75-.24c-.25 0-.97.27-.97.27s.58.27.78.27c.25.01.94-.3.94-.3zm-1.46.85s-.44-.37-.61-.43c-.23-.07-.98-.01-.98-.01s.45.42.64.48c.21.07.95-.04.95-.04zm-1.44.42s-.24-.32-.35-.38c-.14-.08-.68-.11-.68-.11s.23.36.36.42c.14.07.67.07.67.07zm-.95.16s-.1-.18-.16-.22c-.07-.05-.36-.08-.36-.08s.1.2.16.24c.07.04.36.06.36.06zm.66-.09s-.25.1-.31.16c-.07.08-.17.4-.17.4s.27-.09.33-.16c.07-.08.15-.4.15-.4z"/><path d="M16.08 18.57s-.31.13-.39.2c-.09.1-.23.49-.23.49s.34-.12.42-.2c.09-.09.2-.49.2-.49zm1.42-.63s-.37.19-.45.29c-.11.13-.26.62-.26.62s.4-.19.49-.29c.1-.13.22-.62.22-.62zM4.85 16.85v.23l1.01.79 1.24.6.96.34 1.16.23 1.48.09-.95-.14-1.09-.16-.99-.26-1.06-.43-1.04-.62z"/><path d="M5.87 17.75s.54-.25.74-.26c.25-.01.98.23.98.23s-.57.3-.77.3c-.25.02-.95-.27-.95-.27zm1.49.79s.42-.39.6-.45c.22-.08.98-.04.98-.04s-.43.44-.62.5c-.22.07-.96-.01-.96-.01zm1.45.37s.22-.33.34-.4c.14-.08.68-.14.68-.14s-.22.37-.34.43c-.14.09-.68.11-.68.11zm.96.12s.09-.19.15-.23c.07-.05.35-.1.35-.1s-.09.21-.15.25c-.06.05-.35.08-.35.08zm-.66-.07s.25.09.31.15c.08.07.19.39.19.39s-.28-.08-.34-.14c-.07-.08-.16-.4-.16-.4z"/><path d="M8.1 18.77s.32.12.39.19c.1.09.25.48.25.48s-.34-.11-.42-.19c-.09-.08-.22-.48-.22-.48zm-1.44-.57s.38.18.46.27c.11.12.28.61.28.61s-.4-.17-.5-.28c-.11-.12-.24-.6-.24-.6z"/><ellipse cx="11.99" cy="5.55" rx=".62" ry=".61"/><path d="M12.23 5.98s.4.71.27.87c-.15.18-.91.18-1.04 0-.12-.18.26-.79.26-.79l.51-.08zm-.42-.85s-.49-.64-.35-.8c.15-.18.91-.18 1.05 0 .12.18-.27.79-.27.79l-.43.01z"/><path d="M11.46 5.5s-.79-.01-.86-.21c-.07-.21.35-.79.58-.77.21.01.51.66.51.66l-.23.32z"/><path d="M11.66 5.93s-.39.67-.6.64c-.22-.04-.54-.67-.42-.86.11-.18.83-.12.83-.12l.19.34zm.66-.7s.31-.72.51-.7c.23.02.62.61.52.81-.09.19-.81.22-.81.22l-.22-.33z"/><path d="M12.51 5.66s.79-.08.88.11c.09.21-.26.83-.49.84-.22.01-.58-.6-.58-.6l.19-.35z"/><path d="M12.14 19.4l-.35.7h.7zm0-.37l.35-.7h-.7zm.8-.15l-.35.7h.7z" fill="none" stroke="#000" stroke-width=".1" stroke-miterlimit="10"/><path d="M12.59 19.13h.7v.09h-.7z"/><path d="M11.39 19.55l.35-.7h-.7z" fill="none" stroke="#000" stroke-width=".1" stroke-miterlimit="10"/><path d="M11.732 19.284h-.7v-.09h.7z"/></svg>