<svg xmlns="http://www.w3.org/2000/svg" width="400" height="560" xmlns:v="https://vecta.io/nano"><path d="M0 0h400v560H0z"/><path d="M20 523.73V36.27A10.17 10.17 0 0 1 30.17 26.1h339.66A10.17 10.17 0 0 1 380 36.27v487.45a10.17 10.17 0 0 1-10.17 10.17H30.17A10.16 10.16 0 0 1 20 523.73z" fill="#fc1a05"/><path d="M42 347.35h316v172H42z" fill="#f3fb2e"/><path d="M42 44.64h316v473.43H42z" fill="none" stroke="#000" stroke-width="5" stroke-miterlimit="10"/><radialGradient id="A" cx="180.817" cy="217.298" r="210.076" gradientTransform="matrix(1.1328 0 0 0.8028 -5.4203 49.9637)" gradientUnits="userSpaceOnUse"><stop offset="0" stop-color="#736453"/><stop offset=".084" stop-color="#605345"/><stop offset=".26" stop-color="#3d352c"/><stop offset=".439" stop-color="#221e19"/><stop offset=".62" stop-color="#0f0d0b"/><stop offset=".805" stop-color="#040303"/><stop offset="1"/></radialGradient><path d="M40.82,77.21H358V332.7H40.82V77.21z" fill="url(#A)"/><path d="M25 354.52h0c0-13.25 10.75-24 24-24h302c13.25 0 24 10.75 24 24h0c0 13.25-10.75 24-24 24H49c-13.25 0-24-10.74-24-24z"/><path d="M31.18 355.52v-2a18.5 18.5 0 0 1 18.5-18.5h300.65a18.5 18.5 0 0 1 18.5 18.5v2a18.5 18.5 0 0 1-18.5 18.5H49.68a18.5 18.5 0 0 1-18.5-18.5z" fill="#fc1a05"/><path d="M35.81 354.52h0a16 16 0 0 1 16-16h296.38a16 16 0 0 1 16 16h0a16 16 0 0 1-16 16H51.81a16 16 0 0 1-16-16z" fill="#f3f2e9"/><path d="M25 57.71h0c0-13.25 10.75-24 24-24h302c13.25 0 24 10.75 24 24h0c0 13.25-10.75 24-24 24H49c-13.25 0-24-10.75-24-24z"/><path d="M31.18 58.71v-2a18.5 18.5 0 0 1 18.5-18.5h300.65a18.5 18.5 0 0 1 18.5 18.5v2a18.5 18.5 0 0 1-18.5 18.5H49.68c-10.22 0-18.5-8.29-18.5-18.5z" fill="#fc1a05"/><path d="M35.81 57.71h0a16 16 0 0 1 16-16h296.38a16 16 0 0 1 16 16h0a16 16 0 0 1-16 16H51.81c-8.84 0-16-7.17-16-16z" fill="#f3f2e9"/><text transform="matrix(1.0294 0 0 1 100.7613 69.8683)" font-family="AcademyEngravedLetPlain" font-size="35.163">THE PUNK</text><text transform="matrix(.8327 0 0 1 84.5148 359.7607)" font-family="ArialMT" font-size="19.648">= 22   Atk = 85  Spd = 72  Ele = ape</text><g fill="#e30206"><path d="M72.79 363.99l.18-15.82s-4.34-5.6-7.76-1.79c-4.39 4.88 7.58 17.61 7.58 17.61z"/><path d="M72.69 363.72l-.47-15.56h1.28v14.65z"/><path d="M72.79 363.99l.1-15.82s4.34-5.6 7.76-1.79c4.41 4.88-7.86 17.61-7.86 17.61z"/></g><path d="M71.41 518.07l20-46.24h216l20 46.24z"/><path d="M87.91 525.51l10.67-45.06h201.66l11.67 46z" fill="#fc1a05"/><text transform="matrix(1.0294 0 0 1 99.6579 514.8252)" font-family="Impact" font-size="26.924">THE UNPRUNABLES</text><g fill="#4f4739"><path d="M123.41 295.72h152v27.31h-152v-27.31zm19.34-96.52h113.31v69.21H142.75V199.2z"/><path d="M177.07,265.45h44.33v57.58h-44.33V265.45z"/></g><path d="M153.46,152.04h91.55v47.16h-91.55V152.04z" fill="#504739"/><g fill="#736453"><path d="M164.63,162.46h69.32v61.09h-69.32V162.46z"/><path d="M154.73,204.25h89.24v59.23h-89.24V204.25z"/></g><path d="M167.17,142.17h63.91v13.71h-63.91V142.17z" fill="#4f4739"/><path d="M158.88,223.55h80.49v27.97h-80.49V223.55z" fill="#c51d0b"/><path d="M166.48,229.26h64.83v16.45h-64.83V229.26z"/><path d="M178.8 211.38h12.67v6.58H178.8v-6.58zm27.98 0h12.67v6.58h-12.67v-6.58z" fill="#4f4739"/><path d="M180.18,229.26h11.28v10.75h-11.28V229.26z" fill="#f0e1ae"/><path d="M199.41 92.59l-8.29 54.84h16.47l-8.18-54.84z" fill="#f62c94"/><path d="M177.07,279.82h44.33v10.97h-44.33V279.82z"/><g fill="#828282"><path d="M199.41 289.69l2.88-3.84h-5.76l2.88 3.84z"/><path d="M199.41 282.01l-2.88 3.84h5.76l-2.88-3.84zm-14.4 7.68l2.88-3.84h-5.76l2.88 3.84z"/><path d="M185.01 282.01l-2.88 3.84h5.76l-2.88-3.84zm28.79 7.68l2.88-3.84h-5.76l2.88 3.84z"/><path d="M213.8 282.01l-2.88 3.84h5.76l-2.88-3.84z"/></g><ellipse cx="199.06" cy="224.76" rx="13.24" ry="12.07" fill="none" stroke="#828382" stroke-width="3.933"/><path d="M191.46 210.06h15.32v8.23h-15.32v-8.23z" fill="#726453"/><path d="M156.8 295.72h16.12v27.97H156.8v-27.97zm69.09 0h16.12v29.07h-16.12v-29.07z"/><path d="M172.81 295.72l-18.31 32.79 44.91-5.48-26.6-27.31z"/><path d="M225.89 295.72l-26.48 27.31 42.61 7.13-16.13-34.44z"/><path d="M170.05 183.74l5.64-5.16 17.62 5.16-18.31-7.35-4.95 7.35zm61.03.11l-5.64-5.81-17.62 5.81 18.19-8.23 5.07 8.23z" fill="#4f4739"/><path d="M153.46 192.29h91.55v6.91h-91.55v-6.91z"/><ellipse cx="179.26" cy="194.38" rx="13.47" ry="12.83" fill="#555655"/><ellipse cx="179.26" cy="194.38" rx="12.44" ry="11.85"/><g fill="#828382"><path d="M184.44 176.83l-2.65 5.59 2.19.55.46-6.14zm11.51 2.19l-8.41 6.03 2.07 1.97 6.34-8zm-34.2.88l8.64 5.59-1.84 2.08-6.8-7.67z"/><path d="M195.95 179.02l-8.41 6.03 2.07 1.97 6.34-8zm-34.2.88l8.64 5.59-1.84 2.08-6.8-7.67zm12.56-3.07l2.65 5.59-2.19.55-.46-6.14zm-1.85 34.77l1.15-6.03 2.19.77-3.34 5.26zm-10.71-2.52l8.64-5.59-1.84-2.08-6.8 7.67z"/><path d="M161.75 209.08l8.64-5.59-1.84-2.08-6.8 7.67z"/></g><ellipse cx="218.98" cy="194.38" rx="13.47" ry="12.83" fill="#555655"/><ellipse cx="218.98" cy="194.38" rx="12.44" ry="11.85"/><g fill="#828382"><path d="M213.8 176.83l2.65 5.59-2.19.55-.46-6.14zm-11.4 2.19l8.29 6.03-2.07 1.97-6.22-8zm34.09.88l-8.64 5.59 1.96 2.08 6.68-7.67z"/><path d="M202.4 179.02l8.29 6.03-2.07 1.97-6.22-8zm34.09.88l-8.64 5.59 1.96 2.08 6.68-7.67zm-12.55-3.07l-2.65 5.59 2.3.55.35-6.14zm1.84 34.77l-1.15-6.03-2.19.77 3.34 5.26zm10.71-2.52l-8.64-5.59 1.96-2.08 6.68 7.67z"/><path d="M236.49 209.08l-8.64-5.59 1.96-2.08 6.68 7.67z"/></g><path d="M242.01 323.04h33.39v6.58h-33.39v-6.58zm-118.6 0h33.39v6.58h-33.39v-6.58z"/><path d="M156.8 323.04h85.21v7.48H156.8z"/><path d="M242.07 295.72h33.34v34.8h-33.34zm-118.66.55h33.34v34.25h-33.34z" fill="#4f4739"/><text><tspan font-family="Arial-BoldMT" font-size="30.38" x="87.764" y="415.051">“SMELLS LIKE  </tspan><tspan x="98.724" y="451.511" font-family="Arial-BoldMT" font-size="30.38">TEEN SPIRIT”</tspan></text></svg>