<svg xmlns="http://www.w3.org/2000/svg" width="24" height="24" xmlns:v="https://vecta.io/nano"><path d="M0 0h24v24H0z"/><path d="M1 1h22v22H1z" fill="#9e3291"/><text transform="translate(21.497 22.879)" font-family="AcademyEngravedLetPlain" font-size=".239">HNFT PEPE</text><g fill="#36a2cb"><path d="M18.58 20.51c.44.44 0 2.49 0 2.49H5.46s-.39-2 0-2.49c2.06-2.55 10.8-2.32 13.12 0zM7.95 11.87c1.43-1.49 6.84-1.64 8.11 0 .65.83.79 3.59 0 4.27-1.56 1.34-6.66 1.48-8.11 0-.74-.74-.73-3.51 0-4.27z"/><path d="M10.09 16.45h3.85V23h-3.85zM8.05 4.97c1.41-1.91 6.7-2.1 7.95 0 .81 1.36 0 7 0 7H8.05c0-.01-.91-5.77 0-7z"/></g><path d="M8.78 14.97c-.19-.19-.08-1.41.1-1.6 1.3-1.41 5.33.26 6.35.95.22.15.13.46-.05.65-1.12 1.14-5.27 1.13-6.4 0z" fill="#f82f15"/><path d="M14.79 22.3h.75v.7h-.75z" fill="#2c7894"/><path d="M8.49 22.3h.75v.7h-.75z" fill="#2b7795"/><path d="M9.75 14.39c0-.16.57-.4 1.23-.28.7.12 1.69.3 1.92.46.17.12-1.12.12-1.92.11-.68-.01-1.23-.14-1.23-.29z"/><path d="M6.04 16.66l.87.86 3.73-2.85s.23-.15.23-.27c0-.09-.14-.17-.18-.17-.13 0-.23.04-.23.04l-4.42 2.39z" fill="#fff"/><linearGradient id="A" gradientUnits="userSpaceOnUse" x1="5.904" y1="17.514" x2="6.261" y2="17.158"><stop offset="0" stop-color="#690d04"/><stop offset="1" stop-color="#072c0e"/></linearGradient><path d="M6.04 16.66l.86.85-.61.46-.91-.93z" fill="url(#A)"/><radialGradient id="B" cx="11.924" cy="8.763" r="2.318" gradientTransform="matrix(1.0462 0 0 0.9003 -0.4747 0.5863)" gradientUnits="userSpaceOnUse"><stop offset="0" stop-color="#128d8b"/><stop offset="1"/></radialGradient><circle cx="12" cy="8.48" r="2.65" fill="url(#B)"/><g opacity=".451" fill="#2d2e2e"><path d="M12.84 9.47h-1.69 0v.16h0 1.69 0v-.16h0zm.09-.49h-1.85v.42h1.85v-.42z"/><path d="M12.23 7.8h-.45V9h.45V7.8z"/><path d="M12 7.33l-.49.36.19.58h.61l.19-.58c-.01 0-.5-.36-.5-.36zM12 9l.21.2.22-.21-.21-.2L12 9zm-.22-.21l-.21.2.22.21L12 9l-.22-.21h0z"/></g><path d="M5.01 10.82h.9v4.8h-.9z" fill="#5a6163"/></svg>