<svg xmlns="http://www.w3.org/2000/svg" width="360" height="280" viewBox="0 0 36 28" fill="none" xmlns:v="https://vecta.io/nano"><g fill-rule="evenodd"><path d="M0 0h3v1h30V0h3v3h-1v22h1v3h-3v-1H3v1H0v-3h1V3H0V0Z" fill="#ffa600"/><path d="M1 1h1v1H1V1Zm3 3H2V2h2v2Zm0 0h1v1H4V4Zm31-3h-1v1h-2v2h-1v1h1V4h2V2h1V1ZM2 27H1v-1h1v1Zm2-3v2H2v-2h2Zm0 0v-1h1v1H4Zm31 3h-1v-1h1v1Zm-3-3h2v2h-2v-2Zm0 0h-1v-1h1v1Zm-1 2H5v-1h26v1ZM5 3h26V2H5v1Zm29 2v18h-1V5h1ZM2 23V5h1v18H2ZM4 6h1v16H4V6Zm26-2H6v1h24V4ZM6 23h24v1H6v-1ZM32 6h-1v16h1V6Z" fill="#996300"/></g><path fill="#ccc" d="M6 6h24v16H6z"/><g fill="#4d4d4d"><path d="M30 6H6v1h24V6z"/><path d="M23 7H6v1h17V7z"/><path d="M16 8H6v1h10V8z"/><path d="M14 9H6v1h8V9z"/><path d="M12 10H6v1h6v-1z"/><path d="M10 11H8v1h2v-1z"/><path d="M9 12H8v1h1v-1zm-1 4H6v2h2v-2z"/><path d="M7 18H6v2h1v-2zm7 0h-2v2h2v-2zm-1-3h-2v1h2v-1zm10-2h-2v1h2v-1z"/><path d="M24 14h-1v1h1v-1zm-13 2h-1v1h1v-1zm10 4h-5v2h5v-2zm1-4h-2v2h2v-2zm3 5h-1v1h1v-1z"/><path d="M26 20h-1v1h1v-1zM23 8h-3v1h3V8zm7-1h-4v1h4V7z"/><path d="M30 8h-3v9h3V8z"/><path d="M30 22h-1v-5h1v5z"/><path d="M29 18h-1v-1h1v1zm-2-6h-2v-1h2v1z"/><path d="M27 15h-1v-3h1v3z"/></g></svg>