<svg xmlns="http://www.w3.org/2000/svg" width="400" height="560" xmlns:v="https://vecta.io/nano"><path d="M0 0h400v560H0z"/><path d="M20 523.73V36.27A10.17 10.17 0 0 1 30.17 26.1h339.66A10.17 10.17 0 0 1 380 36.27v487.45a10.17 10.17 0 0 1-10.17 10.17H30.17A10.16 10.16 0 0 1 20 523.73z" fill="#fc1a05"/><path d="M42 347.35h316v172H42z" fill="#3c6ca8"/><path d="M42 44.64h316v473.43H42z" fill="none" stroke="#000" stroke-width="5" stroke-miterlimit="10"/><radialGradient id="A" cx="184.206" cy="263.122" r="155.629" gradientTransform="matrix(1.1328 0 0 0.9786 -5.4203 7.6094)" gradientUnits="userSpaceOnUse"><stop offset="0" stop-color="#ccaa24"/><stop offset="1"/></radialGradient><path d="M40.82,77.21H358V332.7H40.82V77.21z" fill="url(#A)"/><path d="M25 354.52h0c0-13.25 10.75-24 24-24h302c13.25 0 24 10.75 24 24h0c0 13.25-10.75 24-24 24H49c-13.25 0-24-10.74-24-24z"/><path d="M31.18 355.52v-2a18.5 18.5 0 0 1 18.5-18.5h300.65a18.5 18.5 0 0 1 18.5 18.5v2a18.5 18.5 0 0 1-18.5 18.5H49.68a18.5 18.5 0 0 1-18.5-18.5z" fill="#fc1a05"/><path d="M35.81 354.52h0a16 16 0 0 1 16-16h296.38a16 16 0 0 1 16 16h0a16 16 0 0 1-16 16H51.81a16 16 0 0 1-16-16z" fill="#f3f2e9"/><path d="M25 57.71h0c0-13.25 10.75-24 24-24h302c13.25 0 24 10.75 24 24h0c0 13.25-10.75 24-24 24H49c-13.25 0-24-10.75-24-24z"/><path d="M31.18 58.71v-2a18.5 18.5 0 0 1 18.5-18.5h300.65a18.5 18.5 0 0 1 18.5 18.5v2a18.5 18.5 0 0 1-18.5 18.5H49.68c-10.22 0-18.5-8.29-18.5-18.5z" fill="#fc1a05"/><path d="M35.81 57.71h0a16 16 0 0 1 16-16h296.38a16 16 0 0 1 16 16h0a16 16 0 0 1-16 16H51.81c-8.84 0-16-7.17-16-16z" fill="#f3f2e9"/><text transform="matrix(1.0294 0 0 1 119.5616 69.8584)" font-family="AcademyEngravedLetPlain" font-size="35.163">THE ONE</text><text transform="matrix(.8327 0 0 1 72.271 359.7602)" font-family="ArialMT" font-size="19.648">= 3.14   Atk = 369  Spd = 333  Ele = gold</text><g fill="#e30206"><path d="M60.55 363.99l.18-15.82s-4.34-5.6-7.76-1.79c-4.39 4.88 7.58 17.61 7.58 17.61z"/><path d="M60.45 363.72l-.47-15.56h1.27v14.65z"/><path d="M60.55 363.99l.1-15.82s4.34-5.6 7.76-1.79c4.4 4.88-7.86 17.61-7.86 17.61z"/></g><g stroke-miterlimit="10" fill="#ccaa24" stroke="#b59319"><path d="M124.16,300.73h150.5V325h-150.5V300.73z" stroke-width="10.961"/><g stroke-width="11.046"><path d="M177.46,276.47h44.92V325h-44.92V276.47z"/><path d="M142.58,227.84h114.8v48.74h-114.8V227.84z"/><path d="M153.43 177.95h92.75v50.2h-92.75v-50.2z"/></g></g><path d="M159.38 215.5h81.08v21.44h-81.08V215.5zm-30.22 90.04h141.17v24.68H129.16v-24.68z" fill="#ccaa24"/><path d="M216.66 268.63v61.18h-33.83v-61.18h33.83z" fill="#ccaa24"/><g fill="#b5931e"><path d="M226.34 167.18h-53.2 0v3.66h0 53.2 0v-3.66zm2.57-11.29h-58.33v9.73h58.33v-9.73z"/><path d="M206.86,128.28h-14.23v27.92h14.23V128.28z"/><path d="M199.74 117.29l-15.4 8.37 5.83 13.6h19.13l5.95-13.6c-.11 0-15.51-8.37-15.51-8.37zm0 39.01l6.65 4.71 7-4.92-6.65-4.71-7 4.92zm-7-4.91l-6.65 4.71 7 4.92 6.65-4.71-7-4.92h0z"/></g><path d="M162.41,258.9h75.83v2.41h-75.83V258.9z" fill="#fc2812"/><g fill="#b5931e"><path d="M227.63 199.6l-20.18 8.99 2.33 2.93 17.85-11.92zm-9.57-8.26l-13.07 11.29 3.27 2.09 9.8-13.38zm-11.2-7.84l-6.07 14.85 3.97.73 2.1-15.58zm-14.58.52l2.92 16.42 3.97-.84-6.89-15.58zm-7.47 7.01l7.12 15.48 3.73-1.46-10.85-14.02zm-10.03 3.03l13.88 19.24 2.57-1.46-16.45-17.78zm-8.29 14.12l13.65 14.64 2.33-1.78-15.98-12.86zm-4.08 12.02l14.35 12.97 3.62-3.66-17.97-9.31zm-.58 10.67l11.55 6.8 1.52-2.3-13.07-4.5zm-4.44 20.29l14.58-10.56-2.33-1.78-12.25 12.34zm16.92-1.67l7.23-10.14-2.8-1.05-4.43 11.19zm8.17 3.45l6.53-11.92-2.92-.94-3.61 12.86zm15.51-1.47l3.73-13.18h-7.58l3.85 13.18zm19.72 3.46l-5.6-17.05-3.85 1.26 9.45 15.79zm27.3-14.44l-22.98-10.04-1.63 3.03 24.61 7.01zm-17.38 7.95l-2.92-10.25-5.72 2.51 8.64 7.74zm-50.75-40.79l7.82 10.14 3.5-2.61-11.32-7.53zm47.13 2.41l-11.9 4.5 2.33 2.82 9.57-7.32zm15.4.1l-23.33 11.29 1.63 1.99 21.7-13.28z"/><path d="M237.43 222.92l-20.07 2.72 2.68 5.96 17.39-8.68z"/></g><path d="M199.74,194.9l-30.33,46.43h60.67L199.74,194.9z" fill="#fff" stroke="#000" stroke-width="2.762" stroke-miterlimit="10"/><path d="M179.09 224.7l5.37-2.82 3.97-1.78c1.17-.73 3.85-1.88 5.37-2.3 1.52-.31 4.55-.73 6.07-.73 1.98.1 6.07.73 7.93 1.36 1.52.52 4.08 2.2 5.48 2.93 1.4.84 5.95 3.03 5.95 3.03l-1.17 2.82-4.78-3.35c-1.17-.84-4.78-3.14-6.18-3.56-2.24-.63-4.55-1.05-6.88-1.26-1.52 0-4.43.21-5.83.63-1.17.31-3.03 1.46-4.08 2.09l-4.9 2.61c-.58.42-2.1 1.88-2.1 1.88l-2.92.42c-.01.02-1.3-1.97-1.3-1.97z"/><path d="M181.78 225.12l3.03 2.09c.7.63 2.45 1.57 3.27 1.99l4.32 2.72c1.33.64 2.74 1.13 4.2 1.46 1.17.21 3.62.42 4.9.31s3.85-.52 4.9-1.05a39.46 39.46 0 0 0 4.67-2.51c1.05-.73 2.33-1.99 3.5-2.61l2.33-1.25 2.22-.84 1.28 2.2-1.98.94c-.93.31-2.45 1.36-3.27 1.88l-4.43 2.51c-1.17.52-2.45 1.46-3.73 1.78-1.05.31-4.32.73-5.48.84a34.54 34.54 0 0 1-4.55 0l-3.03-.42a25.98 25.98 0 0 1-4.32-1.78l-2.8-1.78-2.57-1.67-5.25-2.93c-.01 0 2.79-1.88 2.79-1.88z"/><ellipse cx="199.74" cy="226.79" rx="9.45" ry="8.99"/><ellipse cx="199.74" cy="226.69" rx="7.7" ry="6.9" fill="none" stroke="#0b602a" stroke-width="1.105"/><g fill="#fff"><ellipse cx="203.94" cy="224.71" rx="2.33" ry="2.1"/><path d="M157.39 295.18h12.02l73.85 35.34h-89.37l3.5-35.34z"/></g><path d="M71.41 518.07l20-46.24h216l20 46.24z"/><path d="M87.91 525.51l10.67-45.06h201.66l11.67 46z" fill="#fc1a05"/><text transform="matrix(1.0294 0 0 1 99.6579 514.8252)" font-family="Impact" font-size="26.924">THE UNPRUNABLES</text><text><tspan font-family="Arial-BoldMT" font-size="27.682" x="60.798" y="415.23">“Everthing that has a</tspan><tspan x="50.818" y="448.45" font-family="Arial-BoldMT" font-size="27.682">beginning has an end”</tspan></text></svg>