<svg xmlns="http://www.w3.org/2000/svg" viewBox="0 0 2100 2100"><g data-name="Layer 3"><path d="M1079 0H2100v2100H1079" fill="#6bff1d"/><path d="M0 0h1079v2100H0" fill="#ffb600"/><path d="M64 55h1969v1969H64" fill="#222322"/></g><g data-name="Layer 2"><path d="m1407 536 41 9a69 69 0 00 44 0 62 62 0 00 30-28 17 17 0 00 19 0 11 11 0 00 0-12 16 16 0 00 15-13 12 12 0 00 0-10 39 39 0 00 0-22 47 47 0 00-9-19 27 27 0 00 12 0 18 18 0 00 8-6 8 8 0 00 0-6 20 20 0 00 9-21 18 18 0 00-10-13v-13a30 30 0 00-20-14 53 53 0 00-6-28 55 55 0 00-40-35 85 85 0 00-30 8 54 54 0 00-25-19 115 115 0 00-100 30 132 132 0 00-35 100c0 16 8 40 10 49s8 28 11 37l-31 20-100 26-64 76L1100 755l-11 200 46 190 30 21v-65l14 14-14-165 16-143 19-51V670l9 139-10 200 7 118 67 158 17-109-12 117-65 300-490 243 50 64 558-250 51-194 8 215-460 246 27 66 561-267v-249l-25-162-31-100-51 176 43-181 20-147 8-145 66 145V1200l16 19 14-37v47l27-63L1600 1000l-50-190-19-200-31-39Z" fill="#ffb600"/><path d="m937 1594-71-284-12-131 17 121 75-157 11-133-7-340 12 100 12 33 15 147-17 180 16-25-7 70 41-18 44-200V770l-41-140-63-76-109-24-14-25a113 113 0 01 0-35 272 272 0 01 9-49 132 132 0 00-35-100 114 114 0 00-100-30 60 60 0 00-25 19 79 79 0 00-30-8 53 53 0 00-45 19 39 39 0 00-13 31c-14 0-19 10-20 14a53 53 0 00 0 13 18 18 0 00-11 13 21 21 0 00 9 21 39 39 0 01 0 6l22 13a27 27 0 00 13 0 36 36 0 00-10 19 39 39 0 00 0 22 16 16 0 00 0 10 16 16 0 00 6 17 16 16 0 00 0 12 15 15 0 00 18 0 67 67 0 00 30 28 69 69 0 00 44 0l42-9-88 35-46 56L600 810 558 1000l-7 164 26 63v-47l14 37 27-17-9-115 73-207v176L700 1200l35 150L700 1220l-33 142 7 468h-17l-26 22 124 50 34-9-10-412-31-100 95 270 78 256-27 41h-29l-10 19 100 17 82-68Z" fill="#6bff1d"/></g></svg>
