<svg xmlns="http://www.w3.org/2000/svg" width="1000" height="1000"><path d="M0 0h1000v1000H0z"/><path fill="#fff" d="M31.2 31.2h937.5v937.5H31.2z"/><path fill="#ff7a05" d="M70.8 72.9H925v854.2H70.8z"/><text font-family="AcademyEngravedLetPlain" font-size="9.7" transform="translate(866.4 924.5)">HNFT PEPE</text><path fill="#125624" d="M330.6 326.2 682 329l7.1 178.3s-7.6 104.1-18.3 140.7c-8.4 28.5-22.8 70.6-36.8 96.6-13.1 24.4-43.5 60.4-56.5 68.9-17 11.1-58.8 17.6-79 16.8-18.8-.8-54.9-16.3-70.3-27.4-11.2-8-28.8-30.5-36-42.5a570 570 0 0 1-47.4-110.7c-10-38.4-16.9-158.2-16.9-158.2z"/><path fill="#0f8137" d="M344.5 495.6c-.1-38.2 16.7-151.8 16.7-151.8l289.3.5s19.7 112.1 20.1 150c.4 38.5-12.1 123.3-22.3 160.3-9.1 33-24.7 68.3-45.1 92-15.6 18.2-58 54.2-94 54.2-30.9 0-70.8-27.7-87.4-43.7-26-24.9-40.9-67-51.2-101.3-12.1-40.7-25.9-119.6-26.1-160.2"/><path fill="#125624" d="M475.9 755.1c-3.9-2.1 0-11.7 0-11.7h65.4s3.5 9.4 0 11.7c-10.3 6.6-53.9 6-65.4 0"/><path fill="#093818" d="M441 817c-6.6-5.7-5.4-22.4.8-20 47 18.3 92.5 17.8 134.1 5.4 6.3-1.9 5.7 15.2-.8 20-30.5 22.7-100.8 23.5-134.1-5.4M330.6 326.2l351.4 1.4 7.1 92s11.5 89.5-4.3 103.7c-26.1 23.3-51.2-172.5-65.2-159.1-13.1 12.6-56.5-20.2-56.5-20.2l-50.4-.1-78-.3s-36.8 28.1-44 21.9c-15.4-13.3-34 200.5-60.3 161.9-12.4-18.2-2.4-116-2.4-116z"/><path fill="#468e3a" d="m448.5 697.3 116.8-.3s5.9-3.6 4.6-5.6c-3.8-5.7-22.6-6.3-29-9.5-7.4-3.7-11.6-16.6-19.5-15.2-7.3 1.3-7.2 7.5-7.5 11.6-.2 2.1-3 8.7-6.1 9-3.3.3-7-5.2-7.1-7.4-.2-3.5-.7-11.5-7.6-12.9-7.6-1.6-14.3 10.8-21.4 14.4-5.7 2.9-21.9 3.8-26.1 8.7-1.6 2 2.9 7.2 2.9 7.2"/><path fill="#eb3123" d="m487 683.3 21.5 10 18.3-9.2s23.1 2 29.8 5.1c9.4 4.4 32.8 23.4 32.8 23.4s-31.8 34.8-46.4 40.2c-8.3 3.1-34.3 1.7-34.3 1.7s-26.2 1.2-33.8-1.6c-14.8-5.3-48.8-39.5-48.8-39.5s22-20.9 31.6-25.2c6.6-2.8 29.3-4.9 29.3-4.9"/><path d="m499.4 720.5 18.3.1 10.2-4.2 61.4-3.8-59.6 7.4-11.6 5.2-18.5.1-13.2-5.4-59.7-6 62.3 3z"/><path fill="#093818" d="M365.8 487.4c8.7-8 77.5-9.3 89.3-6.3 14.6 3.7 12.4 6.6 22.3 17.4 3.2 3.4 5.3 17 3.3 21.1-2.5 5-13.1 8.8-18.2 11.7-7.9 4.5-23.7 14.7-32.8 16.3-8.1 1.4-25.7.6-32.8-3.2a85 85 0 0 1-26.1-27.9c-3.8-8.2-11.7-23-5-29.1"/><path fill="#0d562b" d="M363.9 496.6c9.4-9.8 40-2.2 52.8 1.5 15.8 4.5 52.1 6.3 62.8 19.4a30 30 0 0 1 3 21.9c-2.7 6.2-13.6 14.7-19.1 18.2-8.5 5.5-25.5 18-35.3 19.9-8.7 1.7-27.7.8-35.3-3.9a98 98 0 0 1-28.1-34.2c-4.3-9.8-8-35.3-.8-42.8"/><path fill="#ebc7c7" d="M381.3 523.3c2.1-6.5 17.7-11.7 24.6-12.9 7.8-1.2 23.9-3.5 31.5-1.3 10.8 3.2 39.2 13.4 37.7 24.3-1.1 8-22.1 12.1-30.3 13.3-9.2 1.3-27.9 6.3-36.8 4.1a58 58 0 0 1-18.9-12.9c-3-3-9.1-10.7-7.8-14.6"/><path d="M407.6 527.5c-.4-4.4-3.5-16.9 3.9-18.2a72 72 0 0 1 28.4 0c6.5 1.9 7.1 13.8 6.7 19.1a21 21 0 0 1-5.7 11.6 34 34 0 0 1-12.2 4.9c-3 0-11.6-2.7-14.2-4.9a27 27 0 0 1-6.9-12.5"/><path fill="#0d562b" d="M482.8 536.9c-14.6 43.2-29.7 87.8-48.5 119.3"/><path fill="#093818" d="M651.2 487.4c-8.7-8-77.5-9.3-89.3-6.3-14.6 3.7-12.4 6.6-22.3 17.4-3.2 3.4-5.3 17-3.3 21.1 2.5 5 13.1 8.8 18.2 11.7 7.9 4.5 23.7 14.7 32.8 16.3 8.1 1.4 25.7.6 32.8-3.2 8.6-4.7 22-19.5 26.1-27.9 3.8-8.2 11.7-23 5-29.1"/><path fill="#0d562b" d="M653.1 496.6c-9.4-9.8-40-2.2-52.8 1.5-15.8 4.5-52.1 6.3-62.8 19.4a30 30 0 0 0-3 21.9c2.7 6.2 13.6 14.7 19.1 18.2 8.5 5.5 25.5 18 35.3 19.9 8.7 1.7 27.7.8 35.3-3.9a98 98 0 0 0 28.1-34.2c4.2-9.8 8-35.3.8-42.8"/><path fill="#ebc7c7" d="M635.7 523.3c-2.1-6.5-17.7-11.7-24.6-12.9-7.8-1.2-23.9-3.5-31.5-1.3-10.8 3.2-39.2 13.4-37.7 24.3 1.1 8 22.1 12.1 30.3 13.3 9.2 1.3 27.9 6.3 36.8 4.1a58 58 0 0 0 18.9-12.9c3-3 9.1-10.7 7.8-14.6"/><path d="M609.3 527.5c.4-4.4 3.5-16.9-3.9-18.2a72 72 0 0 0-28.4 0c-6.5 1.9-7.1 13.8-6.7 19.1.4 4.4 3.7 10.1 5.7 11.6 2.4 1.7 9.4 4.9 12.2 4.9 3 0 11.6-2.7 14.2-4.9a25 25 0 0 0 6.9-12.5"/><path fill="#0d562b" d="M534.2 536.9c14.6 43.2 29.7 87.8 48.5 119.3"/><path d="M426.3 197.9c-5.5-3.2-8.4-18.1-3.7-22.5 10.2-9.5 48-17.5 58.9-9.8 5.1 3.6 7.8 17.7 3.7 22.5-9 10.4-47.1 16.6-58.9 9.8"/><path d="M300.6 463.1s-40-148-8.5-186.2C388.3 160.3 525 140 649.3 217.7c41.8 26.1 52 186.5 52 186.5z"/><path fill="#fff" d="M305.7 453.7s-37.4-135-6.6-170.2c94.2-107.5 226.7-127.3 346.4-57.4 40.3 23.5 48.6 170.1 48.6 170.1z"/><path d="M305.8 454.4s-33.5-128.6-2.9-162.2c93.5-103 224.2-122.6 341.8-56.6 39.6 22.2 49.6 161.4 49.6 161.4z"/><path d="M253.8 485.5c-.5-5 3.6-15.1 7.1-18.8 12.8-13.5 46.7-31.1 63.4-39.4 18.4-9.1 55-28.2 74.3-35.2a593 593 0 0 1 83.8-21.9c21.1-3.2 63.9-6.5 85.2-6.1 21.8.4 65.5 3.5 87 7.2 20.9 3.6 66 7 82.5 20 3.5 2.7 8 11.1 8.2 15.5.2 4-1.4 12.4-4 15.5-9.2 10.9-49.6 29.1-49.6 29.1l-59.6-19.1a274 274 0 0 0-58.5-8.2c-11.9 0-35.6 2.9-47.4 4.7-14.2 2.1-42.7 5.7-56.6 9.4a423 423 0 0 0-47.7 17.1 613 613 0 0 0-42.4 20.6c-14.2 8-55.2 34.8-55.2 34.8s-48.3-1.5-61.2-9.9a28 28 0 0 1-9.3-15.3"/><path fill="#fff" d="M258.1 485.4c-.4-4.4 3.8-13.4 7.3-16.7 12.7-12.1 46.1-28.2 62.6-35.8 18.2-8.3 54.2-25.8 73.2-32.2 20-6.8 61.3-17.5 82.3-20.7a752 752 0 0 1 83.4-6.8c21.3 0 63.9 2 84.9 5 20.4 2.9 64.4 5.1 80.3 16.3a24 24 0 0 1 7.8 13.5c.1 3.5-1.6 11-4.2 13.7-9.2 9.8-48.9 26.4-48.9 26.4l-57.9-15.9a294 294 0 0 0-57-6.3c-11.6.2-34.9 3.1-46.4 4.9-13.9 2.1-41.9 5.8-55.5 9.2-12 3-35.5 11.2-46.9 15.9a681 681 0 0 0-41.7 18.9c-14 7.3-54.5 31.6-54.5 31.6s-47.2-.6-59.7-7.7a23 23 0 0 1-9.1-13.3"/><path d="M254.7 491.3c-.3-4.2 4-12.9 7.6-16.2 13.1-11.8 47.2-27.6 64.1-35 18.6-8.2 55.4-25.3 74.9-31.7a710 710 0 0 1 84-20.7 810 810 0 0 1 85-7.3c21.7-.2 65.1 1.4 86.4 4 20.8 2.5 65.5 4.3 81.7 14.9 3.4 2.2 7.7 9.2 7.8 12.9.1 3.4-1.7 10.6-4.4 13.3-9.4 9.5-50.1 25.9-50.1 25.9l-58.8-14.7c-14-3.1-43.3-5.9-58-5.5-11.9.3-35.6 3.4-47.4 5.1-14.2 2.1-42.7 5.9-56.6 9.4-12.3 3-36.3 11.1-47.9 15.7a679 679 0 0 0-42.7 18.6c-14.3 7.2-55.8 30.9-55.8 30.9s-48.1-.1-60.8-6.9c-3.7-1.9-8.7-8.9-9-12.7"/><path fill="#fff" d="M413.8 320.3s4.5-6.1 6.6-6.5c1.9-.3 5.8 1.2 7.7 1.1 2.1-.1 5.8-3.2 7.8-2.7s6.3 6.8 6.3 6.8-3.8 1.7-4.8 2.8-1.7 4-1.6 5.6c.1 3.6 1.2 11 2.8 14.2a20 20 0 0 0 5.7 7c1.2.6 3.9 1.2 5 .6 1.6-.9 4.1-4.7 4.6-6.8.6-2.6.6-8.3.3-11.1-.4-4.5-.7-14.1-2.6-18.1-1.2-2.4-7-7.1-7-7.1s3.8-5.2 4.4-7.4c2.2-8-.9-27.1-5.3-34.2-1.4-2.3-7.7-6.7-7.7-6.7s2.2-6.4 3.8-7.4c1.4-.9 4.7-2.2 6.3-1.6.9.3 3.1 2.8 3.1 2.8s1.7-2.9 2.5-3.6c1.2-1.1 4.6-1.5 6.1-.9 2 .8 7 6.1 7 6.1s-4.9 5.8-5.6 8.4a65 65 0 0 0 5.3 35.2c1.2 2.2 6.5 6.8 6.5 6.8s-3.4 4.4-4 6.2c-1.4 4.7 2.1 15.3 2.5 20.4a54 54 0 0 1-5.8 28.3c-1.3 2-4.4 5.3-6.3 6.4a23 23 0 0 1-8.4 2.9c-2.6.1-7.9-.4-10.4-1.6-2.4-1.1-7.1-4-8.8-6.3-2.1-2.8-5-9.9-6.1-13.4-.9-2.7-2.3-8.1-2.9-10.9-.5-2.7-.2-8.7-1.7-10.8-.7-1.8-5.3-4.5-5.3-4.5m74.7 33s5.3 5.3 7.4 5.8c1.6.3 5 1 6.3-.1 1-.8 2.1-5.3 2.1-5.3s2.3 3.7 3.4 4.3c1.4.8 4.7-.3 5.9-1.4 1.6-1.5 4.8-8.2 4.8-8.2s-5.7-3.4-7.1-5.3c-4-5.5-9.4-23.4-5.4-28.3 1.4-1.7 6.2 1 8.3 1 2.8 0 8.3-2.3 10.5-4.2 1.9-1.6 5.2-5.9 6.5-8.2 1-1.8 3.2-5.5 3.6-7.7.5-2.5.5-8 .2-10.6-.2-2-1.5-6-1.1-7.8s4-5.6 4-5.6-4.7-3.6-6-5.3-1.5-6-2-8c-.5-2.1-2-6.2-3.1-8s-3.6-5.1-5.1-6.3a30 30 0 0 0-13.8-6c-1.7-.2-5.2-.1-6.9.3-2.2.5-6.4 2.1-8.4 3-1.6.7-4.7 2.8-6.5 3.2-1.2.3-3.9-.3-5.1-.1a13 13 0 0 0-6 2.3c-1.1 1.2-3 6.3-3 6.3s5.5 1.9 6.8 3.6c6.3 7.8 10.3 33 6.5 42.3-.7 1.7-5.1 4.5-5.1 4.5s5.2 1.8 6.5 3.3c6 7.1 9.8 30.6 6.5 39.3-.7 2-4.7 7.2-4.7 7.2"/><path d="m496.4 259.1 6.1 37.9s10.1.1 12.6-2.3c1-1 2.7-3.9 2.9-5.5.2-1.5.1-4.7-.3-6.2-.3-1.1-1.4-3.3-2.1-4.1-.9-1-4.4-2.6-4.4-2.6s2-1.9 2.5-2.6 1.1-2.8 1.2-3.9c.2-1.5.6-4.6.2-6.1-.3-1.4-1.4-4.3-2.3-5.1-1-.9-3.5-1.3-4.7-1.4-2.9-.5-11.7 1.9-11.7 1.9"/><path fill="#0d562b" d="m596.2 713.2 7.1-41.4s-1.5 31.3-4.9 41a161 161 0 0 1-13.8 22.1zm-177.2 0-7.1-41.4s1.5 31.3 4.9 41c2.2 6.1 13.8 22.1 13.8 22.1z"/><path fill="#468e3a" d="M396.8 611.9c11.8 3.8 40.7-14.8 29.6-20-16.1-7.5-38.7-12-55.2-15.4-12-2.5 13.8 31.6 25.6 35.4"/><path d="M322.1 503c11.4 23.4 9.7 43.7 9.7 43.7s327.2-45.1 359.5-98.2c23.8-39.1-407.5-23.9-369.2 54.5" opacity=".4"/><path fill="#468e3a" d="M623.1 611.9c-11.8 3.8-40.7-14.8-29.6-20 16.1-7.5 38.7-12 55.2-15.4 12-2.5-13.8 31.6-25.6 35.4"/></svg>