<svg xmlns="http://www.w3.org/2000/svg" viewBox="0 0 2000 2000"><defs><linearGradient id="A" gradientUnits="userSpaceOnUse" x1="0" y1="0" x2="0" y2="100%"><stop offset="0" stop-color="#008542"/><stop offset=".5" stop-color="gold"/><stop offset="1" stop-color="#e70001"/></linearGradient><filter id="B"><feTurbulence baseFrequency="1" numOctaves="4"/><feDisplacementMap in="SourceGraphic" scale="200" xChannelSelector="R" yChannelSelector="G"/></filter></defs><g><circle cx="1000" cy="1000" r="1420" fill="url(#A)"/><circle cx="950" cy="950" r="900" fill="silver" opacity=".42" filter="url(#B)"/><path d="M1441 857.53c19.88-133.07-81.44-204.61-220-252.33l45-180.25-109.76-27.34-43.84 175.51-87.88-20.68 44-176.67-109.65-27.34L914 528.61l-221.32-54.82L663.48 591s81.42 18.66 79.7 19.82c44.44 11.1 52.5 40.5 51.14 63.82l-123.14 493.8c-5.44 13.5-19.22 33.74-50.28 26 1.1 1.6-79.76-20-79.76-20l-54.48 125.79 221 55.8-45.42 182.35 109.6 27.34 45-180.39 87.42 22.68-44.82 179.55 109.74 27.34 45.42-182c187.13 35.4 327.85 21.12 387-148 47.72-136.25-2.34-214.85-100.8-266.13 71.7-16.6 125.7-63.74 140.11-161.17m-250.71 351.52c-34 136.25-263.35 62.62-337.77 44.12l60.26-241.55c74.38 18.56 312.89 55.32 277.55 197.41m34-353.5c-30.94 124-221.91 61-283.89 45.54L994.91 682c62 15.48 261.51 44.3 229.25 173.59" fill="url(#A)" filter="url(#B)"/><animateTransform attributeName="transform" attributeType="XML" type="rotate" from="0 1000 1000" to="-360 1000 1000" dur="420s" repeatCount="indefinite"/></g></svg>