<svg xmlns="http://www.w3.org/2000/svg" width="24" height="24" xmlns:v="https://vecta.io/nano"><path d="M0 0h24v24H0z"/><path d="M1 1h22v22H1z" fill="#8e451e"/><text transform="translate(21.497 22.879)" font-family="AcademyEngravedLetPlain" font-size=".239">HNFT PEPE</text><path d="M7.11 13.03h9.84v5H7.11z" fill="#065e2e"/><path d="M10.09 17.77h3.85v3.1h-3.85z" fill="#0c5e30"/><path d="M8.04 8.83h7.95v4.23H8.04z" fill="#005e2b"/><path d="M8.74 12.17l.52-.69 2.19.69-2.46-1.62zm0 1.28l.54-1.7 2.17.72zm6.41-1.28l-.52-.69-2.2.69 2.46-1.62zm0 1.28l-.54-1.7-2.18.72z"/><path d="M8.82 15.39h6.35v1.8H8.82z" fill="#c51d0b"/><path d="M9.42 15.76h5.12v1.06H9.42z"/><path d="M9.42 15.76h5.12v.75H9.42z" fill="#d9e091"/><path d="M7.99 13.36c.03-.48.31-1.43.27-1.91-.03-.33-.2-1.03-.12-1.36.08-.31.78-.86.78-.86l5.99-.13s.71.85.76 1.16c.04.24-.22.71-.21.95.01.36.3 1.05.35 1.41.1.62.12 1.89.13 2.52.01.64-.06 1.94-.18 2.57-.11.58-.74 2.24-.74 2.24l1.19-2.07s.17.71.11.94-.54.8-.54.8l.93-.8s.16.54.16.73c-.01.29-.3 1.13-.3 1.13l.69-1.68s.31.44.47.49c.19.06.62-.1.79-.21.14-.08.33-.37.37-.53s-.11-.66-.11-.66.55.14.72.09c.24-.06.78-.6.78-.6s-.61.1-.82.09-.83-.17-.83-.17l-.37-.72.79-.54h-.84s-.65-.34-.79-.53c-.16-.22-.21-.8-.22-1.08-.02-.33.09-.99 0-1.3-.09-.3-.71-1.06-.71-1.06l.82.7-.43-1.14-.2-1.06.16-1.2c-.01-.4-.22-1.18-.37-1.55-.16-.32-.78-1.22-.78-1.22l.72.15-1.12-.68-1.36-.54.91-.21-1.73-.09-1.3.09.91-.56-1.64.34-1.03.23-1.85-.12.96.46-2.3.52.99.27-.5.46-1.4.69L7 7.63l-.46.57c-.13.22-.28.7-.35.95-.06.25-.12.79-.05 1.04.05.21.35.57.39.79.07.36-.07 1.11-.13 1.47-.08.43-.47 1.69-.47 1.69l-1 2.95 1.22-1.92-.19 1.37s-.22 1.03-.42 1.3c-.33.45-1.82 1.27-1.82 1.27l1.26-.25s-.12.47-.11.62c.03.23.35.88.35.88l.32-.8.22-.58s.28.32.32.45c.07.23-.06.96-.06.96l.47-.42.56-.56.54-.65s-.13.75-.26.96c-.1.17-.58.55-.58.55l-.16.43s.62 0 .82-.05c.19-.06.53-.29.65-.45.16-.2.35-.71.37-.96.07-.71-.21-2.84-.21-2.84l-.23-3.04z"/><path d="M5.46 20.51h13.12V23H5.46z" fill="#0c5e30"/><circle cx="13.55" cy="21.81" r=".15"/><circle cx="12.5" cy="21.96" r=".15"/><circle cx="14.44" cy="22.51" r=".15"/><circle cx="14.44" cy="21.66" r=".15"/><circle cx="9.94" cy="22.66" r=".15"/><circle cx="10.35" cy="21.66" r=".15"/><circle cx="11.8" cy="21.66" r=".15"/><circle cx="11.4" cy="22.81" r=".15"/><circle cx="10.5" cy="22.41" r=".15"/><circle cx="13.15" cy="22.31" r=".15"/><circle cx="12.55" cy="22.66" r=".15"/><circle cx="11.65" cy="22.31" r=".15"/><path d="M14.79 22.3h.75v.7h-.75zm-6.3 0h.75v.7h-.75z" fill="#063a1c"/><path d="M9.76 17.96l-.27-.71s-.14-.51-.1-.68.24-.5.4-.62.56-.27.77-.33c.17-.04.52-.14.69-.13.2.01.77.19.77.19s.58-.22.79-.23.62.15.81.23c.14.06.45.14.57.23.14.11.33.4.37.56.04.14.01.58.01.58l-.17.54-.21.47s-.14.28-.13.38.09.3.19.35c.09.05.32.09.41.05.14-.06.29-.31.34-.44.06-.14.18-.57.18-.57l.14-.54.05-.51.06-.5c0-.17-.01-.52-.07-.69-.05-.11-.18-.34-.29-.42-.16-.12-.79-.31-.79-.31l-.54-.26-.71-.3c-.08-.03-.23-.1-.31-.1-.2 0-.73.24-.73.24s-.52-.2-.71-.23a1.09 1.09 0 0 0-.36.06c-.16.06-.46.22-.61.3l-.47.24-.64.27c-.13.07-.38.22-.45.33-.1.16-.14.72-.14.72l.07.86.16.94s.19.62.38.76c.1.07.37.17.49.13.1-.03.25-.16.27-.24.02-.15-.22-.62-.22-.62z"/><path d="M11.59 15.76h.85v.85h-.85z"/></svg>