<svg xmlns="http://www.w3.org/2000/svg" viewBox="0 0 2403 2412"><g data-name="Layer 3"><path d="M25 25h2353v2362H25" fill="#ff9a08"/><path d="M1 10h777l58 100 130-92L2394 10 2140 487l-172 484a972 972 0 01-248 294c-131 100-238 129-376 281a391 391 0 00-108 178 291 291 0 00 58 269c47 42 83 26 118 76a157 157 0 01 16 152c0 5-24 48-53 48s-18-12-38-16-30 0-62 15c-64 28-64 33-87 40a110 110 0 01-87 2c-38-19-21-66-65-100s-47-11-76-34-20-66-50-136c-38-80-89-76-109-139-13-42 0-79 26-148a614 614 0 01 85-164 456 456 0 01-54 0A539 539 0 01 510 1310a200 200 0 01-41 91 234 234 0 01-183 77 960 960 0 01-91 246 947 947 0 01-194 244Z" fill="#1fff39"/><path d="M1 666 142 840l182 45 134-30 6 289 49 143-57 133-100 54-90-13-120-300L1 958Z" fill="#1717ff"/><path d="m2031 1546 370 18v526l-315-11Zm-1745-48-146 340 73 33a190 190 0 00-42 126 175 175 0 00 46 113 122 122 0 00-24 164 100 100 0 00 126 26 100 100 0 00 47-66l170-24a406 406 0 00 451-13 760 760 0 01-64-100c-22-42-22-56-40-87a565 565 0 00-72-89c-30-42-32-128 91-327a486 486 0 01-342-200 355 355 0 01-47-100 250 250 0 01-227 200Z" fill="#72523b"/><path d="m361 1572 56 121a173 173 0 00-39 83 216 216 0 00 39 142 558 558 0 00 117 150 254 254 0 00 67-219 241 241 0 00-100-146l-27-208Z" fill="#fffdff"/><path d="m2401 1184-564-25a2261 2261 0 01-200 168c-166 126-239 142-317 247a400 400 0 00-100 254 200 200 0 00 30 117c38 59 95 62 154 133a293 293 0 01 43 70h654a1470 1470 0 00-30-519c-7-28-15-54-23-80h353" fill="#ff3c00"/></g><g data-name="Layer 2"><path d="M1634 370a484 484 0 01-133 194c-148 131-300 84-400 211a677 677 0 00-80 252c-61 276-24 290-70 447-73 248-200 322-150 427 31 67 108 100 129 200a131 131 0 00 34 77c31 29 60 16 89 45s14 74 42 89 117-10 143-22c42-20 66-43 100-35s24 15 38 16c33 0 86-81 71-147-19-85-132-77-192-176a288 288 0 01-22-200c48-300 468-332 708-724 114-185 52-232 232-600A3534 3534 0 01 2386 41" fill="none" stroke="#1d1d1b" stroke-linecap="round" stroke-linejoin="round" stroke-width="25"/><path d="M977 10a1316 1316 0 00-323 340 1052 1052 0 00-200 591c0 100 0 385 208 549a528 528 0 00 245 100M832 133l-19-100" fill="none" stroke="#1d1d1b" stroke-miterlimit="10" stroke-width="25"/><path d="M508 1281a200 200 0 01-67 148 169 169 0 01-155 45c-72-27-66-130-134-287A966 966 0 00 25 972m0-306a350 350 0 00 248 216 310 310 0 00 185-33M12 1967a1076 1076 0 00 117-138 1015 1015 0 00 157-355m327-24a145 145 0 00-81 78 174 174 0 00 49 164 281 281 0 00 233 80" fill="none" stroke="#1d1d1b" stroke-miterlimit="10" stroke-width="25"/><path d="M536 2074a307 307 0 00 51-86 249 249 0 00-8-213c-25-39-81-92-135-79a100 100 0 00-60 51c-59 114 143 318 152 327Z" fill="none" stroke="#1d1d1b" stroke-linecap="round" stroke-miterlimit="10" stroke-width="20"/><path d="M491 1691a335 335 0 00 10-75 344 344 0 00-60-176m-23 259a274 274 0 00-35-84 273 273 0 00-108-100" fill="none" stroke="#1d1d1b" stroke-miterlimit="10" stroke-width="20"/><path d="M140 1833a68 68 0 00 41 32c39 10 82-30 83-28a224 224 0 00-76 63c-46 80 18 264 157 314a282 282 0 00 238-38m-47 34a416 416 0 00 184 61 426 426 0 00 272-78" fill="none" stroke="#1d1d1b" stroke-linecap="round" stroke-miterlimit="10" stroke-width="20"/><path d="M474 2117a315 315 0 01-120-121 242 242 0 01-32-200 206 206 0 01 88-100m-195 407a129 129 0 00-42 100 111 111 0 00 84 100 109 109 0 00 119-83m137-734a141 141 0 00-21-50 100 100 0 00-23-26m-96 256a229 229 0 01-67-47 236 236 0 01-42-64m516 84a100 100 0 01-53-52 100 100 0 01-9-50" fill="none" stroke="#1d1d1b" stroke-linecap="round" stroke-miterlimit="10" stroke-width="20"/><path d="M665 1600a53 53 0 01-34 59 52 52 0 01-52-40 55 55 0 01 35-68c24-3 48 23 51 49Z" fill="#1d1d1b"/><path d="M647 1621a10 10 0 01-10-8 10 10 0 01 8-12l82-19a10 10 0 01 12 8 11 11 0 01-8 12l-82 18Z" fill="#1d1d1b"/><path d="M669 1920a319 319 0 00-58-149 332 332 0 00-110-94" fill="none" stroke="#1d1d1b" stroke-linecap="round" stroke-miterlimit="10" stroke-width="20"/><path d="m2401 1194-564-25 1-20 564 25-1 20" fill="#1d1d1b"/><path d="M1465 2148h645c25-500-43-630-114-652-46-15-84 19-210 40a928 928 0 01-294 0m885 23-320-11m307 537H2120" fill="none" stroke="#1d1d1b" stroke-linecap="round" stroke-linejoin="round" stroke-width="20"/><path d="M445 1766a100 100 0 00-52 83c0 55 34 125 92 127a106 106 0 00 100-100 120 120 0 00-140-110ZM278 1480a225 225 0 00 85-9c40-12 51-28 67-22a100 100 0 01 11 136c-34 27-100 0-133-43a139 139 0 01-30-62Z" fill="#1d1d1b"/><path d="M342 1510c-6 15 24 42 36 38s16-36 0-45a28 28 0 00-36 7Zm92 310c-6 14 23 42 35 37a29 29 0 00 0-45 28 28 0 00-35 8Z" fill="#fffdff"/><path d="M322 256a100 100 0 00-20 48 100 100 0 00 15 67" fill="none" stroke="#1d1d1b" stroke-linecap="round" stroke-miterlimit="10" stroke-width="25"/><path d="M2401 2410h-2400V0h2400ZM50 2362h2300V50H50Z" fill="#1d1d1b"/></g></svg>
