<svg xmlns="http://www.w3.org/2000/svg" xml:space="preserve" width="1000" height="1000" style="shape-rendering:geometricPrecision;text-rendering:geometricPrecision;image-rendering:optimizeQuality;fill-rule:evenodd;clip-rule:evenodd"><defs><style>@keyframes rotateAnimation{0%{transform:rotate(0deg)}to{transform:rotate(360deg)}}.str0{stroke:#000;stroke-width:8;stroke-miterlimit:2.61313}.fil0{fill:none}</style></defs><g id="Layer_x0020_1"><path d="M183 183h594v594H183z" class="fil0 str0" style="transform-origin:500px 500px;animation:rotateAnimation 6s linear infinite reverse;fill:rgba(255,0,0,.5)"/><path d="M206 206h548v548H206z" class="fil0 str0" style="transform-origin:500px 500px;animation:rotateAnimation 6s linear infinite;fill:rgba(0,255,0,.5)"/><path d="M228 228h504v504H228z" class="fil0 str0" style="transform-origin:500px 500px;animation:rotateAnimation 24s linear infinite reverse;fill:rgba(0,0,255,.5)"/><path d="M250 250h460v460H250z" class="fil0 str0" style="transform-origin:500px 500px;animation:rotateAnimation 14s linear infinite;fill:rgba(255,255,0,.5)"/><path d="M273 273h414v414H273z" class="fil0 str0" style="transform-origin:500px 500px;animation:rotateAnimation 10s linear infinite;fill:rgba(0,255,255,.5)"/><path d="M295 295h370v370H295z" class="fil0 str0" style="transform-origin:500px 500px;animation:rotateAnimation 8s linear infinite reverse;fill:rgba(255,0,255,.5)"/><path d="M318 318h324v324H318z" class="fil0 str0" style="transform-origin:500px 500px;animation:rotateAnimation 20s linear infinite reverse;fill:rgba(192,192,192,.5)"/><path d="M340 340h280v280H340z" class="fil0 str0" style="transform-origin:500px 500px;animation:rotateAnimation 26s linear infinite;fill:rgba(128,0,0,.5)"/><path d="M363 363h234v234H363z" class="fil0 str0" style="transform-origin:500px 500px;animation:rotateAnimation 16s linear infinite;fill:rgba(128,128,0,.5)"/><path d="M385 385h190v190H385z" class="fil0 str0" style="transform-origin:500px 500px;animation:rotateAnimation 22s linear infinite reverse;fill:rgba(0,128,0,.5)"/><path d="M407 407h146v146H407z" class="fil0 str0" style="transform-origin:500px 500px;animation:rotateAnimation 18s linear infinite;fill:rgba(128,0,128,.5)"/><path d="M430 430h100v100H430z" class="fil0 str0" style="transform-origin:500px 500px;animation:rotateAnimation 12s linear infinite reverse;fill:rgba(0,128,128,.5)"/><path d="M452 452h56v56h-56z" class="str0" style="transform-origin:500px 500px;animation:rotateAnimation 4s linear infinite reverse;fill:rgba(0,0,128,.5)"/></g></svg>