<svg xmlns="http://www.w3.org/2000/svg" fill="none" viewBox="0 0 255 251"><g clip-path="url(#a)"><path d="M0 0h255v251H0V0z" fill="#000"/><path d="M238 16H15v210h223V16z" fill="url(#b)"/><g filter="url(#c)"><path d="M108 31c23-4 67-9 49 7" stroke="#79E5E5" stroke-linecap="round" stroke-width="6"/></g><g filter="url(#d)"><path d="M171 40c-10 3-21 9 9 15M95 97c20-3 13-1 24 0m-12 12c-32 1-29 18-47 28-21 11-21 12 0 10l22-2" stroke="#79E5E5" stroke-linecap="round" stroke-width="6"/></g><g filter="url(#e)"><path d="M124 183c-30 5-63 2-76 0-13-3-30-9 5-15s82-6 40 8" stroke="#79E5E5" stroke-linecap="round" stroke-width="6"/></g><path d="M20 211c-1-1-4 2-6 3l1-4 21-8c5-3 16-10 18-14l26-49-12-1c-1 2-6 4-7 5l-1 6c0 2-2 1-3 0v-5c0-1 0-3-2-2l-1 10c-1 1-3 1-3-1v-9c-2 2-3 3-3 8l1 3-1 1c-1-1-3-2-3-6-1-4 1-7 1-9l-2 3-5 9c-2 1-1 0-1-1l2-10 24-21h17l16-5c7-9 23-26 27-26l-5-8c-6-4-10-9-13-14-2-4-1-6 0-6l13-13c1-2 4-7 7-9s7-1 9-1c2 2 4 2 7 1 5-1 12 2 25 8 10 5 15 15 17 20l4 2c4 3 4 10 4 14-1 1 15 18 24 27 8 9 15 26 17 33l1 31c1 9-10 21-16 26l-4-1c-3 2-18 2-24 2l-48 24c-6-1-19-1-19-3 0-3 3-5 6-5l11-6 9-12c-16-5-46-24-59-34 0 2-3 6-8 11-8 4-14 19-15 20h-4c-1-1-11 12-11 13-1 2-7 7-10 8l-8 7v-5l-2-5c1 2-1 4-1 5s-2 2-3 1v-3l-1-4c-1 0-5 0-6 2l-6 6v-3l5-6z" fill="#000"/><path d="m168 142 4 14c-9 1-32-4-43-7l-18-2-9-6 2-1c2 0 8 0 15 2s14-1 17-2c7 0 22 2 26 1s6 1 6 1zm-78 0c-9 8-4 18 0 22l3-7c2-3 10-3 14-3v-1H94c-3-1 0-3 3-4l10 2-10-4c-4-1-2-2 0-2l6 3h2l-7-5c-1-1-4-2-8-1zm17 6-8-7c3 0 8 6 8 7zm62-7 4 14h14c2 0 1-3 0-5l-3 1c-2 0-1-1 0-2l-4-4-11-4z" fill="#6C7277"/><path d="M136 214h3l2 1-1 1-3-1c-1 0-2 0-1-1zm2-2 2-1h3l-2-1 2-2c0-2 2-4 3-5l-1 2h3l-3 5v2l-1 2-6-2zm13-8-4-2 2-1 2 1v2z" fill="#BE2F35"/><path d="M119 47c2-5 8-15 19-9l3-1c2-1 8-1 13 2 9 3 26 12 30 26 4 1 9 2 8 17-3-8-2-13-6-11s-6 1-8-2c-4-2-16-3-23 1-5 3-8 3-8 3 2-3 9-10 21-16 1-2 0-2-1-1 0-1 1-3 5-3 1-1-2-3-4-3l-5 2a96 96 0 0 0-20 18l-8 12v-1c1-4 6-12 12-18 8-8 9-8 9-13v-4c1-1 0-1-1-1l-2 4-2-2h-2c-4-2-4 0-4 0 1 2 2 5 1 6s-1 0-1-1c0-2-2-5-3-5l-2 2c-1 0-3-2-3-4-1-2-4-7-7-7s-10 7-11 9zm106 90-9-6h8l3 5c3 4 2 7 2 9-1 0-3 1-6-2-4-3-3-1-1 1l7 11c0 2 1 4-1 1-4-7-13-16-17-20-6-4-16-10-14-10l25 13c3 2 4 1 5 1l-2-3z" fill="#DCD141"/><path d="M186 77c-5-3-7 0-8 2 0 0 0 4 2 6 2 3 4 3 4 3 1 0 4 1 1 2h-1l4 3c1 3 4 8 8 11 3 0 1 0 3 2s-4 3-9 2c-6-4-4 1 2 2l17 2c0 3 2 4 3 4l2 3h-12c3 0 14 3 16 2 2 0 3 1 3 2h-2l9 6c1 1 2 0-4-10-9-16-22-30-38-42z" fill="#DCD141"/><path d="m134 42 1 3c-5-3-8 0-9 2l-3 2c-2 1-1 2-1 2h4c5 4 8 3 10 3h2l-3 2a4 4 0 0 1 4 1c3 1 3 6 2 9-6-3-20-8-26-8-8-1-9 3-10 6-5-5 15-19 20-22 4-3 8-1 9 0z" fill="#87BB5B"/><path d="M115 61c-5 0-8 2-9 3 0-4 6-5 9-4 1 0 2 1 0 1z" fill="#fff"/><path d="M80 130c2 4 9 6 12 7v-1c-4-1-13-6-11-12 1-6 11-8 16-8 1 1 3 2 2 0-1-1 0-3 8 1l-3 1h-9c-9 1-10 7-9 9s6 2 8 3c1 0 5-1 5-3s4-5 6-7c2 0 5 0 6 7l4-1c2 0 1-7 4-7l2 6c1 1 1 3 1 1 0-3 3-3 5-3s3-2 4-3c-1-1-4-2-1-3 4-1 3-6 1-8 2 1 8-1 12-1 2 0 5-1 4-2h-8l-2-1c2-1 6-3 8-2 5 1 17 1 23-1-7 2-23-1-22-1l16-2-10-2v-1l9-1c-3-3-13-4-17-2 5-5 13-3 17-2 2 1 5 2 3 0-3-3-13-3-17-1 4-6 16-5 21-4 2 0 1-2-3-2l-11 1 6-4h6l-2-2c2 0 7 5 9 8v-4c-1-3-5-5-7-6 1 0 2-1 0-2-17 3-26 21-28 25-3 0-6 4-8 8-4 0-11 6-14 8h-6l-7-2c-2-1-7-2-13 1s-15 2-18 2c-2-1-6-1-8 4-2 4 1 9 2 11 4-2 12-5 14-2z" fill="#DCD141"/><path d="M106 66c0 1 1 4 3 4 1-1 3-4 31-3 2 0 0-1 0-1-10-3-30-7-34 0z" fill="#4FA055"/><path d="M124 228h8v1h1v1h1v1h-1v-1h-1v-1h-2v1h-4v1h4v-1h1v1h-1v1h2v-1h1v1h-1v1h-2v2h1v1h1v3h-1v1h-1v2h2v1h1v1h-1v-1h-2v1h1v2h-1v-2h-4v2h7-1v1h-9v-1h-1v-2h1v2h3-1v-2h1v-1h-2v1h-1v-1h1v-1h2v-2h-1v-1h-1v-2 1h1v1h1v1h4v-1h1v-1h1v-1h-1v-1h-1v-1h-4v-2h-2v-1h-1v-1h-1v-1h1v1h1v1h2v-1h-1v-1h1v-1h-2v1h-1v-1h1v-1zm2 7h-1v1h1v-1zm-1 1h-1v1h1v-1zm8 10v-2h1v2h-1z" fill="#79E5E5" fill-rule="evenodd" clip-rule="evenodd"/><path d="M63 120c-2 1-2 5-2 7l-6 6-5 1c-4 1-8 7-9 9l-3 8c-2-1 0-6 2-11a92 92 0 0 1 23-21v1zm20 29h-2l-4 12 6-12zm-5-10h2a463 463 0 0 0-19 44l-7 5c1 1 3 4-1 11-5 7-9 11-11 12-2 3-8 9-7 11 0 2-1 2-2 1 0-1 0-4 2-6l4-6c1-2 3-6 5-7s0-1-2-2l-9 3c-3-1-17 6-18 7l-3-1 29-13 12-10 25-49z" fill="#4FA055"/><path d="m72 64-20-5c6 5 18 15 20 21 3 8 13 15 16 14" stroke="#000" stroke-linecap="round" stroke-width="1.5"/><path d="m48 60 3 4c1 1 2 1 2-1-1-4 1-7 2-7 14-13 10-27 6-30 0 6-8 1-3-2-5-2-9 1-10 2-2 3-7 0-7-1-4-2-18-2-16 11 3 16 23 24 23 24z" fill="#BE2F35"/><path d="M135 51a4 4 0 0 0 0-4 4 4 0 0 1 2 3l-1 1h-1zm-1 1a4 4 0 0 1-5-2h-2a5 5 0 0 0 4 3 6 6 0 0 0 4-1h-1zm-5-4h-2c0-2 2-3 4-3a4 4 0 0 0-2 3z" fill="#fff" fill-rule="evenodd" clip-rule="evenodd"/><path d="M174 206h1c-10 7-31 19-38 19h-7l-7-2v-2c3 1 9 3 12 2 12-2 11-4 39-17z" fill="#fff"/><ellipse fill="#4FA055" cx="13.2" cy="211.6" rx="1.9" ry="1.1" transform="rotate(-15 13 212)"/></g><defs><filter id="c" width="67.5" height="25" x="100.5" y="19.9" color-interpolation-filters="sRGB" filterUnits="userSpaceOnUse"><feFlood flood-opacity="0" result="BackgroundImageFix"/><feBlend in="SourceGraphic" in2="BackgroundImageFix" result="shape"/><feGaussianBlur result="effect1_foregroundBlur_150_129" stdDeviation="2"/></filter><filter id="d" width="149" height="121.8" x="37.5" y="33.4" color-interpolation-filters="sRGB" filterUnits="userSpaceOnUse"><feFlood flood-opacity="0" result="BackgroundImageFix"/><feBlend in="SourceGraphic" in2="BackgroundImageFix" result="shape"/><feGaussianBlur result="effect1_foregroundBlur_150_129" stdDeviation="2"/></filter><filter id="e" width="105.5" height="35.3" x="25" y="157.3" color-interpolation-filters="sRGB" filterUnits="userSpaceOnUse"><feFlood flood-opacity="0" result="BackgroundImageFix"/><feBlend in="SourceGraphic" in2="BackgroundImageFix" result="shape"/><feGaussianBlur result="effect1_foregroundBlur_150_129" stdDeviation="2"/></filter><linearGradient id="b" x1="-2.5" x2="255.5" y1="46.3" y2="195.2" gradientUnits="userSpaceOnUse"><stop stop-color="#A6A6A6"/><stop offset=".2" stop-color="#8F8F8F"/><stop offset=".4" stop-color="#6A6A6A"/><stop offset=".6" stop-color="#373737"/><stop offset=".7"/></linearGradient><clipPath id="a"><path d="M0 0h255v251H0z" fill="#fff"/></clipPath></defs></svg>