<svg xmlns="http://www.w3.org/2000/svg" width="24" height="24" xmlns:v="https://vecta.io/nano"><style><![CDATA[.J{stroke-width:.1}.K{stroke-miterlimit:10}]]></style><path d="M0 0h24v24H0z" fill="#00793d"/><path d="M1 1h22v22H1z"/><circle cx="12" cy="12" r="9" fill="#f33316"/><path d="M15.57 11.4l1.88 4.65-4.45.66zm-7.08 0l-1.85 4.65 4.35.66z"/><g fill="#00793d"><path d="M12.03 16.67l-.01-4.59 3.5-.93.23 1.04s.03 1.06-.13 1.38c-.12.24-.82.77-.82.77s.18.67.16.9c-.02.21-.29.81-.29.81s.16.36.12.47a.89.89 0 0 1-.5.43c-.11.02-.44-.1-.44-.1s-.14.22-.23.24c-.14.03-.51-.19-.51-.19l-.43-.19c-.17-.03-.65-.04-.65-.04z"/><path d="M12.13 16.67l.01-4.59-3.63-.93-.23 1.05s-.03 1.06.14 1.38c.13.24.85.77.85.77s-.19.67-.17.9c.02.21.31.81.31.81s-.16.36-.12.47a.9.9 0 0 0 .52.43c.12.02.46-.1.46-.1s.14.22.23.24c.14.03.53-.19.53-.19s.33-.16.45-.19c.16-.04.65-.05.65-.05z"/></g><path d="M17.12 12.58l.85 1.47s.54-.33.63-.86c.12-.62-1.48-.61-1.48-.61z"/><path d="M16.51 12.91s-1.81-1.88-1.06-2.42c.68-.49 2.23.25 2.23.25s1.47 2.64.83 2.37c-1.35-.57-2-.2-2-.2z" fill="#fff" stroke="#000" class="J K"/><path d="M6.88 12.56l-.85 1.47s-.54-.33-.63-.86c-.12-.62 1.48-.61 1.48-.61z"/><g fill="#fff" stroke="#000" class="J K"><path d="M7.49 12.89s1.81-1.88 1.06-2.42c-.68-.49-2.23.25-2.23.25s-1.47 2.64-.83 2.37c1.35-.57 2-.2 2-.2zm9.66 3.73c-.39-.55-.35-1.74-.35-1.74l.48-.1 1.25 1.86s-1.23.18-1.38-.02z"/><path d="M16.66 15.58c-.46-.69-.6-2.51-.6-2.51l.48-.09L18 15.29c-.01 0-1.18.54-1.34.29z"/><path d="M15.92 13.77c-.48-.68-.81-2.45-.81-2.45l.42-.09 1.54 2.27s-.97.52-1.15.27zm-9.14 2.84c.39-.55.35-1.74.35-1.74l-.48-.1-1.25 1.86c.01.01 1.24.19 1.38-.02z"/><path d="M7.28 15.57c.46-.69.6-2.51.6-2.51l-.48-.08-1.46 2.31c0 0 1.17.54 1.34.28z"/><path d="M8.01 13.77c.48-.68.81-2.45.81-2.45l-.42-.09-1.54 2.27s.98.52 1.15.27z"/></g><path d="M8.91 10.35s-.6.38-.63.58c-.03.19.23.58.42.68.75.4 3.45.67 3.45.67v-1.34l-3.24-.59z"/><path d="M15.38 10.35s.6.38.63.58c.03.19-.23.58-.42.68-.75.4-3.45.67-3.45.67v-1.34l3.24-.59z"/><path d="M8.86 9.87c.22-1.01 1.47-1.85 3.28-1.85s3.06.84 3.28 1.85c.49 2.2-3.28 2.18-3.28 2.18s-3.73-.12-3.28-2.18z"/><g fill="#fff" stroke="#000" class="J K"><path d="M12.14 10.05l1.33.12c.19-.01.58-.12.72-.23s.24-.43.29-.58c.06-.2.06-.63-.01-.83-.06-.18-.34-.48-.49-.62-.3-.28-1.37-.96-1.37-.96l.81-.14s.11-.64.23-.82c.15-.23.86-.77.86-.77s-.18.65-.16.87c.02.32.3.93.43 1.23.1.22.36.65.42.88.09.33.06 1.03-.06 1.36-.08.22-.46.57-.66.72-.22.16-.78.37-1.07.42-.31.05-1.27-.06-1.27-.06v-.59z"/><path d="M12.14 10.05l-1.33.12c-.19-.01-.58-.12-.72-.23s-.25-.43-.29-.59c-.06-.2-.06-.63.01-.83.06-.18.34-.48.49-.62.3-.28 1.37-.96 1.37-.96l-.81-.14s-.11-.64-.23-.82c-.15-.23-.86-.77-.86-.77s.18.65.16.87c-.02.33-.29.94-.43 1.24-.09.22-.35.65-.41.88-.09.33-.06 1.03.06 1.35.08.22.46.57.66.72.22.16.78.37 1.07.42.31.05 1.27-.06 1.27-.06v-.58z"/></g><ellipse cx="12.14" cy="10.35" rx="1.03" ry=".88" fill="#f03516"/><path d="M9.27 12.09s-.45 1.72.17 1.62c1.19-.2 2.25-.99 2.25-.99l-2.42-.63zm5.41.03s.4 1.56-.17 1.47c-1.09-.17-2.05-.89-2.05-.89l2.22-.58z"/><path d="M12.47 12.9l.62.81c.13.16.88.66.88.66s-.85-.4-.99-.55c-.17-.19-.51-.92-.51-.92zm-.8 0l-.62.81c-.13.16-.88.66-.88.66s.85-.4.99-.55c.16-.19.51-.92.51-.92z"/><path d="M10.21 16.46c-.26.22-.2-1.96 0-1.79.81.69 3.04.61 3.71.04.2-.17.22 1.92.02 1.75-1.17-.99-2.55-1-3.73 0z" stroke="#f03516" class="J K"/><path d="M10.82 14.76l1.27.17 1.19-.19s-.86.29-1.19.29c-.34 0-1.27-.27-1.27-.27zm1.49 1.25s.51.11.65.2c.13.09.36.47.36.47l-.47-.37c-.12-.09-.54-.3-.54-.3zm-.55 0s-.51.11-.65.2c-.13.09-.36.47-.36.47l.47-.37c.12-.09.54-.3.54-.3z"/><path d="M10.35 15.21s-.13.71.06.84c.07.05.31.01.34-.07.02-.08-.4-.77-.4-.77zm.41.33s-.19-.35-.1-.43c.04-.03.19-.03.22 0s-.12.43-.12.43zm3.03-.33s.13.71-.06.84c-.07.05-.31.01-.34-.07-.02-.08.4-.77.4-.77zm-.41.33s.19-.35.1-.43c-.04-.03-.19-.03-.22 0s.12.43.12.43zm-.48-.02c.2-.09-.64-.17-.86-.17-.21 0-1.03.11-.83.19.21.08.83.01.83.01s.69.04.86-.03z" fill="#fff"/><text transform="translate(21.397 22.779)" fill="#007a3e" font-family="AcademyEngravedLetPlain" font-size=".239">HNFT PEPE</text><path d="M11.63 9.77h1.06v.15h-1.06z"/><path d="M12.205 10.925v-1.06h.13v1.06z"/><path d="M12.33 10.93v-.15h.29l.03.15zm-.6.07l-.14-.1.35-.39.05.17zm.14-.74l-.26.14.25-.53.16.01z"/><path d="M11.81 10.47l.07-.12.17.11-.04.14zm-.11.1l-.2-.03.24-.31.17-.05z"/><path d="M12.17 10.07v.15h-.29l-.03-.15z"/><path d="M12.05 10.12l.1.08-.16.48-.07-.15zm.26.36v-.17l.23-.26.16.11zm.34.44l-.11-.11.05-.25.14.1z"/></svg>