<svg xmlns="http://www.w3.org/2000/svg" fill-rule="evenodd" stroke-linejoin="round" stroke-miterlimit="2" viewBox="0 0 1800 1800" xmlns:v="https://vecta.io/nano"><path d="M0 0h1800v1800H0z"/><path d="M1430.753 1094.605h-76.415l77.123-132.941-109.842-187.514h76.904l71.385 120.122 67.545-120.122h76.206l-182.906 320.464zM253.9 774.525h83.509v64.299H253.9l.003 93.902c.047 3.785.327 7.575 1.073 11.29.478 2.374 1.142 4.72 2.083 6.954.875 2.078 1.995 4.062 3.433 5.802.692.84 1.457 1.622 2.286 2.325a18.52 18.52 0 0 0 1.707 1.287c3.724 2.478 8.219 3.546 12.63 3.889a44.72 44.72 0 0 0 2.497.118c1.084.019 2.171.003 3.252-.047a54.66 54.66 0 0 0 4.18-.354c1.8-.222 3.59-.532 5.36-.922a62.06 62.06 0 0 0 7.037-1.998 63.96 63.96 0 0 0 3.098-1.169h-.003s10.777-3.946 23.835-13.236l31.61 53.963-6.48 4.885-1.798 1.317c-2.47 1.759-4.984 3.45-7.566 5.036a121.4 121.4 0 0 1-15.767 8.162 120.01 120.01 0 0 1-17.775 6.021c-6.01 1.526-12.133 2.585-18.302 3.189-5.406.527-10.843.703-16.272.56-13.354-.351-26.788-2.673-39.069-8.069a80.25 80.25 0 0 1-6.018-2.945c-2.607-1.416-5.135-2.98-7.561-4.69-2.879-2.031-5.612-4.265-8.173-6.685a74.72 74.72 0 0 1-10.195-11.93c-1.619-2.349-3.109-4.792-4.468-7.303a86.63 86.63 0 0 1-3.057-6.254c-5.741-13.061-8.277-27.326-8.925-41.515a176.83 176.83 0 0 1-.17-7.632V705.334H253.9v69.192zm227.909-4.74c2.292.022 4.58.08 6.866.2a142.83 142.83 0 0 1 14.263 1.468c11.804 1.822 23.371 5.176 34.278 10.047 7.218 3.222 14.142 7.108 20.643 11.603 7.067 4.888 13.634 10.497 19.557 16.722 11.013 11.576 19.746 25.257 25.668 40.093 3.194 8.003 5.577 16.329 7.135 24.804 1.515 8.233 2.253 16.606 2.253 24.977 0 9.759-.999 19.518-3.052 29.06-2.366 10.989-6.134 21.673-11.247 31.681-5.944 11.628-13.7 22.317-22.927 31.555a126.26 126.26 0 0 1-24.658 19.189c-8.692 5.179-17.998 9.314-27.653 12.344-13.288 4.171-27.205 6.233-41.128 6.312-15.572.091-31.165-2.286-45.914-7.322-11.521-3.93-22.49-9.471-32.45-16.475a125.16 125.16 0 0 1-28.868-28.267c-7.959-10.838-14.134-22.951-18.308-35.729-4.281-13.105-6.447-26.859-6.611-40.639-.102-8.661.576-17.334 2.086-25.863 1.592-9.013 4.111-17.863 7.547-26.346 5.401-13.343 13.074-25.742 22.652-36.49 6.054-6.792 12.852-12.915 20.232-18.239 6.611-4.767 13.684-8.886 21.08-12.306 11.318-5.234 23.382-8.807 35.705-10.711 4.44-.686 8.914-1.158 13.401-1.422 1.998-.115 3.996-.187 5.994-.225l3.455-.022zm210.729 255.685h-67.842V774.158h67.381v10.069l1.518-.862 1.4-.766a109.3 109.3 0 0 1 4.237-2.141c2.818-1.339 5.703-2.55 8.634-3.631 13.722-5.055 28.407-7.237 43.002-7.028 10.322.145 20.641 1.438 30.628 4.081 12.602 3.334 24.642 8.848 35.167 16.573 3.34 2.453 6.521 5.118 9.512 7.983 1.496 1.433 2.931 2.915 4.336 4.435l.222.247.818-.878 1.35-1.402a104.7 104.7 0 0 1 4.177-4.01 96.65 96.65 0 0 1 10.385-8.151c11.842-8.063 25.375-13.434 39.385-16.307 5.541-1.139 11.17-1.888 16.818-2.275 2.481-.17 4.965-.263 7.454-.302l1.013-.005h.335l.189-.003h.17l2.171.014c10.322.145 20.641 1.438 30.625 4.081 6.06 1.603 11.988 3.71 17.679 6.326l.324.148.156.074.203.093.145.069a101.6 101.6 0 0 1 5.538 2.802c8.516 4.641 16.354 10.522 23.113 17.479a89.2 89.2 0 0 1 2.097 2.231l.799-.859 1.35-1.405a102.94 102.94 0 0 1 4.18-4.01c3.269-2.95 6.743-5.675 10.385-8.154 12.084-8.222 25.918-13.645 40.227-16.475a126.7 126.7 0 0 1 15.972-2.105 123.51 123.51 0 0 1 3.897-.209l.255-.008.456-.016.049-.003h.074l.79-.027.848-.016.154-.005h.074l.291-.008h.173l.392-.008.406-.003.398-.003.645-.003h.725l.409.003.491.003.376.005.093.003.941.016 1.227.03.181.005.307.011.244.008.236.008c2.555.091 5.105.247 7.649.483 7.426.686 14.798 2.006 21.977 4.029 8.123 2.289 16 5.486 23.36 9.619 8.088 4.539 15.533 10.209 21.996 16.859l1.932 2.05.626-.675 1.353-1.405a104.7 104.7 0 0 1 4.177-4.01 96.98 96.98 0 0 1 10.388-8.154c12.084-8.222 25.918-13.645 40.227-16.475a126.7 126.7 0 0 1 15.972-2.105 140.72 140.72 0 0 1 7.454-.302l3.074-.003c3.76.047 7.511.225 11.255.571 7.426.686 14.798 2.006 21.977 4.029 8.123 2.289 15.997 5.486 23.36 9.619 8.085 4.539 15.533 10.209 21.996 16.859a94.04 94.04 0 0 1 11.735 14.801c4.388 6.853 7.882 14.263 10.451 21.98 2.462 7.399 4.073 15.07 4.91 22.82.45 4.155.664 8.329.7 12.509v152.493h-67.611l-.003-141.328-.03-1.619c-.047-1.562-.123-3.12-.25-4.676-.121-1.466-.283-2.931-.491-4.388-1.087-7.64-3.458-15.281-7.975-21.615-.582-.818-1.197-1.608-1.844-2.374-1.219-1.433-2.555-2.764-3.993-3.977a33.99 33.99 0 0 0-2.961-2.234c-5.955-4.01-13.008-6.093-20.086-6.96a70.96 70.96 0 0 0-7.242-.499c-4.226-.08-8.455.22-12.613 1.01-4.202.801-8.316 2.086-12.199 3.886-4.704 2.179-9.057 5.121-12.772 8.744-2.884 2.813-5.374 6.024-7.388 9.515-2.061 3.57-3.623 7.421-4.701 11.4-1.375 5.072-1.957 10.311-1.97 15.558v139.558h-67.614l-.003-141.328c-.025-1.847-.088-3.691-.222-5.535-.107-1.482-.255-2.964-.45-4.438-1.073-8.134-3.568-16.307-8.513-22.957a35.65 35.65 0 0 0-2.045-2.503c-1.199-1.334-2.503-2.572-3.897-3.702-3.167-2.561-6.781-4.523-10.593-5.939-3.782-1.402-7.75-2.278-11.749-2.769-2.385-.294-4.783-.453-7.185-.499l-1.474-.011c-3.694.014-7.382.329-11.016 1.021-4.202.801-8.316 2.086-12.196 3.886-4.707 2.179-9.059 5.121-12.775 8.744-2.884 2.813-5.374 6.024-7.385 9.515-2.061 3.57-3.625 7.421-4.704 11.4-1.317 4.863-1.907 9.883-1.965 14.916v140.2h-67.619l-.003-141.328c-.025-1.847-.088-3.691-.22-5.535-.11-1.482-.258-2.964-.453-4.438-.532-4.053-1.422-8.115-2.788-11.993l-.044-.121-.198-.541-.096-.258-.148-.39-.143-.37-.104-.255-.195-.48-.047-.115c-1.186-2.821-2.651-5.522-4.451-8.011a35.66 35.66 0 0 0-1.858-2.352c-1.229-1.424-2.574-2.747-4.021-3.946-.952-.793-1.949-1.531-2.98-2.217-5.914-3.922-12.885-5.964-19.878-6.82-2.404-.294-4.822-.453-7.242-.499l-1.422-.011c-3.68.016-7.35.332-10.969 1.021-4.394.837-8.694 2.206-12.734 4.139-4.671 2.234-8.98 5.225-12.641 8.892-2.923 2.923-5.423 6.263-7.418 9.885-1.902 3.45-3.345 7.144-4.353 10.95-1.315 4.97-1.872 10.102-1.885 15.237v139.558h-67.844l.008-.025-.005-141.301c-.025-1.847-.085-3.694-.22-5.538a74.97 74.97 0 0 0-.45-4.438c-1.062-8.052-3.518-16.14-8.365-22.754a35.13 35.13 0 0 0-2.196-2.706c-1.197-1.334-2.503-2.572-3.897-3.702-3.387-2.739-7.286-4.792-11.392-6.227-3.54-1.235-7.229-2.025-10.947-2.481-2.385-.294-4.783-.453-7.185-.499-4.226-.082-8.45.22-12.602 1.01-4.202.801-8.316 2.086-12.199 3.886-4.792 2.22-9.218 5.231-12.978 8.944a44.14 44.14 0 0 0-7.761 10.346c-1.831 3.376-3.227 6.979-4.21 10.689-1.315 4.967-1.872 10.099-1.885 15.231v139.564zM481.059 834.625c35.979 0 65.19 29.211 65.19 65.19s-29.211 65.19-65.19 65.19-65.19-29.211-65.19-65.19 29.211-65.19 65.19-65.19z" fill="#fff"/><text x="804.212" y="1734.799" font-family="Helvetica" font-size="11.111">© COPYRIGHT TOMMY MARCHESCHI</text></svg>