<svg xmlns="http://www.w3.org/2000/svg" xml:space="preserve" version="1.1" viewBox="0 0 3700 3700"><path d="M2250 800c0 220-180 400-400 400v1500h410l140-1320A800 800 0 00 1850 0v400c220 0 400 180 400 400" fill="#50412e"/><path d="M1850 1200a400 400 0 11 0-800V0a800 800 0 00-550 1380l140 1320h410V1200" fill="#a0815c"/><path d="M750 3400h2200v300H750" fill="#acabb1"/><path d="M2260 2700H450v700h2800v-700" fill="#565659"/><path d="M1450 800c0 220 180 400 400 400V400c-220 0-400 180-400 400" fill="#ffda44"/><path d="M2250 800c0-220-180-400-400-400v800c220 0 400-180 400-400" fill="#ff9811"/></svg>
