<svg xmlns="http://www.w3.org/2000/svg" viewBox="0 0 24 24" xmlns:v="https://vecta.io/nano"><path d="M7.8 3.2L6.5 6.3v3.2l-1.7 5.2 1.8 4.1 2.6 1.6 7.5.5 2.1-.9-.7-7.9-.9-1.1V9.3l-3.3-4.5-4.7-1.5z" fill="#549c00"/><path d="M.7 1.6v22.3h22.6V1.6H.7zm15.1 21l-7.5-.5-2.6-1.6L4 16.4l1.7-5.2V8.1L6.9 5h1.4L13 6.5l3.2 4.6v1.6l.9 1.1.8 7.9-2.1.9z" fill="#0a7c00"/><path d="M.8 1.2v22.2h22.6V1.2H.8zm15.3 20.9l-7.5-.5L6 20l-1.8-4.1 1.7-5.2V7.5l1.3-3.1h1.4L13.4 6l3.2 4.6v1.6l.9 1.1.8 7.9-2.2.9z" fill="#003b12"/><path d="M0 0v24h24V0H0zm16.7 20.9l-7.5-.5-2.6-1.6-1.8-4.1 1.7-5.2V6.3l1.3-3.1h1.4l4.7 1.5 3.2 4.6V11l.9 1.1.8 7.9-2.1.9z" fill="#ff7a00"/></svg>