<svg xmlns="http://www.w3.org/2000/svg" viewBox="0 0 102400 102400"><path d="M21625 50595 2353 82793l12245 5669 12470-35373zm59150-1588 19272 32198-12245 5670-12470-35373" fill="#e5e5e5"/><g fill="#fae1dc"><path d="M68590 64280a8643 8643 0 10 17286 0 8643 8643 0 10-17286 0zm-52433 0a8643 8643 0 10 17286 0 8643 8643 0 10-17286 0"/><path d="M22796 61800a28980 28980 0 10 57961 0 28980 28980 0 10-57960 0"/></g><g fill="#e5e5e5"><path d="M10170 35066a23012 23012 0 10 46024 0 23012 23012 0 10-46024 0"/><path d="M47356 34635a23012 23012 0 10 46024 0 23012 23012 0 10-46023 0"/></g><path d="M41448 77590a10964 5168 0 10 21928 0 10964 5168 0 10-21928 0" fill="#eca78c"/><path d="M69338 76440H36163a71 71 0 01-70-71v-4456a71 71 0 01 70-70h33175a71 71 0 01 70 70v4456a71 71 0 01-70 70" fill="#00263a"/></svg>
