<svg xmlns="http://www.w3.org/2000/svg" width="100" height="100"><defs><linearGradient id="borderGradient1" x1="0%" y1="0%" x2="100%" y2="100%"><stop offset="0%"><animate attributeName="stop-color" dur="10s" values="#FF5733; #33FF57; #3357FF; #FF5733; #33FF57; #3357FF" repeatCount="indefinite"/></stop><stop offset="100%"><animate attributeName="stop-color" dur="10s" values="#33FF57; #3357FF; #FF5733; #33FF57; #3357FF; #FF5733" repeatCount="indefinite"/></stop></linearGradient><linearGradient id="borderGradient2" x1="0%" y1="0%" x2="100%" y2="100%"><stop offset="0%"><animate attributeName="stop-color" dur="10s" values="#FFAA33; #AA33FF; #33FFAA; #FFAA33; #AA33FF; #33FFAA" repeatCount="indefinite"/></stop><stop offset="100%"><animate attributeName="stop-color" dur="10s" values="#AA33FF; #33FFAA; #FFAA33; #AA33FF; #33FFAA; #FFAA33" repeatCount="indefinite"/></stop></linearGradient><linearGradient id="centralGradient" x1="0%" y1="0%" x2="0%" y2="100%"><stop offset="0%" style="stop-color:#8f3;stop-opacity:1"/><stop offset="100%" style="stop-color:#f38;stop-opacity:1"/></linearGradient><pattern id="hexPattern" x="0" y="0" width="30" height="30" patternUnits="userSpaceOnUse" patternTransform="rotate(30)"><rect x="0" y="0" width="30" height="30" fill="black"/><polygon points="15,0 30,7.5 30,22.5 15,30 0,22.5 0,7.5" fill="url(#centralGradient)"><animateTransform attributeName="transform" type="rotate" from="0 15 15" to="360 15 15" dur="4s" repeatCount="indefinite"/></polygon><polygon points="7.5,0 22.5,0 30,7.5 22.5,15 7.5,15 0,7.5" fill="url(#borderGradient1)"><animateTransform attributeName="transform" type="rotate" from="0 15 15" to="360 15 15" dur="4s" repeatCount="indefinite"/></polygon><polygon points="15,7.5 22.5,15 15,22.5 7.5,15" fill="url(#borderGradient2)"><animateTransform attributeName="transform" type="rotate" from="0 15 15" to="360 15 15" dur="4s" repeatCount="indefinite"/></polygon></pattern></defs><rect x="0" y="0" width="100" height="100" fill="url(#hexPattern)"/><rect x="0" y="0" width="100" height="100" rx="5" ry="5" fill="none" stroke="url(#borderGradient1)" stroke-width="15"/></svg>