<?xml version="1.0" encoding="UTF-8"?><svg xml:space="preserve" xmlns="http://www.w3.org/2000/svg" version="1.0" enable-background="new 0 0 500 680" viewBox="0 0 500 680"><!-- ✦A*R*T*C*O*P*S✦ [B] Santiago Itzcoatl --><rect width="500" height="680" fill="#588"/><circle cx="250" cy="420" r="225" fill="#E05"/><circle cx="250" cy="420" r="210" fill="#B66"/><rect x="25" y="420" width="450" height="225" fill="#E05"/><rect x="40" y="420" width="420" height="210" fill="#E31"/><polygon points="40 420 460 420 311 461 137 461" fill="#E73"/><polygon points="40 630 460 630 311 516 137 516" fill="#D12"/><rect x="125" y="298" width="198" height="80" fill="#5E9"/><rect x="137" y="310" width="174" height="55" fill="#1DD"/><rect x="137" y="461" width="174" height="55" fill="#12C"/><rect x="167" y="516" width="23" height="99" fill="#006"/><rect x="376" y="394" width="23" height="99" fill="#006"/><polygon points="250.5 485.406 273.955 496.701 279.748 522.082 263.517 542.435 237.483 542.435 221.252 522.082 227.045 496.701" fill="#376"/><polygon points="250.5 485.406 255.146 505.76 273.955 496.701 260.938 513.024 279.748 522.082 258.871 522.082 263.517 542.435 250.500 526.113 237.483 542.435 242.129 522.082 221.252 522.082 240.062 513.024 227.045 496.701 245.854 505.76" fill="#653"/><polygon points="120.5 85.406 125.146 105.76 143.955 96.701 130.938 113.024 149.748 122.082 128.871 122.082 133.517 142.435 120.500 126.113 107.483 142.435 112.129 122.082 91.252 122.082 110.062 113.024 97.045 96.701 115.854 105.76" fill="#653"/></svg>
