<svg viewBox="0 0 117 117" xmlns="http://www.w3.org/2000/svg" xml:space="preserve" style="fill-rule:evenodd;clip-rule:evenodd;stroke-linejoin:round;stroke-miterlimit:2"><path d="M0 0h116.807v116.807H0z"/><path d="M-28286.2 9610.91c6.2.01 12.3.08 18.5.21 12.3.28 24.6.8 36.8 1.58 33.5 2.12 66.8 6.14 99.8 12.04 34.7 6.19 68.9 14.47 102.6 24.77 34.1 10.43 67.5 22.94 100 37.42 44.8 19.95 88 43.65 128.9 70.76a891.96 891.96 0 0 1 117.6 93.15c36.8 34.55 70.6 72.23 101 112.51 30.3 40.05 57.2 82.75 80.2 127.45 19.4 37.5 36.1 76.4 49.9 116.3 13.5 39.1 24.3 79.3 32.1 120 10.8 55.6 16.1 112.2 16.1 168.8 0 40.4-2.7 80.9-8.2 120.9-6 44.1-15.4 87.8-28 130.4-13.2 44.5-29.9 88-49.9 129.8-22.7 47.4-49.6 92.8-80.3 135.4-31.1 43.1-66 83.4-104.2 120.3-39.9 38.5-83.4 73.2-129.7 103.6-45.5 29.9-93.8 55.6-144 76.6-55.3 23.1-113 40.5-171.9 51.9-55.1 10.7-111.2 16-167.3 16.1-56.2.1-112.4-5.1-167.5-15.6-58.9-11.2-116.7-28.4-172.1-51.4-50.3-20.8-98.7-46.4-144.3-76.1-46.4-30.3-90-64.9-129.9-103.2-38.4-36.8-73.4-77-104.6-120-30.9-42.6-57.9-87.8-80.7-135.2-20.2-41.7-37-85.1-50.3-129.6-12.8-42.6-22.3-86.1-28.5-130.2-5.7-41-8.6-82.3-8.6-123.7 0-55.7 5.2-111.4 15.6-166.1 7.8-40.7 18.4-80.9 31.9-120.2 13.6-39.9 30.2-78.9 49.4-116.4 22.9-44.8 49.7-87.5 79.9-127.73 30.5-40.72 64.6-78.81 101.6-113.72 36.5-34.34 75.8-65.6 117.5-93.32 40.9-27.17 84-50.93 128.8-70.95a877.744 877.744 0 0 1 202.4-62.5c33-5.95 66.3-10.01 99.7-12.19a895.597 895.597 0 0 1 55.4-1.88c1.4 0 2.8-.01 4.3 0zm-2.7 112.91c-16.6.04-33.1.58-49.6 1.65-29.2 1.9-58.3 5.44-87 10.63-30.2 5.45-60.1 12.71-89.4 21.73-29.6 9.14-58.7 20.08-87.1 32.74-40.8 18.25-80 40.07-117.1 65.12-33.7 22.75-65.5 48.14-95.2 75.87-33.6 31.39-64.5 65.78-92 102.64-24.2 32.3-45.8 66.5-64.7 102.2-18.2 34.6-33.9 70.6-46.6 107.5-11.3 32.7-20.4 66.1-27.2 99.9-9.9 49.7-14.9 100.3-14.9 150.8-.1 36.6 2.4 73.1 7.5 109.3 5.7 40.8 14.7 81.1 26.8 120.4 11.2 35.9 25 71.1 41.3 105.1 20.8 43.4 45.8 84.8 74.3 123.6a781.6 781.6 0 0 0 87.9 100.1c34.9 33.5 72.9 63.7 113.5 90.1 39.8 25.9 81.9 48.2 125.8 66.4 47.6 19.7 97.1 34.6 147.6 44.3 48.9 9.5 98.8 14.2 148.6 14.1 49-.1 98-4.8 146.1-14.1 51.3-9.9 101.5-25.1 149.7-45.2 44.6-18.6 87.3-41.5 127.6-68.1 39.7-26.2 77-56.1 111.2-89.1 32.9-31.7 62.9-66.3 89.7-103.2 27.6-38.1 51.7-78.6 71.9-121.1 16.7-35 30.8-71.4 42-108.6 11.5-38.3 20-77.5 25.5-117.1 4.9-35.8 7.2-71.9 7.1-108.1-.1-24.7-1.3-49.5-3.7-74.1-2.6-26.1-6.5-52.1-11.7-77.8-7.3-35.8-17.1-71-29.4-105.4-12.5-34.9-27.6-69-45-101.8-20.1-37.7-43.2-73.7-69.2-107.5-26.3-34.39-55.6-66.54-87.3-96.04-31.4-29.26-65.2-55.92-101.1-79.59-35.7-23.59-73.3-44.21-112.5-61.55-28.4-12.58-57.5-23.44-87.2-32.48-29.3-8.94-59.2-16.11-89.4-21.46a774.79 774.79 0 0 0-88.4-10.44c-16.1-.97-32.2-1.43-48.4-1.42z" style="fill:#fff;fill-rule:nonzero" transform="matrix(.0457 0 0 .0457 1351.104 -421.243)"/><path d="M-3563.04 1774.3v-89.34h106.43c23.36 0 44.66 19.93 44.66 44.67 0 24.74-19.92 44.67-44.66 44.67h-106.43zm0-202.72v-89.33h75.05c24.74 0 44.67 19.92 44.67 44.66 0 24.74-19.93 44.67-44.67 44.67h-75.05zm136.39 314.04c81.78 0 149.39-69.41 149.39-151.18 0-46.73-23.36-90.02-58.41-118.19 19.93-25.43 27.03-57.73 27.03-92.77 0-82.46-70.09-153.24-152.55-153.24h-237.22v515.38h271.76z" style="fill:#fff;fill-rule:nonzero" transform="matrix(.038 0 0 .038 175.008 -3.45)"/><path d="M-3277.8 1504.24h106.45v381.38h135.37v-381.38h104.6v-134.69h-346.42v134.69z" style="fill:#fff;fill-rule:nonzero" transform="matrix(.038 0 0 .038 176.386 -3.45)"/><path d="M-25400.3 13825.1c-46.7 46.7-111.3 75.6-182.5 75.6-142.4 0-258-115.7-258-258.1 0-142.4 115.6-258 258-258 71.2 0 135.8 28.9 182.5 75.6l-96.8 96.7c-21.9-21.9-52.2-35.5-85.7-35.5-66.9 0-121.2 54.3-121.2 121.2s54.3 121.3 121.2 121.3c33.5 0 63.8-13.6 85.7-35.6l96.8 96.8z" style="fill:#fff" transform="matrix(.038 0 0 .038 1048.36 -460.053)"/></svg>