<svg xmlns="http://www.w3.org/2000/svg" width="8" height="8"><style>.B{stroke-linecap:square}.C{stroke-width:.013}.D{stroke:#24682c}.E{fill:#222326}.F{fill:#9c9c9c}.G{stroke-width:.053}</style><path fill="#24682c" d="M0 0h8v8H0z"/><path fill="#4d4d4d" d="M.547 7.45H7.45V.546H.547V7.45Z"/><path fill="none" stroke="#87c423" stroke-width=".135" d="M6.919 5.693v.842m0-3.948v1.905m0-3.774v.841m-5.975.708v-.841m0 3.948V3.469m0 3.774v-.842m1.538-4.787V.772m0 3.949V2.816m0 3.774v-.842m3.128.688v.842m0-3.948v1.904m0-3.774v.842M3.893 5.768v.841m0-3.948v1.905m0-3.774v.842" class="B"/><path d="M3.58 6.175s-.223.024-.347.137c-.189.173-.206.53-.206.53l.553.294v-.961Z" class="E"/><g class="C"><path fill="#1c982a" d="m5.047 3.733.1.006c.162.01.285.14.275.288a.273.273 0 0 1-.226.244l-.363 2.77-.715.267-.55.142-.215-.505v-.85c-.707-.12-1.078-.69-.957-1.328l.127-1.198.04-.664c.033-.541.624-.946 1.321-.903s1.236.514 1.204 1.056l-.04.675z" class="D"/><path stroke="#4d4d4d" d="M4.218 1.508c-.32-.232-.967.174-1.28-.01-.36-.074-.52.23-.54.323-.058.252.1.186-.158.69s.103.755.151 1.023l.148-.018.018-.645c.02-.199.063-.232.063-.232s.073.063.178-.057.241-.39.241-.39l.15-.077s.035.04.185.012.403-.145.403-.145.175.15.444.264.515.263.515.263l.053.168s-.143.358-.137.51c.01.243.123.336.123.336l-.022.342s-.076.139-.086.304a3.76 3.76 0 0 0 .033.508s.057.05.095.006c.016-.05.182-.77.182-.77s.16-.105.28-.098.16.127.16.127c.05-.063.587-.58.62-1.081s-.624-.537-.624-.537-.202-.237-.22-.344c-.043-.253-.19-.406-.4-.362a.782.782 0 0 1-.575-.11z" class="F"/></g><path fill="#fff" d="M2.76 3.78c.152.01.277-.055.283-.145l.006-.092-.54-.067-.008.123c-.006.088.111.167.258.18Z"/><path d="M2.815 3.61a.1.1 0 1 0-.199 0 .1.1 0 0 0 .2 0Z" class="E"/><path fill="none" d="M3.713 3.677c-.043-.295.079-.562.322-.546s.285.312.536.41m-1.337.053c.02-.306-.034-.501-.277-.517a.412.412 0 0 0-.362.163m.631.668c-.02.317-.512.567-.053.82m.38-.901c.013.103.013.365.094.488.158.241.14.539-.082.448" class="B C D"/><path fill="#fff" d="M3.971 3.858c.153.01.278-.055.284-.145l.008-.124-.543-.01-.007.099c-.006.087.111.166.258.18Z"/><path d="M4.047 3.698a.1.1 0 1 0-.198-.012.1.1 0 0 0 .198.012Z" class="E"/><g class="F"><path d="M3.07 2.939s-.26-.201-.399-.174-.132.281-.132.281l.531-.107zm.809-.007s.274-.184.41-.148.113.29.113.29l-.523-.142z"/><path d="M4.286 2.978s-.386.01-.502-.04.054-.158.054-.158l.448.198z"/></g><path fill="#24682c" d="m3.226 4.636-.07-.047a.063.063 0 1 0-.07.105l.07.046a.063.063 0 1 0 .07-.104Zm.382.038-.07-.047a.063.063 0 1 0-.07.105l.07.047a.063.063 0 1 0 .07-.105Z"/><path fill="none" d="M2.695 5.17c.169-.19.206-.397.501-.518m.711.778c.315.045-.048-.44-.153-.781" class="B C D"/><path fill="#c02819" d="M3.783 5.292c-.119-.196-.384-.237-.49-.244-.298-.061-.332-.072-.467.131.111.137.268.101.45.128s.364.127.507-.015z"/><g fill="none" class="B"><path d="M2.66 5.344c.118-.021.108-.19.329-.204a1.42 1.42 0 0 1 .785.165c.061.032.107.115.172.16m-.083.147c-.334-.19-.577-.204-.982-.067m.035.4c.357.192.616.206 1.046.07m-.042.011c.115-.024.154-.107.185-.189.019-.049.313-.12.34-.29" class="C D"/><path stroke="#222326" d="M4.53 3.974c.02-.288-.208-.39-.496-.41s-.527.054-.546.342m0 0c-.018.288.205.458.493.477s.531-.121.55-.41m-1.339-.086c.019-.288-.209-.39-.497-.41s-.527.054-.545.342m0 0c-.019.288.204.458.492.477s.532-.121.55-.41m.026-.014.264.017" class="G"/></g><path d="M3.863 7.45c-.918-.859-.72-.975-.682-1.078-.155.126-.263.565-.204.766l.093.312h.793Z" class="F"/><path fill="#ccdae0" d="M4.63 6.94c.192-.285.297-.592.297-.592s.143.64-.268 1.102H3.45s.919-.12 1.18-.51Z"/><path fill="none" stroke="#222326" d="m4.543 3.788.353-.046" class="B G"/></svg>