<?xml version="1.0" encoding="utf-8"?>
<!-- Generator: Adobe Adobe Illustrator 24.2.0, SVG Export Plug-In . SVG Version: 6.00 Build 0)  -->
<svg version="1.1" xmlns="http://www.w3.org/2000/svg" xmlns:xlink="http://www.w3.org/1999/xlink" x="0px" y="0px" width="24px"
	 height="24px" viewBox="0 0 24 24" style="enable-background:new 0 0 24 24;" xml:space="preserve">
<style type="text/css">
	.st0{fill:#F0D02B;}
	.st1{fill:#323336;}
	.st2{fill:#057632;}
	.st3{font-family:'AcademyEngravedLetPlain';}
	.st4{font-size:0.5198px;}
	.st5{fill:#FFFFFF;}
	.st6{fill:#0D752D;}
	.st7{fill:#958A49;}
	.st8{fill:#8AD379;}
	.st9{fill:#F96E1A;}
	.st10{fill:#0A4117;}
	.st11{fill:#F56E1F;}
	.st12{fill:#08452B;}
	.st13{display:none;fill:none;stroke:#8DC132;stroke-miterlimit:10;}
	.st14{fill:#7B1810;stroke:#7B180D;stroke-miterlimit:10;}
	.st15{fill:#E6DBDF;}
	.st16{fill:#7B1911;}
	.st17{fill:#E5DBDE;}
</style>
<g id="Layer_3">
	<rect x="-1.05" y="-1.73" class="st0" width="26.25" height="27"/>
	<polygon class="st1" points="14.66,13.03 14.49,12.6 14.29,12.69 14.19,12.9 14.11,13.27 	"/>
	<path class="st2" d="M14.38,12.6c-0.08,0.03-0.13,0.15-0.17,0.23s-0.05,0.16-0.07,0.24c-0.01,0.06-0.02,0.12-0.03,0.18c0,0,0,0,0,0
		c0,0-2.65,1.95-3,1.22C10.71,13.62,14.45,12.57,14.38,12.6z"/>
	<text transform="matrix(1 0 0 1 0.3659 23.7715)" class="st3 st4">HNFT PEPE</text>
</g>
<g id="Layer_4">
	<path class="st6" d="M8.04,13.72c0.44,0.43,1,0.97,1.26,1.24c0.16,0.16,0.88,0.01,0.88,0.01l5.38-2.98l0.28-0.14
		c0,0,2.19-1.34,2.5-2.22c0.24-0.69-0.42-2.55-0.42-2.55L16.7,4.6c0,0-0.78-1.76-1.24-2.19c-0.41-0.38-1.48-1.03-2.03-0.92
		c-0.75,0.15-1.71,1.52-2.31,1.99c-0.42,0.34-1.58,0.8-2.08,0.59c-0.58-0.24-1.01-1.84-1.63-1.9c-0.5-0.04-1.56,1.28-1.56,1.28V3.44
		c0,0-0.68,0.9-0.71,1.27C5.11,5.06,5.47,5.74,5.47,6.09L5.37,7.64L5.29,7.75c0,0-1.02,1.1-1.02,1.62c0,0.52,3.77,2.29,3.77,3.59"/>
	<path class="st7" d="M9.04,7.68c0.62,0.15,0.77,0.23,1.02,0.29c0.51,0.11,1.55-0.02,2.07-0.05c0.52-0.03,1.56-0.01,2.08-0.06
		c0.33-0.03,1.01-0.09,1.32-0.21c0.17-0.06,0.47-0.25,0.61-0.36c0.12-0.09,0.31-0.31,0.45-0.36c0.07-0.03,0.26-0.06,0.31,0
		c0.06,0.07,0.03,0.28-0.02,0.36c-0.09,0.14-0.35,0.36-0.49,0.46c-0.21,0.15-0.55,0.53-0.86,0.58c-1.07,0.18-2.79,0.61-3.73,0.56
		c-0.48-0.03-1.42-0.18-1.9-0.25C9.36,8.55,8.22,8.16,7.71,8.38C7.32,8.55,6.58,8.95,6.15,9.08C5.67,9.24,5.3,9.82,4.85,9.85
		c-0.2,0.01-0.72-0.32-0.62-0.49c0.39-0.7,1.89-1.1,2.53-1.49c0.15-0.09,0.62-0.17,0.7-0.2C7.69,7.59,8.03,7.6,8.27,7.63"/>
	<path d="M10.31,24.07c0,0,0.05-1.04,0-1.54c-0.09-0.95,1.81-5.1,1.81-5.1l2.48-4.03l4.53,2.19c0,0,1.14,0.63,1.39,0.91
		c1.35,1.54,0.78,5.56,0.78,7.61l-3.82-0.06l-0.2-2.27l-0.86,2.28"/>
	<polyline class="st8" points="7.64,20.93 9.16,17.36 8.88,17.35 8.71,16.26 8.07,17.07 7.08,16.13 7.24,18.83 	"/>
	<polyline class="st8" points="12.14,17.4 13.13,15.88 13.13,15.88 10.73,16.99 10.52,16.28 10.33,17.36 10.13,17.38 10.13,19.77 	
		"/>
	<polyline class="st9" points="7.64,20.94 8.96,17.26 10.31,17.28 10.13,20.51 8.41,22.29 	"/>
	<path class="st10" d="M6.47,24.07l3.95-0.05c0,0-0.08-1.1-0.06-1.49c0.07-1.36,1.77-5.13,1.77-5.13l-3.88,4.58
		c0,0-0.47-0.76-0.57-1.05c-0.13-0.38-0.4-1.58-0.45-2.11c-0.06-0.63-0.15-2.53-0.15-2.53L6.47,24.07z"/>
	<path d="M3.86,24.01c0,0-1.04-5.67-0.21-7.3c0.52-1.03,3.81-2.63,3.81-2.63l-0.01-0.01l-0.54,9.95L3.86,24.01z"/>
	<path class="st1" d="M7.55,13.25c0-0.14,0.48-0.32,0.48-0.32l0,0.78"/>
	<path class="st11" d="M8.78,17.36c-0.24-0.02-0.08-1.11-0.08-1.11l0.01-0.7l0.53-0.69l0.89-0.01l0.38,1.45c0,0,0.16,1.07-0.03,1.07
		"/>
	<path class="st5" d="M10.12,14.86c0,0,0.1,1.9,0.6,2.13c0.6,0.27,2.39-1.11,2.39-1.11s1.83-2.14,1.55-2.95"/>
	<path class="st12" d="M4.67,9.82c0,0,2.14-1.13,2.95-1.43C8.39,8.1,9.94,8.63,10.71,8.7c1.38,0.13,4.15-0.46,5.54-0.39
		c0.61,0.03,2.11,0.47,2.14,1.08c0.05,0.9-2.71,2.51-2.71,2.51s-3.98,1.83-5.22,1.75c-0.72-0.05-1.87-0.71-1.87-0.71L4.67,9.82z"/>
	<path class="st13" d="M15.36,11.62c0.82-0.53,2.59-1.53,3.12-2.37c0.07-0.12,0.14-0.4,0.13-0.54c-0.02-0.25-0.17-0.75-0.28-0.97
		c-0.33-0.68-1.21-1.92-1.6-2.57c-0.41-0.67-0.99-2.17-1.5-2.75c-0.22-0.25-0.76-0.69-1.08-0.77c-0.36-0.09-1.14-0.09-1.47,0.08
		c-0.28,0.14-0.67,0.67-0.87,0.91c-0.21,0.26-0.6,0.83-0.87,1c-0.38,0.25-1.31,0.68-1.73,0.53c-0.53-0.2-0.88-1.67-1.42-1.81
		C7.39,2.26,6.66,2.97,6.4,3.3C6.2,3.55,5.75,4.06,5.69,4.38C5.63,4.71,5.96,5.97,5.87,5.71C5.78,5.46,5.81,7.06,5.69,7.49
		C5.56,7.96,4.85,8.72,4.77,9.21C4.75,9.33,4.81,9.61,4.89,9.7c0.16,0.19,0.62,0.38,0.83,0.51c0.58,0.37,1.91,1.08,2.12,1.75
		c0.05,0.17-0.2,0.51-0.16,0.68c0.14,0.65,1.29,1.58,1.9,1.76c0.16,0.05,0.49,0.06,0.65,0.02C11.62,14.03,14.13,12.42,15.36,11.62z"
		/>
	<ellipse cx="14.11" cy="4.21" rx="2.22" ry="2.15"/>
	<ellipse class="st14" cx="14.11" cy="4.18" rx="1.52" ry="1.48"/>
	<path class="st15" d="M12.13,3.76c-0.1-0.07,0.15-0.54,0.46-0.89c0.21-0.24,0.47-0.4,0.57-0.44c0.35-0.11,0.98-0.37,1.1-0.13
		c0.07,0.14-0.61,0.8-0.88,0.98C13.1,3.47,12.25,3.85,12.13,3.76z"/>
	<ellipse transform="matrix(0.1454 -0.9894 0.9894 0.1454 0.4568 9.9267)" cx="5.97" cy="4.7" rx="1.33" ry="0.85"/>
	<ellipse transform="matrix(0.1454 -0.9894 0.9894 0.1454 0.4568 9.9267)" class="st16" cx="5.97" cy="4.7" rx="1.2" ry="0.75"/>
	<path class="st17" d="M5.68,3.67C5.77,3.6,5.89,3.54,5.97,3.5c0.15-0.06,0.26-0.01,0.31,0.06c0.09,0.11-0.05,0.36-0.3,0.55
		S5.47,4.38,5.38,4.27C5.3,4.16,5.43,3.87,5.68,3.67z"/>
	<path class="st5" d="M7.54,13.25c0,0-0.34,2.22-0.21,2.94c0.05,0.28,0.4,0.89,0.74,0.87c0.26-0.02,0.65-0.82,0.65-0.82l0.52-1.38"
		/>
</g>
</svg>
