<svg xmlns="http://www.w3.org/2000/svg" xmlns:xlink="http://www.w3.org/1999/xlink" viewBox="0 0 612 792" xmlns:v="https://vecta.io/nano"><path d="M0 0h612v792H0z" fill="#ffe371"/><path d="M0 0h612v792H0z" fill="#fffaf5"/><path d="M33,34h547v650H33V34z" fill="#2d2e88"/><g fill="#ef4423"><use xlink:href="#B"/><use xlink:href="#C"/><use xlink:href="#D"/><use xlink:href="#E"/><use xlink:href="#B" y="-121.2"/><use xlink:href="#C" y="-121.2"/><path d="M387 118.2c1.8 54.2-13.7 56.8-77.6 54.2-2.8-57.4 18-57.9 77.6-54.2z"/><use xlink:href="#F"/><use xlink:href="#B" x="-167"/><use xlink:href="#C" x="-167.1"/><use xlink:href="#D" x="-167"/><use xlink:href="#E" x="-167.1"/><use xlink:href="#B" x="-167" y="-121.2"/><path d="M58.9 110.8C57.1 56.6 72.6 54 136.4 56.6c2.9 57.4-17.9 57.9-77.5 54.2zm161.1 7.4c1.8 54.2-13.7 56.8-77.6 54.2-2.8-57.4 18-57.9 77.6-54.2z"/><use xlink:href="#F" x="-167.1"/><use xlink:href="#G"/><use xlink:href="#C" x="167"/><use xlink:href="#H"/><use xlink:href="#E" x="167"/><use xlink:href="#G" y="-121.2"/><use xlink:href="#C" x="167" y="-121.2"/><path d="M554.1 118.2c1.8 54.2-13.7 56.8-77.5 54.2-2.9-57.4 17.9-57.9 77.5-54.2z"/><use xlink:href="#F" x="167"/><use xlink:href="#B" y="242.4"/><use xlink:href="#C" y="242.4"/><use xlink:href="#D" y="242.4"/><use xlink:href="#E" y="242.4"/><use xlink:href="#B" y="121.2"/><use xlink:href="#C" y="121.2"/><use xlink:href="#D" y="121.2"/><use xlink:href="#E" y="121.2"/><use xlink:href="#B" x="-167" y="242.4"/><use xlink:href="#C" x="-167.1" y="242.4"/><use xlink:href="#D" x="-167" y="242.4"/><use xlink:href="#E" x="-167.1" y="242.4"/><use xlink:href="#B" x="-167" y="121.2"/><use xlink:href="#C" x="-167.1" y="121.2"/><use xlink:href="#D" x="-167" y="121.2"/><use xlink:href="#E" x="-167.1" y="121.2"/><use xlink:href="#G" y="242.4"/><use xlink:href="#C" x="167" y="242.4"/><use xlink:href="#H" y="242.4"/><use xlink:href="#E" x="167" y="242.4"/><use xlink:href="#G" y="121.2"/><use xlink:href="#C" x="167" y="121.2"/><use xlink:href="#H" y="121.2"/><use xlink:href="#E" x="167" y="121.2"/><use xlink:href="#B" y="363.6"/><use xlink:href="#C" y="363.6"/><use xlink:href="#D" y="363.6"/><use xlink:href="#E" y="363.6"/><use xlink:href="#B" x="-167" y="363.6"/><use xlink:href="#C" x="-167.1" y="363.6"/><use xlink:href="#D" x="-167" y="363.6"/><use xlink:href="#E" x="-167.1" y="363.6"/><use xlink:href="#G" y="363.6"/><use xlink:href="#C" x="167" y="363.6"/><use xlink:href="#H" y="363.6"/><use xlink:href="#E" x="167" y="363.6"/></g><defs ><path id="B" d="M387 232c1.8-54.2-13.7-56.8-77.6-54.2-2.8 57.4 18 57.9 77.6 54.2z"/><path id="C" d="M226 232c-1.8-54.2 13.7-56.8 77.6-54.2 2.8 57.4-18 57.9-77.6 54.2z"/><path id="D" d="M387 239.3c1.8 54.2-13.7 56.8-77.6 54.2-2.8-57.3 18-57.8 77.6-54.2z"/><path id="E" d="M226 239.3c-1.8 54.2 13.7 56.8 77.6 54.2 2.8-57.3-18-57.8-77.6-54.2z"/><path id="F" d="M226 118.2c-1.8 54.2 13.7 56.8 77.6 54.2 2.8-57.4-18-57.9-77.6-54.2z"/><path id="G" d="M554.1 232c1.8-54.2-13.7-56.8-77.5-54.2-2.9 57.4 17.9 57.9 77.5 54.2z"/><path id="H" d="M554.1 239.3c1.8 54.2-13.7 56.8-77.5 54.2-2.9-57.3 17.9-57.8 77.5-54.2z"/></defs></svg>