<svg xmlns="http://www.w3.org/2000/svg" data-name="Layer 2" viewBox="0 0 1800 1800"><path d="M0 0h1800v1800H0" fill="#20ff00"/><path d="M101 117h1570v1570H101" fill="#ff7900"/><path d="M1306 691c30 29 78 100 46 276a224 224 0 01 69 113c33 147-123 282-147 300-210 181-578 154-781-14a327 327 0 01-146-243 258 258 0 01 63-154A305 305 0 01 462 700c72-68 160-18 418-21s354-55 426 12Z" fill="#20ff00"/><path d="M500 643a230 230 0 00-100-13 83 83 0 00-62 22 45 45 0 00-10 35c6 34 61 54 100 64a1926 1926 0 00 472 60 2039 2039 0 00 453-62c26-6 74-20 85-53a48 48 0 00-8-46c-18-22-55-20-89-17a257 257 0 00-64 14 1072 1072 0 00 0-138 470 470 0 00-22-159c-61-124-283-135-335-138-145-6-366 31-406 148a721 721 0 00-9 124C500 551 500 606 500 643Z" fill="#1d1d1b"/><path d="M585 1243a529 529 0 00 335 106 510 510 0 00 300-108" fill="none" stroke="#ff2400" stroke-linecap="round" stroke-miterlimit="10" stroke-width="170"/><path d="M562 1233a560 560 0 00 358 116 549 549 0 00 325-116" fill="none" stroke="#d10a00" stroke-linecap="round" stroke-miterlimit="10" stroke-width="30"/><circle fill="#fff" cx="658" cy="969" r="109"/><path d="m810 1020 7-20-33-20v-30l33-9V920h-36l-10-24 19-24-15-15-32 15-21-17v-32L700 813l-22 27h-20l-11-30h-23v33L600 850l-24-20-14 9 14 30-18 22-35-13-17 22 30 28-8 27-28 1v18l34 13 6 26-24 18 8 16h39l13 18-13 24 14 15 23-23 27 11v31h19l15-23h26l18 24h14v-34l22-14 27 14 14-16-20-28 15-21Zm-151 42a100 100 0 11 100-100 100 100 0 01-100 100Z"/><path d="m700 927 8-12L700 907l-12 12-13-10 11-9-13-9-12 9-22-15-11 15 13 10-41 72-10-6-8 14 27 16-9 14 19 10 8-13 9 6-6 14 17 7 8-18a30 30 0 00 45-7 29 29 0 00-11-42 29 29 0 00 34-10 29 29 0 00-23-40Zm-40 77a31 31 0 01-36-10l16-25c18 0 29 16 27 25a12 12 0 01-3 6Zm22-41a31 31 0 01-36-10l16-25c18 5 28 16 27 25a17 17 0 01-3 10Z" fill="#ff6700"/></svg>
