<svg xmlns="http://www.w3.org/2000/svg" width="24" height="24" xmlns:v="https://vecta.io/nano"><path d="M18.927 23.98v-.506c0-.28-3.051-.507-6.82-.507s-6.82.227-6.82.507v.506h13.64zM7.315 8.223v2.343a2.342 2.342 0 1 0 2.343-2.343H7.315z"/><path fill="#fff" d="M12 10.584H7.315a2.341 2.341 0 1 0 4.685 0Z"/><path fill="#222326" d="M12 10.584H9.658v2.342A2.341 2.341 0 0 0 12 10.584Z"/><path d="M14.339 12.926a2.338 2.338 0 1 0 0-4.677 2.338 2.338 0 1 0 0 4.677Z"/><path fill="#fff" d="M16.685 10.584H12a2.341 2.341 0 1 0 4.685 0Z"/><path fill="#222326" d="M16.685 10.584H14.33v2.342a2.347 2.347 0 0 0 2.354-2.342Z"/><path fill="#4d4d4d" d="M13.753 17.797c1.56 0 2.829-.946 2.829-2.108v-2.69H7.315v2.69c0 1.162 1.269 2.108 2.829 2.108h3.609Z"/><path d="M9.669 17.797v-4.798H7.315v2.734c0 1.171.793 2.064 2.354 2.064Zm4.571 0v-4.798h2.342v2.734c0 1.171-.79 2.064-2.343 2.064Zm-2.938-9.034h1.396V4.086h-1.396v4.677Z"/><path fill="#4d4d4d" d="M6.736 20.61h1.346v-.538H6.736a1.346 1.346 0 0 0 0 2.692h1.346v-.539H6.736a.806.806 0 1 1 0-1.615Z"/><path d="M9.428 20.61H8.082v-.538h1.346a1.346 1.346 0 0 1 0 2.692H8.082v-.539h1.346a.806.806 0 1 0 0-1.615Z"/><path d="M9.428 20.61v-.538H6.736v.538h2.692Z"/><path fill="#4d4d4d" d="M10.7 20.555h1.345v-.538H10.7a1.346 1.346 0 0 0 0 2.692h1.346v-.539H10.7a.806.806 0 1 1 0-1.615Z"/><path d="M13.391 20.555h-1.346v-.538h1.346a1.346 1.346 0 0 1 0 2.692h-1.346v-.539h1.346a.806.806 0 1 0 0-1.615Z"/><path d="M13.391 20.555v-.538H10.7v.538h2.692Z"/><path fill="#4d4d4d" d="M14.674 20.61h1.346v-.538h-1.346a1.346 1.346 0 0 0 0 2.692h1.346v-.539h-1.346a.806.806 0 1 1 0-1.615Z"/><path d="M17.366 20.61H16.02v-.538h1.346a1.346 1.346 0 0 1 0 2.692H16.02v-.539h1.346a.806.806 0 1 0 0-1.615Z"/><path d="M17.366 20.61v-.538h-2.692v.538h2.692zm-7.938 0H8.082v-.538h1.346c.743 0 1.346.603 1.346 1.346h-.539a.806.806 0 0 0-.807-.808zm3.963-.055h-1.346v-.538h1.346c.743 0 1.346.603 1.346 1.346h-.538a.806.806 0 0 0-.808-.808zm-1.354-14.13l1.656-1.656a2.342 2.342 0 1 0-3.312 0l1.656 1.656zm3.434 12.616c.609 0 1.1-.062 1.11-.136v-.876H7.316v.874c0 .076.491.138 1.11.138h7.046zM12.9 8.763v-.406c0-.225-.403-.407-.9-.407s-.9.182-.9.407v.406h1.8z"/><path fill="#222326" d="m17.341 8.25-.08-.091-.018-.12-.116-.035-.082-.09-.116.034-.117-.033-.079.092-.116.035-.017.121-.079.092.052.11-.017.122.102.064.052.11h.122l.103.066.102-.067.121-.001.05-.111.102-.067-.018-.12.05-.111Z"/><path fill="#fff" d="m17.147 8.203-.043-.044-.234.234-.11-.11-.044.043.154.154.277-.277Z"/></svg>