<svg xmlns="http://www.w3.org/2000/svg" viewBox="0 0 702.6 702.6"><g fill="#f70000"><path d="M645.6 574.3a42.7 42.7 0 0 0-68.1-28.8c-2.2 1.7-25.8 18.2-37.2 15.4L179 468a31 31 0 0 1-23-26.7A42.5 42.5 0 1 0 73 459a42.5 42.5 0 0 0 59 61.2c7.7-8 19.1-11.3 30-8.5l366.4 94.1a27 27 0 0 1 20.2 23.2 42.5 42.5 0 1 0 82.9-18.1 42.4 42.4 0 0 0 14-36.6h.1Z"/><path d="M621.3 411.7a42.7 42.7 0 0 0-73 11.8c-1 2.6-12 29.4-23.2 33.1L170 570.8a31 31 0 0 1-33.4-9.9l-.3-.3A42.5 42.5 0 1 0 75.7 620a42.5 42.5 0 0 0 82.5 20.4A31 31 0 0 1 179 617l360.1-116c10.5-3.5 22 0 29.2 8.4l.3.3a42.5 42.5 0 1 0 60.4-59.6c3.9-13.3 1-27.6-7.7-38.4Z"/></g><g stroke="#f70000" stroke-linecap="round" stroke-miterlimit="10"><g stroke-width="51"><path fill="none" d="M423 126.7a170.1 170.1 0 1 1-138-1.4"/><path fill="#fff" d="M354.2 53.4v121.3"/></g><g fill="none" stroke-width="29"><path d="M470.2 289c-.5.5 1 .7 1 0s-1-1-1.7-1c-38.7-6.3-78.3 2.6-117.5.3"/><path d="M411.9 227c-3.7 1.6-4.1 6.6-4 10.6 1.9 41.8 5.8 83.5 11.8 125M329.5 265a773 773 0 0 0-98-2.4"/><path d="M275.1 210c1.5 41.6 5 83.3 10.5 124.6"/></g></g><circle cx="350.7" cy="372.9" r="29.5" fill="none" stroke="#f70000" stroke-width="23"/></svg>