<svg xmlns="http://www.w3.org/2000/svg" xml:space="preserve" style="background:#b0752b;font-family:monospace" viewBox="0 0 1080 1920"><style>svg{animation:a ease-in-out
9s infinite}@keyframes a{from{transform:translateY(0%)}50%{transform:translateY(1%)}to{transform:translateY(0%)}}path,g{transform-origin:50%}@media(min-aspect-ratio:5/3){path{transform:rotate(90deg)scale(1.5)}g g{transform:translate(15%,7%)scale(1.55)}}</style><g><path d="M942 1752V274l-30-101c-4-12-13-33-39-33H207c-25 0-35 22-38 33l-30 101v1483c0 18 19 22 42 22h718c30 0 43-12 43-27" fill="#b0752b"/><path d="M912 173v1370c0 28 2 57 7 85l23 124V274l-30-101zm-49 1385H221c-21 0-39 15-42 35l-26 151c-4 21 16 35 33 35h709c17 0 37-17 34-35l-27-153c-3-20-20-33-39-33zm-724 194 23-124c5-28 7-57 7-85V173l-30 101v1478zM873 140H208c-16 0-28 12-28 27v1348c0 17 14 31 31 31h659c17 0 31-14 31-31V167c0-15-13-27-28-27z" fill="#fed65c"/><g><text x="50%" y="49%" text-anchor="middle" style="fill:#b0752b;font-size:256px;pointer-events:none">1kB</text></g></g></svg>