<svg xmlns="http://www.w3.org/2000/svg" width="147.095" height="147.073" viewBox="0 0 38.919 38.913" xmlns:v="https://vecta.io/nano"><path d="M.95.95h37.019v37.013H.95z" opacity=".99" fill="#fff" stroke="#000" stroke-width="1.9" paint-order="stroke fill markers"/><path d="M17.156 14.302h5.381v13.274h-5.381z" paint-order="stroke fill markers"/><ellipse cx="23.585" cy="25.544" rx="2.876" ry="2.109" paint-order="stroke fill markers"/><g fill="#fff"><ellipse cx="23.505" cy="26.328" rx=".777" ry=".75" paint-order="stroke fill markers"/><circle cx="19.009" cy="16.771" r=".836" paint-order="stroke fill markers"/></g><ellipse cx="19.027" cy="16.762" rx=".285" ry=".276" paint-order="stroke fill markers"/><ellipse cx="15.213" cy="22.093" rx="1.687" ry="1.7" paint-order="stroke fill markers"/><path d="M15.212 14.43c-.357-1.239.247-2.531 1.522-3.254s2.959-.729 4.241-.015 1.9 2.002 1.556 3.243z" paint-order="stroke fill markers"/><path d="M15.444 17.833a2.57 2.57 0 0 1-1.458-4.771 2.57 2.57 0 0 1 3.144.4" paint-order="stroke fill markers"/><g fill="#fff" stroke="#fbfbfb"><path d="M13.771 14.413h7.6" opacity=".96" stroke-width=".093" paint-order="stroke fill markers"/><ellipse cx="16.031" cy="16.649" rx=".767" ry=".754" paint-order="stroke fill markers" stroke-width=".1"/></g><path d="M16.696 14.463l-2.454 6.339m1.781-4.445a.3.3 0 1 1-.206.47z" stroke-width=".1" paint-order="stroke fill markers" stroke="#000" fill="#101010"/><path d="M21.318 14.426l-1.767 6.594m-1.053.003h2.512" fill="#101010" stroke-width=".1" paint-order="stroke fill markers" stroke="#fff"/><path d="M20.002 14.136c.047-.652 1.052-1.162 2.256-1.147s2.162.552 2.151 1.204" opacity=".99" stroke="#000" stroke-width=".115" paint-order="stroke fill markers"/></svg>