<svg xmlns="http://www.w3.org/2000/svg" baseProfile="tiny" width="403" height="626" overflow="visible" xmlns:v="https://vecta.io/nano"><style><![CDATA[.B{stroke-miterlimit:10}.C{stroke:#000}.D{fill:#c63631}.E{stroke-linejoin:round}.F{stroke-width:2}.G{fill:#969696}.H{fill:#f4c045}.I{stroke-linecap:round}]]></style><path fill="#fff" d="M0 0h403v626H0z"/><g class="B C F"><path fill="#fff" d="M202.4 565.4c78.1 0 144.3-19.2 167.2-45.8V308.5c-31.2 17.8-94.8 30-168.1 30-74.9 0-139.5-12.7-170-31.1V516c19.7 28.5 89.3 49.4 170.9 49.4z"/><path d="M202.4 565.4c-81.6 0-151.2-21-171-49.4v9.9c19.7 28.5 88.3 49.5 170 49.5 79.2 0 146.2-19.8 168.1-46.9v-8.8c-22.7 26.5-88.9 45.7-167.1 45.7z" class="D"/><path fill="none" d="M201.5 575.4c-81.7 0-150.3-21-170-49.5v11.5c19.7 28.5 88.3 49.5 170 49.5 79.2 0 146.2-19.8 168.1-46.9v-11.5c-21.9 27.1-88.9 46.9-168.1 46.9z"/></g><path d="M150.5 520.2l-4.8-.4c.1-6.2-9.8-7.3-9.7-1 2.4 9.3 15.6 14.1 14.2 24.8-.2 13.3-26 10.3-24.3-2.6 1.9.2 2.9.4 4.9.6-1 4.4 5.9 6.6 8.5 4.4 5.4-8.3-13.9-16.7-13-26-1.1-9.1 7.1-12 14.7-10 6 .6 9.2 3.9 9.5 10.2zm22.9-7.8c7.6.1 19.2-.4 19.4 9.9-1.2 9.1 2.9 23.2-2.9 29.9-4.7 4.3-11 2-16.7 2.2-5.1-.1-9.9-4.8-9.7-9.9 1.7-10.3-5.8-31.7 9.9-32.1zm-.1 9.3c1.2 6.6-3.9 28.6 4.7 28.2 2.6.2 5-1.9 4.9-4.5l.1-23.4c.2-5.8-9.7-6.4-9.7-.3zm51.9-9.1c3.9-.2 5.8-.2 9.7-.5l.3 32.7c-.1 10.4-11.8 10.3-19.5 10.1-5.1.3-9.9-4.1-9.8-9.2V513l9.7-.1.1 32.7c0 2.5 2.4 4.7 4.9 4.5 2.6 0 4.9-2.3 4.9-4.8l-.3-32.7zm23.1 40.7l-.5-42c9 .5 18.2-4.5 26.2.2 3.5 2.6 3 7 3 10.9 0 10.3-11.4 11.1-19.3 11.4l.3 18.7-9.7.8zm9.4-24.2c3.9-.2 9.7-.5 9.7-5.7.7-8.4-2-9.7-9.9-8.3l.2 14z"/><g class="C F B"><g class="E"><path d="M372.5 42.7c0 13.9-74.8 27.9-170.6 27.9S28.6 58.3 28.6 44.4 106.2 22.3 202 22.3s170.5 6.5 170.5 20.4z" class="G"/><path fill="none" d="M365 36.4c.8 16.1-81.5 27.2-165.7 27.2-93.1 0-160.5-11.9-163.2-19.4-1.6-4.5 23.5-10.8 66.8-13.1-43.3 2.3-68.4 8.6-66.8 13.1 2.7 7.5 70.1 19.4 163.2 19.4 84.2 0 166.5-11.1 165.7-27.2" class="I"/><path d="M372.4 42.7c0 13.9-74.8 27.9-170.6 27.9S28.5 58.3 28.5 44.4c-6.2 22.7 46.9 34.6 172 36.5 125-1.9 179.4-14.4 171.9-38.2z" class="G"/></g><path d="M31.5 76.3v231.1c30.5 18.4 95.2 31.1 170 31.1 73.3 0 136.9-12.2 168.1-30V77c-37.7 13.8-98.9 22.8-168.1 22.8-70.3 0-132.5-9.3-170-23.5z" class="D"/><path d="M201.5 93.4c-70.3 0-132.5-9.3-170-23.5v6.5c37.5 14.2 99.7 23.5 170 23.5 69.2 0 130.4-9 168.1-22.8v-6.4c-37.7 13.7-98.9 22.7-168.1 22.7z" class="E H"/><path d="M200.5 80.9C99.1 79.3 45 71.2 31.5 56.1v13.8c37.5 14.2 99.7 23.5 170 23.5 69.2 0 130.4-9 168.1-22.8V55.4c-13.8 15.6-68.7 24-169.1 25.5z" class="D"/><path d="M201.5 586.9c-81.7 0-150.4-21-170-49.5 0 0-2.5 2.7-2.9 9.8-.4 5.4 2.9 10.3 2.9 10.3 20.9 27.8 88.7 48.2 169.1 48.2s148.2-20.4 169.1-48.2c0 0 2.3-3.1 2.4-9.6.1-3.6-2.4-8-2.4-8-22 27.3-89 47-168.2 47z" class="E G"/></g><circle cx="201.5" cy="334.5" r="53.7" class="H"/><path d="M45.1 49.1S93.3 36 208.6 33.5C320.7 31.1 352.4 47 352.4 47M74.5 55.4S98.5 40 201.7 40c111.9 0 129 12.4 129 12.4m-220.6 7.3s32.2-13.2 99.1-13.2c59 0 81.5 12.6 81.5 12.6" fill="none" class="B C E F I"/><path d="M50 174.1c-.5-2.5-.5-4.8 0-7.1.4-1.7 1.2-3.3 2.4-4.6a11.92 11.92 0 0 1 4.3-3c1.7-.7 3.6-1.1 5.7-1.1s4.2.3 6.4.9c2.5.7 4.8 1.9 7 3.4.3.2.7.4 1.1.6s.6 0 .5-.5c-.1-.3-.2-.7-.5-1-.2-.4-.4-.7-.6-1a6.42 6.42 0 0 0-1-1.3c-.2-.1-.4-.2-.5-.3-2.2-1.5-4.5-2.7-7-3.4-2.2-.7-4.3-1-6.4-.9-2.1 0-4 .4-5.7 1.1s-3.2 1.7-4.3 3c-1.2 1.3-2 2.8-2.4 4.6-.5 2.3-.5 4.7 0 7.2.2 1.1.6 2.2 1 3.4zm23.6-23.5a22.59 22.59 0 0 1-3-4.1l-1.1-2.1c.1.5.1 1 .3 1.5.4 1.4 1 2.8 1.8 4.2a22.59 22.59 0 0 0 3 4.1 33.28 33.28 0 0 0 3.9 3.6c1.7 1.3 3.5 2.5 5.4 3.4s3.8 1.5 5.7 1.9c.5 1.9 1.1 3.7 1.8 5.6l.8 2.4c0-.1 0-.2-.1-.3l-1.7-5.7-1.8-5.6c-1.9-.3-3.8-1-5.7-1.9s-3.7-2-5.4-3.4a33.28 33.28 0 0 1-3.9-3.6zm23.2 1.5c-.1-.7-.1-1.4-.1-2.1.1-1.2.4-2.3 1-3.4.6-1 1.6-1.6 2.9-1.8s2.6.1 3.9.9c.9.6 1.6 1.3 2.2 2.1a4.09 4.09 0 0 0-.4-2.4c-.6-1.3-1.5-2.4-2.8-3.2-.3-.2-.6-.3-.9-.4-.6-.2-1.2-.4-1.8-.5h-1.2c-1.4.2-2.4.8-2.9 1.8-.6 1-.9 2.2-1 3.4-.1 1.3.1 2.9.6 4.6.2.3.3.6.5 1zm14.1 1.5c.3-1 .4-2 .2-3.1-.1-.9-.4-1.9-.9-2.8 0 .8-.1 1.7-.3 2.4-.3 1-.7 1.9-1.3 2.8s-1.3 1.7-2.1 2.4c-.6.6-1.3 1.1-1.9 1.5l-.3.3c-.8.7-1.7 1.2-2.5 1.6-.7.3-1.5.6-2.2.7l1.3 3.2c2.6-.8 4.8-2 6.6-3.7.8-.7 1.5-1.5 2.1-2.4.6-1 1-1.9 1.3-2.9zm-33-16.9h-.2l-.9 2c-.6 1.6-.7 3.3-.1 5.2l.6 1.6c-.1-1.2.1-2.3.5-3.3.6-1.5 1.4-3 2.3-4.3.1-.1.1-.3 0-.4-.2-.1-.4-.3-.7-.3-.3-.1-.6-.2-.9-.2-.4-.3-.5-.3-.6-.3zm26 34.7c.8 3.4.9 6.6.4 9.7-.6 3.6-2 6.9-4.1 9.9-2.1 3.1-4.9 5.5-8.4 7.2s-7.5 2.4-12 1.9c-2.5-.2-5-.8-7.6-1.7s-5-2.1-7.4-3.5-4.7-3.1-6.9-5-4.1-3.9-5.8-6.1c-3.2-4.2-5.6-8.5-7.1-12.9-.1-.2-.1-.3-.2-.5.3 1.3.7 2.7 1.1 4 1.5 4.4 3.9 8.7 7.1 12.9 1.7 2.2 3.6 4.2 5.8 6.1s4.5 3.6 6.9 5 4.9 2.6 7.4 3.5c2.6.9 5.1 1.5 7.6 1.7 4.5.4 8.5-.3 12-1.9 3.5-1.7 6.3-4.1 8.4-7.2 2.1-3 3.5-6.3 4.1-9.9s.3-7.5-.8-11.6a9.83 9.83 0 0 0-.5-1.6zm53.8 4.6c-.4.2-.8.4-1.1.7-1.9 1.3-3.6 3-5.2 5.1s-2.9 4.4-4 6.9-1.9 4.9-2.3 7.1-.5 4.1-.2 5.6c.1.8.4 1.4.8 1.8 0-1.1.1-2.4.4-3.9.4-2.2 1.2-4.6 2.3-7.1s2.4-4.8 4-6.9 3.3-3.8 5.2-5.1 3.8-1.9 5.9-1.7c.5 0 1 .1 1.3.3.3-.6.6-1.3.9-2-.1-.2-.3-.4-.5-.7-.2 0-.3 0-.5-.1-2.6-.1-4.9-.1-7 0zm19.5 4.6l-3.3 7.9-1.5 3.7-1.4 3.3c-.4 1-.8 1.9-1.1 2.6a22.43 22.43 0 0 0-.6 1.5c-.9 2.1-1.3 3.7-1 4.6.2.7.6 1.2 1.1 1.4.2-.7.5-1.5.9-2.5.1-.2.3-.7.6-1.5l1.1-2.6c.4-1 .9-2.1 1.4-3.3l1.5-3.7 4-9.6c-.6-.7-1.1-1.3-1.7-1.8zm21 1.6c-.1.2-.1.3-.2.5.3-.4.7-.8 1.1-1.2-.1-.3-.3-.5-.4-.8-.2.6-.3 1-.5 1.5zm-84.1-9.9c.8.2 1.4.3 2.1.4.4-.8.7-1.6 1.1-2.4-.5-.1-1.1-.2-1.7-.3-.7.9-1 1.4-1.5 2.3zm18.4-.2c-.7-.1-1.4-.2-2.4-.4l-9.4 22c-.9 2-1.3 3.5-1 4.5.2.7.5 1.2 1.1 1.5a19.46 19.46 0 0 1 .9-2.5l9.4-22 5.9.9 2-2.8-6.9-.5c.2-.2.3-.4.4-.7zm88.7 8.6c0 .2 0 .5-.1.7l.3-.3c-.1-.2-.2-.3-.2-.4zm47.4-1.3c-.3.4-.5.8-.8 1.3-1.6 2.7-3.2 5.8-4.9 9.5s-3.4 7.8-5.2 12.3c.5.7 1.2 1.1 1.9 1.3 1.5-3.7 2.9-7 4.3-10.1 1.7-3.7 3.3-6.9 4.9-9.5s3.1-4.7 4.5-6.2 2.7-2.3 3.9-2.5c1-.2 1.7 0 2.2.4v-.4c0-1.3-.2-2.3-.7-2.9-.3-.3-.6-.5-1-.6-1.3.5-2.5 1.1-3.5 1.9-2.2 1.5-4.1 3.4-5.6 5.5zm-25.1 1.5c-.3 2.1-1.2 4.8-2.7 8-2.8 5.7-4.4 9.9-4.9 12.6-.4 2.6-.1 3.9.9 4 0-.2 0-.3.1-.5.5-2.8 2.1-7 4.9-12.6 1.6-3.2 2.5-5.9 2.7-8 .3-2.1 0-3.7-.7-4.9-.1-.1-.1-.2-.2-.3 0 .6 0 1.1-.1 1.7zm.7 28.5l2.1-5.3c-.3.3-.6.6-1 .9-1.2 1.2-2.5 2.1-3.8 2.8s-2.4 1.1-3.5 1.2c-.2 0-.4 0-.6-.1-1.3.4-2.6.7-4 .8-1.9.1-3.6-.1-5.1-.8-1.3-.6-2.3-1.6-3-2.9.1 1.2.3 2.2.8 3.2.7 1.5 1.8 2.6 3.2 3.2 1.5.7 3.1.9 5.1.8 2.3-.2 4.6-.8 6.6-1.9 1.1-.5 2.2-1.2 3.2-1.9zm-15.5-26.9c1.5-1 2.7-1.6 3.7-1.5.5-1.1.7-1.9.6-2.5s-.5-.9-1.3-1c-1.2.4-2.4 1-3.5 1.8-2.1 1.4-4.1 3.3-6 5.6-1.9 2.6-4 6-6.2 10.2-2.3 4.3-4.6 9.6-7.1 15.9-2.1 0-3.9-.2-5.3-.7-1-.3-1.8-.9-2.4-1.6 0 1.1.1 2 .5 2.7.5 1.1 1.5 2 2.9 2.4 1.4.5 3.1.7 5.3.7 2.4-6.3 4.8-11.5 7.1-15.9 2.3-4.3 4.4-7.8 6.4-10.5 1.9-2.6 3.7-4.5 5.3-5.6zm-22.3.6c1.5-1 2.8-1.4 3.8-1.3.3-.8.5-1.6.5-2.1 0-.8-.4-1.3-1.3-1.4h-.2a14.65 14.65 0 0 0-3.8 1.8c-1.9 1.3-3.7 3-5.4 5-1.9 2.5-4.1 5.9-6.3 10.1-2.3 4.2-4.7 9.4-7.1 15.6l-.1-.1h-.3c-3-.1-5.1-1.1-6.4-3 0 1.3.3 2.4.8 3.3 1.2 2 3.4 3.1 6.5 3.2h.3l.1.1c2.4-6.2 4.8-11.4 7.1-15.6s4.5-7.6 6.4-10.2c2-2.5 3.8-4.3 5.4-5.4zm84.8-7.6l-.3-.6c.1.8 0 1.8-.1 2.8-.3 2.3-1.1 4.9-2.4 7.7-1.9 3.9-4.1 7.3-6.5 9.9-2.5 2.7-5 4.9-7.5 6.5-2.5 1.7-4.9 2.9-7.2 3.7-.4.2-.9.3-1.3.4-1.2.9-2.4 1.4-3.6 1.6-1 .2-1.9 0-2.6-.5-1.3 0-2.6 0-3.9-.2l-8.1 21c-.2 0-.3 0-.5.1-3 .3-5.1-.5-6.3-2.2 0 1.3.3 2.5.9 3.4 1.2 1.9 3.4 2.7 6.4 2.4.2 0 .3 0 .5-.1l8.1-21c1.9.3 3.8.3 5.8.1 1.4-.2 3.2-.7 5.5-1.4 2.3-.8 4.7-2 7.2-3.7s5-3.9 7.5-6.5c2.5-2.7 4.7-6 6.5-9.9 1.3-2.8 2.1-5.4 2.4-7.7.3-2.4.2-4.3-.5-5.8zm-111.6 32c-.5-.8-.8-1.8-.8-2.8-.8 1-1.7 1.8-2.5 2.4-1.1.9-2.1 1.4-3 1.8-1 .3-1.7.5-2.3.4-.3 0-.5-.1-.7-.2-1.6.4-3.3.6-5 .5-2.7-.2-4.8-.9-6.3-2.2-.6-.5-1.1-1.1-1.4-1.8.2 2.3 1 4.1 2.4 5.3 1.5 1.3 3.6 2 6.3 2.2 3.8.3 7.5-.9 10.9-3.4.9-.6 1.7-1.3 2.5-2.1l-.1-.1zM135 160.9l-1.7 3.8-2 4.7c.9.1 1.7.1 2.4.2.2-.4.4-.9.6-1.3.6-1.5 1.2-2.7 1.7-3.8.6-1.3 1.1-2.4 1.5-3.5h-.1l-2.2-.3c-.2 0-.2.1-.2.2zm-2.3 35.5c-.5.9-1.1 1.6-1.7 2.3-1.1 1.3-2.2 2.4-3.3 3.1s-2.1 1.2-3 1.5c-1 .2-1.7.3-2.3.2-.2 0-.3-.1-.5-.1-1.7.3-3.4.3-5.2 0-1.9-.3-3.5-1-4.9-1.8-1.2-.8-2.1-1.7-2.7-2.9.1 1.1.3 2.1.7 3 .6 1.4 1.6 2.6 3 3.4 1.4.9 3 1.5 4.9 1.8 3.8.7 7.4-.1 10.8-2.3 1.9-1.2 3.5-2.7 4.9-4.5-.3-1.2-.6-2.4-.7-3.7zm23.9 5.4c-.4.4-.8.7-1.2 1.1l-.3.3c-.7.9-1.4 1.6-2.2 2.3-.7.7-1.5 1.1-2.3 1.5-.8.3-1.6.5-2.5.4-.2 0-.4-.1-.6-.2-1.4.3-3 .3-4.6.1-3.1-.4-5.5-1.6-7.2-3.7a14.36 14.36 0 0 1-1.9-3.1 12.68 12.68 0 0 0 2.9 6.7c1.7 2.1 4.1 3.3 7.2 3.7 3 .4 5.6-.1 7.9-1.3 2.2-1.2 4.2-2.6 5.8-4.2-.6-1-.9-2.2-1-3.6zm167.2-58.2c-.4-.3-.8-.3-1.3-.1-.2.7-.5 1.4-.8 2.3-.6 1.4-1.3 2.6-2.3 3.7s-2.2 1.8-3.5 2.4l-15.8 5.8c-.7.3-1.4.4-2 .3-.3 0-.6-.1-.9-.3-.1.1-.2.1-.3.2a3.34 3.34 0 0 0-.1 1.7c.1.5.4.9.8 1.3.4.3.9.5 1.5.6s1.3 0 2-.3c6.3-2.2 9.5-3.4 15.8-5.8 1.3-.5 2.5-1.3 3.5-2.4s1.8-2.3 2.3-3.7l1.5-4.2c.1-.6 0-1.2-.4-1.5zm22.6 39.4c.3-.9.6-1.9.7-2.9.4-2.5.1-4.5-.6-6-.1-.1-.1-.2-.2-.3 0 .8 0 1.8-.1 2.8-.3 2.4-1.1 4.4-2.3 6.2s-2.6 3.3-4.2 4.6c2.3-1.1 4.4-2.5 6.3-4 .1-.1.3-.2.4-.4zm4.5-26.7c-.6.5-1.2.8-1.9.9s-1.2-.2-1.6-.8c-.3-.5-.6-.8-1-1-.3.1-.5.1-.8.2-2.3.7-4.4 1.6-6.3 2.6-.6.9-.9 1.8-.9 2.8 0 1.2.4 2.1 1 2.9.2-1.1.6-2.1 1.5-3 1.1-1.1 2.1-1.9 3.2-2.2 2-.6 3.4-.2 4.2 1.2.4.6 1 .9 1.6.8.7-.1 1.3-.4 1.9-.9s1-1.1 1.2-1.8a1.91 1.91 0 0 0-.4-1.9c-.3-.3-.6-.6-1.1-.8-.1.4-.3.7-.6 1zm9.9 14.3c-.1-.3-.3-.4-.6-.4s-.6.2-1 .4a2.73 2.73 0 0 0-.9 1.2c-.7 1.6-1.6 3.3-2.6 5-1.1 1.8-2.3 3.5-3.8 5.2s-9.4 7-8.5 6c-2.7 1.8-5.7 3.2-9 4.2-1.9.6-3.6 1-5.1 1.2l-1.3.2c-.2.1-.3.2-.5.3-.3 0-.6-.1-.9-.2h-1.1l-1 .3c-2.3.6-4.1.8-5.4.6-1-.2-1.8-.5-2.4-.9-.1.3-.1.5-.2.8a2.78 2.78 0 0 0 .7 2.3c.6.7 1.5 1.1 2.9 1.3 1.3.2 13.5-1.9 15.5-2.5 3.4-1 6.6-2.5 9.4-4.5 2.8-1.9 5.3-4.1 7.4-6.4s3.9-4.6 5.3-6.9 2.5-4.4 3.2-6.3c0-.2.1-.7-.1-.9zm-29.4 2.8c-.9-1-1.8-2-2.5-3.2-.1 1.2.2 2.3.7 3.1.8 1.3 1.7 2.5 2.8 3.6.9.9 1.7 1.8 2.4 2.8.2-1.2 0-2.2-.6-3-.8-1.1-1.7-2.2-2.8-3.3z"/><path d="M108.8 152.9c8.5-18-27.4-23-21.3 1.7-8.7-3.4-14.2-12.7-8.3-20.7-20.2-4.3-8 23.2 9.5 25.6 10.2 20.8.1 44-24.8 30.9-17.7-8.5-23.2-41.3 4.1-34.7 2.3-.2 11.4 7.6 7.5 1.6-6.5-11.4-30.9-16.2-32.5.8-1.6 49.3 81.3 60.4 56.6 1.1 4-1.1 7-3.2 9.2-6.3zm-5.3.7c-1.6 1.2-3.3 2.1-5.1 2.3-11.1-22.1 17.7-15.6 5.1-2.3zm183.5 15c-7.2-3.2-15.5 1.4-19.5 7.6.4-4.3-4.3-6.3-8.1-5.4-5.8 11.9-7.6 30.7-22.2 34.8-5-4.2 6.2-17.8 6.5-24.6.8-13.4-18-7.3-22.4.5-.4-12.6-18.8-6.7-23.1 1.4 2.5-4.9-2.9-9.3-7.6-8.7-5.4 11.1-6.4 21.5-15 29.4-16.3 10.5 1.4-19 2.5-24.6-8.7-10.3-29.4-7.7-38.3.6-6.1 5.1-6 14.6-12.8 18.8-16.4 8.6 2.3-20.7 3.4-26.5l5.9.9 2-2.8-6.9-.5c1.7-4.1 3.7-8.1 5.2-12-8.7-2.1-15.5 1.2-18 9.9l-4-.7c-.6.9-.8 1.4-1.4 2.3l4.4.8c-3 9-11.3 19-8.6 28.5 5 8.9 18.6 5.9 23.8-1.7.7 12.7 17.1 13.9 23.9 5.4.9 11.2 16.5 8.9 22.1 2.2-.1 4.2 3.1 6.7 7.7 6.7l.1.1c2.9-7.5 16.5-38.4 24.2-31-1.4 8.8-21.5 31.1-1.8 31.2 3.3-8.2 15.3-37.7 24.1-32.4-1.2 6.5-8.1 14.8-8.7 21.7-1.5 14.3 16.7 10.3 22.4 2.6-2.1 7.5-14.6 26.1.9 25.1l8.1-21c13.8 1.7 26.6-9.1 32.6-21.5 2.8-6 4.9-13.8-1.4-17.1zm-126.8 21.1c-2.8 5.5-5 11-10.4 13.8-15 2.9 6.3-38.5 16-26.6l-5.6 12.8zm118.4-9.3c-2.6 7.2-11.4 28.5-20.9 22.2 4.1-10 8.1-20.5 14.6-28.1 5.9-6.2 8.9-.1 6.3 5.9zm40.9-30.8c1.4-1.2 6.6-11 1.9-9.5-8.3 5-16.8 9.7-25.4 14.2-1 2.6 1.9 4.4 4.2 3.3 7-2.9 13.2-3.3 19.3-8zm40.5 17.5c-.7-1.1-2.1.3-2.4 1.3-3.4 8-9.7 15.2-17.8 19.1 8-5.8 9.1-17.9.1-23-5-4 4.1-13.1 7.6-7.9.4.6 1 .9 1.6.8 1.9-.3 4.2-2.9 2.8-4.7-7.3-4-21.3 5.1-23.5 12.1-2.4 11.2 17.3 11.1-1.7 25.8-3.5 0-5-3.7-8.1-3.1-3.7 1.2-4.1 7.1.6 7.4 16.9.2 36.4-10.8 40.8-27.8z" fill="#fff" class="B C"/><path d="M237.7 359.4h-72.4c.3-4.6-1.9-15 5.6-14.8h61.2c7.5-.2 5.4 10.2 5.6 14.8zM230.9 368.6h-58.8c-3.6.1-3.9-4-3.7-6.7h66.2c.2 2.8 0 6.8-3.7 6.7zM212.5 336.1c-4.9.5-3.4-6.4-3.6-9.2.6-6.3 7.1-9.7 6.3-17-3.3-30.9-40-10.8-23.3 11.3 1.4 1.6 2.2 3.5 2.2 5.6 1.4 15.9-6.9 3.8-6.3 14.3 0 1.2 1 2.2 2.2 2.2h23c3.4.1 3-7.5-.5-7.2zm-11-19.6c-10.4.2-10.4-16.2 0-16.1 10.4-.1 10.4 16.2 0 16.1z"/><path d="M130.7 258.7c-15.1 4.6-21-22.5-4.3-20.4 4.4.6 4.8 1.3 3.5 4.7-11.9-6.8-11.8 15.6.1 12.1l.7 3.6zm20.6-7.5c.4 15.1-18.9 10.7-17.8-1.6-.6-14.2 19-10.5 17.8 1.6zm-13.2-1.1c0 4.1 1.6 6.9 4.3 7.2 11-1.5-2.1-24.8-4.3-7.2zm17.9 11.8l-.1-20c7.9-.9 8.5 9.5 12 14.9-.5-4.1-.4-9.5-.4-14.1l4.1.2.1 20c-7.7.9-8.3-10-11.9-15.2.3 3.9.3 9.9.3 14.4-1.7 0-2.5-.1-4.1-.2zm21.2-18.4c22.1-5.2 21.9 25.5 0 19.6v-19.6zm4.5 16.6c9.5 2.8 9.9-15.8 0-13.3v13.3zm28-4.9l-6.7.1v5l7.6-.1v3.6l-12 .1v-20l11.6-.1v3.6l-7.1.1v4.3l6.7-.1-.1 3.5zm5.7 8.4v-20c7.8-1.9 8.6 8.5 12 13.6-.4-4-.4-9.5-.4-14l4.1-.2-.1 20c-7.5 1.9-8.3-9-11.8-13.9.2 3.9.2 9.8.2 14.4-1.6 0-2.4.1-4 .1zm21.2-5.4c3.7 2.7 12.6-1.6 4.6-4.3-11.5-3.7-1.3-15.2 7-11.4a47.33 47.33 0 0 0-.9 3.6c-1.2-.9-7-1-6.7 1.6.6 3 9.6 3.6 8.4 8.1 1.8 6.1-16.2 11-12.4 2.4zm28.2-6.7c-2.7.3-4 .5-6.7.7v5l7.5-.8v3.6c-4.8.6-7.2.8-12 1.3l.1-20c4.6-.4 7-.7 11.6-1.2v3.6l-7.1.8v4.3l6.7-.7c-.1 1.3-.1 2-.1 3.4zm5.7-11.8c23-8.7 20.5 22.3-.1 19.6l.1-19.6zm4.3 15.8c7.6 1.7 11-14.9 1.8-13.7-4 2.1-.7 9.1-1.8 13.7z" fill="#fff"/><path d="M116 446.5c-.2-3.6-.4-8-.4-12.3h-.1c-1.9 8.2-4.2 14.9-6.5 22.8-2.1-.2-3.2-.3-5.3-.6-2.2-8.3-4.5-15.4-6.1-24.1h-.1l-.9 23.9-6.3-.8 1.8-31.3 8.8 1c2.1 7.6 4.3 15 5.8 22.6h.1c1.5-7.3 3.6-14.2 5.7-21.4l8.7.8 2 31.7c-2.7-.2-4-.4-6.7-.6-.1-4.6-.3-7-.5-11.7zm32.8.8l-10.6-.7v7.8l11.8.8v5.7c-7.5-.4-11.3-.7-18.8-1.3l-.2-31.5 18.2 1.3v5.7l-11.2-.7v6.8l10.6.7c.2 2.1.2 3.2.2 5.4zm33.9 3.2c-.2-3.6-.3-8-.3-12.2h-.1c-2 8.4-4.4 15.2-6.7 23.3l-5.3-.2c-2.2-8.2-4.4-15.1-6-23.7h-.1l-1 23.9-6.4-.3 2-31.4 8.8.4c2 7.5 4.2 14.6 5.7 22.2h.1c1.5-7.5 3.7-14.5 5.9-21.8l8.7.2 1.8 31.5c-2.7 0-4-.1-6.7-.1 0-4.8-.2-7.1-.4-11.8zm15.3-19.2c27.8-6.5 28.3 21.1 7 19.7v11.4h-7v-31.1zm7 14.3c10.3 2.2 10.4-12.3 0-9.4v9.4zm48.4-.9c.9 22.1-28.9 23.3-28 1.7-.7-20.8 28.6-23.2 28-1.7zm-20.6 1.4c-.5 14.6 14.1 12.9 13.2-.7.5-14-13.8-13.2-13.2.7zm54.4-4c1.1 21.6-28.7 24.8-28 2.8-.9-20.3 28.4-24.8 28-2.8zm-20.6 2.2c-.5 14.8 14.1 12.1 13.2-1.3.5-14.2-13.8-12.4-13.2 1.3zm28-18.3c2.8-.3 4.2-.4 7-.8l-.3 25.8 11.5-1.4c0 2.3 0 3.4-.1 5.7l-18.4 2.1.3-31.4z" class="D"/><g class="H"><circle cx="100.5" cy="530.5" r="8.2"/><circle cx="294.3" cy="530.5" r="8.2"/></g></svg>