<svg xmlns="http://www.w3.org/2000/svg" data-name="Layer 1" viewBox="0 0 1600 2100"><path d="M0 0h1600v2071H0" fill="#0f0"/><path d="M67 66h1475v1977H67" fill="#212020"/><path d="m0 1630 288-100a1670 1670 0 01-36-723 1300 1300 0 01 262-534c11-13 48-56 78-48s35 53 73 59a69 69 0 00 20 0 385 385 0 01 141 0A134 134 0 01 900 340a165 165 0 01 88-73 168 168 0 01 164 40 53 53 0 01 53 28 43 43 0 01 0 25 44 44 0 01 30 44 40 40 0 01-19 27 36 36 0 01 10 39 39 39 0 01-38 27 800 800 0 01 235 530 782 782 0 01-153 488l330 134V2100H0Z" fill="#0f0"/><path d="M725 489a334 334 0 01 123-65c38-11 100-30 129 0a53 53 0 01 9 50c-16 36-83 37-124 38a355 355 0 01-137-23Zm330-89 87 46a70 70 0 00 72-32 35 35 0 00 0-33c-27-32-145 19-159 19Z" fill="#f50"/><path d="M1070 532a667 667 0 01 313 512A671 671 0 01 1089 1600c-17-9-257-130-280-368a432 432 0 01 62-264c55-85 109-90 158-168a383 383 0 00 41-268Zm-206-91c-22 11-46 36-39 53a33 33 0 00 23 15 206 206 0 00 71 0c20 0 32 0 38-15s-5-39-21-52a78 78 0 00-72-1Zm226-20a71 71 0 01 54-36c23 0 51 13 51 29s-21 31-53 34Z" fill="#212020"/><path d="M914 467a19 19 0 00-21 13c0 11 11 22 23 21s19-9 18-18a19 19 0 00-20-16Zm247-56a13 13 0 00-15 9c0 7 8 15 16 14s13-6 12-13-7-10-13-10Z" fill="#fff"/><path d="M1174 647A312 312 0 01 1150 800c-40 86-107 106-183 200a574 574 0 00-84 150 381 381 0 01 48-137c38-68 76-87 119-151A468 468 0 00 1117 700a175 175 0 01 0 83 326 326 0 01-25 58 300 300 0 00 58-95 360 360 0 00 24-99Zm-297 576a219 219 0 00 34 158 155 155 0 00 86 67 433 433 0 01-92-112 277 277 0 01-28-113Z" fill="#f50"/><path d="M1076 1586h35V2100h-35" fill="#fff"/><path d="M1076 1591h35a106 106 0 01 0-28c0-19 12-24 10-34a31 31 0 00-33-24 30 30 0 00-26 23c0 9 0 14 7 31a100 100 0 01 7 32Z" fill="#f50"/><path d="M964 373a511 511 0 01 92 27 487 487 0 01 164 114h-8a1100 1100 0 00-100-68 1000 1000 0 00-148-73ZM583 478a436 436 0 01 34-110 248 248 0 01 158-100l-54-6a218 218 0 00-133 117 143 143 0 00-5 99Zm86 22a353 353 0 00 74-40c61-39 63-52 100-63a139 139 0 01 90 0 133 133 0 01 49 31 106 106 0 00-43-46 129 129 0 00-100 0 423 423 0 00-120 78 270 270 0 00-50 40Zm553-132a200 200 0 00-50-7 324 324 0 00-120 33s16-19 40-30a179 179 0 01 124-6m10-32a230 230 0 00-162 0c-26 10-49 26-50 24a133 133 0 01 62-50 179 179 0 01 124 9" fill="#212020"/><path d="M677 415c5 6 80-82 164-76a161 161 0 01 100 52 116 116 0 00-49-56c-76-44-175 35-179 39-23 18-38 38-36 41Zm94 120a438 438 0 00 140 16 100 100 0 00 70-24c29-36-5-100 0-100s44 66 17 110-152 29-165 26a158 158 0 01-62-28ZM400 738a2349 2349 0 00-45 407c0 100 17 152 10 154A461 461 0 01 300 1007a422 422 0 01 100-269Zm118-397c6 0-22 47-51 152a828 828 0 01-32 122c-8 0-15-52-8-100a260 260 0 01 91-174Zm528 106a133 133 0 01 84 36 123 123 0 01 44 68s-22-26-65-60-64-41-63-44Zm-331 120a241 241 0 00 144 53c25 0 53-9 54 0s-18 18-35 23c-72 20-166-73-163-76ZM67 1608l-67 16V2100h1600v-452l-63-25 5 420H67v-435" fill="#212020"/></svg>
