<svg xmlns="http://www.w3.org/2000/svg" viewBox="0 0 1390 710"><g data-name="Layer 2"><g data-name="Layer 1"><path d="M550 170v20a140 140 0 00 10 10c20 60 70 100 130 80l50-10 140-50 180-50 140-50h20c40-20 90-50 80-80 0-30-90-40-120-40h-20v20a10 10 0 01-20 0V0h-50l10 20a10 10 0 01-20 10l-10-20h-40v10a10 10 0 11-20 10V10h-40l10 40a10 10 0 01-20 0l-10-40h-40v10a10 10 0 01-20 10V10l-40 10 10 50a10 10 0 01-20 0l-10-50h-40l10 20a10 10 0 01-20 10l-10-30h-60l20 70a10 10 0 01-20 0l-20-70-40 10 10 20a10 10 0 11-30 10V30c-60 10-80 60-80 110v30Z" fill="#f8993a"/><path d="M1290 330a60 60 0 00-10-10 50 50 0 10 0 20v10c30 30 30 70 20 110s-50 70-90 70a370 370 0 01-90-10c-80-10-160-50-220-100-50-30-100-40-140-30a380 380 0 01-140 0 160 160 0 00-90 10 600 600 0 00-80 50c-80 50-160 80-250 90A120 120 0 01 80 440a100 100 0 01 20-80v-10a50 50 0 10 0-20 60 60 0 00 0 10 210 210 0 00-50 50c-90 140-80 280 150 310a270 270 0 00 30 10c150 0 280-40 410-110a100 100 0 01 100 0l190 70c100 30 200 50 300 10 70-20 150-70 160-150 0-80-40-140-100-200Z"/></g></g></svg>
