<svg xmlns="http://www.w3.org/2000/svg" viewBox="0 0 150 150" xmlns:v="https://vecta.io/nano"><path fill="#fff" d="M0 0h150v150H0z"/><path fill="#f7941f" d="M134.7 89.37c-8.18 32.83-41.43 52.8-74.26 44.62-32.82-8.19-52.8-41.44-44.61-74.26C24.01 26.9 57.26 6.92 90.08 15.1c32.82 8.19 52.8 41.44 44.62 74.27h0z"/><path fill="#fff" d="M102.28 65.82c1.22-8.15-4.99-12.54-13.48-15.46l2.75-11.04-6.72-1.68-2.68 10.75-5.39-1.27 2.7-10.82-6.72-1.68-2.76 11.04-4.29-1.01.01-.03-9.27-2.32-1.79 7.18s4.99 1.14 4.88 1.21c2.72.68 3.21 2.48 3.13 3.91l-3.14 12.58c.19.05.43.12.7.22-.22-.06-.46-.12-.71-.18l-4.4 17.63c-.33.83-1.18 2.07-3.08 1.6.07.1-4.89-1.22-4.89-1.22l-3.34 7.7 8.75 2.18 4.79 1.24-2.78 11.17 6.72 1.68 2.76-11.05 5.36 1.39-2.75 11 6.72 1.68 2.78-11.15c11.46 2.17 20.08 1.29 23.71-9.07 2.92-8.35-.15-13.16-6.18-16.3 4.42-1.03 7.73-3.92 8.61-9.88h0zM86.92 87.36c-2.08 8.35-16.13 3.84-20.69 2.7l3.69-14.8c4.55 1.14 19.17 3.39 17 12.1h0zM89 65.7c-1.9 7.59-13.6 3.74-17.39 2.79l3.35-13.42c3.79.94 16.01 2.7 14.04 10.63z"/></svg>