<svg xmlns="http://www.w3.org/2000/svg" data-name="Layer 1" version="1.1" viewBox="0 0 5000 5000"><path d="M0 0h5000v5000H0" fill="#1d1d1b"/><path d="M190 180h4630v4620H190" fill="#00ff0c"/><path d="m1190 2620-20 10-20 10h40l20-10 20-10h20l10 10h20l30-10 30 10 10 10a210 210 0 01 50-10h20l-20 10-30 10-10 10 10-10h80l10-10-20 10-30 10-30 10h-10 20l10 10 20 10h30l20-10h20l-20 10h-10 20a410 410 0 01 20-10l10 10h-20l-10 10-10 10 10 10h40l20 10h40l-20 10-10 20-20 10v10h10l20-10h60v10h-30l-20 10-10 10-20 10-10 10h-10l-10 10h40l10-10h10l-20 10-10 10h-10l-20 10h-10v20l10 10 10 10-10 10-10 10h10v20l-10 10-10 10-20 10-10 10-10 20-20 10-20 20-10 10-40 20-20 10-20 20-10 10-10 10-10 20h-20a50 50 0 01-10 0l-20-10h-20v10l10 10-10 10-10 10-10-10h-10c-10 0-20 0-10 10l10 10 10 10 20 20h20l20 10a50 50 0 01 30 20v30l10 10-10 10-20-10-10-10a440 440 0 00-40-30h-30l-20 50-10 40v10a490 490 0 01-30 140l-10 20-10 10-10-10h-10l-10 20-10 20v50l20 70 20 40 20 20 20 20v20l10 30 10 20 20 10h10l20-10 10 10v10c0 10 10 20 20 10l10-10v-20l-20-20-10-10a60 60 0 01-10-10l-10-10h40v-20l-10-10h-10a50 50 0 00-20-20l-30-10-30-20-10-40-10-90v-20l10-30 20-40 10-60 10-30a190 190 0 00 40-50l20-30a390 390 0 00 50 30h20l-20 30a80 80 0 00-20 30l50 40-40-10 20 20-40 10 10 20 30 30h20l30 10 10 10-10 10v20l10 30 10 40 30 70 20 50 40 70 20 50 10-10v-10l-50-100a550 550 0 01-10-50l-10-10v-20l20 10 20 40c0 30 10 30 50 120l20 50 10 30 20 10v-30l-30-60-10-50-10-50-20-40-30-20-20-30-10-20-10-40-10-20h-20l-20-20a670 670 0 01 50-10h10l20-10 20 20 20 40 10 50 30 50 10 50a1010 1010 0 00 90 200l80 110 70 70c50 50 80 70 70 100v10c-20 20-40 40-70 40l-40-10-30 10h-60l-30 20h-190l-50 10-20 40v40l-10 70-10 40v80l-10 120v60l10 10 20 20 10 10 40 10-20-30h30l40 20c20 30 10 50 10 60h-370v-30l-20-10v-30l20-20 10-20-10-30v-60l-10-60-10-50 10-70 20-90 10-40v-50h-50l-50-10-40-10-20-20v-30c10-70 40-80 40-120l-10-50 10-50v-160l10-60 20-50v-220l20-80a440 440 0 00 0-120l-20-20c-10-30 20-60 20-60 10-10 20-10 20-30l20-20 20-20 20-20h-20l-40-10-30-30c-10-10-30-20-40-50l-20-30-10-30c0-20-10-20-20-30l-20-80 20-50 20-60 30-30 20-30 30-10 30-30 30-10h10l-10 10-10 10h20l30-10 30-10Z" fill="#1d1d1b"/><path d="m1310 3420 10 10v-10h-20 10Zm90 60h20l10 10h-30v-10Zm90-40v-10l-10-10-10-10-10-10v10l20 20v10h10Zm-20-80v-40l-10-30-20-50-10-30 20-20 40-30 110-40c40-20 20-30 90-80l70-40 40-30h70v10l10 20c10 10 20 0 30-10v-20a90 90 0 00-20-20l-20-20 10-20a60 60 0 01 10-20l30-20 20-10 20-10v-10l20-10 10-20-20-10-10 10-10 10-10 10-20 10h-10v-30l10-20v-20c0-10-10-20-20-10l-10 20 10 10-20 30-20 30-30 10-20 20-40 40-80 40-60 30-50 10-60 40-60 30-20 20-70 10-20 10a80 80 0 00-30 10l10 30 50 40 30 40 20 40 20 20 10 30v40h10Z" fill="#1d1d1b"/><path d="M1330 2690h-120l-40 60c-10 20-40 70-40 140 0 50-10 70 10 100 50 70 170 60 210 40l70-40 20-20c30-20 60-20 60-40l-10-10 20-30-20-30v-50l-10-60c-10-30-50-40-70-50l-80-10Z" fill="#00ff0c"/><path d="m1220 2980 10 10h20l10 10h-30l-10-10-10-10h10Zm0-50 10-10h20l-10-10h-10l-10 10v10Z" fill="#1d1d1b"/><path d="m1510 2910 10-20-10-20h-20v-50l10-30v-40l-20-10 10-10-20-10-30-10-30-20h-60l-10-10h-10l-20-10h-30l-40 10-50 20c-50 20-60 80-70 160l-10 80c0 20 10 70 50 100 50 40 120 20 180 10 40-10 60-30 80-50l30-30 40-20 20-20-10-20h10Zm-20-140-10 10v10l-20-30h-20 40l10 10Zm-30 10-10 10h-10v-10h20Zm10-40-10 10-40 10-30 10-20 10v-10l30-20 40-10h30Zm-40 40c-10 0-10 0 0 0v-10l10 10h-10Zm10 20h-10v-10l10 10Zm-30 10h-30l-10-10v-10h10l30-20h10l-10 20v20Zm40-70h-40l-30 10-10 10-10-10h-10l-10-10h10l10-10 20-10h30l10 10h-30l-20 10v10l40-20h50l-10 10Zm-140 80v10h-10l10-10Zm-10 0v-10h10v10h-10Zm-10-30-20 20-30 10-10 10h-10v-10l20-10 30-20 20-10 40-10h20l-30 10-30 10Zm0 50h-20a40 40 0 01-10-10 840 840 0 01 30-20v30Zm40-30 10 10h-20v-10h10Zm-10-20h40v10l-10 10a40 40 0 00-30-20Zm20-80h30-10l-10-10h40l20 10 10 10h-70l-10 10h-10l-10-10 20-10Zm80 280-40 10-40 10-60 10a190 190 0 01-110-40l-30-20 30-10 40 20v-10l-10-10-10-10-20-10-20-10h-10l-10-20h50a130 130 0 01 30 10l-10-10-20-10h-20l-10-10 30-10h30l20 10v-10l-10-10-10-10h-40l-20-20h40-10l-10-20-10-10h30l10-10h-10a30 30 0 01-20-10h30l10-10h30l30-20a90 90 0 01-60 0h-20l-10-10 50-10h30l10-20a40 40 0 01-40 0 60 60 0 01 50 0l20 20h-20l-10 10h40l-10 10-40 20-30 20-20 20-10 20h10l10-20 20-10 30-20 30-20 20-10 10 10h-20l-30 20-20 10-30 20-20 20h-10 10l-10 10h60l30 10 30-10 40-20-20 20h-10l-20 10h-40l-30-10-10 10h10l30 10 50-10 20-10-20 30-30 10h30l20-20 30-30v-10l10-10 20 10 50-10 20-10-20 30-50 10h-20v10h40l10 10v-10h-10 20l30 10 10 10h10l-10 10-20 10-50 20-40 10h-80l-20 10-40 10-10 20 10 20h130l50-10h20l-10 20Zm-170-30h10l20-10h20a770 770 0 00 80 0l40-10 30-10 20-10h20v20h-20l-40 10-30 10h-110a1340 1340 0 01-50 10l-10-10 10-10 10-10 20-10a90 90 0 01 30 0h70l50-10 20-10 40-20 10-10h10v10l-10 10-10 10-40 20h-40l-30 10h-80l-20 10h-20v10Zm850-230 40 10c10 0 40 0 60-20 30-20 40-40 40-50l20-40c10-20 30-20 30-20h60l60-40 20-80 30-90c0-20 10-40 40-70l40-30 50-40 40-50 20-20-10 30v10l-10 10v20l-10 10-10 10v20l-10 20v30l10 20-20 20 10 10 20-20-10-40 20-20v-30l10-20v-30l30-20v-50c0-20-30-30-40-20v30c0 20-20 30-40 60a370 370 0 01-40 40l-50 30-40 30-20 50-30 130-30 60h-130l-20 60-30 50-70 30-30 10Z" fill="#1d1d1b"/><path d="M2930 1950c10-10 40 0 50 30 10 20 10 70-20 80h-30l20-30 10-40-10-20-20-20Z" fill="#fff"/><path d="M3100 1680c-10 0-40-60-110-80l-80-20c-30-20-20-40-50-60-30-30-90-50-120-40l-10 10-50-20h-50l-30-10c-20-10-60 0-80 20-20 10-30 20-40 60l-20 50 10 30-10 10-10 10-30 10-30 10a40 40 0 00-10 60 150 150 0 00-120 30l-40 30-70 30c-30 10-60 20-70 50l-10 70-10 50c0 40-20 60-30 80-10 60 20 110 40 140s60 60 140 110 110 50 130 50c50-10 80-40 90-40 20-20 40-40 40-60 0-30-10-50-20-50a950 950 0 00 90-90l50 30c10 10 90 40 210 50 90 0 140 0 180-20s60-60 110-130l30-80c-10-30-30-40-30-70 0-40 20-50 30-90 20-60-20-120-20-130Zm-370-150 40 30 10 10c10-10-10-30-10-40l-20-20 50 20c10 0 40 20 60 60a260 260 0 00-120-10l-20-40-40-30c0-10 30 0 50 20Zm60 120c40 20 70 30 90 60l40 50 30 40-20-10-60 10c-60 10-120-30-130-40l-50-50c0-10 0-40 20-60l30-20 60 20Zm-200-160 50 20 70 50 20 40h-10a120 120 0 00-30-40l-50-40-40-20-30-10h20Zm-90 40 30-20a230 230 0 01 170 110 200 200 0 01-30 40c-20 10-60 0-80-10l-90-60v-60Zm60 120 100 30v20a220 220 0 01-110-10 80 80 0 00-10-20 80 80 0 00-20-10 380 380 0 00 110 30 290 290 0 01-140-90c10 20 40 40 70 50Zm-190 100c20 0 30 10 30 20h-40l-40 40v40l-10-20c-10-30 10-50 10-60 10 0 20-20 50-20Zm90 400-40 30 10 60-30 60-60 10c-50-10-70-30-160-80-70-50-90-50-110-80 0-10-20-50 0-90 10-30 30-30 30-60v-120l50-40c40-20 50-10 70-30 30-10 30-20 50-40l60-20c-10 0-40 10-50 50v40c10 30 40 40 100 70 40 30 80 50 100 90 10 20 30 40 20 70 0 40-30 70-40 80Zm60-150-60-60-60-50-40-20v-10c-10-10-20-30 0-60 10-20 50-20 50-20l30 10h-30l-30 30c0 30 20 50 30 70l60 50 40 30c50 30 110 40 130 50l80 10h110l20-20-100-40-80-30c-20-20-100-50-170-110l-60-60-30-40-10-30 10-10c30 60 70 90 100 120 60 50 130 80 180 100 80 40 130 50 140 50l50 20 20 20c0 20-40 30-50 40l-90 10-150-10-90-30Zm-30-80c-20-10-60-30-70-70v-30l40-10a180 180 0 00 50 50l-20 20v40Zm50 40h10l100 20 50 20a270 270 0 01-160-40Zm540-140c-20 40-50 60-30 90l10 10c20 30 0 70 0 80a240 240 0 01-270 160c-50 0-140-20-240-70l-10-20h30l80 10c70 10 130 10 200-10 60-20 70-40 80-50l-10-60-50-20a3540 3540 0 00-180-60l-110-50-100-80a270 270 0 01-40-70h60l40 40-20 20v10l20-10c50-20 100-10 120 0l40 70c60 90 180 90 190 90a360 360 0 01-100-50c20 10 50 20 90 0l40-20-50 10c-40 0-90 0-130-30l-30-30 60 20c40 20 90 20 120 20h90c10-10 0-30-10-40l-30-30-30-50c-20-20-50-50-140-90h40c100 20 150 120 160 150a190 190 0 00-70-120 230 230 0 01 130 120 170 170 0 00-110-140l70 10c10 10 60 30 80 80 0 10 30 60 10 110Z" fill="#fff"/><path d="M2790 1660c-40 0-60 20-60 50s20 60 60 60 60-20 60-60-30-50-60-50Zm-10 70-20-10 20-20 10 20-10 10Zm-200-200c-30 0-50 20-50 50s20 50 50 50 50-20 50-50-20-50-50-50Zm-10 60-20-10 20-10 10 10-10 10Zm-330 250-40 30-10-10h-20a10 10 0 00 0 20l20 10-30 30a10 10 0 00 10 10h10l20-30 20 10h10v-10a10 10 0 00 0-10l-10-10 20-20 10 20h10l10-10-30-30Zm10 140-20-10c-20-10-20-30-10-50l40-20 20 10 10 20-10 20c-10 10-30 10-50-10l10 20h10l10 10-10 10Zm0-50 20 10v-20h-10l-10 10Zm70 90c-30 0-40-10-50-20v-30l30-30 40 10 10 10c10 10-10 30-20 30-20 10-30 0-40-10v10l30 10 10 10v10h-10Zm-20-60 20 10 10-10h-30Zm50 90h-10v-20l50-80h10l10 10-60 80a10 10 0 01 0 10Zm70 30-30-40a10 10 0 01 0-10l10 10 20 20 10-10-10-10-10-30 20-10h20c10 0 20 10 20 30l-10 10-10-10-10-10h-10c10 10 20 20 10 30l-10 30h-10Zm-190 40h-30l-20-20h-10v-10a10 10 0 00 0-10h-20l-20 70v10a10 10 0 00 20 0l10-40h10l10-10v60a10 10 0 00 10 0l10-40v10h10v50a10 10 0 00 0 10l10 10 10-10c10-30 20-60 0-80Zm50 120c-20 0-30-10-30-20l-10-20 50-10c0-10-20-20-30-10l-10-10 10-10c20-10 40 0 50 20v40l-30 20Zm-20-30 20 10 10-10h-30Zm120 10h-30l10-20v-10h-20l-30 70v20h10v-10l20-30s0 10 0 0h30l-20 40v10h10c10-20 30-50 20-70Zm-200-250-20-20h-20l-20 20 10 20 40 30v20l-20 10h-20l-10-20v10l10-10v-10h-10l-20 10v10l20 20h50c10-10 20-30 10-40l-10-20-20-20h-10v-10h20l10 10 10-10Zm20 30a2140 2140 0 01 60 30v-20l-50-20h-10v10Z" fill="#fff"/><path d="m2220 2010-20 60v10l10-10 30-60-10-10-10 10Zm20 90 50-60h-20l10 40v40l10 10 10-10v-50l-10-40h-20a200 200 0 00-40 60v20l10-10Z" fill="#fff"/><path d="M2250 2090s0-10 0 0h10a60 60 0 01 10 0v10h20a10 10 0 00 0-10c-10-20-30-20-40-20l-10 10 10 10Zm70 40a380 380 0 01 20-50h-20l10 20 10 10h20l20-20-20-10c0 30-10 50-30 70 0 10 10 20 20 10l30-70-10-10-20 10h-10v10-20l-10-10a410 410 0 00-30 60l10 10 10-10Zm60 40v-10a320 320 0 01 30-40c-10 0 0 0 0 0a80 80 0 01 10-10s0 10 0 0v10c10 0 0 0 0 0h10s0 10 0 0v10l-10 10h-40l-10 20 50-10c20 0 30-10 30-30l-20-20h-40l-10 20-10 30-10 20 10 10 10-10Z" fill="#fff"/></svg>
