<svg viewBox="0 0 800 800" xmlns="http://www.w3.org/2000/svg"><defs><linearGradient id="skyGrad" x1="0%" y1="0%" x2="0%" y2="100%"><stop offset="0%" style="stop-color:#8b6bce"><animate attributeName="stop-color" values="#8b6bce;#ce6b8b;#ce8b6b;#6bce8b;#6b8bce;#8b6bce" dur="10s" repeatCount="indefinite"/></stop><stop offset="100%" style="stop-color:#cdf0fe"><animate attributeName="stop-color" values="#cdf0fe;#fecdf0;#fef0cd;#cdfef0;#cdf0fe;#cdf0fe" dur="10s" repeatCount="indefinite"/></stop></linearGradient><style>.s1{stroke:#000;stroke-width:10}.s2{stroke:#000;stroke-width:14}</style><g id="eye"><path d="M0 0h100v60H0z" fill="#fff"/><path d="M40 20h60v40H40z" fill="#054b00"/><path d="M0 0h100v28H0z" fill="#000"/></g></defs><g><path d="M-1 528L801 538 799 796H-1z" fill="#246f01"/><path d="M-1-7H799V538H-1z" fill="url(#skyGrad)"/><path d="M633 536C608 490 764 413 788 538c0 2-156-2-156-2z" fill="#f2b63c"/></g><g><path d="M799 598C786 593 701 540 656 508 634 493 600 471 557 482 523 606 174 519 151 513 130 552 41 690 0 676V800h800z" fill="#263347" class="s2"/><path d="M577 482c19-15 77 7 119 45-34 144-134 227-165 229-25 1-130 12-131-3 0-3 66-41 107-62 23-12 40-57 70-215z" fill="#8290b2" class="s2"/><path d="M207 543c-11 93-19 168 193 217-75 21-119 1-164-14-42-14-88-66-117-99-35-40 2-77-6-118 29 18 75 4 95 15" fill="#8290b2" class="s2"/><path d="M403 767c0 12-9 17-4 28" fill="#8290b2" stroke="#000" stroke-linecap="round" stroke-width="14"/><path d="M471 714c-136 3-123 20-262-46 7 83 192 143 262 46" fill="#b1b1b1" stroke="#000" stroke-linecap="round" stroke-width="14"/></g><g><path d="M571 263c12 79-1 242-16 309-8 37-17 104-49 124-50 33-112 22-172 20-37-1-108-17-126-49-28-49 16-133-8-184-12-26-49-7-63-32-39-69-24-146 0-143 41 1 34 33 67 66 3-29 25-111-28-152 64-9 204-72 393 41" fill="#cdad89" class="s1"/></g><g><use href="#eye" x="280" y="320"/><use href="#eye" x="440" y="319"/><path d="M480 580v20H320v-20z" fill="#8d6b43"/><path d="M320 560h-20v40h20" fill="#cb8554"/><path d="M320 600v20h160v-20z" fill="#cb8554" opacity=".975"/><path d="M420 380l-23 2v39l-19-1 2 18-20 2 1 17-20 1 1 21 79 1" fill="#8d6b43" opacity=".659"/><path d="M480 560v20H320v-40h20v20h145z" fill="#000" opacity=".674"/></g><g><path d="M136 200c-27 16-9 17-35 33 9 8 19 16 25 26-14 3-58 6-67 5 12 6 34 95 30 108C50 486 54 524 207 543c3 0 1-49-6-59-8-12-27-10-41-14-22-7-33-26-36-47-5-30-3-60-2-91 1-16 17-30 32-17 18 17 34 36 48 57 31-139-23-142-66-173zM571 263c-4 0 3 100 6 100 2 0 69-57 68-61-1-3-62-39-74-40z" fill="#52412c" stroke="#000" stroke-width="12"/></g><g><path d="M645 303c42-32-141-120-213-144-83-28-274 48-274 48 54 75 140-126 487 96zM231 177l-17-54-73 33c18 11 34 28 55 33 12 3 23-8 35-12zM592 167c19 21-15 59-15 59s86 53 68 76c25-38 11-98-53-135z" fill="#21201f" class="s1"/><path d="M606 176c-13-9-60-34-87-46-159-66-268-18-305-7 12 27 4 26 17 54 48-10 120-29 169-24 33 3 144 56 177 74 29 16 18-56 29-50M138 157c-28 5-22 29-1 42 18 11 40 2 55-9-3-4-1-2-54-33z" fill="#000" class="s1"/><path d="M592 167C378-20 144 32 123 168c216-135 362-47 443-11 9 4 18 8 26 10" fill="none" class="s1"/><path d="M654 295c32-35-8-118-82-167C246-85 129 132 129 160c15-7 76-31 151-45 139-25 327-19 373 179z" fill="#2f1d15" class="s1"/><path d="M175-3C65 70 115 148 118 168c42-41 37-150 330-103 5 1 219 44 197 237 34-25 56-32 62-53 4-14-38-167-140-257-26 3-370 5-384 4-4 0-4 0-8 0z" fill="#060a2f" class="s1"/><path d="M486 33c-31-14-55-31-94-23-53 11-51 68-11 95 25 17 100 20 103 19 61-36 10-84 2-91" fill="#6c550e" class="s1"/></g><g><path d="M419 27l39 8-1 6 22 5s-5 34-34 25c0 0-4 20 13 23l-3 12-63-13 3-12s19 6 24-15c0 0-16-1-13-17 0 0-14-3-11-15l14 3 2-8 37 8-1 4-33-7-2 8-14-3s1 4 13 7c0 0-5 15 9 16l5-22-8-2s-6 17 0 18l3-14" fill="none" stroke="#000" stroke-width="2"/><path d="M457 45l16 3s-5 22-20 18l2-8 2-10 4 1-3 14s7-5 9-12M454 39l-6 29-8-2s-6 27 12 31l-1 4-53-11M440 95s-11 2-3-33l8 2 4-18-16-3-3 14 12 3 2-10-8-2-1 6 4 1 1-4M429 42l-6 25s-3 24-25 19M433 59l-8 35M429 60s-5 32-19 29" fill="none" opacity=".554" stroke="#000" stroke-width="2"/></g></svg>