<svg xmlns="http://www.w3.org/2000/svg" width="160" height="320" viewBox="0 0 160 320.001" shape-rendering="geometricPrecision" image-rendering="optimizeQuality" fill-rule="evenodd" xmlns:v="https://vecta.io/nano">
	<g stroke="#000000" stroke-width=".64" stroke-miterlimit="2.61313">
		<path d="M5.388 7.77h150v300.001h-150z" fill="#000000"/>
		<path d="M11.494 13.637h137.788v287.909H11.494z" fill="#c8c5e2"/>
		<path d="M87.053 283.134c3.946 1.512 25.896 11.18 23.142.04-.65-.108-.278.148-.526-.527l.06-3.867c-.533-.325-1.914-.867-2.29-1.165-1.595-.312-3.004-.813-4.589-1.278-2.833-.832-2.044-.469-3.441-2.396 1.94-1.743.41-3.856-.353-9.978-.662-5.314-2.607-33.497-1.624-35.237 1.991-1.82 7.673-2.94 10.641-1.454 2.705 1.355 10.716 24.732 12.601 26.02 4.999-3.589 12.138-21.488 23.803-15.186-.761-1.564-2.064-2.24-3.356-3.626-11.563-12.394-23.181-31.459-28.9-47.393-1.496-4.168-6.136-17.303-6.63-20.987 3.287-3.14 10.423-17.939 14.231-24.123 1.95-3.168 2.752-2.189 1.645-6.413-1.838-7.012-4.469-16.714-5.585-23.552-1.965-6.865-2.176-16.255-2.986-23.635-2.573-2.134-12.946-2.637-16.119-4.562.973-2.186 6.563-5.39 7.273-7.302-1.304-1.406-10.121-5.534-12.447-6.742.414-2.979 2.189-1.868 2.372-5.887.261-5.732-1.168-1.76-1.132-5.037.059-5.317.67-10.116-5.089-12.962-4.442-2.195-10.031-.785-12.542 1.815-3.493 3.615-2.579 7.219-3.103 12.805-2.11.516-1.229 2.1-1.068 4.495.267 2.459 1.469 1.743 1.954 4.211-3.233 2.185-11.164 5.865-12.432 8.144.455 1.014.587.898 1.59 1.422.164.562 3.516 2.792 4.415 4.757-.934.945-5.988 2.2-7.307 2.582l-6.73 1.704c-1.123.469-.399-.016-.879.676-.449.744-.328 13.876-.431 16.107-.241 5.284-1.155 9.591-2.542 14.344-1.23 4.212-2.555 8.619-3.972 12.799-.649 1.917-2.009 4.597-1.392 6.568.7 2.232 1.566 4.347 2.04 6.722.675 1.315 2.325 7.286 2.252 8.842 1.009 1.062 1.524 5.774 1.933 7.328.43.248 1.43 1.283 2.058 1.778.854.675 1.523.983 2.49 1.712-4.273 17.887-15.588 51.614-26.859 66.346-3.419 4.47-7.826 11.116-9.135 17.909.731-.207.698-.333 1.288-1.53l1.06-2.076c3.532-6.721 7.883-14.261 17.019-14.003 3.807.108 7.185 1.761 10.578 1.952.852-.197 5.253-5.618 11.35-3.605.08 4.301-1.677 30.361-2.418 34.534-.396 2.226-2.087 7.785-1.33 8.906.214.317.7.584 1.035.812-2.389 3.734-8.351 2.387-11.461 4.589-.392.547.15 3.125-.027 4.12-.267 1.497-1.961 2.789.808 5.033 4.73 3.832 24.038-3.158 24.102-2.749 1.017-.092.159-7.267-.814-8.393 2.497-1.49 1.999-1.988 2.064-5.408.1-5.284 2.036-48.953 2.523-49.676.532-.789 5.375-1.752 8.96.708 1.071 8.87 1.698 36.925 2.045 48.969.111 3.834-.326 3.298 2.248 4.999-.166 3.33-.316 2.721-.138 6.174.034.667.108.77.067.827zM54.797 134.758c.622-1.572 1.712-1.932 2.469-3.382l4.159-12.321c.768 4.655-.433 21.864-1.87 26-.75-.655-1.232-2.92-1.812-4.515-1.098-3.017-.159-2.598-2.734-3.692 1.87-.537 3.112-1.317 2.848-3.462-1.033 0-1.787.957-3.06 1.372zm45.464 12.435c-.774-6.186-.892-11.002-.451-17.332.199-2.849 2.512-12.846 3.808-14.531.957 1.7 2.807 10.528 3.551 13.374 1.104 4.224 1.461 2.106 1.939 3.696-1.034.495-1.625.501-2.542 1.07.472 1.681 1.439 1.836 1.972 2.861-3.194 2.371-4.539 8.916-8.277 10.862z" fill="#000000"/>
	</g>
	<path d="M77.787 90.632c-.353-.33-2.417-5.036-2.798-5.857-.187-.724.577-6.35.987-7.018 1.455 2.336.43 3.547 4.987 5.521-.114 1.772-2.541 5.428-3.176 7.354zm5.362-7.098c4.146-3.291 2.347-.224 5.472-5.512.493.648.97 5.013.216 7.093-.787 2.167-1.766 3.883-2.536 5.766l-3.152-7.347zm-3.087 5.272c.284 3.371-.021 4.252-.578 7.061-.255 1.289-.78 5.444-1.45 6.138-1.037-2.066-3.919-12.844-3.32-14.801.446 1.146 2.2 5.153 3.32 5.499.751-1.483.959-2.901 2.028-3.897zm3.97 10.438c-.292-3.307-1.855-8.195-.116-11.041 1.411 1.283.91 3.219 1.764 4.501 1.926-1.434 1.823-3.52 3.394-4.549-.397 2.385-2.546 7.95-4.053 10.195-.551.82-.379.693-.989.894z" fill="#fefefe"/>
	<g fill="#c8c5e2">
		<path d="M78.788 77.544c-.961-1.099-1.543-1.664-2.497-3.304-.719-1.236-1.411-2.549-1.922-4.051-1.634-4.806-2.757-16.282-.049-20.532 1.315-2.064 4.091-4.061 7.822-4.219 3.821-.163 7.318 1.648 8.702 3.683 1.714 2.52 1.628 7.092 1.273 10.528-.359 3.467-.313 7.235-1.416 10.407-.691 1.988-3.126 6.525-4.456 7.331 1.063-4.764 4.222-4.416 5.337-17.716.596-7.104-.457-13.317-9.434-13.382-8.613-.062-8.948 6.515-8.666 14.221.116 3.164.718 6.49 1.829 9.345.976 2.507 2.864 5.613 3.477 7.689zm-16.612.08c.606-1.933 9.608-7.239 11.134-7.773-.015 1.355-10.585 7.677-11.134 7.773zm39.949-.514c-2.051 1.631-10.752-6.56-10.744-6.679 1.208.376 9.973 5.471 10.744 6.679zM52.959 89.151c.007-.01 13.774-5.89 14.911-3.763-2.41.498-13.739 5.349-14.911 3.763zm42.535-3.932c.153-.635 15.486 2.116 16.154 3.932-1.407.616-15.206-3.253-16.154-3.932zM70.265 129.31c-.01-3.124-.79-2.175.482-5.256 1.414-3.424 4.983-8.939 7.008-11.853l9.833-15.068c-.679 3.442-11.956 20.474-14.512 24.903-2.405 4.166-2.6 3.89-2.47 7.555.116 3.28.183 6.271.002 9.56-.335 6.069-.682 11.767-1.64 17.489l1.297-27.33zm14.738-12.711c1.425-.846 1.986.482 1.641 1.825-.71.155-1.183.142-1.899-.133l.258-1.692zm-9.37 14.408c-.705.434-2.491.832-2.025-.805.265-.933 2.116-1.36 2.025.805zm10.341.282c-2.454.288-2.097-2.493.345-1.742.336 1.167.401.892-.345 1.742zm-12.566 13.748c-.092-1.45 1.993-1.7 2.117-.281.126 1.448-2.031 1.622-2.117.281zm12.565 1.099l-1.465.126c-1.894-2.607 2.791-3.212 1.465-.126z"/>
		<path d="M102.148 277.365c1.29.194 5.916 1.118 6.361 2.065-2.866.64-5.98-.476-8.354-1.13 1.346-.36 1.095-.096 1.993-.935zm-56.174 1.677l2.317-.621c3.942-.749 4.885-1.865 6.668.014-1.793.942-7.258 1.437-8.985.607zm.595 4.66c-.699-.602-.77-2.698-.295-3.544 1.703.329.821 2.971.295 3.544zm61.754-3.714c.606.855.609 2.508 0 3.363-1.017-.805-1.064-2.655 0-3.363zm-62.811 4.169c1.374.289 1.548.129 1.597 1.544-1.41.039-1.503-.18-1.597-1.544zm61.76 1.299c.255-1.407.386-1.316 1.937-1.432.007.966.136 1.7-.919 1.701-1.766.002-.412.023-1.018-.269z" stroke="#000000" stroke-width=".64" stroke-miterlimit="2.61313"/>
	</g>
	<path d="M87.589 59.62c.783 0 1.418.607 1.418 1.355s-.635 1.354-1.418 1.354-1.418-.606-1.418-1.354.635-1.355 1.418-1.355zm-9.43-.034c.791 0 1.433.613 1.433 1.369s-.642 1.369-1.433 1.369-1.434-.613-1.434-1.369.642-1.369 1.434-1.369z" fill="#ed3237"/>
</svg>