<svg xmlns="http://www.w3.org/2000/svg" width="24" height="24" xmlns:v="https://vecta.io/nano"><style><![CDATA[.W{stroke:#a01991}.X{stroke-width:.05}.Y{stroke-miterlimit:10}]]></style><path d="M.02 0h24v24h-24z" fill="#ff8000"/><path d="M1 1h22v22H1z"/><linearGradient id="A" gradientUnits="userSpaceOnUse" x1="114.677" y1="221.088" x2="115.794" y2="221.678" gradientTransform="matrix(0.6047 0.7965 0.7965 -0.6047 -236.0016 57.4174)"><stop offset="0" stop-color="#ec3222"/><stop offset="1" stop-color="#deed30"/></linearGradient><path d="M9.41 14.26a.78.78 0 0 0-.22.03c-.06.02-.18.09-.23.13a.7.7 0 0 0-.13.16c-.03.05-.07.15-.09.2l-.04.19c-.01.05-.01.16-.01.22l.05.25c.02.06.09.17.12.22.04.04.1.12.14.15.03.03.11.06.15.07.03.01.1.03.14.03h.16c.03 0 .09-.02.12-.03l.09-.04c.02-.01.06-.03.08-.03a.44.44 0 0 1 .1.02c.04.02.14.1.14.1s-.06-.12-.09-.14-.09-.07-.12-.09l-.1-.06c-.03-.01-.12-.02-.12-.02s.06-.08.09-.09a.67.67 0 0 1 .12-.06c.02-.01.06-.02.08-.02.03 0 .08-.01.11 0 .03 0 .08.02.1.03l.12.04c.02.01.06.03.08.03a.22.22 0 0 0 .08.01c.03 0 .1-.04.1-.04l-.12-.05c-.03-.01-.09-.03-.12-.05s-.08-.07-.11-.1-.11-.08-.14-.11c-.03-.02-.08-.08-.11-.1a.94.94 0 0 0-.12-.09c-.02-.01-.05-.05-.07-.06s-.09-.02-.09-.02.06-.03.09-.03c.02 0 .07 0 .09.01s.07.02.1.03c.02.01.07.04.1.05.02 0 .07.02.1.02s.09-.02.12-.03.08-.02.11-.03a.55.55 0 0 0 .09-.07c.02-.02.06-.05.08-.07s.07-.06.09-.08a.31.31 0 0 1 .06-.04c.03-.01.11-.03.11-.03s-.1-.04-.14-.04h-.12c-.03 0-.08-.02-.11-.02-.02 0-.06.01-.08.02-.01.01-.04.03-.05.03-.02.01-.05.01-.07 0-.02 0-.06-.02-.08-.03a.36.36 0 0 1-.1-.07l-.11-.11c-.03-.03-.09-.08-.13-.1-.03-.02-.1-.07-.13-.08-.05 0-.12-.01-.16-.01z" fill="url(#A)" class="W X Y"/><linearGradient id="B" gradientUnits="userSpaceOnUse" x1="115.424" y1="221.143" x2="116.047" y2="221.333" gradientTransform="matrix(0.6047 0.7965 0.7965 -0.6047 -236.0016 57.4174)"><stop offset="0" stop-color="#ec3222"/><stop offset="1" stop-color="#deed30"/></linearGradient><path d="M9.92 15.58s.11.01.13.03c.03.02.08.07.1.1a.47.47 0 0 1 .06.09c.01.02.04.06.06.08.01.02.04.05.06.05.02.01.09.02.09.02s-.07.02-.09.01c-.02 0-.05 0-.07-.01s-.06-.02-.07-.04c-.02-.01-.04-.05-.06-.08l-.05-.09c-.01-.02-.04-.07-.06-.08-.02-.02-.1-.08-.1-.08z" fill="url(#B)" class="W X Y"/><linearGradient id="C" gradientUnits="userSpaceOnUse" x1="115.154" y1="221.672" x2="115.683" y2="221.833" gradientTransform="matrix(0.6047 0.7965 0.7965 -0.6047 -236.0016 57.4174)"><stop offset="0" stop-color="#ec3222"/><stop offset="1" stop-color="#deed30"/></linearGradient><path d="M10.11 15.15s.08-.05.11-.05a.36.36 0 0 1 .11.02.55.55 0 0 1 .09.07c.02.01.06.04.08.05s.05.03.07.04.09.01.09.01-.06.05-.08.06-.07.02-.09.02-.07-.01-.09-.02c-.03-.01-.07-.04-.1-.06-.02-.02-.05-.08-.08-.09s-.11-.05-.11-.05z" fill="url(#C)" class="W X Y"/><linearGradient id="D" gradientUnits="userSpaceOnUse" x1="33.292" y1="225.689" x2="33.806" y2="225.846" gradientTransform="matrix(1.0483 0.8661 0.9292 -1.1247 -233.8248 239.8978)"><stop offset="0" stop-color="#ec3222"/><stop offset="1" stop-color="#deed30"/></linearGradient><path d="M10.67 15.04s.1-.11.15-.12c.04-.01.12-.03.16-.02s.1.04.14.05l.12.04a.44.44 0 0 0 .1.02c.03 0 .12-.03.12-.03s-.07.1-.1.12-.09.06-.13.07c-.03.01-.1.02-.13.01a.42.42 0 0 1-.15-.04c-.03-.02-.09-.08-.13-.09-.03 0-.15-.01-.15-.01z" fill="url(#D)" class="W X Y"/><linearGradient id="E" gradientUnits="userSpaceOnUse" x1="11.273" y1="15.636" x2="11.95" y2="15.726"><stop offset="0" stop-color="#ec3222"/><stop offset="1" stop-color="#deed30"/></linearGradient><path d="M11.25 15.5l.03.13c.02.03.05.08.08.1s.09.04.12.05.09.01.12.01.1 0 .13-.01c.02 0 .06-.01.08-.01a.31.31 0 0 1 .07.02s-.01-.07-.02-.09l-.05-.09c-.02-.02-.06-.04-.09-.05s-.09-.01-.12-.01-.09.02-.12.02-.08 0-.1-.01c-.04 0-.13-.06-.13-.06z" fill="url(#E)" class="W X Y"/><linearGradient id="F" gradientUnits="userSpaceOnUse" x1="-42.687" y1="445.543" x2="-42.039" y2="445.74" gradientTransform="matrix(0.8691 -0.1563 0.2098 1.1671 -45.7259 -510.8899)"><stop offset="0" stop-color="#ec3222"/><stop offset="1" stop-color="#deed30"/></linearGradient><path d="M10.62 15.62l.03.16c.01.03.05.1.07.12.02.03.08.05.11.06a.44.44 0 0 0 .1.02h.11c.02 0 .05-.01.07-.01s.06.03.06.03-.01-.08-.02-.1c-.01-.03-.04-.09-.05-.11-.02-.02-.06-.05-.08-.06-.03-.01-.08-.02-.11-.02s-.08.02-.1.02-.07 0-.09-.02-.1-.09-.1-.09z" fill="url(#F)" class="W X Y"/><path d="M12.72 4.57l.96.91.45.96.12.88-.19.92-.24.62-.1.4.22.37.34.41-.04.36.26 1 .68 1.59.14.79-.75.16-.42.67-.11.85-.49.07-.6.05h-.8l-.63-.07-1.34-.42.24-.83-.51-.12-.58-.17-.03-.27.19-.33-.15-.48.02-.34.04-.48.09-.53.13-.55.25-.84.13-.39-.21-.29-.16-.31-.15-.28-.22-.49-.83-.46-.42-.9.48-.42-.39-.16L8 6.3l-.26-.35-.05-.27.03-.28.1-.3.29-.3.28-.22.41-.11.53-.16.7-.2 1.43-.13z" fill="#332715"/><path d="M12.82 15.61c-.17-.03.72-.1.95-.14.36-.05 1.49-.43 1.32-.31-.31.2-.77.17-1.11.33-.09.04-.66.1-.89.11-.07 0-.22.02-.27.01zm.41-.18c-.11-.01.43-.1.57-.13.22-.05.89-.31.79-.24-.18.12-.46.14-.66.23-.06.03-.4.09-.53.11-.05.02-.14.04-.17.03z" fill="#83ccde"/><linearGradient id="G" gradientUnits="userSpaceOnUse" x1="43.926" y1="25.966" x2="45.681" y2="26.893" gradientTransform="matrix(0.9898 0.1422 0.1422 -0.9898 -32.056 34.8838)"><stop offset="0" stop-color="#ec3222"/><stop offset="1" stop-color="#deed30"/></linearGradient><path d="M14.33 14.73a1.28 1.28 0 0 0-.23.29c-.05.09-.12.29-.13.4-.01.08-.02.23 0 .31a1.06 1.06 0 0 0 .1.3 1.71 1.71 0 0 0 .13.23c.04.06.14.17.2.22.07.06.22.16.3.19a1.98 1.98 0 0 0 .35.08c.07.01.22.02.3 0 .06-.01.19-.07.24-.1s.14-.1.19-.13a1.53 1.53 0 0 0 .18-.18c.03-.04.08-.12.11-.17l.07-.15a.67.67 0 0 1 .06-.12c.03-.03.09-.08.13-.09.06-.03.26-.07.26-.07s-.18-.05-.24-.04a1.74 1.74 0 0 0-.22.05.95.95 0 0 0-.18.06c-.04.02-.15.12-.15.12s0-.15.01-.2l.07-.2c.02-.03.05-.09.07-.12a.8.8 0 0 1 .13-.13c.03-.03.11-.07.15-.09a1.04 1.04 0 0 0 .18-.1c.03-.02.1-.05.13-.07a.43.43 0 0 0 .1-.09c.03-.04.08-.16.08-.16l-.18.1c-.04.03-.14.08-.19.09-.05.02-.16.03-.22.04-.07.01-.2.05-.27.06-.05.01-.17.02-.22.02l-.23.05c-.03.01-.11.01-.14.02s-.12.08-.12.08.04-.11.07-.14a.87.87 0 0 1 .11-.09c.03-.02.11-.06.14-.08.04-.02.12-.05.16-.07s.12-.07.15-.1a.62.62 0 0 0 .11-.17l.09-.16c.02-.04.04-.13.04-.17.01-.04.02-.12.03-.16l.03-.18a.44.44 0 0 0 .02-.1c.02-.04.09-.15.09-.15s-.16.08-.2.12c-.03.04-.1.11-.14.14l-.15.11c-.02.02-.06.08-.07.12-.01.02-.02.07-.03.1s-.05.07-.08.09a.67.67 0 0 1-.12.06c-.04.02-.14.04-.18.04-.06.01-.17.02-.23.02l-.24.05-.23.07a.7.7 0 0 0-.19.15z" fill="url(#G)" class="W X Y"/><linearGradient id="H" gradientUnits="userSpaceOnUse" x1="45.032" y1="26.122" x2="45.983" y2="26.411" gradientTransform="matrix(0.9898 0.1422 0.1422 -0.9898 -32.056 34.8838)"><stop offset="0" stop-color="#ec3222"/><stop offset="1" stop-color="#deed30"/></linearGradient><path d="M16.17 15.43s.13-.12.18-.13a1.36 1.36 0 0 1 .21-.02c.04 0 .12.02.16.02.03 0 .1.01.14.01a.5.5 0 0 0 .12-.02c.03-.01.13-.08.13-.08s-.06.09-.09.12c-.02.02-.06.06-.09.08s-.09.05-.12.05-.1-.01-.14-.01c-.04-.01-.11-.03-.15-.03-.04-.01-.11-.03-.14-.02-.06 0-.21.03-.21.03z" fill="url(#H)" class="W X Y"/><linearGradient id="I" gradientUnits="userSpaceOnUse" x1="44.686" y1="26.916" x2="45.522" y2="27.17" gradientTransform="matrix(0.9898 0.1422 0.1422 -0.9898 -32.056 34.8838)"><stop offset="0" stop-color="#ec3222"/><stop offset="1" stop-color="#deed30"/></linearGradient><path d="M15.98 14.79s.05-.15.08-.18a.83.83 0 0 1 .15-.11c.04-.02.13-.03.17-.04l.14-.04c.03-.01.09-.02.12-.04s.11-.09.11-.09-.02.12-.04.15-.06.1-.09.13a.6.6 0 0 1-.13.09c-.04.02-.13.04-.17.05s-.14-.01-.18 0l-.16.08z" fill="url(#I)" class="W X Y"/><linearGradient id="J" gradientUnits="userSpaceOnUse" x1="-49.782" y1="107.014" x2="-48.94" y2="107.27" gradientTransform="matrix(1.3546 -0.1198 -0.1285 -1.4532 97.677 163.2765)"><stop offset="0" stop-color="#ec3222"/><stop offset="1" stop-color="#deed30"/></linearGradient><path d="M16.52 14.02s.01-.23.05-.29a1.2 1.2 0 0 1 .17-.21c.05-.04.16-.08.21-.11.04-.02.13-.08.17-.1a.45.45 0 0 0 .14-.1c.03-.04.11-.17.11-.17a1.72 1.72 0 0 0 0 .23c-.02.06-.05.17-.08.22s-.1.14-.14.17c-.05.04-.15.11-.21.13s-.18.03-.23.06c-.04.04-.19.17-.19.17z" fill="url(#J)" class="W X Y"/><linearGradient id="K" gradientUnits="userSpaceOnUse" x1="17.78" y1="13.905" x2="18.657" y2="13.242"><stop offset="0" stop-color="#ec3222"/><stop offset="1" stop-color="#deed30"/></linearGradient><path d="M17.62 13.81s.12.09.16.1.14.02.18.01a.61.61 0 0 0 .18-.09l.15-.12c.04-.04.11-.12.14-.16.02-.02.05-.08.08-.1.02-.02.1-.06.1-.06s-.07-.06-.1-.07c-.04-.01-.11-.03-.15-.03s-.11.03-.14.05a1.74 1.74 0 0 0-.15.13l-.11.16c-.03.03-.09.09-.13.11s-.21.07-.21.07z" fill="url(#K)" class="W X Y"/><linearGradient id="L" gradientUnits="userSpaceOnUse" x1="-275.154" y1="467.434" x2="-274.106" y2="467.752" gradientTransform="matrix(0.5089 -0.7217 0.9691 0.6834 -295.7708 -503.2525)"><stop offset="0" stop-color="#ec3222"/><stop offset="1" stop-color="#deed30"/></linearGradient><path d="M17.01 14.66s.14.1.19.12a.71.71 0 0 0 .2.04c.05 0 .14-.04.19-.06a.71.71 0 0 0 .14-.1c.04-.03.1-.1.13-.14.02-.02.05-.07.07-.09s.1-.04.1-.04-.09-.07-.12-.08c-.04-.01-.12-.04-.16-.05-.04 0-.11.02-.15.03a.71.71 0 0 0-.14.1c-.03.03-.07.11-.1.14s-.09.08-.13.09l-.22.04z" fill="url(#L)" class="W X Y"/><path d="M8.72 6.3c-.1.02-.26-.16-.31-.24-.04-.07-.12-.25-.14-.32-.03-.09-.06-.25-.02-.33.03-.08.21-.21.29-.25.08-.03.28-.06.37-.06.11 0 .33 0 .39.08.19.26-.23 1.05-.58 1.12z"/><g class="W X Y"><path d="M8.37 6.59c.1-.12.29-.37.36-.51.06-.1.13-.32.18-.42.04-.1.13-.31.19-.41s.18-.3.28-.37c.15-.09.52-.16.7-.19.11-.02.32-.06.43-.05.08.01.23.04.3.08.03.02.07.08.11.09.07.02.21-.04.27-.05s.19.01.25.03c.05.01.2.03.19.08-.02.1-.34.06-.45.07-.1.01-.3.09-.39.14a2.58 2.58 0 0 0-.41.33 2.34 2.34 0 0 0-.25.3c-.03.08-.16.23-.15.31.02.17.3.45.46.54a2.25 2.25 0 0 0 .62.2c.17.02.53.03.7.02.14-.01.41-.05.53-.1.1-.03.28-.16.39-.18.12-.02.38 0 .5.05.09.04.28.14.32.23a.57.57 0 0 1 .03.34c-.03.07-.12.21-.2.25-.11.05-.39.05-.51.06l-1.15.04-.97.11-.7.14c-.16.03-.47.11-.63.1-.19-.02-.54-.12-.7-.19-.1-.04-.32-.12-.4-.19-.1-.08-.27-.31-.25-.43.02-.13.27-.31.35-.42z" fill="#b2dd47"/><path d="M10.12 8.5H9.4c-.16-.01-.48-.05-.63-.11-.12-.05-.36-.2-.41-.31-.01-.05-.02-.17.03-.2.07-.03.2.12.27.16.11.05.38.15.5.16.12.02.41.02.54.01.14-.01.37-.13.51-.16l.68-.14.76-.09.54-.03c.15 0 .47-.03.59.04.06.04.16.17.15.24-.02.07-.14.17-.21.2-.16.06-.51.05-.69.07-.24.03-.72.16-.96.18-.24.01-.71-.02-.95-.02z" fill="#b2dc48"/></g><path d="M10.34 6.01c0-.4.75-.92 1.27-.92s1.21.48 1.19.86c-.02.4-.62.65-1.14.65-.51-.01-1.32-.2-1.32-.59z"/><path d="M11.06 5.42c.02-.11.31-.18.42-.19a1.02 1.02 0 0 1 .35.02c.08.03.26.12.27.2.02.11-.12.33-.22.37-.11.04-.37.01-.48-.03-.12-.05-.37-.25-.34-.37zm-2.41-.18c-.04 0-.21.21-.21.24-.01.07-.04.26.04.27.04 0 .07-.14.08-.18 0-.04.03-.13.03-.17 0-.03.1-.16.06-.16z" fill="#cee6e3"/><g class="W X Y"><path d="M11.52 8.5c.04-.05.19-.06.26-.05.05.01.18.01.2.05.04.05.03.19-.02.24s-.21.12-.28.1c-.05-.01-.12-.1-.14-.14-.02-.05-.05-.16-.02-.2zm.16.5c.04-.06.23-.11.3-.07.04.02.09.1.09.15s-.02.16-.06.19c-.05.04-.21.07-.27.03-.07-.04-.1-.23-.06-.3zm.13.55a.38.38 0 0 1 .29-.11c.05.02.11.11.11.15s-.02.14-.05.17c-.05.04-.21.08-.27.05a.28.28 0 0 1-.08-.26z" fill="#b2dc48"/><g fill="#b2db48"><path d="M11.37 10.16c-.01-.05.12-.13.17-.13.04 0 .12.05.13.08.01.04-.03.12-.07.14-.05.02-.22-.03-.23-.09zm.51-.21c0 .05.19.01.22.05s-.06.15-.11.17-.19.06-.21.02c-.02-.03.07-.09.07-.12m-1.49-.08c-.09.04-.03.29.04.36.04.04.14.11.2.11.05 0 .13-.06.17-.07.05 0 .17.02.19.07.03.05-.02.18-.04.24-.04.11-.09.33-.13.44l-.13.37c-.02.08-.02.25-.02.34v.55c-.01.08-.08.23-.08.31 0 .13.09.39.18.49.06.07.23.18.32.2.08.02.26.04.31-.01.04-.04.05-.17.01-.2s-.17.01-.22.01c-.06 0-.18-.03-.21-.08-.05-.07-.03-.25-.01-.33s.15-.22.15-.3c0-.06-.13-.15-.15-.21-.05-.19.15-.56.2-.74.03-.12 0-.37.05-.49.02-.06.15-.16.18-.22.03-.07-.07-.26 0-.31.05-.04.18.06.24.07a.99.99 0 0 0 .3-.04c.05-.02.16-.04.19-.08.02-.04.04-.14 0-.17-.12-.08-.44.05-.59.05-.05 0-.14-.07-.19-.07-.08-.01-.24.05-.32.05-.11 0-.33-.03-.41-.1-.07-.07-.16-.27-.23-.24z"/><path d="M11.39 10.79c.2.06.44 0 .64-.03.07-.01.17.16.14.21-.05.09-.31.09-.42.07-.12-.03-.47-.28-.36-.25zm-.17.38a2.49 2.49 0 0 0 .48.32c.12.06.45.03.53-.07.04-.05.03-.21-.03-.24-.1-.06-.37.07-.49.06-.13 0-.58-.15-.49-.07zm-.08.11a6.3 6.3 0 0 0 .73.43c.13.06.35-.05.46.03.04.03.07.13.05.17a.71.71 0 0 1-.49.18c-.25-.06-.66-.41-.81-.59-.04-.05.01-.26.06-.22zm-.13.56c.22.11.62.33.85.38.14.03.46-.18.55-.08.05.06-.07.23-.14.27-.13.08-.47.23-.59.15-.25-.17-.58-.36-.81-.58-.04-.03.09-.17.14-.14z"/><path d="M11.19 12.6c-.06 0-.04.18 0 .22.12.12.5.26.67.23.2-.03.63-.23.7-.41.02-.05-.01-.23-.06-.21-.22.12-.47.34-.66.36-.18.01-.46-.17-.65-.19z"/></g><g fill="#b1da48"><path d="M10.22 10.86c-.11.04-.12.33 0 .36.15.04.45-.16.51-.29.03-.07.15-.31.08-.28l-.59.21zm-.23.72c-.1.02-.08.31 0 .36.07.04.24-.04.31-.09.07-.06.2-.19.24-.26.03-.05.13-.25.07-.23-.17.05-.42.18-.62.22zm.04.64c-.03.06.04.23.11.24.12.02.31-.12.34-.22.02-.05.04-.28 0-.25-.07.07-.17.13-.24.16-.04.03-.18.02-.21.07zm.02.42c0 .13.14.27.2.32.05.04.22 0 .25-.05.04-.06.05-.25-.02-.28-.05-.02-.15.09-.21.09s-.22-.14-.22-.08zm.62.87c-.07.01-.19.12-.23.14-.03.03.01.21.05.26.05.08.19.23.28.28.05.03.19.02.23.06.07.07.03.28.08.36.06.1.29.24.42.28.11.03.33.06.44.03.09-.02.27-.1.3-.18.03-.06.01-.19-.02-.24-.06-.09-.33-.17-.37-.27-.05-.12.06-.39.16-.48.05-.05.23-.06.26-.12a.28.28 0 0 0-.08-.26c-.11-.05-.38-.01-.49.03-.13.05-.33.25-.47.26-.16.03-.42-.17-.56-.15zm-2.5 6.66c.1.12.45.24.62.19.16-.05.49-.29.48-.45-.02-.21-.66-.39-.66-.61 0-.08.27-.1.28-.18.02-.09-.3-.2-.39-.23-.11-.04-.26-.13-.38-.13-.19-.01-.63 0-.81.05-.42.12-1.19.27-1.61.19-.08-.02-.16.2-.14.28.01.06.11.19.18.21.4.1 1.43-.71 1.6-.36.12.24-.75.41-1.03.44-.21.03-.71-.07-.86.06-.08.07-.09.31-.03.39.11.14.5.28.69.31.18.02.84-.55.97-.64.32-.22.83-.54 1.11-.27.11.11-.13.63-.02.75zm.45-2.2c-.05.15-.43.38-.4.53.01.08.29.26.37.27s.35.07.39 0c.08-.14-.13-.6-.1-.76.07-.38.18-.84.5-1.22.04-.05-.06-.31-.13-.3-.06.01-.13.15-.19.16-.05 0-.11-.12-.16-.14-.05-.01-.17.03-.19.07-.05.11.09.36.1.48.02.24-.12.69-.19.91zm.26-1.53c.12-.04.25-.37.16-.46-.04-.04-.18-.04-.23-.01-.09.05-.26.21-.24.3.01.09.23.2.31.17z"/><path d="M9.14 16.22c-.01.05-.03.16.01.19.05.04.22.04.28.01.05-.03.15-.13.16-.18 0-.06-.13-.18-.09-.24.22-.34.73-.82 1.01-1.09.06-.05.26-.04.31-.1.03-.04.04-.15.02-.19-.03-.07-.15-.2-.23-.22-.07-.02-.25-.02-.31.03-.08.07-.07.31-.11.4-.12.27-.59.69-.79.91a1.18 1.18 0 0 0-.18.21 1.38 1.38 0 0 0-.08.27zm3.99 3.13c-.1.08-.17.38-.09.47a1 1 0 0 0 .82.16c.13-.06.26-.33.34-.44.07-.11.21-.41.35-.4.26.03.3.66.44.86.09.13.36.35.52.36.13.01.48-.05.5-.17.02-.11-.21-.28-.31-.33-.08-.04-.27-.04-.34-.1-.12-.1-.34-.49-.2-.57.32-.19.92.66 1.28.77.12.04.46.01.51-.1.04-.08-.05-.29-.13-.33-.09-.04-.31-.02-.41-.04-.3-.04-.52-.29-.78-.44-.07-.04-.49-.19-.58-.21-.19-.03-.59-.03-.77.04-.19.07-.44.42-.64.47-.13.03-.41-.08-.51 0zm1.09-.6c.09.09.38-.07.51-.09.14-.02.43.17.54.09.06-.04 0-.21-.04-.26-.06-.07-.23-.17-.3-.24-.24-.25-.64-.82-.72-1.15-.02-.07.03-.23 0-.3-.03-.06-.14-.17-.21-.17s-.16.14-.22.17-.21.03-.25.08c-.04.04-.07.15-.04.19.06.08.32.06.4.13.25.23.63.76.65 1.09 0 .06-.15.11-.2.15-.08.05-.18.25-.12.31z"/><path d="M13.25 16.5a.44.44 0 0 0-.1.19c0 .03.15.21.22.18.13-.06.31-.11.37-.14a.49.49 0 0 0 .2-.25c.01-.08-.04-.27-.12-.28-.09-.01-.19.17-.27.21-.07.04-.24.05-.3.09zm-.12-.21c.05.07.28.1.36.06.07-.03.2-.15.19-.22-.01-.04-.12-.07-.15-.1-.11-.09-.22-.35-.25-.48l-.22-.78c-.02-.06-.1-.32-.1-.38 0-.05.11-.11.11-.16 0-.06-.12-.16-.18-.2-.08-.04-.26-.11-.36-.12-.07-.01-.24-.01-.3.03-.06.05-.16.22-.11.29.06.09.33.06.42.12.14.09.25.42.3.57.09.27.32.81.36 1.1.02.08-.11.21-.07.27zm.78-1.41c.09-.04.3.12.35.21s.05.16.03.25c-.01.05-.02.31-.07.32-.12.03-.39-.13-.42-.24-.02-.07.08-.2.09-.27s-.04-.24.02-.27z"/><path d="M14.46 13.96l.61.01-.09.35c-.01.16.26.5.16.63-.03.04-.17.04-.21.01-.1-.09-.04-.49-.18-.49-.08 0-.06.21-.05.28.01.08.11.26.06.33-.04.05-.24.1-.29.05-.08-.08 0-.33.02-.44.01-.09.11-.32.02-.35-.08-.03-.18.17-.2.25s.01.27-.06.31c-.09.04-.34-.08-.36-.18-.01-.07.12-.19.17-.25l.19-.25c.03-.04.12-.12.13-.17.04-.12.08-.09.08-.09z"/><path d="M14.52 15.25c.05-.07.27-.11.36-.09.14.03.03.29.05.38.01.1.11.31.06.39s-.29.15-.39.12c-.09-.03-.27-.18-.27-.27 0-.1.19-.24.22-.33 0-.05-.06-.16-.03-.2zm.57-.14c-.05.07.05.24.07.32.03.09-.01.3.07.35.09.07.39.04.46-.04.06-.08.04-.31-.01-.39-.06-.09-.23-.25-.34-.28-.06-.02-.22-.01-.25.04zm-5.3-.27c-.04-.05-.2.02-.25.07-.06.05-.08.09-.1.16-.01.04-.08.21-.05.23.06.04.25-.01.3-.07.03-.04.01-.15.03-.2.01-.05.09-.16.07-.19z"/><path d="M9.75 14.12L9.41 14s-.03.19-.06.25c-.04.11-.29.28-.28.39 0 .03.08.06.12.05.08-.04.17-.32.24-.29.04.02-.03.15-.05.19-.03.05-.14.15-.13.21.01.05.1.11.14.09.07-.04.1-.22.12-.3.02-.06.03-.23.09-.23.05 0 .05.15.04.21-.01.05-.09.18-.05.22.04.05.21.01.25-.05.03-.05-.01-.15-.02-.2l-.03-.2c-.01-.04-.03-.1-.02-.14.02-.09-.02-.08-.02-.08zm-.41.85c-.01-.06-.12-.13-.17-.14-.08-.01-.1.18-.14.24-.03.07-.15.19-.14.26.01.06.12.16.18.16s.2-.06.23-.12-.04-.2-.02-.27c0-.04.07-.1.06-.13zm-.27-.21c.01.05-.1.15-.14.2s-.08.2-.14.22c-.07.03-.23-.05-.24-.12s.07-.21.12-.26c.06-.05.2-.12.27-.12.04 0 .13.04.13.08z"/></g></g><g fill="#83ccde"><path d="M13.78 13.89c.04.17.57.11.77.12.14.01.39.16.52.14.06-.01.12-.16.18-.16.09.01.09.3.18.29.14-.01.08-.38.1-.5s.19-.34.18-.46c-.01-.13-.24-.33-.31-.45-.05-.09-.07-.28-.11-.37-.1-.23-.48-.62-.55-.86-.02-.07.03-.22.01-.29-.05-.21-.4-.52-.48-.72-.04-.08.01-.27-.04-.35-.06-.1-.31-.2-.43-.23-.2-.04-.64-.11-.83-.04-.07.03-.2.12-.22.19-.07.23-.09.95.17.95.26.01.43-1.14.47-.81.02.2-.18.43-.21.74-.02.18.3-.51.49-.59.06-.02.23.02.24.07.04.17-.35.41-.45.56-.09.14-.2.46-.17.62.02.07.1.27.18.25.11-.03.05-.3.07-.39.05-.19.23-.74.43-.67.31.11-.44 1.07-.14 1.19.21.09.2-.78.43-.75.15.02.03.44-.05.56-.12.21-.79.54-.65.74.07.1.43-.05.52-.14.1-.09.17-.47.31-.44.1.03-.11.34-.02.39.06.03.12-.2.19-.18.12.04-.01.4-.12.46-.06.03-.27-.06-.29 0-.03.1.3.23.39.18s.02-.37.12-.38c.17-.01.3.49.17.59-.09.07-.35-.04-.47-.06-.23-.03-.81-.12-.94.06-.08.11.03.49.17.49.08 0 .09-.21.14-.26.07-.06.27-.07.36-.08.22-.01.82-.22.9-.03.04.1-.4.18-.35.28.06.11.38-.24.5-.19.07.03.04.21 0 .27-.07.08-.27.2-.39.21-.18.01-.53-.18-.72-.18-.03.02-.27.14-.25.23z"/><path d="M12.31 9.78c-.1.24-.09.77-.07 1.03.01.27.14.79.21 1.05l.3 1.18.3.96c-.06-.66-.2-1.19-.34-1.57a6.27 6.27 0 0 1-.3-1.28c-.01-.08-.09-.32 0-.33.14-.02.16.35.18.48.03.17.12.51.16.67l.14.51.21.75c.08.23-.01.97.25.93.19-.03-.02-.52-.07-.68-.1-.31-.24-.96-.31-1.28-.05-.2-.4-.67-.22-.79.16-.1.33 1.13.33.56 0-.31-.38-.75-.46-1.02-.03-.12-.2-.32-.2-.44m.99-1.04c-.07.01-.25.08-.23.14.04.1.41-.08.45.01.03.06-.23.09-.23.16.01.08.26.06.35.08s.23.15.32.18c.05.02.18.07.21.03.07-.11-.2-.34-.28-.44-.09-.11-.16-.42-.29-.49-.03-.01-.12-.01-.13.02-.04.11.34.31.27.41-.05.08-.32-.12-.44-.1z"/><path d="M13.71 9.22c.29-.65.45-.75.51-1.03l.27-1.04c.03-.25.03-.75-.05-.98-.08-.24-.38-.68-.55-.88a2.16 2.16 0 0 1-.27-.4l-.19-.35c-.07-.16-.35-.41-.49-.52-.15-.11-.46-.33-.64-.37-.23-.05-.5 0-.72.08-.14.05-.53.06-.67.1a12.35 12.35 0 0 1-.85.11c-.27.01-.77.26-1.02.36-.18.08-.58.19-.74.29-.18.11-.51.4-.58.59-.08.21-.08.68.02.89 0 .01.03.03.04.04.11.11.25.39.4.41.04 0 .13-.05.13-.08 0-.14-.37-.26-.45-.38a1.14 1.14 0 0 1-.06-.83 1.64 1.64 0 0 1 .55-.56c.2-.1.64-.17.86-.21l.88-.14a5.79 5.79 0 0 1 1.02.11c.22.04.66.13.86.21.23.1.65.36.85.5.15.11.48.32.59.47.16.21.35.72.42.97l.18.76c.02.13.07.4.04.53l-.34 1.35zm-1.25.52c-.13.09.27-.36.38-.47.11-.1.21-.32.37-.44.05-.04-.06.19-.09.24-.13.2-.38.48-.66.67zm.52-.24c.23-.34.35-.39.46-.52.08-.1.15-.34.18-.46l.24-1.11c.05-.2-.06.56-.1.8l-.14.54a3.7 3.7 0 0 1-.25.43c-.08.1-.46.42-.39.32zm-2.9-.27c-.06-.06.14.2.2.25.06.06.25.35.21.27-.08-.15-.08-.16-.12-.21-.06-.08-.13-.15-.29-.31zm-.68-.56c-.13-.18.19.6.32.78.07.1.17.33.28.4.04.03.17.08.19.04.03-.05-.18-.14-.14-.19.04-.04.14.11.19.13.02.01.09.01.1-.01.02-.05-.08-.15-.12-.19-.07-.07-.14-.29-.2-.36-.06-.06.07.26.02.29-.07.05-.12-.27-.16-.34-.04-.06.03.39.01.32-.13-.38-.24-.53-.49-.87z"/><path d="M10.04 9.75c-.13.06-.21.46-.25.59-.03.11-.15.31-.18.42-.04.16-.17.76-.05.64.13-.13.1-.18.11-.25l.12-.49c.02-.08.03-.26.06-.19.05.13.04.14.01.24-.01.03.01.21.03.21.15-.04.09-.57.08-.58-.01 0 .05.26.06.34.03.25.06-.39.05-.51-.01-.08-.01-.12.05-.33.03 0-.06-.1-.09-.09z"/><path d="M9.6 11.38c.04-.15.04.43.04.57a2.34 2.34 0 0 0 .07.45c.06.21.24.6.33.8.09.22.13.17.25.66.01.06.03.38-.01.32-.03-.04-.05-.17-.04-.21.02-.22-.23-.65-.32-.86-.06-.13-.16-.4-.21-.53-.04-.1-.09-.42-.11-.53-.03-.12.01-.29.01-.42 0-.07-.03-.18-.01-.25z"/><path d="M10.12 14.18c-.01.06-.22.01-.28-.01L9.31 14c-.03-.02-.06-.26-.03-.34.02-.05.12-.13.13-.18.01-.07-.09-.21-.11-.28-.03-.1 0-.36-.03-.4s.12-.52.1-.59.02-.3.04-.39c.03-.11.01-.46.13-.43.08.02-.02.23-.04.3s-.03.22-.03.3c0 .13-.03.38.01.5.03.09.3.28.21.34-.06.05-.21-.19-.23-.19s-.05.09-.04.12c.03.1.4.23.32.31-.06.07-.23-.25-.3-.2-.11.08.24.51.33.41.08-.08-.25-.36-.34-.29-.03.02.02.09.03.12.03.05.06.15.09.2.05.07.28.18.23.24-.04.05-.18-.16-.23-.12-.08.06.28.27.21.33-.06.04-.17-.26-.26-.24-.03.01-.01.1.01.13.03.06.22.18.17.22-.07.06-.19-.26-.29-.24-.04.01-.05.1-.03.13.02.05.2.1.17.15-.02.04-.14-.08-.18-.07-.02.01-.02.07-.01.08.04.05.19.09.26.1.14.03.54.04.52.16zm.57.8c-.04.02.12.08.17.09.03 0 .14.03.14 0m2.21-.01c-.05-.03.18-.05.24-.07.09-.03.35-.27.32-.19-.06.14-.19.1-.26.21-.02.03-.17.05-.22.05-.02 0-.06.01-.08 0zm.1-.07c-.03-.01.12-.05.15-.07.06-.03.23-.18.2-.14-.04.08-.12.08-.17.14-.01.02-.11.05-.14.05 0 .02-.03.03-.04.02z"/><path d="M11.55 15.19l.66-.02a1.48 1.48 0 0 0 .48-.13c.04-.02-.1.07-.14.08l-.28.08c-.1.02-.25-.01-.35-.01-.08.01-.45 0-.37 0zm-1.02.07l1.03.24c.2.05.61.07.79.06.06 0-.17.03-.24.03l-.46-.03c-.16-.02-.39-.11-.55-.14l-.57-.16z"/><path d="M11.97 15.11l.36-.01a1.18 1.18 0 0 0 .27-.06c.02-.01-.05.04-.07.04l-.15.04c-.05.01-.14-.01-.19 0-.06 0-.27-.01-.22-.01z"/></g><text transform="translate(21.447 22.829)" fill="#ff8000" font-family="AcademyEngravedLetPlain" font-size=".239">HNFT PEPE</text></svg>