<svg xmlns="http://www.w3.org/2000/svg" viewBox="0 0 2400 2400"><g data-name="Layer 3"><path d="M0 0h2400v2400H0" fill="#0f0"/><path d="M48 39h2317v2327H48" fill="#1c1e1b"/><path d="M2319 39A1600 1600 0 01 2000 956a1660 1660 0 01-1117 623" fill="none" stroke="#0f0" stroke-miterlimit="10" stroke-width="25"/><path d="M625 1410a1080 1080 0 00 849 252c70-12 434-75 590-364 92-170 63-362 6-744A4225 4225 0 00 1959 30" fill="none" stroke="#0f0" stroke-miterlimit="10" stroke-width="25"/><path d="M771 1668a1757 1757 0 00 910-550A1767 1767 0 00 2106 30" fill="none" stroke="#0f0" stroke-miterlimit="10" stroke-width="25"/><path d="M749 1477a1624 1624 0 00 1079-492A1600 1600 0 00 2252 39" fill="none" stroke="#f0fff0" stroke-miterlimit="10" stroke-width="25"/><path d="M849 1556a1500 1500 0 00 479-318c454-453 457-1060 454-1207" fill="none" stroke="#0f0" stroke-miterlimit="10" stroke-width="25"/><path d="M833 1472c433 122 876 38 1138-241a1100 1100 0 00 263-584 1218 1218 0 00-68-623" fill="none" stroke="#0f0" stroke-miterlimit="10" stroke-width="25"/><path d="M706 1544c56 12 680 138 1007-233a1000 1000 0 00 200-483 1584 1584 0 00-45-789" fill="none" stroke="#f0fff0" stroke-miterlimit="10" stroke-width="25"/></g><g data-name="Layer 4"><path d="m636 1530-131 62-100-17a45 45 0 01-33 9 39 39 0 01-32-32 39 39 0 01-40-24 24 24 0 01 0-19 154 154 0 01-16-71 136 136 0 01 8-46 100 100 0 01-29 7 88 88 0 01-63-31 30 30 0 01-25-18 42 42 0 01 0-20 45 45 0 01-10-24 42 42 0 01 6-28 67 67 0 01 0-47 70 70 0 01 21-25l32-129a306 306 0 01 264-186 300 300 0 01 224 100 289 289 0 01 64 215 1280 1280 0 00 177 327 2516 2516 0 01 212 277 1118 1118 0 01 100 224l9 108v259H586l25-109-40-44 135-524a82 82 0 01-10-36 86 86 0 01 0-30Z" fill="#0f0"/><path d="M561 1100a100 100 0 01 100 26 100 100 0 01-8 138 110 110 0 00 0-112 115 115 0 00-92-52Z" fill="#f0fff0"/><path d="M578 1145a52 52 0 01 48 24 55 55 0 01-8 63 100 100 0 00-10-50 93 93 0 00-30-37Zm78-189a326 326 0 01 44 60 358 358 0 01 31 243 83 83 0 00 17-19 75 75 0 00 11-22l162 316-21 14a112 112 0 01 40 10A200 200 0 01 1042 1700l-74 44a200 200 0 01 116 28 253 253 0 01 84 128 768 768 0 01 52 176l43-20 11 100-109 84 55-21v185h60V2180l22-20-15-116 29-16a331 331 0 00-168-307l-57-93c-28-47-37-65-59-80a139 139 0 00-77-24L770 1192a147 147 0 00 0-38 286 286 0 00-114-198Z" fill="#f0fff0"/><circle fill="#f0fff0" cx="756" cy="1681" r="27"/></g></svg>
