<svg id="a" viewBox="0 0 541 568" version="1.1" xmlns="http://www.w3.org/2000/svg"><defs id="defs1"><style id="style1">.b{fill:#f8d7a8}.b,.c,.d,.e,.f,.g,.h,.i,.j,.k,.o{stroke-width:0}.c{fill:#26282c}.d{fill:#5b3f31}.e{fill:#5881a3}.f{fill:#3d7098}.g{fill:#0f0d0e}.h{fill:#221d1c}.i{fill:#123f69}.j{fill:#e2ba91}.k{fill:#c1864e}.o{fill:#ece0da}</style></defs><path class="b" d="M230 91c11 16 24 30 34 46l-51 96c-4-3-9-6-14-7-7-2-33-6-41-6v-1l37-103c10-9 21-18 33-25h2z" id="path1"/><path class="j" d="M384 218c-17 72-36 163-45 190-23-49-50-129-9-178-69-5-2 4 54-13z" id="path25"/><path class="o" d="M219 394c-11 9-49 66-71 91 0-7-2-13-1-20 17-28 33-58 48-87l4-7 19 22 1 1z" id="path3"/><path class="o" d="m347 377 47 88-1 20c-22-28-57-81-70-91 0-2 11-11 20-25l4 8z" id="path5"/><path class="b" d="m149 126-13 19C96 211 61 280 25 349l-1-1c7-45 11-92 19-137 13-13 97-83 104-86h2z" id="path6"/><path class="d" d="M191 363a204 204 0 0 0-25 67c-13-7-45-34-48-35 13-31-11-5 52-123 6 29 13 62 21 91z" id="path7"/><path class="g" d="m195 116-37 103c-2 0-6-24-20-72 0-1-1-3-2-2 6-11 14-20 22-30l37 1z" id="path8"/><path class="c" d="m158 219 12 53c-8 15-33 67-37 79-5 14-8 30-15 44l-3-1v-1c-48-16-5 69-90-44 36-68 70-139 111-205 1-1 3 1 3 2 14 50 17 72 19 73Z" id="path9"/><path class="h" d="m115 394-36 16c-15-19-36-39-50-57 3-7 37 23 48 28 12 5 43 10 38 13z" id="path10"/><path class="g" d="M195 378a1360 1360 0 0 1-28 53c-3-1 3-32 24-68l4 15z" id="path11"/><path class="j" d="M213 232c3 5 11 44 15 54l-1 7-5 37-27 48c-15-53-26-107-37-160 6 3 48 4 55 14z" id="path12"/><path class="k" d="m166 221 15 11 9 11h-1c-10-4-21-13-30-18l-1-5 8 1Z" id="path14"/><path class="d" d="m199 226 2 5-20 1-15-11c8 2 34 4 33 5z" id="path15"/><path class="d" d="m424 393-49 38c-1-3-1-32-25-67l22-95c20 39 45 79 52 124Z" id="path16"/><path class="b" d="m516 349-1-2c-19-40-42-78-62-118-16-28-31-59-48-86l-9-13 2-1c2 0 22 17 25 19 9 7 70 59 72 63 8 46 16 92 22 138h-1Z" id="path17"/><path class="g" d="m405 143-21 74a1665 1665 0 0 1-39-101l38-1a129 129 0 0 1 22 28z" id="path18"/><path class="h" d="M516 349c-2 3-46 50-53 60l-39-16c8-4 28-7 38-11l53-35 1 2z" id="path19"/><path class="c" d="m515 347-51 35c-10 4-27 9-40 11-10-46-33-82-52-121 1-17 9-38 11-53 8-24 14-53 21-78 20 31 100 182 111 206z" id="path20"/><path class="b" d="M345 116c28 82 42 100 39 103l-11 2-28 5c-3 1-10 1-12 3-3 2-1 4-3 5 0-21-39-61-52-97l32-47c5-2 31 21 35 26Z" id="path21"/><path class="d" d="m373 221-12 11h-18l1-6 29-5Z" id="path23"/><path class="k" d="M383 219s0 4-2 7l-29 17-1-1 22-21 10-2z" id="path24"/><path class="g" d="m375 429-28-52 3-13a135 135 0 0 1 25 65Z" id="path26"/><path class="i" d="M323 393v1l-8-5 4-22 4 26z" id="path27"/><path class="f" d="M343 369c-6 9-13 16-20 24l-4-26 2-15 5-23a266 266 0 0 0 17 40z" id="path28"/><path class="i" d="m226 389-7 5-1-1 4-33 4 29Z" id="path29"/><path class="f" d="m221 353 1 7-4 33-19-22c6-13 13-26 18-40h1l4 22Z" id="path30"/><path d="M310 90a695 695 0 0 1-32 47h-14c-10-16-23-30-34-46 11-10 27-16 39-24 4 0 17 8 41 24z" id="path31" fill="#85accc" stroke-width="0"/><path class="e" d="m321 350-2 17-4 21-45 14c-8-2-39-14-44-13l-4-29-1-7c17 6 33 13 49 21 16-9 33-18 51-24z" id="path32"/><path class="e" d="M315 388v1l-5 27-2 1-40 28-37-29-3-20-1-7c4-1 35 11 43 13z" id="path33"/><path d="M268 444s33-25 42-28c-7 31-17 63-29 92h-23c-14-36-24-74-30-112l3 19z" id="path34" fill="#305472" stroke-width="0"/><path d="m330 234-16 50c-1 3 1 6 2 8l-45 27c-2 0-38-23-44-26l1-7c-4-10-13-49-15-54l51-95h14c7 23 51 70 52 97Z" id="path35" fill="#729abc" stroke-width="0"/><path class="e" d="m326 329-5 22c-18 5-35 14-51 23-16-8-32-15-49-21l-3-22c-4 5 6-23 9-38 7 3 42 26 44 26l45-27z" id="path36"/><path class="g" d="m201 231 5 17c-1 1-14-4-16-5a71 71 0 0 0-9-11l20-1Z" id="path38"/><path class="g" d="m361 232-10 10c-1 1-14 9-14 7l6-17h18Z" id="path39"/></svg>