<?xml version="1.0" encoding="UTF-8"?><svg id="Layer_1" xmlns="http://www.w3.org/2000/svg" viewBox="0 0 48 48"><path d="m32,4.5c-.9-1.4-2-2.5-3.5-3.3-1.4-.7-3-1.2-4.6-1.2-3.3,0-6.4,1.7-8,4.5-1.6-.4-3.2-.3-4.8.1s-2.9,1.3-4.1,2.5-2,2.6-2.5,4.1c-.4,1.6-.4,3.2-.1,4.8-1.4.9-2.5,2-3.3,3.5-.7,1.4-1.2,3-1.2,4.6,0,3.3,1.7,6.4,4.5,8-.4,1.6-.3,3.2.1,4.8s1.3,2.9,2.5,4.1,2.6,2,4.1,2.5c1.6.4,3.2.4,4.8.1,1.2,1.9,3,3.3,5.1,4.1,2.2.7,4.5.6,6.5-.3,1.9-.7,3.3-2,4.5-3.8,1.6.4,3.2.3,4.8-.1s3-1.3,4.1-2.5c1.2-1.2,2-2.6,2.5-4.1.4-1.6.4-3.2.1-4.8,1.4-.9,2.5-2,3.3-3.5.7-1.4,1.2-3,1.2-4.6s-.4-3.2-1.2-4.6-1.9-2.6-3.3-3.5c.4-1.6.3-3.2-.1-4.8s-1.3-2.9-2.5-4.1-2.6-2-4.1-2.5c-1.4-.3-3.2-.4-4.8,0h0Z" fill="#090" fill-rule="evenodd"/><path d="m22.6,32.5l10.9-16.4c1.3-2-1.7-4.1-3.2-2l-9.6,14.5-3.3-3.3c-1.7-1.7-4.3,1-2.6,2.6l5.2,5.1c.1.1.4.3.7.3h.7c.3,0,.4-.1.7-.3.1,0,.3-.1.4-.4h0Z" fill="red" fill-rule="evenodd"/></svg>