<svg xmlns="http://www.w3.org/2000/svg" width="24" height="24" xmlns:v="https://vecta.io/nano"><path d="M0 0h24v24H0z"/><path d="M1 1h22v22H1z" fill="#ad9579"/><text transform="translate(21.493 22.877)" font-family="AcademyEngravedLetPlain" font-size=".239">HNFT PEPE</text><path d="M16.1 20.51h2.47V23H16.1zm-10.64 0h2.47V23H5.46z" fill="#0c5e30"/><path d="M7.11 13.03h9.84v5H7.11z" fill="#065e2e"/><path d="M10.09 17.05h3.85V23h-3.85z" fill="#0c5e30"/><path d="M12.02 17.95l.8-2.17h-1.6z" fill="#3d2314"/><path d="M8.04 7.91h7.95v5.15H8.04z" fill="#005e2b"/><path d="M8.48 15.14l7.26-.11-.09.51z" fill="#aa2311"/><path d="M15.05 15.44l.65-.18 2.52 1.39-.34.4" fill="#d6c7c8"/><path d="M17.88 17.05l.35.24.33-.44-.34-.2z" fill="#9b201d"/><path d="M15.51 15.7l.34-.36-.54-.3-.99.01" fill="#d69725"/><path d="M8.74 11.68l-.04-1.14 2.81.72z" fill="#3d2314"/><path d="M15.32 10.87h.7v.47h-.7zM7.88 8.31l.24-.4 4.98 2.93-.26.42z"/><path d="M12.66 9.92h2.8v2.38h-2.8z" fill="#22120f"/><path d="M7.98 2.79h8.25v4.47H7.98z" fill="#241309"/><path d="M12 5.19L22.5 7.5 12.11 9.33 1.5 7.5z" fill="#23130c"/><path d="M18.22 13.45h.36v2.45h-.36z" fill="#7c6f6a"/><path d="M8.06 10.26l-1.26.47 1.26-1.4zm0 1.31l-1.26.48 1.26-1.41zm7.93-2.24l1.27 1.4-1.27-.47zm0 1.31l1.27 1.41-1.27-.48z" fill="#3b2212"/><path d="M13.94 20.51h2.16V23h-2.16zm-6.01 0h2.16V23H7.93z" fill="#22120f"/><g fill="#3d2314"><circle cx="13.55" cy="21.81" r=".15"/><circle cx="10.85" cy="21.81" r=".15"/><circle cx="11.4" cy="22.81" r=".15"/><circle cx="10.5" cy="22.41" r=".15"/><circle cx="13.6" cy="22.61" r=".15"/><circle cx="13.15" cy="22.31" r=".15"/><circle cx="12.55" cy="22.66" r=".15"/><circle cx="11.65" cy="22.31" r=".15"/><circle cx="12.35" cy="22.01" r=".15"/></g></svg>